<svg xmlns="http://www.w3.org/2000/svg" viewBox="0 0 48 48"><g id="Warstwa_1" data-name="Warstwa 1"><g id="Warstwa_1-2" data-name="Warstwa 1"><path d="M22.21,31.81l-1,.06h0l1-.06m-1,.06h0" style="fill:#fff"/><path d="M23.12,29.23V21.06H21.25v8.17a5.29,5.29,0,0,1-.05.8,7.45,7.45,0,0,0,1,3.18,7.57,7.57,0,0,0,1-3.18A7,7,0,0,1,23.12,29.23Z" style="fill:#b2bfcf"/><path d="M37.52,41.92v-.26a7.56,7.56,0,0,0-1.78-5.09,7.11,7.11,0,0,0-5.22-2.1H28.17A5.08,5.08,0,0,1,24.41,33a4.94,4.94,0,0,1-.66-1,8.86,8.86,0,0,1-1,2.11c.07.09.13.18.2.26a6.91,6.91,0,0,0,5.14,2.1H30.6a5,5,0,0,1,3.69,1.5,5.7,5.7,0,0,1,1.28,3.74v.26l-1.74,0,2.82,5,3-5Z" style="fill:#b2bfcf"/><path d="M21.27,21.06h0v8.17A5.66,5.66,0,0,1,20,33a5.08,5.08,0,0,1-3.76,1.5H13.85a7.13,7.13,0,0,0-5.22,2.1,7.56,7.56,0,0,0-1.78,5.09v.26L4.77,42l3,5,2.83-5-1.75,0v-.26a5.66,5.66,0,0,1,1.29-3.74,4.92,4.92,0,0,1,3.68-1.5h2.51a6.91,6.91,0,0,0,5.14-2.1,7.56,7.56,0,0,0,1.78-5.09V21.06Z" style="fill:#b2bfcf"/></g><path d="M31.54,6.34H7.46a2.91,2.91,0,0,0-2.8,3v9s-1.41.24-1.67-.61S2.81,3.05,2.81,3.05s-1.4-1.34,7-1,21,.2,21,.2a5.16,5.16,0,0,1,.68,2.35A15.59,15.59,0,0,0,31.54,6.34Z" style="fill:#fff"/><path d="M32.45,6.26V4a1.36,1.36,0,0,0-1.36-1.37H5A1.36,1.36,0,0,0,3.65,4V16.39A1.36,1.36,0,0,0,5,17.76h.22" style="fill:none;stroke:#b2bfcf;stroke-linecap:round;stroke-linejoin:round;stroke-width:0.6836797283877257px"/><rect x="5.89" y="6.26" width="28.81" height="15.7" rx="1.39" transform="translate(40.58 28.23) rotate(180)" style="fill:#e9edf2;stroke:#b2bfcf;stroke-miterlimit:10;stroke-width:0.6956046193581854px"/><path d="M9.12,27.88l26-.06a1.57,1.57,0,0,0,1.43-1.66V11.88a1.49,1.49,0,0,0-1.37-1.58H9.12a1.49,1.49,0,0,0-1.37,1.58V26.3A1.49,1.49,0,0,0,9.12,27.88Z" style="fill:#fff;stroke:#00a0ff;stroke-linecap:round;stroke-linejoin:round;stroke-width:0.7360911306957598px"/><line x1="34.74" y1="14.12" x2="12.72" y2="14.12" style="fill:none;stroke:#00a0ff;stroke-linecap:round;stroke-linejoin:round;stroke-width:0.7681065065799022px"/><line x1="34.74" y1="17.57" x2="12.47" y2="17.57" style="fill:none;stroke:#00a0ff;stroke-linecap:round;stroke-linejoin:round;stroke-width:0.7681065065799022px"/><line x1="28.46" y1="21.01" x2="12.47" y2="21.01" style="fill:none;stroke:#00a0ff;stroke-linecap:round;stroke-linejoin:round;stroke-width:0.7681065065799022px"/><line x1="22.51" y1="24.19" x2="12.47" y2="24.19" style="fill:none;stroke:#00a0ff;stroke-linecap:round;stroke-linejoin:round;stroke-width:0.7681065065799022px"/><path d="M44.5,28.29l.64-.06a8.39,8.39,0,0,0,.12-1.51,7.75,7.75,0,0,0-.09-1.19l-.58,0a1.3,1.3,0,0,1-1.14-.89,7.85,7.85,0,0,0-.32-.8,1.29,1.29,0,0,1,.18-1.38l.41-.49A8.61,8.61,0,0,0,41.84,20l-.44.38a1.33,1.33,0,0,1-1.44.18,5.53,5.53,0,0,0-.79-.34,1.29,1.29,0,0,1-.84-1.11l-.06-.64a8.39,8.39,0,0,0-1.51-.12,9.25,9.25,0,0,0-1.19.09l0,.58a1.29,1.29,0,0,1-.89,1.14,7.85,7.85,0,0,0-.8.32,1.29,1.29,0,0,1-1.38-.18L32,19.89A8.61,8.61,0,0,0,30,21.77l.38.44a1.33,1.33,0,0,1,.18,1.44,5.53,5.53,0,0,0-.34.79,1.32,1.32,0,0,1-1.11.85l-.64.05a8.43,8.43,0,0,0-.12,1.52A9.23,9.23,0,0,0,28.48,28l.58,0A1.3,1.3,0,0,1,30.2,29a7.85,7.85,0,0,0,.32.8,1.29,1.29,0,0,1-.18,1.38l-.41.49a8.61,8.61,0,0,0,1.88,1.93l.44-.38A1.33,1.33,0,0,1,33.69,33a5.53,5.53,0,0,0,.79.34,1.32,1.32,0,0,1,.85,1.11l.05.64a8.43,8.43,0,0,0,1.52.12,7.72,7.72,0,0,0,1.18-.09l0-.58A1.3,1.3,0,0,1,39,33.41a7.85,7.85,0,0,0,.8-.32,1.29,1.29,0,0,1,1.38.18l.49.41a8.61,8.61,0,0,0,1.93-1.88l-.38-.44a1.31,1.31,0,0,1-.17-1.44,6.91,6.91,0,0,0,.33-.79A1.29,1.29,0,0,1,44.5,28.29Z" style="fill:#00a0ff"/><circle cx="36.83" cy="26.79" r="3.54" style="fill:#fff"/></g></svg>