<?xml version="1.0" encoding="UTF-8" standalone="no"?>
<!-- Generator: Adobe Illustrator 15.0.2, SVG Export Plug-In . SVG Version: 6.00 Build 0)  -->

<svg
   xmlns:dc="http://purl.org/dc/elements/1.1/"
   xmlns:cc="http://creativecommons.org/ns#"
   xmlns:rdf="http://www.w3.org/1999/02/22-rdf-syntax-ns#"
   xmlns:svg="http://www.w3.org/2000/svg"
   xmlns="http://www.w3.org/2000/svg"
   xmlns:sodipodi="http://sodipodi.sourceforge.net/DTD/sodipodi-0.dtd"
   xmlns:inkscape="http://www.inkscape.org/namespaces/inkscape"
   version="1.1"
   id="Ebene_1"
   x="0px"
   y="0px"
   width="200.2"
   height="25.715809"
   viewBox="5 1.359 200.19999 25.715809"
   enable-background="new 5 1.359 425.196 59.527"
   xml:space="preserve"
   inkscape:version="0.48.5 r10040"
   sodipodi:docname="AUCONET.svg"><metadata
   id="metadata33"><rdf:RDF><cc:Work
       rdf:about=""><dc:format>image/svg+xml</dc:format><dc:type
         rdf:resource="http://purl.org/dc/dcmitype/StillImage" /></cc:Work></rdf:RDF></metadata><defs
   id="defs31" /><sodipodi:namedview
   pagecolor="#ffffff"
   bordercolor="#666666"
   borderopacity="1"
   objecttolerance="10"
   gridtolerance="10"
   guidetolerance="10"
   inkscape:pageopacity="0"
   inkscape:pageshadow="2"
   inkscape:window-width="869"
   inkscape:window-height="480"
   id="namedview29"
   showgrid="false"
   fit-margin-left="0.1"
   fit-margin-top="0.1"
   fit-margin-bottom="0.1"
   fit-margin-right="0.1"
   inkscape:zoom="3.2455619"
   inkscape:cx="92.667784"
   inkscape:cy="16.28747"
   inkscape:window-x="25"
   inkscape:window-y="25"
   inkscape:window-maximized="0"
   inkscape:current-layer="Ebene_1" />
<g
   id="g3"
   transform="matrix(0.47672607,0,0,0.47672607,1.3653886,-0.62047912)">
	<g
   id="g5">
		<polygon
   points="21.784,16.032 11.43,45.077 21.813,45.077 49.146,30.526 33.895,16.032 "
   id="polygon7"
   style="fill:#e20020" />
		<path
   d="M 67.032,47.525 52.16,33.391 23.243,48.787 c -0.288,0.15 -0.609,0.231 -0.935,0.231 H 10.021 l -1.997,5.616 c -0.572,1.325 0.189,2.463 1.714,2.463 h 64.185 c 1.523,0 3.048,-1.138 3.427,-2.463 l 2.366,-6.563 H 68.4 c -0.509,0 -0.999,-0.195 -1.368,-0.546 z"
   id="path9"
   inkscape:connector-curvature="0"
   style="fill:#e20020" />
		<polygon
   points="81.137,44.129 90.926,16.979 82.99,16.979 55.836,31.435 69.194,44.129 "
   id="polygon11"
   style="fill:#e20020" />
		<path
   d="M 36.055,12.634 52.821,28.569 81.56,13.27 c 0.287,-0.153 0.608,-0.233 0.933,-0.233 h 9.854 L 94.302,7.614 C 94.683,6.287 94.111,5.15 92.588,5.15 H 28.403 c -1.524,0 -3.048,1.137 -3.619,2.464 l -1.596,4.476 h 11.5 c 0.51,-10e-4 1,0.194 1.367,0.544 z"
   id="path13"
   inkscape:connector-curvature="0"
   style="fill:#e20020" />
	</g>
	<path
   d="m 177.988,5.149 0,0 h -7.205 v 35.793 c 0,3.998 -0.754,5.711 -1.885,6.853 -1.32,0.953 -4.525,1.714 -9.428,1.714 -4.713,0 -7.729,-0.761 -9.05,-1.714 -1.131,-1.142 -1.886,-3.047 -1.886,-6.853 V 5.149 h -9.238 v 35.793 c -0.188,7.043 1.32,11.422 3.959,13.516 2.639,2.094 7.165,3.427 15.649,3.427 8.107,0 14.141,-1.142 16.78,-3.427 2.64,-2.476 4.526,-6.282 4.526,-13.516 V 7.396 c 0.001,-1.242 -0.994,-2.246 -2.222,-2.247 z"
   id="path15"
   inkscape:connector-curvature="0"
   style="fill:#e20020" />
	<path
   d="m 334.651,5.153 c 0,-10e-4 -0.001,-0.002 -0.001,-0.003 h -7.231 v 36.024 l 0.189,3.412 0.188,3.223 h -0.377 l -1.885,-4.17 -1.885,-4.172 c -1.509,-3.223 -2.828,-6.067 -3.96,-8.343 L 308.405,6.561 c -0.018,-0.046 -0.04,-0.088 -0.062,-0.133 l -0.031,-0.07 c -0.002,0 -0.004,-10e-4 -0.007,-10e-4 -0.37,-0.712 -1.102,-1.204 -1.954,-1.207 -10e-4,0 -0.002,0 -0.003,-0.001 H 291.98 v 51.949 h 9.236 V 27.332 20.507 l -0.188,-3.223 -0.188,-3.413 h 0.377 l 1.509,3.603 1.696,3.602 c 1.509,3.603 2.45,6.067 3.204,7.394 l 13.571,28.628 h 15.647 V 7.385 c -10e-4,0 -0.002,0 -0.003,0 10e-4,-1.224 -0.976,-2.215 -2.19,-2.232 z"
   id="path17"
   inkscape:connector-curvature="0"
   style="fill:#e20020" />
	<path
   d="m 427.362,7.385 c 0,-1.177 -0.912,-2.131 -2.071,-2.219 -0.008,-0.005 -0.012,-0.013 -0.019,-0.017 h -36.478 v 8.91 h 14.249 v 43.039 h 9.501 V 14.061 h 14.817 V 7.614 c -0.008,-0.008 -0.013,-0.017 -0.02,-0.025 0.006,-0.068 0.021,-0.134 0.021,-0.204 z"
   id="path19"
   inkscape:connector-curvature="0"
   style="fill:#e20020" />
	<path
   d="M 105.568,5.149 87.332,57.098 h 7.967 c 10e-4,-10e-4 0.002,-10e-4 0.003,-0.002 0.009,0.001 0.017,0.002 0.027,0.002 0.885,0 1.691,-0.573 2.054,-1.318 0.017,-0.023 -0.017,0.016 0,-0.008 1.328,-3.225 1.328,-3.225 2.276,-6.637 h 22.949 l 2.277,7.962 h 9.673 L 118.03,5.149 h -12.462 z m -3.822,37.919 10.053,-30.145 9.293,30.145 h -19.346 z"
   id="path21"
   inkscape:connector-curvature="0"
   style="fill:#e20020" />
	<path
   d="m 209.471,4.362 c -9.615,0 -13.952,1.907 -16.968,4.769 -3.205,2.67 -3.394,12.206 -3.582,20.788 -0.378,14.495 1.319,19.575 3.394,23.006 2.263,3.242 9.426,4.96 17.721,4.96 8.673,0 14.14,-1.144 16.591,-3.241 2.262,-1.718 3.958,-6.104 3.958,-11.443 v -2.479 -2.67 h -9.238 v 4.196 c 0,2.861 -0.754,4.578 -2.074,5.722 -1.508,0.955 -4.524,1.525 -9.049,1.525 -5.656,0 -9.049,-0.954 -10.181,-2.86 -0.942,-1.717 -1.319,-6.986 -1.131,-16.904 0.189,-7.439 0.189,-13.161 1.319,-14.687 1.132,-1.525 4.148,-2.289 9.803,-2.289 4.336,0 8.483,0.573 9.615,1.526 1.132,0.953 1.886,1.716 1.696,5.149 v 4.386 h 9.239 V 19.62 c 0,-4.768 -1.321,-9.154 -3.582,-11.252 -2.261,-2.289 -10.555,-4.006 -17.531,-4.006 z"
   id="path23"
   inkscape:connector-curvature="0"
   style="fill:#e20020" />
	<path
   d="m 261.84,4.362 c -10.266,0 -16.729,1.526 -19.391,4.769 -2.661,3.244 -3.992,10.291 -3.992,22.881 0,10.493 1.331,18.052 3.992,21.296 2.663,3.052 8.555,4.576 17.68,4.576 10.266,0 16.54,-1.524 19.202,-4.769 2.661,-3.052 3.992,-11.375 3.992,-23.583 0,-10.873 -1.331,-17.35 -3.992,-20.401 -2.473,-3.243 -8.365,-4.769 -17.491,-4.769 z m 10.076,42.269 c -1.141,1.718 -4.753,2.671 -10.646,2.671 -6.274,0 -9.886,-0.764 -11.216,-2.289 -1.329,-1.525 -1.901,-6.797 -1.901,-14.427 0,-10.301 0.572,-15.442 1.711,-17.158 0.95,-1.717 4.753,-2.479 11.217,-2.479 6.083,0 9.694,0.763 10.836,2.289 1.141,1.717 1.71,6.095 1.71,14.868 -0.001,8.775 -0.571,14.808 -1.711,16.525 z"
   id="path25"
   inkscape:connector-curvature="0"
   style="fill:#e20020" />
	<path
   d="m 379.48,5.149 h -31.614 v 49.714 c 0,1.233 0.998,2.234 2.228,2.234 h 31.428 V 49.135 H 357.29 l 0.031,-14.978 h 23.065 V 26.952 H 357.328 L 357.32,14.059 h 24.391 V 7.306 c -0.004,-0.003 -0.007,-0.004 -0.01,-0.007 -0.046,-1.195 -1.02,-2.15 -2.221,-2.15 z"
   id="path27"
   inkscape:connector-curvature="0"
   style="fill:#e20020" />
</g>
</svg>