<svg xmlns="http://www.w3.org/2000/svg" viewBox="0 0 48 48"><title>box</title><path d="M26.15,18.43a8.92,8.92,0,0,0-7.89,4.75A8.94,8.94,0,0,0,5,20.21V12.69H5a1.79,1.79,0,0,0-3.58,0h0V27.51h0a8.93,8.93,0,0,0,16.82,4,8.93,8.93,0,1,0,7.89-13.12ZM10.37,32.72a5.36,5.36,0,1,1,5.35-5.36A5.36,5.36,0,0,1,10.37,32.72Zm15.78,0a5.36,5.36,0,1,1,5.36-5.36A5.36,5.36,0,0,1,26.15,32.72Z" style="fill:#0075c9"/><path d="M47.1,33.48l-4.58-6.11,4.58-6.12h0a1.79,1.79,0,0,0-2.86-2.14h0l-4,5.27-3.95-5.27h0a1.79,1.79,0,0,0-2.86,2.14h0l4.58,6.12-4.58,6.11h0a1.79,1.79,0,0,0,2.86,2.15h0l3.95-5.28,4,5.28h0a1.79,1.79,0,0,0,2.86-2.15Z" style="fill:#0075c9"/></svg>