<svg xmlns="http://www.w3.org/2000/svg" viewBox="0 0 367.48 90.12"><defs><style>.cls-1{fill:#fff;}</style></defs><g id="Layer_3" data-name="Layer 3"><path class="cls-1" d="M293.08,68.44a22.09,22.09,0,0,1-.9-5.9,16.35,16.35,0,0,1-6.27,4.94,19.2,19.2,0,0,1-8.07,1.74,14.14,14.14,0,0,1-9.86-3.4,11.08,11.08,0,0,1-3.77-8.59,11.31,11.31,0,0,1,5.14-9.77q5.13-3.59,14.31-3.59h8.48V39.06a9.28,9.28,0,0,0-2.79-7.13c-1.87-1.73-4.58-2.59-8.15-2.59a12.71,12.71,0,0,0-8.08,2.5,7.41,7.41,0,0,0-3.21,6l-4.69,0q0-5,4.69-8.73a18.08,18.08,0,0,1,11.53-3.69q7.06,0,11.15,3.54t4.2,9.86v20q0,6.14,1.29,9.18v.47Zm-14.69-3.36a15.71,15.71,0,0,0,8.38-2.27,13.35,13.35,0,0,0,5.37-6.05v-9.3h-8.36q-7,.07-10.94,2.56a7.68,7.68,0,0,0-3.94,6.82,7.55,7.55,0,0,0,2.63,5.89A9.92,9.92,0,0,0,278.39,65.08Z"/><path class="cls-1" d="M326.38,30.16a16.81,16.81,0,0,0-3.16-.28,11.48,11.48,0,0,0-7.41,2.44,13.4,13.4,0,0,0-4.31,7.09v29h-4.65V26.17h4.57l.08,6.72q3.71-7.5,11.91-7.5a7.7,7.7,0,0,1,3.09.51Z"/><path class="cls-1" d="M345,65.27a12.32,12.32,0,0,0,8.18-2.75,9.73,9.73,0,0,0,3.58-7.13h4.49a13.25,13.25,0,0,1-2.42,7,15.26,15.26,0,0,1-5.92,5,17.81,17.81,0,0,1-7.91,1.8q-8.33,0-13.19-5.78t-4.86-15.55V46.48a26.39,26.39,0,0,1,2.19-11A16.86,16.86,0,0,1,335.4,28,17.25,17.25,0,0,1,345,25.39a16.28,16.28,0,0,1,11.46,4.14,15.1,15.1,0,0,1,4.83,10.9h-4.49a11.31,11.31,0,0,0-11.8-11A11.65,11.65,0,0,0,335.12,34q-3.5,4.56-3.49,12.81v1.36q0,8.1,3.49,12.62T345,65.27Z"/><path class="cls-1" d="M53.08,26.14H14.48A14.24,14.24,0,0,0,0,40.18H0V54.66a13.86,13.86,0,0,0,14,14h39L42.55,58.17h0V36.23L53.08,26.14Zm37.72,0V14.3h10.53V63a5.81,5.81,0,0,1-5.71,5.7H62.29a13.86,13.86,0,0,1-14-14h0V40.18a14.14,14.14,0,0,1,14-14H79.83L90.36,36.67ZM172,39.74V54.22a3.93,3.93,0,0,0,3.94,4H179l10.53,10.52h-13.6a14.6,14.6,0,0,1-14.47-14.47V14.3H172v7h7.89V31.85H172ZM237.3,68.69H226.78V36.23H198.26a3.47,3.47,0,0,0-3.51,3.51h0V54.22a3.94,3.94,0,0,0,3.95,4h17.55l10.53,10.52H198.7a14.6,14.6,0,0,1-14.47-14.47V39.74a14.13,14.13,0,0,1,14-14H231.6a5.8,5.8,0,0,1,5.7,5.7Zm-79,0H147.82V36.23H119.31a3.46,3.46,0,0,0-3.51,3.51h0V54.22a3.93,3.93,0,0,0,4,4h17.54l10.53,10.52H119.75a14.6,14.6,0,0,1-14.48-14.47V39.74a14.13,14.13,0,0,1,14-14h33.34a5.8,5.8,0,0,1,5.7,5.7h0ZM90.8,36.23H62.73c-2.2,0-3.95,1.32-3.95,3.51h0V54.66a3.77,3.77,0,0,0,3.51,3.51H90.8V36.23ZM42.55,58.17H14a3.77,3.77,0,0,1-3.51-3.51V40.18a3.93,3.93,0,0,1,4-4H42.55l-11.41,11Z"/></g></svg>