<svg id="Layer_1" data-name="Layer 1" xmlns="http://www.w3.org/2000/svg" viewBox="0 0 406 406"><defs><style>.cls-1{fill:#00a0ff;}</style></defs><title>Artboard 2</title><path class="cls-1" d="M357.34,324.79H159.7c-62.31,0-87.7-52.7-89.55-88.08,0-.54-.08-1-.08-1.54V177.55c0-30.69,12.92-49.54,23.77-59.85C118.62,94.15,153.09,94,160.24,94H355.8l-57.85,57.7H159.7c-.54,0-1,.08-1.54.08-4,0-17.69,1.08-24.77,7.92-1.38,1.38-5.62,5.54-5.62,17.85v56.62c.77,10.15,5.69,32.93,31.93,32.93H297.95Z"/><polygon class="cls-1" points="240.53 209.59 297.88 267.09 297.88 209.59 297.88 151.7 240.53 209.59"/></svg>