<svg xmlns="http://www.w3.org/2000/svg" viewBox="0 0 48 48"><title>clouddata</title><g id="Layer_3" data-name="Layer 3"><path d="M42.25,19.89a6.48,6.48,0,0,0-3-1.78,11.81,11.81,0,0,0,.06-1.18A11.39,11.39,0,0,0,27.88,5.5h0a11.47,11.47,0,0,0-9.13,4.56,9,9,0,0,0-2.16-.28A8.45,8.45,0,0,0,8.12,18.2v.06A6.52,6.52,0,0,0,10.37,30.9H21a.4.4,0,1,0,0-.8l-10.62,0A5.72,5.72,0,0,1,8.65,18.92a.39.39,0,0,0,.28-.4c0-.11,0-.21,0-.32a7.66,7.66,0,0,1,7.65-7.62h0a7.52,7.52,0,0,1,2.2.33.4.4,0,0,0,.44-.15A10.64,10.64,0,0,1,27.86,6.3h0A10.6,10.6,0,0,1,38.46,16.92a10.3,10.3,0,0,1-.1,1.45.4.4,0,0,0,.32.45,5.64,5.64,0,0,1,3,1.63.4.4,0,1,0,.58-.56Z" style="fill:#009ada"/><path d="M12.26,27.09h0a.41.41,0,0,0,0,.81H18a.4.4,0,1,0,0-.8Z" style="fill:#009ada"/><rect x="23.16" y="36.43" width="18.1" height="5.83" rx="0.9" ry="0.9" transform="translate(0.08 -0.07) rotate(0.12)" style="fill:#f0f0f0"/><path d="M40.35,42.5h0l-16.3,0a1.11,1.11,0,0,1-.79-.33,1.07,1.07,0,0,1-.33-.79v-4a1.12,1.12,0,0,1,1.12-1.12h0l16.3,0a1.11,1.11,0,0,1,.79.33,1.07,1.07,0,0,1,.33.79v4a1.11,1.11,0,0,1-1.12,1.12Zm0-.44h0a.67.67,0,0,0,.48-.2.71.71,0,0,0,.19-.48v-4a.65.65,0,0,0-.67-.67l-16.3,0h0a.67.67,0,0,0-.67.67v4a.67.67,0,0,0,.19.47.67.67,0,0,0,.48.2Z" style="fill:#b2bfcf"/><rect x="23.17" y="30.61" width="18.1" height="5.83" rx="0.9" ry="0.9" transform="translate(0.07 -0.07) rotate(0.12)" style="fill:#f0f0f0"/><path d="M40.36,36.68h0l-16.3,0a1.13,1.13,0,0,1-1.12-1.12v-4a1.13,1.13,0,0,1,.33-.79,1.1,1.1,0,0,1,.79-.32h0l16.3,0a1.14,1.14,0,0,1,.8.33,1.1,1.1,0,0,1,.32.79v4a1.08,1.08,0,0,1-.34.79A1.11,1.11,0,0,1,40.36,36.68Zm0-.45h0a.67.67,0,0,0,.48-.2.65.65,0,0,0,.2-.47v-4a.63.63,0,0,0-.2-.47.67.67,0,0,0-.48-.2l-16.3,0h0a.68.68,0,0,0-.67.68v4a.68.68,0,0,0,.67.67Z" style="fill:#b2bfcf"/><rect x="23.18" y="24.78" width="18.1" height="5.83" rx="0.9" ry="0.9" transform="translate(0.06 -0.07) rotate(0.12)" style="fill:#f0f0f0"/><path d="M40.38,30.85h0l-16.3,0A1.12,1.12,0,0,1,23,29.69v-4a1.15,1.15,0,0,1,.33-.8,1.1,1.1,0,0,1,.79-.32h0l16.3,0a1.13,1.13,0,0,1,1.12,1.13v4a1.11,1.11,0,0,1-.33.79A1.13,1.13,0,0,1,40.38,30.85Zm0-.45h0a.67.67,0,0,0,.47-.2.63.63,0,0,0,.2-.47v-4a.67.67,0,0,0-.67-.68L24.08,25h0a.68.68,0,0,0-.47.19.67.67,0,0,0-.2.48v4a.69.69,0,0,0,.67.68Z" style="fill:#b2bfcf"/><path d="M38.59,28.16h-1a.45.45,0,0,1,0-.9h1a.45.45,0,1,1,0,.9Z" style="fill:#b2bfcf"/><path d="M38.58,33.88h-1a.45.45,0,0,1-.45-.45.45.45,0,0,1,.45-.45h1a.45.45,0,0,1,0,.9Z" style="fill:#b2bfcf"/><path d="M35.91,28.15h-1a.45.45,0,0,1-.45-.45.45.45,0,0,1,.45-.45h1a.45.45,0,1,1,0,.9Z" style="fill:#b2bfcf"/><path d="M35.9,33.87h-1a.45.45,0,0,1,0-.9h1a.45.45,0,0,1,.45.45A.45.45,0,0,1,35.9,33.87Z" style="fill:#b2bfcf"/><path d="M38.57,39.8h-1a.45.45,0,0,1,0-.9h1a.45.45,0,1,1,0,.89Z" style="fill:#b2bfcf"/><path d="M35.89,39.75h-1a.45.45,0,0,1,0-.9h1a.45.45,0,1,1,0,.89Z" style="fill:#b2bfcf"/><rect x="24.95" y="26.97" width="1.35" height="1.35" transform="translate(0.06 -0.05) rotate(0.12)" style="fill:#f0f0f0"/><path d="M26.29,28.54H25a.22.22,0,0,1-.23-.22V27a.22.22,0,0,1,.22-.22H26.3a.21.21,0,0,1,.22.22v1.35a.24.24,0,0,1-.07.16A.23.23,0,0,1,26.29,28.54Zm-1.12-.45h.9v-.9h-.9Z" style="fill:#b2bfcf"/><rect x="24.94" y="32.83" width="1.35" height="1.35" transform="translate(0.07 -0.05) rotate(0.12)" style="fill:#f0f0f0"/><path d="M26.28,34.41H24.93a.22.22,0,0,1-.15-.06.2.2,0,0,1-.07-.16V32.83a.26.26,0,0,1,.07-.16.23.23,0,0,1,.16-.06h1.35a.22.22,0,0,1,.22.23v1.34A.23.23,0,0,1,26.28,34.41ZM25.16,34h.9v-.9h-.9Z" style="fill:#b2bfcf"/><rect x="24.92" y="38.66" width="1.35" height="1.35" transform="translate(0.08 -0.05) rotate(0.12)" style="fill:#f0f0f0"/><path d="M26.27,40.23H24.92A.21.21,0,0,1,24.7,40V38.66a.22.22,0,0,1,.23-.22h1.34a.22.22,0,0,1,.23.22V40a.21.21,0,0,1-.22.22Zm-1.12-.45h.9v-.89h-.9Z" style="fill:#b2bfcf"/><path d="M42.68,28.31a.38.38,0,0,1-.22-.07.4.4,0,0,1-.11-.55,5.74,5.74,0,0,0-3.43-8.8.39.39,0,0,1-.29-.48.4.4,0,0,1,.48-.29A6.53,6.53,0,0,1,44,26a6.25,6.25,0,0,1-1,2.16A.38.38,0,0,1,42.68,28.31Z" style="fill:#009ada"/></g></svg>