<svg xmlns="http://www.w3.org/2000/svg" viewBox="0 0 48 48"><title>excel</title><path d="M42.43,9.16H26.76V5.64L4.53,9.4V38.58l22.23,3.84v-3.6H42.43a1.12,1.12,0,0,0,1.12-1.12V10.28A1.12,1.12,0,0,0,42.43,9.16Z" style="fill:#1f7043"/><path d="M26.81,10.44v2.63h5.35v3.36H26.81V17.7h5.35v3.36H26.81v1.3h5.35v3.33H26.81V27h5.35v3.36H26.81v1.29h5.35v3.17H26.81v2.73h15.6V10.44ZM39.73,34.81H33.49V31.64h6.24Zm0-4.46H33.49V27h6.24Zm0-4.66H33.48V22.36h6.25Zm0-4.63H33.49V17.7h6.24Zm0-4.63H33.49V13.07h6.24Z" style="fill:#fff"/><polygon points="19.77 30.74 16.79 30.56 14.82 25.76 13.03 30.34 10.29 30.18 13.33 24.11 10.56 17.93 13.22 17.82 14.98 22.4 16.9 17.55 19.78 17.39 16.47 24.05 19.77 30.74" style="fill:#fff"/></svg>