<svg xmlns="http://www.w3.org/2000/svg" viewBox="0 0 48 48"><title>file</title><g id="Warstwa_1" data-name="Warstwa 1"><path d="M37.44,17.5V16.33a2.22,2.22,0,0,0-.63-1.59L30,8a2.24,2.24,0,0,0-1.59-.65l-16.59.07a1.62,1.62,0,0,0-1.6,1.63L10.42,37a3.87,3.87,0,0,0,3.9,3.83l11.1-.09,7.76,0a4.26,4.26,0,0,0,4.26-4.29c0-6.05-.09-16.56,0-18.18Z" style="fill:#fff"/><path d="M37.44,18.05V15.46l-7.62-8-17.46,0A1.61,1.61,0,0,0,10.75,9l.05,30a1.61,1.61,0,0,0,1.61,1.61l13.3,0,10,0a1.8,1.8,0,0,0,1.74-2C37.45,33.06,37.44,18.05,37.44,18.05Z" style="fill:#fff;stroke:#009ada;stroke-linecap:round;stroke-linejoin:round;stroke-width:0.7231902725473703px"/><polyline points="29.39 7.95 29.36 16.01 37.09 16.05" style="fill:#fff;stroke:#009ada;stroke-linecap:round;stroke-linejoin:round;stroke-width:0.7231902725473703px"/><line x1="14.5" y1="20" x2="33.5" y2="20" style="fill:#e9edf2;stroke:#b2bfcf;stroke-linecap:round;stroke-linejoin:round;stroke-width:1.013884339860143px"/><line x1="14.5" y1="25" x2="28.5" y2="25" style="fill:#e9edf2;stroke:#b2bfcf;stroke-linecap:round;stroke-linejoin:round;stroke-width:0.9799442953393679px"/><line x1="14.5" y1="35" x2="32.5" y2="35" style="fill:#e9edf2;stroke:#b2bfcf;stroke-linecap:round;stroke-linejoin:round;stroke-width:1.0015284459130203px"/><line x1="14.5" y1="30" x2="30.5" y2="30" style="fill:#e9edf2;stroke:#b2bfcf;stroke-linecap:round;stroke-linejoin:round;stroke-width:1.0049841263658745px"/></g></svg>