<svg xmlns="http://www.w3.org/2000/svg" viewBox="0 0 48 48"><title>flatfiles</title><g id="Warstwa_1" data-name="Warstwa 1"><path d="M17.35,10.52H27.78c2.27,0,3.34.65,3.36,2.93L30.29,18l.93,19.61h8.83a1.48,1.48,0,0,0,1.49-1.49V12.81a2.26,2.26,0,0,0-.71-1.66l-6-5.76a2.29,2.29,0,0,0-1.53-.63c-3.31-.08-14.79-.32-15.47.33S17.35,10.52,17.35,10.52Z" style="fill:#f0f0f0"/><polyline points="34.48 4.78 34.48 12.04 41.74 12.04" style="fill:none;stroke:#b2bfcf;stroke-linecap:round;stroke-linejoin:round;stroke-width:0.726px"/><path d="M17.31,10V6.16a1.45,1.45,0,0,1,1.45-1.45l15.73.07L41.75,12l0,13.5V36.2a1.45,1.45,0,0,1-1.45,1.45h-8" style="fill:none;stroke:#b2bfcf;stroke-linecap:round;stroke-linejoin:round;stroke-width:0.726px"/><path d="M36.44,19.5V18.33a2.22,2.22,0,0,0-.63-1.59L29,10a2.24,2.24,0,0,0-1.59-.65l-16.59.07a1.62,1.62,0,0,0-1.6,1.63L9.42,39a3.87,3.87,0,0,0,3.9,3.83l11.1-.09,7.76,0a4.26,4.26,0,0,0,4.26-4.29c0-6-.09-16.56,0-18.18Z" style="fill:#fff"/><path d="M36.44,20.05V17.46l-7.62-8L11.36,9.37A1.61,1.61,0,0,0,9.75,11L9.8,41a1.61,1.61,0,0,0,1.61,1.61l13.3,0,10,0a1.8,1.8,0,0,0,1.74-2C36.45,35.06,36.44,20.05,36.44,20.05Z" style="fill:#fff;stroke:#009ada;stroke-linecap:round;stroke-linejoin:round;stroke-width:0.72319027254737px"/><polyline points="28.39 9.95 28.36 18.01 36.09 18.05" style="fill:#fff;stroke:#009ada;stroke-linecap:round;stroke-linejoin:round;stroke-width:0.72319027254737px"/><line x1="17.31" y1="27.06" x2="17.31" y2="42.31" style="fill:#fff;stroke:#009ada;stroke-linecap:round;stroke-linejoin:round;stroke-width:0.72319027254737px"/><line x1="10.19" y1="27" x2="36.19" y2="27" style="fill:#fff;stroke:#009ada;stroke-linecap:round;stroke-linejoin:round;stroke-width:0.72319027254737px"/><line x1="10.19" y1="37" x2="36.19" y2="37" style="fill:#fff;stroke:#009ada;stroke-linecap:round;stroke-linejoin:round;stroke-width:0.72319027254737px"/><line x1="10.19" y1="32" x2="36.19" y2="32" style="fill:#fff;stroke:#009ada;stroke-linecap:round;stroke-linejoin:round;stroke-width:0.72319027254737px"/></g></svg>