<svg xmlns="http://www.w3.org/2000/svg" viewBox="0 0 48 48"><defs><style>.cls-1{isolation:isolate;}.cls-2{mix-blend-mode:screen;}.cls-3{fill:#66c2e9;}.cls-4{fill:#5cbee7;}.cls-5{fill:#f7f7f7;}</style></defs><title>googlecloudspanner copy</title><g class="cls-1"><g id="Solid_Blues" data-name="Solid Blues" class="cls-2"><path class="cls-3" d="M10.08,40.8l-7.55-13a7.18,7.18,0,0,1,0-7.35l7.55-13A7.44,7.44,0,0,1,16.5,3.65h15a7.57,7.57,0,0,1,6.42,3.73l7.55,13a7.18,7.18,0,0,1,0,7.35L38,40.8a7.42,7.42,0,0,1-6.41,3.73H16.5A7.31,7.31,0,0,1,10.08,40.8Z"/><path class="cls-4" d="M42.89,31.9,31.77,19,16.08,22.9l5,6s-4.6.1-4.6,0L31.81,44.32l.21.21h1.66a3.73,3.73,0,0,0,3.1-1.76Z"/><path class="cls-5" d="M31.56,19H16.44a.44.44,0,0,0-.44.44v3.12a.44.44,0,0,0,.44.44H31.56a.44.44,0,0,0,.44-.44V19.44A.44.44,0,0,0,31.56,19Zm-2.39,3.07a1,1,0,1,1,1-1A1,1,0,0,1,29.17,22.07Z"/><path class="cls-5" d="M31.56,25H16.44a.44.44,0,0,0-.44.44v3.12a.44.44,0,0,0,.44.44H31.56a.44.44,0,0,0,.44-.44V25.44A.44.44,0,0,0,31.56,25Zm-2.39,3.07a1,1,0,1,1,1-1A1,1,0,0,1,29.17,28.07Z"/></g></g></svg>