<svg xmlns="http://www.w3.org/2000/svg" viewBox="0 0 48 48"><title>hl7</title><g id="Warstwa_1" data-name="Warstwa 1"><path d="M5.94,7.69H24V40.3H5.94a1.45,1.45,0,0,1-1.45-1.45V9.15A1.45,1.45,0,0,1,5.94,7.69Z" style="fill:#f0f0f0"/><path d="M5.94,7.69H24.36V40.3H5.94a1.45,1.45,0,0,1-1.45-1.45V9.15A1.45,1.45,0,0,1,5.94,7.69Z" style="fill:#fff;stroke:#b2bfcf;stroke-miterlimit:10;stroke-width:0.7260000000000001px"/><path d="M42.06,7.69H24.36V40.3h17.7a1.45,1.45,0,0,0,1.45-1.45V9.15A1.45,1.45,0,0,0,42.06,7.69Z" style="fill:#009ada;stroke:#009ada;stroke-miterlimit:10;stroke-width:0.7260000000000001px"/><path d="M13.31,9v.85s-2,.08-2.17,1.53S11,16.49,11,16.49v5.94H19V16.64a35.89,35.89,0,0,0-.24-5.56c-.34-1.12-2-1.12-2-1.12V9H24V9.9s-1.91.09-2.09,1.36-.24,4.53-.24,5.47V30.59c0,1.27-.1,5.6.61,6.2a2.49,2.49,0,0,0,1.72.69v.88H16.74v-.83s1.6-.2,1.92-1,.35-3.92.35-5.72,0-6.38,0-6.38H11v9.46c0,1.34.15,2.62.82,3.05a3.67,3.67,0,0,0,1.5.48v.89H6v-.83a4.58,4.58,0,0,0,1.89-.86c.45-.55.42-2.2.44-2.76s0-15.63,0-17.18.1-4.57-.29-5.56a2.26,2.26,0,0,0-2-1.3V9Z" style="fill:#009ada"/><path d="M24.59,16.39h17V18s-6.38,10.41-6.56,14.95.21,5.87.82,7.76H27S27,35.13,37,24c0,0-8.88-.08-10.33-.08s-2.83.19-3.07.9-.53,2.31-.66,3a.35.35,0,0,1-.35.29h-.39a.37.37,0,0,1-.35-.45Z" style="fill:#f0f0f0"/><path d="M31.33,9v.85s-2,.08-2.17,1.53S29,16.49,29,16.49s0,16.12,0,17.45v1.42a1.07,1.07,0,0,0,1.21,1.18h2.4c1.22,0,3.54-.22,4.3-1.42a15.73,15.73,0,0,0,1.87-4.43h.71l-1.28,7.67H25.92s-.48-1.15,0-1.69.42-2.2.45-2.76,0-15.63,0-17.18.1-4.57-.3-5.56A2.87,2.87,0,0,1,26.28,9h5m.72-.73H25.86l-.21.38a3.47,3.47,0,0,0-.28,2.75,20.42,20.42,0,0,1,.25,4.5c0,.29,0,.56,0,.8v2.54c0,4.24,0,14.18,0,14.61,0,.08,0,.17,0,.29,0,1.44-.16,1.9-.27,2a2.58,2.58,0,0,0-.08,2.44l.19.45H38.83l.1-.61,1.29-7.67.14-.84H38.2l-.12.58a15.11,15.11,0,0,1-1.78,4.19c-.47.74-2.19,1.07-3.68,1.07h-2.4c-.42,0-.49-.11-.49-.45V33.94c0-1.33,0-17.45,0-17.45s-.06-3.6.13-5c.11-.83,1.46-.9,1.48-.9l.69,0V8.3Z" style="fill:#009ada"/><path d="M31.32,38.36H24v-.88a3.44,3.44,0,0,0,1.89-.81c.45-.55.42-2.2.45-2.76s0-15.63,0-17.18.1-4.57-.3-5.56A2.22,2.22,0,0,0,24,9.9V9h7.33v.85s-2,.08-2.17,1.53S29,16.49,29,16.49s0,16.12,0,17.45v1.42a1.07,1.07,0,0,0,1.21,1.18h2.4c1.22,0,3.54-.22,4.3-1.42a15.73,15.73,0,0,0,1.87-4.43h.71l-1.28,7.67Z" style="fill:#fff"/></g></svg>