<svg xmlns="http://www.w3.org/2000/svg" viewBox="0 0 48 48"><defs><style>.cls-1{fill:#f0f0f0;}.cls-2{fill:none;}.cls-2,.cls-6{stroke:#b2bfcf;}.cls-2,.cls-3{stroke-linecap:round;stroke-linejoin:round;stroke-width:0.73px;}.cls-3,.cls-5,.cls-6{fill:#fff;}.cls-3,.cls-7{stroke:#0093dd;}.cls-4,.cls-7{fill:#0093dd;}.cls-6,.cls-7{stroke-miterlimit:10;stroke-width:0.31px;}</style></defs><title>hl7mllp</title><g id="Warstwa_1" data-name="Warstwa 1"><path class="cls-1" d="M18.11,8.23l8.27,0h2.14c2.28,0,3.34.66,3.36,2.93L31,15.73,32,35.36H40.8a1.5,1.5,0,0,0,1.49-1.5V10.51a2.32,2.32,0,0,0-.71-1.67l-6-5.76A2.27,2.27,0,0,0,34,2.45c-3.31-.08-14.78-.32-15.46.33S18.11,8.23,18.11,8.23Z"/><polyline class="cls-2" points="35.23 2.47 35.23 9.73 42.49 9.73"/><path class="cls-2" d="M18.06,7.5V3.85A1.45,1.45,0,0,1,19.51,2.4l15.72.07L42.5,9.73l0,13.5V33.89A1.46,1.46,0,0,1,41,35.35H32.84"/><path class="cls-3" d="M19.26,42.43h-12a1.51,1.51,0,0,1-1.45-1.57V11.58A1.51,1.51,0,0,1,7.29,10l21.54.07a1.51,1.51,0,0,1,1.45,1.57V40.86a1.51,1.51,0,0,1-1.45,1.57Z"/><path class="cls-4" d="M5.84,33.76H30.28V41.3c0,.56-.61,1-1.36,1H7.2c-.75,0-1.36-.46-1.36-1Z"/><path class="cls-5" d="M7.32,9.64l21.54.07a1.9,1.9,0,0,1,1.81,2V40.82a1.89,1.89,0,0,1-1.81,2H7.32a1.9,1.9,0,0,1-1.82-2V11.61a1.9,1.9,0,0,1,1.82-2m0-2.18h0a4.08,4.08,0,0,0-4,4.15V40.82a4.08,4.08,0,0,0,4,4.15H28.85a4.08,4.08,0,0,0,4-4.15V11.68a4.09,4.09,0,0,0-4-4.15L7.33,7.46Z"/><path class="cls-5" d="M9.65,35.59h1.41l1.39,3.65,1.41-3.65h1.4V40.8h-.88V36.47h0L12.78,40.8h-.65l-1.58-4.33h0V40.8H9.65Z"/><path class="cls-5" d="M16.44,35.59h.93V40h2.22v.84H16.44Z"/><path class="cls-5" d="M20.27,35.59h.92V40h2.22v.84H20.27Z"/><path class="cls-5" d="M24.09,35.59h1.75a3.38,3.38,0,0,1,.72.08,1.71,1.71,0,0,1,.62.24,1.19,1.19,0,0,1,.42.47,1.42,1.42,0,0,1,.16.72,1.69,1.69,0,0,1-.17.8,1.13,1.13,0,0,1-.46.46,1.91,1.91,0,0,1-.66.23,5.06,5.06,0,0,1-.79.06H25V40.8h-.92Zm1.48,2.26H26a1.24,1.24,0,0,0,.39-.09.63.63,0,0,0,.41-.63.7.7,0,0,0-.1-.39.64.64,0,0,0-.27-.22,1.07,1.07,0,0,0-.36-.1,2.48,2.48,0,0,0-.38,0H25v1.46Z"/><path class="cls-1" d="M8.11,13.51h7.8V27.59H8.11A.63.63,0,0,1,7.48,27V14.13A.63.63,0,0,1,8.11,13.51Z"/><path class="cls-6" d="M8.11,13.51h8V27.59h-8A.63.63,0,0,1,7.48,27V14.13A.63.63,0,0,1,8.11,13.51Z"/><path class="cls-7" d="M23.71,13.51H16.07V27.59h7.64a.63.63,0,0,0,.63-.63V14.13A.63.63,0,0,0,23.71,13.51Z"/><path class="cls-4" d="M11.3,14.08v.37s-.86,0-.94.66a21.17,21.17,0,0,0-.06,2.2v2.56h3.43v-2.5a15.7,15.7,0,0,0-.1-2.4c-.15-.49-.88-.49-.88-.49v-.4h3.16v.38s-.82,0-.9.58-.1,2-.1,2.37v6c0,.55-.05,2.42.26,2.68a1.08,1.08,0,0,0,.74.3v.38H12.78v-.36s.69-.08.83-.41a12.8,12.8,0,0,0,.15-2.47c0-.78,0-2.76,0-2.76H10.29v4.09c0,.58.07,1.14.36,1.32a1.59,1.59,0,0,0,.64.21v.38H8.13v-.36A1.9,1.9,0,0,0,9,26a2.73,2.73,0,0,0,.19-1.19c0-.25,0-6.75,0-7.42A10.52,10.52,0,0,0,9,15a1,1,0,0,0-.88-.57v-.36Z"/><path class="cls-1" d="M16.17,17.26h7.35v.68s-2.75,4.5-2.83,6.46A7.86,7.86,0,0,0,21,27.75H17.2s0-2.39,4.35-7.21l-4.47,0c-.62,0-1.22.08-1.32.39a13.28,13.28,0,0,0-.29,1.3.16.16,0,0,1-.15.13h-.17a.16.16,0,0,1-.15-.2Z"/><path class="cls-4" d="M19.08,14.08v.37s-.85,0-.94.66-.06,2.2-.06,2.2,0,7,0,7.53v.62a.47.47,0,0,0,.53.51h1c.52,0,1.53-.1,1.85-.62a6.66,6.66,0,0,0,.81-1.91h.31l-.56,3.31H16.74s-.21-.49,0-.73.18-.95.19-1.19,0-6.75,0-7.42a10.52,10.52,0,0,0-.13-2.4,1.23,1.23,0,0,1,.11-.93h2.18m.31-.31H16.71l-.09.16a1.53,1.53,0,0,0-.12,1.19,8.49,8.49,0,0,1,.11,1.94V18.5c0,1.84,0,6.13,0,6.32v.12a2.18,2.18,0,0,1-.12.88,1.11,1.11,0,0,0,0,1.05l.08.2h5.79l0-.27.56-3.31.06-.36h-.93l-.06.25a6.74,6.74,0,0,1-.76,1.81c-.21.32-.95.46-1.59.46h-1c-.18,0-.21,0-.21-.19v-.62c0-.57,0-7.53,0-7.53a19.48,19.48,0,0,1,.05-2.16c.05-.35.64-.39.64-.39h.3v-1Z"/><path class="cls-5" d="M19.07,26.75H15.91v-.38a1.46,1.46,0,0,0,.82-.35c.2-.23.18-.95.19-1.19s0-6.75,0-7.42a10.52,10.52,0,0,0-.13-2.4.94.94,0,0,0-.88-.55v-.38h3.17v.37s-.85,0-.94.66-.06,2.2-.06,2.2,0,7,0,7.53v.62a.47.47,0,0,0,.53.51h1c.52,0,1.53-.1,1.85-.62a6.66,6.66,0,0,0,.81-1.91h.31l-.56,3.31Z"/><path class="cls-5" d="M23.45,32a1,1,0,0,1-1-1V29.27l-1.7,0a1,1,0,0,1-1-1V26.54a1,1,0,0,1,1-1h1.72l0-1.71a1,1,0,0,1,1-1h1.71a1,1,0,0,1,1,1v1.73l1.7,0a1,1,0,0,1,1,1v1.73a1,1,0,0,1-1,1H26.16l0,1.67a1,1,0,0,1-1,1Z"/><path class="cls-5" d="M25.16,23.31a.5.5,0,0,1,.5.5v1.73a.5.5,0,0,0,.5.5h1.72a.5.5,0,0,1,.5.5v1.73a.51.51,0,0,1-.5.5H26.16a.5.5,0,0,0-.5.5V31a.5.5,0,0,1-.5.5H23.45A.5.5,0,0,1,23,31V29.27a.5.5,0,0,0-.5-.5H20.73a.51.51,0,0,1-.5-.5V26.54a.5.5,0,0,1,.5-.5h1.72a.5.5,0,0,0,.5-.5V23.81a.5.5,0,0,1,.5-.5h1.71m0-1H23.45a1.54,1.54,0,0,0-1.54,1.54V25H20.73a1.54,1.54,0,0,0-1.54,1.54v1.73a1.54,1.54,0,0,0,1.54,1.54h1.18V31a1.54,1.54,0,0,0,1.54,1.54h1.71A1.54,1.54,0,0,0,26.7,31V29.81h1.18a1.54,1.54,0,0,0,1.54-1.54V26.54A1.54,1.54,0,0,0,27.88,25H26.7V23.81a1.54,1.54,0,0,0-1.54-1.54Z"/><polygon class="cls-4" points="25.66 26.04 25.66 23.31 22.95 23.31 22.95 26.04 20.23 26.04 20.23 28.77 22.95 28.77 22.95 31.46 25.66 31.46 25.66 28.77 28.38 28.77 28.38 26.04 25.66 26.04"/></g></svg>