<svg id="Layer_1" data-name="Layer 1" xmlns="http://www.w3.org/2000/svg" viewBox="0 0 48 48"><defs><style>.cls-1{fill:#0f91d0;}.cls-2{fill:#169dd8;}.cls-3{fill:#68696c;}</style></defs><title>HPCC Systems</title><polygon class="cls-1" points="0.65 20.12 44.14 19.79 43.49 21.04 0.65 20.12"/><path class="cls-2" d="M16.92,30.23a3.77,3.77,0,0,0-.75,0,4.59,4.59,0,0,0-.8.13,5.5,5.5,0,0,0-.82.28,6.42,6.42,0,0,0-.83.43,7.16,7.16,0,0,0-1.48,1.21,7,7,0,0,0-1.07,1.49,5.48,5.48,0,0,0-.57,1.62,3.66,3.66,0,0,0,0,1.58,2.74,2.74,0,0,0,.28.68,2.44,2.44,0,0,0,.44.55,2.51,2.51,0,0,0,.57.4,2.88,2.88,0,0,0,.69.24,3.51,3.51,0,0,0,.78.08,4.36,4.36,0,0,0,.85-.09,5.33,5.33,0,0,0,.9-.27,6.35,6.35,0,0,0,.92-.46,7.17,7.17,0,0,0,1.62-1.34,6.8,6.8,0,0,0,1.1-1.64,5.1,5.1,0,0,0,.48-1.71,3.31,3.31,0,0,0-.21-1.55,2.58,2.58,0,0,0-.36-.62,2.43,2.43,0,0,0-.49-.47,2.63,2.63,0,0,0-.6-.32,3.09,3.09,0,0,0-.69-.17"/><path class="cls-2" d="M13.57,23.1a3.48,3.48,0,0,0-.65,0,4.44,4.44,0,0,0-.7.14,5.44,5.44,0,0,0-.73.27,6.45,6.45,0,0,0-.74.39A7.08,7.08,0,0,0,9.43,25a6.51,6.51,0,0,0-1,1.27,4.67,4.67,0,0,0-.54,1.34,2.74,2.74,0,0,0,0,1.27,1.91,1.91,0,0,0,.23.54,1.73,1.73,0,0,0,.37.42A1.91,1.91,0,0,0,9,30.1a2.41,2.41,0,0,0,.59.16,3.21,3.21,0,0,0,.68,0,4.2,4.2,0,0,0,.74-.12,5.31,5.31,0,0,0,.78-.27,6.38,6.38,0,0,0,.81-.42A7.08,7.08,0,0,0,14,28.31a6.33,6.33,0,0,0,1-1.38,4.29,4.29,0,0,0,.48-1.4,2.44,2.44,0,0,0-.12-1.24,1.8,1.8,0,0,0-.29-.49,1.77,1.77,0,0,0-.41-.36,2.07,2.07,0,0,0-.51-.23,2.66,2.66,0,0,0-.59-.11"/><path class="cls-2" d="M10.86,17.55a3.28,3.28,0,0,0-.58,0,4.34,4.34,0,0,0-.62.15A5.43,5.43,0,0,0,9,18a6.44,6.44,0,0,0-.67.36,7,7,0,0,0-1.21.95,6.19,6.19,0,0,0-.9,1.1,4.11,4.11,0,0,0-.52,1.14,2.14,2.14,0,0,0,0,1.06,1.39,1.39,0,0,0,.19.43,1.29,1.29,0,0,0,.31.33,1.54,1.54,0,0,0,.42.22,2.12,2.12,0,0,0,.52.1,3,3,0,0,0,.59,0,4.11,4.11,0,0,0,.65-.14,5.28,5.28,0,0,0,.7-.26,6.4,6.4,0,0,0,.72-.38,7,7,0,0,0,1.3-1A6,6,0,0,0,12,20.68a3.75,3.75,0,0,0,.46-1.19,1.89,1.89,0,0,0-.07-1,1.32,1.32,0,0,0-.24-.4,1.34,1.34,0,0,0-.35-.28,1.7,1.7,0,0,0-.44-.17,2.37,2.37,0,0,0-.52-.06"/><path class="cls-2" d="M27.76,23.54a4.84,4.84,0,0,0-.82,0,5.58,5.58,0,0,0-.85.16,6.26,6.26,0,0,0-.86.3,6.84,6.84,0,0,0-2.31,1.63,5.8,5.8,0,0,0-1,1.43,4.26,4.26,0,0,0-.42,1.53,3,3,0,0,0,.25,1.46,2.64,2.64,0,0,0,.4.62,2.72,2.72,0,0,0,.55.48,3.12,3.12,0,0,0,.67.34,3.77,3.77,0,0,0,.78.19,4.56,4.56,0,0,0,.86,0A5.37,5.37,0,0,0,26,31.6a6.11,6.11,0,0,0,.94-.3,6.82,6.82,0,0,0,2.53-1.8,5.6,5.6,0,0,0,1-1.58,4,4,0,0,0,.3-1.6,2.82,2.82,0,0,0-.43-1.42,2.66,2.66,0,0,0-.47-.56,2.87,2.87,0,0,0-.6-.41,3.37,3.37,0,0,0-.69-.27,4.06,4.06,0,0,0-.77-.12"/><path class="cls-2" d="M22.89,17.11a4.38,4.38,0,0,0-.7.05,5.29,5.29,0,0,0-.74.17,6.09,6.09,0,0,0-.75.28,6.83,6.83,0,0,0-2.06,1.44,5.53,5.53,0,0,0-.9,1.22,3.65,3.65,0,0,0-.42,1.27,2.21,2.21,0,0,0,.15,1.17,1.83,1.83,0,0,0,.31.48,1.94,1.94,0,0,0,.45.37,2.4,2.4,0,0,0,.56.24,3.13,3.13,0,0,0,.66.12,4.08,4.08,0,0,0,.73,0,5.08,5.08,0,0,0,.79-.15,6,6,0,0,0,.82-.29A6.81,6.81,0,0,0,24,21.89a5.3,5.3,0,0,0,.92-1.32,3.33,3.33,0,0,0,.34-1.32A2,2,0,0,0,25,18.11a1.85,1.85,0,0,0-.37-.44,2.09,2.09,0,0,0-.49-.31,2.65,2.65,0,0,0-.58-.19,3.44,3.44,0,0,0-.65-.07"/><path class="cls-2" d="M19.81,11.85a4.12,4.12,0,0,0-.62.07,5.15,5.15,0,0,0-.65.17,6,6,0,0,0-.67.27A6.82,6.82,0,0,0,16,13.67a5.27,5.27,0,0,0-.84,1.06,3.2,3.2,0,0,0-.41,1.08,1.7,1.7,0,0,0,.1,1,1.35,1.35,0,0,0,.26.39,1.5,1.5,0,0,0,.38.28,2,2,0,0,0,.49.18,2.79,2.79,0,0,0,.57.07,3.82,3.82,0,0,0,.64,0,4.92,4.92,0,0,0,.69-.16,5.93,5.93,0,0,0,.72-.28,6.81,6.81,0,0,0,2-1.41,5,5,0,0,0,.85-1.14,2.89,2.89,0,0,0,.35-1.12,1.55,1.55,0,0,0-.21-.94,1.37,1.37,0,0,0-.31-.35,1.64,1.64,0,0,0-.42-.24,2.23,2.23,0,0,0-.5-.13,3.09,3.09,0,0,0-.57,0"/><path class="cls-2" d="M32.91,10.89a5.48,5.48,0,0,0-.76.08,6.31,6.31,0,0,0-.78.19,6.85,6.85,0,0,0-.78.3,7.09,7.09,0,0,0-.77.41,6.39,6.39,0,0,0-1.29,1,4.61,4.61,0,0,0-.83,1.17,2.81,2.81,0,0,0-.3,1.19,1.87,1.87,0,0,0,.32,1.08,2,2,0,0,0,.4.43,2.38,2.38,0,0,0,.53.31,3.14,3.14,0,0,0,.64.19,4.12,4.12,0,0,0,.73.07,5.19,5.19,0,0,0,.8-.05,6.12,6.12,0,0,0,.84-.18,6.77,6.77,0,0,0,.85-.31,7.08,7.08,0,0,0,.84-.44,6.33,6.33,0,0,0,1.39-1.13A4.36,4.36,0,0,0,35.58,14a2.56,2.56,0,0,0,.2-1.23,1.82,1.82,0,0,0-.46-1,2.11,2.11,0,0,0-.46-.38,2.65,2.65,0,0,0-.57-.26,3.5,3.5,0,0,0-.66-.14,4.5,4.5,0,0,0-.72,0"/><path class="cls-2" d="M28.24,6.65a5,5,0,0,0-.66.1,6,6,0,0,0-.69.19,6.67,6.67,0,0,0-.7.28,7.06,7.06,0,0,0-.69.37,6.41,6.41,0,0,0-1.18.93,4.51,4.51,0,0,0-.78,1,2.52,2.52,0,0,0-.32,1,1.4,1.4,0,0,0,.56,1.25,1.83,1.83,0,0,0,.45.25,2.57,2.57,0,0,0,.55.14,3.59,3.59,0,0,0,.63,0,4.73,4.73,0,0,0,.69-.07,5.79,5.79,0,0,0,.73-.18,6.6,6.6,0,0,0,.75-.29,7,7,0,0,0,.75-.4,6.35,6.35,0,0,0,1.26-1,4.27,4.27,0,0,0,.78-1.1,2.27,2.27,0,0,0,.24-1.05,1.38,1.38,0,0,0-.34-.87A1.55,1.55,0,0,0,29.9,7a2.06,2.06,0,0,0-.48-.2,2.9,2.9,0,0,0-.56-.1,4,4,0,0,0-.62,0"/><path class="cls-3" d="M43.61,17a6.32,6.32,0,0,0-.89.06,6.75,6.75,0,0,0-.9.18,6.9,6.9,0,0,0-.89.31,6.8,6.8,0,0,0-.85.44,5.88,5.88,0,0,0-1.38,1.15,4.3,4.3,0,0,0-.81,1.34,3,3,0,0,0-.18,1.4,2.6,2.6,0,0,0,.54,1.3,3,3,0,0,0,.54.54,3.57,3.57,0,0,0,.68.41,4.38,4.38,0,0,0,.8.27,5.27,5.27,0,0,0,.89.13,6.08,6.08,0,0,0,.95,0,6.64,6.64,0,0,0,1-.16A6.87,6.87,0,0,0,45,23.51a5.82,5.82,0,0,0,1.5-1.27,4.1,4.1,0,0,0,.79-1.47,2.87,2.87,0,0,0,0-1.46,2.66,2.66,0,0,0-.72-1.26,3.26,3.26,0,0,0-.62-.48,3.92,3.92,0,0,0-.73-.34,4.75,4.75,0,0,0-.81-.21,5.61,5.61,0,0,0-.86-.07"/></svg>