<svg xmlns="http://www.w3.org/2000/svg" viewBox="0 0 48 48"><defs><style>.cls-1{fill:#e9edf2;stroke:#b2bfcf;}.cls-1,.cls-4{stroke-linejoin:round;stroke-width:0.73px;}.cls-2,.cls-4{fill:#fff;}.cls-3{fill:#b2bfcf;}.cls-4{stroke:#0093dd;stroke-linecap:round;}.cls-5{fill:#0093dd;}</style></defs><title>xmlmap copy</title><g id="Warstwa_1" data-name="Warstwa 1"><rect class="cls-1" x="6.01" y="7.89" width="35.73" height="3.26" rx="1.63" ry="1.63"/><rect class="cls-1" x="6.01" y="15.23" width="35.73" height="3.26" rx="1.63" ry="1.63"/><rect class="cls-1" x="6.01" y="22.57" width="35.73" height="3.26" rx="1.63" ry="1.63"/><path class="cls-2" d="M8,25.74A1.74,1.74,0,0,1,6.1,24.2,1.73,1.73,0,0,1,8,22.66H23.56a3.48,3.48,0,0,0,2.18-.74l6.4-5.06-6.4-5.07a3.53,3.53,0,0,0-2.18-.73H8A1.73,1.73,0,0,1,6.1,9.52,1.73,1.73,0,0,1,8,8H23.56a7.71,7.71,0,0,1,4.78,1.6l6.33,5a3.56,3.56,0,0,0,2.19.73h2.78a1.73,1.73,0,0,1,1.88,1.54,1.73,1.73,0,0,1-1.88,1.54H36.86a3.56,3.56,0,0,0-2.19.73l-6.33,5a7.71,7.71,0,0,1-4.78,1.6Z"/><path class="cls-3" d="M23.56,8.35a7.42,7.42,0,0,1,4.56,1.51l6.33,5a3.91,3.91,0,0,0,2.41.81h2.78a1.38,1.38,0,0,1,1.52,1.18A1.38,1.38,0,0,1,39.64,18H36.86a3.85,3.85,0,0,0-2.41.81l-6.33,5a7.36,7.36,0,0,1-4.56,1.52H8A1.39,1.39,0,0,1,6.47,24.2,1.39,1.39,0,0,1,8,23H23.56A3.91,3.91,0,0,0,26,22.21l6-4.78.72-.57L32,16.29l-6-4.78a3.91,3.91,0,0,0-2.41-.81H8A1.39,1.39,0,0,1,6.47,9.52,1.39,1.39,0,0,1,8,8.35H23.56m0-.73H8a2.09,2.09,0,0,0-2.24,1.9A2.09,2.09,0,0,0,8,11.42H23.56a3.19,3.19,0,0,1,2,.66l6,4.78-6,4.78a3.19,3.19,0,0,1-2,.65H8A2.1,2.1,0,0,0,5.74,24.2,2.09,2.09,0,0,0,8,26.1H23.56a8.11,8.11,0,0,0,5-1.68l6.33-5a3.11,3.11,0,0,1,2-.66h2.78a2.09,2.09,0,0,0,2.24-1.9A2.09,2.09,0,0,0,39.64,15H36.86a3.17,3.17,0,0,1-2-.66l-6.33-5a8,8,0,0,0-5-1.68Z"/><path class="cls-4" d="M40.16,22.29H23.44a2.42,2.42,0,0,1-1.66-.65l-5.38-5A6.22,6.22,0,0,0,12.14,15H7.33a1.9,1.9,0,0,0,0,3.8h4.81a2.43,2.43,0,0,1,1.67.66l5.37,5A6.22,6.22,0,0,0,22.65,26a1.61,1.61,0,0,0,.44.06H40.16a1.91,1.91,0,1,0,0-3.81Z"/><rect class="cls-5" x="21.96" y="29.34" width="20.97" height="11.13" rx="1.17" ry="1.17"/><path class="cls-2" d="M29.23,33.37a1.28,1.28,0,0,0-.45-.34,1.52,1.52,0,0,0-.62-.12,1.59,1.59,0,0,0-.66.14,1.49,1.49,0,0,0-.52.38,1.59,1.59,0,0,0-.34.58,1.93,1.93,0,0,0-.13.73,1.9,1.9,0,0,0,.13.73,1.68,1.68,0,0,0,.34.58,1.48,1.48,0,0,0,.51.38,1.46,1.46,0,0,0,.63.14,1.51,1.51,0,0,0,.68-.16,1.41,1.41,0,0,0,.49-.45l1,.78a2.25,2.25,0,0,1-.91.74,2.85,2.85,0,0,1-1.14.24,3.45,3.45,0,0,1-1.23-.21,2.81,2.81,0,0,1-1-.59,2.75,2.75,0,0,1-.64-1,3.43,3.43,0,0,1,0-2.47,2.71,2.71,0,0,1,.64-.94,2.83,2.83,0,0,1,1-.6,3.45,3.45,0,0,1,1.23-.2,3,3,0,0,1,.5,0,3.23,3.23,0,0,1,.51.14,2.11,2.11,0,0,1,.49.26,1.67,1.67,0,0,1,.41.39Z"/><path class="cls-2" d="M33.82,33.29a.88.88,0,0,0-.41-.29,1.56,1.56,0,0,0-.5-.09l-.28,0a1.08,1.08,0,0,0-.27.1.63.63,0,0,0-.21.18.51.51,0,0,0-.08.28.44.44,0,0,0,.19.39,1.72,1.72,0,0,0,.49.23l.63.19a3,3,0,0,1,.63.28,1.34,1.34,0,0,1,.67,1.26,1.81,1.81,0,0,1-.17.83,1.7,1.7,0,0,1-.48.58,2,2,0,0,1-.7.35,3.22,3.22,0,0,1-.84.11,2.84,2.84,0,0,1-1-.17,2.47,2.47,0,0,1-.88-.54l.89-1a1.34,1.34,0,0,0,.48.4,1.47,1.47,0,0,0,.61.14,1.76,1.76,0,0,0,.31,0,1,1,0,0,0,.28-.11.7.7,0,0,0,.2-.18.5.5,0,0,0,.07-.27.47.47,0,0,0-.19-.4,1.79,1.79,0,0,0-.5-.25l-.64-.21a3.35,3.35,0,0,1-.64-.28,1.57,1.57,0,0,1-.49-.47,1.32,1.32,0,0,1-.2-.76,1.69,1.69,0,0,1,.18-.8,1.8,1.8,0,0,1,.48-.58,2.19,2.19,0,0,1,.7-.35,2.73,2.73,0,0,1,.81-.11,3.22,3.22,0,0,1,.93.13,2.05,2.05,0,0,1,.81.46Z"/><path class="cls-2" d="M35.05,31.9h1.43l1.4,3.72h0l1.43-3.72h1.34l-2.35,5.68h-1Z"/></g></svg>