<svg xmlns="http://www.w3.org/2000/svg" viewBox="0 0 48 48"><title>notify</title><g id="Warstwa_1" data-name="Warstwa 1"><path d="M36.36,36.33H28.69l-4.14,4.8-4.37-4.8H11.64A2.37,2.37,0,0,1,9.27,34V9.24a2.37,2.37,0,0,1,2.37-2.37H36.36a2.37,2.37,0,0,1,2.37,2.37V34A2.37,2.37,0,0,1,36.36,36.33Z" style="fill:#fff"/><path d="M36.36,36.33H28.69l-4.14,4.8-4.37-4.8H11.64A2.37,2.37,0,0,1,9.27,34V9.24a2.37,2.37,0,0,1,2.37-2.37H36.36a2.37,2.37,0,0,1,2.37,2.37V34A2.37,2.37,0,0,1,36.36,36.33Z" style="fill:none;stroke:#b2bfcf;stroke-linecap:round;stroke-linejoin:round;stroke-width:0.7260000000000001px"/><path d="M22.36,30.07a2.05,2.05,0,1,1,2,1.78A1.94,1.94,0,0,1,22.36,30.07Zm3.81-16.24c0,1.05-.35,3.74-.77,7.69L25,25.46H23.81l-.42-3.94c-.42-3.95-.77-6.64-.77-7.69a1.55,1.55,0,0,1,1.77-1.72A1.56,1.56,0,0,1,26.17,13.83Z" style="fill:#009ada"/></g></svg>