<svg xmlns="http://www.w3.org/2000/svg" viewBox="0 0 48 48"><title>onedrive</title><g id="Warstwa_1" data-name="Warstwa 1"><path d="M23.56,36.27c-5.23,0-6.25,0-6.39-.06-2.31-.59-3.61-2.41-3.65-5.14a3.31,3.31,0,0,1,.27-1.85,4.79,4.79,0,0,1,3.9-2.88c.7-.13,1.64-.41,1.62-1.39a4,4,0,0,1,.29-.85,6.76,6.76,0,0,1,3-4.07,6.31,6.31,0,0,1,3.52-.85h.2a5.78,5.78,0,0,1,4.77,2l1,1.17,1.08-.45a6.44,6.44,0,0,1,2.17-.38,5.45,5.45,0,0,1,5.62,4.84l-.19,1.38,1.11.42a4.1,4.1,0,0,1,2.86,4.47,3.89,3.89,0,0,1-1.79,3.26l-.43.29C41.29,36.2,30.68,36.27,23.56,36.27Z" style="fill:#009ada"/><path d="M26.29,19.54a5.42,5.42,0,0,1,4.5,1.89l.83,1,.34.4.49-.2.8-.34a6.09,6.09,0,0,1,2.06-.37,5.1,5.1,0,0,1,5.25,4.44l-.14,1.09-.08.56.54.21.85.33a3.69,3.69,0,0,1,2.61,4.08,3.53,3.53,0,0,1-1.65,3l-.32.22c-1.63,0-11.91.07-18.81.07-4.94,0-6.09,0-6.32,0-2.73-.7-3.33-3-3.36-4.78a3,3,0,0,1,.24-1.7l0,0,0,0a4.47,4.47,0,0,1,3.59-2.58c1.29-.24,1.94-.83,1.92-1.71a3.45,3.45,0,0,1,.26-.73l0-.05v-.05a6.35,6.35,0,0,1,2.78-3.81,6,6,0,0,1,3.35-.81h.2m0-.72h-.21a6.69,6.69,0,0,0-3.68.89,7.09,7.09,0,0,0-3.13,4.23A3.68,3.68,0,0,0,19,25c0,.5-.32.84-1.33,1a5.15,5.15,0,0,0-4.15,3.08,3.54,3.54,0,0,0-.31,2c0,2.85,1.41,4.84,3.93,5.48.17,0,2.87.07,6.47.07,7.56,0,19-.08,19-.08l.5-.34a4.24,4.24,0,0,0,2-3.55A4.46,4.46,0,0,0,42,27.83l-.84-.32.15-1.18a5.85,5.85,0,0,0-6-5.16,6.75,6.75,0,0,0-2.31.41l-.83.34-.86-1a6.12,6.12,0,0,0-5-2.11Z" style="fill:#009ada"/><path d="M11.22,33.83a33.7,33.7,0,0,1-4-.15,5.45,5.45,0,0,1-3.47-3l-.13-.3a4.08,4.08,0,0,1-.35-2.07,4,4,0,0,1,.3-2.19,6.31,6.31,0,0,1,3.64-2.66,2.74,2.74,0,0,1,.37-.14c.21-.07.56-.18.56-.55a.9.9,0,0,1,0-.16,3.14,3.14,0,0,0,.13-.84,6.52,6.52,0,0,1,4.6-6,5.56,5.56,0,0,1,1.8-.28,7.2,7.2,0,0,1,2.82.59,1.32,1.32,0,0,0,.47.11c.43,0,.63-.27,1.48-1.39a8.18,8.18,0,0,1,2.87-2.24,8.53,8.53,0,0,1,11.76,5.15,3,3,0,0,1,.21,1.08h-.09a6.07,6.07,0,0,0-1.4.32l-.76.12-.71-.7a8.46,8.46,0,0,0-6-2.31,10.25,10.25,0,0,0-4.15.89,9.13,9.13,0,0,0-3.33,3,13.39,13.39,0,0,0-1.41,3.07c0,.08,0,.18-.93.49a7,7,0,0,0-5.11,6.72,9.5,9.5,0,0,0,.69,3.33A.85.85,0,0,1,11.22,33.83Z" style="fill:#009ada"/><path d="M25.91,12.1h0a8.3,8.3,0,0,1,7.86,5.68c.08.29.13.49.16.63a9.74,9.74,0,0,0-1.14.31l-.59.09-.57-.57a8.86,8.86,0,0,0-6.25-2.41,10.7,10.7,0,0,0-4.33.93,9.51,9.51,0,0,0-3.45,3.08l0,0v0A15.31,15.31,0,0,0,16.13,23a5,5,0,0,1-.69.27,7.31,7.31,0,0,0-5.36,7.06,9.65,9.65,0,0,0,.6,3.13,32.07,32.07,0,0,1-3.33-.12H7.27A5.08,5.08,0,0,1,4.1,30.57L4,30.25a3.71,3.71,0,0,1-.32-1.93c0-1.33,0-1.52.24-2a6,6,0,0,1,3.43-2.52h.06l.06,0a1.72,1.72,0,0,1,.26-.1c.21-.06.79-.24.81-.85l0-.1a3.26,3.26,0,0,0,.14-.9,6.09,6.09,0,0,1,4.37-5.73,5.27,5.27,0,0,1,1.67-.26,6.63,6.63,0,0,1,2.67.57h.07a1.58,1.58,0,0,0,.55.12c.61,0,.88-.36,1.75-1.53a7.89,7.89,0,0,1,2.74-2.13,8.38,8.38,0,0,1,3.41-.78m0-.73h0a9.19,9.19,0,0,0-3.69.84,8.49,8.49,0,0,0-3,2.35c-.75,1-.94,1.25-1.19,1.25a.93.93,0,0,1-.32-.08,7.52,7.52,0,0,0-3-.62,6,6,0,0,0-1.9.29A6.86,6.86,0,0,0,8,21.78a6.19,6.19,0,0,1-.16,1c0,.17-.34.17-.67.34A6.75,6.75,0,0,0,3.26,26a4.27,4.27,0,0,0-.34,2.35,4.79,4.79,0,0,0,.5,2.52A5.84,5.84,0,0,0,7.12,34a44.89,44.89,0,0,0,4.52.16h0a1.27,1.27,0,0,0-.17-.67,8.84,8.84,0,0,1-.67-3.19A6.58,6.58,0,0,1,15.67,24c1-.34,1.18-.51,1.18-.84a13.52,13.52,0,0,1,1.34-2.86,8.77,8.77,0,0,1,3.19-2.85,9.9,9.9,0,0,1,4-.86,8.07,8.07,0,0,1,5.73,2.2l.84.84,1-.17a8,8,0,0,1,1.34-.33c.5,0,.5-.34.17-1.51a9,9,0,0,0-8.56-6.21Z" style="fill:#009ada"/></g></svg>