<svg xmlns="http://www.w3.org/2000/svg" viewBox="0 0 48 48"><title>pip</title><g id="Warstwa_1" data-name="Warstwa 1"><path d="M6.75,41.39A.79.79,0,0,1,7,40.8a.83.83,0,0,1,.6-.24.88.88,0,0,1,.59.23.75.75,0,0,1,.25.57.79.79,0,0,1-.25.59.81.81,0,0,1-.59.24.75.75,0,0,1-.33-.07A.92.92,0,0,1,7,42a1,1,0,0,1-.18-.26A.67.67,0,0,1,6.75,41.39Z" style="fill:#009ada"/><path d="M9.79,34.64h2.45a5.23,5.23,0,0,1,1.16.12,2.47,2.47,0,0,1,.89.38,1.89,1.89,0,0,1,.57.68,2.27,2.27,0,0,1,.2,1,2.12,2.12,0,0,1-.24,1,1.85,1.85,0,0,1-.62.68,2.75,2.75,0,0,1-.93.37,5.06,5.06,0,0,1-1.12.12h-1v3.09H9.79Zm2.27,3.27a4.21,4.21,0,0,0,.62,0,1.74,1.74,0,0,0,.53-.17,1,1,0,0,0,.37-.33,1,1,0,0,0,.13-.55.93.93,0,0,0-.13-.53,1,1,0,0,0-.37-.33,1.87,1.87,0,0,0-.52-.15,5.65,5.65,0,0,0-.59,0h-1v2.15Z" style="fill:#009ada"/><path d="M20.05,36.21a1.64,1.64,0,0,0-.59-.46,1.72,1.72,0,0,0-.78-.19,1.82,1.82,0,0,0-.46.06,1.5,1.5,0,0,0-.43.18,1.05,1.05,0,0,0-.31.32.89.89,0,0,0-.12.47.83.83,0,0,0,.11.43,1,1,0,0,0,.29.31,1.89,1.89,0,0,0,.45.22l.58.19.74.26a2.76,2.76,0,0,1,.71.4,1.84,1.84,0,0,1,.53.61,1.82,1.82,0,0,1,.2.92,2.32,2.32,0,0,1-.22,1,2.06,2.06,0,0,1-.59.74,2.57,2.57,0,0,1-.87.45,3.58,3.58,0,0,1-1,.15,3.94,3.94,0,0,1-1.43-.27,2.84,2.84,0,0,1-1.14-.8l.95-.89a1.92,1.92,0,0,0,.74.6,2,2,0,0,0,.9.22,1.93,1.93,0,0,0,.47,0,1.27,1.27,0,0,0,.44-.2,1.15,1.15,0,0,0,.32-.34,1,1,0,0,0,.12-.51.8.8,0,0,0-.14-.5,1.08,1.08,0,0,0-.37-.33,2.25,2.25,0,0,0-.54-.25l-.67-.22a6.31,6.31,0,0,1-.68-.26,2.22,2.22,0,0,1-.6-.39,1.8,1.8,0,0,1-.44-.6,1.92,1.92,0,0,1-.17-.88,1.9,1.9,0,0,1,.24-1,1.93,1.93,0,0,1,.62-.68,2.62,2.62,0,0,1,.88-.4,3.7,3.7,0,0,1,1-.14,3.43,3.43,0,0,1,1.16.21,2.76,2.76,0,0,1,1,.6Z" style="fill:#009ada"/><path d="M21.27,34.64h1.49l2.06,5.76h0l2.08-5.76h1.44l-3,7.48H24.23Z" style="fill:#009ada"/><path d="M20.24,42.91H8.42A1.5,1.5,0,0,1,7,41.35V12.45A1.49,1.49,0,0,1,8.42,10.9L29.68,11a1.5,1.5,0,0,1,1.43,1.55V41.35a1.5,1.5,0,0,1-1.43,1.56Z" style="fill:#fff;stroke:#009ada;stroke-linecap:round;stroke-linejoin:round;stroke-width:0.7166005232860587px"/><path d="M24.11,20.06c-.58-3.88-3.32-5.28-5.71-5.28a5.15,5.15,0,0,0-4.35,2.38,24.86,24.86,0,0,1,6.44,1.42A30.75,30.75,0,0,1,24.11,20.06Z" style="fill:none"/><path d="M13.25,22.3c.58,3.81,3.36,5.59,5.83,5.59a4.72,4.72,0,0,0,4.15-2.31,24.83,24.83,0,0,1-5.74-1.43A31.52,31.52,0,0,1,13.25,22.3Z" style="fill:none"/><path d="M24.2,20.8a21.12,21.12,0,0,0-4.86-2.11,24.24,24.24,0,0,0-5.52-1.12,7,7,0,0,0-.68,3.22c0,.22,0,.44,0,.65a25.51,25.51,0,0,0,3,1.46,22.74,22.74,0,0,0,7.5,1.86,8.11,8.11,0,0,0,.58-3.12Q24.23,21.21,24.2,20.8Z" style="fill:none"/><path d="M10.46,18.53c-.09.26,0,.89,1.07,1.79a7.44,7.44,0,0,1,.93-2.75C11.29,17.66,10.61,18,10.46,18.53Z" style="fill:none"/><path d="M26.76,24.12c.4-.43.07-1.21-.88-2.08a7.5,7.5,0,0,1-.76,2.68A2.64,2.64,0,0,0,26.76,24.12Z" style="fill:none"/><path d="M24.2,20.8c0-.26-.05-.51-.09-.74a30.75,30.75,0,0,0-3.62-1.48,24.86,24.86,0,0,0-6.44-1.42c-.08.13-.16.27-.23.41a24.24,24.24,0,0,1,5.52,1.12A21.12,21.12,0,0,1,24.2,20.8Z" style="fill:#009ada"/><path d="M19.08,27.89c-2.64,0-5.25-1.78-5.83-5.59a12.74,12.74,0,0,1-1.79-1.15c0,.14,0,.29,0,.43,0,5.17,4,7.05,7.24,7.05a7.28,7.28,0,0,0,5.84-3c-.4,0-.83,0-1.3-.09A4.72,4.72,0,0,1,19.08,27.89Z" style="fill:#b2bfcf"/><path d="M25.92,21.07c0-5.41-4.71-6.93-7.23-6.93a6.85,6.85,0,0,0-6,3l-.27.42a7.44,7.44,0,0,0-.93,2.75,11.5,11.5,0,0,0,1.63,1.12c0-.21,0-.43,0-.65a7,7,0,0,1,.68-3.22c.07-.14.15-.28.23-.41a4.9,4.9,0,0,1,4.35-2.38c2.39,0,5.13,1.4,5.71,5.28,0,.23.07.48.09.74s0,.55,0,.84a8.11,8.11,0,0,1-.58,3.12,9.78,9.78,0,0,0,1.47,0A7.5,7.5,0,0,0,25.88,22a8.57,8.57,0,0,0,0-.89Z" style="fill:#b2bfcf"/><path d="M25.92,21.07v.08a8.57,8.57,0,0,1,0,.89c.95.87,1.28,1.65.88,2.08a2.64,2.64,0,0,1-1.64.6,9.78,9.78,0,0,1-1.47,0,22.74,22.74,0,0,1-7.5-1.86,25.51,25.51,0,0,1-3-1.46,11.5,11.5,0,0,1-1.63-1.12c-1-.9-1.16-1.53-1.07-1.79.15-.52.83-.87,2-1l.27-.42c-1.83.09-2.79.64-2.92,1.2s0,1.52,1.65,2.8a12.74,12.74,0,0,0,1.79,1.15,31.52,31.52,0,0,0,4.24,1.85,24.83,24.83,0,0,0,5.74,1.43c.47.05.9.08,1.3.09,2.31.06,3.61-.52,3.83-1.09S28.28,22.6,25.92,21.07Z" style="fill:#009ada"/><path d="M7,32.81H31.11v9c0,.55-.6,1-1.34,1H8.33c-.74,0-1.34-.45-1.34-1Z" style="fill:#009ada"/><path d="M8.41,10.54l21.27.07a1.87,1.87,0,0,1,1.78,1.94V41.38a1.88,1.88,0,0,1-1.8,1.94H8.41a1.88,1.88,0,0,1-1.79-1.94V12.48a1.88,1.88,0,0,1,1.79-1.94m0-2.15h0a4,4,0,0,0-3.94,4.09v28.9a4,4,0,0,0,3.94,4.09H29.66a4,4,0,0,0,3.95-4.09V12.55a4,4,0,0,0-3.93-4.09L8.42,8.39Z" style="fill:#fff"/><path d="M19.08,9.13h10.3c2.24,0,3.29.65,3.31,2.89l.09,23.9h8.71A1.47,1.47,0,0,0,43,34.44v-23a2.27,2.27,0,0,0-.71-1.64l-6-5.68a2.31,2.31,0,0,0-1.51-.63c-3.27-.08-14.6-.31-15.27.33S19.08,9.13,19.08,9.13Z" style="fill:#f0f0f0"/><line x1="32.7" y1="12.24" x2="34.06" y2="12.25" style="fill:none;stroke:#b2bfcf;stroke-miterlimit:10;stroke-width:0.7166005232860587px"/><line x1="32.7" y1="16.72" x2="36.27" y2="16.73" style="fill:none;stroke:#b2bfcf;stroke-miterlimit:10;stroke-width:0.7166005232860587px"/><line x1="32.7" y1="25.55" x2="35.04" y2="25.57" style="fill:none;stroke:#b2bfcf;stroke-miterlimit:10;stroke-width:0.7166005232860587px"/><line x1="32.7" y1="21.16" x2="38.48" y2="21.17" style="fill:none;stroke:#b2bfcf;stroke-miterlimit:10;stroke-width:0.7166005232860587px"/><polyline points="36 3.46 36 10.63 43.16 10.63" style="fill:none;stroke:#b2bfcf;stroke-linecap:round;stroke-linejoin:round;stroke-width:0.7166005232860587px"/><path d="M19.05,8.61V4.83A1.43,1.43,0,0,1,20.48,3.4L36,3.46l7.17,7.16,0,13.33V34.48a1.43,1.43,0,0,1-1.43,1.43H33.8" style="fill:none;stroke:#b2bfcf;stroke-linecap:round;stroke-linejoin:round;stroke-width:0.7166005232860587px"/><path d="M12.18,34.37h2.28a4.57,4.57,0,0,1,1.09.11,2.31,2.31,0,0,1,.83.35,1.69,1.69,0,0,1,.53.63,2.06,2.06,0,0,1,.19.93,2,2,0,0,1-.22,1,1.79,1.79,0,0,1-.58.64,2.83,2.83,0,0,1-.87.35,5,5,0,0,1-1,.11h-1v2.89H12.18Zm2.12,3.05a3.68,3.68,0,0,0,.58-.05,1.76,1.76,0,0,0,.49-.15,1,1,0,0,0,.35-.31,1,1,0,0,0,.13-.52,1,1,0,0,0-.13-.5.89.89,0,0,0-.34-.3,1.47,1.47,0,0,0-.49-.14,4.92,4.92,0,0,0-.56,0h-.9v2Z" style="fill:#fff"/><path d="M18.21,34.37h1.24v7H18.21Z" style="fill:#fff"/><path d="M21,34.37h2.29a4.49,4.49,0,0,1,1.08.11,2.31,2.31,0,0,1,.83.35,1.82,1.82,0,0,1,.54.63,2.2,2.2,0,0,1,.18.93,2.06,2.06,0,0,1-.21,1,1.91,1.91,0,0,1-.59.64,2.83,2.83,0,0,1-.87.35,5,5,0,0,1-1,.11h-1v2.89H21Zm2.12,3.05a3.58,3.58,0,0,0,.58-.05,1.76,1.76,0,0,0,.49-.15,1,1,0,0,0,.35-.31.93.93,0,0,0,.13-.52.87.87,0,0,0-.13-.5.89.89,0,0,0-.34-.3,1.41,1.41,0,0,0-.49-.14,4.91,4.91,0,0,0-.55,0h-.91v2Z" style="fill:#fff"/></g></svg>