<?xml version="1.0" encoding="utf-8"?>
<!-- Generator: Adobe Illustrator 22.1.0, SVG Export Plug-In . SVG Version: 6.00 Build 0)  -->
<svg version="1.1" baseProfile="tiny" id="Layer_1" xmlns="http://www.w3.org/2000/svg" xmlns:xlink="http://www.w3.org/1999/xlink"
	 x="0px" y="0px" viewBox="0 0 48 48" xml:space="preserve">
<path fill="#FFFFFF" d="M28.3,5.3c2.4-0.7,4.9-0.8,7.4-0.4c2.3,0.4,4.3,1.4,6,3c0.8,0.7,1.4,1.5,1.7,2.5c0.4,1.7,0.4,3.5,0,5.3
	c-0.8,4.2-2.3,8.1-4.5,11.8c0.9,0,1.8-0.3,2.8-0.4c1-0.1,1.9,0.5,2.1,1.4c0.2,1-0.3,2-1.1,2.6c-1.9,1.6-4.4,2.3-6.9,2.1
	c-0.2,2.5-0.2,5.1-1.3,7.5c-0.5,1.1-1.2,2-2.2,2.6c-1,0.5-2,0.9-3.1,1.1c-1.2,0.3-2.4,0-3.5-0.6c-0.9-0.6-1.6-1.5-1.9-2.6
	c-0.8-2.2-0.7-4.5-0.8-6.8c-1.7,0.6-3.5,0.7-5.2,0.1c-0.6-0.2-1.1-0.6-1.5-1c-0.9,0.8-2,1-3.1,0.8c-1.3-0.5-2.5-1.5-3.1-2.7
	c-1.2-2.2-2.2-4.5-2.8-6.9c-0.8-2.7-1.4-5.5-1.8-8.3C5,13.7,5.5,11.1,6.7,8.9c1.1-1.8,2.9-3,5-3.4c2.9-0.4,5.9-0.2,8.7,0.8
	c0.9-0.5,1.8-0.8,2.8-1C24.9,5,26.6,5,28.3,5.3z"/>
<title>postgresql</title>
<path fill="#FFFFFF" d="M33.3,16.9c0.5-0.4,1.2-0.4,1.8-0.1c0,0.6-0.5,1-1,1c-0.2,0-0.3,0-0.5-0.1C33.3,17.5,33,17.2,33.3,16.9z"/>
<path fill="#FFFFFF" d="M20.9,17c0.6-0.2,1.1-0.1,1.6,0.3c0.3,0.2,0,0.7-0.2,0.8c-0.5,0.3-1.2,0.2-1.6-0.4c-0.1-0.1-0.1-0.2-0.1-0.3
	C20.5,17.1,20.7,17,20.9,17z"/>
<path fill="#326690" d="M30.3,7.2c2.3-0.5,4.6-0.4,6.8,0.4c1.5,0.6,2.8,1.5,3.8,2.8c0.4,0.6,0.6,1.4,0.6,2.1c0,1.7-0.3,3.5-0.8,5.1
	c-0.9,3.1-2.1,6.1-3.8,8.8c-0.2,0.3-0.3,0.5-0.5,0.8c0-0.1,0-0.2-0.1-0.3c0.3-0.5,0.5-1.1,0.7-1.6c0.2-1.6,0.2-3.3-0.1-4.9
	c-0.2-1.5,0.4-3,0.3-4.5c0-0.7-0.2-1.5-0.5-2.1c-1-2.3-2.7-4.3-4.8-5.7C31.4,7.8,30.8,7.5,30.3,7.2z"/>
<path fill="#326690" d="M24.1,7.4c2.8-0.4,5.6,0.4,7.8,2.1c1.8,1.4,3.2,3.3,4,5.5c-1.3,0-2.7-0.1-3.8,0.8c-0.8,0.9-1.2,2.1-0.9,3.3
	c0.5,2.7,2.1,5,3.2,7.4c0.3,0.5,0.7,1,1.1,1.5c-0.5,0.2-0.9,0.5-1.3,1c-0.3,0.8-0.5,1.7-0.4,2.6c-0.3,2.4-0.5,4.7-0.9,7.1
	c-0.1,1.2-0.7,2.2-1.7,2.9c-1.1,0.6-2.3,0.9-3.6,0.7c-1.1-0.3-2-1.2-2.2-2.3c-0.2-0.9-0.3-1.8-0.3-2.7c-0.1-2.2-0.1-4.4-0.1-6.6
	c0.1-0.9-0.4-1.7-1.2-2.2c-0.4-0.2-0.8-0.3-1.2-0.3c0.3-1.6,1.3-3,1.6-4.6c0.4-2,0.3-4.1-0.2-6.1c-0.2-1-1-1.8-2-2.1
	c-1.5-0.2-3.1,0.1-4.5,0.9c0.1-2.3,0.9-4.5,2.2-6.3C20.9,8.5,22.4,7.6,24.1,7.4z"/>
<path fill="#326690" d="M12.4,7.5c2.5-0.3,5-0.1,7.3,0.8c-1,1.1-1.8,2.5-2.3,3.9c-0.7,2-0.9,4-0.8,6.1c0.1,1.4,0,2.9-0.1,4.3
	c-0.2,1.9,0.5,3.8,1.9,5.1c-1,1.1-2,2.2-2.9,3.3c-0.4,0.5-1,1-1.6,0.9c-0.8-0.3-1.4-0.9-1.8-1.6c-1.1-2-2-4.1-2.6-6.3
	c-0.8-2.6-1.4-5.2-1.8-7.9c-0.3-2.1,0.1-4.1,1-6C9.5,8.8,10.9,7.8,12.4,7.5z"/>
<path fill="#326690" d="M33,16.6c1-0.5,2.1-0.6,3.1-0.4c-0.2,1.4-0.3,2.9-0.3,4.3c0.1,1.8,0.7,3.7-0.2,5.4c-1.1-2.2-2.6-4.4-3.1-6.9
	C32.2,18.1,32.4,17.2,33,16.6z M33.3,16.9c-0.3,0.2,0,0.6,0.3,0.7c0.5,0.3,1.1,0.1,1.4-0.4c0.1-0.2,0.1-0.3,0.1-0.5
	C34.5,16.5,33.8,16.6,33.3,16.9L33.3,16.9z"/>
<path fill="#326690" d="M17.7,17.5c1.1-0.8,2.4-1.2,3.8-1.2c0.7,0,1.3,0.5,1.5,1.2c0.8,2.5,0.7,5.2-0.4,7.6c-0.4,0.9-0.7,1.8-1,2.8
	c-2-0.1-3.7-1.6-4-3.5c-0.1-1.1-0.1-2.1,0.1-3.2C17.8,19.9,17.7,18.7,17.7,17.5z M20.9,17c-0.2,0.1-0.4,0.2-0.3,0.4
	c0.1,0.6,0.7,1,1.4,0.8c0.1,0,0.2-0.1,0.3-0.1c0.3-0.1,0.5-0.6,0.2-0.8C22,16.9,21.4,16.8,20.9,17z"/>
<path fill="#326690" d="M35.5,29.4c0.3-0.3,0.7-0.3,1-0.2c1.4,0.8,3.1,0.4,4.6,0.2c-1,0.9-2.2,1.4-3.5,1.5C36.9,31,36,31,35.2,30.8
	C35.1,30.3,35.2,29.8,35.5,29.4z"/>
<path fill="#326690" d="M21,31.2c0.8-0.4,1.1-1.4,1.9-1.9c0.5-0.1,1.1,0.2,1.2,0.8c0.1,0.4-0.1,0.7-0.4,1c-1.4,1.6-3.7,2.1-5.5,1.1
	C19.2,31.8,20.1,31.5,21,31.2z"/>
<path d="M28.4,5.3c2.4-0.7,4.9-0.8,7.4-0.4c2.3,0.4,4.3,1.4,6,3c0.8,0.7,1.4,1.5,1.7,2.5c0.4,1.7,0.4,3.5,0,5.3
	c-0.8,4.2-2.3,8.1-4.5,11.8c0.9,0,1.8-0.3,2.8-0.4c1-0.1,1.9,0.5,2.1,1.4c0.2,1-0.3,2-1.1,2.6c-1.9,1.6-4.4,2.3-6.9,2.1
	c-0.2,2.5-0.2,5.1-1.3,7.5c-0.5,1.1-1.2,2-2.2,2.6c-1,0.5-2,0.9-3.1,1.1c-1.2,0.3-2.4,0-3.5-0.6c-0.9-0.6-1.6-1.5-1.9-2.6
	c-0.8-2.2-0.7-4.5-0.8-6.8C21.5,35,19.6,35,18,34.4c-0.6-0.2-1.1-0.6-1.5-1c-0.9,0.8-2,1-3.1,0.8c-1.3-0.5-2.5-1.5-3.1-2.7
	C8.9,29.3,8,27,7.3,24.6c-0.8-2.7-1.4-5.5-1.8-8.3c-0.3-2.5,0.2-5.1,1.4-7.4c1.1-1.8,2.9-3,5-3.4c2.9-0.4,5.9-0.2,8.7,0.8
	c0.9-0.5,1.8-0.8,2.8-1C25,5,26.7,5,28.4,5.3z M28.4,6.5c-0.2,0-0.4,0-0.6-0.1c-2.4-0.6-4.9-0.2-7,1.1c-2.5-1-5.1-1.4-7.8-1.1
	c-2,0.1-3.8,1.2-5,2.8c-1.3,2.2-1.8,4.7-1.4,7.1c0.5,3.2,1.2,6.4,2.2,9.5c0.6,2,1.4,3.8,2.6,5.6c0.5,0.9,1.4,1.6,2.5,1.8
	c0.9,0,1.8-0.4,2.4-1.2c1-1.2,2-2.4,3.1-3.5c0.7,0.3,1.5,0.5,2.2,0.6c-0.4,0.5-0.8,1.1-1.4,1.4c-0.9,0.4-2,0.3-2.8,0.9
	c-0.4,0.3-0.5,0.9-0.2,1.3c0,0,0.1,0.1,0.1,0.1c0.8,0.6,1.8,1,2.8,1c1.4,0.1,2.8-0.4,3.8-1.3c0,2.2,0,4.5,0.2,6.7
	c0.1,1.3,0.8,2.6,1.8,3.5c1,0.8,2.2,1,3.4,0.8c1.2-0.2,2.3-0.6,3.3-1.4c0.9-0.9,1.5-2.1,1.6-3.4c0.3-2.2,0.6-4.4,0.9-6.6
	c2.5,0.5,5.2-0.2,7.2-1.9c0.4-0.4,0.8-1,0.4-1.5s-1.1-0.3-1.6-0.2c-1.3,0.4-2.6,0.4-3.9,0C39.4,24.8,41,21,42,17
	c0.4-1.5,0.6-3.1,0.6-4.7c0-0.9-0.2-1.8-0.7-2.5c-1.3-1.8-3.2-3-5.4-3.6C33.8,5.5,31,5.6,28.4,6.5z"/>
</svg>
