<svg xmlns="http://www.w3.org/2000/svg" viewBox="0 0 48 48"><title>scp</title><g id="Warstwa_1" data-name="Warstwa 1"><path d="M24,41.08a11.89,11.89,0,0,1-9.12-4.24l-.38-.44.57-2-2-.47-.21-.54a12,12,0,0,1,9.11-16l.57-.1,1.51,1.61,1.54-1.59.58.1a12,12,0,0,1,9,15.92l-.2.54-2,.49.58,2-.37.44A11.92,11.92,0,0,1,24,41.08Z" style="fill:#009ada"/><path d="M22.18,18.47l1.37,1.45a.68.68,0,0,0,.52.23h0a.74.74,0,0,0,.52-.22L26,18.48A10.84,10.84,0,0,1,34.2,33l-1.8.44a.73.73,0,0,0-.46.35.69.69,0,0,0-.06.56l.52,1.76a10.85,10.85,0,0,1-16.65.08l.51-1.79a.69.69,0,0,0-.07-.56.72.72,0,0,0-.46-.34L13.91,33a10.85,10.85,0,0,1,8.27-14.55M23,16.12l-1.16.2A13,13,0,0,0,11.88,33.8l.41,1.07,1.12.27.34.08-.09.32-.32,1.11.75.89a13,13,0,0,0,20-.09l.74-.9-.33-1.11-.09-.3.32-.08,1.12-.27.4-1.08a12.86,12.86,0,0,0,.82-4.56A13,13,0,0,0,26.39,16.34l-1.14-.21-.82.84-.34.35L23.77,17l-.8-.86Z" style="fill:#fff"/><path d="M9.45,33.31a15.1,15.1,0,0,1-.59-4.22A15.3,15.3,0,0,1,19.8,14.42" style="fill:none;stroke:#009ada;stroke-linecap:round;stroke-linejoin:round;stroke-width:0.7260000000000001px"/><path d="M34.77,40.09a15.29,15.29,0,0,1-21.49-.25" style="fill:none;stroke:#009ada;stroke-linecap:round;stroke-linejoin:round;stroke-width:0.7260000000000001px"/><path d="M28.1,14.31A15.33,15.33,0,0,1,38.92,33.07" style="fill:none;stroke:#009ada;stroke-linecap:round;stroke-linejoin:round;stroke-width:0.7260000000000001px"/><path d="M19.78,27.14a1.7,1.7,0,0,0-1.27-.6c-.57,0-1.23.28-1.23.95s.54.83,1.33,1.07,2,.67,2,2a2.23,2.23,0,0,1-2.52,2.21,3.16,3.16,0,0,1-2.39-1l.89-.82a2,2,0,0,0,1.52.77,1.11,1.11,0,0,0,1.25-1c0-.73-.73-.93-1.6-1.21s-1.75-.67-1.75-2,1.28-2,2.54-2a3,3,0,0,1,2,.75Z" style="fill:#fff"/><path d="M26.63,27.32a2,2,0,0,0-1.58-.72,2.39,2.39,0,0,0-2.4,2.54A2.33,2.33,0,0,0,25,31.7a2,2,0,0,0,1.68-.81l1,.7A3.29,3.29,0,0,1,25,32.8a3.65,3.65,0,1,1,.05-7.29,3.25,3.25,0,0,1,2.52,1.06Z" style="fill:#fff"/><path d="M28.45,25.69h2.26c1.59,0,2.62.56,2.62,2s-1.23,2.06-2.7,2.06h-.95v2.87H28.45Zm2.09,3c.81,0,1.54-.2,1.54-1s-.73-1-1.5-1h-.9v2Z" style="fill:#fff"/><polyline points="25.75 12.4 24.11 10.66 22.43 12.4" style="fill:none;stroke:#009ada;stroke-linecap:round;stroke-linejoin:round;stroke-width:1.4520000000000002px"/><polyline points="22.42 14.91 24.05 16.65 25.74 14.91" style="fill:none;stroke:#009ada;stroke-linecap:round;stroke-linejoin:round;stroke-width:1.4520000000000002px"/><polyline points="8.59 36.28 7.93 38.57 10.29 39.12" style="fill:none;stroke:#009ada;stroke-linecap:round;stroke-linejoin:round;stroke-width:1.4520000000000002px"/><polyline points="12.37 37.91 13.03 35.63 10.67 35.07" style="fill:none;stroke:#009ada;stroke-linecap:round;stroke-linejoin:round;stroke-width:1.4520000000000002px"/><polyline points="37.85 39.08 40.16 38.51 39.47 36.18" style="fill:none;stroke:#009ada;stroke-linecap:round;stroke-linejoin:round;stroke-width:1.4520000000000002px"/><polyline points="37.38 34.98 35.07 35.54 35.76 37.87" style="fill:none;stroke:#009ada;stroke-linecap:round;stroke-linejoin:round;stroke-width:1.4520000000000002px"/><path d="M24.15,18.31H24l.07.07Z" style="fill:#009ada"/><circle cx="24.12" cy="6.01" r="2.39" style="fill:#f0f0f0;stroke:#b2bfcf;stroke-linecap:round;stroke-linejoin:round;stroke-width:0.7260000000000001px"/><circle cx="44.16" cy="40.8" r="2.39" style="fill:#f0f0f0;stroke:#b2bfcf;stroke-linecap:round;stroke-linejoin:round;stroke-width:0.7260000000000001px"/><circle cx="3.84" cy="40.93" r="2.39" style="fill:#f0f0f0;stroke:#b2bfcf;stroke-linecap:round;stroke-linejoin:round;stroke-width:0.7260000000000001px"/></g></svg>