<svg xmlns="http://www.w3.org/2000/svg" viewBox="0 0 48 48"><title>sharepoint</title><path d="M42.18,20.31a4.12,4.12,0,0,0-.86.09,11.44,11.44,0,0,0-5.78-6.2,3.08,3.08,0,0,0,0-.53,4.2,4.2,0,0,0-4.19-4.19,4.12,4.12,0,0,0-2.59.91V17a4.19,4.19,0,0,0,6-.91,9.5,9.5,0,0,1,4.69,5.2,4.19,4.19,0,0,0,0,6.52,9.57,9.57,0,0,1-4.73,5.29,4.19,4.19,0,0,0-6-.91v6.57a4.12,4.12,0,0,0,2.59.91,4.2,4.2,0,0,0,4.19-4.19,3.08,3.08,0,0,0,0-.53,11.46,11.46,0,0,0,5.82-6.3,4.47,4.47,0,0,0,.82.08,4.19,4.19,0,0,0,0-8.38Z" style="fill:#1372b8"/><path d="M2.23,8.32,2.17,40.91,26.5,45.33V3.9Zm13.7,24.44c-2,1.43-4.58.83-6.67,0,0-1.22,0-2.43-.09-3.65,1.34,1,3.32,2.45,4.92,1.09,1.23-2.07-1.2-3.39-2.6-4.4a5.41,5.41,0,0,1-.2-8.75c1.71-1.09,3.8-.74,5.68-.48L17.06,20c-1.58-.49-3.58-1.49-4.87.11-.9,2.35,2,3.24,3.32,4.47A5.3,5.3,0,0,1,15.93,32.76Z" style="fill:#1372b8"/></svg>