<svg xmlns="http://www.w3.org/2000/svg" viewBox="0 0 48 48"><title>shopify</title><path d="M37.89,11.61a.41.41,0,0,0-.36-.35L34.15,11S31.9,8.79,31.66,8.54a1,1,0,0,0-.92-.12l-1.25.39c-.75-2.15-2.07-4.13-4.4-4.13H24.9a2.83,2.83,0,0,0-2.19-1.25c-5.42,0-8,6.77-8.82,10.21L10.1,14.82c-1.17.36-1.21.4-1.36,1.51-.12.84-3.19,24.61-3.19,24.61l24,4.49,13-2.81ZM28.16,9.22l-2,.63V9.41a10.13,10.13,0,0,0-.48-3.27C26.85,6.29,27.65,7.65,28.16,9.22Zm-4-2.82a10.17,10.17,0,0,1,.55,3.65v.24l-4.19,1.29C21.34,8.47,22.85,7,24.17,6.4ZM22.56,4.88a1.18,1.18,0,0,1,.69.24c-1.73.81-3.59,2.87-4.38,7l-3.31,1C16.48,10,18.67,4.88,22.56,4.88Z" style="fill:#95bf47"/><path d="M37.53,11.26,34.15,11S31.9,8.79,31.66,8.54a.63.63,0,0,0-.35-.16L29.5,45.43l13-2.81-4.59-31A.41.41,0,0,0,37.53,11.26Z" style="fill:#5e8e3e"/><path d="M25.09,18.44l-1.6,4.76a7.34,7.34,0,0,0-3.12-.75c-2.52,0-2.64,1.58-2.64,2,0,2.17,5.66,3,5.66,8.1,0,4-2.54,6.58-6,6.58a8.3,8.3,0,0,1-6.21-2.55l1.1-3.64s2.16,1.85,4,1.85A1.6,1.6,0,0,0,18,33.15c0-2.84-4.65-3-4.65-7.62,0-3.93,2.82-7.72,8.5-7.72A7,7,0,0,1,25.09,18.44Z" style="fill:#fff"/></svg>