<svg xmlns="http://www.w3.org/2000/svg" viewBox="0 0 48 48"><title>soap</title><g id="Warstwa_1" data-name="Warstwa 1"><path d="M18.14,8l8.28,0h2.14c2.28,0,3.34.65,3.36,2.93l-.85,4.6L32,35.11l8.83,0a1.49,1.49,0,0,0,1.49-1.49V10.25a2.27,2.27,0,0,0-.72-1.66l-6-5.76A2.29,2.29,0,0,0,34,2.2c-3.31-.09-14.78-.32-15.46.33S18.14,8,18.14,8Z" style="fill:#f0f0f0"/><polyline points="35.27 2.22 35.27 9.48 42.53 9.48" style="fill:none;stroke:#b2bfcf;stroke-linecap:round;stroke-linejoin:round;stroke-width:0.7260000000000001px"/><path d="M18.1,7.23V3.6a1.45,1.45,0,0,1,1.45-1.45l15.72.07,7.27,7.25,0,13.5V33.64a1.45,1.45,0,0,1-1.45,1.45h-8.2" style="fill:none;stroke:#b2bfcf;stroke-linecap:round;stroke-linejoin:round;stroke-width:0.7260000000000001px"/><path d="M19.3,42.18h-12a1.51,1.51,0,0,1-1.45-1.57V11.33A1.52,1.52,0,0,1,7.33,9.75l21.54.07a1.53,1.53,0,0,1,1.45,1.58V40.61a1.51,1.51,0,0,1-1.45,1.57Z" style="fill:#fff;stroke:#009ada;stroke-linecap:round;stroke-linejoin:round;stroke-width:0.7260000000000001px"/><path d="M5.88,33.51H30.32v7.54c0,.56-.61,1-1.36,1H7.24c-.75,0-1.36-.45-1.36-1Z" style="fill:#009ada"/><path d="M7.32,9.39l21.54.07a1.9,1.9,0,0,1,1.81,2V40.64a1.9,1.9,0,0,1-1.82,2H7.32a1.89,1.89,0,0,1-1.81-2V11.36a1.89,1.89,0,0,1,1.81-2m0-2.18h0a4.08,4.08,0,0,0-4,4.15V40.64a4.07,4.07,0,0,0,4,4.14H28.85a4.08,4.08,0,0,0,4-4.14V11.43a4.08,4.08,0,0,0-4-4.15L7.33,7.21Z" style="fill:#fff"/><path d="M11.68,36.92a1.13,1.13,0,0,0-.41-.32,1.24,1.24,0,0,0-.53-.12,1.17,1.17,0,0,0-.32,0,1,1,0,0,0-.29.12.88.88,0,0,0-.21.22.63.63,0,0,0-.08.32.54.54,0,0,0,.07.29.58.58,0,0,0,.2.21,1.12,1.12,0,0,0,.31.15,3.56,3.56,0,0,0,.39.13l.51.19a1.59,1.59,0,0,1,.48.26,1.37,1.37,0,0,1,.37.42,1.33,1.33,0,0,1,.14.63,1.66,1.66,0,0,1-.15.72,1.71,1.71,0,0,1-.41.51,1.82,1.82,0,0,1-.59.3,2.46,2.46,0,0,1-.72.1,2.73,2.73,0,0,1-1-.18,1.94,1.94,0,0,1-.78-.55l.65-.61a1.37,1.37,0,0,0,.5.42,1.45,1.45,0,0,0,.62.15,1.87,1.87,0,0,0,.32,0,.83.83,0,0,0,.3-.14.8.8,0,0,0,.22-.23.63.63,0,0,0,.08-.35.59.59,0,0,0-.09-.34A.93.93,0,0,0,11,39a2.27,2.27,0,0,0-.38-.17l-.45-.15a4.43,4.43,0,0,1-.47-.17,1.62,1.62,0,0,1-.41-.27,1.28,1.28,0,0,1-.3-.41,1.34,1.34,0,0,1-.12-.6,1.31,1.31,0,0,1,.17-.67,1.58,1.58,0,0,1,.42-.47,2,2,0,0,1,.6-.27,2.65,2.65,0,0,1,.68-.09,2.44,2.44,0,0,1,.79.14,2,2,0,0,1,.7.41Z" style="fill:#fff"/><path d="M13,38.39a2.82,2.82,0,0,1,.21-1.11,2.24,2.24,0,0,1,.57-.84,2.44,2.44,0,0,1,.86-.53,3,3,0,0,1,1.1-.19,3.07,3.07,0,0,1,1.1.19,2.45,2.45,0,0,1,1.45,1.37,3,3,0,0,1,.2,1.11,2.94,2.94,0,0,1-.2,1.09,2.52,2.52,0,0,1-1.45,1.41,3.07,3.07,0,0,1-1.1.2,3,3,0,0,1-1.1-.2,2.64,2.64,0,0,1-.86-.55,2.4,2.4,0,0,1-.57-.86A2.75,2.75,0,0,1,13,38.39Zm1,0a2,2,0,0,0,.13.75,1.66,1.66,0,0,0,.36.6,1.53,1.53,0,0,0,.55.39,1.67,1.67,0,0,0,.71.14,1.71,1.71,0,0,0,.72-.14,1.67,1.67,0,0,0,.56-.39,2,2,0,0,0,.36-.6,2.23,2.23,0,0,0,.12-.75,2.25,2.25,0,0,0-.12-.74,2.08,2.08,0,0,0-.36-.59,1.49,1.49,0,0,0-.56-.39,1.66,1.66,0,0,0-.72-.15,1.72,1.72,0,0,0-.72.15,1.63,1.63,0,0,0-.55.39,1.85,1.85,0,0,0-.35.59A2,2,0,0,0,14,38.39Z" style="fill:#fff"/><path d="M20.81,35.85h.79L23.8,41h-1l-.47-1.17H20.07L19.61,41h-1ZM22,39l-.79-2.08L20.38,39Z" style="fill:#fff"/><path d="M24.31,35.85H26a3.87,3.87,0,0,1,.8.08,1.56,1.56,0,0,1,.6.26,1.16,1.16,0,0,1,.39.46,1.42,1.42,0,0,1,.14.68,1.41,1.41,0,0,1-.16.71,1.22,1.22,0,0,1-.43.47,2,2,0,0,1-.63.26,3.7,3.7,0,0,1-.76.07h-.7V41h-.91Zm1.54,2.23a3,3,0,0,0,.43,0,1.09,1.09,0,0,0,.36-.12.61.61,0,0,0,.25-.23.68.68,0,0,0,.09-.37.64.64,0,0,0-.09-.36.62.62,0,0,0-.25-.23,1.2,1.2,0,0,0-.35-.1,2.75,2.75,0,0,0-.41,0h-.66v1.46Z" style="fill:#fff"/><path d="M17.89,31.26a9.21,9.21,0,0,1-.05-18.41h.1a9.21,9.21,0,0,1,0,18.41Zm.45-5.53v4.55a10.73,10.73,0,0,0,2.94-4A11.41,11.41,0,0,0,18.34,25.73Zm-3.83.51a10.46,10.46,0,0,0,1.72,2.81,10.82,10.82,0,0,0,1.21,1.23V25.73A11.26,11.26,0,0,0,14.51,26.24Zm-2.82,1.35c.12.13.23.25.36.37A8.17,8.17,0,0,0,16,30.15c-.16-.17-.31-.34-.46-.52a12,12,0,0,1-1.88-3.08A11.27,11.27,0,0,0,11.69,27.59Zm10.43-1a11.74,11.74,0,0,1-2.34,3.6,8.39,8.39,0,0,0,4.31-2.56A10.63,10.63,0,0,0,22.12,26.55ZM9.59,22.5a8.28,8.28,0,0,0,1.54,4.39,11.55,11.55,0,0,1,2.22-1.18,11.56,11.56,0,0,1-.56-3.21Zm12.83,3.2a12.22,12.22,0,0,1,2.23,1.18,8.32,8.32,0,0,0,1.54-4.38H23A11.2,11.2,0,0,1,22.42,25.7Zm-8.73-3.2a10.44,10.44,0,0,0,.5,2.9,12.06,12.06,0,0,1,3.25-.57V22.5Zm4.65,2.33a12.06,12.06,0,0,1,3.25.57A11.24,11.24,0,0,0,22.06,23c0-.17,0-.34,0-.51H18.34ZM23,21.61h3.21a8.25,8.25,0,0,0-1.55-4.38,12.35,12.35,0,0,1-2.24,1.19A11.58,11.58,0,0,1,23,21.61Zm-4.64,0h3.75a10.46,10.46,0,0,0-.53-2.89,12.23,12.23,0,0,1-3.22.56Zm-4.65,0h3.75V19.28a12.23,12.23,0,0,1-3.22-.56,10.72,10.72,0,0,0-.5,2.47Zm-4.1,0h3.2c0-.17,0-.33,0-.49a11.24,11.24,0,0,1,.55-2.71,12.09,12.09,0,0,1-2.25-1.18A8.29,8.29,0,0,0,9.59,21.61Zm8.75-7.69v4.46a11.45,11.45,0,0,0,2.9-.5,10.57,10.57,0,0,0-1.69-2.74A10.72,10.72,0,0,0,18.34,13.92Zm-3.8,4a11.45,11.45,0,0,0,2.9.5V13.92A10.73,10.73,0,0,0,14.54,17.88Zm5.13-3.94c.2.2.39.41.57.62a11.7,11.7,0,0,1,1.85,3,10.79,10.79,0,0,0,2-1A8.31,8.31,0,0,0,19.67,13.94Zm-8,2.58a11.58,11.58,0,0,0,2,1.05,11.54,11.54,0,0,1,2.42-3.63A8.33,8.33,0,0,0,11.69,16.52Zm6.65-2.76v0l0,0Zm-.92,0,0,0v0Z" style="fill:#f0f0f0;stroke:#b2bfcf;stroke-miterlimit:10;stroke-width:0.47581742770058816px"/></g></svg>