<svg id="Layer_1" data-name="Layer 1" xmlns="http://www.w3.org/2000/svg" viewBox="0 0 48 48"><defs><style>.cls-1{fill:#fff;}</style></defs><title>XML Files</title><rect x="4.16" y="2" width="39.68" height="17.29"/><path d="M16.22,41.49,5,35.11V32.69L16.22,26v3.56l-8,4.27v.09l8,4Z"/><path d="M29.72,21,21.34,46H18L26.3,21Z"/><path d="M43,34.92,31.78,41.3V37.75l8-4v-.06l-8-4.28V25.84L43,32.49Z"/><path class="cls-1" d="M14,6.11,15.18,9l1.16-2.93h2L16.22,10.6l2.26,4.58H16.42l-1.31-3.07-1.29,3.07h-2l2.26-4.58L12,6.11Z"/><path class="cls-1" d="M23.21,6.11l1.29,6.4h0l1.31-6.4h2.7v9.07H26.87V7.94h0l-1.61,7.24H23.81L22.2,7.94h0v7.24H20.5V6.11Z"/><path class="cls-1" d="M31.12,6.11H33v7.57h3.24v1.5H31.12Z"/></svg>