<svg xmlns="http://www.w3.org/2000/svg" viewBox="0 0 48 48"><title>xslt</title><g id="Warstwa_1" data-name="Warstwa 1"><path d="M19,8.69H29.45c2.27,0,3.33.66,3.35,2.94L32,16.2l.93,19.62h8.83a1.49,1.49,0,0,0,1.49-1.49V11a2.34,2.34,0,0,0-.71-1.67l-6-5.75a2.32,2.32,0,0,0-1.53-.64c-3.32-.08-14.79-.31-15.47.33S19,8.69,19,8.69Z" style="fill:#f0f0f0"/><polyline points="36.15 2.95 36.15 10.21 43.41 10.21" style="fill:none;stroke:#b2bfcf;stroke-linecap:round;stroke-linejoin:round;stroke-width:0.726px"/><path d="M19,8.16V4.33a1.45,1.45,0,0,1,1.45-1.45L36.15,3l7.27,7.25,0,13.5V34.37A1.45,1.45,0,0,1,42,35.82h-8" style="fill:none;stroke:#b2bfcf;stroke-linecap:round;stroke-linejoin:round;stroke-width:0.726px"/><path d="M20.19,42.91h-12a1.52,1.52,0,0,1-1.45-1.57V12.05a1.51,1.51,0,0,1,1.45-1.57l21.54.07a1.52,1.52,0,0,1,1.45,1.57V41.34a1.52,1.52,0,0,1-1.45,1.57Z" style="fill:#fff;stroke:#009ada;stroke-linecap:round;stroke-linejoin:round;stroke-width:0.726px"/><path d="M6.76,32.3H31.2v9.24a1.31,1.31,0,0,1-1.36,1.25H8.12a1.31,1.31,0,0,1-1.36-1.25Z" style="fill:#009ada"/><path d="M8.21,10.09l21.54.07a1.91,1.91,0,0,1,1.81,2V41.34a1.9,1.9,0,0,1-1.82,2H8.21a1.89,1.89,0,0,1-1.81-2V12.06a1.9,1.9,0,0,1,1.81-2m0-2.17h0a4.07,4.07,0,0,0-4,4.14V41.34a4.08,4.08,0,0,0,4,4.15H29.74a4.08,4.08,0,0,0,4-4.15V12.13a4.07,4.07,0,0,0-4-4.14L8.22,7.92Z" style="fill:#fff"/><path d="M12,25.21v2.43s0,.77,3.21,1.26a26.7,26.7,0,0,0,7.7-.1A6.8,6.8,0,0,0,25.64,28c.38-.33.28-.86.28-1.23s.06-1.66-.12-1.57a11.39,11.39,0,0,1-4,1.09,54.9,54.9,0,0,1-5.6,0C14.89,26.27,12.45,25.77,12,25.21Z" style="fill:#fff"/><path d="M11.05,37.35,8.92,34.29h1.44l1.51,2.37,1.49-2.37h1.39l-2.1,3.06L15,40.69H13.52L11.83,38l-1.68,2.7H8.78Z" style="fill:#fff"/><path d="M18.83,35.66a1.15,1.15,0,0,0-.49-.38,1.69,1.69,0,0,0-.64-.12,1.58,1.58,0,0,0-.38,0,1,1,0,0,0-.34.15.82.82,0,0,0-.24.25.76.76,0,0,0-.09.38.6.6,0,0,0,.23.5,2.65,2.65,0,0,0,.56.3l.73.24a3.09,3.09,0,0,1,.74.33,1.73,1.73,0,0,1,.56.55,1.64,1.64,0,0,1,.22.91,2,2,0,0,1-.19.9,1.69,1.69,0,0,1-.51.64,2.25,2.25,0,0,1-.74.38,3.37,3.37,0,0,1-.9.12,3.43,3.43,0,0,1-1.15-.19,2.33,2.33,0,0,1-.95-.67l.86-.84a1.39,1.39,0,0,0,.55.5,1.47,1.47,0,0,0,.72.17,1.41,1.41,0,0,0,.4,0,1.46,1.46,0,0,0,.36-.16,1,1,0,0,0,.26-.28.7.7,0,0,0,.1-.38.69.69,0,0,0-.23-.55,2.11,2.11,0,0,0-.56-.32c-.22-.08-.46-.17-.73-.25a2.53,2.53,0,0,1-.73-.32,1.61,1.61,0,0,1-.56-.54,1.63,1.63,0,0,1-.23-.91,1.79,1.79,0,0,1,.2-.86,1.94,1.94,0,0,1,.54-.6,2.37,2.37,0,0,1,.75-.36,3.26,3.26,0,0,1,.87-.12,3.19,3.19,0,0,1,1,.16,2.23,2.23,0,0,1,.86.51Z" style="fill:#fff"/><path d="M20.88,34.29H22v5.37h2.72v1H20.88Z" style="fill:#fff"/><path d="M26.05,35.32h-2v-1h5.07v1h-2v5.37H26.05Z" style="fill:#fff"/><path d="M25.6,23l.54,0a7.47,7.47,0,0,0,.11-1.26,8,8,0,0,0-.07-1l-.48,0a1.1,1.1,0,0,1-.95-.76,6.16,6.16,0,0,0-.26-.67,1.07,1.07,0,0,1,.16-1.15l.35-.41a7.1,7.1,0,0,0-1.57-1.62l-.37.31a1.1,1.1,0,0,1-1.2.14,5.37,5.37,0,0,0-.65-.29,1.09,1.09,0,0,1-.71-.93l0-.53a6.56,6.56,0,0,0-1.26-.12,8,8,0,0,0-1,.07l0,.49a1.1,1.1,0,0,1-.76.94,5.38,5.38,0,0,0-.66.27,1.11,1.11,0,0,1-1.16-.17l-.41-.34a7.06,7.06,0,0,0-1.62,1.56l.31.37A1.08,1.08,0,0,1,14,19a4.88,4.88,0,0,0-.29.66,1.09,1.09,0,0,1-.93.7l-.53,0a6.67,6.67,0,0,0-.12,1.27,8.24,8.24,0,0,0,.07,1l.49,0a1.07,1.07,0,0,1,.94.75,5.52,5.52,0,0,0,.27.67,1.1,1.1,0,0,1-.17,1.15l-.34.41A7.06,7.06,0,0,0,15,27.34l.37-.31a1.1,1.1,0,0,1,1.2-.14,4.88,4.88,0,0,0,.66.29,1.09,1.09,0,0,1,.7.93l0,.53a6.67,6.67,0,0,0,1.27.12,8.24,8.24,0,0,0,1-.07l0-.48a1.07,1.07,0,0,1,.75-.95,5.46,5.46,0,0,0,.67-.26,1.07,1.07,0,0,1,1.15.16l.41.35a7.36,7.36,0,0,0,1.63-1.57l-.32-.37a1.1,1.1,0,0,1-.14-1.2,5.37,5.37,0,0,0,.29-.65A1.1,1.1,0,0,1,25.6,23Z" style="fill:#b2bfcf"/><circle cx="19.1" cy="21.62" r="2.96" style="fill:#fff"/></g></svg>