<svg xmlns="http://www.w3.org/2000/svg" viewBox="0 0 48 48"><title>aas (azure analysis services)</title><rect x="3.96" y="6.96" width="16.1" height="12.92" style="fill:#fff"/><path d="M19.49,7.54V19.3H4.54V7.54h15m1.15-1.16H3.39V20.45H20.64V6.38Z" style="fill:#1173ba"/><rect x="6.93" y="27.41" width="16.1" height="12.92" style="fill:#fff"/><path d="M22.46,28V39.75H7.51V28h15m1.15-1.15H6.35V40.9H23.61V26.83Z" style="fill:#1173ba"/><rect x="28.81" y="15.1" width="16.1" height="12.92" style="fill:#fff"/><path d="M44.33,15.67V27.43H29.38V15.67h15m1.16-1.15H28.23V28.59H45.49V14.52Z" style="fill:#1173ba"/><rect x="3.39" y="6.38" width="17.26" height="3.08" style="fill:#1173ba"/><rect x="28.23" y="14.52" width="17.26" height="3.08" style="fill:#1173ba"/><rect x="6.35" y="26.83" width="17.26" height="3.08" style="fill:#1173ba"/><path d="M14.34,35.15l-3-20.63.78-.66,25,8L37.28,23l-22,12.63Zm1.16-1.24,19.73-11.3L12.82,15.47Z" style="fill:#1173ba"/><path d="M12.17,14.05,37,22l.09.9L15.23,35.39,14.49,35l-3-20.45.64-.54m3.2,20.12L35.64,22.56l-23-7.33,2.75,18.94M12.09,13.68,12,13.8l-.64.54-.14.12,0,.18,3,20.44,0,.18.16.07.73.36.16.08.15-.09L37.27,23.15l.18-.11,0-.21-.09-.9,0-.22-.2-.06L12.27,13.73l-.18-.05Zm3.53,20L13,15.7l21.8,7-19.2,11Z" style="fill:#fff"/><circle cx="12.12" cy="14.37" r="2.35" style="fill:#1173ba"/><circle cx="15.08" cy="34.95" r="2.25" style="fill:#1173ba"/><circle cx="36.86" cy="22.46" r="2.25" style="fill:#1173ba"/></svg>