<svg id="Layer_1" data-name="Layer 1" xmlns="http://www.w3.org/2000/svg" viewBox="0 0 48 48"><defs><style>.cls-1{fill:#ffa216;}.cls-2{fill:#6556c4;}.cls-3{fill:#2d96cb;}.cls-4{fill:#45ae3d;}.cls-5{fill:#f74e0a;}</style></defs><title>accelo0</title><path class="cls-1" d="M34.83,30.91h0a1.65,1.65,0,0,1-1.65,1.66H9.6A1.65,1.65,0,0,1,8,30.91H8A1.65,1.65,0,0,1,9.6,29.26H33.18A1.65,1.65,0,0,1,34.83,30.91Z"/><path class="cls-2" d="M23.58,10.17h0a1.66,1.66,0,0,1-1.66,1.66H4.27a1.66,1.66,0,0,1-1.66-1.66h0A1.65,1.65,0,0,1,4.27,8.52H21.92A1.65,1.65,0,0,1,23.58,10.17Z"/><path class="cls-3" d="M34.83,17.09h0a1.65,1.65,0,0,1-1.65,1.65H9.6A1.65,1.65,0,0,1,8,17.09H8A1.65,1.65,0,0,1,9.6,15.43H33.18A1.65,1.65,0,0,1,34.83,17.09Z"/><path class="cls-4" d="M45.39,24h0a1.66,1.66,0,0,1-1.66,1.66H15A1.65,1.65,0,0,1,13.39,24h0A1.65,1.65,0,0,1,15,22.34H43.73A1.66,1.66,0,0,1,45.39,24Z"/><path class="cls-5" d="M23.58,37.83h0a1.65,1.65,0,0,1-1.66,1.65H4.27a1.65,1.65,0,0,1-1.66-1.65h0a1.66,1.66,0,0,1,1.66-1.66H21.92A1.66,1.66,0,0,1,23.58,37.83Z"/></svg>