<svg xmlns="http://www.w3.org/2000/svg" viewBox="0 0 48 48"><title>Access</title><path d="M24.86,1.15H28V5.71c5.05-.65,10.33-.6,15.17,1.12C45,7.45,47,8.87,46.8,11q0,12.06,0,24.12c.18,2.2-1.86,3.61-3.71,4.23A33.27,33.27,0,0,1,28,40.48v5.63H24.73c-8-1.46-15.95-2.78-23.92-4.18V5.34C8.83,3.94,16.85,2.57,24.86,1.15Z" style="fill:#a33639"/><path d="M28,7.3a32.71,32.71,0,0,1,14.06.76c1.25.46,2.93,1,3.21,2.51-.21,1.22-1.48,1.77-2.48,2.21a31.66,31.66,0,0,1-14.79,1Z" style="fill:#fff"/><path d="M38.69,15.43a13.35,13.35,0,0,0,6.56-2.33c-.11,2.25.18,4.52-.15,6.75a7.25,7.25,0,0,1-3.76,1.89A37.45,37.45,0,0,1,28,22.23V15.45A41.65,41.65,0,0,0,38.69,15.43Z" style="fill:#fff"/><path d="M11.48,14.89l3.66-.26c1.75,5.85,3.41,11.74,5.14,17.6-1.21-.08-2.42-.17-3.61-.28-.32-1.31-.66-2.61-1-3.92-1.6,0-3.21-.05-4.81-.13-.3,1.24-.62,2.47-.94,3.71-1-.08-2-.16-3.06-.22C8.38,25.88,10,20.4,11.48,14.89Z" style="fill:#fff"/><path d="M11.51,25.08c.53-2.45,1.31-4.84,1.66-7.32.47,2.47,1.2,4.89,1.79,7.34Z" style="fill:#a33639"/><path d="M38.72,23.79a13.21,13.21,0,0,0,6.53-2.33c-.1,2.25.17,4.51-.14,6.74a7,7,0,0,1-3.74,1.89A37.62,37.62,0,0,1,28,30.6V23.82A41.89,41.89,0,0,0,38.72,23.79Z" style="fill:#fff"/><path d="M38.7,32.15a13.21,13.21,0,0,0,6.55-2.32c-.11,2.24.18,4.51-.15,6.74-1.48,1.61-3.83,1.91-5.86,2.32a38.42,38.42,0,0,1-11.28,0c0-2.25,0-4.5,0-6.75A41.29,41.29,0,0,0,38.7,32.15Z" style="fill:#fff"/></svg>