<svg xmlns="http://www.w3.org/2000/svg" viewBox="0 0 48 48"><title>actcrm</title><ellipse cx="23.81" cy="24.83" rx="20.1" ry="19.4" style="fill:#ef5324"/><path d="M19,28.12c-.09-.45,0-4.94,0-4.94S19,21,15.48,20.92s-3.9,2.39-3.9,2.39h2.51a1.77,1.77,0,0,1,1.43-.56c1,0,1.19.56,1.19.69s-.07.6-2.51.69c-1.77.06-3,1.08-3,2.58,0,1.26,1.46,2.26,3,2.29a7.41,7.41,0,0,0,2.78-.49l.21.53h2.13S19.12,28.59,19,28.12Zm-3.78-1.05c-.73.07-1.5,0-1.61-.55,0-.76,1.84-.53,3.15-.89A1.48,1.48,0,0,1,15.23,27.07Z" style="fill:#fff"/><path d="M25.26,24h2.57a3.9,3.9,0,0,0-4.1-3,4.16,4.16,0,1,0,.1,8.31c3.8,0,4-3,4-3l-2.64,0a1.83,1.83,0,0,1-1.55,1c-1.06,0-1.74-1.31-1.74-2.09A1.9,1.9,0,0,1,23.64,23,1.7,1.7,0,0,1,25.26,24Z" style="fill:#fff"/><path d="M28.28,19.21v6.55c0,1.28.78,3.28,2.61,3.28h1.18V26.91a1.12,1.12,0,0,1-1.52-1.21V23.14h1.54v-2H30.58v-2Z" style="fill:#fff"/><polygon points="32.58 19.21 35.47 19.21 34.65 26.19 33.33 26.19 32.58 19.21" style="fill:#fff"/><ellipse cx="34.03" cy="27.97" rx="1.23" ry="1.19" style="fill:#fff"/><path d="M36.26,20.28v-.94h-.35v-.19h.93v.19h-.35v.94Z" style="fill:#fff"/><path d="M37,20.28V19.15h.35l.21.77.21-.77h.35v1.13h-.22v-.89l-.23.89h-.22l-.24-.89v.89Z" style="fill:#fff"/></svg>