<svg xmlns="http://www.w3.org/2000/svg" xmlns:xlink="http://www.w3.org/1999/xlink" viewBox="0 0 48 48"><defs><symbol id="a" viewBox="0 0 164.33 163"><polygon points="81.67 0 0 96.67 81.67 163 164.33 97 81.67 0" style="fill:#03abec"/><rect x="78.71" y="47.67" width="6" height="78.16" style="fill:#fff"/><path d="M67.49,48.38A14.22,14.22,0,1,1,81.71,62.59,14.22,14.22,0,0,1,67.49,48.38Z" style="fill:#fff"/><path d="M67.49,125.12a14.22,14.22,0,1,0,14.22-14.21A14.22,14.22,0,0,0,67.49,125.12Z" style="fill:#fff"/><polygon points="123.17 95.38 79.18 49.85 83.5 45.68 127.48 91.21 123.17 95.38" style="fill:#fff"/><path d="M71.61,58.15a14.21,14.21,0,1,1,20.1.35A14.2,14.2,0,0,1,71.61,58.15Z" style="fill:#fff"/><path d="M114.61,102.65A14.21,14.21,0,1,0,115,82.56,14.22,14.22,0,0,0,114.61,102.65Z" style="fill:#fff"/><polygon points="41.1 95 36.89 90.72 80.65 47.66 84.86 51.94 41.1 95" style="fill:#fff"/><path d="M72.27,38.17a14.21,14.21,0,1,1-.16,20.1A14.22,14.22,0,0,1,72.27,38.17Z" style="fill:#fff"/><path d="M29.53,82.24a14.21,14.21,0,1,0,20.1.16A14.21,14.21,0,0,0,29.53,82.24Z" style="fill:#fff"/><polygon points="32.44 89.92 36.22 85.26 83.89 123.94 80.11 128.6 32.44 89.92" style="fill:#fff"/><polygon points="79.18 127.08 82.96 131.73 130.63 93.05 126.85 88.39 79.18 127.08" style="fill:#fff"/></symbol></defs><title>activedirectory</title><use width="164.33" height="163" transform="translate(5.04 5.24) scale(0.24)" xlink:href="#a"/></svg>