<svg xmlns="http://www.w3.org/2000/svg" viewBox="0 0 48 48"><defs><style>.cls-1{fill:#2448c8;}.cls-2{fill:#228ffa;}.cls-3{fill:#85c1fc;}</style></defs><title>icon-</title><g id="ActianVector"><polygon class="cls-1" points="41.52 37.63 30.82 37.63 24.14 27.09 17.65 37.63 6.31 37.63 5.04 39.97 19.02 39.97 24.14 31.78 29.09 39.97 43.25 39.97 41.52 37.63"/><polygon class="cls-2" points="39.28 32.96 33.57 32.96 24.29 17.13 15.06 32.96 8.84 32.96 7.57 35.29 16.43 35.29 24.29 21.82 31.84 35.29 41.01 35.29 39.28 32.96"/><polygon class="cls-3" points="24.29 7.52 10.73 30.2 13.63 30.2 24.29 12.21 34.84 30.2 37.38 30.2 24.29 7.52"/><polygon class="cls-1" points="24.14 36.56 22.23 39.97 26.04 39.97 24.14 36.56"/></g></svg>