<svg xmlns="http://www.w3.org/2000/svg" viewBox="0 0 48 48"><g id="acton"><path d="M32.15,3.3h0A10.63,10.63,0,1,0,43,14.14h0V3.3Z" style="fill:#e1e138"/><path d="M32.15,3.3h0a10.62,10.62,0,0,0-7.3,18.14C30.91,9.05,37.27,14.53,43,3.3Z" style="fill:#e7e656"/><path d="M39.29,35.38h0a8.89,8.89,0,1,0-9.06,9.06h9.06Z" style="fill:#e05066"/><path d="M39.29,35.38h0a8.89,8.89,0,0,0-15.17-6.11c10.36,5.08,5.78,10.39,15.17,15.17Z" style="fill:#e26076"/><path d="M5,33.94H5a7.32,7.32,0,1,1,7.47,7.47H5Z" style="fill:#1eb9bc"/><path d="M5,33.94H5a7.32,7.32,0,0,1,12.49-5C9,33.09,12.74,37.47,5,41.41Z" style="fill:#2ac0c2"/><path d="M13.73,12.67h0a5.83,5.83,0,1,1-5.95,6h0v-6Z" style="fill:#1b3760"/><path d="M13.73,12.67h0a5.83,5.83,0,0,1,4,10c-3.33-6.8-6.82-3.79-10-10Z" style="fill:#314b70"/></g></svg>