<svg id="Layer_1" data-name="Layer 1" xmlns="http://www.w3.org/2000/svg" viewBox="0 0 48 48"><defs><style>.cls-1{fill:#fff;}</style></defs><title>acuityscheduling</title><path class="cls-1" d="M21.25,32c3.56-3.58,7-7,10.39-10.44,1.85-1.85,4.15-1.92,5.78-.24s1.49,3.85-.31,5.67c-2.65,2.69-5.33,5.34-8,8-.29.29-.55.62-.85,1l1.54,1.64c3.14-3.15,6.21-6.16,9.2-9.24a6.17,6.17,0,1,0-8.82-8.63c-2.79,2.76-5.54,5.55-8.33,8.31-.75.73-1.57,1.39-2.29,2ZM18.1,10.41c-3,3-6,6-8.87,8.93-2.7,2.75-2.78,6.55-.22,9.05s6.29,2.32,9-.32c3.2-3.17,6.37-6.37,9.55-9.55.26-.27.48-.57.75-.89l-1.63-1.75c-1.37,1.45-2.59,2.81-3.88,4.12-2.24,2.27-4.48,4.55-6.8,6.75a3.72,3.72,0,0,1-5.35-.06,3.82,3.82,0,0,1-.07-5.36c.38-.44.8-.84,1.22-1.24l8.08-7.94c-.39-.42-.61-.68-.85-.91S18.5,10.78,18.1,10.41Zm14.54,3c-2.56-3.32-6.61-3.7-9.45-.93C19.76,15.86,16.4,19.28,13,22.67a3.54,3.54,0,0,0-.35.48l1.43,1.66c.46-.43.81-.75,1.15-1.08,3.15-3.15,6.29-6.31,9.46-9.44a3.76,3.76,0,0,1,5.57-.15l.84.69Zm1.19,9.65c-3.59,3.61-7,7.08-10.5,10.53a3.82,3.82,0,0,1-5.69.11l-.75-.65-1.63,1.5c3.25,3.49,6.8,3.59,10,.36,2.54-2.53,5.07-5.08,7.61-7.6.84-.84,1.72-1.65,2.61-2.5Z"/><path d="M21.25,32l-1.69-1.93c.72-.63,1.54-1.29,2.29-2,2.79-2.76,5.54-5.55,8.33-8.31A6.17,6.17,0,1,1,39,28.35c-3,3.08-6.06,6.09-9.2,9.24L28.26,36c.3-.34.56-.67.85-1,2.67-2.68,5.35-5.33,8-8,1.8-1.82,1.9-4,.31-5.67s-3.93-1.61-5.78.24C28.21,25,24.81,28.4,21.25,32Z"/><path d="M18.1,10.41c.4.37.65.59.89.83s.46.49.85.91l-8.08,7.94c-.42.4-.84.8-1.22,1.24a3.82,3.82,0,0,0,.07,5.36,3.72,3.72,0,0,0,5.35.06c2.32-2.2,4.56-4.48,6.8-6.75,1.29-1.31,2.51-2.67,3.88-4.12l1.63,1.75c-.27.32-.49.62-.75.89C24.34,21.7,21.17,24.9,18,28.07c-2.67,2.64-6.46,2.76-9,.32s-2.48-6.3.22-9C12.15,16.37,15.1,13.43,18.1,10.41Z"/><path d="M32.64,13.44l-1.53,1.39-.84-.69a3.76,3.76,0,0,0-5.57.15c-3.17,3.13-6.31,6.29-9.46,9.44-.34.33-.69.65-1.15,1.08l-1.43-1.66a3.54,3.54,0,0,1,.35-.48c3.39-3.39,6.75-6.81,10.18-10.16C26,9.74,30.08,10.12,32.64,13.44Z"/><path d="M33.83,23.09l1.7,1.75c-.89.85-1.77,1.66-2.61,2.5-2.54,2.52-5.07,5.07-7.61,7.6-3.25,3.23-6.8,3.13-10-.36l1.63-1.5.75.65a3.82,3.82,0,0,0,5.69-.11C26.8,30.17,30.24,26.7,33.83,23.09Z"/></svg>