<svg xmlns="http://www.w3.org/2000/svg" viewBox="0 0 108 72">
  <defs>
    <style>
      .\37 1fb8191-9cef-4535-b2eb-7c06fbc35aec {
        fill: #f9a31a;
      }

      .d78b730d-6bae-451d-bf49-dc21bc81990b {
        fill: #fff;
      }
    </style>
  </defs>
  <title>aftership</title>
  <g id="3f91f554-3bbb-43b2-a199-2cdd17d0004b" data-name="NEED VECTOR">
    <g id="dd24ddce-bcf2-49d8-9758-8eaab085bedb" data-name="Page-1">
      <g id="970925b0-46cf-4dd1-b74f-24196f0d3683" data-name="aftership-text">
        <path id="6ef5c498-5e13-4be2-bb84-421d7353c3db" data-name="aftership" d="M35,38.75a4,4,0,0,1-3.12,1.43A5.06,5.06,0,0,1,26.8,35a5.17,5.17,0,0,1,5.08-5.08A3.71,3.71,0,0,1,35,31.33V30.15h2.09v9.77H35Zm-2.86-.65A3.13,3.13,0,1,0,29,35,3.12,3.12,0,0,0,32.14,38.1Zm7.29-5.86h-1.3v-2h1.3V28.59a3.48,3.48,0,0,1,3.78-3.51,5,5,0,0,1,1.56.26l-.91,1.82A2.89,2.89,0,0,0,43,27a1.33,1.33,0,0,0-1.31,1.43v1.69h2.09v2H41.64v7.81H39.56V32.24Zm6.51-.13H44.77v-2h1.17V27.29H48v2.86h1.57v2H48v7.81H45.94Zm9.51,7.94a5.15,5.15,0,1,1,0-10.29,5.25,5.25,0,0,1,5.08,5.47v.39H52.45a3,3,0,0,0,3,2.61,3.43,3.43,0,0,0,2.73-1.56l1.83,1A5.91,5.91,0,0,1,55.45,40.05Zm2.6-6.12a2.91,2.91,0,0,0-2.86-2.21,2.74,2.74,0,0,0-2.74,2.21Zm3.52-3.78h2V31.2h.13a2,2,0,0,1,1.82-1.31,2.79,2.79,0,0,1,1.18.26l-.78,2.09a2.37,2.37,0,0,0-.79-.26,1.48,1.48,0,0,0-1.43,1.56v6.38H61.57ZM68,36.93a5.11,5.11,0,0,0,3.12,1.43c1.15,0,1.87-.74,1.83-1.3s-.46-1-1.17-1.18l-1.18-.13C67.77,35.22,67,34.34,67,32.89s1.36-3.13,3.77-3.13a6.24,6.24,0,0,1,3.78,1.31l-1.17,1.56a3.46,3.46,0,0,0-2.61-1c-.88-.06-1.75.38-1.69,1.17-.06.57.41.89,1.17,1l2.09.39c1.75.31,2.6,1.13,2.6,2.61s-1.16,3.25-4.17,3.25a6.44,6.44,0,0,1-4.29-1.69Zm18.49-6.65h2.08v9.64H86.44Zm-8.33-3v4.17a3.51,3.51,0,0,1,3-1.57,4,4,0,0,1,3.78,4.17v5.86H82.79V34.45A2.16,2.16,0,0,0,80.45,32a2.28,2.28,0,0,0-2.34,2.47v5.47H76V27.29ZM92.17,31.2a4.06,4.06,0,0,1,3.13-1.44A5.06,5.06,0,0,1,100.38,35a5.18,5.18,0,0,1-5.08,5.08,3.74,3.74,0,0,1-3.13-1.43v4.56H90.09V30h2.08Zm2.87.65A3.13,3.13,0,1,0,98.16,35,3.11,3.11,0,0,0,95,31.85Zm-7.56-4.69a1.17,1.17,0,1,1-1.17,1.17A1.15,1.15,0,0,1,87.48,27.16Z"/>
      </g>
    </g>
    <g id="ca3e30c7-5c39-49e6-8669-ba73864d61f7" data-name="styleguide--">
      <g id="db8b9244-341f-4403-96e9-e77215db2b44" data-name="Group-41-Copy">
        <path id="01599fb8-6d31-4af6-97e4-a2067cd22e82" data-name="Shape" class="71fb8191-9cef-4535-b2eb-7c06fbc35aec" d="M25.08,32.71a8.35,8.35,0,1,0-10.45,8l2.1,2.73,2.1-2.73a8.3,8.3,0,0,0,6.25-8Z"/>
        <path id="7e259d01-96fb-43a0-b01c-557969879df1" data-name="Shape" class="d78b730d-6bae-451d-bf49-dc21bc81990b" d="M12.46,30.36c-.37-.25-.37-.56,0-.69l3.47-1.73a1.61,1.61,0,0,1,1.29,0l3.53,1.73c.37.19.37.5,0,.69l-3.46,1.73a1.63,1.63,0,0,1-1.3,0l-3.53-1.73Zm4.39,3.4a1.44,1.44,0,0,1,.68-1.11l3.66-1.8c.37-.19.68,0,.68.43v3.47a1.44,1.44,0,0,1-.68,1.11L17.53,37.6c-.37.18-.68,0-.68-.44v-3.4Zm-5,2.1a1.35,1.35,0,0,1-.68-1.11V31.28a.45.45,0,0,1,.68-.43l3.59,1.8a1.35,1.35,0,0,1,.68,1.11v3.46a.45.45,0,0,1-.68.44l-3.59-1.8Z"/>
      </g>
    </g>
  </g>
</svg>
