<svg id="CURRENT" xmlns="http://www.w3.org/2000/svg" viewBox="0 0 48 48">
  <title>aha</title>
  <path d="M8.82,27.89,8.14,31c0,.09-.09.14-.19.14H4.66S4.53,31,4.53,31a.15.15,0,0,1,0-.13L8.82,17.69a.6.6,0,0,1,.37-.32c1-.18,2.47-.41,3.52-.59A.29.29,0,0,1,13,17l4.25,14a.17.17,0,0,1-.05.14.17.17,0,0,1-.13,0H15.18c-.51,0-1.51.05-1.88.05-.09,0-.18-.05-.18-.14l-.69-3.11Zm3.07-2.7c-.28-1.1-.69-3.06-1.1-4.76-.28,1.19-.92,3.62-1.24,4.76Zm9.73-3.25c2.33-1.6,4.3-1.23,5.26-.27,1.14,1.19.5,2.74.87,9.28a.17.17,0,0,1-.05.14.17.17,0,0,1-.13,0c-.37,0-1.06,0-1.38,0-.54,0-1.69,0-2.14,0a.18.18,0,0,1-.14,0,.17.17,0,0,1-.05-.14c.05-6.4.09-7.27-1.05-7.27a3,3,0,0,0-1.1.32c0,3.29.05,4.25.19,6.9,0,.05,0,.09,0,.09a.12.12,0,0,1-.09.05l-3.66.05S18,31.09,18,31A.16.16,0,0,1,18,31c.09-9.56,0-11.52-.28-13.53-.14-.09,0-.09,0-.09,1.64-.23,1.78-.28,3.65-.64a.2.2,0,0,1,.19.22C21.62,18.33,21.62,21.94,21.62,21.94Zm12.53,8.19A6.12,6.12,0,0,1,31,31.31c-1.69,0-2.74-1.23-2.74-3.06,0-2.83,3.33-3.66,5.71-4,.05-.45.05-1-1.14-1a8.71,8.71,0,0,0-3.25.78c0,.05-.13,0-.18,0a.21.21,0,0,1-.09-.18l.09-2.2c0-.09,0-.13.14-.18,2.15-.64,5.8-1.14,7.31.28,1,.86.92,2,.87,3.79A45.59,45.59,0,0,0,37.9,31a.17.17,0,0,1,0,.14.18.18,0,0,1-.14,0l-3.38.05a.17.17,0,0,1-.14-.05.18.18,0,0,1,0-.14Zm-.09-3.8c-.87.09-2.2.18-2.2,1.33s1.1,1.32,2.2.64Zm6.12.05a.2.2,0,0,1-.18-.19c-.23-5-.27-5.53-.55-8.64a.23.23,0,0,1,.18-.22l3.66-.6c.05,0,.14,0,.18.05s.05.09.05.18c-.23,2.24-.46,6.49-.5,9.19a.2.2,0,0,1-.19.18Zm-.63,4.24a.06.06,0,0,1,0,0c0-.62,0-1.26,0-1.81,0-.2,0-.41,0-.61a.15.15,0,0,1,0-.09c0-.11,0-.21,0-.32a.17.17,0,0,1,.05-.14.19.19,0,0,1,.14,0A19.77,19.77,0,0,0,43,27.52a.15.15,0,0,1,.13.05.16.16,0,0,1,.05.14V31a.17.17,0,0,1-.05.14.17.17,0,0,1-.13,0,27.14,27.14,0,0,0-3.29.05.17.17,0,0,1-.19-.19C39.54,30.87,39.54,30.75,39.55,30.62Z" style="fill: #f58522;stroke: #fff;stroke-miterlimit: 10;stroke-width: 0.05400536644685872px"/>
</svg>
