<svg xmlns="http://www.w3.org/2000/svg" viewBox="0 0 48 48"><defs><style>.cls-1{fill:#274588;}.cls-2{fill:#f80;}</style></defs><title>ahrefs</title><g id="Layer_3" data-name="Layer 3"><path id="Rectangle_20_copy_5" data-name="Rectangle 20 copy 5" class="cls-1" d="M15.69,28.25V21.6H13.47v6.65H11.26v-10h2.21v2.21H16.8V21.6h1.11v6.65Zm5.54-5.54v5.54H19V20.49h2.22V21.6h1.11V20.49h2.21v2.22ZM32.31,26v1.11H31.2V26Zm-5.54,2.22V27.14H25.66V21.6h1.11V20.49H31.2V21.6h1.11v3.33H27.88v2.21H31.2v1.11Zm3.32-4.43V21.6H27.88v2.22Zm6.65-4.43v1.1h1.11V21.6H36.74v6.65H34.53V21.6H33.42V20.49h1.11v-1.1h1.11V18.28H39v1.11Zm5.54,3.32v1.11h1.11v1.11H44.5v2.21H43.39v1.11H40.07V27.14h2.21V26h-1.1v-1.1H40.07V23.82H39V21.6h1.11V20.49h3.32V21.6H41.18v1.11ZM39,26h1.11v1.11H39Zm5.54-3.32H43.39V21.6H44.5Z"/><path id="Rectangle_20_copy_7" data-name="Rectangle 20 copy 7" class="cls-2" d="M4.61,28.25V27.14H3.5V24.93H4.61V23.82H7.93V21.6H4.61V20.49H9V21.6h1.11v6.65Zm1.11-3.32v2.21H7.93V24.93ZM3.5,22.71V21.6H4.61v1.11Z"/></g></svg>