<svg id="Layer_1" data-name="Layer 1" xmlns="http://www.w3.org/2000/svg" viewBox="0 0 48 48"><defs><style>.cls-1{fill:#ff843a;}</style></defs><title>airbrakes</title><path class="cls-1" d="M24,3.09,44.33,13.54V34.46L24,44.91,3.67,34.46V13.54ZM21.53,25.38l1.82-4.87a23.31,23.31,0,0,0,.87-2.9h.07s.44,1.89.8,2.9l1.81,4.87Zm-7,7.92h2.39a2.15,2.15,0,0,0,2.47-1.6l1.31-3.34h7.19l1.31,3.34c.43,1.23,1,1.6,2.46,1.6H34v-3h-.44a.82.82,0,0,1-.94-.66L26.32,13.91H22.18L15.87,29.66a.76.76,0,0,1-.87.66h-.51Z"/></svg>