<svg id="a9768136-9629-48d7-aea6-2f05a4c7e59b" data-name="Icons" xmlns="http://www.w3.org/2000/svg" xmlns:xlink="http://www.w3.org/1999/xlink" viewBox="0 0 108 72">
  <defs>
    <style>
      .dc89694c-c10f-4fbe-b6d9-3c8babf7fb41 {
        fill: #fff;
      }

      .\32 0f2f21a-626f-4a57-af58-85d061b75d62 {
        fill: #00b388;
      }

      .\38 f195e6a-f0ba-41ef-8e00-8791eacfc84f {
        mask: url(#4adde2a8-59ee-4ab4-8502-9099e6aeeed5);
      }

      .ff033743-9cd4-4cd4-a902-74f28fe38f88 {
        fill: #101820;
      }
    </style>
    <mask id="4adde2a8-59ee-4ab4-8502-9099e6aeeed5" x="11.86" y="23" width="24" height="24" maskUnits="userSpaceOnUse">
      <g id="065ffc5d-9434-47ed-ad5d-fdb50f7f5935" data-name="mask-2">
        <path id="cb2e40e7-f50b-44b0-a20d-0ee4f8dfdcbe" data-name="path-1" class="dc89694c-c10f-4fbe-b6d9-3c8babf7fb41" d="M30,23.52a29.44,29.44,0,0,0-6.1-.52,29.33,29.33,0,0,0-6.09.52,7,7,0,0,0-5.39,5.39A30,30,0,0,0,11.86,35a30,30,0,0,0,.52,6.09,7,7,0,0,0,5.39,5.39,29.33,29.33,0,0,0,6.09.52,29.44,29.44,0,0,0,6.1-.52,7,7,0,0,0,5.39-5.39A30.1,30.1,0,0,0,35.86,35a30.1,30.1,0,0,0-.51-6.09A7,7,0,0,0,30,23.52Z"/>
      </g>
    </mask>
  </defs>
  <title>Aircall</title>
  <g id="905664c4-885f-487d-803b-6f8214b2a761" data-name="Page-1">
    <g id="8535ceaf-cfcf-4254-8383-77f56cd684f1" data-name="new-logo">
      <g id="41bb8861-69a6-4b52-bf93-20e3876543c4" data-name="icon">
        <g id="2f005c16-3149-4248-b36e-f60b8adf7eb3" data-name="bg">
          <path id="d1b7631b-ed8a-4b1d-a908-ff2c81bf11c2" data-name="path-1" class="20f2f21a-626f-4a57-af58-85d061b75d62" d="M30,23.52a29.44,29.44,0,0,0-6.1-.52,29.33,29.33,0,0,0-6.09.52,7,7,0,0,0-5.39,5.39A30,30,0,0,0,11.86,35a30,30,0,0,0,.52,6.09,7,7,0,0,0,5.39,5.39,29.33,29.33,0,0,0,6.09.52,29.44,29.44,0,0,0,6.1-.52,7,7,0,0,0,5.39-5.39A30.1,30.1,0,0,0,35.86,35a30.1,30.1,0,0,0-.51-6.09A7,7,0,0,0,30,23.52Z"/>
        </g>
        <g id="ff66f98c-2e66-45d7-9b6c-7bfbff4766a0" data-name="Path-Clipped">
          <g class="8f195e6a-f0ba-41ef-8e00-8791eacfc84f">
            <path id="19e37deb-f968-4257-893f-98d9c56f920a" data-name="Path" class="dc89694c-c10f-4fbe-b6d9-3c8babf7fb41" d="M26.75,41.42a1.81,1.81,0,0,0-1.3-1.07,7.94,7.94,0,0,0-1.59-.13,7.9,7.9,0,0,0-1.58.13A1.84,1.84,0,0,0,21,41.41h0a.45.45,0,0,1-.47.28h-.13a9.37,9.37,0,0,1-2.11-.38h0a.75.75,0,0,1-.49-.71v-.07h0v0a31.65,31.65,0,0,1,1.56-5.89,25.11,25.11,0,0,1,2.55-5.89,1,1,0,0,1,.27-.19.37.37,0,0,1,.14-.07h0a5.9,5.9,0,0,1,1.56-.17,5.79,5.79,0,0,1,1.56.17h0a.61.61,0,0,1,.14.07.83.83,0,0,1,.26.19h0a25,25,0,0,1,2.56,5.89A32.5,32.5,0,0,1,30,40.49v0h0v.07a.75.75,0,0,1-.49.71h0a9.14,9.14,0,0,1-2.1.38H27.2a.43.43,0,0,1-.45-.27Z"/>
          </g>
        </g>
      </g>
      <path id="f166257d-1e06-4d66-96bb-ef2ff4f502ab" data-name="woodmark" class="ff033743-9cd4-4cd4-a902-74f28fe38f88" d="M50.2,31h2.29V41H50.2V39.25a3.9,3.9,0,0,1-3.54,2A5,5,0,0,1,41.86,36a5,5,0,0,1,4.8-5.19,3.9,3.9,0,0,1,3.54,2Zm34.33,0h2.3V41h-2.3V39.25a3.88,3.88,0,0,1-3.54,2A5,5,0,0,1,76.2,36,5,5,0,0,1,81,30.8a3.88,3.88,0,0,1,3.54,2ZM47.2,39a3,3,0,1,0,0-6.07,3,3,0,1,0,0,6.07Zm34.21,0a3,3,0,1,0,0-6.07,3,3,0,1,0,0,6.07ZM55.92,26a1.46,1.46,0,1,1,0,2.92,1.46,1.46,0,0,1,0-2.92ZM54.8,31h2.27V41H54.8Zm9.41-.2a3.53,3.53,0,0,1,1.16.18c.18.07.34.15.46.21l-.92,1.93A3.15,3.15,0,0,0,64,33a2.47,2.47,0,0,0-2.34,2.68V41H59.38V31h2.27v1.44A3,3,0,0,1,64.21,30.77Zm11.42,7.67A4.94,4.94,0,0,1,71,41.18a5.21,5.21,0,1,1,0-10.41,4.71,4.71,0,0,1,4.32,2.44L73.4,34.29A2.64,2.64,0,0,0,71,33a3,3,0,0,0,0,6,2.76,2.76,0,0,0,2.58-1.47ZM91.41,26V41H89.13V26ZM96,26V41H93.71V26Z"/>
    </g>
  </g>
</svg>
