<svg xmlns="http://www.w3.org/2000/svg" viewBox="0 0 48 48">
  <title>airtable</title>
  <g id="Salesforce_Pardot" data-name="Salesforce Pardot">
    <g>
      <path d="M22.13,9.54,8.94,15a.89.89,0,0,0,0,1.64L22.2,21.89a4.92,4.92,0,0,0,3.62,0l13.25-5.25a.88.88,0,0,0,0-1.64L25.89,9.54a4.9,4.9,0,0,0-3.76,0" style="fill: #f7d131"/>
      <path d="M25.19,24.76V37.88a.88.88,0,0,0,1.21.82L41.16,33a.88.88,0,0,0,.56-.82V19a.89.89,0,0,0-1.21-.82L25.75,23.94a.88.88,0,0,0-.56.82" style="fill: #30cef2"/>
      <path d="M21.74,25.44l-4.38,2.11-.44.22L7.67,32.2a.94.94,0,0,1-1.34-.8V19.08a.82.82,0,0,1,.29-.59.92.92,0,0,1,.22-.17,1,1,0,0,1,.8-.06l14,5.56a.89.89,0,0,1,.07,1.62" style="fill: #ed2f47"/>
    </g>
  </g>
</svg>
