<svg xmlns="http://www.w3.org/2000/svg" viewBox="0 0 48 48"><title>alfresco</title><path d="M24.41,23.25l-5.58-5.7-.2-.21a8.09,8.09,0,0,0-11.6,0A8.46,8.46,0,0,0,7,29.15a8.06,8.06,0,0,0,11.58,0l5.8-5.9Z" style="fill:#fff"/><path d="M24.41,23.24v8.35A8.3,8.3,0,0,1,16.22,40a8.37,8.37,0,0,1,0-16.73Z" style="fill:#fff"/><path d="M24.41,23.24v8.35A8.3,8.3,0,0,1,16.22,40a8.37,8.37,0,0,1,0-16.73Z" style="fill:#fff"/><path d="M24.41,23.24v8.35A8.3,8.3,0,0,1,16.22,40,8.29,8.29,0,0,1,8,31.61a8.1,8.1,0,0,1,.14-1.49,8,8,0,0,0,10.46-1l5.8-5.9Z" style="fill:#fff"/><path d="M16.22,24.3a7.3,7.3,0,1,0,7.16,7.31V24.3Z" style="fill:#8bc037"/><path d="M24.41,23.24,30,28.93l.23.21a8.51,8.51,0,0,1,0,11.84,8.11,8.11,0,0,1-11.61,0,8.49,8.49,0,0,1,0-11.83l5.8-5.91Z" style="fill:#fff"/><path d="M19.36,29.9a7.39,7.39,0,0,0,0,10.32,7.07,7.07,0,0,0,10.13,0,7.41,7.41,0,0,0,0-10.32l-.24-.22-4.84-4.94-5.05,5.15Z" style="fill:#8bc037"/><path d="M24.41,23.24H32.6a8.36,8.36,0,1,1-8.19,8.37V23.24Z" style="fill:#fff"/><path d="M25.46,31.6a7.15,7.15,0,1,0,7.16-7.3H25.46Z" style="fill:#8bc037"/><path d="M24.41,23.24,30,17.55l.22-.22a8.09,8.09,0,0,1,11.59,0,8.49,8.49,0,0,1,0,11.83,8.09,8.09,0,0,1-11.43.16l-.16-.16Z" style="fill:#fff"/><path d="M31,28.39a7,7,0,0,0,10.12,0,7.39,7.39,0,0,0,0-10.32,7.06,7.06,0,0,0-10.12,0l-.23.23-4.83,4.94,5,5.14Z" style="fill:#8bc037"/><path d="M24.41,23.24V14.89a8.2,8.2,0,1,1,16.39,0,8.28,8.28,0,0,1-8.18,8.37Z" style="fill:#fff"/><path d="M32.62,22.18a7.23,7.23,0,0,0,7.14-7.31,7.16,7.16,0,1,0-14.32,0l0,.32v7h7.16Z" style="fill:#f99f38"/><path d="M24.41,23.24l-5.58-5.69-.22-.21a8.49,8.49,0,0,1,0-11.83,8.08,8.08,0,0,1,11.6,0,8.48,8.48,0,0,1,0,11.82Z" style="fill:#fff"/><path d="M29.47,16.65a7.41,7.41,0,0,0,0-10.32,7.06,7.06,0,0,0-10.12,0,7.37,7.37,0,0,0,0,10.32l.2.22,4.86,4.94,5.05-5.15Z" style="fill:#0081c6"/><path d="M24.41,23.31H16.22a8.37,8.37,0,0,1,0-16.73A8.3,8.3,0,0,1,24.41,15v8.35Z" style="fill:#fff"/><path d="M23.38,15a7.17,7.17,0,1,0-7.18,7.3h7.18Z" style="fill:#0081c6"/><path d="M24.41,23.31H4.62A8.38,8.38,0,0,1,7,17.4a8.08,8.08,0,0,1,11.58,0l5.8,5.91Z" style="fill:#fff"/><path d="M17.88,18.15l5.06,5.16H16.22a8.22,8.22,0,0,0-7.8,5.77,7.45,7.45,0,0,1-.65-.61,7.37,7.37,0,0,1,0-10.32,7,7,0,0,1,10.11,0" style="fill:#0081c6"/><path d="M17.89,18.16l4,4.08-5.7,0A7.18,7.18,0,0,1,9.31,17a7,7,0,0,1,8.57,1.2ZM23.38,15v5.78l-4-4.1a7.42,7.42,0,0,1-1.2-8.72,7.29,7.29,0,0,1,5.23,7v0Zm2.05,5.8V15a7.3,7.3,0,0,1,5.23-7,7.26,7.26,0,0,1-1.16,8.69Z" style="fill:#005ea5"/><path d="M26.92,22.18l4-4.1a7.05,7.05,0,0,1,8.55-1.22,7.11,7.11,0,0,1-6.71,5.33Z" style="fill:#ffdf4f"/><path d="M26.92,24.29h5.69A7.18,7.18,0,0,1,39.5,29.6a7.09,7.09,0,0,1-8.58-1.21Zm-1.46,7.27V25.79l4,4.09a7.46,7.46,0,0,1,1.18,8.74,7.28,7.28,0,0,1-5.21-7v0Zm-6.09-1.68,4-4.08v5.8a7.26,7.26,0,0,1-5.21,7,7.44,7.44,0,0,1,1.2-8.73ZM16.26,24.3h5.66l-4,4.1a7.08,7.08,0,0,1-8.57,1.21,7.2,7.2,0,0,1,6.9-5.31Z" style="fill:#48a64a"/></svg>