<svg xmlns="http://www.w3.org/2000/svg" viewBox="0 0 48 48"><title>amazon athena</title><polygon points="43.31 28.31 24.02 34.02 4.96 28.31 24.13 26.01 43.31 28.31" style="fill:#ffc296"/><polyline points="24 43.54 24 34.04 4.96 28.31 4.96 33.65 24 43.54" style="fill:#a25126"/><polyline points="24 43.54 43.42 34.02 43.31 28.31 24 34.04 24 43.54" style="fill:#fc8735"/><polygon points="40.7 5.22 40.7 25.91 43.06 25.34 42.95 6.45 40.7 5.22" style="fill:#fc8735"/><polygon points="40.7 5.22 40.7 25.91 38.17 25.91 38.06 5.86 40.7 5.22" style="fill:#a25126"/><polygon points="36.13 6.52 36.13 26.92 39.69 26.11 39.58 7.71 36.13 6.52" style="fill:#fc8735"/><polygon points="36.13 6.52 36.13 26.92 33.25 26.6 33.14 7.19 36.13 6.52" style="fill:#a25126"/><polygon points="29.86 12.12 29.86 28.33 26.98 27.9 26.87 12.49 29.86 12.12" style="fill:#a25126"/><polygon points="29.86 12.09 29.86 28.35 34.54 27.37 34.43 13.28 29.86 12.09" style="fill:#fc8735"/><polygon points="7.14 20.22 7.14 26.01 8.77 25.78 8.66 20.39 7.14 20.22" style="fill:#fc8735"/><polygon points="7.14 20.22 7.14 26.01 4.87 25.64 4.89 20.44 7.14 20.22" style="fill:#a25126"/><polygon points="11.97 13.24 11.97 27.08 14.97 26.87 14.97 13.62 11.97 13.24" style="fill:#fc8735"/><polygon points="11.97 13.24 11.97 27.08 8.69 26.45 8.72 14.11 11.97 13.24" style="fill:#a25126"/><polygon points="18.12 14.7 18.12 28.33 22.12 27.74 22.12 15.08 18.12 14.7" style="fill:#fc8735"/><polygon points="18.12 14.73 18.12 28.3 13.74 27.52 13.78 15.1 18.12 14.73" style="fill:#a25126"/><polygon points="24.19 6.1 24.19 29.63 27.29 29.02 27.18 7.2 24.19 6.1" style="fill:#fc8735"/><polygon points="24.19 6.07 24.19 29.63 21.2 28.88 21.09 7.03 24.19 6.07" style="fill:#a25126"/><line x1="24.19" y1="29.63" x2="4.87" y2="25.64" style="fill:none"/></svg>