<svg width="48" height="48" viewBox="0 0 48 48" fill="none" xmlns="http://www.w3.org/2000/svg">
<g clip-path="url(#clip0_1570_245)">
<path d="M16.2316 20.0868C16.2316 20.525 16.2789 20.8803 16.3618 21.1408C16.4566 21.4013 16.575 21.6855 16.7408 21.9934C16.8 22.0882 16.8237 22.1829 16.8237 22.2658C16.8237 22.3842 16.7526 22.5026 16.5987 22.621L15.8526 23.1184C15.7461 23.1895 15.6395 23.225 15.5447 23.225C15.4263 23.225 15.3079 23.1658 15.1895 23.0592C15.0237 22.8816 14.8816 22.6921 14.7632 22.5026C14.6447 22.3013 14.5263 22.0763 14.3961 21.8039C13.4724 22.8934 12.3118 23.4382 10.9145 23.4382C9.91974 23.4382 9.12632 23.1539 8.54605 22.5855C7.96579 22.0171 7.66974 21.2592 7.66974 20.3118C7.66974 19.3053 8.025 18.4882 8.74737 17.8724C9.46974 17.2566 10.4289 16.9487 11.6487 16.9487C12.0513 16.9487 12.4658 16.9842 12.9039 17.0434C13.3421 17.1026 13.7921 17.1974 14.2658 17.3039V16.4395C14.2658 15.5395 14.0763 14.9118 13.7092 14.5447C13.3303 14.1776 12.6908 14 11.7789 14C11.3645 14 10.9382 14.0474 10.5 14.1539C10.0618 14.2605 9.63553 14.3908 9.22105 14.5566C9.03158 14.6395 8.88948 14.6868 8.80658 14.7105C8.72369 14.7342 8.66448 14.746 8.61711 14.746C8.45132 14.746 8.36842 14.6276 8.36842 14.3789V13.7987C8.36842 13.6092 8.39211 13.4671 8.45132 13.3842C8.51053 13.3013 8.61711 13.2184 8.7829 13.1355C9.19737 12.9224 9.69474 12.7447 10.275 12.6026C10.8553 12.4487 11.4711 12.3776 12.1224 12.3776C13.5316 12.3776 14.5618 12.6974 15.225 13.3368C15.8763 13.9763 16.2079 14.9474 16.2079 16.25V20.0868H16.2316ZM11.4237 21.8868C11.8145 21.8868 12.2171 21.8158 12.6434 21.6737C13.0697 21.5316 13.4487 21.271 13.7684 20.9158C13.9579 20.6908 14.1 20.4421 14.1711 20.1579C14.2421 19.8737 14.2895 19.5303 14.2895 19.1276V18.6303C13.9461 18.5474 13.5789 18.4763 13.2 18.4289C12.8211 18.3816 12.4539 18.3579 12.0868 18.3579C11.2934 18.3579 10.7132 18.5118 10.3224 18.8316C9.93158 19.1513 9.74211 19.6013 9.74211 20.1934C9.74211 20.75 9.88421 21.1645 10.1803 21.4487C10.4645 21.7447 10.8789 21.8868 11.4237 21.8868ZM20.9329 23.1658C20.7197 23.1658 20.5776 23.1303 20.4829 23.0474C20.3882 22.9763 20.3053 22.8105 20.2342 22.5855L17.4513 13.4316C17.3803 13.1947 17.3447 13.0408 17.3447 12.9579C17.3447 12.7684 17.4395 12.6618 17.6289 12.6618H18.7895C19.0145 12.6618 19.1684 12.6974 19.2513 12.7803C19.3461 12.8513 19.4171 13.0171 19.4882 13.2421L21.4776 21.0816L23.325 13.2421C23.3842 13.0053 23.4553 12.8513 23.55 12.7803C23.6447 12.7092 23.8105 12.6618 24.0237 12.6618H24.9711C25.1961 12.6618 25.35 12.6974 25.4447 12.7803C25.5395 12.8513 25.6224 13.0171 25.6697 13.2421L27.5408 21.1763L29.5895 13.2421C29.6605 13.0053 29.7434 12.8513 29.8263 12.7803C29.9211 12.7092 30.075 12.6618 30.2882 12.6618H31.3895C31.5789 12.6618 31.6855 12.7566 31.6855 12.9579C31.6855 13.0171 31.6737 13.0763 31.6618 13.1474C31.65 13.2184 31.6263 13.3132 31.5789 13.4434L28.725 22.5974C28.6539 22.8342 28.5711 22.9882 28.4763 23.0592C28.3816 23.1303 28.2276 23.1776 28.0263 23.1776H27.0079C26.7829 23.1776 26.6289 23.1421 26.5342 23.0592C26.4395 22.9763 26.3566 22.8224 26.3092 22.5855L24.4737 14.9474L22.65 22.5737C22.5908 22.8105 22.5197 22.9645 22.425 23.0474C22.3303 23.1303 22.1645 23.1658 21.9513 23.1658H20.9329ZM36.15 23.4855C35.5342 23.4855 34.9184 23.4145 34.3263 23.2724C33.7342 23.1303 33.2724 22.9763 32.9645 22.7987C32.775 22.6921 32.6447 22.5737 32.5974 22.4671C32.55 22.3605 32.5263 22.2421 32.5263 22.1355V21.5316C32.5263 21.2829 32.6211 21.1645 32.7987 21.1645C32.8697 21.1645 32.9408 21.1763 33.0118 21.2C33.0829 21.2237 33.1895 21.271 33.3079 21.3184C33.7105 21.496 34.1487 21.6382 34.6105 21.7329C35.0842 21.8276 35.5461 21.875 36.0197 21.875C36.7658 21.875 37.3461 21.7447 37.7487 21.4842C38.1513 21.2237 38.3645 20.8447 38.3645 20.3592C38.3645 20.0276 38.2579 19.7553 38.0447 19.5303C37.8316 19.3053 37.4289 19.1039 36.8487 18.9145L35.1316 18.3816C34.2671 18.1092 33.6276 17.7066 33.2368 17.1737C32.8461 16.6526 32.6447 16.0724 32.6447 15.4566C32.6447 14.9592 32.7513 14.521 32.9645 14.1421C33.1776 13.7632 33.4618 13.4316 33.8171 13.171C34.1724 12.8987 34.575 12.6974 35.0487 12.5553C35.5224 12.4132 36.0197 12.3539 36.5408 12.3539C36.8013 12.3539 37.0737 12.3658 37.3342 12.4013C37.6066 12.4368 37.8553 12.4842 38.104 12.5316C38.3408 12.5908 38.5658 12.65 38.7789 12.721C38.9921 12.7921 39.1579 12.8632 39.2763 12.9342C39.4421 13.0289 39.5605 13.1237 39.6316 13.2303C39.7026 13.325 39.7382 13.4553 39.7382 13.621V14.1776C39.7382 14.4263 39.6434 14.5566 39.4658 14.5566C39.3711 14.5566 39.2171 14.5092 39.0158 14.4145C38.3408 14.1066 37.5829 13.9526 36.7421 13.9526C36.0671 13.9526 35.5342 14.0592 35.1671 14.2842C34.8 14.5092 34.6105 14.8526 34.6105 15.3382C34.6105 15.6697 34.7289 15.9539 34.9658 16.1789C35.2026 16.4039 35.6408 16.6289 36.2684 16.8303L37.95 17.3632C38.8026 17.6355 39.4184 18.0145 39.7855 18.5C40.1526 18.9855 40.3303 19.5421 40.3303 20.1579C40.3303 20.6671 40.2237 21.1289 40.0224 21.5316C39.8092 21.9342 39.525 22.2895 39.1579 22.5737C38.7908 22.8697 38.3526 23.0829 37.8434 23.2368C37.3105 23.4026 36.7539 23.4855 36.15 23.4855Z" fill="#252F3E"/>
<path fill-rule="evenodd" clip-rule="evenodd" d="M38.3882 29.2408C34.4921 32.1184 28.8316 33.646 23.9645 33.646C17.1434 33.646 10.9974 31.1237 6.35526 26.9316C5.98816 26.6 6.31974 26.15 6.7579 26.4105C11.7789 29.3237 17.9724 31.0881 24.379 31.0881C28.7013 31.0881 33.45 30.1881 37.8197 28.3408C38.4711 28.0447 39.0276 28.7671 38.3882 29.2408Z" fill="#FF9900"/>
<path fill-rule="evenodd" clip-rule="evenodd" d="M40.0105 27.3934C39.5132 26.7539 36.7184 27.0855 35.4513 27.2395C35.0724 27.2868 35.0132 26.9553 35.3566 26.7066C37.5829 25.1434 41.2421 25.5934 41.6684 26.1145C42.0947 26.6474 41.55 30.3066 39.4658 32.0592C39.1461 32.3316 38.8382 32.1895 38.9803 31.8342C39.4539 30.6618 40.5079 28.021 40.0105 27.3934Z" fill="#FF9900"/>
</g>
<defs>
<clipPath id="clip0_1570_245">
<rect width="35.7632" height="21.3158" fill="white" transform="translate(6.11842 12.3421)"/>
</clipPath>
</defs>
</svg>
