<svg xmlns="http://www.w3.org/2000/svg" viewBox="0 0 48 48"><title>amazonrds</title><polygon points="38.04 13.35 42.23 16.38 42.23 12.09 38.01 7.15 38.01 13.33 38.04 13.34 38.04 13.35" style="fill:#2d72b8"/><polygon points="29.95 43.73 38.01 39.7 38.01 7.14 29.94 3.12 29.95 43.73" style="fill:#5294cf"/><polygon points="18.47 43.73 10.41 39.7 10.41 7.14 18.48 3.12 18.47 43.73" style="fill:#205b98"/><rect x="18.48" y="3.12" width="11.46" height="40.61" style="fill:#2d72b8"/><polygon points="38.01 33.52 38.01 39.7 42.23 34.76 42.23 30.47 38.04 33.52 38.01 33.52" style="fill:#2d72b8"/><polygon points="38.01 30.91 38.04 30.91 42.23 28.65 42.23 24.34 38.01 24.72 38.01 30.91" style="fill:#2d72b8"/><polygon points="38.04 15.96 38.01 15.96 38.01 22.12 42.23 22.52 42.23 18.2 38.04 15.96" style="fill:#2d72b8"/><polyline points="6.19 34.76 10.41 39.7 10.41 33.52 18.48 36.02 24.21 36.02 29.94 36.02 38.03 33.52 42.23 30.49 40.98 30.35 40.98 29.32 38.03 30.91 29.94 32.77 29.94 32.77 24.21 32.77 18.48 32.77 18.48 32.77 10.39 30.91 10.37 30.88 10.41 30.9 10.41 24.72 18.48 25.05 18.48 25.05 24.21 25.05 29.94 25.05 29.94 25.05 38.01 24.72 42.23 24.35 40.98 24.34 40.98 22.53 42.23 22.52 38.01 22.12 29.94 21.8 24.21 21.8 18.48 21.8 10.41 22.12 10.41 15.97 10.4 15.97 10.41 15.96 18.48 14.09 24.21 14.09 29.94 14.09 38.01 15.96 40.98 17.53 40.98 16.52 42.23 16.38 38.01 13.33 29.94 10.83 24.21 10.83 18.48 10.83 10.41 13.33 10.41 7.15 6.19 12.09" style="fill:#1a476f"/><rect x="10.41" y="9.25" width="8.07" height="30.18" style="fill:#205b98"/><rect x="18.48" y="9.25" width="11.46" height="31.62" transform="translate(48.42 50.13) rotate(180)" style="fill:#2d72b8"/><polygon points="38 39.18 29.94 40.87 29.94 9.25 38 9.25 38 39.18" style="fill:#5294cf"/><polygon points="42.23 33.63 38 39.44 38 12.12 42.23 12.81 42.23 33.63" style="fill:#2d72b8"/></svg>