<svg id="79733395-15b5-479d-a040-60889526b1d5" data-name="CURRENT" xmlns="http://www.w3.org/2000/svg" xmlns:xlink="http://www.w3.org/1999/xlink" viewBox="0 0 48 48"><defs><linearGradient id="d15351d6-5b0f-4237-bf8d-b9ce30524cc3" x1="9.15" y1="21.9" x2="32.86" y2="24.38" gradientUnits="userSpaceOnUse"><stop offset="0" stop-color="#f49030"/><stop offset="1" stop-color="#ea212c"/></linearGradient><radialGradient id="8e547b55-a569-406b-9cb0-152dc3b2dcc6" cx="24.22" cy="16.02" r="21.66" gradientUnits="userSpaceOnUse"><stop offset="0" stop-color="#ea212c"/><stop offset="0.85" stop-color="#f49030"/></radialGradient><linearGradient id="264476bf-54f2-4714-89e3-1838c56e704b" x1="26.8" y1="19.5" x2="32.6" y2="28" gradientUnits="userSpaceOnUse"><stop offset="0" stop-color="#ea212c"/><stop offset="1" stop-color="#f49030"/></linearGradient><linearGradient id="437a9a22-7695-410c-8bd7-9ec3858c4204" x1="20.48" y1="26.32" x2="30.64" y2="26.32" xlink:href="#8e547b55-a569-406b-9cb0-152dc3b2dcc6"/></defs><title>apachephoenix</title><path d="M38,1.46C36.9,3.86,35.68,6,35.2,8.68a21,21,0,0,0,.61,9.77c1.94,6.28,4.58,13,1.74,19.49a15,15,0,0,1-8,8,15.34,15.34,0,0,1-10.1.2C11.9,43.86,7,35.72,9,28.08c.82-3.17,3.2-5.65,4.66-8.51a4.17,4.17,0,0,0-.74-4.71c-1.32-1.42-2.75-.84-4.25,0a4.1,4.1,0,0,1,3.56-2,3.94,3.94,0,0,1,4.17-2A7.26,7.26,0,0,1,18.64,12a4.6,4.6,0,0,0,3.25.06,1.66,1.66,0,0,1-1,1.64c.08.38.79.17.79.17a1.59,1.59,0,0,1-2,.9c-.15,2.15-1.28,4.5-2.12,6.46-1.08,2.54-2.53,4.92-3,7.7A10.85,10.85,0,0,0,16,36.5a11.1,11.1,0,0,0,8.4,4.78c5.39.34,9.12-4.53,9.12-9.63A24.31,24.31,0,0,0,32.76,25c-.52-1.79-1.28-3.51-1.77-5.33-.93-3.42-1.56-7-.26-10.42A14,14,0,0,1,38,1.46Z" style="fill:url(#d15351d6-5b0f-4237-bf8d-b9ce30524cc3)"/><path d="M30.64,3.66C27,7.91,24.11,13.2,26.48,18.82a31.93,31.93,0,0,0,2.46,3.93,18.23,18.23,0,0,1,1.94,5.15,33,33,0,0,1,.55,7,23.47,23.47,0,0,0,.73-7.51C32,24,30.6,21.08,29.38,17.94,27.64,13.5,29.31,8,30.64,3.66Z" style="fill:url(#8e547b55-a569-406b-9cb0-152dc3b2dcc6)"/><path d="M25.61,7.55c-2.37,3.88-4.41,8.85-3,13.42.85,2.75,3.1,4.46,4.71,6.71a20.27,20.27,0,0,1,3.6,8c.59-5.3-2-10.26-4.58-14.69A14.31,14.31,0,0,1,25.61,7.55Z" style="fill:url(#264476bf-54f2-4714-89e3-1838c56e704b)"/><path d="M20.87,16.53A13.18,13.18,0,0,0,20.51,21a14.78,14.78,0,0,0,.88,5.72c.79,1.78,2.77,2.78,4.28,3.87a16.54,16.54,0,0,1,5,5.52c-.62-3.49-2.9-6.67-5.25-9.19-1.36-1.45-2.86-2.8-3.6-4.69A17.77,17.77,0,0,1,20.87,16.53Z" style="fill:url(#437a9a22-7695-410c-8bd7-9ec3858c4204)"/></svg>