<svg id="10464b2c-a2e1-4292-b9cc-10f04ba2bcf2" data-name="Icons" xmlns="http://www.w3.org/2000/svg" xmlns:xlink="http://www.w3.org/1999/xlink" viewBox="0 0 108 72">
  <defs>
    <style>
      .a1a5bcaf-fbfb-45b9-ba0d-959663350469 {
        fill: #717073;
      }

      .\30 5942df1-efee-40b7-8b05-93c3df1f0311 {
        fill: #00467f;
      }

      .a1114269-f521-431a-acc8-841b2b77304d {
        fill: url(#1fd66cce-8514-4285-a613-0cc14220cb4c);
      }
    </style>
    <linearGradient id="1fd66cce-8514-4285-a613-0cc14220cb4c" x1="15.85" y1="37.42" x2="25.59" y2="33.58" gradientUnits="userSpaceOnUse">
      <stop offset="0" stop-color="#c2c2c4"/>
      <stop offset="1" stop-color="#717073"/>
    </linearGradient>
  </defs>
  <title>apachedrill</title>
  <g>
    <path class="a1a5bcaf-fbfb-45b9-ba0d-959663350469" d="M39.16,28.9H37.77l-.88-1.71H31.74l-.88,1.71H29.48l4-7.64h1.59Zm-2.89-2.85-1.94-3.7-2,3.7Z"/>
    <path class="a1a5bcaf-fbfb-45b9-ba0d-959663350469" d="M46.65,21.26a2.62,2.62,0,0,1,1.86.65,2.3,2.3,0,0,1,.68,1.74,2.16,2.16,0,0,1-.71,1.74,3.14,3.14,0,0,1-2.07.6H41.86V28.9H40.59V21.26Zm-.22,3.59c1,0,1.46-.39,1.46-1.18s-.51-1.27-1.55-1.27H41.86v2.45Z"/>
    <path class="a1a5bcaf-fbfb-45b9-ba0d-959663350469" d="M58.57,28.9H57.19l-.88-1.71H51.16l-.88,1.71H48.9l4-7.64h1.59Zm-2.88-2.85-1.94-3.7-2,3.7Z"/>
    <path class="a1a5bcaf-fbfb-45b9-ba0d-959663350469" d="M68.3,23l-1.15.42a4.24,4.24,0,0,0-3.26-1.24,4,4,0,0,0-2.58.81,2.7,2.7,0,0,0,0,4.17,4.79,4.79,0,0,0,5.86-.46l1.08.6a5,5,0,0,1-1.86,1.39,6.62,6.62,0,0,1-2.49.42,5.37,5.37,0,0,1-3.36-1,3.75,3.75,0,0,1,0-6.06,5.37,5.37,0,0,1,3.34-1A5.25,5.25,0,0,1,68.3,23Z"/>
    <path class="a1a5bcaf-fbfb-45b9-ba0d-959663350469" d="M78.86,28.9H77.59V25.51H71.47V28.9H70.21V21.26h1.26v3.11h6.12V21.26h1.27Z"/>
    <path class="a1a5bcaf-fbfb-45b9-ba0d-959663350469" d="M89,28.9H81V21.26H88.7V22.4H82.26v2h4.47v1.14H82.26v2.25H89Z"/>
  </g>
  <g>
    <path class="05942df1-efee-40b7-8b05-93c3df1f0311" d="M42.11,32.14A7,7,0,0,1,47,33.78a5.67,5.67,0,0,1,1.81,4.41,5.4,5.4,0,0,1-1.91,4.22A6.44,6.44,0,0,1,42.49,44H34.62V32.14Zm.54,10.08a3.89,3.89,0,0,0,4-4.08,4.06,4.06,0,0,0-1.21-3.07,4.48,4.48,0,0,0-3.2-1.16h-5.7v8.31Z"/>
    <path class="05942df1-efee-40b7-8b05-93c3df1f0311" d="M65.15,44H62.87l-3.21-4.52h-6V44h-2V32.14h9.34a4.06,4.06,0,0,1,2.93,1,3.55,3.55,0,0,1,1.06,2.72,3.41,3.41,0,0,1-.86,2.42A3.77,3.77,0,0,1,62,39.37ZM60.77,37.7c1.51,0,2.27-.61,2.27-1.83s-.82-2-2.45-2H53.68V37.7Z"/>
    <path class="05942df1-efee-40b7-8b05-93c3df1f0311" d="M70.17,44h-2V32.14h2Z"/>
    <path class="05942df1-efee-40b7-8b05-93c3df1f0311" d="M85.24,44H74.13V32.14h2V42.22h9.14Z"/>
    <path class="05942df1-efee-40b7-8b05-93c3df1f0311" d="M98.66,44H87.55V32.14h2V42.22h9.15Z"/>
  </g>
  <polygon class="a1114269-f521-431a-acc8-841b2b77304d" points="8.02 16.88 9.02 19.31 12.95 16.73 9.72 21.03 9.72 21.03 8.85 24.52 11.17 24.59 11.74 25.98 15.67 23.4 12.45 27.7 12.45 27.7 11.52 31.04 13.84 31.11 14.38 32.42 18.27 29.86 15.13 34.26 15.13 34.26 14.18 37.56 16.51 37.63 17.08 39.02 21.09 36.38 21.11 36.42 17.91 40.72 17.42 43.6 20.07 43.63 20.97 44.85 23.15 43.42 21.98 46.34 21.44 48.93 23.94 48.88 24.66 49.86 26.35 48.76 25.41 50.87 29.15 55.94 28.65 52.38 29.56 49.99 28.31 49.95 27.67 45.37 28.96 41.6 27.14 41.55 26.54 37.23 27.39 34.02 25.35 33.95 24.05 30.77 24.97 27.4 22.64 27.33 21.42 24.34 22.3 20.88 19.97 20.81 18.74 17.8 19.63 14.36 17.3 14.29 16.88 13.25 8.02 16.88"/>
</svg>
