<svg id="eb2b7236-3a5c-4589-9793-bd5d7060ccea"   xmlns="http://www.w3.org/2000/svg" viewBox="0 0 48 48">
  <defs>
    <style>
      .\32 de2d128-ad9d-4feb-be48-eac704af3880 {
        fill: #ba160c;
      }

      .\30 5f0ee06-0a7c-4fac-9962-8623f222b33d {
        fill: #666;
      }
    </style>
  </defs>
  <title>apache hbase</title>
  <g>
    <polyline class="2de2d128-ad9d-4feb-be48-eac704af3880" points="35.78 10.16 35.79 19.2 35.78 19.2 13.29 19.2 13.29 10.16 6.41 10.16 6.41 33.8 13.29 33.8 13.29 24.71 35.78 24.71 35.78 33.8 39.28 33.8 39.28 33.8 39.28 33.8 42.78 33.8 42.78 19.2 42.75 19.13 42.78 10.16"/>
    <path class="2de2d128-ad9d-4feb-be48-eac704af3880" d="M14.6,38.44h0a1.88,1.88,0,0,0,.74-1.58,2,2,0,0,0-.5-1.38,2,2,0,0,0-1.52-.62H11v1.69h2.36c.24,0,.36.18.36.55s-.12.55-.36.55H8.12v-1.1H11V34.86H6.43v2.79h0v4.46h7a1.93,1.93,0,0,0,2-2A1.82,1.82,0,0,0,14.6,38.44Zm-1.16,2H8.11v-1.1h5.33c.25,0,.37.18.37.55S13.69,40.42,13.44,40.42Z"/>
    <path class="2de2d128-ad9d-4feb-be48-eac704af3880" d="M24.46,35.52A1.86,1.86,0,0,0,23,34.86H18.2a1.85,1.85,0,0,0-1.47.66,2.36,2.36,0,0,0-.57,1.58v5h1.69V39.8h5.49v2.31H25v-5A2.36,2.36,0,0,0,24.46,35.52Zm-1.12,2.59H17.85v-1c0-.37.11-.55.35-.55H23c.24,0,.36.18.36.55Z"/>
    <path id="4da60085-b338-4eb7-8f68-39b0a63c480e" data-name="path3685" class="2de2d128-ad9d-4feb-be48-eac704af3880" d="M34.39,39.87a2.35,2.35,0,0,1-.54,1.56,1.93,1.93,0,0,1-1.5.68H26.11V40.42h6.24c.24,0,.36-.19.36-.55s-.12-.55-.36-.55H27.81a1.9,1.9,0,0,1-1.49-.67,2.29,2.29,0,0,1-.56-1.55,2.32,2.32,0,0,1,.58-1.58,1.85,1.85,0,0,1,1.47-.66h6.25v1.69H27.81c-.23,0-.35.18-.35.55s.12.53.35.53h4.54a1.93,1.93,0,0,1,1.5.68,2.35,2.35,0,0,1,.54,1.56Z"/>
    <polygon id="7b4d814c-6257-4b3d-9161-9759eff13c27" data-name="polygon3687" class="2de2d128-ad9d-4feb-be48-eac704af3880" points="42.42 39.32 36.78 39.32 36.78 40.42 42.8 40.42 42.8 42.1 35.1 42.1 35.1 34.86 42.82 34.86 42.82 36.55 36.78 36.55 36.78 37.63 42.42 37.63 42.42 39.32"/>
    <g>
      <path class="05f0ee06-0a7c-4fac-9962-8623f222b33d" d="M23.78,5.75a.8.8,0,0,0-.68-.36H20.88a.82.82,0,0,0-.68.36,1.46,1.46,0,0,0-.26.86V9.35h.78V8.08h2.55V9.35h.78V6.61A1.4,1.4,0,0,0,23.78,5.75Zm-.51,1.41H20.72V6.61c0-.2.06-.3.16-.3H23.1c.11,0,.17.1.17.3Z"/>
      <polygon class="05f0ee06-0a7c-4fac-9962-8623f222b33d" points="42.74 6.3 42.74 5.38 39.03 5.38 39.03 9.35 42.73 9.35 42.73 8.42 39.95 8.42 39.95 7.82 42.53 7.82 42.53 6.89 39.95 6.89 39.95 6.3 42.74 6.3"/>
      <polygon class="05f0ee06-0a7c-4fac-9962-8623f222b33d" points="35.73 6.91 33.63 6.91 33.63 5.39 32.8 5.39 32.8 9.35 33.63 9.35 33.63 7.73 35.73 7.73 35.73 9.35 36.56 9.35 36.56 5.39 35.73 5.39 35.73 6.91"/>
      <path class="05f0ee06-0a7c-4fac-9962-8623f222b33d" d="M10.35,5.75a.83.83,0,0,0-.69-.36H7.45a.8.8,0,0,0-.68.36,1.4,1.4,0,0,0-.27.86V9.35h.79V8.08H9.83V9.35h.78V6.61A1.46,1.46,0,0,0,10.35,5.75ZM9.83,7.16H7.29V6.61c0-.2,0-.3.16-.3H9.66c.11,0,.17.1.17.3Z"/>
      <path class="05f0ee06-0a7c-4fac-9962-8623f222b33d" d="M27,5.74a1.2,1.2,0,0,0-.38.9V8.09A1.2,1.2,0,0,0,27,9a1.28,1.28,0,0,0,.92.36h2.54V8.42H27.92c-.25,0-.37-.11-.37-.33V6.64c0-.22.12-.33.37-.33h2.54V5.38H27.92A1.28,1.28,0,0,0,27,5.74Z"/>
      <path class="05f0ee06-0a7c-4fac-9962-8623f222b33d" d="M16.37,5.38H13.06v4H14V8.05h2.39a1,1,0,0,0,.83-.42,1.46,1.46,0,0,0,.29-.91,1.48,1.48,0,0,0-.29-.91A1,1,0,0,0,16.37,5.38Zm0,1.75H14V6.31h2.39c.13,0,.2.14.2.41S16.5,7.13,16.37,7.13Z"/>
    </g>
  </g>
</svg>
