<svg xmlns="http://www.w3.org/2000/svg" viewBox="0 0 48 48"><title>api</title><g id="Warstwa_1" data-name="Warstwa 1"><path d="M31.34,25.39l.59-.05a8.1,8.1,0,0,0,.13-1.4A7.88,7.88,0,0,0,32,22.85l-.53,0A1.22,1.22,0,0,1,30.4,22a6.67,6.67,0,0,0-.29-.74A1.22,1.22,0,0,1,30.29,20l.38-.45A7.9,7.9,0,0,0,29,17.72l-.41.35a1.2,1.2,0,0,1-1.32.15,6.73,6.73,0,0,0-.73-.32,1.17,1.17,0,0,1-.77-1l0-.58a8.1,8.1,0,0,0-1.4-.13,7.88,7.88,0,0,0-1.09.08l0,.53a1.23,1.23,0,0,1-.83,1.05,6.61,6.61,0,0,0-.74.28,1.2,1.2,0,0,1-1.28-.18l-.45-.38a7.94,7.94,0,0,0-1.79,1.73l.35.4A1.22,1.22,0,0,1,18.55,21a6.73,6.73,0,0,0-.32.73,1.2,1.2,0,0,1-1,.77l-.58.05A7.54,7.54,0,0,0,16.57,25l.53,0a1.22,1.22,0,0,1,1,.83,6.61,6.61,0,0,0,.28.74,1.18,1.18,0,0,1-.18,1.27l-.38.45a8,8,0,0,0,1.73,1.8l.41-.35a1.18,1.18,0,0,1,1.32-.15,6.66,6.66,0,0,0,.73.31,1.21,1.21,0,0,1,.77,1l.05.59a7.54,7.54,0,0,0,2.49,0l0-.53a1.21,1.21,0,0,1,.83-1.05,6.67,6.67,0,0,0,.74-.29,1.2,1.2,0,0,1,1.27.18l.45.38a7.94,7.94,0,0,0,1.8-1.72l-.35-.41A1.18,1.18,0,0,1,30,26.89a6.66,6.66,0,0,0,.31-.73A1.18,1.18,0,0,1,31.34,25.39Z" style="fill:#009ada"/><circle cx="24.17" cy="23.84" r="3.27" style="fill:#fff"/><circle cx="8.49" cy="36.68" r="2.51" style="fill:#fff;stroke:#b2bfcf;stroke-miterlimit:10;stroke-width:0.8027571651935579px"/><circle cx="24.18" cy="23.84" r="10.67" style="fill:none;stroke:#00a0ff;stroke-linecap:round;stroke-miterlimit:10;stroke-width:0.8027571651935579px;stroke-dasharray:5.58644962310791,5.58644962310791"/><line x1="6.9" y1="24.01" x2="10.17" y2="24.01" style="fill:none;stroke:#b2bfcf;stroke-linecap:round;stroke-miterlimit:10;stroke-width:0.8027571651935579px"/><path d="M10.53,35.23l2.2-1.72a1,1,0,0,0,.18-1.35,14,14,0,0,1-.16-16.42,1,1,0,0,0-.17-1.32l-2-1.69" style="fill:none;stroke:#b2bfcf;stroke-linecap:round;stroke-miterlimit:10;stroke-width:0.8027571651935579px"/><circle cx="39.86" cy="11.32" r="2.51" style="fill:#fff;stroke:#b2bfcf;stroke-miterlimit:10;stroke-width:0.8027571651935579px"/><circle cx="39.86" cy="36.67" r="2.51" style="fill:#fff;stroke:#b2bfcf;stroke-miterlimit:10;stroke-width:0.8027571651935579px"/><circle cx="43.95" cy="23.99" r="2.51" style="fill:#fff;stroke:#b2bfcf;stroke-miterlimit:10;stroke-width:0.8027571651935579px"/><circle cx="8.14" cy="11.32" r="2.51" style="fill:#fff;stroke:#b2bfcf;stroke-miterlimit:10;stroke-width:0.8027571651935579px"/><circle cx="4.05" cy="23.99" r="2.51" style="fill:#fff;stroke:#b2bfcf;stroke-miterlimit:10;stroke-width:0.8027571651935579px"/><line x1="41.45" y1="23.99" x2="38.17" y2="23.99" style="fill:none;stroke:#b2bfcf;stroke-linecap:round;stroke-miterlimit:10;stroke-width:0.8027571651935579px"/><path d="M37.82,35.21l-2.2-1.71a1,1,0,0,1-.19-1.36,14,14,0,0,0,.17-16.41,1,1,0,0,1,.17-1.32l2-1.69" style="fill:none;stroke:#b2bfcf;stroke-linecap:round;stroke-miterlimit:10;stroke-width:0.8027571651935579px"/></g></svg>