<svg xmlns="http://www.w3.org/2000/svg" viewBox="0 0 108 72">
  <defs>
    <style>
      .\34 9b820de-4157-4058-b878-dd0aa57ebb91 {
        fill: #231f20;
      }
    </style>
  </defs>
  <title>autopilot</title>
  <g id="598c5742-33dd-4756-8910-8c805fa5774d" data-name="NEED VECTOR">
    <g>
      <path class="49b820de-4157-4058-b878-dd0aa57ebb91" d="M93.51,29.37V39.93h2.62V32.44H98V30.19H96.13V27.57m-3.74,7.49a5,5,0,0,1-5.1,5.24,4.89,4.89,0,0,1-5-5.24,5.06,5.06,0,1,1,10.11,0Zm-7.49,0c0,1.8,1,2.84,2.39,2.84s2.47-1,2.47-2.84-1-2.85-2.39-2.85S84.9,33.26,84.9,35.06Zm-3.37-8.24-2.62,1.8V39.93h2.62M76.14,29.44a1.65,1.65,0,1,1,0-3.29,1.6,1.6,0,0,1,1.65,1.57A1.73,1.73,0,0,1,76.14,29.44ZM74.79,39.93V30.19h2.62v9.74Zm-10.1-9.21V44l2.62-1.79V40.08a4.76,4.76,0,0,0,1.19.15c3.45,0,5.54-2,5.54-5.4,0-3.06-2.32-5-5.54-5A10.07,10.07,0,0,0,64.69,30.72Zm2.62,7v-5a3.6,3.6,0,0,1,1.19-.3c1.65,0,2.92.83,2.92,2.55a2.84,2.84,0,0,1-3.07,3A3.08,3.08,0,0,1,67.31,37.68Zm-3-2.62a5.09,5.09,0,1,1-10.18,0,5.09,5.09,0,1,1,10.18,0Zm-7.49,0c0,1.8,1,2.84,2.4,2.84s2.4-1,2.4-2.84-1-2.85-2.4-2.85S56.82,33.26,56.82,35.06Zm-7.11-5.69V39.93h2.62V32.44H54.2V30.19H52.33V27.57M48.59,39.7a17.5,17.5,0,0,1-4,.6c-2.85,0-4.57-.9-4.57-3.82V30.19H42.6v6c0,1.28.6,1.87,1.95,1.87A10.76,10.76,0,0,0,46,37.9V30.19h2.62ZM36.16,33.56c0-1-.75-1.42-1.72-1.42a5.34,5.34,0,0,0-2.85.82V30.72a7.47,7.47,0,0,1,3.37-.9c2.25,0,3.9.9,3.9,3.59v6.37a23.89,23.89,0,0,1-3.75.52c-2.54,0-4.49-.9-4.49-3.14,0-2,1.65-3,4.49-3l1,.08Zm0,2.32-.82-.07c-1.27,0-2,.37-2,1.2s.75,1.19,1.79,1.19a5.41,5.41,0,0,0,1-.15Z"/>
      <polygon class="49b820de-4157-4058-b878-dd0aa57ebb91" points="23.31 34.69 13.75 34.69 12.2 32.28 24.86 32.28 23.31 34.69"/>
      <polygon class="49b820de-4157-4058-b878-dd0aa57ebb91" points="21.69 38.64 15.33 38.64 13.78 36.24 23.24 36.24 21.69 38.64"/>
    </g>
  </g>
</svg>
