<svg id="Layer_1" data-name="Layer 1" xmlns="http://www.w3.org/2000/svg" viewBox="0 0 48 48">
  <title>aweber</title>
  <path d="M26.3,6.65a2.81,2.81,0,0,0-2.1,1,34.15,34.15,0,0,0-6.7,15.4,36.93,36.93,0,0,0,1.1,16.3c.3,1.1.9,2,5.4,2h0c12.2,0,17.7-4.8,17.7-17.3h0c0-12.3-5.2-17.4-15.4-17.4M26,39.75a1.46,1.46,0,0,1-2-.6h0a23.14,23.14,0,0,1-2.3-15.3,24.11,24.11,0,0,1,7.6-13.6h0a1.54,1.54,0,0,1,2.1.1,1.45,1.45,0,0,1-.1,2.1h0a20.2,20.2,0,0,0-6.6,11.9,21.14,21.14,0,0,0,2,13.4h0v.1a1.54,1.54,0,0,1-.7,1.9m9.2-22.2h0a13.07,13.07,0,0,0-4.9,7.7,12.25,12.25,0,0,0,1.6,8.8h0v.1a.8.8,0,0,1-.4,1.2,1.11,1.11,0,0,1-1.4-.4h0a13.63,13.63,0,0,1-1.8-9.9,15.31,15.31,0,0,1,5.5-8.8h0l.1-.1a1.06,1.06,0,0,1,1.4.1.85.85,0,0,1-.1,1.3M11.7,37.15a.67.67,0,0,1-1.1.6c-2.7-2.4-4.3-5.5-4.3-13.8h0c0-10.7,4.2-15.3,9.9-16.8a.6.6,0,0,1,.7.9,41,41,0,0,0-5.3,14A42.55,42.55,0,0,0,11.7,37.15Z" style="fill: #0069eb"/>
</svg>
