<svg xmlns="http://www.w3.org/2000/svg" viewBox="0 0 48 48"><title>azure data management</title><g style="opacity:0.33"><path d="M23.33,32.68V30.57a9,9,0,0,1-3.79-1L20.21,27a7.88,7.88,0,0,0,3.7,1c1.27,0,2.14-.49,2.14-1.38s-.71-1.39-2.36-1.94c-2.39-.81-4-1.92-4-4.08,0-2,1.38-3.5,3.77-4V14.49h2.19v2a8,8,0,0,1,3.23.74l-.65,2.52A7.3,7.3,0,0,0,25,19c-1.45,0-1.92.62-1.92,1.25s.78,1.2,2.68,1.91c2.65.94,3.72,2.17,3.72,4.17s-1.4,3.68-4,4.13v2.27Z" style="fill:#00bcf2"/></g><path d="M24.51,10.84A12.75,12.75,0,1,1,11.76,23.59,12.76,12.76,0,0,1,24.51,10.84m0-6.41A19.16,19.16,0,1,0,43.67,23.59,19.16,19.16,0,0,0,24.51,4.43Z" style="fill:#00bcf2;opacity:0.33"/><path d="M24.51,36.34A12.75,12.75,0,1,1,37.25,23l6.39-.31a19.14,19.14,0,1,0-5.58,14.45L33.52,32.6A12.7,12.7,0,0,1,24.51,36.34Z" style="fill:#00bcf2;opacity:0.33"/><path d="M33.52,32.6a12.75,12.75,0,1,1-9-21.76V4.43a19.16,19.16,0,1,0,13.55,32.7Z" style="fill:#00bcf2;opacity:0.33"/><g style="opacity:0.33"><path d="M23.33,32.68V30.57a9,9,0,0,1-3.79-1L20.21,27a7.88,7.88,0,0,0,3.7,1c1.27,0,2.14-.49,2.14-1.38s-.71-1.39-2.36-1.94c-2.39-.81-4-1.92-4-4.08,0-2,1.38-3.5,3.77-4V14.49h2.19v2a8,8,0,0,1,3.23.74l-.65,2.52A7.3,7.3,0,0,0,25,19c-1.45,0-1.92.62-1.92,1.25s.78,1.2,2.68,1.91c2.65.94,3.72,2.17,3.72,4.17s-1.4,3.68-4,4.13v2.27Z" style="fill:#00bcf2"/></g><g style="opacity:0.33"><path d="M23.33,32.68V30.57a9,9,0,0,1-3.79-1L20.21,27a7.88,7.88,0,0,0,3.7,1c1.27,0,2.14-.49,2.14-1.38s-.71-1.39-2.36-1.94c-2.39-.81-4-1.92-4-4.08,0-2,1.38-3.5,3.77-4V14.49h2.19v2a8,8,0,0,1,3.23.74l-.65,2.52A7.3,7.3,0,0,0,25,19c-1.45,0-1.92.62-1.92,1.25s.78,1.2,2.68,1.91c2.65.94,3.72,2.17,3.72,4.17s-1.4,3.68-4,4.13v2.27Z" style="fill:#00bcf2"/></g><g style="opacity:0.33"><path d="M23.33,32.68V30.57a9,9,0,0,1-3.79-1L20.21,27a7.88,7.88,0,0,0,3.7,1c1.27,0,2.14-.49,2.14-1.38s-.71-1.39-2.36-1.94c-2.39-.81-4-1.92-4-4.08,0-2,1.38-3.5,3.77-4V14.49h2.19v2a8,8,0,0,1,3.23.74l-.65,2.52A7.3,7.3,0,0,0,25,19c-1.45,0-1.92.62-1.92,1.25s.78,1.2,2.68,1.91c2.65.94,3.72,2.17,3.72,4.17s-1.4,3.68-4,4.13v2.27Z" style="fill:#00bcf2"/></g></svg>