<svg xmlns="http://www.w3.org/2000/svg" viewBox="0 0 48 48"><defs><style>.cls-1{fill:#0072c6;}.cls-2{fill:#b3bcc5;}.cls-3{fill:#e5e5e5;}.cls-4{fill:#3999c6;}.cls-5{fill:#59b4d9;}.cls-6{fill:#fff;}.cls-7{fill:#b8d432;}.cls-8{fill:#7fba00;}.cls-9{fill:#a0a1a2;}</style></defs><title>icon-</title><g id="azuredatacatalog"><path class="cls-1" d="M10.07,9.32h21a0,0,0,0,1,0,0V33.69a0,0,0,0,1,0,0H11.53a1.46,1.46,0,0,1-1.46-1.46V9.32A0,0,0,0,1,10.07,9.32Z"/><path class="cls-1" d="M10.41,8.22l1.14-1.14a1.19,1.19,0,0,1,.82-.34H33.84V31.11H10.07V9A1.19,1.19,0,0,1,10.41,8.22Z"/><polyline class="cls-2" points="31.11 9.34 31.11 25.97 32.78 25.97 32.78 7.8"/><path class="cls-3" d="M32.78,7.8H12.71a.88.88,0,0,0-.62.26l-.64.63a.37.37,0,0,0,.26.63l19.4,0Z"/><path class="cls-4" d="M31.67,33h0V21.76H23.37V38.39h0v.07h0c.05,1.54,3.72,2.79,8.24,2.79v-2.8"/><path class="cls-5" d="M31.63,21.76V33h0v5.44h0v2.8c4.64,0,8.58-1.25,8.63-2.79V21.76Z"/><ellipse class="cls-6" cx="31.95" cy="22.03" rx="8.55" ry="3.03"/><ellipse class="cls-7" cx="32.1" cy="21.91" rx="6.86" ry="2.08"/><path class="cls-8" d="M26.81,23.2A15.6,15.6,0,0,0,32.1,24a15.52,15.52,0,0,0,5.29-.79,15.14,15.14,0,0,0-5.29-.81A15.22,15.22,0,0,0,26.81,23.2Z"/><rect class="cls-9" x="7.5" y="13.1" width="5.15" height="1.97" rx="0.98" ry="0.98"/><rect class="cls-9" x="7.5" y="20.22" width="5.15" height="1.97" rx="0.98" ry="0.98"/><rect class="cls-9" x="7.5" y="27.33" width="5.15" height="1.97" rx="0.98" ry="0.98"/></g></svg>