<svg xmlns="http://www.w3.org/2000/svg" viewBox="0 0 48 48"><title>azureeventhub</title><path d="M37.9,9.87H10.35c0,.15,0,.28,0,.41v2.88a.6.6,0,0,1-.63.67H5.61A.6.6,0,0,1,5,13.19V5.25a.62.62,0,0,1,.65-.66H42.36c.69,0,.81.11.81.81V13c0,.61-.21.81-.82.81H38.66a.68.68,0,0,1-.76-.75Z" style="fill:#0078d7"/><path d="M38,38.78c0-1,0-2,0-3,0-.56.25-.91.88-.89,1.22.05,2.43,0,3.65,0a.69.69,0,0,1,.73.71c0,2.61,0,5.21,0,7.82,0,.46-.25.51-.73.63-.1,0-24.37,0-36.4,0-.68,0-1.09-.22-1.07-1.07,0-2.43,0-4.86,0-7.3,0-.56.25-.92.88-.89,1.19,0,2.38,0,3.57,0,.62,0,.82.2.82.8v3.15Z" style="fill:#0078d7"/><path d="M16.16,13.67c.81,0,1.62,0,2.43,0s1,.26,1,1c0,1.17,0,2.33,0,3.49,0,.8-.3.93-.89.94-1.64,0-3.29,0-4.94,0a.75.75,0,0,1-.83-.83c0-1.27,0-2.54,0-3.8a.75.75,0,0,1,.82-.8Z" style="fill:#0078d7"/><path d="M34.67,26.89h-2.6a.6.6,0,0,1-.65-.6c0-1.33,0-2.67,0-4,0-.29.37-.58.75-.58,1.66,0,3.32,0,5,0,.59,0,.83.29.83.89V26c0,.74-.19.93-.92.93Z" style="fill:#0078d7"/><path d="M16.21,34.75H13.66a.64.64,0,0,1-.73-.73c0-1.24,0-2.48,0-3.73a.63.63,0,0,1,.7-.72h5.15c.42,0,.7.31.71.85,0,1.16,0,2.32,0,3.48,0,.53-.2.91-.92.87S17,34.75,16.21,34.75Z" style="fill:#0078d7"/><path d="M25.51,17.89h2.55c.46,0,.67.22.68.69,0,1.22,0,2.45,0,3.68a.78.78,0,0,1-.79.81H23a.81.81,0,0,1-.85-.89c0-1.16,0-2.32,0-3.48,0-.73.29-.83.82-.82C23.83,17.9,24.67,17.89,25.51,17.89Z" style="fill:#0078d7"/><path d="M16.14,26.89H13.58a.59.59,0,0,1-.65-.67q0-1.84,0-3.69c0-.55.23-.82.77-.83h4.94a.8.8,0,0,1,.85.85q0,1.78,0,3.57c0,.54-.29.77-.84.77Z" style="fill:#0078d7"/><path d="M25.51,30.86c-.84,0-1.68,0-2.52,0a.71.71,0,0,1-.81-.79c0-1.18,0-2.36,0-3.53a.82.82,0,0,1,.91-.88c1.6,0,3.21,0,4.82,0,.47,0,.87.22.85.85,0,1.22,0,2.43,0,3.65,0,.47-.22.69-.68.69Z" style="fill:#0078d7"/></svg>