<svg id="Layer_1" data-name="Layer 1" xmlns="http://www.w3.org/2000/svg" viewBox="0 0 48 48"><defs><style>.cls-1{fill:#73c41d;}</style></defs><title>bamboohr</title><path class="cls-1" d="M31.78,18.33a9.1,9.1,0,0,0-7,2.59l-.38.39V9.18H21.28V29C21.28,35.14,26,39,31.46,39a10.31,10.31,0,1,0,.32-20.62ZM31.46,36.1a7.24,7.24,0,0,1-7.31-7.25,7.32,7.32,0,1,1,14.63-.07A7,7,0,0,1,31.46,36.1Z"/><path class="cls-1" d="M15,11.58c2.35,2.46,2.6,3.84,3.43,6.23l1.4,4.55s-1.38-.26-2.51-.43a12.88,12.88,0,0,1-3.56-1.07c-1.66-.67-3.17-2.32-4.65-4.16A48,48,0,0,0,4.14,12a13.79,13.79,0,0,1,2.15.34,29.12,29.12,0,0,1,5.57,2.19c.53.27.83.45,1.35.77a13.77,13.77,0,0,1,2.42,2c.93.94,1.75,1.7,2.46,2.54-.77-1.39-2.74-6.41-6.61-10.54C11.1,8.87,14.15,10.73,15,11.58Z"/></svg>