<svg xmlns="http://www.w3.org/2000/svg" viewBox="0 0 48 48"><title>basecamp</title><path d="M24,5.89C12.39,5.89,3.28,20.68,2.42,33.18,6.06,39.51,14.86,41.89,24,41.89s18-2.38,21.6-8.71C44.75,20.68,35.64,5.89,24,5.89Z" style="fill:#b3dcff"/><path d="M37.48,21.42c-2.56-3.29-5.81-6.77-7.7-6.77S22.62,24,20.2,24s-3.67-4.25-6.65-4.23c-4.05,0-8,11.94-8,11.94S7.17,39,24.35,39s18.56-7.16,18.56-7.16A37.6,37.6,0,0,0,37.48,21.42Z" style="fill:#5ecc62"/><path d="M14.8,30.67A2.18,2.18,0,1,1,17,32.85a2.19,2.19,0,0,1-2.18-2.18m14.07,0a2.18,2.18,0,1,0,2.18-2.18,2.18,2.18,0,0,0-2.18,2.18m-.39,3.16a.67.67,0,0,0-.28-.9.69.69,0,0,0-.91.28,3.57,3.57,0,0,1-3.22,1.64,4,4,0,0,1-3.35-1.68A.68.68,0,0,0,19.8,33a.67.67,0,0,0-.23.92,5.34,5.34,0,0,0,4.5,2.32A4.9,4.9,0,0,0,28.48,33.83Z"/><path d="M20.55,28c-2.67,0-4-2.64-4.78-4.26s-.78-3.78-2.68-3.84a1.39,1.39,0,0,1,.54-.12c3,0,4.23,4.23,6.65,4.23s7.69-9.33,9.58-9.33a2.75,2.75,0,0,1,1.19.34A1.21,1.21,0,0,0,30,15.3C29.39,15.91,23.85,28,20.55,28Z" style="fill:#00ad45"/></svg>