<svg id="Layer_1" data-name="Layer 1" xmlns="http://www.w3.org/2000/svg" viewBox="0 0 48 48"><defs><style>.cls-1{fill:#1d202d;}</style></defs><title>benchmark</title><path class="cls-1" d="M28.38,35.61,23,41.05a1.15,1.15,0,0,0,0,1.75,1.22,1.22,0,0,0,.76.32c.22,0,.66-.11.77-.32L30,37.35a1.12,1.12,0,0,0,0-1.74A1.17,1.17,0,0,0,28.38,35.61Z"/><path class="cls-1" d="M11.71,29.07a5.92,5.92,0,0,1,.77-1.41A28.61,28.61,0,0,1,16.62,23l.87-.87A1.36,1.36,0,0,1,19,21.77l-.11-.1a.62.62,0,0,1,0-1l.33-.33a1.14,1.14,0,0,0,0-1.74,1.12,1.12,0,0,0-1.74,0l-2.62,2.72a52.1,52.1,0,0,0-4.46,5.34,6.93,6.93,0,0,0-1,2,1.24,1.24,0,0,0,.87,1.41h.33C11.17,29.94,11.61,29.73,11.71,29.07Z"/><path class="cls-1" d="M36.55,5.22,19.67,22.1a1.22,1.22,0,0,1,0,2l-.44.44-2.72,2.72c-4.9,4.9-5.45,7.08-5.56,7.52a1.23,1.23,0,0,0,1,1.41h.22a1.32,1.32,0,0,0,1.2-.87,8.2,8.2,0,0,1,.76-1.52,31.73,31.73,0,0,1,4.14-4.91l.87-.87a1.36,1.36,0,0,1,1.53-.32l-.11-.11a.61.61,0,0,1,0-1l.32-.33a1.12,1.12,0,0,0,0-1.74l-.21-.22L38.18,6.85a1.12,1.12,0,0,0,0-1.74A1.3,1.3,0,0,0,36.55,5.22Z"/><path class="cls-1" d="M33.82,15.35,21.3,28a1.22,1.22,0,0,1,0,2l-.44.44L18.25,33a22.28,22.28,0,0,0-4.58,6.21A6.57,6.57,0,0,0,13,41.82a1.2,1.2,0,0,0,2.4,0A4.42,4.42,0,0,1,16,40.07a21.74,21.74,0,0,1,4.14-5.55l.87-.87a1.35,1.35,0,0,1,1.53-.33l-.11-.11a.61.61,0,0,1,0-1l.33-.33a1.14,1.14,0,0,0,0-1.74l-.22-.22L35.68,16.87a1.14,1.14,0,0,0,0-1.74A1.87,1.87,0,0,0,33.82,15.35Z"/><path class="cls-1" d="M31.1,25.59l-8.28,8.27a1.22,1.22,0,0,1,0,2L21.63,37a1.06,1.06,0,0,0,1.52-.21l9.59-9.59a1.14,1.14,0,0,0,0-1.74A1.1,1.1,0,0,0,31.1,25.59Z"/></svg>