<svg id="CURRENT" xmlns="http://www.w3.org/2000/svg" viewBox="0 0 48 48"><title>bigcommerce</title><g id="mmXh1z"><path d="M40.56,7a.26.26,0,0,1,.44.2c0,4-.1,29.75-.12,33.91a.57.57,0,0,1-.58.57H5.23a.57.57,0,0,1-.4-1c3.47-3.26,14.3-13.42,14.3-13.27v7.73a1.34,1.34,0,0,0,1.34,1.34h8.44a4.67,4.67,0,0,0,5-4,4.58,4.58,0,0,0-2.34-4.89c-.45-.24-.46-.41,0-.66a4.07,4.07,0,0,0,2.06-4.32A4.18,4.18,0,0,0,30.24,19a18.67,18.67,0,0,0-1.94-.3S38.38,9,40.56,7Z" style="fill:#34313f"/><path d="M25.79,33.18c-.78,0-1.56,0-2.33,0-.37,0-.53-.13-.52-.51q0-1.51,0-3c0-.38.15-.51.52-.51,1.55,0,3.1,0,4.65,0A1.94,1.94,0,0,1,30,31.71a1.9,1.9,0,0,1-1.9,1.46H25.79Z" style="fill:#34313f"/><path d="M25.64,22.1c.8,0,1.59,0,2.38,0a1.84,1.84,0,0,1-.11,3.67c-1.5,0-3,0-4.49,0-.35,0-.48-.15-.48-.49q0-1.38,0-2.76c0-.36.14-.48.48-.47.74,0,1.48,0,2.22,0Z" style="fill:#34313f"/></g></svg>