<svg id="Layer_1" data-name="Layer 1" xmlns="http://www.w3.org/2000/svg" viewBox="0 0 48 48"><defs><style>.cls-1{fill:#1ece6d;}.cls-2{fill:#ff004e;}.cls-3{fill:#00b4ff;}</style></defs><title>bimeanalytics</title><path class="cls-1" d="M42.82,41.7H33.6a.8.8,0,0,1-.81-.81V6.5a.8.8,0,0,1,.81-.8h9.22a.8.8,0,0,1,.81.8V40.88A.82.82,0,0,1,42.82,41.7Z"/><path class="cls-2" d="M28.56,41.68H19.12a.71.71,0,0,1-.7-.7V14.81a.72.72,0,0,1,.7-.71h9.44a.72.72,0,0,1,.71.71V41A.7.7,0,0,1,28.56,41.68Z"/><path class="cls-3" d="M14.33,41.68H4.67a.59.59,0,0,1-.6-.59V22.89a.59.59,0,0,1,.6-.59h9.66a.59.59,0,0,1,.59.59v18.2A.59.59,0,0,1,14.33,41.68Z"/></svg>