<svg id="Layer_1" data-name="Layer 1" xmlns="http://www.w3.org/2000/svg" xmlns:xlink="http://www.w3.org/1999/xlink" viewBox="0 0 48 48"><defs><style>.cls-1{fill:#2684ff;}.cls-2{fill:url(#linear-gradient);}</style><linearGradient id="linear-gradient" x1="41.72" y1="21.16" x2="24.88" y2="37.15" gradientUnits="userSpaceOnUse"><stop offset="0.18" stop-color="#0052cc"/><stop offset="1" stop-color="#2684ff"/></linearGradient></defs><title>bitbucket</title><path class="cls-1" d="M7.17,7.82A1.15,1.15,0,0,0,6,9a1.27,1.27,0,0,0,0,.2l4.9,29.72a1.57,1.57,0,0,0,1.53,1.31H35.93a1.16,1.16,0,0,0,1.15-1l4.9-30A1.15,1.15,0,0,0,41,7.84H7.17ZM27.78,29.29h-7.5l-2-10.59H29.6Z"/><path class="cls-2" d="M40.42,18.7H29.6L27.78,29.29h-7.5L11.43,39.8a1.51,1.51,0,0,0,1,.38H35.93a1.14,1.14,0,0,0,1.15-1Z"/></svg>