<svg xmlns="http://www.w3.org/2000/svg" viewBox="0 0 48 48">
  <title>icon-bizerteam</title>
  <g id="Layer_3" data-name="Layer 3">
    <g>
      <path d="M35.94,10.32C31.58,5.59,24,6,24,6s-7.6-.42-12,4.31A23.77,23.77,0,0,0,6.13,29s.93,8,8.18,11.28A25.53,25.53,0,0,0,24,42a25.61,25.61,0,0,0,9.7-1.77C41,36.91,41.87,29,41.87,29A23.77,23.77,0,0,0,35.94,10.32Zm-23.52,21a1.29,1.29,0,0,1-2.58,0v-3.8a1.29,1.29,0,0,1,2.58,0Zm5.15,3.39a1.29,1.29,0,0,1-2.58,0V30a1.29,1.29,0,0,1,2.58,0Zm5.15,1.85a1.29,1.29,0,0,1-2.58,0V30.58a1.29,1.29,0,0,1,2.58,0Zm5.14,0a1.29,1.29,0,0,1-2.57,0V30.58a1.29,1.29,0,0,1,2.57,0ZM33,34.66a1.29,1.29,0,0,1-2.57,0V30A1.29,1.29,0,0,1,33,30Zm-.32-9.94A26.12,26.12,0,0,1,24,26a26.16,26.16,0,0,1-8.69-1.27,4.54,4.54,0,0,1-3.08-4.29A8.32,8.32,0,0,1,17,12.49a18.08,18.08,0,0,1,7-1.24,18.36,18.36,0,0,1,7,1.24,8.32,8.32,0,0,1,4.8,7.94A4.56,4.56,0,0,1,32.69,24.72Zm5.47,6.55a1.29,1.29,0,0,1-2.57,0v-3.8a1.29,1.29,0,0,1,2.57,0Z" style="fill: #007ced"/>
      <ellipse cx="18.85" cy="18.33" rx="1.72" ry="1.69" style="fill: #007ced"/>
      <ellipse cx="29.15" cy="18.33" rx="1.72" ry="1.69" style="fill: #007ced"/>
    </g>
  </g>
</svg>
