<svg xmlns="http://www.w3.org/2000/svg" xmlns:xlink="http://www.w3.org/1999/xlink" viewBox="0 0 48 48"><defs><linearGradient id="a" x1="5.24" y1="33.09" x2="28.55" y2="33.09" gradientUnits="userSpaceOnUse"><stop offset="0" stop-color="#717070"/><stop offset="1" stop-color="#dadada"/></linearGradient><linearGradient id="b" x1="11.97" y1="6.22" x2="24.38" y2="6.22" xlink:href="#a"/><linearGradient id="c" x1="7.95" y1="19.17" x2="43.24" y2="19.17" gradientUnits="userSpaceOnUse"><stop offset="0" stop-color="#be0e1c"/><stop offset="0.38" stop-color="#e3010b"/><stop offset="0.99" stop-color="#be0e1c"/></linearGradient></defs><title>biztalk server</title><path d="M7.43,32.82a17.19,17.19,0,0,0-1.06,2.12l6.27-1.85a8.63,8.63,0,0,1-.71-2.17,5.55,5.55,0,0,1,0-2l1.25-.51a15.48,15.48,0,0,0-.16,2.08,4.49,4.49,0,0,0,.62,2.06s1.14-1.84,1.87-3.14,1.35-2.74,1.35-2.74l.93-.38s-.68,1.93-1.22,3.09-1.74,3.09-1.74,3.09,1.95-.57,3.15-.9a17.2,17.2,0,0,0,2.76-1.19,17.4,17.4,0,0,1-1.76-2,14.78,14.78,0,0,1-1-2.17l.57-.24a10.61,10.61,0,0,0,1.2,2.22,17.22,17.22,0,0,0,1.54,1.68A15.67,15.67,0,0,0,22,27a14.26,14.26,0,0,0,.06-2.55l.73-.33s0,1.58-.06,2.93a18.41,18.41,0,0,1-.48,2.82l4.88-2.71-4.07-3,.54-.21,3.91,2.76-.17-4.06.93-.38s.65,2.76,0,9.29a32.79,32.79,0,0,1-4.34,12.4s-16.6,0-18.6-7.32C4.66,34.21,8.59,31,8.59,31S7.86,32.2,7.43,32.82Zm0,4.86A12.24,12.24,0,0,0,9,39.22L12.72,34,6.45,35.45A7.17,7.17,0,0,0,7.46,37.68Zm6.07-3.37L9.41,39.55l7.48-2.44A10.6,10.6,0,0,1,15,35.86,20.44,20.44,0,0,1,13.53,34.31Zm-1.35,6.84c1.08.46,2.44.89,2.44.89l2.71-4.12L9.9,39.85A14.56,14.56,0,0,0,12.18,41.15Zm6.4-3.36-3.29,4.36s2.88-.6,4.56-1.08S25,39.41,25,39.41a31.8,31.8,0,0,1-4-.65A19.68,19.68,0,0,1,18.58,37.79Zm1.65,5.31c1.63.19,3.47.35,3.47.35s.41-1.05.62-1.62.76-2.07.76-2.07-3.3,1.28-4.61,1.66-4.2,1-4.2,1S18.6,42.91,20.23,43.1Zm-4.12-7.76c.73.55,1.84,1.25,1.84,1.25a27.55,27.55,0,0,0,1.74-2.85c.38-.86,1.11-2.33,1.11-2.33s-2,.76-3.09,1.06-3.42,1.06-3.42,1.06A15.53,15.53,0,0,0,16.11,35.34Zm5.8-4.23s-.68,1.77-1.11,2.58-1.33,2.66-1.33,2.66,2.33-.92,3.36-1.41,4-1.77,4-1.77a15.36,15.36,0,0,1-2.71-.92C22.91,31.68,21.91,31.11,21.91,31.11Zm.52-.59s1.16.76,2,1.16a23.66,23.66,0,0,0,2.73,1s.25-1.76.3-2.52,0-2.55,0-2.55-1.52,1-2.17,1.33S22.43,30.52,22.43,30.52ZM27,33.58S24.3,35,23.14,35.48s-3.91,1.68-3.91,1.68a9,9,0,0,0,2.44,1.09,36.86,36.86,0,0,0,3.74.57s.66-1.77.9-2.69Z" style="fill:url(#a)"/><path d="M12,6.89A13.2,13.2,0,0,1,15.5,4.53c2.3-1,5.35-2,5.35-2s.95,2.28,1.5,3.63a39.67,39.67,0,0,0,2,3.8l-1.13-.18L22,7.3,19.19,9.42l-1-.23L21.67,7S19.15,6.66,18,6.48s-3.18-.74-3.18-.74L18,9l-1.54-.15-2-3a5.62,5.62,0,0,0-1,.85,3.17,3.17,0,0,0-.57,1.23Zm3.32-1.52,6.42,1S21.22,5.25,21,4.65A14.72,14.72,0,0,1,20.67,3s-1.28.39-2.61.94A20.29,20.29,0,0,0,15.29,5.37Z" style="fill:url(#b)"/><path d="M15.63,23.69a12.94,12.94,0,0,0,2.16-6.19c.59-4.74-5.14-9.07-5.64-9.66a.83.83,0,0,1-.18-1s.36.85,3.09,1.31c3.41.58,13.45,2.09,18,3.47a17.43,17.43,0,0,1,10.2,7.72s-3.75.62-8.33,1.7a97.57,97.57,0,0,0-13.19,4c-2.09.87-4.5,1.8-6.43,2.71C11,29.72,8,31.54,8,31.54A47.59,47.59,0,0,0,15.63,23.69ZM13.86,8.52s.92.86,1.43,1.45S17,12.18,17,12.18A19.93,19.93,0,0,0,16.44,10a6.36,6.36,0,0,0-.36-.86ZM17,9.38l.95,3.38,3.34-2.66Zm5,1-3.3,2.9,3.85,1.14a11.77,11.77,0,0,0-.07-2.26A11.84,11.84,0,0,0,21.94,10.4Zm.82.14a10.35,10.35,0,0,1,.38,1.64c.08.71.08,2.26.08,2.26L28,11.53s-1.73-.47-2.91-.69A23.28,23.28,0,0,0,22.76,10.54ZM29,11.82l-5,3,1.55.87c.69.38,1.47.89,1.47.89a10.11,10.11,0,0,0,1.19-1.95A20.72,20.72,0,0,0,29,11.82Zm.64,0a15,15,0,0,1-.5,2.32c-.32,1-.76,2.24-.76,2.24a27.72,27.72,0,0,1,3.29-1.32c1-.26,4.18-1.12,4.18-1.12s-1.95-.81-3.1-1.18S29.59,11.82,29.59,11.82Zm6.71,2.62s-3.12.94-4.35,1.36-3.49,1.54-3.49,1.54a13.24,13.24,0,0,1,1.47,1.33c.62.66,1.54,1.93,1.54,1.93s2-2.29,2.88-3.51S36.3,14.44,36.3,14.44Zm.59.07a18,18,0,0,1-1.41,2.68,35.92,35.92,0,0,1-3.1,3.47s3.32-.78,5.62-1.17A38.71,38.71,0,0,1,42.42,19,24.64,24.64,0,0,0,40,16.56,30.39,30.39,0,0,0,36.89,14.51Zm-18.57-.07a10.57,10.57,0,0,1,.23,1.94,15.32,15.32,0,0,1-.15,2.13l3.39-3.13s-.95-.36-1.74-.59A11.62,11.62,0,0,0,18.32,14.44Zm3.82,1.73-3.5,3a4.28,4.28,0,0,1,.9.64c.34.33.76.79.76.79a9.68,9.68,0,0,0,1.2-2.21C21.77,17.47,22.14,16.17,22.14,16.17Zm.88-.29a13.2,13.2,0,0,1-.39,1.71c-.25.78-.84,2.17-.84,2.17l4-2.36Zm2.58,2.7-4.77,2.63s.32.74.48,1.21.41,1.21.41,1.21S23.15,22.13,24,21,25.6,18.58,25.6,18.58Zm1.63-.34S26,20,25.16,20.89s-2.46,2.74-2.46,2.74l8-2.61a14.91,14.91,0,0,0-1.55-1.48A15.87,15.87,0,0,0,27.23,18.24Zm-9.79,3.42c-.35.66-1,1.7-1,1.7l2.93-2.09a3.35,3.35,0,0,0-.64-.67,5.18,5.18,0,0,0-.69-.34A11.78,11.78,0,0,1,17.44,21.66Zm1.4.88-3,1.8-2,2.46a28.83,28.83,0,0,0,2.76-2C17.57,23.93,18.84,22.54,18.84,22.54Zm1.21-.46a24.19,24.19,0,0,1-1.82,2.09c-.79.76-3.12,2.63-3.12,2.63s3.1-1.38,3.73-1.7,2.12-1,2.12-1a6.3,6.3,0,0,0-.39-1.23C20.39,22.59,20.05,22.08,20.05,22.08Z" style="fill:url(#c)"/><path d="M25.52,42.83h.9V43h-.37v1H25.9V43h-.38Z"/><path d="M26.6,42.83h.21l.27.75.27-.75h.22v1.1h-.14V43l-.28.75H27L26.74,43v1H26.6Z"/></svg>