<svg xmlns="http://www.w3.org/2000/svg" xmlns:xlink="http://www.w3.org/1999/xlink" viewBox="0 0 48 48"><defs><style>.cls-1{fill:url(#linear-gradient);}.cls-2{fill:url(#linear-gradient-2);}</style><linearGradient id="linear-gradient" x1="15.98" y1="15.15" x2="15.98" y2="36.69" gradientUnits="userSpaceOnUse"><stop offset="0" stop-color="#6ec04a"/><stop offset="1" stop-color="#13b7d3"/></linearGradient><linearGradient id="linear-gradient-2" x1="38.71" y1="15.15" x2="38.71" y2="36.69" xlink:href="#linear-gradient"/></defs><title>blackbaudraisersedgenx</title><g id="blackbaudraiseredgenxt"><path class="cls-1" d="M3,5.35H8.09V17.91c.62-.28,1-.43,1.39-.63a12.69,12.69,0,0,1,14.27.92c4.69,3.38,5.9,8.37,4.86,13.8s-4.53,8.8-9.84,10.13C12.29,43.74,7.11,41.57,3.55,36A5.32,5.32,0,0,0,3,35.35ZM24.1,29.21A8.76,8.76,0,0,0,18.41,21a8.83,8.83,0,0,0-9.64,2.66,3.32,3.32,0,0,0-.62,1.86c-.07,2.41-.06,4.82,0,7.22a3.23,3.23,0,0,0,.52,1.73,8.53,8.53,0,0,0,9.56,2.81A8.67,8.67,0,0,0,24.1,29.21Z"/><path class="cls-2" d="M32.45,35.91c4.21-4.77,4.1-9.55,0-14.33l.59-.37,12,7.51-11.92,7.6Z"/></g></svg>