<svg id="Layer_1" data-name="Layer 1" xmlns="http://www.w3.org/2000/svg" viewBox="0 0 48 48"><title>branch</title><path d="M25.8,43.61l-.09-3.55-.21-5.8,5.14-3.17a3.94,3.94,0,1,0-1.58-2.58l-3.64,2.23-.25-7.4,5.06-3.1a4.54,4.54,0,1,0-1.7-2.55L25,19.85l-.2-5.92a4.14,4.14,0,1,0-3,0l-.38,12.26-3.79-2.41a4.77,4.77,0,1,0-1.59,2.6l5.28,3.35-.27,9h0v4.82Z" style="fill:#333e48"/><circle cx="23.28" cy="10.1" r="2.51" style="fill:#4da3dc"/><circle cx="32.75" cy="27.97" r="2.28" style="fill:#4da3dc"/><circle cx="32.98" cy="16.75" r="2.68" transform="translate(-4 16.13) rotate(-25.97)" style="fill:#4da3dc"/><circle cx="12.96" cy="22.7" r="2.9" style="fill:#4da3dc"/></svg>