<svg xmlns="http://www.w3.org/2000/svg" xmlns:xlink="http://www.w3.org/1999/xlink" viewBox="0 0 48 48"><defs><style>.cls-1{fill:url(#linear-gradient);}</style><linearGradient id="linear-gradient" x1="22.91" y1="14.37" x2="22.91" y2="31.78" gradientUnits="userSpaceOnUse"><stop offset="0.07" stop-color="#54a966"/><stop offset="1" stop-color="#086246"/></linearGradient></defs><title>bronto</title><g id="bronto"><path class="cls-1" d="M18.11,28c-.76.78-1.41,1.54-2.16,2.18A5.45,5.45,0,0,1,12.2,31.5c-2-.05-4-.22-6-.34a12.81,12.81,0,0,0-5.35.67.48.48,0,0,1-.38,0c.21-.18.42-.38.64-.54a9.82,9.82,0,0,1,5.56-1.62c1.4-.05,2.79-.05,4.18-.12a4.53,4.53,0,0,0,4-2.56c.76-1.41,1.49-2.84,2.33-4.2a14.6,14.6,0,0,1,5.19-5.34,5.58,5.58,0,0,1,4.88-.57,5.4,5.4,0,0,1,1.36.78c.58.44,1.11,1,1.67,1.44a2.75,2.75,0,0,0,3.17.41,6.66,6.66,0,0,0,2-1.3c1.84-2.05,4.23-2.92,6.79-3.56a4,4,0,0,1,2.64.26c.49.21.56.46.12.75a4.4,4.4,0,0,1-1.44.58c-.84.2-1.72.26-2.56.46a4.67,4.67,0,0,0-3,2.28,20.81,20.81,0,0,1-3.35,4.4,3.68,3.68,0,0,0-1.25,3.18,20.38,20.38,0,0,0,.12,2.08A18,18,0,0,0,34.37,31c.21.53.14.7-.41.71s-1.25,0-1.87,0c-.4,0-.51-.15-.54-.53-.08-1-.21-2-.32-3-.05-.43-.3-.57-.71-.52h-.11c-1.27.13-1.53.48-1.11,1.69a12,12,0,0,0,.86,1.77c.27.48.22.6-.32.61s-1.28,0-1.92,0a.61.61,0,0,1-.68-.53c-.22-.8-.5-1.58-.74-2.37a.85.85,0,0,0-1-.73,3.38,3.38,0,0,1-.45,0c-1,.08-1.26.44-1,1.37a9.33,9.33,0,0,0,.62,1.62c.19.43.13.6-.34.62s-1.1,0-1.65,0a.46.46,0,0,1-.54-.43c-.13-.78-.29-1.56-.38-2.34-.06-.44-.2-.65-.66-.65s-.63.26-.64.68a3.74,3.74,0,0,0,.37,2.25c.17.26,0,.45-.25.46a11.36,11.36,0,0,1-1.75,0c-.15,0-.37-.32-.39-.51-.11-.8-.14-1.61-.21-2.42C18.17,28.52,18.14,28.26,18.11,28Z"/></g></svg>