<svg id="ceac8099-c0a8-4e64-ada2-6f4d8a8dd868" data-name="Icons" xmlns="http://www.w3.org/2000/svg" viewBox="0 0 108 72">
  <title>Buffer</title>
  <path d="M6.8,26.54,19,20.83a2.27,2.27,0,0,1,2.06.05l11.47,5.38c.28.14.61.24.61.57s-.37.46-.66.6l-11,5.16a3.33,3.33,0,0,1-2.95,0L6.8,27.15v-.61Zm0,14.57L9,40a2.76,2.76,0,0,1,2.63,0l7.07,3.32a2.88,2.88,0,0,0,2.62,0L28.44,40a2.88,2.88,0,0,1,2.62,0c.52.28,1.08.51,1.59.75.24.14.56.23.52.56s-.28.42-.52.52l-5.34,2.52-6,2.81a2.65,2.65,0,0,1-2.39.05L7.55,42a4.84,4.84,0,0,1-.66-.42.6.6,0,0,1-.09-.42Zm0-7.26,1.64-.8a3.59,3.59,0,0,1,3.75.05l6.65,3.14a2.71,2.71,0,0,0,2.39,0l7.07-3.33a3.07,3.07,0,0,1,2.9,0l1.64.8c.47.28.43.56,0,.84a1.56,1.56,0,0,1-.42.19L21.14,40a2.42,2.42,0,0,1-2.25,0L7.6,34.74c-.28-.14-.52-.33-.8-.47v-.42Zm37.27-7.92v5.6c.18,0,.23-.08.3-.15a4.74,4.74,0,0,1,7.16.6,7.65,7.65,0,0,1-.12,8.4,4.73,4.73,0,0,1-7,.45l-.33-.3v1c0,.26-.1.38-.38.38H41.32c-.27,0-.4-.11-.4-.38v-15l0-.58h3.12Zm0,10.14v1.64a.82.82,0,0,0,.38.8,4.12,4.12,0,0,0,.6.43,2.85,2.85,0,0,0,4.37-1.86,4.32,4.32,0,0,0,0-1.79,2.74,2.74,0,0,0-1.91-2.37,3.15,3.15,0,0,0-3.23.85.72.72,0,0,0-.23.58v1.72ZM102,33.19a8.19,8.19,0,0,0-1.71.1l-.66.23a1.7,1.7,0,0,0-1.23,1.89l0,5.87c0,.58,0,.58-.55.58h-2c-.33,0-.41-.12-.41-.45l0-9.86c0-1,0-1,1-1H98c.35,0,.47.12.45.48s0,.58,0,.95A4.74,4.74,0,0,1,102,30.29l0,2.9Zm-12.83,4H85.52c-.48,0-.56.07-.38.52a3,3,0,0,0,3.38,2A4.45,4.45,0,0,0,91,38.76c.15-.12.26-.12.37.05l1,1.52c.15.22,0,.35-.13.47a5.52,5.52,0,0,1-2.32,1.09,6.94,6.94,0,0,1-5.12-.48,5.6,5.6,0,0,1-3-5.6,5.8,5.8,0,0,1,4.69-5.42,5.57,5.57,0,0,1,6.71,4.87,12.76,12.76,0,0,1,.1,1.51c0,.33-.12.45-.45.45-1.26,0-2.5,0-3.76,0Zm-1.46-2.1h2.22c.5,0,.53,0,.4-.53a2.56,2.56,0,0,0-2.82-1.86A2.62,2.62,0,0,0,85,34.83c0,.28.07.33.3.33l2.37,0ZM62,40.53a5.82,5.82,0,0,1-1.87,1.23,5.43,5.43,0,0,1-3.58.16,3,3,0,0,1-2.09-2.8l0-5.47V31.08c0-.38.1-.56.5-.53h2c.58,0,.58,0,.58.55v6.13c0,1.61.6,2.19,2.22,2.14a3.16,3.16,0,0,0,2.14-1,.81.81,0,0,0,.15-.61V31.15c0-.61,0-.61.6-.61h2c.32,0,.43.13.43.43V41.41c0,.33-.13.45-.46.45-.72,0-1.44,0-2.17,0-.32,0-.45-.12-.42-.42a3.63,3.63,0,0,0,.05-.91Zm17.14-3v3.81c0,.37-.1.5-.48.5-.7,0-1.39,0-2.09,0-.38,0-.51-.12-.51-.5V33.81c0-.6,0-.6-.6-.6h-.86c-.22,0-.35-.08-.35-.33v-2c0-.27.13-.35.38-.35h1.06c.27,0,.37-.1.37-.38a6.09,6.09,0,0,1,.1-1.13,3.67,3.67,0,0,1,4.29-3,4,4,0,0,1,2.09.76c.26.2.36.37.13.68a7.94,7.94,0,0,0-.68,1.06c-.15.26-.3.35-.58.15a1.27,1.27,0,0,0-.53-.2,1.48,1.48,0,0,0-1.74,1.86c0,.2.23.18.35.18H81c.26,0,.4.07.4.38v1.91c0,.26-.1.38-.38.35H79.62c-.58,0-.58,0-.58.56l0,3.78ZM68.5,37.49V33.67c0-.33-.1-.48-.43-.45s-.7,0-1.06,0-.37-.08-.37-.36v-2c0-.26.12-.36.35-.33H68.1c.33,0,.43-.1.43-.43A4,4,0,0,1,69,27.9a3.78,3.78,0,0,1,3.83-1.82,4.2,4.2,0,0,1,2,.68c.43.33.45.38.18.81l-.66,1c-.12.23-.28.31-.53.13a1.49,1.49,0,0,0-.88-.28,1.44,1.44,0,0,0-1.36,1.92c.07.2.22.17.35.17h1.46c.28,0,.41.1.38.38v1.89c0,.28-.1.4-.38.38H72.11c-.41,0-.53.13-.51.5v7.44c0,.71,0,.71-.73.71s-1.23,0-1.84,0c-.35,0-.5-.1-.5-.51l0-3.83Z"/>
</svg>
