<svg id="Layer_1" data-name="Layer 1" xmlns="http://www.w3.org/2000/svg" viewBox="0 0 48 48"><defs><style>.cls-1{fill:#094303;}</style></defs><title>builtwith</title><path class="cls-1" d="M6,14.25l0,6.09L6.2,21A7.27,7.27,0,0,0,7,22.91,6.59,6.59,0,0,0,11.39,26a7.89,7.89,0,0,0,3.06-.08,6.91,6.91,0,0,0,4.41-3.55,7,7,0,0,0,.61-3.85,6.79,6.79,0,0,0-3.54-5.08,6,6,0,0,0-3.11-.73,10.15,10.15,0,0,0-1.06,0l-.19,0v2.66c0,1.46,0,2.65,0,2.64.82-.41.85-.42,1.3-.4a2,2,0,0,1,.67.14,1.9,1.9,0,0,1,.86,1,1.85,1.85,0,0,1-1.91,2.54A1.67,1.67,0,0,1,11,20c-.1-.32-.11-.82-.13-6.09V8.17H6Zm22.38.53a1.6,1.6,0,0,0-.73.77,1.94,1.94,0,0,0,0,1,1.55,1.55,0,0,0,.85.82,1.45,1.45,0,0,0,1.95-1.71,1.88,1.88,0,0,0-.8-.88A1.61,1.61,0,0,0,28.4,14.78Zm3,5.77v5.33h2.93V15.23H31.44Zm3.48-1.69c0,3.88,0,3.93.35,4.76A3.93,3.93,0,0,0,38.69,26l.52,0V22.9l-.29,0c-.69-.09-1-.39-1-1.17l0-.43h1.27V18.16H37.9V15.23h-3ZM27.61,22v3.89h2.93V18.1H27.61Zm-7.84-1.4c0,2.73,0,3,.39,3.72A3.35,3.35,0,0,0,22.29,26a5,5,0,0,0,1.8,0,3.67,3.67,0,0,0,2.46-2.4c.12-.4.13-.5.13-2.93V18.19l-1.45,0H23.78v2.4l0,2.4-.18.15a.44.44,0,0,1-.41.12c-.45-.06-.42.05-.46-2.64l0-2.4-1.45,0H19.77Z"/><path class="cls-1" d="M27.61,28.34a1.31,1.31,0,0,0-.81,1.27,1.29,1.29,0,0,0,1.08,1.31A1.81,1.81,0,0,0,29,30.8a1.38,1.38,0,0,0,.67-1.52,1.44,1.44,0,0,0-2.06-.94Z"/><path class="cls-1" d="M11.38,32.54c0,3.67,0,3.77.15,4.23a3.9,3.9,0,0,0,1.06,1.87,3.79,3.79,0,0,0,2.87,1.17,4.19,4.19,0,0,0,2.95-1.19l.31-.27.42.36a4.16,4.16,0,0,0,3.29,1.09,3.57,3.57,0,0,0,2-.84A4.41,4.41,0,0,0,26,36.89l.16-.47,0-3.82,0-3.81h-2l-2,0,0,3.27c0,3.21,0,3.28-.15,3.44a.57.57,0,0,1-1,0c-.11-.2-.11-.44-.13-3.47l0-3.24h-2l-2,0,0,3.27c0,3.21,0,3.28-.16,3.44a.58.58,0,0,1-.68.27c-.39-.12-.38,0-.42-3.69l0-3.29-2,0h-2Z"/><path class="cls-1" d="M30.27,32.06c0,3.4,0,4.07.25,4.78a3.84,3.84,0,0,0,3.54,2.7l.52,0V36.47l-.3,0a1,1,0,0,1-1-1c0-.16,0-.36-.06-.45l0-.17h1.31V31.72H33.2V28.79H30.27Z"/><path class="cls-1" d="M35.18,34.12v5.32h2.93V37.17a10.71,10.71,0,0,1,.09-2.45.43.43,0,0,1,.72-.09l.15.14v4.67H42v-2.8c0-3.07,0-3.25-.36-3.9a2.24,2.24,0,0,0-1.42-1.17,2.35,2.35,0,0,0-1.79.24l-.3.15s0-.71,0-1.58V28.79H35.18Z"/><polygon class="cls-1" points="26.8 35.55 26.8 39.44 29.73 39.44 29.73 31.66 26.8 31.66 26.8 35.55"/></svg>