<svg xmlns="http://www.w3.org/2000/svg" viewBox="0 0 48 48">
  <title>icon-callconnect</title>
  <g id="Layer_3" data-name="Layer 3">
    <g>
      <path d="M10.4,31.08a1,1,0,0,1-1-1V18.53a1,1,0,1,1,2.08,0V30.05A1,1,0,0,1,10.4,31.08Z"/>
      <path d="M38.16,31.08a1,1,0,0,1-1-1V18.53a1,1,0,1,1,2.07,0V30.05A1,1,0,0,1,38.16,31.08Z"/>
      <path d="M24.38,46.24a1,1,0,0,1-1-1V41.65a1,1,0,1,1,2.07,0V45.2A1,1,0,0,1,24.38,46.24Z"/>
      <path d="M24.38,7.39a1,1,0,0,1-1-1V2.8a1,1,0,1,1,2.07,0V6.35A1,1,0,0,1,24.38,7.39Z"/>
      <path d="M9.37,16.5a1,1,0,0,1-.52-.14L5.78,14.57a1.05,1.05,0,0,1-.37-1.43,1,1,0,0,1,1.42-.37l3.07,1.8A1,1,0,0,1,10.27,16,1,1,0,0,1,9.37,16.5Z"/>
      <path d="M42.46,35.88a1.07,1.07,0,0,1-.52-.14l-3.07-1.8a1,1,0,0,1,1.05-1.79L43,33.94a1,1,0,0,1-.53,1.94Z"/>
      <path d="M39.38,16.47a1,1,0,0,1-.53-1.93l3.07-1.8a1,1,0,1,1,1,1.79l-3.07,1.8A1,1,0,0,1,39.38,16.47Z"/>
      <path d="M6.33,35.91A1,1,0,0,1,5.8,34l3.06-1.8A1,1,0,1,1,9.92,34l-3.07,1.8A1,1,0,0,1,6.33,35.91Z"/>
      <path d="M6.28,35.83a1,1,0,0,1-.53-1.94L8.83,32.1a1,1,0,1,1,1,1.8L6.8,35.69A1.13,1.13,0,0,1,6.28,35.83Z"/>
      <path d="M12.79,15.9A1,1,0,0,1,12.26,14l9.62-5.59a1,1,0,1,1,1,1.79l-9.61,5.59A1,1,0,0,1,12.79,15.9Z"/>
      <path d="M26.75,39.91a1.05,1.05,0,0,1-.9-.52A1,1,0,0,1,26.23,38l9.61-5.59a1,1,0,1,1,1,1.79l-9.61,5.59A1,1,0,0,1,26.75,39.91Z"/>
      <path d="M22.31,39.91a1.07,1.07,0,0,1-.52-.14l-9.61-5.6a1,1,0,1,1,1-1.79L22.83,38a1,1,0,0,1,.38,1.42A1.05,1.05,0,0,1,22.31,39.91Z"/>
      <path d="M36.28,15.91a1.1,1.1,0,0,1-.52-.14l-9.61-5.6A1,1,0,0,1,27.2,8.38L36.81,14a1,1,0,0,1-.53,1.94Z"/>
      <path d="M22.64,15.36c.83.72.55,2.84.55,2.84L22,20.69a1.45,1.45,0,0,0-.06,1.19l1.83,3.3s1.71,3.07,2.92,3.34,1.21-.41,2.12-.35a1.41,1.41,0,0,1,.49.14,2.7,2.7,0,0,1,1,3.7,1.91,1.91,0,0,1-1.6,1.15c-1.62.07-4.19-1.32-7.36-6.08A15.32,15.32,0,0,1,18.65,16C19,14.53,21.81,14.64,22.64,15.36Z"/>
    </g>
  </g>
</svg>
