<svg xmlns="http://www.w3.org/2000/svg" viewBox="0 0 48 48">
  <title>callrail</title>
  <g id="Layer_3" data-name="Layer 3">
    <g>
      <path d="M37.22,15.57c0,6.27-6.29,17.1-12.52,29.65a.79.79,0,0,1-1.4,0c-5.53-11.6-12.52-23-12.52-29.65a13.22,13.22,0,1,1,26.44,0Z" style="fill: #388aed"/>
      <g id="imKnS0">
        <path d="M23,6.58l2.19,6c-1.08.94-2.92,1.89-2.83,2.61.23,2,1.27,3.93,2,6,1-.37,1.61-.55,2.18-.81a1.57,1.57,0,0,1,2.48,1,12.24,12.24,0,0,1,.66,1.84c.2,1.12.62,3.13.34,3.24a11.06,11.06,0,0,1-4.58.81,4.17,4.17,0,0,1-2.36-1.64,22.21,22.21,0,0,1-5.37-13.16C17.57,8.79,18.88,7.39,23,6.58Z" style="fill: #fff"/>
      </g>
    </g>
  </g>
</svg>
