<?xml version="1.0" encoding="utf-8"?>
<!-- Generator: Adobe Illustrator 22.1.0, SVG Export Plug-In . SVG Version: 6.00 Build 0)  -->
<svg version="1.1" id="Layer_1" xmlns="http://www.w3.org/2000/svg" xmlns:xlink="http://www.w3.org/1999/xlink" x="0px" y="0px"
	 viewBox="0 0 48 48" enable-background="new 0 0 48 48" xml:space="preserve">
<title>cassandra</title>
<path fill="#BBE5FA" d="M38.2,20c0.3,4-5.9,7.8-14,8.5s-14.9-2-15.3-6s5.9-7.8,14-8.5S37.9,16,38.2,20"/>
<g>
	<defs>
		<rect id="SVGID_1_" x="13.4" y="14.4" width="19.1" height="13.4"/>
	</defs>
	<clipPath id="SVGID_2_">
		<use xlink:href="#SVGID_1_"  overflow="visible"/>
	</clipPath>
	<g clip-path="url(#SVGID_2_)">
		<g opacity="0.35">
			<path fill="#FFFFFF" d="M23.2,14.4c-3.1,0-6.7,1.2-9.4,2.3c-0.3,0.8-0.4,1.7-0.4,2.5c0,4.7,4.3,8.6,9.5,8.6s9.5-3.8,9.5-8.6
				c0-1.5-0.4-2.9-1.2-4.1C28.6,14.8,25.9,14.5,23.2,14.4"/>
		</g>
	</g>
</g>
<path fill="#FFFFFF" d="M23,14.4c-1.7-0.1-4.6,0.8-7.1,1.7C15.5,17,15.3,18,15.3,19c0.2,4.2,3.6,7.4,7.7,7.5
	c4.1-0.1,7.5-3.4,7.8-7.5c0-1.3-0.3-2.6-1-3.7C27.5,14.9,25.3,14.6,23,14.4"/>
<path fill="#1486B0" d="M18.5,18.8c0.2-0.5,0.5-0.9,0.8-1.3c0-0.1-0.1-0.2-0.1-0.3c0-0.5,0.4-0.9,0.9-0.9l0,0c0.1,0,0.2,0,0.3,0.1
	c1.4-1.1,3.3-1.5,5.1-1.1l0.5,0.1c-1.8-0.2-3.7,0.3-5.1,1.4c0,0.1,0.1,0.2,0.1,0.3c0,0.5-0.4,0.8-0.8,0.8l0,0c-0.1,0-0.2,0-0.3,0
	c-0.3,0.4-0.6,0.9-0.8,1.4c0.7,0.7,1.5,1.2,2.4,1.5c0,0,0-0.1,0-0.1c0-1.4,1.1-2.6,2.5-2.6c1.3,0,2.3,0.9,2.5,2.2
	c0.6-0.4,1.2-0.9,1.6-1.5c-0.1-0.1-0.2-0.3-0.2-0.5c0-0.4,0.3-0.8,0.7-0.8c0,0,0,0,0,0h0.2c0.2-0.5,0.4-1,0.5-1.5
	c-2.2-1.6-6.4-1.4-6.4-1.4c-1.9-0.1-3.9,0.2-5.7,0.9C17.4,16.9,17.9,17.9,18.5,18.8"/>
<path fill="#1486B0" d="M29.2,17.9c0.2,0.1,0.3,0.4,0.3,0.6c0,0.4-0.3,0.8-0.8,0.8c0,0,0,0,0,0h-0.1c-0.5,0.7-1.1,1.4-1.9,1.9
	c1.1,0.2,2.1,0.6,3,1.3c0.7-1.1,1-2.4,1-3.8c0-0.9-0.4-1.8-1.2-2.4C29.5,16.9,29.4,17.4,29.2,17.9"/>
<path fill="#1486B0" d="M20,25.1c0.4-1.1,1-2,1.9-2.7c-0.1-0.2-0.2-0.4-0.3-0.6c-1.1-0.3-2-0.9-2.8-1.8c0,0,0,0,0,0.1
	c-0.2,0.6-0.2,1.2-0.1,1.9c0.5,0.1,0.9,0.6,0.9,1.1c0,0.3-0.1,0.6-0.4,0.8C19.4,24.3,19.7,24.7,20,25.1"/>
<path fill="#1486B0" d="M19.8,25.7c-0.4-0.4-0.8-1-1.1-1.5h-0.2c-0.6,0-1.1-0.5-1.1-1.1c0-0.4,0.2-0.8,0.6-1
	c-0.1-0.7-0.1-1.4,0.1-2.1c0-0.2,0.1-0.4,0.2-0.6c-0.7-1-1.1-2.2-1.1-3.5c0,0,0-0.1,0-0.1c-1.2,0.5-2,1.6-2,2.9
	C15.2,21.7,17,24.5,19.8,25.7L19.8,25.7"/>
<path fill="#1486B0" d="M26.3,21.8c-0.4,1.3-1.9,2-3.2,1.6c-0.3-0.1-0.6-0.2-0.8-0.4c-0.9,0.7-1.6,1.6-2,2.7
	c0.2,0.2,0.4,0.4,0.6,0.6c3.2,0.8,6.6-0.5,8.4-3.3C28.5,22.3,27.4,21.9,26.3,21.8"/>
<g>
	<defs>
		<rect id="SVGID_3_" x="18.9" y="16.1" width="9.9" height="9.9"/>
	</defs>
	<clipPath id="SVGID_4_">
		<use xlink:href="#SVGID_3_"  overflow="visible"/>
	</clipPath>
	<g clip-path="url(#SVGID_4_)">
		<path fill="#FFFFFF" d="M26.4,21.1l2.4-0.6l-2.4-0.1l1.9-1.5l-2.2,0.8l1.5-2L25.6,19l0.7-2.4l-1.4,2v-2.5L24,18.3l-0.8-2.2l0,2.6
			l-1.3-2.4l0.7,2.5l-2.2-1.6l1.7,2.1l-2.7-1l2.1,1.6l-2.7,0.1l2.8,0.7l-2.8,0.6l2.8,0.2l-2.3,1.5l2.4-0.9L20,24.3l2.1-1.7l-0.8,2.8
			l1.7-2.3l-0.2,2.7l0.9-2.5l0.8,2.6l0.2-2.6l1.1,2.2l-0.7-2.5l2.1,1.6l-1.4-2.1l2.3,0.9l-1.8-1.8l2.4,0.2L26.4,21.1z"/>
	</g>
</g>
<g>
	<defs>
		<rect id="SVGID_5_" x="1.4" y="12.2" width="45.9" height="13.4"/>
	</defs>
	<clipPath id="SVGID_6_">
		<use xlink:href="#SVGID_5_"  overflow="visible"/>
	</clipPath>
</g>
<path fill="#373535" d="M1.7,25c7.3-7.3,13.1-9.5,18.4-10.5c0.7-0.1,0.8-1.7,0.8-1.7s0.1,1.1,0.6,1.3s1.1-1.8,1.1-1.8
	s-0.6,1.7,0,1.8s1.7-1.7,1.7-1.7s-0.4,1.5-0.1,1.6s1.8-2.2,1.8-2.2s-0.9,1.5,0,1.7s2-1,2-1s-1,1.1-0.5,1.2c1.8,0.6,3.3-1.7,3.3-1.7
	c-0.3,0.8-0.7,1.5-1.2,2.2c1.9,0.5,3.3-2.4,3.3-2.4l-1.4,2.9c0.7,0.4,3.7-3,3.7-3s-1.5,2.7-2.4,3.2c0.5,0.4,2.2-1.2,2.2-1.2
	s-1.4,1.8-0.9,1.9c0.8,0.6,3.7-3.3,3.7-3.3c-0.8,1.5-1.7,2.9-2.8,4.1c1.4,0.7,4.8-3.8,4.8-3.8s-0.1,1.4-2.6,3.7
	c1.9-0.3,4.3-3.8,4.3-3.8c-0.6,1.7-1.7,3.3-3,4.5c1.8-0.2,4.8-4.7,4.8-4.7c-0.7,1.9-1.9,3.6-3.4,4.9C42.3,17.8,46,14,46,14
	c-0.8,1.5-2,2.8-3.3,3.8c2.1,0.8,5-2.5,5-2.5s-2.9,4.5-7.5,4.2c-1.5-0.1-6.1-4.6-15.9-4.2C11.4,15.8,8.7,21.3,1.7,25"/>
<g>
	<defs>
		<rect id="SVGID_7_" x="1.2" y="20.3" width="43.1" height="16"/>
	</defs>
	<clipPath id="SVGID_8_">
		<use xlink:href="#SVGID_7_"  overflow="visible"/>
	</clipPath>
</g>
<path fill="#373535" d="M1.1,26c3.8,1.9,7.4-0.3,11.8,1c3.4,1,7.5,2.1,13.1,1.3s10.4-3.3,12.6-7.6c0.7-1.9,3.6,0.4,3.6,0.4
	s-2.1-0.9-2.1-0.5s3.2,1.9,3.2,1.9s-2.8-0.9-2.6-0.2s3.5,3.3,3.5,3.3s-3.8-2.9-4.1-2.5s1.6,2,1.6,2s-3.2-2-4.3-1.4
	c-0.8,0.4,3.3,3.1,3.3,3.1s-2.7-2.1-3.3-1.5s3,4.9,3,4.9s-4.2-4.5-4.6-4.3s1.2,2.4,1.2,2.4s-2.1-2.2-2.6-1.9s2.9,6.2,2.9,6.2
	s-3.8-6-5.4-5c2.5,5.4,1.5,6.2,1.5,6.2s-0.3-5.5-3.4-5.4c-1.5,0.1,0.7,4.1,0.7,4.1s-2.1-3.7-3.5-3.6c2.6,4.9,1.7,6.9,1.7,6.9
	c0.2-2.5-1-5-3.1-6.5c1.3,1.2-0.8,6.5-0.8,6.5s1.9-7.8-1.4-6.3c-0.5,0.2,0,3.9,0,3.9s-0.7-4.2-1.6-4c-0.6,0.1-3.7,5.8-3.7,5.8
	s2.5-6.1,1.8-5.9c-0.6,0.2-1.6,2.7-1.6,2.7s0.5-2.5,0-2.6s-3.4,2.6-3.4,2.6s2.1-2.5,1.8-3c-0.4-0.7-1.3-0.9-2-0.5
	c-1,0.7-1.9,1.5-2.6,2.5c0,0,1.5-2.1,1.2-2.9C13,27,8.7,30.6,8.7,30.6s2.6-2.4,2-2.9s-3.8-0.4-4.8-0.4C3,27.3,2,26.6,1.1,26"/>
</svg>
