<svg id="CURRENT" xmlns="http://www.w3.org/2000/svg" viewBox="0 0 48 48">
  <title>mscommondataservice</title>
  <g>
    <path d="M39.61,11.41c0-2.72-6-5.63-15-5.63-8.69,0-14.6,2.72-15,5.37h0v.18s0,.05,0,.08,0,.05,0,.08V38.44c0,3.48,6.45,6.1,15,6.1s15-2.62,15-6.1V11.81h0A1.84,1.84,0,0,0,39.61,11.41Zm-15-4.06C33.46,7.35,38,10.19,38,11.41s-4.58,4.06-13.45,4.06-13.44-2.85-13.44-4.06S15.72,7.35,24.59,7.35Zm0,35.73c-8,0-13.54-2.45-13.54-4.64V31.53c2.37,2,7.41,3.4,13.54,3.4s11.18-1.35,13.54-3.4v6.91C38.13,40.63,32.57,43.08,24.59,43.08Zm0-9.61c-8,0-13.54-2.44-13.54-4.64V22.47c2.37,2.05,7.41,3.41,13.54,3.41s11.18-1.36,13.54-3.41v6.36C38.13,31,32.57,33.47,24.59,33.47Zm0-9.06c-8,0-13.54-2.44-13.54-4.64v-6C13.36,15.58,18.23,17,24.59,17s11.23-1.46,13.54-3.28v6C38.13,22,32.57,24.41,24.59,24.41Z" style="fill: #722472"/>
    <path d="M24.53,14.15c-5.28,0-10.9-1-10.9-2.86s5.62-2.86,10.9-2.86,10.9,1,10.9,2.86S29.81,14.15,24.53,14.15Zm0-5.15c-6.09,0-10.34,1.21-10.34,2.29s4.25,2.3,10.34,2.3,10.34-1.21,10.34-2.3S30.62,9,24.53,9Z" style="fill: #722472"/>
  </g>
</svg>
