<svg id="Layer_1" data-name="Layer 1" xmlns="http://www.w3.org/2000/svg" viewBox="0 0 48 48">
  <title>chargeover</title>
  <g id="_5Y4vH8.tif" data-name="5Y4vH8.tif">
    <g>
      <path d="M22.8,17.58l-4,3.12c-1.4-1.38-2.9-2.67-4.91-2.23a6.09,6.09,0,0,0-3,1.75c-1.82,2-1.56,5.67.32,7.52s4.85,1.57,7.76-1.09l4,2.82c-1.23,2.81-5.69,5.63-11.23,4.37a10,10,0,0,1-7.81-9.57A10.25,10.25,0,0,1,11,13.79C15.73,12.42,20.85,14,22.8,17.58Z" style="fill: #283c91"/>
      <path d="M29.44,35.45l.3-1.9c-.33-.18-.67-.41-1-.57a10.42,10.42,0,0,1-3-17.25c.73-.71,1.17-.7,1.74.12A17.59,17.59,0,0,0,29.2,18c.57.6.58,1,0,1.63a5.19,5.19,0,0,0,1,7.73,1.49,1.49,0,0,0,.44.09L31,25.13l7.18,7Z" style="fill: #f2683e"/>
      <path d="M36.49,10.8s-.42,2.4-.39,2.41a19.31,19.31,0,0,1,2.33.67c6,3.2,7.08,11.84,2.16,16.51a5.75,5.75,0,0,1-.61.43l-3.33-3.5c2.44-3.53,1.77-7.43-1.55-8.58l-.59,2.15-6.6-7.5C30.87,12.48,36.49,10.8,36.49,10.8Z" style="fill: #f2683e"/>
    </g>
  </g>
</svg>
