<svg xmlns="http://www.w3.org/2000/svg" viewBox="0 0 48 48">
  <title>chatwork</title>
  <g id="Layer_3" data-name="Layer 3">
    <g>
      <path d="M26.37,28.83a.7.7,0,0,0-.69-.7c-3,0-5.88-.15-8.77.05a8.35,8.35,0,0,0-7.68,8.53,8.59,8.59,0,0,0,7.65,8.63c4.44.47,8.88-2.53,9.41-6.88A73.31,73.31,0,0,0,26.37,28.83Z" style="fill: #f03748"/>
      <path d="M19.84,25.67a.71.71,0,0,1-.69.7,75.22,75.22,0,0,1-9.64-.09c-4.34-.53-7.34-5-6.87-9.41a8.59,8.59,0,0,1,8.63-7.65A8.36,8.36,0,0,1,19.8,16.9C20,19.79,19.86,22.71,19.84,25.67Z" style="fill: #f03748"/>
      <path d="M22.45,19.87a.79.79,0,0,1-.78-.78,72.08,72.08,0,0,1,.09-9.55c.53-4.35,5-7.35,9.41-6.88a8.6,8.6,0,0,1,7.65,8.63,8.36,8.36,0,0,1-7.69,8.53C28.27,20,25.39,19.89,22.45,19.87Z" style="fill: #e1e3e6"/>
      <path d="M28.16,22.4a.82.82,0,0,1,.81-.81,71.64,71.64,0,0,1,9.52.09c4.34.53,7.34,5,6.87,9.41a8.59,8.59,0,0,1-8.63,7.65,8.36,8.36,0,0,1-8.53-7.68C28,28.2,28.13,25.33,28.16,22.4Z" style="fill: #f03748"/>
    </g>
  </g>
</svg>
