<svg id="Layer_1" data-name="Layer 1" xmlns="http://www.w3.org/2000/svg" viewBox="0 0 48 48"><defs><style>.cls-1{fill:#2095f2;}</style></defs><title>clicktime</title><path class="cls-1" d="M41.93,32.08C39.39,16.78,24.07,5.85,8.77,8.43A2.93,2.93,0,0,0,6.05,12c1.07,6.68,3.71,21.3,4.63,26.4a1.87,1.87,0,0,0,2.13,1.53c5.12-.77,19.76-3,26.37-4C41.34,35.57,42.28,34.23,41.93,32.08ZM11.12,15.77a1.46,1.46,0,0,1-1.68-1.2L9,12.08a1.47,1.47,0,0,1,2.89-.49l.42,2.49A1.46,1.46,0,0,1,11.12,15.77Zm12.26-1.26-1.12,2.26a1.46,1.46,0,0,1-2.62-1.3l1.12-2.26a1.46,1.46,0,1,1,2.62,1.3Zm10.34,7.77-1.93,1.63a1.46,1.46,0,1,1-1.88-2.23l1.92-1.63a1.46,1.46,0,1,1,1.89,2.23Zm4.91,11.1-2.47.53a1.46,1.46,0,1,1-.62-2.86L38,30.52a1.46,1.46,0,0,1,.62,2.86Z"/></svg>