<svg xmlns="http://www.w3.org/2000/svg" viewBox="0 0 48 48">
  <title>Artboard 345</title>
  <g id="Salesforce_Pardot" data-name="Salesforce Pardot">
    <g id="Vector">
      <g id="Vector-2" data-name="Vector">
        <path id="path0_fill" data-name="path0 fill" d="M29.15,18.37,37.81,9.7l2.48,2.48-8.66,8.67Zm-3.51,8.86a3.09,3.09,0,1,1,3.07-3.08A3.08,3.08,0,0,1,25.64,27.23Zm14.69,9-2.48,2.48L29.19,30l2.48-2.48Z" style="fill: #222"/>
      </g>
    </g>
    <path d="M25.73,37.49a13,13,0,0,0,4.93-1l4.24,4.24a18.87,18.87,0,1,1-.09-33L30.65,11.9a13,13,0,0,0-4.92-1,13.28,13.28,0,0,0,0,26.55Z" style="fill: #03a9f4"/>
  </g>
</svg>
