<svg id="Layer_1" data-name="Layer 1" xmlns="http://www.w3.org/2000/svg" viewBox="0 0 48 48"><title>close</title><path d="M40.5,25.29V23.91a5,5,0,0,0-1.37-3.3,10,10,0,0,0-1.77-1.54,14.26,14.26,0,0,0-1.27-.77Q35.6,18,35,17.79a21,21,0,0,0-3.11-1.11q.2.72.36,1.47c.1.5.2,1,.28,1.53a15.48,15.48,0,0,1,1.73.66c.26.11.51.22.75.35l.39.19c.43.24.83.48,1.19.73a5.61,5.61,0,0,1,2.41,3,5.61,5.61,0,0,1-2.41,3c.14.37.27.74.37,1.1a13.77,13.77,0,0,1,.36,1.44,9.65,9.65,0,0,0,1.77-1.54,5,5,0,0,0,1.37-3.3" style="fill:#2f577e"/><path d="M20.39,33.34q-.86-.68-1.68-1.44c.11.43.24.85.37,1.26.43.07.87.13,1.31.18" style="fill:#2f577e"/><path d="M23.35,32.16l.66.46c.41.28.83.54,1.25.79l.16.1c.75,0,1.49-.09,2.21-.17.44-.05.87-.11,1.3-.18s1-.17,1.52-.28,1-.22,1.48-.35A22.16,22.16,0,0,0,35,31.42a10.63,10.63,0,0,0-.32-1.36c0-.14-.09-.27-.13-.41s-.18-.52-.29-.78c-.55.24-1.13.46-1.73.66-.41.13-.84.26-1.27.37l-.18.05c-.47.12-.95.22-1.45.32l-.79.14c-.76.12-1.55.22-2.35.28s-1.67.1-2.52.1-1.7,0-2.52-.1q.92.78,1.86,1.47" style="fill:#2f577e"/><path d="M13.3,19.15c0,.13.08.27.13.41s.18.52.28.78q.82-.36,1.74-.66c.41-.14.83-.26,1.26-.37l.18,0c.47-.12,1-.23,1.45-.32l.79-.14c.77-.13,1.55-.22,2.36-.28s1.66-.1,2.52-.1,1.69,0,2.52.1c-.62-.53-1.24-1-1.87-1.47L24,16.59c-.42-.28-.84-.55-1.26-.8l-.16-.09c-.75,0-1.48.09-2.2.17L19.08,16c-.52.08-1,.18-1.52.28s-1,.23-1.48.36A21,21,0,0,0,13,17.79a11.14,11.14,0,0,0,.33,1.36" style="fill:#2f577e"/><path d="M27.63,15.87c.56.45,1.12.93,1.67,1.44-.11-.44-.23-.86-.37-1.27l-1.3-.17" style="fill:#2f577e"/><path d="M9,24.6a5.61,5.61,0,0,1,2.41-3c-.14-.37-.26-.74-.37-1.1a11.57,11.57,0,0,1-.35-1.44,9.69,9.69,0,0,0-1.77,1.54,5,5,0,0,0-1.38,3.3v1.38a5,5,0,0,0,1.38,3.3,9.69,9.69,0,0,0,1.77,1.54,11.88,11.88,0,0,0,1.27.77c.33.18.68.35,1,.51a21,21,0,0,0,3.11,1.11c-.13-.48-.25-1-.35-1.47s-.2-1-.28-1.52q-.91-.3-1.74-.66L13,28.52l-.38-.2c-.44-.24-.83-.48-1.2-.73A5.61,5.61,0,0,1,9,24.6" style="fill:#2f577e"/><path d="M27.63,33.33c-.72.08-1.46.14-2.21.17.39.23.77.44,1.16.63.35-.25.7-.52,1.05-.8" style="fill:#f4b563"/><path d="M36.16,13.43l-1-1a5,5,0,0,0-3.3-1.36,9.54,9.54,0,0,0-2.34.16,14.59,14.59,0,0,0-1.45.36c-.36.1-.72.23-1.1.37a21.09,21.09,0,0,0-3,1.42c.43.24.86.51,1.29.79s.85.57,1.28.88a16.63,16.63,0,0,1,1.69-.76c.26-.11.52-.2.78-.29l.41-.13a12.74,12.74,0,0,1,1.36-.33,5.6,5.6,0,0,1,3.82.41" style="fill:#f4b563"/><path d="M34.64,14a5.55,5.55,0,0,1,.4,3.82q.55.24,1.05.51a14.26,14.26,0,0,1,1.27.77,9.54,9.54,0,0,0,.16-2.34,5.07,5.07,0,0,0-1.36-3.31,4.42,4.42,0,0,0-.53-.44" style="fill:#f4b563"/><path d="M28.88,30.41l.79-.14c.5-.1,1-.2,1.45-.32l.18-.05q.76-.82,1.44-1.68c.28-.35.55-.7.8-1s.6-.85.88-1.27.54-.87.79-1.3a21.09,21.09,0,0,0,1.42-3,10.45,10.45,0,0,0-1.19-.73l-.39-.2c-.24-.12-.49-.24-.75-.35A17.94,17.94,0,0,1,33.54,22c-.19.39-.41.77-.63,1.16l-.09.16c-.25.42-.52.84-.8,1.25l-.46.66q-.68.94-1.47,1.86c-.53.63-1.11,1.25-1.71,1.86s-1.22,1.17-1.85,1.71c.8-.06,1.59-.16,2.35-.28" style="fill:#f4b563"/><path d="M20.39,15.87c.72-.08,1.45-.14,2.2-.17-.38-.23-.77-.44-1.15-.63-.35.25-.7.52-1.05.8" style="fill:#f4b563"/><path d="M13.38,35.23A5.58,5.58,0,0,1,13,31.42c-.36-.17-.71-.34-1-.52a11.88,11.88,0,0,1-1.27-.77,9.1,9.1,0,0,0-.16,2.34,5,5,0,0,0,1.36,3.31l1,1a5,5,0,0,0,3.3,1.36A9.15,9.15,0,0,0,18.48,38a14.3,14.3,0,0,0,1.44-.35c.36-.11.73-.23,1.1-.37a23,23,0,0,0,3-1.42c-.43-.25-.87-.51-1.3-.8s-.85-.56-1.27-.87c-.57.29-1.14.54-1.7.76-.26.1-.52.2-.78.28l-.41.13a12.74,12.74,0,0,1-1.36.33,5.56,5.56,0,0,1-3.81-.41" style="fill:#f4b563"/><path d="M12.58,28.32l.38.19c.24.13.49.24.75.35.22-.56.47-1.12.76-1.69.2-.39.41-.77.63-1.16,0-.05.07-.1.1-.16.25-.41.51-.83.79-1.25l.46-.66c.46-.62.95-1.25,1.47-1.86s1.11-1.25,1.71-1.85,1.23-1.18,1.86-1.72c-.81.07-1.59.16-2.36.29l-.79.13c-.49.1-1,.21-1.45.33l-.18,0q-.77.84-1.44,1.68c-.28.35-.54.7-.8,1.05s-.6.85-.88,1.27-.54.87-.79,1.3a22.35,22.35,0,0,0-1.42,3c.37.25.76.49,1.2.73" style="fill:#f4b563"/><path d="M15.27,28.22c-.08-.72-.14-1.46-.17-2.21-.22.39-.43.77-.63,1.16.26.35.52.7.8,1" style="fill:#5cafcd"/><path d="M13.38,14a5.52,5.52,0,0,1,3.81-.4c.17-.37.34-.72.52-1.05a14.26,14.26,0,0,1,.77-1.27,9.62,9.62,0,0,0-2.35-.16,5,5,0,0,0-3.3,1.36,5.72,5.72,0,0,0-.45.53,5.72,5.72,0,0,1,.45-.53l-1,1a5,5,0,0,0-1.36,3.3,9.07,9.07,0,0,0,.16,2.34A12.16,12.16,0,0,0,11,20.52c.11.36.23.72.37,1.1a22.25,22.25,0,0,0,1.42,3c.25-.43.51-.86.79-1.29s.57-.85.88-1.28c-.29-.57-.54-1.13-.76-1.69-.1-.26-.2-.52-.28-.78s-.09-.27-.13-.41A11.14,11.14,0,0,1,13,17.79,5.6,5.6,0,0,1,13.38,14" style="fill:#5cafcd"/><path d="M32.74,21c.08.72.14,1.46.17,2.21.22-.39.44-.77.63-1.16-.25-.35-.52-.7-.8-1.05" style="fill:#5cafcd"/><path d="M29.81,19.72c0-.26-.09-.52-.14-.78-.09-.5-.2-1-.32-1.46,0-.06,0-.12-.05-.18-.55-.5-1.11-1-1.67-1.43-.35-.28-.7-.55-1.05-.8s-.85-.61-1.28-.88-.86-.55-1.29-.79A21.72,21.72,0,0,0,21,12a12.11,12.11,0,0,0-.73,1.19l-.2.38c-.12.25-.24.5-.35.75.56.22,1.13.48,1.7.77.38.19.77.4,1.15.63l.16.09c.42.25.84.52,1.26.8l.65.46c.63.45,1.25.94,1.87,1.46s1.25,1.11,1.85,1.72,1.18,1.22,1.71,1.85c-.06-.8-.16-1.59-.28-2.36" style="fill:#5cafcd"/><path d="M18.2,29.48c.05.26.09.53.14.79.1.49.2,1,.32,1.45a1.21,1.21,0,0,1,.05.18c.55.5,1.11,1,1.68,1.43q.52.42,1.05.81c.42.3.85.6,1.27.87s.87.55,1.3.79a20,20,0,0,0,3,1.42A10.45,10.45,0,0,0,27.72,36c.07-.12.14-.25.2-.38s.24-.5.35-.75c-.56-.22-1.12-.48-1.69-.76-.39-.2-.77-.41-1.16-.64l-.16-.09c-.42-.25-.84-.51-1.25-.8l-.66-.46c-.63-.45-1.25-.94-1.86-1.46S20.24,29.58,19.63,29s-1.17-1.22-1.71-1.85c.06.81.16,1.59.28,2.36" style="fill:#5cafcd"/><path d="M35.18,36.75l1-1a5.07,5.07,0,0,0,1.36-3.31,9.57,9.57,0,0,0-.16-2.34A13.77,13.77,0,0,0,37,28.69c-.1-.36-.23-.73-.37-1.1a21.72,21.72,0,0,0-1.42-3c-.25.43-.51.86-.79,1.3s-.57.85-.88,1.27c.29.57.54,1.14.76,1.7.11.26.2.52.29.78l.13.4A11.17,11.17,0,0,1,35,31.42a5.52,5.52,0,0,1-.4,3.81,5.6,5.6,0,0,1-3.82.41c-.16.36-.33.71-.51,1s-.5.88-.77,1.27a9.54,9.54,0,0,0,2.34.16,5,5,0,0,0,3.3-1.36" style="fill:#5cafcd"/><path d="M16.45,24,16,24.6c-.28.42-.54.84-.79,1.26,0,.05-.07.1-.1.16,0,.75.09,1.48.17,2.2.05.44.11.88.18,1.31s.17,1,.28,1.52.22,1,.35,1.47a22.3,22.3,0,0,0,1.11,3.12,12.74,12.74,0,0,0,1.36-.33l.41-.13c.26-.08.52-.18.78-.28q-.36-.82-.66-1.74c-.13-.41-.26-.83-.37-1.26a1.21,1.21,0,0,0-.05-.18c-.12-.47-.22-1-.32-1.45-.05-.26-.09-.53-.14-.79-.12-.77-.22-1.55-.28-2.36s-.1-1.66-.1-2.52,0-1.69.1-2.52c-.52.61-1,1.24-1.47,1.87" style="fill:#47b178"/><path d="M32.74,28.22q-.68.84-1.44,1.68c.43-.12.86-.24,1.27-.37.06-.43.12-.87.17-1.31" style="fill:#47b178"/><path d="M15.27,21c.45-.56.93-1.12,1.44-1.67-.43.11-.85.23-1.26.37-.07.43-.13.86-.18,1.3" style="fill:#47b178"/><path d="M31.56,25.26,32,24.6c.28-.41.55-.83.8-1.25l.09-.16c0-.75-.09-1.49-.17-2.21-.05-.44-.11-.87-.17-1.3s-.18-1-.28-1.52-.23-1-.36-1.48a21,21,0,0,0-1.11-3.11,10.63,10.63,0,0,0-1.36.32l-.41.13c-.26.09-.52.18-.78.29.24.55.46,1.13.66,1.73.14.41.26.84.37,1.27,0,.06,0,.12.05.18.12.47.23,1,.32,1.45,0,.26.1.52.14.79.12.76.22,1.55.28,2.35s.1,1.67.1,2.52,0,1.7-.1,2.52q.8-.91,1.47-1.86" style="fill:#47b178"/><path d="M29.54,11.25A9.68,9.68,0,0,0,28,9.48a5,5,0,0,0-3.3-1.37H23.32A5,5,0,0,0,20,9.48a9.28,9.28,0,0,0-1.54,1.77,13,13,0,0,0-.77,1.27c-.18.33-.35.68-.52,1a22.3,22.3,0,0,0-1.11,3.12c.48-.13,1-.25,1.48-.36s1-.2,1.52-.28q.3-.91.66-1.74c.11-.25.23-.5.35-.75l.2-.38A12.11,12.11,0,0,1,21,12a5.56,5.56,0,0,1,3-2.41A5.55,5.55,0,0,1,27,12c.38-.14.74-.27,1.1-.38" style="fill:#47b178"/><path d="M23.32,41.1h1.37A5,5,0,0,0,28,39.72,9.36,9.36,0,0,0,29.54,38a13.77,13.77,0,0,0,.77-1.27c.18-.33.35-.68.51-1a21.1,21.1,0,0,0,1.11-3.12l-1.48.36c-.49.11-1,.2-1.52.28q-.3.92-.66,1.74c-.11.25-.23.51-.35.75s-.13.26-.2.38A10.45,10.45,0,0,1,27,37.22a5.55,5.55,0,0,1-3,2.41,5.56,5.56,0,0,1-3-2.41c-.37.15-.74.27-1.1.38L18.48,38A9,9,0,0,0,20,39.72a5,5,0,0,0,3.3,1.38" style="fill:#47b178"/></svg>