<svg xmlns="http://www.w3.org/2000/svg" xmlns:xlink="http://www.w3.org/1999/xlink" viewBox="0 0 48 48"><defs><linearGradient id="a" x1="24.24" y1="35.85" x2="24.24" y2="9.33" gradientUnits="userSpaceOnUse"><stop offset="0" stop-color="#dddedf"/><stop offset="1" stop-color="#ebebec"/></linearGradient><linearGradient id="b" x1="24.98" y1="35.15" x2="24.98" y2="12.84" gradientUnits="userSpaceOnUse"><stop offset="0" stop-color="#e4e5e6"/><stop offset="0.06" stop-color="#e5e6e7"/><stop offset="0.58" stop-color="#ebebec"/><stop offset="1" stop-color="#f2f2f2"/></linearGradient></defs><title>cloud</title><path d="M40.13,22.79a12.35,12.35,0,0,0,.12-1.62,11.85,11.85,0,0,0-21.52-6.84A8.47,8.47,0,0,0,16.24,14a8.66,8.66,0,0,0-8.65,8.66c0,.12,0,.24,0,.36a6.59,6.59,0,0,0,2,12.87H38.87a6.59,6.59,0,0,0,1.26-13.06Z" style="stroke:#a6a8ab;stroke-miterlimit:10;stroke-width:0.453941660008763px;fill:url(#a)"/><path d="M39.18,22.18l0,.25.15,0,.24.05a11.35,11.35,0,0,0-3.37-9.67,11.28,11.28,0,0,1,3.13,7.8A11.63,11.63,0,0,1,39.18,22.18Zm3.74,2.46a6.07,6.07,0,0,1-4.5,10.16H9.16a6,6,0,0,1-4-1.56,6,6,0,0,0,4.41,1.91H38.77a6.07,6.07,0,0,0,4.15-10.51Z" style="fill:url(#b)"/></svg>