<svg id="d720bbd0-0f62-4d39-a91c-88b0f02b934f"   xmlns="http://www.w3.org/2000/svg" viewBox="0 0 48 48">
  <defs>
    <style>
      .\32 5be171b-34de-4b7c-811f-86501e9ab28b {
        fill: #006993;
      }
    </style>
  </defs>
  <title>cloudera impala</title>
  <g>
    <path class="25be171b-34de-4b7c-811f-86501e9ab28b" d="M29.11,1.9a16.74,16.74,0,0,1,4,7.9,17,17,0,0,1,0,7,1.72,1.72,0,0,1-.49.83,16.94,16.94,0,0,0-3.8,4.79A12.84,12.84,0,0,0,28,25c-.05.24.13.73.3.78a1,1,0,0,0,.9-.21A30,30,0,0,0,31.51,23c.76-1,1.43-2,2.18-3,.43,2.48-.32,5.77-2.32,6.84a3.21,3.21,0,0,0-.75.68c-1.23,1.31-1.14,2.29.28,3.28A4,4,0,0,0,29.13,34a29.78,29.78,0,0,1-1.94,9.37,3.76,3.76,0,0,1-2.54,2.19c.57-1.37-.36-1.58-1.2-1.9a.9.9,0,0,1,.23,0c.47,0,.89-.05,1-.6A1.17,1.17,0,0,0,24,41.76c-.82-.48-.83-.51-.84-1.35a12.89,12.89,0,0,1,1,1c.34.41.6.34.95,0a2,2,0,0,0,.7-2.08,9.34,9.34,0,0,1,1.33-7.87,2.7,2.7,0,0,0,.07-3.13c-.17-.29-.33-.59-.51-.87a5.51,5.51,0,0,1-.17-6.09A21.14,21.14,0,0,1,29.65,17a5.77,5.77,0,0,0,1.59-3.72A18.82,18.82,0,0,0,29.11,2.18S29.11,2.09,29.11,1.9Z"/>
    <path class="25be171b-34de-4b7c-811f-86501e9ab28b" d="M20.26,26.65A8.49,8.49,0,0,0,19,21.5c-.9-1.35-2-2.55-3-3.84a2.56,2.56,0,0,1-.58-1,17.22,17.22,0,0,1,4.06-14.8s.07,0-.05-.1c-.61,1.78-1.32,3.54-1.78,5.36a18.06,18.06,0,0,0,0,8.24,1.86,1.86,0,0,0,.47.78,17.26,17.26,0,0,1,4,5.88,8.07,8.07,0,0,1,.45,2.17C22.62,25.56,21.82,26.43,20.26,26.65Z"/>
    <path class="25be171b-34de-4b7c-811f-86501e9ab28b" d="M19.16,30.81a1.52,1.52,0,0,1,2.51.75c.49,1.29.78,2.64,1.15,4l-.22.06c-.34-.81-.68-1.62-1-2.44a1,1,0,0,0-.82-.68,1.88,1.88,0,0,1-.84-.64A10.89,10.89,0,0,1,19.16,30.81Z"/>
    <path class="25be171b-34de-4b7c-811f-86501e9ab28b" d="M18.4,26.75a6.14,6.14,0,0,1-3.17-4.82C16.84,23.16,17.57,25,18.4,26.75Z"/>
  </g>
</svg>
