<svg id="dc81ad27-da3e-4666-adcc-fba2a23e13ff" data-name="Icons" xmlns="http://www.w3.org/2000/svg" viewBox="0 0 108 72">
  <title>clubhouse</title>
  <g>
    <path d="M14.5,33.28l-1.4,1.2A4,4,0,0,0,10,33.09a4.12,4.12,0,0,0-2.88,7A3.9,3.9,0,0,0,10,41.21a4,4,0,0,0,3.17-1.43L14.53,41A6,6,0,0,1,10,43.07,6,6,0,0,1,5.67,41.4a6,6,0,0,1,0-8.46A6,6,0,0,1,10,31.24a5.79,5.79,0,0,1,4.54,2"/>
    <path d="M15.47,42.86l0-11.44h2l0,11.44Z"/>
    <path d="M19,34.58h2V39.4a1.66,1.66,0,0,0,1.81,1.85,1.66,1.66,0,0,0,1.8-1.87V34.57h2V39.5a3.29,3.29,0,0,1-1.08,2.65,4.1,4.1,0,0,1-2.72.91,4,4,0,0,1-2.71-.9A3.21,3.21,0,0,1,19,39.57Z"/>
    <path d="M34.22,40.49a2.45,2.45,0,0,0,.7-1.81,2.42,2.42,0,0,0-.71-1.8,2.29,2.29,0,0,0-1.74-.72,2.5,2.5,0,0,0-1.8.73,2.43,2.43,0,0,0-.72,1.8,2.46,2.46,0,0,0,2.53,2.52,2.29,2.29,0,0,0,1.74-.72Zm-6.08,2.34,0-11.43h2v4.37a2.62,2.62,0,0,1,2.64-1.39,3.89,3.89,0,0,1,2.94,1.24,4.57,4.57,0,0,1,0,6.16A3.9,3.9,0,0,1,32.75,43a2.63,2.63,0,0,1-2.65-1.37v1.2Z"/>
    <path d="M38.1,42.81l0-11.44h2v4.32a2.56,2.56,0,0,1,2.41-1.32c1.9,0,3,1.25,3,3.31V42.8H43.53V38a1.62,1.62,0,0,0-1.66-1.84A1.81,1.81,0,0,0,40,38.05v4.76Z"/>
    <path d="M53,40.5a2.56,2.56,0,0,0,.73-1.86,2.47,2.47,0,0,0-.74-1.83,2.38,2.38,0,0,0-1.82-.75,2.43,2.43,0,0,0-1.84.75,2.72,2.72,0,0,0,0,3.7,2.65,2.65,0,0,0,3.66,0m-6.34-1.84a4.18,4.18,0,0,1,1.31-3.12,4.41,4.41,0,0,1,3.19-1.27,4.45,4.45,0,0,1,3.21,1.25,4.23,4.23,0,0,1,1.32,3.12,4.18,4.18,0,0,1-1.31,3.12,4.68,4.68,0,0,1-6.4,0,4.15,4.15,0,0,1-1.32-3.11"/>
    <path d="M56.74,34.5h2v4.82a1.81,1.81,0,1,0,3.61,0V34.49h2v4.93a3.25,3.25,0,0,1-1.07,2.65,4.13,4.13,0,0,1-2.73.91,4,4,0,0,1-2.71-.9,3.25,3.25,0,0,1-1.07-2.59v-5Z"/>
    <path d="M66.34,40.22a2.54,2.54,0,0,0,2.19,1c1,0,1.47-.39,1.47-.9a.79.79,0,0,0-.48-.66,4.26,4.26,0,0,0-.77-.31c-.24-.08-.74-.23-1-.34-1.33-.47-2-1.14-2-2.33a2.15,2.15,0,0,1,.84-1.8,3.25,3.25,0,0,1,2.08-.68,3.22,3.22,0,0,1,2.68,1.21l-1.1,1.17a1.92,1.92,0,0,0-1.61-.69c-.61,0-1,.3-1,.74a.63.63,0,0,0,.38.57,4.28,4.28,0,0,0,.67.3c.25.06.71.23,1,.34,1.52.54,2.21,1.28,2.22,2.46,0,1.52-1.15,2.63-3.39,2.63a3.61,3.61,0,0,1-3.42-1.67l1.26-1.07Z"/>
    <path d="M78.91,37.7a1.58,1.58,0,0,0-.63-1.26,2.11,2.11,0,0,0-1.46-.54,2.6,2.6,0,0,0-1.59.53,1.81,1.81,0,0,0-.73,1.28Zm-6.41.9a4.12,4.12,0,0,1,4.32-4.37,3.87,3.87,0,0,1,2.94,1.19,4.11,4.11,0,0,1,1.15,3q0,.36,0,.69H74.45A2.27,2.27,0,0,0,77,41.25a3,3,0,0,0,2.23-1l1.18,1.14a4.6,4.6,0,0,1-3.47,1.49,4.4,4.4,0,0,1-3.17-1.16,4.09,4.09,0,0,1-1.22-3.1V38.6Z"/>
    <path d="M83.92,40.08a1.43,1.43,0,1,0,0,2.85,1.43,1.43,0,0,0,0-2.85"/>
    <path d="M91.13,34.88l-7,2.25,0-5.39,7-2.25Zm1.33-4.39V27.66l-9.66,3.1,0,8.2,9.65-3.12V30.49Z"/>
    <path d="M99.61,35l-7.14,2.3V31.88L99,29.76,97.54,33l2.07,2Zm1.81-7.36L91.14,30.9v8.2l11-3.53-3-2.89,2.3-5.07Z"/>
  </g>
</svg>
