<svg width="48" height="48" viewBox="0 0 48 48" fill="none" xmlns="http://www.w3.org/2000/svg">
<g clip-path="url(#clip0_1673_6337)">
<path d="M34.59 5C30.89 5 27.27 6.06 24.15 8.05C21.04 6.06 17.43 5 13.74 5H13.67C12.85 5 12.03 5.05 11.21 5.16C10.72 5.22 10.23 5.3 9.75 5.4L10.23 7.32C11.37 7.09 12.53 6.98 13.69 6.98C16.75 6.98 19.76 7.77 22.41 9.3C21.36 10.14 20.42 11.07 19.59 12.07C13.8 19.06 13.51 29.38 19.41 36.74C19.56 36.93 19.71 37.11 19.87 37.29C20.96 38.55 22.21 39.67 23.59 40.62L24.14 41L24.7 40.62C28.64 37.92 31.45 33.87 32.61 29.24C34.44 21.86 31.82 14.08 25.89 9.32C29.58 7.21 33.9 6.51 38.07 7.34L38.55 5.42C37.26 5.15 35.94 5.01 34.62 5H34.58L34.59 5ZM20.64 19.81C19.33 18.08 19.33 15.68 20.64 13.95C21.64 12.62 22.82 11.45 24.15 10.45C24.23 10.51 24.32 10.58 24.4 10.64C25.65 11.61 26.77 12.74 27.72 14C27.88 14.21 28.02 14.44 28.14 14.67C28.98 16.28 28.84 18.26 27.72 19.75C27.59 19.92 27.46 20.08 27.33 20.25C26.4 21.39 25.33 22.42 24.15 23.3C22.82 22.31 21.64 21.13 20.64 19.81ZM25.14 27.32C25.14 25.96 25.71 24.66 26.73 23.75C28.18 22.45 29.42 20.95 30.42 19.28C30.49 19.49 30.55 19.7 30.61 19.92C31.02 21.42 31.22 22.96 31.22 24.52C31.22 29.61 29 34.46 25.15 37.79V27.33L25.14 27.32ZM18.08 19.59C19.05 21.13 20.23 22.53 21.58 23.75C21.71 23.86 21.83 23.98 21.94 24.11C22.73 24.99 23.17 26.13 23.17 27.32V37.78C17.88 33.22 15.8 25.95 17.89 19.28C17.95 19.38 18.02 19.49 18.08 19.59Z" fill="url(#paint0_linear_1673_6337)"/>
<path fill-rule="evenodd" clip-rule="evenodd" d="M24.15 8.05C27.27 6.06 30.89 5 34.59 5H34.62C35.94 5.01 37.26 5.15 38.55 5.42L38.07 7.34C33.9 6.51 29.58 7.21 25.89 9.32C26.5438 9.84482 27.1574 10.4063 27.7292 11H24.8491C24.7013 10.8777 24.5516 10.7577 24.4 10.64C24.36 10.61 24.3175 10.5775 24.275 10.545C24.2325 10.5125 24.19 10.48 24.15 10.45C23.9133 10.628 23.6814 10.8113 23.4543 11H20.5466C21.1236 10.4006 21.7447 9.83223 22.41 9.3C19.76 7.77 16.75 6.98 13.69 6.98C12.53 6.98 11.37 7.09 10.23 7.32L9.75 5.4C10.23 5.3 10.72 5.22 11.21 5.16C12.03 5.05 12.85 5 13.67 5H13.74C17.43 5 21.04 6.06 24.15 8.05Z" fill="url(#paint1_linear_1673_6337)"/>
</g>
<defs>
<linearGradient id="paint0_linear_1673_6337" x1="6.75" y1="24" x2="36.75" y2="24" gradientUnits="userSpaceOnUse">
<stop stop-color="#1D1A2F"/>
<stop offset="0.405" stop-color="#314091"/>
<stop offset="0.705" stop-color="#314091"/>
<stop offset="0.880712" stop-color="#5AC4EB"/>
<stop offset="1" stop-color="#1D1A2F"/>
</linearGradient>
<linearGradient id="paint1_linear_1673_6337" x1="9.75" y1="24" x2="36.75" y2="24" gradientUnits="userSpaceOnUse">
<stop stop-color="#1D1A2F"/>
<stop offset="0.54" stop-color="#314091"/>
<stop offset="1" stop-color="#1D1A2F"/>
</linearGradient>
<clipPath id="clip0_1673_6337">
<rect width="28.81" height="36" fill="white" transform="translate(9.75 5)"/>
</clipPath>
</defs>
</svg>
