<svg xmlns="http://www.w3.org/2000/svg" viewBox="0 0 48 48">
  <title>coinbase</title>
  <g id="Salesforce_Pardot" data-name="Salesforce Pardot">
    <path d="M6.55,27.37a2.44,2.44,0,0,0,.9-.17s.58.9.59.91a3.42,3.42,0,0,1-1.66.4,2.87,2.87,0,0,1-3-3,2.91,2.91,0,0,1,3.05-3,3.09,3.09,0,0,1,1.56.39l-.55.93a2.27,2.27,0,0,0-.89-.17,1.75,1.75,0,0,0-1.86,1.88A1.79,1.79,0,0,0,6.55,27.37ZM11,22.46a2.89,2.89,0,0,1,3,3,2.89,2.89,0,0,1-3,3,2.88,2.88,0,0,1-3-3A2.89,2.89,0,0,1,11,22.46Zm0,1.11a1.72,1.72,0,0,0-1.67,1.92,1.69,1.69,0,1,0,3.36,0A1.71,1.71,0,0,0,11,23.57Zm3.82,4.81V22.59h1.29v5.79Zm-.17-7.57a.81.81,0,1,1,.81.82.82.82,0,0,1-.81-.82ZM17.24,23a7.87,7.87,0,0,1,2.66-.49c1.48,0,2.42.56,2.42,2.19v3.73H21V24.77c0-.84-.53-1.14-1.25-1.14a4.66,4.66,0,0,0-1.25.17v4.58h-1.3Zm6.16-3.46h1.3v3.26A3.07,3.07,0,0,1,26,22.46a2.75,2.75,0,0,1,2.92,2.93c0,1.87-1.24,3.12-3.38,3.12a6.34,6.34,0,0,1-2.16-.38Zm1.3,7.79a3,3,0,0,0,.9.12,1.85,1.85,0,0,0,2-2,1.71,1.71,0,0,0-1.78-1.79,2.32,2.32,0,0,0-1.16.28Zm8-2.78c0-.63-.47-.92-1.11-.92a3.3,3.3,0,0,0-1.67.47V22.93a3.82,3.82,0,0,1,1.88-.47c1.27,0,2.17.52,2.17,2v3.83a8.28,8.28,0,0,1-2,.24c-1.5,0-2.6-.46-2.6-1.77S30.37,25,32,25h.64Zm0,1.34h-.55c-.9,0-1.49.27-1.49.85s.55.84,1.34.84a4.6,4.6,0,0,0,.7-.07Zm2.21,1a3,3,0,0,0,1.77.65c.57,0,1-.19,1-.65s-.34-.64-1.08-.84c-1.21-.27-1.72-.75-1.72-1.76,0-1.18.89-1.75,2.07-1.75a3,3,0,0,1,1.66.44v1.19a2.73,2.73,0,0,0-1.62-.59c-.56,0-.86.28-.86.66s.24.57.91.75c1.32.29,1.9.79,1.9,1.84,0,1.21-.93,1.76-2.19,1.76A3.37,3.37,0,0,1,34.89,28Zm5.75-1v0a1.77,1.77,0,0,0,1.87,1.6,3.3,3.3,0,0,0,2-.56V28a3.76,3.76,0,0,1-2,.53,2.83,2.83,0,0,1-3-3,2.83,2.83,0,0,1,2.8-3.07,2.35,2.35,0,0,1,2.49,2.66v.66Zm2.81-.84c0-.9-.47-1.4-1.31-1.4a1.52,1.52,0,0,0-1.46,1.4Z" style="fill: #1449ee"/>
  </g>
</svg>
