<svg id="レイヤー_1" data-name="レイヤー 1" xmlns="http://www.w3.org/2000/svg" viewBox="0 0 150 138"><defs><style>.cls-1{fill:#5cc1d6;}</style></defs><path class="cls-1" d="M146.68,59.93c-.27-.46-6.41-11.34-14.29-22.82-10.77-15.68-19.32-24.49-26.52-27.59C95.13,4.9,78.51,4.87,71.92,5.07S49.25,6.26,39.13,11.33,19.5,28.4,15.83,33.4,3.17,51.7,2,62.73C.78,74.15,7.38,89,10.37,95S22,116.8,33.24,123.9c11.59,7.32,31.18,8.75,39.16,9s28.34.17,40.68-6.64c8-4.43,16.23-16.45,24.74-36,5.69-13.07,9.34-24.58,9.5-25l.83-2.64Zm-29.4,27.7c-9.26,1.81-15.64-2-21-6.44a5.33,5.33,0,0,0-7.11.39,4.52,4.52,0,0,0,.45,6.67c3.18,2.67,10.81,9.07,22.24,9.67-3.59,6.12-7.13,10.8-10.08,12.41-5.51,3-17.35,4.74-30,4.42-12.48-.32-23.88-2.59-29.12-5.77C31.3,102.13,17.15,75.17,18.12,63.49c.93-11.26,17.42-34.36,27.94-39.69,4.74-2.4,14.63-4.11,25.34-4.36s21.06,1,26,3.23c1.48.67,7.25,4.19,18.84,21.94,4.93,7.55,9.16,15,11.25,18.77A248.25,248.25,0,0,1,117.28,87.63Z"/><path class="cls-1" d="M94.4,36.75c-5.54.08-9.87,4.26-9.69,9.42s4.92,9.5,10.61,9.48,10.1-4.36,9.77-9.63S100,36.7,94.4,36.75Z"/></svg>