<svg xmlns="http://www.w3.org/2000/svg" viewBox="0 0 48 48"><defs><style>.cls-1{fill:#00a0ff;}.cls-2{fill:#fff;}</style></defs><g id="CDCCloud"><path class="cls-1" d="M7.52,23.78A13.28,13.28,0,0,1,7.4,22.1,12.28,12.28,0,0,1,29.71,15a8.75,8.75,0,0,1,2.58-.38,9,9,0,0,1,9,9c0,.12,0,.25,0,.38a6.83,6.83,0,0,1-2.09,13.34H8.84A6.83,6.83,0,0,1,7.52,23.78Z"/><path class="cls-2" d="M33.92,34H20.21A6.23,6.23,0,0,1,14,27.89v-4.1a5.52,5.52,0,0,1,1.65-4.15A6.82,6.82,0,0,1,20.25,18H33.81l-4,4H20.11a2.76,2.76,0,0,0-1.72.54A1.56,1.56,0,0,0,18,23.79v3.93A2.2,2.2,0,0,0,20.21,30H29.8Z"/><polygon class="cls-2" points="25.84 25.99 29.8 29.96 29.8 25.99 29.8 22 25.84 25.99"/></g></svg>