<svg width="48" height="48" viewBox="0 0 48 48" fill="none" xmlns="http://www.w3.org/2000/svg">
<g clip-path="url(#clip0_2497_1630)">
<path d="M6.42314 24.0877C6.02232 21.1882 6.60675 18.2381 8.08272 15.7105C9.55869 13.1828 11.8407 11.224 14.5628 10.1481C17.285 9.07215 20.2896 8.94147 23.0949 9.77699C25.9001 10.6125 28.3436 12.3658 30.0335 14.7558C30.9221 14.485 31.8459 14.3469 32.7748 14.3461C35.3082 14.3453 37.7382 15.3507 39.5306 17.141C41.323 18.9314 42.3311 21.3602 42.3333 23.8936C42.3333 24.0284 42.3333 24.1632 42.3333 24.2952C43.9772 24.8312 45.3766 25.9348 46.2809 27.4086C47.1851 28.8824 47.5351 30.63 47.2682 32.3383C47.0013 34.0467 46.1348 35.6042 44.8241 36.7318C43.5133 37.8595 41.8439 38.4837 40.1148 38.4925H7.81943C6.02402 38.4737 4.29893 37.7919 2.97583 36.5781C1.65273 35.3643 0.824995 33.7043 0.651766 31.9172C0.478537 30.1301 0.97204 28.342 2.0374 26.8967C3.10276 25.4515 4.66477 24.451 6.42314 24.0877Z" fill="#00A0FF" stroke="#00A0FF" stroke-width="1.13131" stroke-linecap="round" stroke-linejoin="round"/>
<g clip-path="url(#clip1_2497_1630)">
<path d="M36.8469 37.4158H18.0287C12.0959 37.4158 9.67839 32.3485 9.50225 28.9466C9.50225 28.8946 9.49463 28.8504 9.49463 28.7985V23.2581C9.49463 20.3071 10.7248 18.4946 11.7579 17.5033C14.1173 15.2388 17.3993 15.2244 18.0801 15.2244H36.7003L31.1921 20.7725H18.0287C17.9773 20.7725 17.9335 20.7802 17.8821 20.7802C17.5012 20.7802 16.1977 20.884 15.5236 21.5417C15.3922 21.6744 14.9885 22.0744 14.9885 23.2581V28.7023C15.0618 29.6783 15.5303 31.8687 18.0287 31.8687H31.1921L36.8469 37.4158Z" fill="white"/>
<path d="M25.7249 26.3389L31.1854 31.8677V26.3389V20.7725L25.7249 26.3389Z" fill="white"/>
</g>
</g>
<defs>
<clipPath id="clip0_2497_1630">
<rect width="48" height="30.5923" fill="white" transform="translate(0 8.61536)"/>
</clipPath>
<clipPath id="clip1_2497_1630">
<rect width="27.3991" height="22.3519" fill="white" transform="translate(9.47632 15.1473)"/>
</clipPath>
</defs>
</svg>
