<svg xmlns="http://www.w3.org/2000/svg" xmlns:xlink="http://www.w3.org/1999/xlink" viewBox="0 0 48 48"><defs><mask id="a" x="8.52" y="13.29" width="31.88" height="27.03" maskUnits="userSpaceOnUse"><circle cx="25.6" cy="26.81" r="13.51" style="fill:#231f20"/><circle cx="25.6" cy="26.81" r="13.51" style="fill:#fff"/></mask></defs><title>cosmos db</title><circle cx="25.6" cy="26.81" r="13.51" style="fill:#b5d333"/><circle cx="36.18" cy="9.4" r="4.07" style="fill:#2f75bb"/><circle cx="44.54" cy="37.41" r="2.88" style="fill:#2f75bb"/><path d="M1.41,13.57c7.76,0,7.76-8.24,7.76-8.24s-.27,8.24,7.76,8.24a7.6,7.6,0,0,0-7.76,7.6S8.26,13.57,1.41,13.57Z" style="fill:#2f75bb"/><g style="mask:url(#a)"><path d="M38.89,19.14h-4a3.58,3.58,0,0,0-7.13-.46A3.3,3.3,0,0,0,26,18.17,3.39,3.39,0,0,0,26,25a3.32,3.32,0,0,0,.9-.14,1.44,1.44,0,0,0,.62.14H38.89a1.52,1.52,0,0,0,1.51-1.51V20.66A1.52,1.52,0,0,0,38.89,19.14Z" style="fill:#1ebaed"/><path d="M19.89,28.89a5.77,5.77,0,1,0-2.33,6.19,3.48,3.48,0,0,0,2.29.85,3.52,3.52,0,0,0,0-7Z" style="fill:#1ebaed"/><path d="M35.14,28.26c-2.78-1.08-5.81,0-6.76,2.46a4.17,4.17,0,0,0-.28,1.7,3.32,3.32,0,0,0-1.62,2.78,3.71,3.71,0,0,0,3.93,3.45,4.17,4.17,0,0,0,2.93-1.15,4.86,4.86,0,0,0,5.12-2.85C39.41,32.21,37.93,29.35,35.14,28.26Z" style="fill:#1ebaed"/></g><path d="M39,29.18a12.48,12.48,0,0,0,.13-2.37,54.4,54.4,0,0,1-11.86,5.4,54.48,54.48,0,0,1-12.75,2.67A14,14,0,0,0,16,36.7a58.49,58.49,0,0,0,11.85-2.63A58.81,58.81,0,0,0,39,29.18Z" style="fill:#2f75bb"/><path d="M47.27,19.13c-.69-2.1-3.74-3.21-8.12-3.31a39.05,39.05,0,0,0-5.79.37h0a12.67,12.67,0,0,1,2,1.74,33.14,33.14,0,0,1,3.77-.15c3.94.08,6,1,6.3,2s-.82,3-4,5.38c-.74.56-1.55,1.11-2.42,1.65a12.48,12.48,0,0,1-.13,2.37C44.75,25.71,48.18,21.9,47.27,19.13Z" style="fill:#2f75bb"/><path d="M14.39,34.84c-1.06.08-2.08.12-3,.1-3.94-.09-6-1-6.31-2-.35-1.1,1.31-4,7.05-7.43A13.38,13.38,0,0,1,12.67,23h0C6.12,26.55,2.23,30.65,3.19,33.59c.69,2.1,3.74,3.2,8.12,3.3a35.43,35.43,0,0,0,4.58-.23A13.2,13.2,0,0,1,14.39,34.84Z" style="fill:#2f75bb"/></svg>