<svg xmlns="http://www.w3.org/2000/svg" viewBox="0 0 48 48">
  <title>icon-cybozuuser</title>
  <g id="Layer_3" data-name="Layer 3">
    <path d="M6.47,35.6a2.77,2.77,0,0,1,1.06.21l.13,0L8,34.61l-.09,0a3.93,3.93,0,0,0-1.43-.26,4,4,0,0,0-4,4.27c0,2.6,1.38,4.15,3.7,4.15a4.2,4.2,0,0,0,1.68-.31l.08,0-.25-1.19-.13.05a3,3,0,0,1-1.09.21c-1.37,0-2.19-1.08-2.19-2.87,0-1.48.66-3,2.15-3ZM12.82,39c-.12.41-.24.82-.34,1.24l0-.08c-.09-.4-.19-.79-.31-1.18l-1.37-4.71h-2l2.62,7.6a.53.53,0,0,1,0,.25.85.85,0,0,1-.1.36,4.62,4.62,0,0,1-.9,1.32,4.71,4.71,0,0,1-1.39,1L9,44.88l.7,1.29.11,0a5.46,5.46,0,0,0,1.87-1.26c1.25-1.26,1.94-3.28,2.55-5.24l1.71-5.32H14Zm7.86-4.85a2.44,2.44,0,0,0-2,.88V30.86H16.83v9.7c0,.38,0,1-.06,1.43,0,.18,0,.36,0,.49v.12h1.6l.08-.88a2.18,2.18,0,0,0,1.95,1c1.57,0,3.15-1.34,3.15-4.35,0-2.55-1.12-4.19-2.84-4.19Zm1,4.25c0,1.12-.21,3-1.61,3-.44,0-1-.23-1.37-1.34a1.27,1.27,0,0,1-.05-.46V37.4a2.5,2.5,0,0,1,0-.55,1.58,1.58,0,0,1,1.36-1.34C21.53,35.51,21.69,37.56,21.69,38.44Zm6.46-4.25c-2.56,0-3.46,2.31-3.46,4.29,0,3.14,1.73,4.25,3.35,4.25s3.44-1.12,3.44-4.27S29.76,34.19,28.15,34.19Zm0,7.3c-1.4,0-1.61-1.9-1.61-3,0-.91.15-3,1.56-3s1.55,2.1,1.55,3S29.48,41.49,28.13,41.49Zm4.3-5.87H35.9l-.33.49c-.13.2-.26.39-.38.59l-3.13,5.06,0,0v.94h5.9V41.42H34.13c.1-.16.21-.33.33-.5s.26-.39.38-.59l3.09-5v-1H32.43v1.31Zm13,6.86,0-.63c0-.45-.05-1-.05-1.56v-6H43.57v5.42a2.78,2.78,0,0,1-.08.71,1.31,1.31,0,0,1-1.3,1c-.87,0-1.22-.61-1.22-2.09v-5H39.14v5.21c0,2.18.81,3.2,2.55,3.2a3,3,0,0,0,2.09-.85l.09.72h1.61Z" style="fill: #a6a4a5"/>
    <path d="M36.74,20.6a6,6,0,1,1-6-6.1,6.08,6.08,0,0,1,6,6.1Zm-6.05-2.46a2.47,2.47,0,1,0,2.44,2.46A2.45,2.45,0,0,0,30.69,18.14Z" style="fill: #92d0e1"/>
    <path d="M42.12,9.94a3.75,3.75,0,1,1-3.74-3.77A3.76,3.76,0,0,1,42.12,9.94ZM38.37,8.42A1.53,1.53,0,1,0,39.88,10h0a1.51,1.51,0,0,0-1.51-1.52Z" style="fill: #b1deea"/>
    <path d="M17.93,11.4a3.88,3.88,0,1,0,3.84,3.87A3.85,3.85,0,0,0,17.93,11.4Zm9.6,3.87a9.6,9.6,0,1,1-9.6-9.69,9.64,9.64,0,0,1,9.6,9.69Z" style="fill: #64bdd4"/>
  </g>
</svg>
