<svg xmlns="http://www.w3.org/2000/svg" viewBox="0 0 48 48"><title>digital ocean</title><path d="M24,45.45V37.13a13.2,13.2,0,0,0,12.26-18,12.46,12.46,0,0,0-7.42-7.39A13.21,13.21,0,0,0,10.84,24H2.55A21.53,21.53,0,0,1,30.84,3.61,20.8,20.8,0,0,1,44.39,17.16,21.53,21.53,0,0,1,24,45.45Z" style="fill:#0080ff"/><polygon points="24.03 28.89 24.03 28.89 24.03 37.18 15.73 37.18 15.73 28.89 15.73 28.89 24.03 28.89" style="fill:#0080ff"/><polygon points="15.73 37.18 15.73 43.53 15.73 43.53 9.38 43.53 9.38 43.53 9.38 37.18 15.73 37.18" style="fill:#0080ff"/><path d="M9.39,37.18H4.06V31.85H9.39Z" style="fill:#0080ff"/></svg>