<svg xmlns="http://www.w3.org/2000/svg" viewBox="0 0 48 48"><title>docusign</title><rect x="1.97" y="2.31" width="44.05" height="44.05" rx="22.03" ry="22.03" style="fill:#194ba0"/><path d="M42.55,26.07v.45h-1.8v-.45Z" style="fill:#fff"/><path d="M39.93,26.07v.45h-1.8v-.45Z" style="fill:#fff"/><path d="M37.31,26.07v.45h-1.8v-.45Z" style="fill:#fff"/><path d="M34.69,26.07v.45h-1.8v-.45Z" style="fill:#fff"/><path d="M32.06,26.07v.45h-1.8v-.45Z" style="fill:#fff"/><path d="M29.44,26.07v.45h-1.8v-.45Z" style="fill:#fff"/><path d="M26.82,26.07v.45H25v-.45Z" style="fill:#fff"/><path d="M24.2,26.07v.45H22.4v-.45Z" style="fill:#fff"/><path d="M33.46,26.06a1.42,1.42,0,0,1,.66.06,7.91,7.91,0,0,0,.7-1.64c-.11.08-.18.14-.25.18-.61.42-1.21.85-1.84,1.23s-.73.19-.9-.41L31,26s-1,.94-1.19-.27a1.7,1.7,0,0,1,.05-.44c.06-.32.13-.65.19-1a1.77,1.77,0,0,0,0-.24c-.34.23-.65.45-1,.65l-2,1.18-1.19.62a9.84,9.84,0,0,1-2.09.75,4.58,4.58,0,0,1-.64,0,.23.23,0,0,1-.25-.19c0-.14.05-.2.15-.25.28-.14.6-.24.87-.4l.37-.16c.38-.18.76-.34,1.12-.52a5,5,0,0,0,1.42-.95c.52-.52.44-1-.25-1.23s-1.24-.35-1.87-.52q-.42-.12-.84-.27a1.65,1.65,0,0,1-.37-.2.58.58,0,0,1-.21-.88,4.89,4.89,0,0,1,.83-.93,7.18,7.18,0,0,1,3.78-1.67,3.2,3.2,0,0,1,1.62.16,1.39,1.39,0,0,1,.89,1.49.5.5,0,0,1-.63.47.28.28,0,0,1-.19-.16c0-.06,0-.15.07-.22s0,0,.08-.08c.2-.17.2-.34,0-.47a2.41,2.41,0,0,0-.5-.21,4.23,4.23,0,0,0-2,0,7.51,7.51,0,0,0-2.79,1.26,2,2,0,0,0-.48.49.3.3,0,0,0,.16.52,5.89,5.89,0,0,0,.94.24c.7.13,1.4.22,2.09.36a2.42,2.42,0,0,1,.72.31.73.73,0,0,1,.34.88c-.05.2-.13.39-.21.62a5.46,5.46,0,0,0,.49-.26c.45-.29.89-.6,1.33-.9l.4-.26c.18-.1.36-.19.55,0A.61.61,0,0,1,31,24c-.07.25-.19.48-.27.72a2.69,2.69,0,0,0-.17.55c0,.17.08.26.24.19a4.33,4.33,0,0,0,.51-.31c.67-.49,1.33-1,2-1.47a2.91,2.91,0,0,1,1.45-.59,1.33,1.33,0,0,1,.59.09.54.54,0,0,1,.33.74c-.27.71-.57,1.4-.86,2.1a1.33,1.33,0,0,0-.06.12,2.52,2.52,0,0,1,.42.27.22.22,0,0,1,.09.25c-.07.17-.23.1-.3.08-.3-.07-.35-.12-.43-.1s-.17.27-.25.42a7.32,7.32,0,0,1-2,2.18,5.24,5.24,0,0,1-.51.3H31.5a.79.79,0,0,1-.36-1,3.56,3.56,0,0,1,.73-1.21h0A4,4,0,0,1,33.46,26.06Zm.48.43h-.17l-.2.07a3.89,3.89,0,0,0-1.46,1,2.63,2.63,0,0,0-.47.72.49.49,0,0,0,.06.44c.13.14.29,0,.39-.13.44-.43.87-.86,1.28-1.32A9,9,0,0,0,33.94,26.49Zm.81-2.61a4.1,4.1,0,0,0-2.29,1.64A3.94,3.94,0,0,0,34.75,23.88Z" style="fill:#fff"/><path d="M5.54,21.06l1,0a17.93,17.93,0,0,1,1.8.11,2.39,2.39,0,0,1,1.7,1,2.64,2.64,0,0,1-1.45,4,4.41,4.41,0,0,1-1.08.16c-.65,0-1.3,0-1.95,0Zm1.19,1.08v3.19c.39,0,.76,0,1.13-.07a1.53,1.53,0,0,0,.14-3A10.37,10.37,0,0,0,6.73,22.14Z" style="fill:#fff"/><path d="M14.74,24.57a1.9,1.9,0,0,1-2.05,1.91,1.92,1.92,0,1,1,.06-3.83A1.9,1.9,0,0,1,14.74,24.57Zm-2.92,0a.84.84,0,0,0,.89.91.92.92,0,1,0-.89-.91Z" style="fill:#fff"/><path d="M21.08,22.75H22.2v3.63H21.13v-.47a1.26,1.26,0,0,1-1.23.56,1.11,1.11,0,0,1-1.16-1.12c0-.45,0-.91,0-1.36s0-.81,0-1.23h1.13v.34c0,.61,0,1.21,0,1.81a.55.55,0,0,0,.74.55.57.57,0,0,0,.46-.53c0-.25,0-.51,0-.77Z" style="fill:#fff"/><path d="M39.62,26.33a.53.53,0,0,1-.39-.26,2.3,2.3,0,0,1-.1-1.24c0-.49-.13-.6-.56-.37a3,3,0,0,0-.56.37c-.48.39-.95.8-1.46,1.23a.65.65,0,0,1-.55.2.21.21,0,0,1-.16-.21c-.1-.41.18-.66.38-.95s.24-.32.39-.5c-.4,0-.64.33-1,.43l0,0a2.7,2.7,0,0,1,.18-.5,2.17,2.17,0,0,1,1.13-.87.57.57,0,0,1,.7.62,1.85,1.85,0,0,1-.06.26c.22-.15.4-.31.6-.42a5.88,5.88,0,0,1,1-.49.55.55,0,0,1,.79.56,9.1,9.1,0,0,1-.08,1,2.34,2.34,0,0,0,0,.26c0,.25.09.33.31.21a1.65,1.65,0,0,0,.41-.28c.25-.23.48-.47.72-.7.08-.07.14-.22.28-.11a.27.27,0,0,1,.11.37,2.16,2.16,0,0,1-.27.4C41,25.71,40.26,26.4,39.62,26.33Z" style="fill:#fff"/><path d="M17.64,25.21l.73.77a2.1,2.1,0,0,1-2.73,0,1.94,1.94,0,0,1-.06-2.74,2.09,2.09,0,0,1,2.79-.08l-.72.76a.87.87,0,0,0-1.23,0,1,1,0,0,0,0,1.31A.87.87,0,0,0,17.64,25.21Z" style="fill:#fff"/><path d="M31.23,21.5a.41.41,0,0,1,.4-.44.42.42,0,0,1,.41.43.43.43,0,0,1-.42.44A.4.4,0,0,1,31.23,21.5Z" style="fill:#fff"/><path d="M41.83,28.55a.67.67,0,0,1,0-1.33.67.67,0,1,1,0,1.33Zm.52-.66a.52.52,0,0,0-.53-.54.53.53,0,0,0-.53.54.56.56,0,0,0,.53.54A.54.54,0,0,0,42.35,27.89Z" style="fill:#fff"/><path d="M41.7,28v.28h-.11v-.69h.19a.37.37,0,0,1,.2.05.18.18,0,0,1,.06.15.17.17,0,0,1-.13.18l.19.31H42L41.81,28Zm0-.09h.08a.16.16,0,0,0,.11,0,.12.12,0,0,0,0-.08.13.13,0,0,0,0-.09.22.22,0,0,0-.12,0H41.7Z" style="fill:#fff"/></svg>