<svg id="aa3011e4-3fc1-4973-a239-78647fd0f79c" data-name="Icons" xmlns="http://www.w3.org/2000/svg" viewBox="0 0 108 72">
  <defs>
    <style>
      .\32 e63bda8-0394-42a2-a073-b00dc0e87a35 {
        fill: #010101;
      }

      .\39 7405807-5917-493f-a32e-b5625c2ecbf4 {
        fill: none;
      }
    </style>
  </defs>
  <title>drift</title>
  <path class="2e63bda8-0394-42a2-a073-b00dc0e87a35" d="M24.1,20.56A19.47,19.47,0,1,0,43.57,40,19.47,19.47,0,0,0,24.1,20.56Zm-.63,24.49a.87.87,0,0,1-.42.74.82.82,0,0,1-.83,0h0l-3.53-2.07V51.4a.87.87,0,0,1-.42.74.84.84,0,0,1-.84,0L15.3,50.9a.87.87,0,0,1-.42-.74V41.49l-3.41-2a.85.85,0,0,1-.42-.74V35.44a.87.87,0,0,1,.42-.74.84.84,0,0,1,.84,0L23.05,41a.87.87,0,0,1,.42.74Zm.19-13.27a1.18,1.18,0,0,1-.58,1l-3.25,1.9v2.5a.32.32,0,0,1-.32.33.33.33,0,0,1-.17,0l-6.17-3.61a.33.33,0,0,1-.12-.45.34.34,0,0,1,.12-.12l9.24-5.4a.84.84,0,0,1,.84,0,.87.87,0,0,1,.42.74Zm1.07-3.12A.84.84,0,0,1,26,27.92l9.23,5.41a.33.33,0,0,1,.12.45.34.34,0,0,1-.12.12l-6.16,3.59a.33.33,0,0,1-.45-.12.41.41,0,0,1-.05-.18V34.73a.08.08,0,0,0,0,0l-3.38-2a.81.81,0,0,1-.42-.74ZM37.15,38.77a.84.84,0,0,1-.43.74l-3.41,2v8.66a.87.87,0,0,1-.42.74l-2.11,1.23a.79.79,0,0,1-.42.12.76.76,0,0,1-.42-.12.85.85,0,0,1-.42-.74V43.72L26,45.79h0a.82.82,0,0,1-.83,0,.86.86,0,0,1-.42-.74V41.74a.85.85,0,0,1,.42-.74l10.75-6.28a.84.84,0,0,1,.84,0,.87.87,0,0,1,.42.74Z"/>
  <path class="2e63bda8-0394-42a2-a073-b00dc0e87a35" d="M55.13,30.85H48.37a.53.53,0,0,0-.5.53V49.79a.51.51,0,0,0,.5.53h6.76a9.74,9.74,0,0,0,0-19.47Zm0,15.36H52.18V34.94H55.1c3.13,0,5.15,2.48,5.15,5.62s-2,5.65-5.16,5.65Z"/>
  <path class="2e63bda8-0394-42a2-a073-b00dc0e87a35" d="M66.38,38.09a.59.59,0,0,1,.58-.61h1.36a.56.56,0,0,1,.58.39l.58,1.42a3.56,3.56,0,0,1,3.19-2.08,4.17,4.17,0,0,1,2.49.67.52.52,0,0,1,.08.7L74,41.11a.54.54,0,0,1-.72.31,3.29,3.29,0,0,0-1-.2A1.65,1.65,0,0,0,70.59,43v6.73c0,.39-.23.61-.7.61H67a.63.63,0,0,1-.61-.61Z"/>
  <path class="2e63bda8-0394-42a2-a073-b00dc0e87a35" d="M76.09,33.32a2.41,2.41,0,0,1,2.38-2.44,2.42,2.42,0,0,1,0,4.83,2.38,2.38,0,0,1-2.38-2.39Z"/>
  <path class="2e63bda8-0394-42a2-a073-b00dc0e87a35" d="M76.39,38.1a.59.59,0,0,1,.58-.61h3a.6.6,0,0,1,.61.59V49.73a.61.61,0,0,1-.61.61H77a.6.6,0,0,1-.6-.61Z"/>
  <path class="2e63bda8-0394-42a2-a073-b00dc0e87a35" d="M84.17,41.31H83.06a.59.59,0,0,1-.6-.59V38.11A.57.57,0,0,1,83,37.5h1.16V36.44c0-3.45,1.81-5.84,5.52-5.84a6.69,6.69,0,0,1,3.91,1.23.59.59,0,0,1,.11.72l-1.36,2.39a.53.53,0,0,1-.7.17,3.36,3.36,0,0,0-1.66-.5c-1.44,0-1.61.81-1.61,1.83V37.5H91.6a.6.6,0,0,1,.61.59v2.62a.63.63,0,0,1-.61.61H88.38v8.43a.63.63,0,0,1-.63.61h-3a.63.63,0,0,1-.61-.61Z"/>
  <path class="2e63bda8-0394-42a2-a073-b00dc0e87a35" d="M95.13,41.29H94.07a.58.58,0,0,1-.55-.61V38.09a.58.58,0,0,1,.53-.61h1.08V33.92a.61.61,0,0,1,.61-.61h3a.6.6,0,0,1,.56.61v3.56h2.57a.61.61,0,0,1,.61.59v2.61a.61.61,0,0,1-.61.61H99.33v4.48a.78.78,0,0,0,.86.89,8.35,8.35,0,0,0,1.58-.27.56.56,0,0,1,.72.39L103,49.2c.09.39-.05.56-.41.72a10.25,10.25,0,0,1-3.67.72c-2.43,0-3.85-1.56-3.84-4.48Z"/>
  <line class="97405807-5917-493f-a32e-b5625c2ecbf4" x1="25.14" y1="40.99" x2="35.89" y2="34.72"/>
</svg>
