<svg id="55dc732f-c5d4-4767-9ce1-a1d6d1aac7a8"   xmlns="http://www.w3.org/2000/svg" viewBox="0 0 48 48">
  <defs>
    <style>
      .\31 215532d-eb7e-4990-9c72-8d55cec27e27 {
        fill: #000100;
      }

      .\35 2cd7dc1-e354-4708-a473-67d5499b57ea {
        fill: #4c5a90;
      }
    </style>
  </defs>
  <title>dynamics gp</title>
  <path class="1215532d-eb7e-4990-9c72-8d55cec27e27" d="M46.05,40.74a.86.86,0,0,1-.27.65.9.9,0,0,1-.66.27.93.93,0,0,1-.66-.26.93.93,0,1,1,1.59-.66m-.11,0a.8.8,0,0,0-.81-.81.79.79,0,0,0-.82.81.79.79,0,0,0,.24.59.78.78,0,0,0,.58.23.81.81,0,0,0,.57-.23.79.79,0,0,0,.24-.59m-.37.58h-.2L45.25,41q-.11-.21-.21-.21h-.11v.49h-.17V40.14h.33a.55.55,0,0,1,.34.1.29.29,0,0,1,.09.22.26.26,0,0,1-.08.21.31.31,0,0,1-.22.11h0c.07,0,.13.09.2.22Zm-.22-.84a.17.17,0,0,0-.06-.14s-.11-.05-.22-.05h-.14v.4h.17c.17,0,.25-.07.25-.21"/>
  <path class="52cd7dc1-e354-4708-a473-67d5499b57ea" d="M3.21,42c20.38-7.67,39.31-.22,39.31-.22l.72-.3.11-23.9-.86-.6a63.44,63.44,0,0,1-7.71,7.25V38l-1.21.72S22.44,34,3.33,41.85"/>
  <path class="52cd7dc1-e354-4708-a473-67d5499b57ea" d="M3.21,42V38.73s6.45-4.65,12.7-16.27C22.62,10,22.74,4.24,22.74,4.24l.85.6-.14,30-.83.49A36.59,36.59,0,0,0,3.21,42Z"/>
  <path class="52cd7dc1-e354-4708-a473-67d5499b57ea" d="M33.23,10.8a42.37,42.37,0,0,1-8.85,13.84l-.05,10.75-.84.5s-9-.28-20.28,6V42c18.11-9,29.92-4.13,29.92-4.13l.84-.49.05-26Z"/>
</svg>
