<svg xmlns="http://www.w3.org/2000/svg" xmlns:xlink="http://www.w3.org/1999/xlink" viewBox="0 0 48 48"><defs><linearGradient id="a" x1="2.79" y1="29.34" x2="42.6" y2="29.34" gradientUnits="userSpaceOnUse"><stop offset="0" stop-color="#435f34"/><stop offset="0.08" stop-color="#557715"/><stop offset="0.55" stop-color="#b7cf7a"/><stop offset="0.63" stop-color="#b3cb77"/><stop offset="0.71" stop-color="#a6be70"/><stop offset="0.79" stop-color="#90aa63"/><stop offset="0.87" stop-color="#728d51"/><stop offset="0.96" stop-color="#4c6839"/><stop offset="0.98" stop-color="#435f34"/><stop offset="1" stop-color="#7fb452"/></linearGradient><linearGradient id="b" x1="2.68" y1="26.34" x2="33.47" y2="26.34" gradientUnits="userSpaceOnUse"><stop offset="0.97" stop-color="#4a568a"/><stop offset="1" stop-color="#a0b4cd"/></linearGradient><linearGradient id="c" x1="2.83" y1="23" x2="22.08" y2="23" gradientUnits="userSpaceOnUse"><stop offset="0" stop-color="#6d1d26"/><stop offset="0.34" stop-color="#c46f42"/><stop offset="0.77" stop-color="#dec24d"/><stop offset="0.99" stop-color="#e3d469"/><stop offset="1" stop-color="#e9ea89"/></linearGradient></defs><title>dynamicscrm</title><path d="M41.77,41.65a62.56,62.56,0,0,0-20.31-3.32A56.33,56.33,0,0,0,2.79,41.62v-3c.64-.08,17-2.84,25.17-9.12A122.44,122.44,0,0,0,41.9,17l.7.52-.05,23.88Z" style="fill:url(#a)"/><path d="M32.53,37.72s-6.88-2.18-16.59-.2A63.15,63.15,0,0,0,2.68,41.81V38.5A91.58,91.58,0,0,0,19.79,28,42.7,42.7,0,0,0,32.65,10.87l.82.48-.09,26.11Z" style="opacity:0.8300000000000001;fill:url(#b)"/><path d="M22,35a48.38,48.38,0,0,0-10.9,2.4,29.44,29.44,0,0,0-8.46,4.39V38.5a49.75,49.75,0,0,0,11.8-14.74C21.22,11.08,22.17,4.2,22.17,4.2l.87.56-.15,30Z" style="opacity:0.92;fill:url(#c)"/></svg>