<svg xmlns="http://www.w3.org/2000/svg" viewBox="0 0 48 48"><title>ebay</title><path d="M43.13,13.78l-3.59,7.68L36.2,13.78H31.1L32,15.5c3.12.43,3.55,2.15,3.55,4.19v3l1.45,3v6.28h4.67V25.65l6.23-11.87Z" style="fill:#7dc142;fill-rule:evenodd"/><path d="M30.35,15.39a5.29,5.29,0,0,0-3.33.86,3.39,3.39,0,0,0-1.34,3.11h3.54c0-1,.06-2,1.34-2s1.46.8,1.46,1.88v1c-2.05-.06-4,0-5.27,1,1.24,1.35,1.18,3.87,1.18,5.7v1.72a4.69,4.69,0,0,0,.86.05,3.53,3.53,0,0,0,3.33-1.93h.06l.16,1.72h3.33c-.06-.81-.16-1.62-.16-2.42V22.69L32,15.5a12.87,12.87,0,0,0-1.61-.11Zm-.11,11.12c-1.18,0-1.34-1.13-1.34-2,0-2.26,1.34-2.1,3.12-2.21,0,1.4.32,4.25-1.78,4.25Z" style="fill:#fdbd10;fill-rule:evenodd"/><path d="M32,15.5l3.55,7.19v-3c0-2-.43-3.76-3.55-4.19Z" style="fill:#49742a;fill-rule:evenodd"/><path d="M25.41,24.63a3.93,3.93,0,0,1,1.34-3.39,3.06,3.06,0,0,0-2.31-.86,3.14,3.14,0,0,0-2.9,1.46h-.05V15.12H17.94v6.07c2.53,1.07,2.85,3,2.69,5.32H17.94V27.8h2.58c-.05,1.23-.91,2.2-2.47,2.9-.05.05-.05.05-.11.05v2.63h3.39V32h.05a3,3,0,0,0,3,1.66c2.95,0,3.44-2.63,3.54-5-1.82-.43-2.52-2.1-2.52-4Zm-1,2.25c0,3.23-.21,4.57-1.5,4.57s-1.45-1.34-1.45-4.57c0-2.52,0-4.29,1.45-4.29s1.5,1.77,1.5,4.29Z" style="fill:#0060a8;fill-rule:evenodd"/><path d="M27.93,26.94c0-1.83.06-4.35-1.18-5.7a3.93,3.93,0,0,0-1.34,3.39c0,1.93.7,3.6,2.52,4V26.94Z" style="fill:#d08616;fill-rule:evenodd"/><path d="M16.06,27.8H13.91c0,1-.48,2-2.79,2-2.85,0-2.9-2-2.9-3.33h9.72V21.19A8.15,8.15,0,0,0,16,20.6a23.43,23.43,0,0,0-4.89-.43c-8.54,0-9.45,2.63-9.45,5.69,0,3.55,1.07,6,9.45,6a25.08,25.08,0,0,0,4.94-.48,8.46,8.46,0,0,0,1.88-.65V27.8Zm-4.94-5.7c3.12,0,3,1.56,3,2.64H8.22c0-.92-.05-2.64,2.9-2.64Z" style="fill:#ee3e42;fill-rule:evenodd"/><path d="M20.52,27.8H17.94v2.95c.06,0,.06,0,.11-.05,1.56-.7,2.42-1.67,2.47-2.9Z" style="fill:#7a003c;fill-rule:evenodd"/><path d="M20.63,26.51c.16-2.31-.16-4.25-2.69-5.32v5.32Z" style="fill:#7a003c;fill-rule:evenodd"/></svg>