<svg xmlns="http://www.w3.org/2000/svg" viewBox="0 0 48 48"><title>elasticsearch</title><path d="M46.14,25.09a8.7,8.7,0,0,0-5.76-8.21A12.5,12.5,0,0,0,28.11,2,12.47,12.47,0,0,0,18,7.17a6.65,6.65,0,0,0-10.7,5.26,7,7,0,0,0,.41,2.32,8.74,8.74,0,0,0,0,16.46A12.48,12.48,0,0,0,30,40.87a6.57,6.57,0,0,0,4.06,1.42,6.65,6.65,0,0,0,6.64-6.64,6.9,6.9,0,0,0-.41-2.32,8.82,8.82,0,0,0,5.81-8.24" style="fill:#fff"/><path d="M19.28,21,29,25.39l9.77-8.57a10.18,10.18,0,0,0,.2-2.15A10.91,10.91,0,0,0,19,8.5l-1.63,8.44Z" style="fill:#fcd00c"/><path d="M9.25,31.23A10.56,10.56,0,0,0,9,33.42a11,11,0,0,0,20,6.16l1.61-8.41-2.15-4.11-9.73-4.44Z" style="fill:#25bab0"/><path d="M9.19,14.47,15.84,16,17.29,8.5a5.24,5.24,0,0,0-8.41,4.17,5.4,5.4,0,0,0,.31,1.8" style="fill:#ee5096"/><path d="M8.61,16.06A7.32,7.32,0,0,0,8.3,29.85l9.31-8.42-1.7-3.65Z" style="fill:#16a6df"/><path d="M30.75,39.58a5.22,5.22,0,0,0,8.4-4.16,5.18,5.18,0,0,0-.32-1.81l-6.62-1.56Z" style="fill:#92c740"/><path d="M32.09,30.31,39.39,32a7.32,7.32,0,0,0,.32-13.79l-9.54,8.36Z" style="fill:#047aa1"/></svg>