<svg id="ceda79f7-4daa-4080-a424-f6f1de1a5244" data-name="Icons" xmlns="http://www.w3.org/2000/svg" viewBox="0 0 108 72">
  <defs>
    <style>
      .d9911710-6ae3-4f52-bbcb-bb7fa04e07ea {
        fill: #f5662e;
      }
    </style>
  </defs>
  <title>eventbrite</title>
  <g id="a842e681-2657-4151-8daa-3d92e84e5b12" data-name="layer1">
    <path id="546dc6ea-a691-4b4c-aecf-b1756ca5a2a7" data-name="path13136" class="d9911710-6ae3-4f52-bbcb-bb7fa04e07ea" d="M82.27,27.5A1.65,1.65,0,0,1,83.5,28,1.78,1.78,0,0,1,84,29.29a1.69,1.69,0,0,1-.52,1.23,1.79,1.79,0,0,1-2.48,0,1.67,1.67,0,0,1-.5-1.23A1.73,1.73,0,0,1,81,28,1.68,1.68,0,0,1,82.27,27.5Zm-22.39.35.5-.06a3,3,0,0,1,.7.06,2.21,2.21,0,0,1,.77.34,1.66,1.66,0,0,1,.59.77,3.22,3.22,0,0,1,.25,1.31v2.48c0,.08,0,.1.1.06a5,5,0,0,1,2.33-.5,5.15,5.15,0,0,1,5.38,5.44,5.75,5.75,0,0,1-1.67,4.33,6.56,6.56,0,0,1-4.77,1.61A13,13,0,0,1,60.15,43c-.25,0-.38-.23-.38-.54V28s0-.09.11-.17ZM6.58,29h6.65a.15.15,0,0,1,.17.17v2.49c0,.1-.06.15-.17.15H7.35c-.09,0-.14.06-.14.17v2.71c0,.11.07.16.14.16h5.21a.15.15,0,0,1,.17.17v2.4c0,.11-.06.16-.17.16H7.35c-.07,0-.12.06-.14.17v2.73c0,.11,0,.16.14.16h6.09c.07,0,.11,0,.14.13a2.52,2.52,0,0,1,.09.5,2.26,2.26,0,0,1-.09.69,2,2,0,0,1-.31.73,1.8,1.8,0,0,1-.75.56,3.24,3.24,0,0,1-1.27.23H4.33c-.11,0-.16,0-.16-.17V31.37A2.37,2.37,0,0,1,6.58,29Zm44.75.81h2.61c.09,0,.14.05.14.15V32.4c0,.11.06.16.17.16H57a.15.15,0,0,1,.17.17v2.12c0,.1-.06.15-.17.15H54.25c-.11,0-.17,0-.17.15v4.2c0,1.1.49,1.65,1.48,1.65a3.9,3.9,0,0,0,1.69-.44s.07,0,.08,0l.07,0,0,0a1.66,1.66,0,0,1,.31.77,1.91,1.91,0,0,1-.19,1.08c-.43.79-1.37,1.19-2.81,1.19a4,4,0,0,1-2.58-.83,3.35,3.35,0,0,1-1-2.69V35.84a.85.85,0,0,0-.84-.84h-.64c-.12,0-.17,0-.17-.14V32.73a.15.15,0,0,1,.17-.17H51a.14.14,0,0,0,.15-.16V29.92c0-.1,0-.15.16-.15Zm35.88,0h2.62c.09,0,.13.05.13.15V32.4c0,.11.08.16.17.16h2.79c.09,0,.14.06.14.17v2.12c0,.1,0,.15-.14.15H90.13a.16.16,0,0,0-.17.15v4.2c0,1.1.49,1.65,1.48,1.65a4.28,4.28,0,0,0,1.71-.44l.16.07a1.06,1.06,0,0,1,.25.41,1.75,1.75,0,0,1,.09.69,1.46,1.46,0,0,1-.21.75c-.41.79-1.35,1.19-2.81,1.19a3.84,3.84,0,0,1-2.57-.84,3.34,3.34,0,0,1-1-2.68V35.83a.83.83,0,0,0-.25-.58.84.84,0,0,0-.6-.25h-.63c-.1,0-.14,0-.14-.15V32.73c0-.11,0-.17.14-.17H86.9a.14.14,0,0,0,.16-.16V29.92a.13.13,0,0,1,.15-.15Zm-64,2.79h2.69c.16,0,.2.11.12.32l-4,10.33c0,.15-.13.23-.2.23H18.69c-.1,0-.17-.08-.21-.23L14.56,33a.2.2,0,0,1,0-.21,2,2,0,0,1,.63-.31,3.43,3.43,0,0,1,.92-.17,1.59,1.59,0,0,1,1,.4A2.78,2.78,0,0,1,18,34l2.21,6.31s0,.06.06.06a.1.1,0,0,0,.09-.06L23,32.77c0-.13.11-.21.21-.21Zm8.37-.25c3.16,0,4.73,1.88,4.73,5.63a.89.89,0,0,1-.89.87H29.33c-.1,0-.14,0-.14.15a2.26,2.26,0,0,0,1.08,1.64,3.85,3.85,0,0,0,2.08.59,7.92,7.92,0,0,0,3.28-.73.15.15,0,0,1,.2,0,1.52,1.52,0,0,1,.23.56,2.25,2.25,0,0,1,.06.84,1.39,1.39,0,0,1-.52.91,3.09,3.09,0,0,1-1.35.65l-.27,0-.46.08-.67.07a7.09,7.09,0,0,1-.81,0,5.76,5.76,0,0,1-4.19-1.5,5.41,5.41,0,0,1-1.54-4.07,5.9,5.9,0,0,1,1.48-4.22,5,5,0,0,1,3.81-1.59Zm11.78,0a5.23,5.23,0,0,1,3.43,1A4,4,0,0,1,48,36.6v6.86a.11.11,0,0,1-.1.12,1.37,1.37,0,0,1-.5.11,3.25,3.25,0,0,1-.73-.06,2.32,2.32,0,0,1-.77-.34,1.76,1.76,0,0,1-.61-.79,3.41,3.41,0,0,1-.23-1.31V36.81A1.66,1.66,0,0,0,43.17,35a7.41,7.41,0,0,0-1.88.25.23.23,0,0,0-.19.25v7.81c0,.12-.05.17-.14.17H38.35c-.11,0-.16,0-.16-.17V33.44a.23.23,0,0,1,.16-.23,14.53,14.53,0,0,1,5-.9Zm33.18,0a3.39,3.39,0,0,1,1.75.38,1.41,1.41,0,0,1,.75.94,3.21,3.21,0,0,1,.06.95,2.23,2.23,0,0,1-.18.71.16.16,0,0,1-.21.09,6,6,0,0,0-2.08-.3,4.75,4.75,0,0,0-1.38.21.15.15,0,0,0-.1.15v7.83a.15.15,0,0,1-.17.17H72.4c-.12,0-.17,0-.17-.17V33.48a.17.17,0,0,1,0-.11.33.33,0,0,0,.06-.08l.15-.1.08,0a10,10,0,0,1,4-.84Zm23.46,0q4.71,0,4.71,5.63a.86.86,0,0,1-.27.62.82.82,0,0,1-.61.25h-6.1c-.12,0-.17,0-.17.15a2.29,2.29,0,0,0,1.11,1.64,3.73,3.73,0,0,0,2.06.59,7.88,7.88,0,0,0,3.27-.73.16.16,0,0,1,.21,0,1.53,1.53,0,0,1,.25.56,2.82,2.82,0,0,1,0,.84,1.25,1.25,0,0,1-.5.91,3.35,3.35,0,0,1-1.38.65l-.25,0-.45.08-.67.07a7.57,7.57,0,0,1-.81,0,5.8,5.8,0,0,1-4.21-1.5,5.41,5.41,0,0,1-1.54-4.07,5.9,5.9,0,0,1,1.48-4.22A5,5,0,0,1,100,32.31Zm-19,.25h2.6a.15.15,0,0,1,.17.17V43.46a.11.11,0,0,1-.1.12,1.55,1.55,0,0,1-.53.11,3.21,3.21,0,0,1-.72-.06,2,2,0,0,1-.75-.34,1.86,1.86,0,0,1-.59-.79,3.34,3.34,0,0,1-.23-1.29V32.73c0-.11,0-.17.15-.17ZM31.54,34.73a2.1,2.1,0,0,0-1.5.58,3.18,3.18,0,0,0-.83,1.59.1.1,0,0,0,0,.12.28.28,0,0,0,.15,0h4.06c.09,0,.15,0,.15-.14A2.42,2.42,0,0,0,33,35.34a1.79,1.79,0,0,0-1.48-.61Zm68.42,0a2.11,2.11,0,0,0-1.52.58,3.09,3.09,0,0,0-.81,1.59c0,.05,0,.09,0,.12s.07,0,.14,0h4a.12.12,0,0,0,.14-.14,2.47,2.47,0,0,0-.56-1.56,1.76,1.76,0,0,0-1.46-.61ZM64.65,35a3.49,3.49,0,0,0-1.9.52s-.06.06-.06.12v5a.39.39,0,0,0,.25.4,6,6,0,0,0,1.25.17,3.4,3.4,0,0,0,2.39-.84,3.26,3.26,0,0,0,.92-2.52A2.74,2.74,0,0,0,64.65,35Z"/>
  </g>
</svg>
