<svg id="Layer_1" data-name="Layer 1" xmlns="http://www.w3.org/2000/svg" viewBox="0 0 48 48"><defs><style>.cls-1{fill:#df1f26;}</style></defs><title>Exact</title><path class="cls-1" d="M39.25,34.61H25c-5,0-7.47-1.78-7.83-6H36.41a1.68,1.68,0,0,0,1.78-1.78V21.44a1.68,1.68,0,0,0-1.78-1.78H17.19C17.91,15,20,13.26,25,13.26H38.9a1.68,1.68,0,0,0,1.78-1.78V6.15A1.68,1.68,0,0,0,38.9,4.37H24c-12.1,0-16.72,6-16.72,19.57S11.86,43.5,24,43.5H38.9a1.68,1.68,0,0,0,1.78-1.78V36c.36-.71-.36-1.42-1.42-1.42"/></svg>