<svg xmlns="http://www.w3.org/2000/svg" viewBox="0 0 48 48"><defs><style>.cls-1{fill:#4569a3;}.cls-2{fill:#6079ad;}.cls-3{fill:#aeaaa1;}.cls-4{fill:#d6d3c9;}.cls-5{fill:#f1eddc;}.cls-6{fill:#405988;}.cls-7{fill:#d2cfc4;}.cls-8{fill:#fff;opacity:0.3;}.cls-9{fill:#383838;opacity:0.08;}</style></defs><title>icon-</title><g id="facebook_ADs" data-name="facebook ADs"><circle class="cls-1" cx="24" cy="24" r="20.38"/><path class="cls-2" d="M18.6,27.68,19,29.42a.61.61,0,0,0,.78.43l1.1-.35a.65.65,0,0,0,.35-.28.57.57,0,0,0-.19-.75,1.61,1.61,0,0,1-.49-.49,3.56,3.56,0,0,1-.4-1l0,0h-1A.61.61,0,0,0,18.6,27.68Z"/><polyline class="cls-3" points="13.33 26.68 14.27 28.83 19.76 27.54 19.61 26.68"/><path class="cls-4" d="M14.27,28.83,16.53,34a2,2,0,0,0,3.78-1l-.55-5.45Z"/><rect class="cls-5" x="34.75" y="12.04" width="1.33" height="20.66"/><path class="cls-6" d="M13.69,17.73h6a0,0,0,0,1,0,0v9.2a0,0,0,0,1,0,0H13.9a4,4,0,0,1-4-4V21.55A3.83,3.83,0,0,1,13.69,17.73Z"/><path class="cls-7" d="M34.75,32.75c-1.47-6.44-15-5.76-15-5.76V17.75s13.37.53,15-5.75Z"/><path class="cls-8" d="M35.13,17.94h1V12.09H34.8V12c-1.65,6.28-15,5.75-15,5.75v0h-6A3.83,3.83,0,0,0,10,20.8h9.89C31.12,20.8,35.13,17.94,35.13,17.94Z"/><path class="cls-9" d="M35.07,26.71h1v5.85H34.74v.08c-1.66-6.27-15-5.75-15-5.75v0h-6a3.83,3.83,0,0,1-3.76-3.07h9.89C31.05,23.85,35.07,26.71,35.07,26.71Z"/></g></svg>