<svg xmlns="http://www.w3.org/2000/svg" viewBox="0 0 48 48"><title>fedex</title><polygon points="39.45 30.09 37.83 28.28 36.23 30.09 32.87 30.09 36.16 26.39 32.87 22.7 36.34 22.7 37.97 24.49 39.53 22.7 42.88 22.7 39.61 26.38 42.93 30.09 39.45 30.09 39.45 30.09" style="fill:#f37920;fill-rule:evenodd"/><polygon points="26.41 30.09 26.41 18.45 32.87 18.45 32.87 21.04 29.14 21.04 29.14 22.7 32.87 22.7 32.87 25.19 29.14 25.19 29.14 27.48 32.87 27.48 32.87 30.09 26.41 30.09 26.41 30.09" style="fill:#f37920;fill-rule:evenodd"/><path d="M23.68,18.45v4.76h0a2.76,2.76,0,0,0-2.23-.94,3.76,3.76,0,0,0-3.61,2.83,3.9,3.9,0,0,0-4-2.86,4.07,4.07,0,0,0-3.7,2V22.7H6.64V21h3.79V18.45H3.55V30.09H6.64v-4.9H9.72a4.77,4.77,0,0,0-.14,1.15,4.08,4.08,0,0,0,4.23,4.14,4,4,0,0,0,4-2.64H15.15a1.33,1.33,0,0,1-1.34.66,1.59,1.59,0,0,1-1.55-1.58h5.39a3.94,3.94,0,0,0,3.8,3.59,2.63,2.63,0,0,0,2.2-1.18h0v.76h2.73V18.45ZM12.34,25.23A1.5,1.5,0,0,1,13.81,24a1.41,1.41,0,0,1,1.47,1.22ZM22,28.31A1.76,1.76,0,0,1,20.4,26.4c0-1,.54-2,1.63-2s1.57,1,1.57,2-.47,1.91-1.57,1.91Z" style="fill:#472f91;fill-rule:evenodd"/><path d="M43.67,29.34a.75.75,0,1,1,.75.75.75.75,0,0,1-.75-.75Zm1.37,0a.62.62,0,0,0-.62-.62.61.61,0,0,0-.61.62.61.61,0,0,0,.61.61.61.61,0,0,0,.62-.61Zm-.77.05v.38h-.14v-.88h.28c.16,0,.33,0,.33.24a.2.2,0,0,1-.18.2h0c.12,0,.14.08.15.17a1.19,1.19,0,0,0,0,.26h-.17a.9.9,0,0,1,0-.16c0-.08,0-.15-.05-.19a.19.19,0,0,0-.13,0Zm.14-.14c.13,0,.16-.06.16-.13s0-.1-.14-.1h-.16v.23Z" style="fill:#f37920;fill-rule:evenodd"/></svg>