<svg id="Layer_1" data-name="Layer 1" xmlns="http://www.w3.org/2000/svg" viewBox="0 0 48 48"><defs><style>.cls-1{fill:#4e5d6e;}.cls-2{fill:#96d325;}.cls-3{fill:#c53753;}.cls-4{fill:#65cbb8;}</style></defs><title>figshare0</title><path class="cls-1" d="M12.07,5.7a1.89,1.89,0,0,0-1,.36,1.85,1.85,0,1,0,1-.36Zm24,0a1.87,1.87,0,1,0,1,.36A1.89,1.89,0,0,0,36,5.7Zm-4.1,1.46a1.57,1.57,0,1,0,.6.17A1.47,1.47,0,0,0,31.92,7.16ZM28.33,9.1a1.34,1.34,0,0,0-1.13.9,1.31,1.31,0,1,0,1.65-.84A1.54,1.54,0,0,0,28.33,9.1ZM12,10.3a1.56,1.56,0,0,0-1.11.46,1.57,1.57,0,1,0,2.22,0A1.53,1.53,0,0,0,12,10.3Zm13.9.84a1.08,1.08,0,0,0-1,.92,1.08,1.08,0,1,0,1.24-.91ZM24,13.24a.9.9,0,1,0,.91.9A.9.9,0,0,0,24,13.24Zm-11.48,1a1.27,1.27,0,0,0-1.1.54,1.3,1.3,0,1,0,1.82-.3A1.2,1.2,0,0,0,12.56,14.28Zm10.26,1h-.15a.74.74,0,0,0-.62.85.74.74,0,1,0,1.46-.23A.74.74,0,0,0,22.82,15.24Zm-9.28,2.24A1.09,1.09,0,0,0,13,19.54a1.09,1.09,0,0,0,1-1.94A1.11,1.11,0,0,0,13.54,17.48Zm17.64,2.07a.74.74,0,1,0,.72.4A.75.75,0,0,0,31.18,19.55ZM14.63,20a.9.9,0,0,0-.2,1.75.9.9,0,1,0,.2-1.75Zm18.83,0a.89.89,0,0,0-.36,0,.9.9,0,1,0,1.13.57A.88.88,0,0,0,33.46,20Zm2.36,1H35.6a1.11,1.11,0,1,0,.22,0ZM16,22a.75.75,0,1,0,.15,0Zm22.26.7A1.31,1.31,0,1,0,39.6,24,1.31,1.31,0,0,0,38.29,22.65Zm2.57,2.41a1.59,1.59,0,0,0-1.48,1.33,1.57,1.57,0,1,0,1.8-1.31A1.77,1.77,0,0,0,40.86,25.06ZM4.93,28.37a1.66,1.66,0,0,0-.73.08,1.87,1.87,0,1,0,.73-.08Zm38.23,0a1.85,1.85,0,1,0,.73.08A1.66,1.66,0,0,0,43.16,28.37Zm-13.41.55a.75.75,0,0,0-.52,1.27.73.73,0,0,0,1,0,.75.75,0,0,0-.52-1.27Zm-21,1.23a1.59,1.59,0,0,0-.6.17,1.57,1.57,0,1,0,2.11.69A1.58,1.58,0,0,0,8.7,30.15Zm11.73.26a.74.74,0,0,0-.39,1.4.75.75,0,0,0,1-.32.74.74,0,0,0-.32-1A.79.79,0,0,0,20.43,30.41ZM18.31,31A.9.9,0,1,0,19,32.43a.91.91,0,0,0-.2-1.26A.83.83,0,0,0,18.31,31Zm11.47,0a.86.86,0,0,0-.5.17.9.9,0,1,0,1.26.2A.9.9,0,0,0,29.78,31ZM12.47,31a1.31,1.31,0,1,0,1.1.54A1.31,1.31,0,0,0,12.47,31Zm3.18.24a1.09,1.09,0,0,0-.77.32h0a1.09,1.09,0,0,0,1.54,1.54,1.09,1.09,0,0,0-.77-1.86Zm13.71,2.19a1,1,0,0,0-.42.12A1.08,1.08,0,0,0,28.46,35a1.09,1.09,0,1,0,1.94-1A1.08,1.08,0,0,0,29.36,33.45Zm-.8,2.75a1.54,1.54,0,0,0-.52.06,1.31,1.31,0,1,0,.52-.06Zm-1.77,3.08a1.74,1.74,0,0,0-.32,0,1.57,1.57,0,0,0-1.3,1.8,1.57,1.57,0,1,0,1.62-1.81ZM24,42.36a1.86,1.86,0,1,0,1.86,1.86A1.87,1.87,0,0,0,24,42.36Z"/><path class="cls-2" d="M24,1.83A1.86,1.86,0,1,0,25.9,3.69,1.87,1.87,0,0,0,24,1.83ZM21.44,5.5a1.77,1.77,0,0,0-.32,0,1.56,1.56,0,1,0,.32,0ZM19.75,9.1a1.49,1.49,0,0,0-.51.06,1.3,1.3,0,1,0,.51-.06Zm-1.17,3.19a1,1,0,0,0-.42.12,1.09,1.09,0,1,0,1,1.94,1.09,1.09,0,0,0-.57-2.06Zm17,2a1.23,1.23,0,0,0-.73.24,1.31,1.31,0,1,0,1.83.3A1.29,1.29,0,0,0,35.53,14.28Zm-3.09.19a1.09,1.09,0,1,0,.77.32A1.09,1.09,0,0,0,32.44,14.47Zm6.73.16a1.43,1.43,0,0,0-.6.17,1.57,1.57,0,1,0,2.11.68A1.58,1.58,0,0,0,39.17,14.63Zm-20.93.49a.86.86,0,0,0-.5.17.9.9,0,0,0,1.06,1.46.91.91,0,0,0,.2-1.26A.87.87,0,0,0,18.24,15.12Zm11.6,0a.86.86,0,0,0-.75.37.88.88,0,0,0,.19,1.25.9.9,0,1,0,1.06-1.45A.84.84,0,0,0,29.84,15.12Zm-25.23.72A1.88,1.88,0,0,0,3,17.12a1.86,1.86,0,1,0,2.34-1.2A2,2,0,0,0,4.61,15.84Zm38.86,0a2,2,0,0,0-.73.08,1.86,1.86,0,1,0,2.34,1.2A1.88,1.88,0,0,0,43.47,15.84ZM27.76,16a.75.75,0,1,0,.28.08A.69.69,0,0,0,27.76,16Zm-9.43,1.49a.73.73,0,0,0-.52.21.74.74,0,1,0,1.05,0A.77.77,0,0,0,18.33,17.51ZM7.09,19.71A1.6,1.6,0,0,0,5.6,21a1.57,1.57,0,1,0,1.8-1.31A1.62,1.62,0,0,0,7.09,19.71ZM9.8,22.65A1.31,1.31,0,1,0,11.1,24,1.3,1.3,0,0,0,9.8,22.65ZM32,24.48A.74.74,0,0,0,31.9,26a.75.75,0,0,0,.85-.61.73.73,0,0,0-.62-.85Zm-19.62.25a.83.83,0,0,0-.22,0,1.11,1.11,0,1,0,.22,0Zm2.43,1.36a.89.89,0,0,0-.36,0,.91.91,0,1,0,.36,0Zm18.51,0a.9.9,0,0,0-.2,1.76.9.9,0,0,0,.56-1.72A.89.89,0,0,0,33.3,26.09Zm-16.5.79a.69.69,0,0,0-.28.08.73.73,0,1,0,.28-.08Zm17.9,1.38a1.09,1.09,0,0,0-.57,2.06,1.09,1.09,0,0,0,1-1.94A1.11,1.11,0,0,0,34.7,28.26ZM35.62,31a1.35,1.35,0,0,0-1.11.54,1.31,1.31,0,1,0,1.83-.29A1.31,1.31,0,0,0,35.62,31Zm-10.28.17h-.15a.73.73,0,1,0,.15,0ZM24,32.87a.9.9,0,1,0,.91.9A.9.9,0,0,0,24,32.87Zm12.09,1.61a1.56,1.56,0,0,0-1.11.46,1.57,1.57,0,0,0,2.22,2.22,1.56,1.56,0,0,0,0-2.22A1.53,1.53,0,0,0,36.13,34.48Zm-14,.12a1.07,1.07,0,1,0,.22,0A.83.83,0,0,0,22.14,34.6Zm-2.61,1.6a1.31,1.31,0,1,0,.51.06A1.49,1.49,0,0,0,19.53,36.2Zm-3.14,1.43a1.56,1.56,0,0,0-1.51.85A1.57,1.57,0,1,0,17,37.79,1.41,1.41,0,0,0,16.39,37.63Zm-4.19.86a1.86,1.86,0,1,0,1.44,2.95,1.86,1.86,0,0,0-1.44-2.95Zm23.69,0a1.86,1.86,0,1,0,1.16,3.36,1.85,1.85,0,0,0,.41-2.59A1.87,1.87,0,0,0,35.89,38.49Z"/><path class="cls-3" d="M30.14,2.83a1.83,1.83,0,0,0-1.6,1.28,1.86,1.86,0,1,0,2.34-1.19A1.88,1.88,0,0,0,30.14,2.83ZM26.65,5.5a1.58,1.58,0,1,0,.31,0A1.62,1.62,0,0,0,26.65,5.5ZM24,8.4a1.31,1.31,0,1,0,1.31,1.31A1.31,1.31,0,0,0,24,8.4ZM7.71,10.19a1.85,1.85,0,1,0,1,.35A1.8,1.8,0,0,0,7.71,10.19Zm14.52,1H22a1.11,1.11,0,1,0,.22,0Zm-1.14,2.58a1.11,1.11,0,0,0-.36,0,.9.9,0,0,0,.56,1.72.9.9,0,0,0-.2-1.76Zm-12.17.91a1.58,1.58,0,1,0,.6.17A1.43,1.43,0,0,0,8.92,14.63ZM20.32,16a1,1,0,0,0-.28.08.74.74,0,0,0-.32,1,.72.72,0,0,0,1,.32.74.74,0,0,0,.33-1A.75.75,0,0,0,20.32,16ZM32,17.29a.83.83,0,0,0-.49.17.9.9,0,0,0-.21,1.26.9.9,0,0,0,1.46-1.06A.9.9,0,0,0,32,17.29Zm2.59.19a1,1,0,0,0-.41.12,1.08,1.08,0,0,0-.48,1.46,1.09,1.09,0,1,0,1.94-1A1.08,1.08,0,0,0,34.54,17.48Zm-4.79,0a.73.73,0,0,0-.52.21.74.74,0,0,0,1.05,1.05.73.73,0,0,0,0-1,.74.74,0,0,0-.53-.22Zm-19.37.74a1.31,1.31,0,0,0-.29,2.55,1.31,1.31,0,0,0,.81-2.49A1.57,1.57,0,0,0,10.38,18.25Zm27.33,0a1.54,1.54,0,0,0-.52.06,1.31,1.31,0,1,0,.52-.06ZM41,19.71a1.62,1.62,0,0,0-.31,0,1.57,1.57,0,1,0,.49,3.1A1.56,1.56,0,0,0,42.48,21,1.59,1.59,0,0,0,41,19.71ZM12.26,21a1.09,1.09,0,0,0-1,.92A1.09,1.09,0,1,0,12.49,21ZM44.31,22.1A1.86,1.86,0,1,0,46.17,24,1.86,1.86,0,0,0,44.31,22.1Zm-30.08,1a.9.9,0,0,0,0,1.8.9.9,0,0,0,0-1.8Zm1.87,1.42H16a.74.74,0,1,0,.85.61A.75.75,0,0,0,16.1,24.48Zm15.19,2.4A.74.74,0,1,0,31.9,28a.75.75,0,0,0-.33-1A.69.69,0,0,0,31.29,26.88ZM32,28.83a.93.93,0,0,0-.77.37.89.89,0,0,0,.21,1.25.9.9,0,0,0,1-1.45A.83.83,0,0,0,32,28.83Zm-9.27,2.36a.74.74,0,1,0,.76.86.74.74,0,0,0-.61-.85Zm9.69.07a1.09,1.09,0,1,0,.77.32,1.09,1.09,0,0,0-.77-.32ZM20.93,32.39a.91.91,0,0,0-.2,1.76.91.91,0,0,0,1.14-.58.92.92,0,0,0-.94-1.18Zm-2.2,1.06a1.08,1.08,0,1,0,.42.11A1.31,1.31,0,0,0,18.73,33.45ZM7.58,34a1.85,1.85,0,0,0-1.43,3,1.86,1.86,0,1,0,3-2.19A1.86,1.86,0,0,0,7.58,34Zm8.13.17a1.29,1.29,0,0,0-1.1.54,1.31,1.31,0,1,0,1.83-.29A1.24,1.24,0,0,0,15.71,34.18Zm16.66,0a1.23,1.23,0,0,0-.72.25,1.31,1.31,0,1,0,1.82.29A1.27,1.27,0,0,0,32.37,34.18ZM12,34.48a1.56,1.56,0,0,0-1.11.46,1.57,1.57,0,1,0,2.22,2.22A1.57,1.57,0,0,0,12,34.48Zm19.74,3.15a1.45,1.45,0,0,0-.6.16,1.59,1.59,0,1,0,.6-.16Zm-1.23,3.75A1.86,1.86,0,1,0,30.88,45a1.86,1.86,0,0,0-.42-3.62Z"/><path class="cls-4" d="M17.94,2.83a1.86,1.86,0,1,0,.41,3.62,1.86,1.86,0,0,0-.41-3.62ZM16.17,7.16a1.47,1.47,0,0,0-.6.17A1.57,1.57,0,0,0,17,10.12,1.57,1.57,0,0,0,17.68,8,1.56,1.56,0,0,0,16.17,7.16Zm24.2,3a1.82,1.82,0,0,0-1,.35,1.87,1.87,0,1,0,1-.35Zm-4.24.11a1.56,1.56,0,0,0-1.11.46A1.57,1.57,0,1,0,37.24,13a1.56,1.56,0,0,0,0-2.22,1.53,1.53,0,0,0-1.11-.46Zm-3.67.82a1.33,1.33,0,0,0-1.1.54,1.31,1.31,0,1,0,1.1-.54Zm-16.84,0a1.31,1.31,0,0,0-.72.25,1.31,1.31,0,1,0,1.83.29A1.35,1.35,0,0,0,15.62,11.12Zm13.89,1.17a1.1,1.1,0,1,0,.42.12A1.1,1.1,0,0,0,29.51,12.29ZM27,13.72a.9.9,0,0,0-.78.62.91.91,0,0,0,.58,1.14.9.9,0,0,0,1.13-.58.89.89,0,0,0-.57-1.13A.9.9,0,0,0,27,13.72Zm-11.35.75a1.09,1.09,0,1,0,.77.32A1.09,1.09,0,0,0,15.65,14.47Zm9.62.77a.75.75,0,1,0,.15,0Zm-9.14,2a.88.88,0,0,0-.75.37.9.9,0,0,0,.19,1.26.9.9,0,1,0,1.06-1.46A.84.84,0,0,0,16.13,17.29Zm.77,2.26a.74.74,0,0,0-.39,1.4.74.74,0,1,0,.67-1.32A.69.69,0,0,0,16.9,19.55ZM32.05,22H31.9a.73.73,0,1,0,.15,0ZM3.78,22.1A1.86,1.86,0,1,0,5.64,24,1.86,1.86,0,0,0,3.78,22.1Zm30.08,1a.9.9,0,1,0,.9.9A.9.9,0,0,0,33.86,23.06Zm1.86,1.67A1.09,1.09,0,1,0,36.85,26a1.09,1.09,0,0,0-.91-1.24A.81.81,0,0,0,35.72,24.73Zm-28.49.33a1.72,1.72,0,0,0-.32,0,1.57,1.57,0,1,0,.49,3.1,1.57,1.57,0,0,0-.17-3.12Zm3.37,2a1.27,1.27,0,0,0-.51.05,1.32,1.32,0,0,0-.84,1.65,1.3,1.3,0,0,0,1.65.84,1.3,1.3,0,0,0-.3-2.54Zm26.88,0a1.31,1.31,0,1,0,1.36,1.7,1.29,1.29,0,0,0-1.36-1.7Zm-24.09,1.2a1.19,1.19,0,0,0-.42.11,1.09,1.09,0,1,0,1,1.95,1.09,1.09,0,0,0-.57-2.06Zm2.68.57a.86.86,0,0,0-.5.17.91.91,0,1,0,.5-.17Zm2.26.09a.76.76,0,0,0-.52.22.74.74,0,1,0,1.05,0A.79.79,0,0,0,18.33,28.92Zm21.06,1.23a1.58,1.58,0,0,0-1.51.86A1.57,1.57,0,1,0,40,30.32,1.64,1.64,0,0,0,39.39,30.15Zm-11.74.26a.74.74,0,0,0-.6,1.08.73.73,0,0,0,1,.32.74.74,0,0,0-.39-1.4Zm-.5,2a.87.87,0,0,0-.35,0,.87.87,0,1,0,.35,0ZM40.5,34a1.89,1.89,0,0,0-1.57.76A1.87,1.87,0,1,0,40.5,34ZM26,34.6a.81.81,0,0,0-.22,0,1.1,1.1,0,1,0,.22,0ZM24,36.9a1.31,1.31,0,1,0,1.31,1.3A1.3,1.3,0,0,0,24,36.9ZM21.3,39.28a1.53,1.53,0,1,0,.32,0A1.74,1.74,0,0,0,21.3,39.28Zm-3.68,2.1a1.85,1.85,0,1,0,.73.08A1.83,1.83,0,0,0,17.62,41.38Z"/></svg>