<svg id="Layer_1" data-name="Layer 1" xmlns="http://www.w3.org/2000/svg" viewBox="0 0 48 48"><defs><style>.cls-1{fill:#068edf;}</style></defs><title>float</title><path id="Rectangle-3" class="cls-1" d="M9.6,8.4H38.4A3.6,3.6,0,0,1,42,12h0a3.6,3.6,0,0,1-3.6,3.6H9.6A3.6,3.6,0,0,1,6,12H6A3.6,3.6,0,0,1,9.6,8.4Z"/><path id="Rectangle-4" class="cls-1" d="M27.6,20.4H38.4A3.6,3.6,0,0,1,42,24h0a3.6,3.6,0,0,1-3.6,3.6H27.6A3.6,3.6,0,0,1,24,24h0A3.6,3.6,0,0,1,27.6,20.4Z"/><path id="Rectangle-5" class="cls-1" d="M16.8,32.4H38.4A3.6,3.6,0,0,1,42,36h0a3.6,3.6,0,0,1-3.6,3.6H16.8A3.6,3.6,0,0,1,13.2,36h0A3.6,3.6,0,0,1,16.8,32.4Z"/></svg>