<svg id="Layer_1" data-name="Layer 1" xmlns="http://www.w3.org/2000/svg" viewBox="0 0 48 48"><defs><style>.cls-1{fill:#73a5ff;}.cls-2{fill:#fff;}.cls-3{fill:#2864f0;}</style></defs><polygon class="cls-1" points="9.32 17.93 7.77 16.89 3.47 17.73 3.72 19.02 5.31 27.2 16.93 24.94 15.34 16.76 9.32 17.93"/><circle class="cls-2" cx="10.03" cy="20.48" r="1.32"/><path class="cls-2" d="M10.45,22.63C9,22.91,8,23.9,8.2,24.85l5.17-1C13.18,22.9,11.88,22.35,10.45,22.63Z"/><polygon class="cls-1" points="4.62 28.23 3.02 20.05 1.73 20.3 3.57 29.77 15.2 27.51 14.95 26.22 4.62 28.23"/><path class="cls-3" d="M39,24.11a45.28,45.28,0,0,1-9-.9A24.46,24.46,0,0,0,43.2,6.67L24.77,20.85c-1,.8-1.3.53-2.28.53A5.93,5.93,0,0,0,18.4,23a1.8,1.8,0,0,1-1.09.66L16,24l2.46.54A4.56,4.56,0,0,1,22,26.67l13.86,18A20.35,20.35,0,0,0,31,29.89a13.46,13.46,0,0,0,4.29-.74,6.4,6.4,0,0,1,2.83-.48h7.35c.1-.49-.09-.64-.81-.74l-5.69-.79c.26-.18.6-.49.86-.7a2.85,2.85,0,0,1,1.56-.8,42.09,42.09,0,0,0,4.43-1.33c.62-.22.53-.44.65-.83A41.7,41.7,0,0,1,39,24.11Z"/><path class="cls-2" d="M21.91,24.46a.91.91,0,1,1,.92-.91A.91.91,0,0,1,21.91,24.46Z"/><path class="cls-2" d="M30.82,28.78a12.16,12.16,0,0,1-8.33-3.3,20,20,0,0,1,7.77-.32,80.85,80.85,0,0,0,8.33.82A12.11,12.11,0,0,1,30.82,28.78Z"/></svg>