<svg id="Layer_1" data-name="Layer 1" xmlns="http://www.w3.org/2000/svg" viewBox="0 0 48 48"><defs><style>.cls-1{fill:#73a5ff;}.cls-2{fill:#fff;}.cls-3{fill:#2864f0;}</style></defs><path class="cls-1" d="M13.6,14.6l-.94-4.86L2,11.82l.94,4.86L1.65,17.93l1.61,8.25,13.59-2.64-1.6-8.25Z"/><polygon class="cls-2" points="9.4 21.46 13.16 17.49 11.88 10.9 3.14 12.6 4.42 19.19 9.4 21.46"/><rect class="cls-1" x="4.95" y="13.48" width="2.97" height="0.99" transform="translate(-2.55 1.48) rotate(-11)"/><rect class="cls-1" x="5.39" y="15.63" width="5.94" height="0.99" transform="translate(-2.92 1.89) rotate(-11)"/><rect class="cls-1" x="5.86" y="18.06" width="5.94" height="0.99" transform="translate(-3.38 2.03) rotate(-11)"/><path class="cls-3" d="M38.92,22.44a45.11,45.11,0,0,1-9-.9A24.47,24.47,0,0,0,43.12,5L24.69,19.19c-1,.79-1.3.52-2.28.52a5.93,5.93,0,0,0-4.09,1.64,1.69,1.69,0,0,1-1.09.66L16,22.32l2.45.54A4.55,4.55,0,0,1,21.87,25L35.73,43a20.36,20.36,0,0,0-4.86-14.78,13.14,13.14,0,0,0,4.29-.74A6.41,6.41,0,0,1,38,27h7.35c.1-.5-.09-.64-.81-.74l-5.69-.79c.26-.18.6-.49.86-.71a3,3,0,0,1,1.56-.8,42.26,42.26,0,0,0,4.44-1.33c.61-.21.52-.44.65-.82A42.82,42.82,0,0,1,38.92,22.44Z"/><path class="cls-2" d="M21.83,22.8a.92.92,0,1,1,.92-.92A.92.92,0,0,1,21.83,22.8Z"/><path class="cls-2" d="M30.75,27.11a12.14,12.14,0,0,1-8.33-3.29,19.85,19.85,0,0,1,7.76-.33,78.16,78.16,0,0,0,8.33.82A12.11,12.11,0,0,1,30.75,27.11Z"/></svg>