<svg id="Layer_1" data-name="Layer 1" xmlns="http://www.w3.org/2000/svg" viewBox="0 0 48 48"><defs><style>.cls-1{fill:#ff0c64;}</style></defs><title>front0</title><path class="cls-1" d="M37.66,8.31a.47.47,0,0,0-.33-.14H26.94a.44.44,0,0,0-.29.11L24.29,10a.43.43,0,0,1-.58,0L21.35,8.28a.44.44,0,0,0-.29-.11H10.67a.47.47,0,0,0-.33.14,18.72,18.72,0,1,0,27.32,0Zm-4.4,4.87a12.3,12.3,0,0,1,3,8.13,12.43,12.43,0,0,1-13,12.4,12.24,12.24,0,0,1-11.45-12,12.28,12.28,0,0,1,3-8.57.45.45,0,0,0,0-.6L11,9l12.44,8.91a.89.89,0,0,0,1.11,0L37,9l-3.73,3.6A.44.44,0,0,0,33.26,13.18Z"/></svg>