<svg xmlns="http://www.w3.org/2000/svg" viewBox="0 0 48 48"><defs><style>.cls-1{fill:#003686;}.cls-2{fill:#fff;}</style></defs><title>icon-</title><g id="garoon"><circle class="cls-1" cx="24" cy="24" r="19"/><g id="ZZIGIt.tif"><path class="cls-2" d="M29.87,17.4l-.77,2.41a1.89,1.89,0,0,1-.28-.26c-1.44-2.21-3.56-2.68-5.95-2.15s-3.76,2.36-4.23,4.76a8.26,8.26,0,0,0,.64,5.4,6,6,0,0,0,7.87,2.73.85.85,0,0,0,.58-.89c0-.88,0-1.77,0-2.65,0-.48-.18-.64-.64-.63-.86,0-1.71,0-2.61,0v-1.4h4.61c.48,0,.71.15.71.67,0,1.61,0,3.23,0,4.84,0,.21-.22.58-.39.61a33.74,33.74,0,0,1-4.75.83A10.08,10.08,0,0,1,21,31.21a6.75,6.75,0,0,1-4.75-6c-.35-3,.31-5.66,2.94-7.49A9.3,9.3,0,0,1,26,16.45,40,40,0,0,1,29.87,17.4Z"/></g></g></svg>