<svg id="Layer_1" data-name="Layer 1" xmlns="http://www.w3.org/2000/svg" viewBox="0 0 48 48"><defs><style>.cls-1{fill:#197cb9;}</style></defs><title>Generic</title><path class="cls-1" d="M42.08,30.46h-5.2a.51.51,0,0,1,0-1h5.2a.51.51,0,0,1,0,1Z"/><path class="cls-1" d="M42.08,21h-5.2a.51.51,0,1,1,0-1h5.2a.51.51,0,0,1,0,1Z"/><path class="cls-1" d="M11.77,30.46H6.57a.51.51,0,1,1,0-1h5.2a.51.51,0,1,1,0,1Z"/><path class="cls-1" d="M11.77,21H6.57a.51.51,0,0,1,0-1h5.2a.51.51,0,0,1,0,1Z"/><path class="cls-1" d="M34,37.93H14.15a2.79,2.79,0,0,1-2.78-2.78V15.26a2.78,2.78,0,0,1,2.78-2.78H34a2.78,2.78,0,0,1,2.78,2.78V35.15A2.79,2.79,0,0,1,34,37.93ZM14.15,13.5a1.76,1.76,0,0,0-1.76,1.76V35.15a1.76,1.76,0,0,0,1.76,1.76H34a1.76,1.76,0,0,0,1.76-1.76V15.26A1.76,1.76,0,0,0,34,13.5Z"/><path class="cls-1" d="M32.92,34.53H15.27a.5.5,0,0,1-.5-.51V16.38a.5.5,0,0,1,.5-.51H32.92a.51.51,0,0,1,.51.51V34A.51.51,0,0,1,32.92,34.53Zm-17.14-1H32.41V16.89H15.78Z"/><path class="cls-1" d="M44.39,23.08a2.6,2.6,0,1,1,2.6-2.6A2.6,2.6,0,0,1,44.39,23.08Zm0-4.18A1.58,1.58,0,1,0,46,20.48,1.58,1.58,0,0,0,44.39,18.9Z"/><path class="cls-1" d="M4.36,32.6A2.6,2.6,0,1,1,7,30,2.6,2.6,0,0,1,4.36,32.6Zm0-4.18A1.59,1.59,0,1,0,5.94,30,1.58,1.58,0,0,0,4.36,28.42Z"/></svg>