<svg width="48" height="48" viewBox="0 0 48 48" fill="none" xmlns="http://www.w3.org/2000/svg">
<g clip-path="url(#clip0_1638_11304)">
<path d="M8.45455 36.5491H14.1818V22.64L6 16.5037V34.0946C6 35.4528 7.10045 36.5491 8.45455 36.5491Z" fill="#4285F4"/>
<path d="M33.8182 36.5491H39.5455C40.9036 36.5491 42 35.4487 42 34.0946V16.5037L33.8182 22.64" fill="#34A853"/>
<path d="M33.8182 12.0037V22.64L42 16.5037V13.231C42 10.1955 38.535 8.46505 36.1091 10.2855" fill="#FBBC04"/>
<path d="M14.1818 22.64V12.0037L24 19.3673L33.8182 12.0037V22.64L24 30.0037" fill="#EA4335"/>
<path d="M6 13.231V16.5037L14.1818 22.64V12.0037L11.8909 10.2855C9.46091 8.46505 6 10.1955 6 13.231Z" fill="#C5221F"/>
</g>
<defs>
<clipPath id="clip0_1638_11304">
<rect width="36" height="27" fill="white" transform="translate(6 9.54912)"/>
</clipPath>
</defs>
</svg>
