<svg width="48" height="48" viewBox="0 0 48 48" fill="none" xmlns="http://www.w3.org/2000/svg">
<path d="M18.2507 10.6866C18.5987 9.77661 19.0771 8.93881 19.7875 8.2599C22.6292 5.50091 27.3266 6.19427 29.2549 9.66105C30.7047 12.29 32.2416 14.8612 33.7349 17.4613C36.2286 21.7803 38.7513 26.0994 41.216 30.4329C43.2892 34.0585 41.042 38.6376 36.9245 39.2587C34.4018 39.6343 32.0386 38.4787 30.7337 36.2253C28.5445 32.4263 26.3408 28.6272 24.1515 24.8427C24.108 24.756 24.05 24.6838 23.992 24.6116C23.7601 24.4238 23.6586 24.1493 23.5136 23.9038C22.5422 22.1993 21.5418 20.5092 20.5704 18.8191C19.947 17.7213 19.2946 16.638 18.6712 15.5401C18.1057 14.5579 17.8448 13.489 17.8738 12.3623C17.9173 11.7845 17.9898 11.2067 18.2507 10.6866Z" fill="#3C8BD9"/>
<path d="M18.2507 10.6866C18.1202 11.2067 18.0042 11.7267 17.9753 12.2756C17.9318 13.489 18.2362 14.6157 18.8451 15.6701C20.44 18.4002 22.0348 21.1448 23.6151 23.8893C23.7601 24.1349 23.876 24.3804 24.021 24.6116C23.1511 26.1138 22.2812 27.6017 21.3968 29.1039C20.179 31.1984 18.9611 33.3074 17.7288 35.4019C17.6708 35.4019 17.6563 35.373 17.6418 35.3297C17.6273 35.2141 17.6708 35.113 17.6998 34.9975C18.2942 32.8307 17.8013 30.9095 16.308 29.2628C15.3946 28.2661 14.2347 27.7028 12.9009 27.515C11.1611 27.2694 9.62425 27.7172 8.24691 28.8006C8.00044 28.9884 7.84096 29.2628 7.551 29.4073C7.493 29.4073 7.46401 29.3784 7.44951 29.335C8.14543 28.1361 8.82684 26.9372 9.52276 25.7383C12.3934 20.7692 15.2641 15.8001 18.1492 10.8455C18.1782 10.7878 18.2217 10.7444 18.2507 10.6866Z" fill="#FABC04"/>
<path d="M7.5075 29.3784C7.78297 29.1328 8.04394 28.8728 8.3339 28.6417C11.857 25.8683 17.1488 27.8761 17.9173 32.2674C18.1057 33.3218 18.0042 34.333 17.6853 35.3441C17.6708 35.4308 17.6563 35.503 17.6273 35.5897C17.4968 35.8208 17.3808 36.0664 17.2358 36.2975C15.9455 38.4209 14.0462 39.4754 11.5525 39.3165C8.69636 39.1143 6.44913 36.9764 6.05767 34.1452C5.86919 32.7729 6.14466 31.4873 6.85508 30.3028C7.00006 30.0428 7.17404 29.8117 7.33352 29.5517C7.40601 29.4939 7.37701 29.3784 7.5075 29.3784Z" fill="#34A852"/>
<path d="M7.5075 29.3784C7.44951 29.4362 7.44951 29.5373 7.34802 29.5517C7.33352 29.4506 7.39151 29.3928 7.44951 29.3206L7.5075 29.3784Z" fill="#FABC04"/>
<path d="M17.6273 35.5897C17.5693 35.4886 17.6273 35.4164 17.6853 35.3441C17.6998 35.3586 17.7288 35.3875 17.7433 35.4019L17.6273 35.5897Z" fill="#E1C025"/>
</svg>
