<svg xmlns="http://www.w3.org/2000/svg" viewBox="0 0 48 48"><title>googlecloudspanner</title><path d="M9.54,40.8,2,27.77a7.18,7.18,0,0,1,0-7.35l7.55-13A7.44,7.44,0,0,1,16,3.65H31a7.56,7.56,0,0,1,6.42,3.73l7.56,13a7.22,7.22,0,0,1,0,7.35l-7.46,13a7.42,7.42,0,0,1-6.41,3.73H16A7.31,7.31,0,0,1,9.54,40.8Z" style="fill:#4388ef"/><path d="M42.35,32,26.72,16.59l-4.34,7.24-6.83,4.45c1.24,1.56.93,1.56.93,1.45l14.8,14.7.2.2h1.66a3.73,3.73,0,0,0,3.1-1.76Z" style="fill:#3f7ed4"/><polygon points="15.44 28.28 15.23 25.9 18.03 24.25 19.79 25.49 22.38 23.83 22.38 20.73 20.62 19.8 20.51 16.69 22.69 15.76 22.69 18.14 23.62 18.76 24.55 18.25 24.55 15.66 26.82 16.69 26.72 20 24.86 20.93 24.86 23.73 27.55 25.39 29.31 24.25 32 25.8 31.79 28.28 29.52 27.14 28.69 27.45 28.69 28.49 30.96 29.73 28.89 31.28 26 29.63 26 27.35 23.62 26.01 20.93 27.56 20.93 29.52 18.13 31.28 16.37 29.73 18.55 28.39 18.55 27.56 17.72 27.04 15.44 28.28" style="fill:#fff"/></svg>