<?xml version="1.0" encoding="utf-8"?>
<!-- Generator: Adobe Illustrator 22.1.0, SVG Export Plug-In . SVG Version: 6.00 Build 0)  -->
<svg version="1.1" baseProfile="tiny" id="Layer_1" xmlns="http://www.w3.org/2000/svg" xmlns:xlink="http://www.w3.org/1999/xlink"
	 x="0px" y="0px" viewBox="0 0 48 48" xml:space="preserve">
<title>Artboard 1</title>
<g>
	<g id="Layer_1_1_">
		<g id="_Group_">
			<path id="_Path_2" fill="#FFFFFF" d="M13.4,4.3c0.3-0.1,0.6,0,0.9,0.1c0.4,0.2,0.7,0.6,0.8,1c0.1,0.3,0,0.7-0.1,1
				c-0.3,0.6-1,0.9-1.6,0.8c-0.7-0.2-1.1-0.8-1.1-1.5C12.3,5,12.8,4.5,13.4,4.3z"/>
			<path id="_Path_3" fill="#FFFFFF" d="M32.1,4.3c0.3-0.1,0.7,0,1,0.1c0.5,0.2,0.8,0.7,0.8,1.2c0,0.4-0.1,0.8-0.4,1.1
				c-0.6,0.6-1.5,0.6-2,0c-0.1-0.1-0.2-0.3-0.3-0.5C31,6,31,5.7,31,5.4C31.1,4.9,31.5,4.4,32.1,4.3z"/>
			<path id="_Path_4" fill="#FFFFFF" d="M30.2,26.4h2.2c0,2.9,0,5.9,0,8.8h-2.2C30.2,32.3,30.2,29.3,30.2,26.4z"/>
			<g id="_Group_2">
				<g id="_Group_3">
					<path id="_Compound_Path_" fill="#C7C7C7" d="M6.2,3c0.5-0.2,1-0.2,1.5-0.2h31.1c1.6,0,3,1.2,3,2.8c0,0.1,0,0.1,0,0.2
						c0,1,0,2,0,3c-0.3-0.1-0.7-0.2-1-0.2H5.5c-0.4,0-0.7,0-1.1,0.2c0-1,0-2.1,0-3.1C4.5,4.5,5.2,3.5,6.2,3z M13.4,4.3
						c-0.6,0.2-1.1,0.7-1.1,1.4c0,0.7,0.5,1.3,1.1,1.4c0.7,0.2,1.3-0.2,1.6-0.8c0.1-0.3,0.2-0.7,0.1-1c-0.1-0.4-0.4-0.8-0.8-1
						C14,4.3,13.7,4.2,13.4,4.3z M32.1,4.3c-0.5,0.1-1,0.6-1.1,1.1c0,0.3,0,0.6,0.1,0.9c0.3,0.7,1.2,1.1,1.9,0.7
						c0.2-0.1,0.3-0.2,0.5-0.3c0.3-0.3,0.5-0.7,0.4-1.1c-0.1-0.5-0.4-1-0.9-1.2C32.7,4.3,32.4,4.2,32.1,4.3L32.1,4.3z"/>
				</g>
				<path id="_Path_5" fill="#C7C7C7" d="M31.9,17.6c0.2,0,0.4,0,0.5,0c0,3,0,5.9,0,8.8l0,0h-2.2v-6.2c-1.5,0.5-2.9,1-4.4,1.5
					c0-0.7,0-1.3,0-2L31.9,17.6z"/>
				<path id="_Path_6" fill="#C7C7C7" d="M13.9,18.6c0.9-0.7,2.1-1.1,3.2-1.1c1.2-0.1,2.3,0.2,3.3,0.7c0.8,0.5,1.4,1.2,1.8,2
					c0.3,0.9,0.5,1.8,0.3,2.7c-0.3,1.4-1.3,2.6-2.6,3.2c0.2,0.1,0.4,0.1,0.5,0.2c-0.1,0-0.2,0-0.4,0c-1.5,0-3.1,0-4.6,0
					c0-0.3,0-0.7,0-1c1.1,0.1,2.3,0,3.3-0.4c0.9-0.4,1.5-1.2,1.6-2.1c0.1-0.9,0-1.8-0.5-2.6c-0.4-0.6-1.1-0.9-1.8-1
					c-1-0.2-1.9,0-2.8,0.5c-0.8,0.6-1.2,1.5-1.2,2.4c-0.7,0-1.4,0-2.1,0c0-0.4,0-0.8,0.1-1.2C12.5,20.1,13.1,19.3,13.9,18.6z"/>
			</g>
			<g>
				<g id="_Group_4">
					<path id="_Path_7" fill="#4483EF" d="M4.4,8.8c0.4-0.1,0.7-0.2,1.1-0.2h35.2c0.3,0,0.7,0.1,1,0.2c1,0.4,1.8,1.3,1.9,2.4
						c-0.2-0.8-0.7-1.4-1.3-1.8c-0.5-0.3-1-0.5-1.6-0.5H5.5c-0.9,0-1.8,0.4-2.3,1.1c-0.2,0.3-0.4,0.6-0.6,1C2.8,10,3.5,9.2,4.4,8.8z
						"/>
					<path id="_Path_8" fill="#4483EF" d="M30.2,26.4L30.2,26.4L30.2,26.4c0,2.9,0,5.9,0,8.8h2.2c0-2.9,0-5.9,0-8.8l0,0l0,0
						c0.3,0,0.7,0,1,0h8.3c0.3,4.6,0.6,9.3,0.9,13.9c0.1,0.5,0.1,1.1,0,1.6l0,0c-0.1,0.2-0.2,0.3-0.3,0.5c-0.5,0.9-1.5,1.4-2.5,1.4
						H6.7c-0.3,0-0.7,0-1-0.1c-0.8-0.2-1.4-0.7-1.8-1.4c-0.1-0.2-0.2-0.3-0.3-0.5l0,0c-0.1-0.7-0.1-1.4,0-2.1
						c0.3-4.5,0.6-8.9,0.9-13.4h11c0,0.2,0,0.4,0,0.6c1.2-0.1,2.4,0,3.5,0.4c0.8,0.3,1.3,0.9,1.6,1.7c0.3,0.9,0.2,1.8-0.1,2.6
						c-0.3,0.8-1,1.4-1.8,1.6c-1,0.3-2,0.3-3-0.1c-0.7-0.3-1.3-0.9-1.5-1.7c-0.1-0.3-0.1-0.7-0.1-1h-2.1c0,0.9,0.3,1.8,0.7,2.5
						c0.6,0.8,1.3,1.4,2.3,1.8c1.2,0.4,2.4,0.6,3.6,0.4c1.2-0.2,2.3-0.7,3.1-1.6c0.7-0.8,1.1-1.9,1.2-3c0.1-1-0.2-2.1-0.8-2.9
						c-0.4-0.5-0.9-0.9-1.4-1.1c0.3,0,0.5,0,0.8,0h7.8C29.5,26.4,29.8,26.4,30.2,26.4z"/>
				</g>
			</g>
			<g id="_Group_5">
				<path id="_Path_9" fill="#3664D0" d="M3.1,10c0.6-0.7,1.4-1.1,2.3-1.1h35.3c0.6,0,1.1,0.2,1.6,0.5c0.7,0.4,1.1,1.1,1.3,1.8
					c0,0.3,0,0.5,0,0.8c-0.6,4.8-1.3,9.6-1.9,14.4c-2.7,0-5.3,0-8,0c-0.4,0-0.9,0-1.3,0l0,0c0-2.9,0-5.9,0-8.8c-0.2,0-0.4,0-0.5,0
					l-6.1,2.2c0,0.7,0,1.3,0,2c1.5-0.5,3-1,4.4-1.5v6.1l0,0c-3.1,0-6.2,0-9.3,0c-0.2,0-0.3,0-0.5,0c-0.2-0.1-0.4-0.2-0.5-0.2
					c1.3-0.5,2.3-1.7,2.6-3.1c0.1-0.9,0-1.8-0.4-2.7c-0.3-0.8-1-1.5-1.8-2c-1-0.6-2.2-0.8-3.3-0.7c-1.2,0-2.3,0.4-3.2,1.1
					c-0.8,0.6-1.4,1.5-1.7,2.5c-0.1,0.4-0.1,0.8-0.1,1.2c0.7,0,1.4,0,2.1,0c0-1,0.4-1.9,1.2-2.4c0.8-0.5,1.8-0.7,2.8-0.5
					c0.7,0.1,1.4,0.4,1.8,1c0.5,0.8,0.7,1.7,0.5,2.6c-0.2,0.9-0.8,1.7-1.6,2c-1.1,0.4-2.2,0.5-3.3,0.4l0,0c0,0.3,0,0.7,0,1
					c-3.7,0-7.4,0-11,0C3.9,21.7,3.2,17,2.6,12.3c-0.1-0.4-0.1-0.9,0-1.3C2.7,10.6,2.9,10.3,3.1,10z"/>
				<path id="_Path_10" fill="#3664D0" d="M3.5,41.9c0.1,0.1,0.2,0.3,0.3,0.5c0.4,0.7,1.1,1.2,1.8,1.4c0.3,0.1,0.7,0.1,1,0.1h33.2
					c1,0,2-0.5,2.5-1.4c0.1-0.2,0.2-0.4,0.3-0.5c-0.3,0.9-1,1.7-1.9,2c-0.5,0.1-1.1,0.2-1.6,0.1H6.8c-0.4,0-0.9,0-1.3-0.1
					C4.6,43.6,3.8,42.9,3.5,41.9z"/>
			</g>
		</g>
	</g>
</g>
</svg>
