<svg xmlns="http://www.w3.org/2000/svg" xmlns:xlink="http://www.w3.org/1999/xlink" viewBox="0 0 48 48"><defs><linearGradient id="a" x1="-152.4" y1="-304.33" x2="-152.4" y2="-285.11" gradientTransform="translate(292.8 550.89) scale(1.8)" gradientUnits="userSpaceOnUse"><stop offset="0" stop-opacity="0.6"/><stop offset="0.6" stop-opacity="0.1"/></linearGradient><linearGradient id="b" x1="-147.56" y1="-285.2" x2="-147.56" y2="-304.4" xlink:href="#a"/><linearGradient id="c" x1="-154.86" y1="-292.92" x2="-151.59" y2="-282.4" gradientTransform="translate(292.8 550.89) scale(1.8)" gradientUnits="userSpaceOnUse"><stop offset="0" stop-opacity="0.5"/><stop offset="0.75" stop-opacity="0.03"/></linearGradient><linearGradient id="d" x1="-156.81" y1="-297.14" x2="-147.36" y2="-297.14" gradientTransform="translate(292.8 550.89) scale(1.8)" gradientUnits="userSpaceOnUse"><stop offset="0" stop-opacity="0.9"/><stop offset="0.6" stop-opacity="0.1"/></linearGradient></defs><title>doubleclick cm</title><path d="M27.17,3a15.91,15.91,0,0,0-4.32.57A17.37,17.37,0,0,1,35.88,20v.67a8.75,8.75,0,0,1-8.71,8.37,8.36,8.36,0,0,1-4.32-1.16,8.64,8.64,0,0,1-4.34-7.55,8.78,8.78,0,0,1,4.32-7.54,8.44,8.44,0,0,0-4.32-1.16A8.64,8.64,0,0,0,9.86,20v.67A17.34,17.34,0,1,0,27.17,3Z" style="fill:#369647"/><path d="M35.82,20A17.35,17.35,0,1,0,18.46,37.7a15.91,15.91,0,0,0,4.32-.57,17.32,17.32,0,0,1-13-16.46V20a8.7,8.7,0,0,1,8.65-8.37,8.36,8.36,0,0,1,4.32,1.16,8.61,8.61,0,0,1,4.31,7.55,8.79,8.79,0,0,1-4.31,7.54A9.2,9.2,0,0,0,27.14,29a8.65,8.65,0,0,0,8.66-8.37v-.33A1.51,1.51,0,0,0,35.82,20Z" style="fill:#aeea00"/><path d="M35.82,20A17.35,17.35,0,1,0,18.46,37.7a15.91,15.91,0,0,0,4.32-.57,17.32,17.32,0,0,1-13-16.46V20a8.7,8.7,0,0,1,8.65-8.37,8.36,8.36,0,0,1,4.32,1.16,8.61,8.61,0,0,1,4.31,7.55,8.79,8.79,0,0,1-4.31,7.54A9.2,9.2,0,0,0,27.14,29a8.65,8.65,0,0,0,8.66-8.37v-.33A1.51,1.51,0,0,0,35.82,20Z" style="opacity:0.150000005960464;isolation:isolate;fill:url(#a)"/><path d="M27.17,3a15.91,15.91,0,0,0-4.32.57A17.37,17.37,0,0,1,35.88,20v.67a8.75,8.75,0,0,1-8.71,8.37,8.36,8.36,0,0,1-4.32-1.16,8.64,8.64,0,0,1-4.34-7.55,8.78,8.78,0,0,1,4.32-7.54,8.44,8.44,0,0,0-4.32-1.16A8.64,8.64,0,0,0,9.86,20v.67A17.34,17.34,0,1,0,27.17,3Z" style="opacity:0.150000005960464;isolation:isolate;fill:url(#b)"/><path d="M22.8,37.16a17.34,17.34,0,0,1-13-16.46v.08a25.29,25.29,0,0,0,6.28,16.79,19.06,19.06,0,0,0,2.38.18A19.48,19.48,0,0,0,22.8,37.16Z" style="opacity:0.400000005960465;isolation:isolate;fill:url(#c)"/><path d="M9.91,20.08a8.61,8.61,0,0,1,10.57-5.82,2,2,0,0,0,.46.13,9.25,9.25,0,0,1,1.91-1.52,8.37,8.37,0,0,0-4.31-1.16,8.61,8.61,0,0,0-8.63,8.37l0,.28A.28.28,0,0,1,9.91,20.08Z" style="opacity:0.25;isolation:isolate;fill:url(#d)"/><g style="isolation:isolate"><path d="M32.05,38.58a3.28,3.28,0,0,1,2.44-1,3.29,3.29,0,0,1,2.89,1.31,3,3,0,0,1,.54,1.48H36.27a2.38,2.38,0,0,0-.41-.86,1.78,1.78,0,0,0-2.7.21,3.56,3.56,0,0,0-.52,2.06,3.14,3.14,0,0,0,.54,2,1.7,1.7,0,0,0,1.37.66,1.55,1.55,0,0,0,1.3-.57,2.65,2.65,0,0,0,.41-.92H37.9a3.58,3.58,0,0,1-1.08,2.11,3.18,3.18,0,0,1-2.24.81,3.36,3.36,0,0,1-2.66-1.1,4.43,4.43,0,0,1-1-3A4.38,4.38,0,0,1,32.05,38.58Z" style="fill:#359647;isolation:isolate"/><path d="M44.49,37.75h2.38v7.92H45.33V40.31c0-.15,0-.37,0-.64V39l-1.5,6.65H42.23L40.75,39v.65c0,.27,0,.49,0,.64v5.36H39.21V37.75h2.41L43.06,44Z" style="fill:#359647;isolation:isolate"/></g></svg>