<svg width="48" height="48" viewBox="0 0 48 48" fill="none" xmlns="http://www.w3.org/2000/svg">
<g clip-path="url(#clip0_1534_236)">
<path d="M30.75 9.29545V36.2954C30.75 39.3189 32.8338 41 35.0454 41C37.0909 41 39.3409 39.5682 39.3409 36.2954V9.49999C39.3409 6.73224 37.2954 5 35.0454 5C32.7954 5 30.75 6.91122 30.75 9.29545Z" fill="#F8AB00"/>
<path d="M19.5 23V36.2954C19.5 39.3189 21.5838 41 23.7955 41C25.8409 41 28.0909 39.5682 28.0909 36.2954V23.2045C28.0909 20.4368 26.0455 18.7045 23.7955 18.7045C21.5455 18.7045 19.5 20.6158 19.5 23Z" fill="#E37300"/>
<path d="M16.8409 36.7045C16.8409 39.076 14.9169 41 12.5455 41C10.174 41 8.25 39.076 8.25 36.7045C8.25 34.3331 10.174 32.4091 12.5455 32.4091C14.9169 32.4091 16.8409 34.3331 16.8409 36.7045Z" fill="#E37300"/>
</g>
<defs>
<clipPath id="clip0_1534_236">
<rect width="36" height="36" fill="white" transform="translate(6 5)"/>
</clipPath>
</defs>
</svg>
