<svg id="Layer_1" data-name="Layer 1" xmlns="http://www.w3.org/2000/svg" xmlns:xlink="http://www.w3.org/1999/xlink" viewBox="0 0 48 48"><defs><style>.cls-1{fill:url(#linear-gradient);}</style><linearGradient id="linear-gradient" x1="24" y1="-821.66" x2="24" y2="-781.75" gradientTransform="matrix(1, 0, 0, -1, 0, -766)" gradientUnits="userSpaceOnUse"><stop offset="0" stop-color="#fff100"/><stop offset="1" stop-color="#f05a28"/></linearGradient></defs><title>garafana</title><path class="cls-1" d="M44,21.43a15.52,15.52,0,0,0-1.57-5.53,16.65,16.65,0,0,0-2.12-3.22,16,16,0,0,0-1.14-1.23,6.32,6.32,0,0,0-.75-4.56A6.74,6.74,0,0,0,34.06,8l-.27-.12a13.07,13.07,0,0,0-1.24-.45c-.42-.13-.85-.25-1.3-.36s-.89-.19-1.35-.26l-.24,0a8.16,8.16,0,0,0-4-4.65,8.72,8.72,0,0,0-3.9,5s0,.07,0,.18l-.54.16c-.26.07-.5.16-.75.25l-.75.3q-.75.33-1.47.72c-.46.27-.92.55-1.37.86l-.11,0a11.34,11.34,0,0,0-8.58.36,12.44,12.44,0,0,0,2.24,8.43l-.3.91a20.72,20.72,0,0,0-.74,3.38l-.06.5a11.24,11.24,0,0,0-5.44,6.33,12,12,0,0,0,7.59,4.28h0a18.85,18.85,0,0,0,1.79,2.64c.28.34.59.67.89,1a9.44,9.44,0,0,0,.18,6.7,10.83,10.83,0,0,0,7-2.13c.39.13.78.25,1.18.35a18.19,18.19,0,0,0,3.66.55l.92,0h.64a7.89,7.89,0,0,0,5.07,3,8.09,8.09,0,0,0,2.43-5.35h0v-.11h0v-.12a13.1,13.1,0,0,0,1.37-1.09,14.52,14.52,0,0,0,2.4-2.8l.18-.29a6.45,6.45,0,0,0,4.44-1.61,6.88,6.88,0,0,0-2.3-4.29h0l0,0,0,0h0l-.06,0c0-.17,0-.33,0-.49s0-.59,0-.88V28.1l0-.24a1.79,1.79,0,0,0,0-.24,1.64,1.64,0,0,0,0-.22l0-.23,0-.22c0-.3-.1-.59-.17-.89a11.36,11.36,0,0,0-1.33-3.28,11.14,11.14,0,0,0-2.2-2.62,10.72,10.72,0,0,0-2.78-1.79,10.62,10.62,0,0,0-3.07-.87,13.56,13.56,0,0,0-1.55-.09h-.39l-.19,0-.21,0a6.66,6.66,0,0,0-.78.11,8.52,8.52,0,0,0-2.86,1.08,8.41,8.41,0,0,0-2.21,1.88A8.27,8.27,0,0,0,22,22.89a8.17,8.17,0,0,0-.56,2.53c0,.21,0,.42,0,.62v.32c0,.1,0,.21,0,.31a7.1,7.1,0,0,0,.23,1.22,6.56,6.56,0,0,0,2.59,3.58,6.39,6.39,0,0,0,3.54,1.1h.44l.18,0h.11l.1,0,.21,0,.2,0a2.24,2.24,0,0,0,.37-.1,4.33,4.33,0,0,0,.69-.29,5.6,5.6,0,0,0,.6-.36l.16-.12a.45.45,0,0,0-.5-.74l-.14.07a3.89,3.89,0,0,1-.51.21,4,4,0,0,1-.57.14l-.3,0h-.78l-.16,0a4.85,4.85,0,0,1-2.54-1.19,4.66,4.66,0,0,1-.95-1.19,4.8,4.8,0,0,1-.52-1.49,4.35,4.35,0,0,1-.05-.81,1.55,1.55,0,0,0,0-.22h0v-.09a.41.41,0,0,1,0-.11A3.18,3.18,0,0,1,24,25.7a5.68,5.68,0,0,1,1.68-3.14,5.14,5.14,0,0,1,.72-.59,6.56,6.56,0,0,1,.81-.47A5.39,5.39,0,0,1,29,21l.48,0H30a7.1,7.1,0,0,1,1,.15,7.68,7.68,0,0,1,2,.74,7.17,7.17,0,0,1,2.92,3,7,7,0,0,1,.66,2,4.52,4.52,0,0,1,.06.53v.27a.66.66,0,0,1,0,.14v.38c0,.09,0,.23,0,.32a5.7,5.7,0,0,1-.06.58,5.4,5.4,0,0,1-.09.58c0,.19-.08.38-.12.57A9.17,9.17,0,0,1,36,31.47a9.34,9.34,0,0,1-1.13,2.05,9.24,9.24,0,0,1-3.63,3,8.67,8.67,0,0,1-3.43.8h-.6l-.64,0A13,13,0,0,1,24,36.83a12.21,12.21,0,0,1-2.34-.95,12.36,12.36,0,0,1-3.85-3.19A11.84,11.84,0,0,1,16.5,30.6a12.19,12.19,0,0,1-.9-2.3,12.6,12.6,0,0,1-.4-2.42V24.66c0-.41.05-.82.1-1.23s.13-.84.21-1.25.19-.82.3-1.22a15.61,15.61,0,0,1,.86-2.32,12.89,12.89,0,0,1,2.65-3.83c.27-.26.55-.51.84-.74s.59-.45.9-.65a9.88,9.88,0,0,1,.95-.56c.16-.09.33-.16.5-.24l.25-.11L23,12.4A10.14,10.14,0,0,1,24,12l.27-.08.26-.07.54-.14.28-.06.27-.06.28,0,.13,0,.14,0,.28,0,.31-.05.31,0,.19,0,.14,0h2a14.27,14.27,0,0,1,5.78,1.47,15,15,0,0,1,3.05,2,1.07,1.07,0,0,0,.16.14l.16.14.31.29.31.29.28.3c.38.4.73.8,1,1.2a15.66,15.66,0,0,1,1.53,2.4c0,.05,0,.09.07.15a.61.61,0,0,1,.07.14c0,.1.1.19.14.28s.09.19.13.28l.12.27c.15.37.28.71.39,1,.18.52.32,1,.42,1.41a.35.35,0,0,0,.37.26.34.34,0,0,0,.31-.33C44.1,22.54,44.09,22,44,21.43Z"/></svg>