<svg xmlns="http://www.w3.org/2000/svg" viewBox="0 0 48 48"><title>greenplum</title><path d="M34.13,13.63A14.52,14.52,0,0,0,14.71,35.21,5.63,5.63,0,0,0,18.23,37c2,0,3.43-2.19,5.32-5a45.36,45.36,0,0,1,3.78-5,45.56,45.56,0,0,1,4.61-4.29c2.43-2.05,4.35-3.66,4.38-5.47C36.34,16.16,35.62,15,34.13,13.63Zm-6.32,8.7a21.25,21.25,0,0,0-2.63,2.39A25.31,25.31,0,0,0,23,27.63c-1,1.47-1.65,2.52-2.57,2.52a1.26,1.26,0,0,1-.86-.38,7.19,7.19,0,0,1,9.62-10.69,1.25,1.25,0,0,1,.5,1C29.68,20.79,28.9,21.44,27.81,22.33Z" style="fill:#80bc00"/><path d="M24.42,4A20.47,20.47,0,1,0,44.88,24.44v0A20.47,20.47,0,0,0,24.42,4ZM37.32,36A17.36,17.36,0,0,1,12.8,37.32h0a17.49,17.49,0,1,1,24.87-1.67Z" style="fill:#80bc00"/></svg>