<svg xmlns="http://www.w3.org/2000/svg" xmlns:xlink="http://www.w3.org/1999/xlink" viewBox="0 0 48 48"><defs><style>.cls-1{fill:url(#linear-gradient);}.cls-2{fill:#42b594;}.cls-3{fill:#8b2171;}.cls-4{fill:#a3357c;}.cls-5{fill:url(#linear-gradient-2);}.cls-6{fill:url(#linear-gradient-3);}.cls-7{fill:url(#linear-gradient-4);}.cls-8{fill:url(#linear-gradient-5);}.cls-9{fill:url(#linear-gradient-6);}.cls-10{fill:url(#linear-gradient-7);}.cls-11{fill:#312555;}.cls-12{fill:#3f227c;}.cls-13{fill:url(#linear-gradient-8);}.cls-14{fill:url(#linear-gradient-9);}</style><linearGradient id="linear-gradient" x1="32.17" y1="16.74" x2="34.44" y2="29.29" gradientUnits="userSpaceOnUse"><stop offset="0.03" stop-color="#566292"/><stop offset="1" stop-color="#592e86"/></linearGradient><linearGradient id="linear-gradient-2" x1="6.82" y1="11.92" x2="19.88" y2="7.56" gradientUnits="userSpaceOnUse"><stop offset="0" stop-color="#d62f6f"/><stop offset="1" stop-color="#ab6280"/></linearGradient><linearGradient id="linear-gradient-3" x1="16.9" y1="11.15" x2="31.21" y2="11.15" gradientUnits="userSpaceOnUse"><stop offset="0" stop-color="#7d7290"/><stop offset="1" stop-color="#597b95"/></linearGradient><linearGradient id="linear-gradient-4" x1="23.95" y1="15.89" x2="14.18" y2="19.32" gradientUnits="userSpaceOnUse"><stop offset="0" stop-color="#61af90"/><stop offset="1" stop-color="#837d7d"/></linearGradient><linearGradient id="linear-gradient-5" x1="16.45" y1="26.19" x2="25.88" y2="14.01" gradientUnits="userSpaceOnUse"><stop offset="0.23" stop-color="#5a1d61"/><stop offset="1" stop-color="#3d6b7b"/></linearGradient><linearGradient id="linear-gradient-6" x1="23.89" y1="36.65" x2="5.92" y2="23.05" gradientUnits="userSpaceOnUse"><stop offset="0" stop-color="#5f1c74"/><stop offset="1" stop-color="#912175"/></linearGradient><linearGradient id="linear-gradient-7" x1="23.06" y1="37.75" x2="5.09" y2="24.15" xlink:href="#linear-gradient-6"/><linearGradient id="linear-gradient-8" x1="31.16" y1="14.89" x2="41.8" y2="26.06" gradientUnits="userSpaceOnUse"><stop offset="0" stop-color="#3e5090"/><stop offset="1" stop-color="#41338b"/></linearGradient><linearGradient id="linear-gradient-9" x1="7.92" y1="25.13" x2="21.98" y2="25.13" gradientUnits="userSpaceOnUse"><stop offset="0" stop-color="#83185c"/><stop offset="1" stop-color="#5a1d61"/></linearGradient></defs><g id="HarperDB"><polygon class="cls-1" points="29.75 31.06 31.2 16.62 35.34 17.04 39.97 32.2 29.75 31.06"/><polygon class="cls-2" points="31.2 16.62 25.23 7.65 32.39 9.15 35.34 17.04 31.2 16.62"/><polygon class="cls-3" points="21.98 30.73 20.64 25.78 31.2 16.62 29.75 31.06 21.98 30.73"/><polygon class="cls-4" points="7.83 18.03 6.27 13.65 11.63 11.7 14.64 27.66 7.83 18.03"/><polygon class="cls-5" points="6.27 13.65 16.9 5.68 21.32 9.96 11.63 11.7 6.27 13.65"/><polygon class="cls-6" points="21.32 9.96 16.9 5.68 23.85 5.68 31.2 16.62 21.32 9.96"/><polygon class="cls-7" points="11.64 11.71 21.54 10.11 14.64 27.66 11.64 11.71"/><polygon class="cls-8" points="31.2 16.62 21.54 10.11 14.64 27.66 20.64 25.78 31.2 16.62"/><polygon class="cls-9" points="4.46 28.02 7.83 18.03 9.52 32.23 4.46 28.02"/><polygon class="cls-10" points="9.52 32.23 21.98 30.73 20.84 42.29 9.52 32.23"/><polygon class="cls-11" points="21.98 30.73 29.75 31.06 20.84 42.29 21.98 30.73"/><polygon class="cls-12" points="29.75 31.06 28.43 39.16 20.84 42.29 29.75 31.06"/><polygon class="cls-13" points="46.55 24.58 39.97 32.2 35.34 17.04 45.95 22.35 46.55 24.58"/><polygon class="cls-14" points="20.73 25.78 14.73 27.66 7.92 18.03 9.61 32.23 21.98 30.73 20.73 25.78"/></g></svg>