<svg xmlns="http://www.w3.org/2000/svg" viewBox="0 0 48 48"><defs><style>.cls-1{fill:#333;}</style></defs><title>j-hatena</title><g id="Layer_3" data-name="Layer 3"><path class="cls-1" d="M24,42A18,18,0,1,1,42,24,18,18,0,0,1,24,42ZM24,8.29A15.71,15.71,0,1,0,39.71,24,15.73,15.73,0,0,0,24,8.29Zm2.1,6.82a25.24,25.24,0,0,1-1.69-4.52V23.34a1.18,1.18,0,1,1-.75,0V10.58A25.86,25.86,0,0,1,22,15.11a46,46,0,0,1-3.1,5.25l1.1,15s1,1.16,4.06,1.17h0c3,0,4.06-1.17,4.06-1.17l1.1-15a45.13,45.13,0,0,1-3.09-5.25Z"/></g></svg>