<svg id="fd23671d-1a90-425d-9913-f346ec3a6225" data-name="Icons" xmlns="http://www.w3.org/2000/svg" viewBox="0 0 108 72">
  <defs>
    <style>
      .eec325ab-4f92-4dd6-963f-1d9c395a8876 {
        fill: #6762a6;
      }
    </style>
  </defs>
  <title>heroku</title>
  <g id="fa171709-06ca-40d2-9354-fa2c5039a42e" data-name="Layer 1">
    <g>
      <path class="eec325ab-4f92-4dd6-963f-1d9c395a8876" d="M42.12,42.7V34.3a.87.87,0,0,0-1-.89,9.47,9.47,0,0,0-3.47.77V42.7H35.31l.11-15.64h2.35v5.18a12,12,0,0,1,3.77-.77c2.11,0,3,1.36,2.94,3.18v8.17l-2.36-.12Zm6.82-5.05c.12,2.82.59,3.41,2.36,3.41a12.55,12.55,0,0,0,4.05-.89l.41,1.77A9.39,9.39,0,0,1,51.12,43c-4,0-4.59-2.24-4.59-5.65a21,21,0,0,1,.59-5.23,13.34,13.34,0,0,1,4.76-.71c3.18,0,4.29,1.83,4.18,4.94v1.18l-7.12.12ZM52,33.47a16.5,16.5,0,0,0-2.82.18A18.35,18.35,0,0,0,48.89,36h4.93c.06-1.65-.23-2.53-1.82-2.53Zm8.64.83v8.52H58.29V33.18a14.4,14.4,0,0,1,5.53-1.47v1.94a12,12,0,0,0-3.18.65Zm9.47,8.87c-3.59,0-5.18-1.76-5.18-5.7,0-4.17,2.12-5.82,5.18-5.82,3.46,0,5.17,1.76,5.17,5.7-.06,4.18-2.18,5.82-5.17,5.82Zm0-9.58c-1.83,0-2.83,1.06-2.83,3.76,0,3,.89,3.71,2.83,3.71s2.82-1,2.82-3.77c-.06-3-.88-3.7-2.82-3.7Zm16.57,9.35H83.86a16.33,16.33,0,0,0-2.94-5.06H79.69v5.06H77.34V27.3h2.35v9.05h1.06a17.11,17.11,0,0,0,2.82-4.29h2.7a17.69,17.69,0,0,1-3.41,4.76,33.34,33.34,0,0,1,3.82,6.12Zm4.47.23c-2.11,0-3-1.35-2.94-3.17V31.83h2.35v8.46c0,.59.41.88,1,.88a10.38,10.38,0,0,0,3.59-.76V31.83H97.5v9.52a10.41,10.41,0,0,1-6.35,1.82Z"/>
      <path class="eec325ab-4f92-4dd6-963f-1d9c395a8876" d="M27.55,48.46,11,48.34A2.53,2.53,0,0,1,8.5,45.7V24.07A2.51,2.51,0,0,1,11,21.54l16.52.12a2.53,2.53,0,0,1,2.52,2.64L30,46.05a2.28,2.28,0,0,1-2.41,2.41Zm1.76-24.1a1.79,1.79,0,0,0-1.82-1.82l-16.23-.12a1.8,1.8,0,0,0-1.82,1.82L9.32,45.7a1.8,1.8,0,0,0,1.83,1.82l16.22.12a1.79,1.79,0,0,0,1.82-1.82l.12-21.46Z"/>
      <path class="eec325ab-4f92-4dd6-963f-1d9c395a8876" d="M22,44.76V34.06s.71-2.53-8.52,1V25.12h3v6.35S25,28.18,25,34V44.7L22,44.76ZM23.9,29.12H20.67a18.3,18.3,0,0,0,2.23-3.76h3.29a19.56,19.56,0,0,1-2.29,3.76ZM13.5,44.76V38.65l3,3-3,3.12Z"/>
    </g>
  </g>
</svg>
