<svg xmlns="http://www.w3.org/2000/svg" xmlns:xlink="http://www.w3.org/1999/xlink" viewBox="0 0 48 48"><defs><radialGradient id="a" cx="24.22" cy="24.23" r="19.96" gradientUnits="userSpaceOnUse"><stop offset="0" stop-color="#fff"/><stop offset="1" stop-color="#99d8e7"/></radialGradient><radialGradient id="b" cx="11.38" cy="18.1" r="20.3" gradientTransform="translate(12.89 1.39) scale(0.91 1.01)" gradientUnits="userSpaceOnUse"><stop offset="0" stop-color="#cce4b7"/><stop offset="1" stop-color="#65bc51"/></radialGradient><linearGradient id="c" x1="39.59" y1="34.28" x2="15.34" y2="20.27" gradientUnits="userSpaceOnUse"><stop offset="0" stop-color="#b3b3b3"/><stop offset="1" stop-color="#666"/></linearGradient><linearGradient id="d" x1="29.66" y1="34.64" x2="18.11" y2="14.64" gradientUnits="userSpaceOnUse"><stop offset="0" stop-color="gray"/><stop offset="0.65" stop-color="#333"/><stop offset="1" stop-color="#333"/></linearGradient><linearGradient id="e" x1="28.01" y1="36.31" x2="16.14" y2="15.75" gradientUnits="userSpaceOnUse"><stop offset="0" stop-color="#ccc"/><stop offset="0.44" stop-color="#ccc"/><stop offset="1" stop-color="gray"/></linearGradient></defs><title>highrise</title><g style="isolation:isolate"><path d="M24.22,6.15C12.54,6.15,3.39,21,2.53,33.55,6.19,39.91,15,42.3,24.22,42.3s18-2.39,21.68-8.75C45,21,35.89,6.15,24.22,6.15Z" style="fill:url(#a)"/><path d="M42.51,32.79c0,3.73-8.41,7.27-18.8,7.52-10.38-.25-18.83-3.79-18.79-7.52S13,21.56,23.71,21.37C34.41,21.56,42.51,29.13,42.51,32.79Z" style="fill:url(#b)"/><polygon points="36.68 18.98 32.25 17.21 27.82 18.98 27.82 33.19 32.25 34.96 36.68 33.19 36.68 18.98" style="fill:#a6a6a6"/><polygon points="27.82 33.19 32.21 34.95 32.21 19.79 32.06 19.79 27.82 18.98 27.82 33.19" style="fill:#ccc"/><polygon points="36.68 18.98 32.25 20.75 27.82 18.98 32.25 17.21 36.68 18.98" style="fill:#f2f2f2"/><polygon points="20.61 25.32 16.18 21.22 11.75 22.99 11.75 33.19 16.18 34.96 20.61 33.19 20.61 25.32" style="fill:#a6a6a6"/><polygon points="11.75 33.19 16.15 34.95 16.15 23.63 15.99 21.3 11.75 20.49 11.75 33.19" style="fill:#ccc"/><polygon points="20.61 22.82 16.18 24.59 11.75 20.49 16.18 18.71 20.61 22.82" style="fill:#f2f2f2"/><path d="M32.25,17.21,27.82,19V33.19L32.21,35h0l4.43-1.77V19ZM16.18,18.72l-4.43,1.77v12.7L16.15,35h0l4.43-1.77V25.32l-1.89-1.75,1.89-.75Z" style="fill:#fff8d8;mix-blend-mode:color"/><polygon points="29.48 14.13 24.21 12.02 18.95 14.13 17.66 35.92 24.21 38.55 30.77 35.92 29.48 14.13" style="fill:url(#c)"/><path d="M30.65,33.91h0l-3.14-1.28L30.36,29v-.19h0l-3-1.34L30.06,24v-.19h0l-2.86-1.38c1.15-1.53,2.28-3,2.59-3.42v-.2h0L27,17.36l2.34-3.28L29.23,14,26.9,17.3l-2.63-1.37,0,0,0,0,0,0,0,0L21.53,17.3,19.2,14l-.11.05,2.34,3.28-2.72,1.42h0V19c.31.4,1.44,1.89,2.59,3.42l-2.86,1.38h0v.18c.32.43,1.52,2,2.74,3.57l-3,1.34h0V29L21,32.64l-3.14,1.28h0v.16h0l6.35,2.54h0l.08,0,.09,0h0l6.36-2.54h0Zm-3.28-1.32-3-1.21,5.79-2.32ZM24.2,26.25h0l2.9,1.3-2.87,3.72-.05,0,0,0L21.3,27.55Zm0-.16c-.34-.44-1.57-2.06-2.77-3.66l2.72-1.32.06,0,.07,0L27,22.43l-2.77,3.66h0Zm5.95,2.83-5.67,2.26,2.76-3.58ZM27.2,27.46l-2.82-1.27,5.5-2.2Zm2.69-3.63L24.45,26l2.66-3.52Zm-2.82-1.5-2.64-1.28L29.61,19Zm-.14-4.87,2.64,1.38-5.07,2ZM24.21,16l2.62,1.36L24.29,21l-.08,0-.07,0L21.6,17.4ZM21.5,17.46l2.43,3.41-5.07-2ZM18.82,19,24,21.05l-2.64,1.28Zm2.5,3.5L24,26l-5.44-2.17ZM18.55,24l5.5,2.2-2.82,1.27Zm2.64,3.61L24,31.18l-5.67-2.26Zm-3,1.46L24,31.38l-3,1.21ZM18,34,21,32.73l2.91,3.64Zm6.31,2.47-.06,0-.05,0-3-3.77,3.05-1.25h0l3.05,1.25Zm.22-.09,2.91-3.64L30.46,34Z" style="opacity:0.5;fill:url(#d)"/><polygon points="17.66 35.92 24.16 38.53 24.17 12.12 23.99 12.12 18.95 14.13 17.66 35.92" style="fill:url(#e)"/><path d="M24.16,36.46h0l-3-3.77,3-1.24v-.18h0L21.3,27.55l2.87-1.29v-.21l-2.74-3.62,2.72-1.32h0V21h0L21.6,17.4l2.57-1.34v-.13L21.53,17.3,19.2,14l-.06,0-.05,0,2.34,3.28-2.72,1.42h0V19c.31.4,1.44,1.89,2.59,3.42l-2.86,1.38h0v.18c.32.43,1.52,2,2.74,3.57l-3,1.34h0V29L21,32.64l-3.14,1.28h0v.16h0l6.35,2.54h0Zm-2.66-19,2.43,3.41-5.07-2ZM18.82,19,24,21.05l-2.64,1.28Zm2.5,3.5L24,26l-5.44-2.17ZM18.55,24l5.5,2.2-2.82,1.27Zm2.64,3.61L24,31.18l-5.67-2.26Zm-3,1.46L24,31.38l-3,1.21ZM18,34,21,32.73l2.91,3.64Z" style="fill:#666;opacity:0.4"/><polygon points="29.48 14.13 24.21 16.24 18.95 14.13 24.21 12.02 29.48 14.13" style="fill:#f2f2f2"/><path d="M25.73,13.4a.23.23,0,0,1-.24.24h0a.24.24,0,0,1-.24-.24V11.21a.24.24,0,0,1,.24-.24h0a.24.24,0,0,1,.24.24Z" style="fill:#999"/><path d="M25.6,11.36a.11.11,0,0,1-.11.11h0a.1.1,0,0,1-.1-.11V8.26a.1.1,0,0,1,.1-.11h0a.11.11,0,0,1,.11.11Z" style="fill:#999"/><path d="M23.09,14.52a.24.24,0,0,1-.24.24h0a.24.24,0,0,1-.24-.24V12.33a.24.24,0,0,1,.24-.24h0a.24.24,0,0,1,.24.24Z" style="fill:#999"/><path d="M23,12.48a.11.11,0,0,1-.11.11h0a.11.11,0,0,1-.11-.11V9.38a.11.11,0,0,1,.11-.11h0a.11.11,0,0,1,.11.11Z" style="fill:#999"/><path d="M30.77,35.92,29.48,14.13l-3.75-1.5V11.21A.23.23,0,0,0,25.6,11V8.26a.11.11,0,0,0-.11-.11.1.1,0,0,0-.1.11V11a.24.24,0,0,0-.14.21v1.23l-1-.42-1.12.45v-.14a.23.23,0,0,0-.13-.21V9.38a.11.11,0,0,0-.22,0v2.74a.23.23,0,0,0-.13.21v.34L19,14.13,17.66,35.92l6.5,2.61h0l.05,0Z" style="fill:#9ed6eb;mix-blend-mode:color"/></g></svg>