<svg xmlns="http://www.w3.org/2000/svg" xmlns:xlink="http://www.w3.org/1999/xlink" viewBox="0 0 48 48"><defs><style>.cls-1{isolation:isolate;}.cls-2{fill:url(#radial-gradient);}.cls-3{fill:url(#radial-gradient-2);}.cls-4{fill:#a6a6a6;}.cls-5{fill:#ccc;}.cls-6{fill:#f2f2f2;}.cls-7{fill:#fff8d8;}.cls-13,.cls-7{mix-blend-mode:color;}.cls-8{fill:url(#linear-gradient);}.cls-9{opacity:0.5;fill:url(#linear-gradient-2);}.cls-10{fill:url(#linear-gradient-3);}.cls-11{fill:#666;opacity:0.4;}.cls-12{fill:#999;}.cls-13{fill:#9ed6eb;}</style><radialGradient id="radial-gradient" cx="24" cy="24" r="19.96" gradientUnits="userSpaceOnUse"><stop offset="0" stop-color="#fff"/><stop offset="1" stop-color="#99d8e7"/></radialGradient><radialGradient id="radial-gradient-2" cx="51.47" cy="17.28" r="20.3" gradientTransform="translate(-23.74 1.99) scale(0.91 1.01)" gradientUnits="userSpaceOnUse"><stop offset="0" stop-color="#cce4b7"/><stop offset="1" stop-color="#65bc51"/></radialGradient><linearGradient id="linear-gradient" x1="39.38" y1="34.05" x2="15.13" y2="20.05" gradientUnits="userSpaceOnUse"><stop offset="0" stop-color="#b3b3b3"/><stop offset="1" stop-color="#666"/></linearGradient><linearGradient id="linear-gradient-2" x1="29.45" y1="34.42" x2="17.9" y2="14.41" gradientUnits="userSpaceOnUse"><stop offset="0" stop-color="gray"/><stop offset="0.65" stop-color="#333"/><stop offset="1" stop-color="#333"/></linearGradient><linearGradient id="linear-gradient-3" x1="27.8" y1="36.08" x2="15.93" y2="15.52" gradientUnits="userSpaceOnUse"><stop offset="0" stop-color="#ccc"/><stop offset="0.44" stop-color="#ccc"/><stop offset="1" stop-color="gray"/></linearGradient></defs><title>Highrise CRM</title><g class="cls-1"><g id="Layer_1" data-name="Layer 1"><path class="cls-2" d="M24,5.93c-11.67,0-20.82,14.85-21.69,27.4C6,39.68,14.82,42.07,24,42.07s18-2.39,21.68-8.75C44.82,20.78,35.68,5.93,24,5.93Z"/><g id="mound"><path class="cls-3" d="M42.29,32.56c0,3.73-8.41,7.27-18.79,7.52-10.38-.26-18.84-3.79-18.79-7.52s8.1-11.23,18.79-11.42C34.19,21.34,42.29,28.9,42.29,32.56Z"/></g><polygon class="cls-4" points="36.47 18.75 32.04 16.98 27.61 18.75 27.61 32.96 32.04 34.73 36.47 32.96 36.47 18.75"/><polygon class="cls-5" points="27.61 32.96 32 34.72 32 19.56 31.84 19.56 27.61 18.75 27.61 32.96"/><polygon class="cls-6" points="36.47 18.75 32.04 20.52 27.61 18.75 32.04 16.98 36.47 18.75"/><polygon class="cls-4" points="20.4 25.09 15.97 20.99 11.54 22.76 11.54 32.96 15.97 34.73 20.4 32.96 20.4 25.09"/><polygon class="cls-5" points="11.54 32.96 15.94 34.72 15.94 23.4 15.78 21.07 11.54 20.26 11.54 32.96"/><polygon class="cls-6" points="20.4 22.59 15.97 24.36 11.54 20.26 15.97 18.49 20.4 22.59"/><path class="cls-7" d="M32,17l-4.43,1.77V33L32,34.72h0L36.47,33V18.75ZM16,18.49l-4.43,1.77V33l4.39,1.76h0L20.4,33V25.09l-1.89-1.75,1.89-.76Z"/><polygon class="cls-8" points="29.27 13.9 24 11.8 18.73 13.9 17.45 35.7 24 38.32 30.56 35.7 29.27 13.9"/><path class="cls-9" d="M30.44,33.68h0l-3.14-1.28,2.88-3.6v-.2l0,0-3-1.35,2.75-3.56v-.18h0L27,22.16l2.59-3.42v-.2h0l-2.72-1.42,2.34-3.28-.11,0-2.33,3.27L24.06,15.7l0,0,0,0,0,0,0,0-2.63,1.37L19,13.8l-.11,0,2.34,3.28L18.5,18.55h0v.2L21,22.16l-2.85,1.38h0v.18l2.75,3.56-3,1.35,0,0v.2l2.88,3.6-3.14,1.28h0v.16h0l6.36,2.54h0l.08,0,.08,0h0l6.36-2.54h0Zm-3.29-1.32-3-1.21L30,28.83ZM24,26h0l2.9,1.3L24.05,31l0,0,0,0-2.87-3.72Zm0-.16L21.22,22.2l2.72-1.32.07,0,.07,0,2.72,1.32L24,25.86h0Zm6,2.83L24.27,31,27,27.38ZM27,27.23,24.17,26l5.5-2.2Zm2.68-3.63-5.44,2.18,2.66-3.52Zm-2.81-1.49-2.64-1.28,5.17-2.07Zm-.14-4.88,2.64,1.38-5.08,2ZM24,15.81l2.61,1.37-2.53,3.55-.08,0-.08,0-2.53-3.55Zm-2.72,1.42,2.43,3.41-5.08-2Zm-2.67,1.53,5.17,2.07-2.64,1.28Zm2.5,3.5,2.66,3.52L18.33,23.6Zm-2.77,1.51,5.5,2.2L21,27.23ZM21,27.38,23.74,31l-5.67-2.27ZM18,28.83l5.79,2.32-3,1.21Zm-.27,4.93,3.06-1.25,2.91,3.64Zm6.3,2.48-.05,0-.05,0-3-3.78,3-1.25H24l3,1.25Zm.22-.09,2.91-3.64,3.06,1.25Z"/><polygon class="cls-10" points="17.45 35.7 23.95 38.3 23.96 11.89 23.78 11.89 18.73 13.9 17.45 35.7"/><path class="cls-11" d="M24,36.24h0l-3-3.78,3-1.24V31h0l-2.87-3.72L24,26v-.21L21.22,22.2l2.72-1.32h0v-.16h0l-2.53-3.55L24,15.83V15.7l-2.63,1.37L19,13.8l-.06,0-.06,0,2.34,3.28L18.5,18.55h0v.2L21,22.16l-2.85,1.38h0v.18l2.75,3.56-3,1.35,0,0v.2l2.88,3.6-3.14,1.28h0v.16h0l6.36,2.54h0Zm-2.67-19,2.43,3.41-5.08-2Zm-2.67,1.53,5.17,2.07-2.64,1.28Zm2.5,3.5,2.66,3.52L18.33,23.6Zm-2.77,1.51,5.5,2.2L21,27.23ZM21,27.38,23.74,31l-5.67-2.27ZM18,28.83l5.79,2.32-3,1.21Zm-.27,4.93,3.06-1.25,2.91,3.64Z"/><polygon class="cls-6" points="29.27 13.9 24 16.01 18.73 13.9 24 11.8 29.27 13.9"/><path class="cls-12" d="M25.52,13.18a.24.24,0,0,1-.24.24h0a.24.24,0,0,1-.24-.24V11a.24.24,0,0,1,.24-.24h0a.24.24,0,0,1,.24.24Z"/><path class="cls-12" d="M25.39,11.13a.11.11,0,0,1-.11.11h0a.11.11,0,0,1-.11-.11V8a.11.11,0,0,1,.11-.11h0a.11.11,0,0,1,.11.11Z"/><path class="cls-12" d="M22.88,14.3a.24.24,0,0,1-.24.24h0a.24.24,0,0,1-.24-.24V12.11a.24.24,0,0,1,.24-.24h0a.24.24,0,0,1,.24.24Z"/><path class="cls-12" d="M22.75,12.25a.11.11,0,0,1-.11.11h0a.11.11,0,0,1-.11-.11V9.15A.11.11,0,0,1,22.64,9h0a.11.11,0,0,1,.11.11Z"/><path class="cls-13" d="M30.56,35.7,29.27,13.9l-3.75-1.5V11a.24.24,0,0,0-.13-.21V8a.11.11,0,1,0-.22,0v2.74A.24.24,0,0,0,25,11v1.23l-1-.42-1.13.45v-.14a.24.24,0,0,0-.13-.21V9.15a.11.11,0,0,0-.22,0V11.9a.24.24,0,0,0-.13.21v.33L18.73,13.9,17.45,35.7,24,38.3h0l.05,0Z"/></g></g></svg>