<svg xmlns="http://www.w3.org/2000/svg" viewBox="0 0 48 48"><title>hpcc</title><path d="M16.53,31.26a3.72,3.72,0,0,0-.75,0,4.59,4.59,0,0,0-.8.13,5.61,5.61,0,0,0-.82.27,6.57,6.57,0,0,0-.83.43,7.28,7.28,0,0,0-2.56,2.7,5.65,5.65,0,0,0-.57,1.61A3.79,3.79,0,0,0,10.25,38a2.45,2.45,0,0,0,.29.68,2.33,2.33,0,0,0,.43.55,2.6,2.6,0,0,0,.58.4,2.56,2.56,0,0,0,.69.24,2.83,2.83,0,0,0,.78.08,4.24,4.24,0,0,0,.85-.09,4.44,4.44,0,0,0,.9-.28,5.64,5.64,0,0,0,.92-.46,7.22,7.22,0,0,0,1.61-1.34,6.83,6.83,0,0,0,1.1-1.64,5.06,5.06,0,0,0,.48-1.71,3.28,3.28,0,0,0-.21-1.54,2.58,2.58,0,0,0-.36-.63,2.42,2.42,0,0,0-.49-.47,2.73,2.73,0,0,0-.61-.32,3,3,0,0,0-.68-.17" style="fill:#169dd8"/><path d="M13.18,24.13a3.56,3.56,0,0,0-.65,0,3.62,3.62,0,0,0-.7.14,5.27,5.27,0,0,0-.72.27A6.77,6.77,0,0,0,9,26a6.39,6.39,0,0,0-1,1.26,4.49,4.49,0,0,0-.54,1.35,2.73,2.73,0,0,0,0,1.27,2,2,0,0,0,.23.53,1.64,1.64,0,0,0,.37.42,1.66,1.66,0,0,0,.48.29,2.23,2.23,0,0,0,.59.16,3.06,3.06,0,0,0,.68,0,4.06,4.06,0,0,0,.74-.12,4.26,4.26,0,0,0,.78-.27,5.22,5.22,0,0,0,.81-.42,6.78,6.78,0,0,0,1.43-1.16,5.87,5.87,0,0,0,1-1.38,4.21,4.21,0,0,0,.47-1.4A2.32,2.32,0,0,0,15,25.32a1.59,1.59,0,0,0-.29-.49,2,2,0,0,0-.41-.36,1.81,1.81,0,0,0-.51-.23,2.21,2.21,0,0,0-.59-.11" style="fill:#169dd8"/><path d="M27.37,24.57a4.43,4.43,0,0,0-.81,0,6.31,6.31,0,0,0-.85.15,6.74,6.74,0,0,0-.86.3,7.62,7.62,0,0,0-.85.44,6.64,6.64,0,0,0-1.46,1.2,5.78,5.78,0,0,0-1,1.43,4.11,4.11,0,0,0-.41,1.53,2.92,2.92,0,0,0,.25,1.46,2.47,2.47,0,0,0,.4.61,2.52,2.52,0,0,0,.54.49,3.25,3.25,0,0,0,.67.34,4,4,0,0,0,.79.19,4.05,4.05,0,0,0,.86,0,4.87,4.87,0,0,0,.91-.13,5.79,5.79,0,0,0,.95-.3,8.24,8.24,0,0,0,.94-.47A6.88,6.88,0,0,0,29,30.53,5.35,5.35,0,0,0,30,29a4,4,0,0,0,.3-1.6,2.81,2.81,0,0,0-.43-1.42,2.33,2.33,0,0,0-.47-.56,3,3,0,0,0-.59-.41,3.28,3.28,0,0,0-.7-.27,4.59,4.59,0,0,0-.77-.12" style="fill:#169dd8"/><path d="M19.42,12.88a4.53,4.53,0,0,0-.62.07,5.33,5.33,0,0,0-.66.17c-.22.08-.45.17-.67.27a7.58,7.58,0,0,0-.68.37,7.11,7.11,0,0,0-1.19.93,5.4,5.4,0,0,0-.84,1.07,3.27,3.27,0,0,0-.41,1.08,1.66,1.66,0,0,0,.1,1,1.16,1.16,0,0,0,.26.39,1.82,1.82,0,0,0,.38.29,2.35,2.35,0,0,0,.49.17,2.54,2.54,0,0,0,.57.07,3.59,3.59,0,0,0,.64-.05,3.7,3.7,0,0,0,.7-.16,5.27,5.27,0,0,0,.72-.27,6.6,6.6,0,0,0,.74-.39,6.84,6.84,0,0,0,1.27-1,4.63,4.63,0,0,0,.85-1.14,2.64,2.64,0,0,0,.35-1.12,1.57,1.57,0,0,0-.2-.94,1.5,1.5,0,0,0-.31-.35,1.76,1.76,0,0,0-.42-.24,1.94,1.94,0,0,0-.5-.14,5.17,5.17,0,0,0-.57,0" style="fill:#169dd8"/><path d="M32.52,11.92a5,5,0,0,0-.76.08,7.38,7.38,0,0,0-.78.19q-.39.13-.78.3c-.26.12-.51.26-.77.41a6.11,6.11,0,0,0-1.28,1,4.42,4.42,0,0,0-.83,1.17A2.81,2.81,0,0,0,27,16.3a1.82,1.82,0,0,0,.32,1.08,1.77,1.77,0,0,0,.4.42,2.58,2.58,0,0,0,.53.32,3.27,3.27,0,0,0,.65.19,4.18,4.18,0,0,0,.73.08,5.59,5.59,0,0,0,.8-.06,6.51,6.51,0,0,0,.83-.18,5.42,5.42,0,0,0,.85-.31,6.43,6.43,0,0,0,2.23-1.57A4.28,4.28,0,0,0,35.19,15a2.59,2.59,0,0,0,.2-1.23,1.79,1.79,0,0,0-.46-1,1.87,1.87,0,0,0-.46-.38,2.34,2.34,0,0,0-.58-.26,3.25,3.25,0,0,0-.65-.15,5.67,5.67,0,0,0-.72,0" style="fill:#169dd8"/><path d="M27.85,7.68a3.74,3.74,0,0,0-.66.09A5.91,5.91,0,0,0,26.5,8a6.07,6.07,0,0,0-.7.29,5.8,5.8,0,0,0-.69.37,6.64,6.64,0,0,0-1.18.93,4.52,4.52,0,0,0-.78,1,2.55,2.55,0,0,0-.31,1,1.4,1.4,0,0,0,.23.9,1.21,1.21,0,0,0,.33.35,1.7,1.7,0,0,0,.44.24,2.33,2.33,0,0,0,.55.14,4.26,4.26,0,0,0,.63,0,4.42,4.42,0,0,0,.7-.08,5.54,5.54,0,0,0,.73-.18,5.78,5.78,0,0,0,.75-.29c.25-.12.5-.25.75-.4a6.13,6.13,0,0,0,1.26-1,4.29,4.29,0,0,0,.78-1.1,2.22,2.22,0,0,0,.24-1.05,1.34,1.34,0,0,0-.34-.87A1.29,1.29,0,0,0,29.51,8a1.73,1.73,0,0,0-.48-.2,2,2,0,0,0-.56-.1,3.21,3.21,0,0,0-.62,0" style="fill:#169dd8"/><path d="M37.5,20.86,24.77,21a3.32,3.32,0,0,0,.11-.68,2,2,0,0,0-.29-1.14,1.77,1.77,0,0,0-.37-.44,2,2,0,0,0-.49-.31,2.63,2.63,0,0,0-.58-.19,4.31,4.31,0,0,0-.65-.07,5.76,5.76,0,0,0-.7.05,6.41,6.41,0,0,0-.73.17c-.25.08-.5.17-.76.28s-.5.25-.75.4a6.79,6.79,0,0,0-1.3,1,5.29,5.29,0,0,0-.73.94l-5.61,0a2.76,2.76,0,0,0,.16-.54,1.86,1.86,0,0,0-.07-1,1.23,1.23,0,0,0-.23-.4,1.6,1.6,0,0,0-.35-.28,2.11,2.11,0,0,0-.44-.17,2.24,2.24,0,0,0-.52-.06,2.93,2.93,0,0,0-.58,0,3.72,3.72,0,0,0-.62.15,6.62,6.62,0,0,0-.65.25q-.33.16-.66.36a6.77,6.77,0,0,0-1.21.95,6,6,0,0,0-.67.78l-5.82,0,5.7.12-.12.16a3.87,3.87,0,0,0-.51,1.15,2.1,2.1,0,0,0,0,1.05,1.46,1.46,0,0,0,.19.44,1.38,1.38,0,0,0,.31.33,1.65,1.65,0,0,0,.42.21,2.08,2.08,0,0,0,.52.11,3,3,0,0,0,.59,0A4.27,4.27,0,0,0,8,24.57c.22-.07.46-.16.7-.26a7.23,7.23,0,0,0,.71-.39,6.31,6.31,0,0,0,1.3-1,6.22,6.22,0,0,0,.93-1.19c.06-.11.1-.21.15-.31l5.49.11a3.44,3.44,0,0,0-.33,1,2.22,2.22,0,0,0,.15,1.18,2,2,0,0,0,.31.48,2,2,0,0,0,.45.37,2.56,2.56,0,0,0,.56.24,3.23,3.23,0,0,0,.66.12,4.51,4.51,0,0,0,.73,0,5.63,5.63,0,0,0,.78-.15,5.36,5.36,0,0,0,.82-.29,8,8,0,0,0,.82-.42,7.06,7.06,0,0,0,1.41-1.15,5.23,5.23,0,0,0,.87-1.25l12.83.27a3,3,0,0,1,.18-1.06Z" style="fill:#169dd8"/><path d="M47,19.76a2.65,2.65,0,0,0-.72-1.26,2.81,2.81,0,0,0-.61-.48,4.46,4.46,0,0,0-.73-.35,5.28,5.28,0,0,0-1.67-.27,5.37,5.37,0,0,0-.89.05,5.77,5.77,0,0,0-.9.19,5.87,5.87,0,0,0-.89.31,5.71,5.71,0,0,0-.85.44,5.64,5.64,0,0,0-1.38,1.14,4.25,4.25,0,0,0-.81,1.33v0a3,3,0,0,0-.18,1.06,1.82,1.82,0,0,0,0,.33,2.52,2.52,0,0,0,.54,1.3,3.07,3.07,0,0,0,.54.54,3.4,3.4,0,0,0,.69.41,5.16,5.16,0,0,0,1.69.41,6,6,0,0,0,.94,0,6.46,6.46,0,0,0,1-.16,7,7,0,0,0,1-.32,6.87,6.87,0,0,0,.94-.47,5.93,5.93,0,0,0,1.5-1.27,4.15,4.15,0,0,0,.79-1.47A2.79,2.79,0,0,0,47,19.76Z" style="fill:#68696c"/></svg>