<svg xmlns="http://www.w3.org/2000/svg" viewBox="0 0 48 48"><title>hubspot</title><path d="M13.84,8.93c4.35,3.41,8.79,6.74,13.24,10.06a12.14,12.14,0,0,1,3.36-1V13.09a3.83,3.83,0,0,1-1.93-4.92,4,4,0,0,1,2.12-2,4.15,4.15,0,0,1,2.61,0,3.8,3.8,0,0,1,2.42,3.4,3.66,3.66,0,0,1-2.23,3.49V18c4.45.89,7.34,3.42,8.48,7.34A10.08,10.08,0,0,1,41,32.65,10.88,10.88,0,0,1,36.53,37a11.23,11.23,0,0,1-6.65.8,11.89,11.89,0,0,1-4.05-1.7c-1.42,1.32-2.75,2.72-4.13,4.08A3.29,3.29,0,0,1,20,44a3.66,3.66,0,0,1-2.61,0,3.29,3.29,0,0,1-1.74-4,3.2,3.2,0,0,1,4-1.85c.71-.63,1.37-1.3,2-2s1.31-1.34,2-2a10.32,10.32,0,0,1-2-7.83,9.85,9.85,0,0,1,3-5.71C20.55,17.49,16.22,14.5,12,11.39a7.12,7.12,0,0,0-.68.34,4.2,4.2,0,0,1-5.15-2,4.14,4.14,0,0,1,7.23-4A4.27,4.27,0,0,1,13.84,8.93ZM29.23,23.12a5.92,5.92,0,0,0-2.87,5.11,4.74,4.74,0,0,0,.11,1,6,6,0,0,0,3.63,4,5.35,5.35,0,0,0,4.43-.42A6.88,6.88,0,0,0,37,30.12a5.81,5.81,0,0,0-.46-5.22,5.38,5.38,0,0,0-5.22-2.42A5,5,0,0,0,29.23,23.12Z" style="fill:#f16a22;fill-rule:evenodd"/></svg>