<svg id="15cf2c4f-f750-478e-a0d5-0662ede3ad0a" data-name="Icons" xmlns="http://www.w3.org/2000/svg" viewBox="0 0 108 72">
  <defs>
    <style>
      .\37 28f1f9b-c1b0-474e-ad0b-15b2610eacfb {
        fill: #3fa0c9;
      }
    </style>
  </defs>
  <title>humanity</title>
  <g>
    <path class="728f1f9b-c1b0-474e-ad0b-15b2610eacfb" d="M13.08,37a5.35,5.35,0,1,0-5.34-5.34A5.35,5.35,0,0,0,13.08,37ZM9.37,31.66a3.71,3.71,0,1,1,3.71,3.71A3.71,3.71,0,0,1,9.37,31.66Z"/>
    <path class="728f1f9b-c1b0-474e-ad0b-15b2610eacfb" d="M22.91,42.79A13.94,13.94,0,0,0,13,38.61h-.05A13.9,13.9,0,0,0,3,42.79L2.78,43l1.14,1.13,0,0,.22-.22a12.3,12.3,0,0,1,17.59,0l.22.22L23.11,43l0,0Z"/>
    <polygon class="728f1f9b-c1b0-474e-ad0b-15b2610eacfb" points="36.87 34.01 30.57 34.01 30.57 28.58 28.77 28.58 28.77 41.61 30.57 41.61 30.57 35.59 36.87 35.59 36.87 41.61 38.67 41.61 38.67 28.58 36.87 28.58 36.87 34.01"/>
    <path class="728f1f9b-c1b0-474e-ad0b-15b2610eacfb" d="M47.41,40.08a1.19,1.19,0,0,1-.32.07l-.51.06-.59,0c-.22,0-.42,0-.62,0a2.34,2.34,0,0,1-2-.77,4.25,4.25,0,0,1-.59-2.56V31.83H40.93v5.49a7.18,7.18,0,0,0,.22,1.81,3.74,3.74,0,0,0,.72,1.42,3.12,3.12,0,0,0,1.31.94,5.34,5.34,0,0,0,2,.32,15.82,15.82,0,0,0,2.42-.16c.69-.12,1.25-.22,1.67-.32v-9.5H47.43v8.25Z"/>
    <path class="728f1f9b-c1b0-474e-ad0b-15b2610eacfb" d="M63.73,32.89A2.61,2.61,0,0,0,62.62,32a4.29,4.29,0,0,0-1.82-.33,4.64,4.64,0,0,0-1.08.12,8.93,8.93,0,0,0-.91.28,4.47,4.47,0,0,0-.69.33c-.19.11-.32.2-.41.26a2.86,2.86,0,0,0-1.06-.74,4.18,4.18,0,0,0-1.56-.25,12.61,12.61,0,0,0-2.26.17c-.65.11-1.17.22-1.57.31v9.5H53V33.35l.3-.05.49-.07.57,0,.55,0a2.27,2.27,0,0,1,1,.2,1.38,1.38,0,0,1,.63.61,3,3,0,0,1,.33,1A10.48,10.48,0,0,1,57,36.49v5.12h1.73V36.12a8,8,0,0,0-.29-2.29,2.66,2.66,0,0,1,.77-.42,3.73,3.73,0,0,1,1.44-.24,2.33,2.33,0,0,1,1,.2,1.38,1.38,0,0,1,.63.61,2.91,2.91,0,0,1,.32,1,10.53,10.53,0,0,1,.09,1.49v5.12h1.73V36.13a11.37,11.37,0,0,0-.14-1.81A3.44,3.44,0,0,0,63.73,32.89Z"/>
    <path class="728f1f9b-c1b0-474e-ad0b-15b2610eacfb" d="M72.72,32.63a2.75,2.75,0,0,0-1.15-.77,4.76,4.76,0,0,0-1.75-.28,9.11,9.11,0,0,0-1.7.15A5,5,0,0,0,67,32l.2,1.45a4.06,4.06,0,0,1,1-.25,7.41,7.41,0,0,1,1.5-.13,2.54,2.54,0,0,1,1.08.2,1.74,1.74,0,0,1,.66.52,2.19,2.19,0,0,1,.34.76,4.09,4.09,0,0,1,.09.85v.49l-.26,0-.44-.09-.53-.07a3.38,3.38,0,0,0-.54,0,7.33,7.33,0,0,0-1.57.16,4.16,4.16,0,0,0-1.29.53,2.41,2.41,0,0,0-.88.94A2.78,2.78,0,0,0,66,38.69a3.41,3.41,0,0,0,.28,1.45,2.49,2.49,0,0,0,.78,1,3.61,3.61,0,0,0,1.19.54,6.48,6.48,0,0,0,1.51.16c.38,0,.77,0,1.16,0L72,41.66c.34,0,.64-.07.91-.12l.62-.11v-6.1a6,6,0,0,0-.18-1.52A3.05,3.05,0,0,0,72.72,32.63Zm-.88,7.58a3.84,3.84,0,0,1-.79.11c-.31,0-.67,0-1.08,0A3,3,0,0,1,68.35,40a1.41,1.41,0,0,1-.59-1.3,1.29,1.29,0,0,1,.24-.82,1.84,1.84,0,0,1,.61-.49,2.56,2.56,0,0,1,.8-.23,6,6,0,0,1,.82,0,7.11,7.11,0,0,1,1,.06,2.71,2.71,0,0,1,.61.16v2.9Z"/>
    <path class="728f1f9b-c1b0-474e-ad0b-15b2610eacfb" d="M82.8,32.87A3.14,3.14,0,0,0,81.58,32a4.85,4.85,0,0,0-1.91-.33,12.81,12.81,0,0,0-2.27.17c-.66.11-1.18.22-1.58.31v9.5h1.73V33.35l.3-.05.49-.07.57,0,.58,0a3.23,3.23,0,0,1,1.15.18,1.7,1.7,0,0,1,.74.58,2.78,2.78,0,0,1,.41,1,8.52,8.52,0,0,1,.12,1.54v5.12h1.73V36.12a8.5,8.5,0,0,0-.18-1.82A4.19,4.19,0,0,0,82.8,32.87Z"/>
    <path class="728f1f9b-c1b0-474e-ad0b-15b2610eacfb" d="M86.76,28.61a1.11,1.11,0,0,0-.79.31,1.08,1.08,0,0,0-.32.83,1.1,1.1,0,0,0,.32.84,1.15,1.15,0,0,0,.79.31,1.12,1.12,0,0,0,.79-.31,1.11,1.11,0,0,0,.33-.84,1.09,1.09,0,0,0-1.12-1.14Z"/>
    <rect class="728f1f9b-c1b0-474e-ad0b-15b2610eacfb" x="85.91" y="31.83" width="1.73" height="9.77"/>
    <path class="728f1f9b-c1b0-474e-ad0b-15b2610eacfb" d="M102.56,31.83q-.47,2.06-1,4c-.35,1.29-.76,2.59-1.23,3.91-.29-.64-.58-1.31-.86-2s-.52-1.38-.76-2.06-.44-1.36-.63-2-.36-1.26-.5-1.83h-6v-3l-1.73.3v8.72a8.76,8.76,0,0,0,.16,1.72,3.11,3.11,0,0,0,.55,1.25,2.25,2.25,0,0,0,1,.76,4.47,4.47,0,0,0,1.63.25,5.16,5.16,0,0,0,1.48-.19,6.64,6.64,0,0,0,.91-.33l-.33-1.45c-.12,0-.34.14-.66.25a3.64,3.64,0,0,1-1.25.18,2.3,2.3,0,0,1-.78-.11,1.29,1.29,0,0,1-.56-.39,1.74,1.74,0,0,1-.33-.75,5.08,5.08,0,0,1-.12-1.21V33.3h4.5c.37,1.23.79,2.44,1.27,3.65.68,1.68,1.41,3.28,2.19,4.78a4.14,4.14,0,0,1-1,1.5,2.56,2.56,0,0,1-1.6.46,2.74,2.74,0,0,1-.64-.08,2.63,2.63,0,0,1-.53-.19l-.32,1.41a1.81,1.81,0,0,0,.25.1l.39.1.44.08.42,0A4.45,4.45,0,0,0,98.34,45a3,3,0,0,0,1.08-.59,4.32,4.32,0,0,0,.88-1,10.18,10.18,0,0,0,.78-1.45q.94-2.22,1.77-4.77c.54-1.7,1-3.47,1.48-5.31Z"/>
  </g>
</svg>
