<svg id="Layer_1" data-name="Layer 1" xmlns="http://www.w3.org/2000/svg" xmlns:xlink="http://www.w3.org/1999/xlink" viewBox="0 0 48 48"><defs><style>.cls-1{fill:#fff;}.cls-2{fill:url(#linear-gradient);}.cls-3{fill:url(#linear-gradient-2);}.cls-4{fill:url(#linear-gradient-3);}.cls-5{mask:url(#mask);}.cls-6{fill:url(#linear-gradient-4);}</style><linearGradient id="linear-gradient" x1="-5734.51" y1="-8031.74" x2="-5680.99" y2="-8022.3" gradientTransform="translate(441.56 -2466.36) rotate(-135) scale(0.26)" gradientUnits="userSpaceOnUse"><stop offset="0.2" stop-color="#fff" stop-opacity="0"/><stop offset="0.29" stop-color="#fff" stop-opacity="0.03"/><stop offset="0.5" stop-color="#fff" stop-opacity="0.2"/><stop offset="0.79" stop-color="#fff" stop-opacity="0.74"/><stop offset="1" stop-color="#fff"/></linearGradient><linearGradient id="linear-gradient-2" x1="3475.46" y1="4934.49" x2="3506.83" y2="4916.38" gradientTransform="translate(-884.55 -1235.42) scale(0.26)" gradientUnits="userSpaceOnUse"><stop offset="0.08" stop-color="#fff"/><stop offset="0.75" stop-color="#fff" stop-opacity="0.07"/><stop offset="0.88" stop-color="#fff" stop-opacity="0"/></linearGradient><linearGradient id="linear-gradient-3" x1="3547.15" y1="4937.9" x2="3594.85" y2="4897.88" gradientTransform="translate(-884.55 -1235.42) scale(0.26)" gradientUnits="userSpaceOnUse"><stop offset="0.14" stop-color="#fff" stop-opacity="0"/><stop offset="0.32" stop-color="#fff" stop-opacity="0.07"/><stop offset="0.85" stop-color="#fff" stop-opacity="0.76"/><stop offset="0.95" stop-color="#fff"/></linearGradient><mask id="mask" x="2.88" y="4.99" width="42.28" height="35.29" maskUnits="userSpaceOnUse"><g id="o"><path d="M2.88,5H45.16V40.28H2.88Z"/><path class="cls-1" d="M11.4,19.45a.66.66,0,0,1-.33-.09L8,17.56a.69.69,0,0,1-.33-.81.66.66,0,0,1,.85-.4l.11,0,3.12,1.8a.69.69,0,0,1,.29.9A.68.68,0,0,1,11.4,19.45Zm5.4-5.39a.67.67,0,0,1-.58-.34l-1.8-3.12a.69.69,0,0,1,.13-.87.66.66,0,0,1,.93.08h0l.07.1L17.35,13a.69.69,0,0,1-.18.91A.63.63,0,0,1,16.8,14.06Zm6.7-2.68V7.82a.69.69,0,0,1,.63-.7.65.65,0,0,1,.69.63v3.67a.65.65,0,0,1-.66.66h0A.69.69,0,0,1,23.5,11.38Zm8,2.68a.74.74,0,0,1-.38-.12A.7.7,0,0,1,31,13l1.8-3.12a.66.66,0,0,1,.9-.24l.1.07a.67.67,0,0,1,.13.86l-1.8,3.13A.68.68,0,0,1,31.53,14.06Zm5.4,5.39a.66.66,0,0,1-.3-1.25l3.09-1.79a.69.69,0,0,1,.86.13.65.65,0,0,1-.07.93h0l-.1.07-3.15,1.82A.66.66,0,0,1,36.93,19.45Z"/><path class="cls-2" d="M15.78,34.55A11.86,11.86,0,1,1,32.55,17.77a10.47,10.47,0,0,1,.94,1.06c.21.26.4.53.58.8l-1.1.73c-.16-.25-.33-.48-.51-.71a12.67,12.67,0,0,0-.84-.95A10.54,10.54,0,0,0,16.71,33.61l-.93.94Z"/><path class="cls-1" d="M32.62,38H14.36a7.66,7.66,0,0,1-7.61-7.71H8.08a6.34,6.34,0,0,0,6.29,6.39H32.62a7.74,7.74,0,0,0,5.77-12.9l1-.88A9.06,9.06,0,0,1,32.62,38Z"/><path class="cls-3" d="M8.08,30.31H6.75a7.66,7.66,0,0,1,6.39-7.5l.22,1.31A6.31,6.31,0,0,0,8.08,30.31Z"/><path class="cls-4" d="M24.88,28.9H23.56a9.06,9.06,0,0,1,15.81-6l-1,.88a7.74,7.74,0,0,0-13.51,5.1Z"/></g></mask><linearGradient id="linear-gradient-4" x1="835" y1="1482.16" x2="795.72" y2="1550.2" gradientTransform="translate(-341.15 -655.08) scale(0.45)" gradientUnits="userSpaceOnUse"><stop offset="0" stop-color="#50ffd2"/><stop offset="1" stop-color="#0064ff"/></linearGradient></defs><title>IBM Cloud</title><g class="cls-5"><path class="cls-6" d="M11.41,19.43a.66.66,0,0,1-.33-.09L8,17.54a.68.68,0,0,1-.32-.81.65.65,0,0,1,.84-.4l.11.05,3.12,1.8a.68.68,0,0,1,.29.9A.67.67,0,0,1,11.41,19.43ZM16.81,14a.64.64,0,0,1-.57-.34l-1.81-3.12a.67.67,0,0,1,.13-.86.66.66,0,0,1,.93.07h0a.61.61,0,0,1,.07.1L17.36,13a.7.7,0,0,1-.17.91A.74.74,0,0,1,16.81,14Zm6.71-2.68V7.8a.68.68,0,0,1,.63-.7.66.66,0,0,1,.69.63V11.4a.66.66,0,0,1-.66.66h0A.68.68,0,0,1,23.52,11.36Zm8,2.68a.71.71,0,0,1-.37-.12A.69.69,0,0,1,31,13l1.8-3.12a.67.67,0,0,1,.91-.24.31.31,0,0,1,.09.07.67.67,0,0,1,.13.86l-1.8,3.12A.67.67,0,0,1,31.54,14Zm5.4,5.39a.68.68,0,0,1-.59-.35.69.69,0,0,1,.29-.9l3.1-1.79a.66.66,0,0,1,.78,1.06h0l-.1.07-3.15,1.82A.63.63,0,0,1,36.94,19.43ZM15.79,34.53A11.86,11.86,0,0,1,32.56,17.75a10.58,10.58,0,0,1,.95,1.06c.2.26.4.53.57.8l-1.1.73c-.16-.25-.33-.48-.51-.71a10.76,10.76,0,0,0-.84-.95A10.54,10.54,0,0,0,16.72,33.59ZM32.63,38H14.38a7.65,7.65,0,0,1-7.61-7.71H8.09a6.34,6.34,0,0,0,6.29,6.39H32.63a7.74,7.74,0,0,0,5.77-12.9l1-.88A9.07,9.07,0,0,1,32.63,38ZM8.09,30.29H6.77a7.65,7.65,0,0,1,6.38-7.5l.22,1.31A6.33,6.33,0,0,0,8.09,30.29Zm16.8-1.41H23.57a9.06,9.06,0,0,1,15.82-6l-1,.88a7.74,7.74,0,0,0-13.51,5.1Z"/></g></svg>