<svg xmlns="http://www.w3.org/2000/svg" xmlns:xlink="http://www.w3.org/1999/xlink" viewBox="0 0 48 48"><defs><radialGradient id="a" cx="13.39" cy="45.7" r="50.37" gradientUnits="userSpaceOnUse"><stop offset="0.05" stop-color="#feda7d"/><stop offset="0.37" stop-color="#f8732f"/><stop offset="0.68" stop-color="#d33081"/></radialGradient><linearGradient id="d" x1="18.12" y1="0.03" x2="27.43" y2="34.18" gradientUnits="userSpaceOnUse"><stop offset="0" stop-color="#4d5fd6"/><stop offset="0.46" stop-color="#d33081" stop-opacity="0"/></linearGradient><linearGradient id="e" x1="18.17" y1="0.19" x2="27.48" y2="34.34" xlink:href="#d"/><linearGradient id="f" x1="32.67" y1="-3.93" x2="41.98" y2="30.21" xlink:href="#d"/></defs><title>instagram</title><path d="M24.61,5c6.14,0,6.87,0,9.3.14a12.56,12.56,0,0,1,4.27.79,7,7,0,0,1,2.64,1.72,7.07,7.07,0,0,1,1.72,2.64,12.56,12.56,0,0,1,.79,4.27c.11,2.43.14,3.16.14,9.3s0,6.87-.14,9.29a12.56,12.56,0,0,1-.79,4.27A7.11,7.11,0,0,1,40.82,40a7.19,7.19,0,0,1-2.64,1.72,12.82,12.82,0,0,1-4.27.79c-2.43.11-3.16.13-9.3.13s-6.87,0-9.29-.13a12.76,12.76,0,0,1-4.27-.79,7.59,7.59,0,0,1-4.37-4.37,12.82,12.82,0,0,1-.79-4.27c-.11-2.42-.13-3.15-.13-9.29s0-6.87.13-9.3a12.82,12.82,0,0,1,.79-4.27A7.19,7.19,0,0,1,8.4,7.62,7,7,0,0,1,11.05,5.9a12.5,12.5,0,0,1,4.27-.79C17.74,5,18.47,5,24.61,5m0-4.14c-6.25,0-7,0-9.48.14A16.75,16.75,0,0,0,9.55,2,11.12,11.12,0,0,0,5.47,4.69,11.3,11.3,0,0,0,2.82,8.76a16.81,16.81,0,0,0-1.07,5.58c-.11,2.46-.14,3.24-.14,9.49s0,7,.14,9.48a16.75,16.75,0,0,0,1.07,5.58A11.25,11.25,0,0,0,5.47,43a11.25,11.25,0,0,0,4.08,2.65,16.75,16.75,0,0,0,5.58,1.07c2.45.11,3.23.14,9.48.14s7,0,9.48-.14a16.87,16.87,0,0,0,5.59-1.07A11.3,11.3,0,0,0,43.75,43a11.12,11.12,0,0,0,2.65-4.08,16.75,16.75,0,0,0,1.07-5.58c.11-2.45.14-3.24.14-9.48s0-7-.14-9.49A16.81,16.81,0,0,0,46.4,8.76a11.17,11.17,0,0,0-2.65-4.07A11.17,11.17,0,0,0,39.68,2,16.87,16.87,0,0,0,34.09,1C31.64.85,30.86.83,24.61.83Z" style="fill:url(#a)"/><path d="M24.61,12A11.81,11.81,0,1,0,36.42,23.83,11.81,11.81,0,0,0,24.61,12Zm0,19.47a7.67,7.67,0,1,1,7.67-7.66A7.67,7.67,0,0,1,24.61,31.49Z" style="fill:url(#a)"/><circle cx="36.89" cy="11.55" r="2.76" style="fill:url(#a)"/><path d="M24.61,5c6.14,0,6.87,0,9.3.14a12.56,12.56,0,0,1,4.27.79,7,7,0,0,1,2.64,1.72,7.07,7.07,0,0,1,1.72,2.64,12.56,12.56,0,0,1,.79,4.27c.11,2.43.14,3.16.14,9.3s0,6.87-.14,9.29a12.56,12.56,0,0,1-.79,4.27A7.11,7.11,0,0,1,40.82,40a7.19,7.19,0,0,1-2.64,1.72,12.82,12.82,0,0,1-4.27.79c-2.43.11-3.16.13-9.3.13s-6.87,0-9.29-.13a12.76,12.76,0,0,1-4.27-.79,7.59,7.59,0,0,1-4.37-4.37,12.82,12.82,0,0,1-.79-4.27c-.11-2.42-.13-3.15-.13-9.29s0-6.87.13-9.3a12.82,12.82,0,0,1,.79-4.27A7.19,7.19,0,0,1,8.4,7.62,7,7,0,0,1,11.05,5.9a12.5,12.5,0,0,1,4.27-.79C17.74,5,18.47,5,24.61,5m0-4.14c-6.25,0-7,0-9.48.14A16.75,16.75,0,0,0,9.55,2,11.12,11.12,0,0,0,5.47,4.69,11.3,11.3,0,0,0,2.82,8.76a16.81,16.81,0,0,0-1.07,5.58c-.11,2.46-.14,3.24-.14,9.49s0,7,.14,9.48a16.75,16.75,0,0,0,1.07,5.58A11.25,11.25,0,0,0,5.47,43a11.25,11.25,0,0,0,4.08,2.65,16.75,16.75,0,0,0,5.58,1.07c2.45.11,3.23.14,9.48.14s7,0,9.48-.14a16.87,16.87,0,0,0,5.59-1.07A11.3,11.3,0,0,0,43.75,43a11.12,11.12,0,0,0,2.65-4.08,16.75,16.75,0,0,0,1.07-5.58c.11-2.45.14-3.24.14-9.48s0-7-.14-9.49A16.81,16.81,0,0,0,46.4,8.76a11.17,11.17,0,0,0-2.65-4.07A11.17,11.17,0,0,0,39.68,2,16.87,16.87,0,0,0,34.09,1C31.64.85,30.86.83,24.61.83Z" style="fill:url(#d)"/><path d="M24.61,11.78a12,12,0,1,0,12,12A12,12,0,0,0,24.61,11.78Zm0,19.87a7.82,7.82,0,1,1,7.82-7.82A7.82,7.82,0,0,1,24.61,31.65Z" style="fill:url(#e)"/><circle cx="36.89" cy="11.55" r="2.76" style="fill:url(#f)"/></svg>