<svg id="Layer_1" data-name="Layer 1" xmlns="http://www.w3.org/2000/svg" viewBox="0 0 48 48"><defs><style>.cls-1{fill:#bed430;}.cls-2{fill:#0c0c0c;}.cls-3{fill:#060606;}</style></defs><title>Intacct</title><path class="cls-1" d="M23.92,43.47s-13.19-2-14.62-16a13.15,13.15,0,0,0,9.35,2.66,8.8,8.8,0,0,0,8.79,4.83s6.94-.25,7.62-8.4a8.65,8.65,0,0,0-4.88-8,12.51,12.51,0,0,0-2.74-9.26s10.87-.41,15.27,11.53c0,0,3.49,8.87-2.85,16.39a17.33,17.33,0,0,1-15.93,6.26"/><path class="cls-2" d="M30.18,18.55A12.92,12.92,0,0,1,18.65,30.08,8.64,8.64,0,0,1,30.18,18.55"/><path class="cls-3" d="M27.34,9.27S20.75.62,10.49,6.34A13,13,0,0,0,4.33,17s-.13,6.56,4.9,10.27a17.7,17.7,0,0,1,3.16-11A17.69,17.69,0,0,1,27.34,9.27"/></svg>