<svg xmlns="http://www.w3.org/2000/svg" viewBox="0 0 48 48"><title>intuit partner platform</title><rect x="2.33" y="2.33" width="43.34" height="43.34" style="fill:#2a7de1"/><path d="M31.1,26.76h-1a.34.34,0,0,1-.38-.32v-.39a4,4,0,0,1-2.5.89c-1.76,0-2.49-1.11-2.49-2.81V19.48c0-.27.16-.36.41-.36h1.1c.25,0,.39.08.39.36V23.8c0,.87.22,1.46,1.17,1.46a3,3,0,0,0,1.82-.75v-5c0-.27.14-.36.39-.36h1.12c.25,0,.39.08.39.36v6.84C31.51,26.65,31.42,26.76,31.1,26.76Z" style="fill:#fff"/><path d="M5.53,19.43c0-.18.09-.31.28-.31H7.14a.28.28,0,0,1,.3.31v6.93c0,.29-.13.4-.4.4H5.93c-.28,0-.4-.11-.4-.4Z" style="fill:#fff"/><path d="M33.48,19.43c0-.18.09-.31.28-.31h1.33a.28.28,0,0,1,.3.31v6.93c0,.29-.12.4-.39.4H33.89c-.28,0-.41-.11-.41-.4Z" style="fill:#fff"/><path d="M15.86,26.76H14.73c-.28,0-.38-.15-.38-.41V22.07c0-.86-.23-1.48-1.19-1.48a3.12,3.12,0,0,0-1.86.76v5c0,.27-.11.4-.37.4H9.78a.34.34,0,0,1-.38-.38V19.51a.34.34,0,0,1,.39-.39h1c.22,0,.36.06.37.3l0,.42a4.1,4.1,0,0,1,2.55-.91c1.76,0,2.48,1.1,2.48,2.81v4.61C16.24,26.61,16.14,26.76,15.86,26.76Z" style="fill:#fff"/><path d="M21.46,17a1.15,1.15,0,1,0-1.15,1.16A1.15,1.15,0,0,0,21.46,17Z" style="fill:#fff"/><path d="M23.1,19.12c.19,0,.3.06.3.27v1.1a.28.28,0,0,1-.31.3H21.27v5.57c0,.29-.13.4-.41.4h-1.1c-.28,0-.4-.11-.4-.4V20.79H17.53a.28.28,0,0,1-.31-.3v-1.1c0-.21.11-.27.3-.27Z" style="fill:#fff"/><path d="M41,17a1.16,1.16,0,1,0-1.15,1.16A1.16,1.16,0,0,0,41,17Z" style="fill:#fff"/><path d="M42.61,19.12c.19,0,.3.06.3.27v1.1a.29.29,0,0,1-.32.3H40.77v5.57c0,.29-.12.4-.41.4H39.27c-.28,0-.41-.11-.41-.4V20.79H37a.29.29,0,0,1-.32-.3v-1.1c0-.21.11-.27.3-.27Z" style="fill:#fff"/><path d="M43.13,25.69a.56.56,0,1,1-.57.56A.56.56,0,0,1,43.13,25.69Zm0,1a.48.48,0,0,0,0-1,.48.48,0,0,0,0,1Zm-.22-.81h.25c.16,0,.23.06.23.19a.17.17,0,0,1-.17.18l.19.29H43.3l-.18-.28H43v.28h-.1Zm.1.29h.11c.09,0,.17,0,.17-.1s-.08-.1-.14-.1H43Z" style="fill:#fff"/></svg>