<svg xmlns="http://www.w3.org/2000/svg" viewBox="0 0 48 48">
  <title>invoiced</title>
  <g id="Layer_3" data-name="Layer 3">
    <g>
      <polygon points="4.36 3.59 18.02 17.25 31.68 3.59 22.6 3.59 18.1 8.09 13.48 3.47 4.36 3.59" style="fill: #f78680"/>
      <polygon points="45.35 44.41 31.68 30.75 18.02 44.41 27.1 44.41 31.61 39.91 36.23 44.54 45.35 44.41" style="fill: #f78680"/>
      <polygon points="4.48 44.54 8.85 44.54 22.49 30.75 4.48 12.75 4.48 21.97 13.44 30.75 4.48 39.82 4.48 44.54" style="fill: #f78680"/>
      <polygon points="45.46 3.47 41.19 3.47 27.45 17.35 45.46 35.35 45.46 26.13 36.5 17.35 45.58 8.28 45.46 3.47" style="fill: #f78680"/>
    </g>
  </g>
</svg>
