<svg id="55b9abb9-1ab6-41fa-b18b-10e0317f4800" data-name="Icons" xmlns="http://www.w3.org/2000/svg" xmlns:xlink="http://www.w3.org/1999/xlink" viewBox="0 0 108 72"><defs><linearGradient id="470af7b3-ce0a-4194-a2d8-ffa920a83961" x1="22.59" y1="44.93" x2="22.59" y2="16.44" gradientUnits="userSpaceOnUse"><stop offset="0" stop-color="#950e44"/><stop offset="1" stop-color="#ba255b"/></linearGradient><linearGradient id="f937078e-4809-4015-bd75-65ef42d11509" x1="53.88" y1="44.93" x2="53.88" y2="16.06" gradientUnits="userSpaceOnUse"><stop offset="0.04" stop-color="#53870f"/><stop offset="1" stop-color="#78b12c"/></linearGradient><linearGradient id="f7404afc-a5dd-4254-9e0e-5f7595da8ade" x1="85.41" y1="45.18" x2="85.41" y2="16.17" gradientUnits="userSpaceOnUse"><stop offset="0" stop-color="#096c8d"/><stop offset="1" stop-color="#169fc4"/></linearGradient></defs><title>iva</title><path d="M8.72,53.25v-5h1a3.08,3.08,0,0,1,2,.64,2.19,2.19,0,0,1,.79,1.82,2.28,2.28,0,0,1-.78,1.86,3.06,3.06,0,0,1-2,.64Zm.62-4.39v3.83h.21a4.22,4.22,0,0,0,.91-.1,2.34,2.34,0,0,0,.74-.32,1.46,1.46,0,0,0,.52-.6,2.23,2.23,0,0,0,0-1.8,1.46,1.46,0,0,0-.52-.6,2.42,2.42,0,0,0-.74-.31,3.68,3.68,0,0,0-.91-.1Z"/><path d="M15.24,53.25v-5H17.9v.57h-2v1.39h2v.56h-2v1.88h2v.56Z"/><path d="M20.94,48.29,22.42,52l1.47-3.67h.68l-2.15,5.22-2.15-5.22Z"/><path d="M27,53.25v-5h2.66v.57h-2v1.39h2v.56h-2v1.88h2v.56Z"/><path d="M33.05,48.29v4.4h1.5v.56H32.43v-5Z"/><path d="M37.71,49a2.58,2.58,0,0,1,3.66,0,2.45,2.45,0,0,1,.76,1.82,2.48,2.48,0,0,1-.75,1.84,2.63,2.63,0,0,1-3.68,0,2.57,2.57,0,0,1,0-3.66Zm.44,3.25a2,2,0,0,0,2.78,0,2,2,0,0,0,.59-1.43A2,2,0,0,0,41,49.35a2,2,0,0,0-2.84,0,2,2,0,0,0-.56,1.42A1.92,1.92,0,0,0,38.15,52.2Z"/><path d="M45.91,51.17v2.08h-.62v-5H46a2.54,2.54,0,0,1,1.55.36A1.3,1.3,0,0,1,48,49.73a1.25,1.25,0,0,1-.49,1.09,2,2,0,0,1-1.25.35Zm0-2.32v1.77h.19a3.43,3.43,0,0,0,.48,0,1.48,1.48,0,0,0,.41-.12.73.73,0,0,0,.32-.28,1,1,0,0,0,.11-.48.85.85,0,0,0-.12-.46A.66.66,0,0,0,47,49a1.82,1.82,0,0,0-.43-.11,3.18,3.18,0,0,0-.47,0Z"/><path d="M51,53.25v-5h2.66v.57h-2v1.39h2v.56h-2v1.88h2v.56Z"/><path d="M58,51.09l1.57,2.16h-.75l-1.46-2.1h-.26v2.1h-.61v-5h1.2a2.61,2.61,0,0,1,.42.07,1.28,1.28,0,0,1,.43.15A1.36,1.36,0,0,1,59,49a1.41,1.41,0,0,1,.17.69,1.44,1.44,0,0,1-.32.93A1.28,1.28,0,0,1,58,51.09Zm-.9-2.24v1.79h.2a3.43,3.43,0,0,0,.48,0,1.59,1.59,0,0,0,.41-.12.7.7,0,0,0,.31-.28.9.9,0,0,0,.12-.48c0-.59-.45-.88-1.35-.88Z"/><path d="M66.7,51.17v2.08h-.61v-5h.71a2.51,2.51,0,0,1,1.54.36,1.3,1.3,0,0,1,.45,1.08,1.27,1.27,0,0,1-.48,1.09,2,2,0,0,1-1.25.35Zm0-2.32v1.77h.2a3.43,3.43,0,0,0,.48,0,1.59,1.59,0,0,0,.41-.12.7.7,0,0,0,.31-.28.9.9,0,0,0,.12-.48.85.85,0,0,0-.12-.46.64.64,0,0,0-.34-.26,1.63,1.63,0,0,0-.42-.11,3.18,3.18,0,0,0-.47,0Z"/><path d="M72.08,49a2.58,2.58,0,0,1,3.66,0,2.57,2.57,0,0,1,0,3.66,2.5,2.5,0,0,1-1.84.75,2.53,2.53,0,0,1-1.84-.75,2.48,2.48,0,0,1-.75-1.84A2.45,2.45,0,0,1,72.08,49Zm.44,3.25a1.93,1.93,0,0,0,1.39.58,2,2,0,0,0,2-2,2,2,0,0,0-.56-1.42,1.89,1.89,0,0,0-1.42-.58,1.86,1.86,0,0,0-1.41.58,2,2,0,0,0,0,2.85Z"/><path d="M80.79,51.09l1.56,2.16H81.6l-1.46-2.1h-.25v2.1h-.62v-5h1.2a2.91,2.91,0,0,1,.43.07,1.46,1.46,0,0,1,.43.15,1.26,1.26,0,0,1,.47.5,1.42,1.42,0,0,1,.18.69,1.39,1.39,0,0,1-.33.93A1.28,1.28,0,0,1,80.79,51.09Zm-.9-2.24v1.79h.19a3.43,3.43,0,0,0,.48,0,1.48,1.48,0,0,0,.41-.12.73.73,0,0,0,.32-.28,1,1,0,0,0,.11-.48c0-.59-.45-.88-1.35-.88Z"/><path d="M86.47,48.86v4.39h-.62V48.86H84.67v-.57h3v.57Z"/><path d="M93.13,52H90.85l-.56,1.24h-.67L92,48.08l2.37,5.17h-.67Zm-.26-.57-.88-2-.88,2Z"/><path d="M97.78,48.29v4.4h1.5v.56H97.16v-5Z"/><rect x="7.5" y="16.08" width="30.19" height="29.21" style="fill:url(#470af7b3-ce0a-4194-a2d8-ffa920a83961)"/><rect x="38.78" y="16.08" width="30.19" height="29.21" style="fill:url(#f937078e-4809-4015-bd75-65ef42d11509)"/><rect x="70.31" y="16.08" width="30.19" height="29.21" style="fill:url(#f7404afc-a5dd-4254-9e0e-5f7595da8ade)"/><path d="M24.08,19.27V42.1H21.13V19.27Z" style="fill:#fff"/><path d="M46.55,19.63l7.06,16.9,7-16.9h3.24l-10.27,24-10.29-24Z" style="fill:#fff"/><path d="M90.74,36.74H79.88l-2.7,5.72H74l11.3-23.8L96.6,42.46H93.44Zm-1.23-2.61-4.2-9.23L81.1,34.13Z" style="fill:#fff"/></svg>