<svg id="Layer_1" data-name="Layer 1" xmlns="http://www.w3.org/2000/svg" viewBox="0 0 48 48"><defs><style>.cls-1{fill:#fff;}.cls-2{fill:#f2f2f2;}.cls-3{fill:#4e4e4e;}.cls-4{fill:#686868;}.cls-5{fill:#404040;}.cls-6{fill:#d6ab96;}.cls-7{fill:#b28f7e;}.cls-8{fill:#edcebd;}.cls-9{fill:#f38632;}.cls-10{fill:#c86e29;}.cls-11{fill:#f6a259;}</style></defs><title>jotform0</title><g id="Page-1"><g id="jf-logo"><g id="jf-logo-mark"><g id="path-1"><circle id="path-3" cx="24" cy="24.25" r="19"/><circle id="path-3-2" data-name="path-3" class="cls-1" cx="24" cy="24.25" r="19"/></g><path class="cls-2" d="M39.28,27.21l2.29-9.54A18.94,18.94,0,0,0,31.87,7L28.42,25.61,15.6,36Z"/><polygon class="cls-3" points="19.13 30.18 15.6 36.02 16.02 29.17 17.06 29.21 18.32 29.56 19.13 30.18"/><polygon class="cls-4" points="15.6 35.93 20.59 12.68 17.08 12.19 15.6 35.93"/><path class="cls-5" d="M30.1,6.32a18.49,18.49,0,0,0-3.35-.85l-2.53,8.46L15.6,36l3.53-5.85,8.36-14.61Z"/><polygon id="Path-Copy" class="cls-6" points="18.32 29.56 17.06 29.21 16.02 29.17 17.08 12.19 18.06 8.81 29.94 6.44 27.49 15.57 19.13 30.18 18.32 29.56"/><polygon class="cls-7" points="24.22 13.93 25.19 10.59 27.48 15.56 19.12 30.18 18.32 29.56 18.14 29.51 24.22 13.93"/><polygon class="cls-8" points="17.08 12.19 22.22 7.03 20.59 12.68 17.04 29.21 16.02 29.17 17.08 12.19"/><path class="cls-9" d="M23.85,5.25a18.93,18.93,0,0,0-5.08.7l-1.69,6.24,3.52.49,3.62,1.25,3.29,1.64,2.61-9.25a18.82,18.82,0,0,0-6.27-1.07Z"/><path class="cls-10" d="M24.22,13.93l2.53-8.46a18.35,18.35,0,0,1,1.82.38c.35.09.69.19,1,.3l.5.17-2.61,9.24-3.27-1.63,2.53-8.46Z"/><path class="cls-11" d="M18.77,6l-1.69,6.24,3.51.5,2.14-7.4a18.94,18.94,0,0,0-4,.66Z"/></g></g></g></svg>