<svg id="Layer_1" data-name="Layer 1" xmlns="http://www.w3.org/2000/svg" viewBox="0 0 48 48"><title>jumpseller</title><path d="M29.09,12.31a7.2,7.2,0,0,0,1-.66,7.34,7.34,0,0,0,2.75-5.71,6,6,0,0,0-.5-2.48.53.53,0,0,1,0-.49.5.5,0,0,1,.44-.22.5.5,0,0,1,.4.28,7.09,7.09,0,0,1,.6,2.91,8.29,8.29,0,0,1-3.14,6.49,7.47,7.47,0,0,1-1.06.7Z"/><path id="Combined-Shape" d="M34.45,17A3.26,3.26,0,0,1,35,19.55L30.86,42a2.41,2.41,0,0,1-3.07,2.18l-16.3-2.86C9.2,41,9,39.5,9.38,37.41l4-22A2.8,2.8,0,0,1,15,13.3l9.21-5.87a2.89,2.89,0,0,1,1.45-.49c1,0,1.45.29,2.39,1.54Zm-7.88.3h-4L19.48,33.79c-.61,3.15-1.61,3.86-2.9,3.86a5.62,5.62,0,0,1-1.16-.1l-.48,3a9.15,9.15,0,0,0,2.15.24,5.58,5.58,0,0,0,4.2-1.7c1.05-1.15,1.7-2.91,2.24-5.72Zm-3.48-4.47a2,2,0,0,0,2,2.1,2.38,2.38,0,0,0,2.49-2.38A2,2,0,0,0,27,11a2.09,2.09,0,0,0-1.54-.59,2.39,2.39,0,0,0-1.7.69A2.29,2.29,0,0,0,23.09,12.79Z" style="fill:#a6c544"/><path d="M40.79,3.57a.51.51,0,0,0-.68.15s-2.82,4.39-6.24,4.39A14.23,14.23,0,0,1,31.61,8a20.53,20.53,0,0,0-3.23-.2c-3.12,0-4.76,1.64-4.76,3.26,0,1.05.73,2.84,3.48,2.84h.11a2.46,2.46,0,0,0,.25-1c-.12,0-.24,0-.36,0-2.39,0-2.51-1.55-2.51-1.86,0-1.11,1.33-2.28,3.78-2.28a20.09,20.09,0,0,1,3.1.19,15.91,15.91,0,0,0,2.39.16c3.94,0,6.94-4.65,7.06-4.85A.53.53,0,0,0,41,3.88a.44.44,0,0,0-.2-.31Z"/></svg>