<svg xmlns="http://www.w3.org/2000/svg" viewBox="0 0 48 48"><defs><style>.cls-1{fill:#ffd425;}.cls-2{fill:#fff;}</style></defs><title>j-kincone</title><g id="Layer_3" data-name="Layer 3"><path class="cls-1" d="M35,2.35a5.19,5.19,0,0,1,6.7,3.2,5.09,5.09,0,0,1-2.82,6.31,7.74,7.74,0,0,1,1.67,5.43c-.31,3-2,5.67-3.44,8.28a10.93,10.93,0,0,0-1.37,3.83c-.57,3.45-.24,7-.31,10.43a3,3,0,0,1-1.13,2.68c-1.37.91-3.13.52-4.63.18a45.29,45.29,0,0,1-11.82-5.76,45.74,45.74,0,0,1-10-8.44c-1-1.28-2.09-2.82-1.84-4.56a3,3,0,0,1,2-2.05c3.7-1.65,7.68-2.94,10.79-5.64,2.51-2.32,4.1-5.54,6.93-7.53a7.26,7.26,0,0,1,5.91-1.27A5.11,5.11,0,0,1,35,2.35Z"/><path class="cls-2" d="M36.15,5.19a2.1,2.1,0,0,1,2.64,2.59,2.07,2.07,0,1,1-2.64-2.59Z"/><path class="cls-2" d="M28.84,10.56a1.37,1.37,0,0,1,2,1.47c-.44.78-1.28,1.19-1.91,1.8-2.67,2.51-4.5,5.9-7.65,7.91a51.11,51.11,0,0,1-10.57,5.13,16.21,16.21,0,0,1-1.58-2.12A43.59,43.59,0,0,0,20.69,18.9a14.89,14.89,0,0,0,2.71-2.84,23.1,23.1,0,0,1,5.44-5.5Z"/><path class="cls-1" d="M17.7,39.12a62.23,62.23,0,0,0,8.15,4.31,4.77,4.77,0,0,1-4,2.54,4.52,4.52,0,0,1-4.53-3.09,4.8,4.8,0,0,1,.35-3.76Z"/></g></svg>