<svg id="581aa20a-1553-40b0-a45d-80a96a738db4" data-name="Layer 1" xmlns="http://www.w3.org/2000/svg" viewBox="0 0 48 48">
  <defs>
    <style>
      .c54a4238-8eb8-406d-a262-adafd6f0f611 {
        fill: #fccf00;
      }
    </style>
  </defs>
  <title>Artboard 1</title>
  <g id="b090026c-ccac-41c4-9379-f5d4d249512a" data-name="Source Base 36x36 ">
    <path class="c54a4238-8eb8-406d-a262-adafd6f0f611" d="M46.66,18.53a12.54,12.54,0,0,0-9.57-1.59c0-.23,0-.45,0-.67a6.33,6.33,0,0,0-6.34-6.33,6.45,6.45,0,0,0-3.2.86,8.87,8.87,0,0,0-14.37,4,8.08,8.08,0,0,0-2.92-.54A8.24,8.24,0,0,0,7.13,30a9.49,9.49,0,0,0,16.05,6.86,6.22,6.22,0,0,0,3.19.85A6.32,6.32,0,0,0,32.13,34a9.52,9.52,0,0,0,6.2-11.94,4.11,4.11,0,0,0-.15-.42A15.56,15.56,0,0,1,46.66,18.53Z"/>
  </g>
</svg>
