<svg version="1.1" id="d489f32d-489f-43d5-8f6b-829c6a8f2dfb" xmlns="http://www.w3.org/2000/svg" x="0" y="0" viewBox="0 0 108 72" xml:space="preserve">
  <style>
    .st0{fill:#0dbcd4}
  </style>
  <g id="e75a78da-b630-4aad-82a9-3f3de555312a">
    <g id="d51efee4-d4bf-44c4-ad5d-69e71c774a3a">
      <path d="M20.4 30.7h.7v4.8L24 33h1.1l-3.3 2.9 3.5 3.1h-1.1l-3.1-2.7V39h-.7v-8.3zM25.9 33h.8v1.1c.3-.4.6-.7 1-.9.4-.2.8-.3 1.2-.3.4 0 .8.1 1.2.3.3.2.6.5.8.9.2.6.3 1.2.2 1.8V39h-.8v-2.8c0-.5 0-.9-.1-1.4-.1-.4-.3-.7-.5-.9-.3-.2-.6-.3-1-.3-.5 0-.9.2-1.3.5s-.6.7-.7 1.2c-.1.5-.1 1.1-.1 1.6V39h-.8l.1-6zM37.7 33.9c-1.2-1.3-3.2-1.3-4.5-.2-.1 0-.1.1-.2.2-1.1 1.2-1.1 3.1 0 4.3 1.2 1.3 3.3 1.3 4.5 0 .6-.6.9-1.4.9-2.2.1-.7-.1-1.5-.7-2.1zm-.2 3.4c-.2.4-.5.7-.8.9-.7.4-1.6.4-2.4 0-.4-.2-.7-.5-.9-.9-.2-.4-.3-.8-.3-1.2 0-.6.2-1.3.7-1.7.9-.9 2.3-1 3.2-.1l.1.1c.5.4.7 1.1.7 1.7 0 .4-.1.8-.3 1.2zM39 33h.8l1.8 4.4 1.9-4.4h.2l1.9 4.4 1.9-4.4h.8l-2.6 6h-.2l-1.9-4.3-1.9 4.3h-.2L39 33zM48.9 30.7h.8V39h-.8v-8.3zM55.5 37.9c-.2.2-.5.3-.8.4-.3.1-.6.2-.9.2-.6 0-1.2-.2-1.6-.7-.4-.5-.7-1.1-.7-1.7H57c0-.7-.2-1.5-.7-2.1-.6-.8-1.5-1.2-2.5-1.2-.9 0-1.8.4-2.4 1.1-1 1.2-.9 3 .1 4.2.6.7 1.4 1 2.3 1 .4 0 .8-.1 1.2-.2.3-.1.7-.3.9-.6.3-.3.6-.6.8-1L56 37c0 .4-.2.7-.5.9zm-3.1-3.7c.4-.4 1-.6 1.5-.6.3 0 .7.1 1 .2.3.1.6.3.8.6.2.3.4.6.5 1h-4.5c.1-.4.3-.9.7-1.2zM63.5 30.7v3.4c-.3-.4-.7-.7-1.1-1-.4-.2-.9-.3-1.3-.3-.8 0-1.6.3-2.2.9-.6.7-.9 1.5-.9 2.3 0 .8.3 1.7.9 2.2.6.6 1.4.9 2.2.9.5 0 .9-.1 1.3-.3.4-.2.8-.5 1.1-.9v1h.8v-8.3h-.8zm-.3 6.6c-.2.4-.5.7-.9.9-.4.2-.8.3-1.2.3-.9 0-1.6-.5-2-1.2-.4-.7-.4-1.7 0-2.4s1.2-1.2 2-1.2c.6 0 1.2.2 1.7.7.5.5.7 1.1.7 1.7.1.4-.1.8-.3 1.2zM71 33.1v1c-.3-.4-.7-.7-1.1-.9-.4-.2-.8-.3-1.2-.3-1.7 0-3.1 1.4-3.1 3.1 0 .5.1 1.1.4 1.5.3.5.7.8 1.1 1.1.5.3 1 .4 1.6.4.5 0 .9-.1 1.3-.3.4-.2.8-.5 1-.8v.3c0 .5 0 1-.2 1.4-.2.3-.4.6-.8.7-.4.2-.9.3-1.3.3-.5 0-.9-.1-1.3-.3-.4-.2-.7-.5-.9-.9h-.8c.2.4.4.8.7 1.1.3.3.6.5 1 .6.4.2.9.2 1.4.2.6 0 1.3-.1 1.8-.4.5-.3.9-.7 1.1-1.3.2-.6.2-1.2.2-1.8v-4.7H71zm-.6 4.6c-.5.4-1.1.7-1.7.7-.6 0-1.2-.2-1.7-.7-.5-.4-.7-1-.7-1.7 0-.4.1-.8.3-1.2.4-.8 1.2-1.2 2.1-1.2.4 0 .8.1 1.2.3.4.2.7.5.8.8.2.4.3.8.3 1.2.1.7-.1 1.3-.6 1.8zM77.7 37.9c-.2.2-.5.3-.7.4-.3.1-.6.2-.9.2-.6 0-1.2-.2-1.6-.7-.4-.5-.7-1.1-.7-1.7h5.4c0-.7-.2-1.5-.7-2.1-.6-.8-1.5-1.2-2.5-1.2-.9 0-1.8.4-2.4 1.1-.5.6-.7 1.3-.7 2 0 .8.3 1.6.8 2.2.6.7 1.4 1 2.3 1 .4 0 .8-.1 1.2-.2.3-.1.7-.3.9-.6.3-.3.6-.6.8-1l-.6-.3c-.1.4-.4.7-.6.9zm-3.1-3.7c.4-.4 1-.6 1.5-.6.3 0 .7.1 1 .2.3.1.6.3.8.6.2.3.4.6.4 1h-4.5c.1-.4.4-.9.8-1.2z"/>
      <path class="st0" d="M85.6 33.9c-1.2-1.3-3.2-1.3-4.5-.2-.1 0-.1.1-.2.2-1.1 1.2-1.1 3.1 0 4.3 1.2 1.2 3.3 1.3 4.5 0 .6-.6.9-1.4.9-2.2.1-.7-.2-1.5-.7-2.1zm-.3 3.4c-.2.4-.5.7-.8.9-.7.4-1.6.4-2.4 0-.4-.2-.7-.5-.9-.9-.2-.4-.3-.8-.3-1.2 0-.6.2-1.3.7-1.7.9-.9 2.3-1 3.2-.1l.1.1c.5.4.7 1.1.7 1.7 0 .4-.1.8-.3 1.2zM86.8 33h.8l1.9 4.4 1.9-4.4h.1l2 4.4 1.8-4.4h.8l-2.6 6h-.1l-1.9-4.3-1.9 4.3h-.2l-2.6-6zM96.8 30.7h.8V39h-.8z"/>
    </g>
  </g>
  <path class="st0" d="M13.8 31.4c-.1-.6-.7-.9-1.2-.7-.5.1-.9.7-.7 1.2s.7.9 1.2.7c.5-.2.8-.7.7-1.2zm-.6.1c-.2.1-.3 0-.4-.1-.1-.2 0-.3.1-.4.2-.1.3 0 .4.1.1.1.1.3-.1.4zM16.8 30.6c-.1-.6-.7-.9-1.2-.7-.5.1-.9.7-.7 1.2s.7.9 1.2.7c.5-.1.8-.6.7-1.2zm-.7.2c-.2 0-.3-.1-.3-.3s.1-.3.3-.3.3.1.3.3-.1.3-.3.3z"/>
  <path d="M17.4 38.2c.8-.7 1.3-1.8 1.2-2.9-.1-1-.6-1.9-1.4-2.4.7-.6 1.1-1.5.9-2.5-.2-1-.1-1.8-.2-2.5 0-.2-.2-.4-.4-.3-.1 0-.2.1-.2.1-.6.5-1.3.8-2.1.8H15c-.4.1-.8 0-1.2.1-.4.1-.8.2-1.1.4-.7.4-1.5.5-2.3.3H10.1c-.2.1-.2.3-.2.5.2.7.7 1.4.9 2.3.1.5.4.9.8 1.2l-.1.2c-1.2 1.4-2.1 3-2.5 4.8v.2c0 .2 0 .4.1.6.2.3.5.5.8.6.3 0 .5 0 .8-.1.8-.2 1.6-.5 2.4-.8.7.3 1.4.4 2.2.4l3-.2c-.4-.4-.6-.7-.9-.8zm-5.9-5.3c-.8-.7-.8-1.9-.1-2.7.7-.8 1.9-.8 2.7-.1.2-.6.7-1 1.3-1.2 1-.2 2 .4 2.3 1.4.2.6 0 1.3-.4 1.7-.7.8-1.9.8-2.7.1-.1.2-.2.4-.4.6-.7.9-1.9.9-2.7.2zm3.6.1v.1l-.1.3c0 .1-.1.2-.2.2 0 0-.1 0-.1-.1l-.2-.2c-.1-.1-.1-.2 0-.3h.1l.3-.1c.1 0 .2 0 .2.1zm-.1 5.8c-.6.1-1.2 0-1.7-.2 2.4-1.1 4.7-3 3.6-5.2l-.1-.2.2-.1c.8.5 1.3 1.3 1.4 2.2-.1 1.9-1.6 3.5-3.4 3.5z"/>
</svg>
