<svg id="Layer_1" data-name="Layer 1" xmlns="http://www.w3.org/2000/svg" viewBox="0 0 48 48"><defs><style>.cls-1{fill:#17202d;}</style></defs><title>launchdarkly</title><path class="cls-1" d="M23.31,42c9.63,0,17.38-8.13,17.38-18a19.37,19.37,0,0,0-.25-2.75v.87A15.51,15.51,0,0,1,25.19,37.88a14.89,14.89,0,0,1-9.5-3.38,12.21,12.21,0,0,1-4.5,2.63A17.93,17.93,0,0,0,23.31,42Z"/><path class="cls-1" d="M9.94,22.12A15.5,15.5,0,0,1,25.19,6.37c.75,0,1.37.13,2.12.13A15.7,15.7,0,0,0,23.19,6C13.69,6,5.81,14.13,5.81,24a22.18,22.18,0,0,0,1.13,6.63,14.78,14.78,0,0,1,4-2.88,14,14,0,0,1-1-5.63Z"/><path class="cls-1" d="M20.19,19.25a10,10,0,0,0-7.38.38,11.22,11.22,0,0,1,4.38,3.75C18.06,22,19.94,19.62,20.19,19.25Z"/><path class="cls-1" d="M26.31,28.13c0-.38-.12-.75-.12-1.25a27.16,27.16,0,0,1-3.25,2c-.13.12-.38.12-.63.25a3.74,3.74,0,0,0-1,.5c-.12,0-.12,0-.25.12s.13.25.13.38.12.25.12.37.13.25.13.38.12.49.25.87c0,.13.12.38.12.5s.13.37.13.5a11.63,11.63,0,0,1,.37,3v.75a8.79,8.79,0,0,0,3.88-7.37v-.51a.94.94,0,0,0,.12-.49Z"/><path class="cls-1" d="M42.31,8.5a9.77,9.77,0,0,1-3.75,5.25l-.12.12a1.36,1.36,0,0,1-1.75-.25,1.61,1.61,0,0,1-.75-1.25.47.47,0,0,1,.12-.37l.13-.12a15.31,15.31,0,0,0,3-3.63,19.51,19.51,0,0,0-7.25,2.25c-3.5,1.87-7,5.25-9.75,8.5,0,.13-.13.25-.25.38s-.13.25-.25.37c-1.5,1.75-2.63,3.5-3.63,4.88-.12.12-.12.24-.25.37s-.12.38-.25.5c-.37.62-.87,1.5-1.12,2a4.41,4.41,0,0,1,1.62,2.75c.25,0,1-.25,1.63-.38a1,1,0,0,0-.25-.62.37.37,0,0,1,.12-.5,28.61,28.61,0,0,0,7.5-4.25.24.24,0,0,1,.38.13,21.67,21.67,0,0,1,.37,2.25c.5-.25,1-.51,1.63-.88A34.07,34.07,0,0,0,44.56,8.87,8.51,8.51,0,0,0,42.31,8.5ZM27.56,23.25a1.48,1.48,0,0,1-1.5-1.62A1.55,1.55,0,0,1,27.56,20a1.64,1.64,0,0,1,1.5,1.63A1.55,1.55,0,0,1,27.56,23.25Zm3.38-2.75a1.55,1.55,0,0,1-1.5-1.63,1.64,1.64,0,0,1,1.5-1.62,1.55,1.55,0,0,1,1.5,1.62A1.43,1.43,0,0,1,30.94,20.5Zm3.37-2.62a1.63,1.63,0,1,1,1.5-1.63A1.55,1.55,0,0,1,34.31,17.88Z"/><path class="cls-1" d="M14.94,28.38c.87,0,1.62,1.62,1.62,2.12s-.25,1.38-1.75,2.88h0a11.16,11.16,0,0,1-4.62,2.5h0a27.24,27.24,0,0,1-6.75,1,42.87,42.87,0,0,1,4.25-4.74h0a14.89,14.89,0,0,1,3.87-2.88h0a6.06,6.06,0,0,1,3.38-.87h0m-.25,1.87h0l.37-.37c0-.13-.12-.13-.12-.25-.63-.76-2.5,0-3.38.49a14.17,14.17,0,0,0-3.37,3h0a.4.4,0,0,0-.13.26.45.45,0,0,1,.25-.13h0a11.51,11.51,0,0,1,3.63-2.5A16.49,16.49,0,0,1,11.19,33a21.71,21.71,0,0,0,2-1.5,5.61,5.61,0,0,0,.87-.75c.13-.13.25-.25.38-.25a.27.27,0,0,1,.25-.25Z"/></svg>