<?xml version="1.0" encoding="utf-8"?>
<!-- Generator: Adobe Illustrator 22.1.0, SVG Export Plug-In . SVG Version: 6.00 Build 0)  -->
<svg version="1.1" id="Layer_1" xmlns="http://www.w3.org/2000/svg" xmlns:xlink="http://www.w3.org/1999/xlink" x="0px" y="0px"
	 viewBox="0 0 48 48" style="enable-background:new 0 0 48 48;" xml:space="preserve">
<title>mailchimp</title>
<g>
	<g>
		<g>
			<g>
				<path d="M31.8,22.8c0.3,0,0.5,0,0.8,0c0.1-0.3,0.2-0.9,0-1.5c-0.2-0.9-0.4-1.4-1-1.4c-0.5,0.1-0.5,0.7-0.4,1.6
					C31.4,22.1,31.6,22.5,31.8,22.8z"/>
				<path d="M27.3,23.5c0.4,0.2,0.6,0.3,0.7,0.2c0.1-0.1,0-0.2,0-0.3c-0.2-0.3-0.6-0.6-1-0.8c-0.8-0.4-1.8-0.2-2.6,0.3
					c-0.3,0.2-0.5,0.4-0.5,0.6c0,0.1,0,0.1,0.1,0.1c0.2,0,0.9-0.3,1.8-0.4C26.5,23.1,27,23.3,27.3,23.5z"/>
				<path d="M26.6,23.9c-0.5,0.1-0.8,0.2-0.9,0.4c-0.1,0.1-0.2,0.3-0.2,0.4c0,0,0,0.1,0,0.1c0,0,0,0,0.1,0c0.1,0,0.4-0.1,0.4-0.1
					c0.7-0.2,1.1-0.2,1.6-0.2c0.2,0,0.4,0,0.4,0c0,0,0-0.1,0-0.2C27.7,24.2,27.3,23.8,26.6,23.9z"/>
				<path d="M30.3,25.5c0.3,0.2,0.7,0.1,0.8-0.1c0.1-0.2-0.1-0.6-0.4-0.7c-0.3-0.2-0.7-0.1-0.8,0.1C29.8,25,30,25.3,30.3,25.5z"/>
				<path d="M32.5,23.6c-0.3,0-0.5,0.3-0.5,0.7c0,0.4,0.2,0.7,0.5,0.7c0.3,0,0.5-0.3,0.5-0.7C32.9,23.9,32.7,23.6,32.5,23.6z"/>
				<path d="M14.3,30.3c-0.1-0.1-0.2-0.1-0.3,0c-0.1,0-0.2,0-0.3,0c-0.2,0-0.4-0.1-0.5-0.2c-0.1-0.2-0.1-0.5,0-0.8
					c0,0,0-0.1,0.1-0.1c0.2-0.5,0.6-1.3,0.2-2.1c-0.3-0.6-0.8-0.9-1.4-1c-0.6-0.1-1.2,0.1-1.5,0.6c-0.6,0.7-0.7,1.6-0.6,1.9
					c0,0.1,0.1,0.1,0.2,0.2c0.1,0,0.3-0.1,0.3-0.3c0,0,0,0,0-0.1c0-0.1,0.1-0.4,0.2-0.6c0.2-0.2,0.4-0.4,0.7-0.5
					c0.3-0.1,0.6,0,0.8,0.2c0.4,0.3,0.6,0.8,0.4,1.3c-0.1,0.3-0.2,0.7-0.2,1.1c0.1,0.8,0.6,1.1,1,1.2c0.4,0,0.7-0.2,0.8-0.4
					C14.4,30.4,14.3,30.3,14.3,30.3z"/>
				<path d="M39.3,28.8c0-0.1-0.1-0.5-0.3-0.9c-0.1-0.5-0.3-0.8-0.3-0.8c0.6-0.9,0.6-1.7,0.5-2.1c-0.1-0.6-0.3-1-0.8-1.5
					s-1.4-1-2.8-1.4c-0.2,0-0.7-0.2-0.7-0.2c0,0,0-1.7-0.1-2.4c0-0.5-0.1-1.3-0.3-2.1c-0.3-1.1-0.8-2-1.4-2.6
					c1.8-1.8,2.8-3.8,2.8-5.5c0-3.3-4.1-4.3-9-2.2c0,0-1,0.4-1.1,0.4c0,0-1.9-1.9-1.9-1.9c-5.7-5-23.5,14.8-17.8,19.6l1.2,1.1
					c-0.3,0.8-0.4,1.8-0.3,2.8c0.1,1.3,0.8,2.6,1.9,3.6c1,0.9,2.4,1.5,3.8,1.5C15,39.4,20,42.5,26,42.7c6.4,0.2,11.7-2.8,13.9-8.2
					c0.1-0.4,0.8-2.1,0.8-3.6C40.7,29.5,39.8,28.8,39.3,28.8z M13.3,32.9c-0.2,0-0.4,0-0.6,0c-1.9-0.1-4-1.8-4.2-3.8
					c-0.2-2.3,0.9-4,3-4.4c0.2,0,0.5-0.1,0.9-0.1c1.1,0.1,2.8,0.9,3.2,3.4C15.9,30.2,15.3,32.5,13.3,32.9z M11.1,23.3
					c-1.3,0.2-2.4,1-3.1,2c-0.4-0.3-1.2-1-1.3-1.3c-1.1-2.1,1.2-6.1,2.8-8.4c4-5.7,10.2-9.9,13.1-9.2c0.5,0.1,2,1.9,2,1.9
					s-2.9,1.6-5.5,3.8C15.4,14.9,12.7,18.9,11.1,23.3z M31.3,32c0,0,0.1-0.1,0.1-0.1c0-0.1-0.1-0.1-0.1-0.1c0,0-3,0.4-5.9-0.6
					c0.3-1,1.1-0.6,2.4-0.5c2.2,0.1,4.3-0.2,5.7-0.6c1.3-0.4,3-1.1,4.3-2.1c0.4,1,0.6,2,0.6,2s0.3-0.1,0.6,0.1
					c0.3,0.2,0.5,0.5,0.3,1.4c-0.3,1.7-1,3-2.2,4.3c-0.7,0.8-1.6,1.5-2.6,2c-0.5,0.3-1.1,0.5-1.7,0.7c-4.5,1.5-9.1-0.1-10.6-3.6
					c-0.1-0.3-0.2-0.5-0.3-0.8c-0.6-2.3-0.1-5,1.6-6.8c0,0,0,0,0,0c0.1-0.1,0.2-0.2,0.2-0.4c0-0.1-0.1-0.3-0.2-0.4
					c-0.6-0.9-2.6-2.3-2.2-5.1c0.3-2,2.1-3.4,3.7-3.4c0.1,0,0.3,0,0.4,0c0.7,0,1.3,0.1,1.9,0.2c1,0,1.9-0.1,2.9-1
					c0.4-0.3,0.6-0.6,1.1-0.6c0.1,0,0.2-0.1,0.4,0c0.3,0,0.5,0.1,0.7,0.2c0.8,0.6,1,1.9,1,2.9c0,0.6,0.1,1.9,0.1,2.3
					c0.1,0.9,0.3,1,0.8,1.2c0.3,0.1,0.5,0.2,0.9,0.3c1.1,0.3,1.8,0.6,2.2,1c0.2,0.3,0.4,0.5,0.4,0.8c0.1,1-0.7,2.1-3.1,3.2
					c-2.5,1.2-5.6,1.5-7.7,1.2c-0.2,0-0.7-0.1-0.7-0.1c-1.7-0.2-2.7,2-1.6,3.5c0.7,1,2.4,1.6,4.2,1.6c4.1,0,7.2-1.7,8.4-3.3
					c0,0,0-0.1,0.1-0.1c0.1-0.1,0-0.1-0.1-0.1c-1,0.7-5.2,3.3-9.8,2.5c0,0-0.6-0.1-1.1-0.3c-0.4-0.2-1.2-0.5-1.3-1.4
					C29,33.1,31.3,32,31.3,32z M25.5,31.3C25.5,31.3,25.5,31.3,25.5,31.3C25.5,31.3,25.5,31.3,25.5,31.3
					C25.5,31.3,25.5,31.3,25.5,31.3z M18.4,15.5c1.4-1.6,3.1-3,4.7-3.8c0.1,0,0.1,0,0.1,0.1c-0.1,0.2-0.4,0.7-0.4,1.1
					c0,0.1,0,0.1,0.1,0.1c1-0.7,2.7-1.4,4.1-1.5c0.1,0,0.1,0.1,0,0.1c-0.2,0.2-0.5,0.4-0.6,0.7c0,0,0,0.1,0,0.1c1,0,2.5,0.4,3.4,0.9
					c0.1,0,0,0.2-0.1,0.1c-1.4-0.3-3.8-0.6-6.2,0C21.4,13.9,19.7,14.7,18.4,15.5C18.5,15.7,18.4,15.6,18.4,15.5z"/>
			</g>
		</g>
	</g>
</g>
</svg>
