<svg id="8590ba9e-2d61-458c-91ac-a985c1647197" data-name="Icons" xmlns="http://www.w3.org/2000/svg" viewBox="0 0 108 72">
  <defs>
    <style>
      .\33 29aa151-764f-497e-97ef-a032d724d1c5 {
        fill: #fead0d;
      }
    </style>
  </defs>
  <title>mailjet</title>
  <g>
    <g>
      <polygon class="329aa151-764f-497e-97ef-a032d724d1c5" points="23.72 32.15 22.89 37.69 17.17 46.05 19.11 44.99 50.53 27.68 56.38 24.47 23.72 32.15"/>
      <polygon class="329aa151-764f-497e-97ef-a032d724d1c5" points="23.53 30.68 48.17 25.07 46.58 24.86 40.1 23.95 26.37 22.06 8.4 19.57 14.99 24.41 23.28 30.5 23.53 30.68"/>
    </g>
    <g>
      <path d="M79.22,51.23c-.28,1.59-.44,2-3.82,4.58l-.81-1.1c2.6-2.12,2.93-2.36,3.17-3.78l2.45-13.84,1.58-.22Zm1.93-19.66,1.58-.22-.55,3.07-1.54.22Z"/>
      <path d="M83.86,46.75c0,.25,0,.48,0,.7,0,1.11.43,1.69,2.27,1.69a11.42,11.42,0,0,0,4.68-1.27L91.15,49a11.58,11.58,0,0,1-5.24,1.45c-2.47,0-3.61-1-3.61-3a6.92,6.92,0,0,1,.15-1.3l.78-4.45c.61-3.36,2.33-5,5.74-5,2.13,0,3.51,1.1,3.51,3.07,0,2.13-1.4,3.26-5,4.26l-3.23.9Zm7.11-7C91,38.55,90.19,38,88.8,38c-2.35,0-3.61,1.23-4.07,3.82l-.29,1.68,3.07-.81C90,42,91,41.16,91,39.74Z"/>
      <path d="M94,48.69a3.07,3.07,0,0,1,.06-.51l1.74-9.91H93.23l.22-1.3H96l.58-3.23,1.54-.22L97.53,37h4l-.29,1.3H97.3L95.59,48a3.25,3.25,0,0,0-.06.49c0,.51.26.65.9.65a7.65,7.65,0,0,0,2.64-.62l.38,1a6.75,6.75,0,0,1-3.29.9C94.81,50.46,94,49.89,94,48.69Z"/>
    </g>
    <g>
      <path d="M38.54,38.36a12.25,12.25,0,0,1,5.34-1.65,2.13,2.13,0,0,1,2.31,1.68,11.58,11.58,0,0,1,5.43-1.68c1.81,0,2.42,1.19,2.42,2.63a5.27,5.27,0,0,1-.15,1.3L52.21,50.2H49l1.65-9.43a1.73,1.73,0,0,0,0-.35c0-.34-.16-.56-.68-.56A10.71,10.71,0,0,0,46,41.41L44.47,50.2H41.21l1.65-9.43a1.73,1.73,0,0,0,0-.35c0-.34-.16-.56-.68-.56a10.71,10.71,0,0,0-3.94,1.55L36.73,50.2H33.47l1.75-9.88"/>
      <path d="M64.59,50.18H61.85l0-1.46a6.27,6.27,0,0,1-4.32,1.74c-2.27,0-3.08-1.21-3.08-3a7.55,7.55,0,0,1,.15-1.38l.67-3.85c.62-3.58,1.46-5.5,6.57-5.5a20.6,20.6,0,0,1,5,.84ZM63.21,39.62a11,11,0,0,0-1.88-.19c-2.07,0-2.5.87-2.78,2.6l-.83,4.63a1.53,1.53,0,0,0,0,.32c0,.49.3.71.9.71a6.25,6.25,0,0,0,3.53-2Z"/>
      <path d="M68.91,37.22l3.34-.46L69.89,50.2H66.63Zm1-5.65,3.33-.45-.64,3.7-3.34.48Z"/>
      <path d="M75.34,31.57l3.33-.45L75.31,50.18H72.05Z"/>
    </g>
  </g>
</svg>
