<svg width="48" height="48" viewBox="0 0 48 48" fill="none" xmlns="http://www.w3.org/2000/svg">
<g clip-path="url(#clip0_1694_678)">
<path d="M6.03381 10.5023C6.03381 7.41232 8.54367 4.9117 11.6451 4.9117H36.3465C39.4479 4.9117 41.9578 7.41232 41.9578 10.5023V35.1128C41.9578 38.2028 39.4479 40.7035 36.3465 40.7035H11.6451C8.54367 40.7035 6.03381 38.2028 6.03381 35.1128V10.5023Z" fill="#FA0F00"/>
<path d="M11.6451 4.9117H36.3465C39.4479 4.9117 41.9578 7.41232 41.9578 10.5023V35.1128C41.9578 38.2028 39.4479 40.7035 36.3465 40.7035H11.6451C8.54367 40.7035 6.03381 38.2028 6.03381 35.1128V10.5023C6.03381 7.41232 8.54367 4.9117 11.6451 4.9117Z" fill="#FA0F00"/>
<path d="M26.8394 13.0029L35.4761 32.6206H29.3493L24 20.4796L20.7465 27.8804H24.5662L26.6535 32.6206H12.524L21.1606 13.0029H26.8394Z" fill="white"/>
</g>
<defs>
<clipPath id="clip0_1694_678">
<rect width="36" height="36" fill="white" transform="translate(6 5)"/>
</clipPath>
</defs>
</svg>
