<svg id="cc361ce5-1d9e-47d7-8176-a90b54f39f3e" data-name="Icons" xmlns="http://www.w3.org/2000/svg" viewBox="0 0 108 72">
  <defs>
    <style>
      .\30 941072e-dfd8-4f71-b9fe-37d85e26415c {
        fill: #00bcd4;
      }

      .c4f3b22a-7b1d-4d54-bb9a-a6c635533d3a {
        fill: #333;
      }
    </style>
  </defs>
  <title>mattermark</title>
  <g>
    <g>
      <path class="0941072e-dfd8-4f71-b9fe-37d85e26415c" d="M15.26,28.23l3.94,3.95,3.95-4,4.52,4.59-1.85,1.79,3.94,3.87L24.13,44,20.3,40.17l-4,4-4.08-4.13L8.16,44.13l-4.41-4.4Zm3.37,4.46-3.45-3.52L4.66,39.69l3.48,3.49Zm8.13,0-3.49-3.5L12.72,39.7l3.5,3.5Zm-1.33,2.53-4.57,4.57,3.33,3.33,4.57-4.54Z"/>
      <path class="c4f3b22a-7b1d-4d54-bb9a-a6c635533d3a" d="M41.94,40.45h-.57V38.64c0-.69,0-1.39,0-2.08a1.75,1.75,0,0,0-1.76-1.83,2,2,0,0,0-1.93,1.91c-.06,1.07,0,2.14,0,3.2v.61l-.56,0V34.34h.66s0,.55,0,.87c1.54-1.45,3-1.32,4.07.16a3.21,3.21,0,0,1,1.6-1.08,2.23,2.23,0,0,1,3,1.87c.12,1.41,0,2.82,0,4.28h-.67V37.5a10.47,10.47,0,0,0,0-1.12,1.7,1.7,0,0,0-1.44-1.62,1.87,1.87,0,0,0-2,1.16A3.49,3.49,0,0,0,42,37.16C41.92,38.24,41.94,39.32,41.94,40.45Z"/>
      <path class="c4f3b22a-7b1d-4d54-bb9a-a6c635533d3a" d="M81.55,35.47a2.52,2.52,0,0,1,2.24-1.28,2.18,2.18,0,0,1,2.27,2.09c.07,1.37,0,2.79,0,4.2-.16,0-.31,0-.48,0s-.06.08-.06,0c0-1,0-2.3,0-3.32a5.31,5.31,0,0,0,0-.69,1.74,1.74,0,0,0-1.85-1.74,1.9,1.9,0,0,0-1.84,1.86c0,1.08,0,2.17,0,3.26v.63h-.6v-.6c0-1.09,0-2.18,0-3.26a1.75,1.75,0,0,0-1.54-1.88,1.94,1.94,0,0,0-2.06,1.43,4.08,4.08,0,0,0-.13,1c0,1.06,0,2.17,0,3.26h-.54V34.39h.51c0,.34,0,.57,0,.89C79,33.76,80.41,33.81,81.55,35.47Z"/>
      <path class="c4f3b22a-7b1d-4d54-bb9a-a6c635533d3a" d="M70.25,37.62H65.13a2.46,2.46,0,0,0,1.33,2.16,2.63,2.63,0,0,0,3.17-.66l.37.31a3.14,3.14,0,0,1-3.66.94A3.24,3.24,0,0,1,64.52,37a2.91,2.91,0,0,1,3.62-2.66,2.75,2.75,0,0,1,2,2.34C70.2,36.92,70.21,37.22,70.25,37.62Zm-.72-.56a2.19,2.19,0,0,0-2.14-2.33,2.28,2.28,0,0,0-2.21,2.33h4A2.16,2.16,0,0,0,69.53,37.06Z"/>
      <path class="c4f3b22a-7b1d-4d54-bb9a-a6c635533d3a" d="M52.68,36.89c.06-1.32-.58-2.07-1.81-2.06a16,16,0,0,0-2.15.3l-.15-.31a.42.42,0,0,1,.13-.11,4.27,4.27,0,0,1,3-.33,1.87,1.87,0,0,1,1.52,1.73c.09,1.43,0,2.87,0,4.33h-.5l0-.87a3.83,3.83,0,0,0-.33.26,2.88,2.88,0,0,1-3.13.55,1.82,1.82,0,0,1,0-3.45,5.26,5.26,0,0,1,2.89-.13Zm0,.58a5.59,5.59,0,0,0-3.06-.11,1.26,1.26,0,0,0-1,1.24,1.33,1.33,0,0,0,1,1.32A2.23,2.23,0,0,0,52.68,37.47Z"/>
      <path class="c4f3b22a-7b1d-4d54-bb9a-a6c635533d3a" d="M102.22,37.49c-.52.49-1.43,1.48-1.43,1.48v1.47h-.64v-8.7h.64v6.54s3.64-3.86,3.73-3.91a1.4,1.4,0,0,1,.8,0c-.88.84-1.77,1.9-2.67,2.77l2.68,3.3h-.63S102.94,38.37,102.22,37.49Z"/>
      <path class="c4f3b22a-7b1d-4d54-bb9a-a6c635533d3a" d="M61.14,34.3h2.21v.54H61.18c0,1.45,0,2.87,0,4.25,0,.62.55,1,1.27.92a8.78,8.78,0,0,0,.9-.14v.52l-.45.11a1.71,1.71,0,0,1-2.35-1.73c0-1.08,0-2.17,0-3.25v-.68c-.31,0-.57,0-.85,0V34.3c.27,0,.52,0,.84,0V32.39h.59Z"/>
      <path class="c4f3b22a-7b1d-4d54-bb9a-a6c635533d3a" d="M55.72,34.84c-.31,0-.82,0-.82,0v-.56h.8V32.41h.6v1.87h2.14v.56H56.3V36c0,.84,0,1.68,0,2.51,0,1.27.59,1.74,1.81,1.44l.33-.09v.53s-.26.1-.39.13a1.73,1.73,0,0,1-2.32-1.82C55.71,37.45,55.72,36.13,55.72,34.84Z"/>
      <path class="c4f3b22a-7b1d-4d54-bb9a-a6c635533d3a" d="M75.26,34.26v.62a2.49,2.49,0,0,0-2.44,1.75,5.57,5.57,0,0,0-.23,1.47c0,.76,0,1.57,0,2.38-.2,0-.36,0-.57,0V34.39h.58s0,1.06,0,1.57A3,3,0,0,1,75.26,34.26Z"/>
      <path class="c4f3b22a-7b1d-4d54-bb9a-a6c635533d3a" d="M95.86,35.92c1.08-1.35,1.61-1.67,2.67-1.64a2.74,2.74,0,0,1,0,.58c-.23,0-.46.06-.68.11a2.64,2.64,0,0,0-2,2.35c-.07.82,0,1.64-.06,2.46v.7c-.21,0-.36,0-.55,0v-6.1h.55Z"/>
    </g>
    <path class="c4f3b22a-7b1d-4d54-bb9a-a6c635533d3a" d="M52.68,36.89c.06-1.32-.58-2.07-1.81-2.06a16,16,0,0,0-2.15.3l-.15-.31a.42.42,0,0,1,.13-.11,4.27,4.27,0,0,1,3-.33,1.87,1.87,0,0,1,1.52,1.73c.09,1.43,0,2.87,0,4.33h-.5l0-.87a3.83,3.83,0,0,0-.33.26,2.88,2.88,0,0,1-3.13.55,1.82,1.82,0,0,1,0-3.45,5.26,5.26,0,0,1,2.89-.13Zm0,.58a5.59,5.59,0,0,0-3.06-.11,1.26,1.26,0,0,0-1,1.24,1.33,1.33,0,0,0,1,1.32A2.23,2.23,0,0,0,52.68,37.47Z"/>
    <path class="c4f3b22a-7b1d-4d54-bb9a-a6c635533d3a" d="M92.54,36.92c.07-1.33-.45-2.07-1.69-2.06a15.78,15.78,0,0,0-2.14.31l-.16-.31a.58.58,0,0,1,.13-.11,4.3,4.3,0,0,1,3-.33,1.88,1.88,0,0,1,1.52,1.72c.08,1.44,0,2.88,0,4.34h-.59c0-.28,0-.54,0-.88-.13.11-.2.19-.29.27a2.87,2.87,0,0,1-3.13.54A1.77,1.77,0,0,1,88,38.72,1.8,1.8,0,0,1,89.22,37a5.26,5.26,0,0,1,2.89-.13Zm0,.56a5.26,5.26,0,0,0-3-.08,1.27,1.27,0,0,0-1,1.24,1.33,1.33,0,0,0,1,1.31A2.18,2.18,0,0,0,92.57,37.48Z"/>
  </g>
</svg>
