<svg id="Layer_1" data-name="Layer 1" xmlns="http://www.w3.org/2000/svg" viewBox="0 0 48 48"><title>messagebird</title><path d="M41.38,13.63a5.15,5.15,0,0,0-4.16,2.14L31,24.56a1.29,1.29,0,0,1-1,.54,1.27,1.27,0,0,1-1.26-1.27,1.22,1.22,0,0,1,.2-.69l5.3-7.94a5.11,5.11,0,0,0-4.24-7.93H3.25v5.09H26.09a2.56,2.56,0,0,1-2.56,2.56H3.25A12.84,12.84,0,0,0,4.31,20H21a2.56,2.56,0,0,1-2.55,2.56H5.81A12.69,12.69,0,0,0,16,27.66h6.28a1.27,1.27,0,1,1,0,2.53H16L7.46,42.93H22.89A16,16,0,0,0,38,32l2.86-8.7a16.09,16.09,0,0,1,4.86-7.19A5.08,5.08,0,0,0,41.38,13.63Zm0,3.49a1,1,0,1,1,1-1A1,1,0,0,1,41.38,17.12Z" style="fill:#2481d7"/></svg>