<svg xmlns="http://www.w3.org/2000/svg" viewBox="0 0 48 48"><title>mfexpense</title><path d="M21,36.74H12.69c-6.36,0-9.3-4-9.4-8a9,9,0,0,1,2.52-6.43,6.92,6.92,0,0,1,3.72-2,7.07,7.07,0,0,1,3.37-5,7.37,7.37,0,0,1,6.41-.57,9.67,9.67,0,0,1,9.22-3.53A9.94,9.94,0,0,1,35.7,16a8.2,8.2,0,0,1,6.44,2.18A8,8,0,0,1,44.71,24H42.42a5.82,5.82,0,0,0-7-5.64l-.91.27-.43-.83a7.84,7.84,0,0,0-5.86-4.41c-3.28-.4-6.1.81-7.52,3.24l-.53.91-.94-.45a5.37,5.37,0,0,0-5.18.09,4.45,4.45,0,0,0-2.28,4l.14,1.28H10.61a4.47,4.47,0,0,0-3.17,1.43,6.68,6.68,0,0,0-1.86,4.77c.06,2.68,2,5.81,7.11,5.81H21Z" style="fill:#3b8ecd"/><polygon points="33.69 26.82 33.69 26.82 29.81 31.57 25.84 26.82 25.84 26.82 25.84 26.82 25.82 26.8 25.8 26.82 23.74 26.82 23.74 36.93 25.84 36.93 25.84 30.46 29.48 34.95 29.98 34.95 29.98 34.88 31.17 33.41 31.27 33.31 31.26 33.3 33.69 30.29 33.69 36.93 35.8 36.93 35.8 26.82 33.69 26.82" style="fill:#3b8ecd"/><polygon points="44.65 28.87 44.65 26.8 39.82 26.8 39.06 26.8 37.72 26.8 37.72 36.71 39.82 36.71 39.82 33.95 44.65 33.95 44.65 31.88 39.82 31.88 39.82 28.87 44.65 28.87" style="fill:#3b8ecd"/></svg>