<svg width="48" height="48" viewBox="0 0 48 48" fill="none" xmlns="http://www.w3.org/2000/svg">
<g clip-path="url(#clip0_1689_4090)">
<path d="M16.9757 41H9.42432C9.21101 41 8.99979 40.958 8.80272 40.8764C8.60565 40.7947 8.42659 40.6751 8.27576 40.5242C8.12492 40.3734 8.00528 40.1943 7.92365 39.9973C7.84202 39.8002 7.8 39.589 7.8 39.3757V22.46L13.5 20.78L18.6 22.46V39.3757C18.6 39.589 18.558 39.8002 18.4764 39.9973C18.3947 40.1943 18.2751 40.3734 18.1243 40.5242C17.9734 40.6751 17.7944 40.7947 17.5973 40.8764C17.4002 40.958 17.189 41 16.9757 41Z" fill="#185C37"/>
<path d="M28.68 5H38.5224C38.9673 5 39.394 5.17675 39.7086 5.49136C40.0233 5.80597 40.2 6.23267 40.2 6.6776V26.3624C40.2 26.8073 40.0233 27.234 39.7086 27.5486C39.394 27.8633 38.9673 28.04 38.5224 28.04H28.68L26.76 15.74L28.68 5Z" fill="#33C481"/>
<path d="M7.8 6.6776V23H18.6V34.52H27.7224C28.1673 34.52 28.594 34.3433 28.9086 34.0286C29.2233 33.714 29.4 33.2873 29.4 32.8424V5H9.4776C9.03268 5 8.60597 5.17675 8.29136 5.49136C7.97675 5.80597 7.8 6.23267 7.8 6.6776Z" fill="#107C41"/>
<path d="M18.6 5H29.4V17.24H18.6V5Z" fill="#21A366"/>
</g>
<defs>
<clipPath id="clip0_1689_4090">
<rect width="32.4" height="36" fill="white" transform="translate(7.8 5)"/>
</clipPath>
</defs>
</svg>
