<svg id="CURRENT" xmlns="http://www.w3.org/2000/svg" viewBox="0 0 48 48">
  <title>moneyforward</title>
  <g>
    <path d="M32.67,27.78a2.75,2.75,0,0,1-4.59.16L25,23.59l-2.28,6.72a2.74,2.74,0,0,1-4.75.82l-2-2.56-1.43,4.87a2.74,2.74,0,0,1-2.63,2,3,3,0,0,1-.77-.11A2.76,2.76,0,0,1,9.27,31.9l2.92-10A2.71,2.71,0,0,1,14.29,20,2.75,2.75,0,0,1,17,21l2.19,2.78,2.4-7.06A2.74,2.74,0,0,1,26.4,16l3.75,5.33,4.58-7.56a2.75,2.75,0,0,1,.58-.68,17.74,17.74,0,1,0,3,5.33Z" style="fill: #f4810b"/>
    <circle cx="40.71" cy="9.35" r="3.66" style="fill: #f4810b"/>
  </g>
</svg>
