<svg id="Layer_1" data-name="Layer 1" xmlns="http://www.w3.org/2000/svg" viewBox="0 0 48 48"><defs><style>.cls-1{fill:#fff;}.cls-2{fill:#394257;}.cls-3{fill:#e16053;}</style></defs><title>moosend</title><path class="cls-1" d="M37.13,29A4.13,4.13,0,0,1,33,33.1H15.38A4.13,4.13,0,0,1,11.25,29V11.8a4.13,4.13,0,0,1,4.13-4.13H33a4.13,4.13,0,0,1,4.13,4.13V29Z"/><path class="cls-2" d="M15.79,7s1.74-5.66,3.89.06Z"/><path class="cls-2" d="M28.58,7s1.74-5.66,3.89.06Z"/><path class="cls-1" d="M32,38.1a.67.67,0,0,1-.43.83l-12,3.8a.68.68,0,0,1-.83-.43l-2.5-7.87a.67.67,0,0,1,.43-.83l12-3.8a.66.66,0,0,1,.83.43Z"/><path class="cls-2" d="M19.5,43.48a1.24,1.24,0,0,1-1.19-.87l-2.5-7.87a1.25,1.25,0,0,1,.81-1.57l12-3.8a1.28,1.28,0,0,1,1.57.82l2.5,7.86a1.26,1.26,0,0,1-.82,1.57l-11.95,3.8A1.26,1.26,0,0,1,19.5,43.48Zm9.45-13L17,34.3a.07.07,0,0,0-.05.09l2.5,7.86a.09.09,0,0,0,.09,0l12-3.81a.07.07,0,0,0,0-.08L29,30.54A.08.08,0,0,0,29,30.49Z"/><path class="cls-1" d="M16.72,33.77a.65.65,0,0,0-.35.79l2.5,7.87a.69.69,0,0,0,.21.31l3.25-6.32Z"/><path class="cls-2" d="M19.44,43.33l-.73-.13a1.25,1.25,0,0,1-.4-.59l-2.5-7.87a1.25,1.25,0,0,1,.65-1.5l.26-.12,6.41,3ZM17,34.55l2.15,6.78,2.38-4.63Z"/><path class="cls-1" d="M32.07,38.66a.63.63,0,0,0,0-.43L29.6,30.41a.62.62,0,0,0-.82-.38l-.07,0-3.17,5.31Z"/><path class="cls-2" d="M32.05,39.31l-7.34-3.7,3.6-6.05.29-.1a1.23,1.23,0,0,1,1.56.77l2.49,7.82a1.28,1.28,0,0,1,0,.82Zm-5.68-4.19,4.89,2.47-2.21-7Z"/><path class="cls-1" d="M29.23,30a.71.71,0,0,0-.48,0L16.8,33.74a.64.64,0,0,0-.4.35l8.23,4.16Z"/><path class="cls-2" d="M24.87,39l-9-4.57,0-.61a1.28,1.28,0,0,1,.76-.68l12-3.8a1.25,1.25,0,0,1,.89.06l.58.26Zm-7.19-5,6.71,3.38,3.71-6.68Z"/><path class="cls-2" d="M24.07,22.66c-6,0-11.18,1.58-13.76,4,0,3.19,2.52,6.57,5.72,6.57H32.11c3.2,0,5.66-3.44,5.67-6.63C35.19,24.18,30.1,22.66,24.07,22.66Z"/><path class="cls-2" d="M35.21,7.58,45,13.25s-4.36,3.49-7.86,1c-.19-.13.11-4.1-.08-4.28Z"/><path class="cls-2" d="M12.79,7.58,3,13.25s4.36,3.49,7.86,1c.19-.13-.11-4.1.08-4.28Z"/><path class="cls-3" d="M24.07,23.84c-6,0-11,1.65-13.59,3.95A5.47,5.47,0,0,0,16,33.27H32.11A5.4,5.4,0,0,0,37.7,27.9C35.12,25.6,30.1,23.84,24.07,23.84Z"/><path class="cls-2" d="M23,18c-.17.68-.65,1.14-1.07,1s-.62-.74-.45-1.42.65-1.14,1.07-1S23.13,17.35,23,18Z"/><path class="cls-2" d="M26.9,17.62c.2.68,0,1.32-.4,1.44s-.91-.33-1.11-1,0-1.32.41-1.44S26.71,17,26.9,17.62Z"/><path class="cls-2" d="M19.76,28.81c.57,1,.54,2-.06,2.39s-1.55-.15-2.12-1.11-.54-2.05.06-2.4S19.19,27.84,19.76,28.81Z"/><path class="cls-2" d="M29.06,28.86c-.57,1-.54,2.05.06,2.4s1.55-.15,2.12-1.12.54-2-.07-2.39S29.63,27.89,29.06,28.86Z"/><path class="cls-2" d="M37.77,12.38A5.8,5.8,0,0,0,32,6.58H16a5.77,5.77,0,0,0-5.82,5.75V28.42A5.91,5.91,0,0,0,16,34.33H32.11a5.85,5.85,0,0,0,5.8-5.85Zm-1,16.42a4.31,4.31,0,0,1-4.32,4.32H15.74a4.32,4.32,0,0,1-4.32-4.32V12.11a4.32,4.32,0,0,1,4.32-4.32H32.43a4.31,4.31,0,0,1,4.32,4.32Z"/></svg>