<svg width="48" height="48" viewBox="0 0 48 48" fill="none" xmlns="http://www.w3.org/2000/svg">
<g clip-path="url(#clip0_1684_2957)">
<path d="M31.1104 19.0581H40.4093C41.2878 19.0581 42 19.7703 42 20.6488V29.1189C42 32.3477 39.3826 34.9651 36.1538 34.9651H36.1261C32.8973 34.9656 30.2795 32.3485 30.2791 29.1197C30.2791 29.1194 30.2791 29.1192 30.2791 29.1189V19.8895C30.2791 19.4303 30.6513 19.0581 31.1104 19.0581Z" fill="#5059C9"/>
<path d="M37.3954 17.3837C39.4761 17.3837 41.1628 15.697 41.1628 13.6163C41.1628 11.5356 39.4761 9.84883 37.3954 9.84883C35.3147 9.84883 33.6279 11.5356 33.6279 13.6163C33.6279 15.697 35.3147 17.3837 37.3954 17.3837Z" fill="#5059C9"/>
<path d="M25.6744 17.3837C28.6799 17.3837 31.1163 14.9473 31.1163 11.9419C31.1163 8.93641 28.6799 6.5 25.6744 6.5C22.669 6.5 20.2326 8.93641 20.2326 11.9419C20.2326 14.9473 22.669 17.3837 25.6744 17.3837Z" fill="#7B83EB"/>
<path d="M32.9305 19.0581H17.5811C16.713 19.0796 16.0264 19.8 16.0465 20.6681V30.3287C15.9253 35.538 20.0466 39.8609 25.2558 39.9884C30.465 39.8609 34.5863 35.538 34.4651 30.3287V20.6681C34.4852 19.8 33.7986 19.0796 32.9305 19.0581Z" fill="#7B83EB"/>
<path opacity="0.1" d="M26.093 19.0581V32.5958C26.0889 33.2166 25.7127 33.7743 25.1386 34.0107C24.9558 34.088 24.7594 34.1279 24.5609 34.1279H16.7833C16.6744 33.8516 16.574 33.5753 16.4902 33.2907C16.1972 32.33 16.0476 31.3314 16.0465 30.327V20.6656C16.0264 19.7989 16.7119 19.0796 17.5786 19.0581H26.093Z" fill="black"/>
<path opacity="0.2" d="M25.2558 19.0581V33.433C25.2558 33.6315 25.2159 33.8279 25.1386 34.0107C24.9022 34.5847 24.3445 34.961 23.7237 34.9651H17.1767C17.0344 34.6888 16.9005 34.4126 16.7833 34.1279C16.666 33.8433 16.574 33.5753 16.4902 33.2907C16.1972 32.33 16.0476 31.3314 16.0465 30.327V20.6656C16.0264 19.7989 16.7119 19.0796 17.5786 19.0581H25.2558Z" fill="black"/>
<path opacity="0.2" d="M25.2558 19.0581V31.7586C25.2494 32.6021 24.5672 33.2843 23.7237 33.2907H16.4902C16.1972 32.33 16.0476 31.3314 16.0465 30.327V20.6656C16.0264 19.7989 16.7119 19.0796 17.5786 19.0581H25.2558Z" fill="black"/>
<path opacity="0.2" d="M24.4186 19.0581V31.7586C24.4122 32.6021 23.73 33.2843 22.8865 33.2907H16.4902C16.1972 32.33 16.0476 31.3314 16.0465 30.327V20.6656C16.0264 19.7989 16.7119 19.0796 17.5786 19.0581H24.4186Z" fill="black"/>
<path opacity="0.1" d="M26.093 14.7298V17.367C25.9507 17.3753 25.8167 17.3837 25.6744 17.3837C25.5321 17.3837 25.3981 17.3754 25.2558 17.367C24.9732 17.3482 24.6929 17.3034 24.4186 17.233C22.7232 16.8315 21.3226 15.6426 20.6512 14.0349C20.5356 13.7649 20.4459 13.4846 20.3832 13.1977H24.5609C25.4057 13.2009 26.0898 13.8849 26.093 14.7298Z" fill="black"/>
<path opacity="0.2" d="M25.2558 15.567V17.367C24.9732 17.3482 24.693 17.3034 24.4186 17.233C22.7233 16.8315 21.3226 15.6426 20.6512 14.0349H23.7237C24.5685 14.0381 25.2526 14.7222 25.2558 15.567Z" fill="black"/>
<path opacity="0.2" d="M25.2558 15.567V17.367C24.9732 17.3482 24.693 17.3034 24.4186 17.233C22.7233 16.8315 21.3226 15.6426 20.6512 14.0349H23.7237C24.5685 14.0381 25.2526 14.7222 25.2558 15.567Z" fill="black"/>
<path opacity="0.2" d="M24.4186 15.567V17.233C22.7232 16.8315 21.3226 15.6425 20.6512 14.0349H22.8865C23.7313 14.0381 24.4154 14.7222 24.4186 15.567Z" fill="black"/>
<path d="M7.5346 14.0349H22.884C23.7315 14.0349 24.4186 14.722 24.4186 15.5695V30.9189C24.4186 31.7664 23.7315 32.4535 22.884 32.4535H7.5346C6.68706 32.4535 6 31.7664 6 30.9189V15.5695C6 14.722 6.68707 14.0349 7.5346 14.0349Z" fill="url(#paint0_linear_1684_2957)"/>
<path d="M19.248 19.8769H16.1796V28.2323H14.2247V19.8769H11.1706V18.2561H19.248V19.8769Z" fill="white"/>
</g>
<defs>
<linearGradient id="paint0_linear_1684_2957" x1="9.19969" y1="12.8358" x2="21.2189" y2="33.6526" gradientUnits="userSpaceOnUse">
<stop stop-color="#5A62C3"/>
<stop offset="0.5" stop-color="#4D55BD"/>
<stop offset="1" stop-color="#3940AB"/>
</linearGradient>
<clipPath id="clip0_1684_2957">
<rect width="36" height="33.4884" fill="white" transform="translate(6 6.5)"/>
</clipPath>
</defs>
</svg>
