<svg id="0802cf16-955a-4ecf-b31e-430c9ee56db3" data-name="CURRENT" xmlns="http://www.w3.org/2000/svg" xmlns:xlink="http://www.w3.org/1999/xlink" viewBox="0 0 48 48"><defs><mask id="120469ab-441d-49c7-ad15-f3e8c20550c1" x="16.26" y="7.82" width="26.24" height="25.66" maskUnits="userSpaceOnUse"><g id="77fb7d02-d143-4fb5-9dc4-a14069dc4014" data-name="mask-2"><polygon id="18b06062-8399-414b-a0c1-a1646a7f2c70" data-name="path-1" points="16.26 7.82 42.5 7.82 42.5 33.48 16.26 33.48 16.26 7.82" style="fill:#fff"/></g></mask></defs><title>oanda</title><path id="2f1e26a4-6dfd-487e-bf6c-466d8f770829" data-name="Shape" d="M20.53,40.21a17.45,17.45,0,0,0,14.06-1.87L20.53,21.44Z" style="fill:#b8d433"/><g id="a60c4597-b714-4813-b2fb-f5583b0b2f87" data-name="Clipped"><g style="mask:url(#120469ab-441d-49c7-ad15-f3e8c20550c1)"><path id="628e85cb-3aa4-48d9-af4d-3a35d1e551f2" data-name="Shape" d="M20.53,10.46l19.15,23a16.1,16.1,0,0,0,2.82-9.11,16.8,16.8,0,0,0-17-16.55,17.29,17.29,0,0,0-9.2,2.63h4.27Z" style="fill:#b8d433"/></g></g><path id="41c4b6f0-6ff7-4602-90c2-0a4abd72d743" data-name="Shape" d="M8.42,24.37a16.29,16.29,0,0,0,4.86,11.57V12.8A16.27,16.27,0,0,0,8.42,24.37Z" style="fill:#b8d433"/></svg>