<svg id="Layer_1" data-name="Layer 1" xmlns="http://www.w3.org/2000/svg" xmlns:xlink="http://www.w3.org/1999/xlink" viewBox="0 0 48 48"><defs><style>.cls-1{fill:url(#linear-gradient);}.cls-2{fill:url(#linear-gradient-2);}.cls-3{fill:url(#linear-gradient-3);}.cls-4{fill:#fff;}.cls-5{fill:#00a0ff;}</style><linearGradient id="linear-gradient" x1="6.53" y1="13.75" x2="38.98" y2="13.75" gradientTransform="matrix(1, 0, 0, -1, 0, 48)" gradientUnits="userSpaceOnUse"><stop offset="0" stop-color="#77787b"/><stop offset="0.39" stop-color="#898b8e"/><stop offset="0.63" stop-color="#87898c"/><stop offset="0.86" stop-color="#87898b"/><stop offset="1" stop-color="#77787b"/></linearGradient><linearGradient id="linear-gradient-2" x1="6.53" y1="27.25" x2="38.98" y2="27.25" xlink:href="#linear-gradient"/><linearGradient id="linear-gradient-3" x1="6.53" y1="40.75" x2="38.98" y2="40.75" xlink:href="#linear-gradient"/></defs><title>Artboard 1</title><rect class="cls-1" x="6.53" y="28.75" width="32.45" height="11"/><rect class="cls-2" x="6.53" y="15.25" width="32.45" height="11"/><rect class="cls-3" x="6.53" y="1.75" width="32.45" height="11"/><path class="cls-4" d="M17.38,20.75c0,1.66-.3,3.42-2.11,3.42s-2.12-1.76-2.12-3.42.3-3.42,2.12-3.42S17.38,19.09,17.38,20.75Zm-3.41,0c0,1.52.14,2.75,1.27,2.75s1.27-1.23,1.27-2.75S16.36,18,15.24,18,14,19.23,14,20.75Z"/><path class="cls-4" d="M18.49,17.46h1.7c2,0,2.31,1.48,2.31,3.29S22.08,24,20.28,24H18.49Zm.81,5.91h.85c1.4,0,1.56-1.43,1.56-2.61s-.08-2.63-1.56-2.63H19.3Z"/><path class="cls-4" d="M23.52,17.46h2a1.54,1.54,0,0,1,1.71,1.33,2.41,2.41,0,0,1,0,.38,1.43,1.43,0,0,1-1,1.38h0a1.49,1.49,0,0,1,1.17,1.62c0,1.33-.75,1.88-2.13,1.88H23.52Zm.86,2.84h.92a1,1,0,0,0,1.12-.87.88.88,0,0,0,0-.23c0-.68-.34-1.07-1.14-1.07h-.94Zm0,3.07h1.1a1.09,1.09,0,0,0,1.16-1,1.48,1.48,0,0,0,0-.21,1.16,1.16,0,0,0-1.05-1.26H24.34Z"/><path class="cls-4" d="M32.36,21.78c-.07,1.24-.55,2.39-2,2.39-1.86,0-2.11-1.76-2.11-3.42s.3-3.42,2.11-3.42c1.35,0,1.92.76,2,2.05h-.85c0-.75-.26-1.38-1.1-1.38-1.12,0-1.27,1.23-1.27,2.75s.15,2.75,1.27,2.75,1.12-.91,1.15-1.71Z"/><rect class="cls-5" x="25" y="36.5" width="21.75" height="9.83" rx="3.2" ry="3.2"/><path class="cls-4" d="M28.11,38.28a6.94,6.94,0,0,1,1.35-.12,2.33,2.33,0,0,1,1.56.41,1.19,1.19,0,0,1,.47,1,1.35,1.35,0,0,1-1,1.25h0a1.48,1.48,0,0,1,1.18,1.43,1.55,1.55,0,0,1-.49,1.15,2.87,2.87,0,0,1-2,.53,9.36,9.36,0,0,1-1.14-.07Zm.74,2.33h.67c.77,0,1.23-.41,1.23-1s-.51-.93-1.25-.93a3.61,3.61,0,0,0-.65.05Zm0,2.73a4.71,4.71,0,0,0,.61,0c.77,0,1.47-.28,1.47-1.11s-.67-1.09-1.47-1.09h-.61Z"/><path class="cls-4" d="M35.64,41.23H33.43v2.05H35.9v.62H32.69V38.2h3.08v.62H33.43v1.8h2.21Z"/><path class="cls-4" d="M38.07,38.82H36.33V38.2h4.22v.62H38.81V43.9h-.74Z"/><path class="cls-4" d="M41.47,42.1l-.59,1.8h-.76l1.94-5.7H43l1.94,5.7H44.1l-.61-1.8Zm1.87-.57-.56-1.64c-.12-.37-.21-.71-.29-1h0c-.08.34-.18.68-.29,1l-.55,1.65Z"/></svg>