<svg width="48" height="48" viewBox="0 0 48 48" fill="none" xmlns="http://www.w3.org/2000/svg">
<g clip-path="url(#clip0_1681_2243)">
<path d="M19.7277 17.723L19.7281 17.7217L27.2855 22.2319L31.7888 20.3438C32.7038 19.9496 33.6906 19.7475 34.6875 19.7485C34.8536 19.7485 35.0178 19.756 35.1811 19.7668C34.6397 17.6634 33.4967 15.762 31.8912 14.2936C30.2856 12.8252 28.2865 11.853 26.1368 11.4952C23.9871 11.1374 21.7794 11.4094 19.7819 12.2782C17.7844 13.1469 16.0832 14.5749 14.885 16.3888C14.9235 16.3883 14.9614 16.3859 15 16.3859C16.6702 16.3836 18.3078 16.8468 19.7277 17.723Z" fill="#0364B8"/>
<path d="M19.7281 17.7218L19.7278 17.723C18.3078 16.8468 16.6702 16.3836 15 16.3859C14.9614 16.3859 14.9234 16.3883 14.885 16.3888C13.2503 16.4089 11.6519 16.8725 10.2618 17.7298C8.87165 18.587 7.74223 19.8054 6.99492 21.2541C6.2476 22.7028 5.91064 24.3271 6.02024 25.9522C6.12984 27.5774 6.68186 29.1421 7.61698 30.4782L14.2815 27.684L17.2441 26.4419L23.8406 23.6762L27.2855 22.2319L19.7281 17.7218Z" fill="#0078D4"/>
<path d="M35.1811 19.7668C35.0178 19.756 34.8536 19.7485 34.6875 19.7485C33.6906 19.7475 32.704 19.9504 31.789 20.3445L27.2855 22.2319L28.5913 23.0112L32.8719 25.5657L34.7395 26.6803L41.1253 30.4913C41.7056 29.4181 42.0063 28.217 41.9999 26.998C41.9935 25.779 41.6802 24.5811 41.0888 23.514C40.4973 22.4468 39.6466 21.5446 38.6144 20.89C37.5823 20.2353 36.4019 19.8492 35.1811 19.7668Z" fill="#1490DF"/>
<path d="M34.7395 26.6803L32.8719 25.5657L28.5913 23.0112L27.2855 22.2319L23.8406 23.6762L17.2441 26.4419L14.2815 27.684L7.61699 30.4782C8.44517 31.6645 9.54923 32.6336 10.8349 33.3025C12.1205 33.9714 13.5496 34.3204 15 34.3197H34.6875C36.0075 34.3201 37.303 33.9644 38.4365 33.2903C39.57 32.6163 40.4991 31.649 41.1253 30.4913L34.7395 26.6803Z" fill="#28A8EA"/>
</g>
<defs>
<clipPath id="clip0_1681_2243">
<rect width="36" height="22.9776" fill="white" transform="translate(6 11.342)"/>
</clipPath>
</defs>
</svg>
