<svg id="Layer_1" data-name="Layer 1" xmlns="http://www.w3.org/2000/svg" viewBox="0 0 48 48"><defs><style>.cls-1{fill:#1285ff;}.cls-2{fill:#fff;}</style></defs><title>ontraport</title><rect class="cls-1" x="4.25" y="4.25" width="39.5" height="39.5"/><path id="Shape" class="cls-2" d="M40.2,31.38v-8c0-4.3-2.14-6.73-6.09-6.73a6,6,0,0,0-5.28,2.57h-.06V18h-2V30.26c0,.12,0,1,0,1.12h2c0-.1,0-1,0-1.12V24c0-3.4,1.91-5.55,4.9-5.55s4.48,1.7,4.48,5v8"/><path id="Shape-2" data-name="Shape" class="cls-2" d="M15.23,16.62A7.05,7.05,0,0,1,22.68,24a7.06,7.06,0,0,1-7.45,7.38A7.06,7.06,0,0,1,7.8,24,7,7,0,0,1,15.23,16.62Zm0,12.93A5.19,5.19,0,0,0,20.62,24a5.19,5.19,0,0,0-5.39-5.55A5.19,5.19,0,0,0,9.86,24,5.19,5.19,0,0,0,15.23,29.55Z"/></svg>