<svg id="8d707d9f-488a-41bc-954d-f5021ee02d61" data-name="Icons" xmlns="http://www.w3.org/2000/svg" viewBox="0 0 108 72">
  <defs>
    <style>
      .f92c4a65-dd5d-450e-a914-233e0d4093f8 {
        fill: #0037ff;
      }
    </style>
  </defs>
  <title>optimizely</title>
  <g>
    <path d="M48.43,35.16c2.13,0,3.49,1.59,3.49,4s-1.44,4-3.49,4a2.82,2.82,0,0,1-2-.76c-.08-.08-.15,0-.15.07v3.49c0,.08,0,.08-.08.08H44.56c-.08,0-.08,0-.08-.08V35.39c0-.08,0-.08.08-.08H45.7a.28.28,0,0,1,.23.08l.38.53a.13.13,0,0,0,.22,0A2.44,2.44,0,0,1,48.43,35.16Zm-.3,1.67c-1.22,0-1.82,1-1.82,2.28,0,1.52.6,2.28,1.82,2.28s2-1,2-2.28S49.42,36.83,48.13,36.83Z"/>
    <path d="M98.15,44c-.68,1.82-.75,1.9-2.42,1.9H93.52c-.07,0-.07,0-.07-.08V44.42c0-.07,0-.07.07-.07h1.83c1,0,1-.31.6-1.52l-2.5-7.52c0-.07,0-.07.07-.07h1.75c.08,0,.08,0,.08.07l1.82,5.85c0,.07.15.07.15,0l1.82-5.85c0-.07.08-.07.08-.07H101c.08,0,.08,0,.08.07Z"/>
    <path d="M38.71,43.13c-3.18,0-4.78-2.28-4.78-5.46s1.6-5.47,4.78-5.47,4.79,2.28,4.79,5.47S41.9,43.13,38.71,43.13Zm2.89-5.46c0-2.36-1.06-3.8-2.89-3.8s-2.88,1.44-2.88,3.8,1.06,3.79,2.88,3.79S41.6,40,41.6,37.67Z"/>
    <path d="M52.15,36.91c-.08,0-.08-.08,0,0l-.08-1.52c0-.08,0-.08.08-.08h1.22c.07,0,.07,0,.07-.07V33.19c0-.08,0-.08.08-.08h1.67c.07,0,.07,0,.07.08v2.05c0,.07,0,.07.08.07h1.52c.07,0,.07,0,.07.08v1.44c0,.08,0,.08-.07.08H55.34c-.08,0-.08,0-.08.07v3.87c0,.31.23.46.53.46h1.07c.07,0,.07,0,.07.08V42.9c0,.08,0,.08-.07.08H55.72c-1.6,0-2.28-.61-2.28-2.13V37c0-.07,0-.07-.07-.07Z"/>
    <g>
      <path d="M58.15,34.1h0l-.08-1.75c0-.07,0-.07.08-.07h1.67c.07,0,.07,0,.07.07V34c0,.08,0,.08-.07.08Z"/>
      <path d="M58.15,43c-.08,0-.08-.08,0,0l-.08-7.59c0-.08,0-.08.08-.08h1.67c.07,0,.07,0,.07.08V42.9c0,.08,0,.08-.07.08Z"/>
    </g>
    <path d="M70.14,43h0l-.07-4.25c0-.91-.31-1.9-1.37-1.9s-1.37.84-1.37,1.9V42.9c0,.08,0,.08-.07.08H65.59c-.08,0-.08,0-.08-.08V38.73c0-.91-.3-1.9-1.37-1.9s-1.36.84-1.36,1.9V42.9c0,.08,0,.08-.08.08H61C61,43,61,43,61,42.9V35.39c0-.08,0-.08.07-.08h1.44c.08,0,.16,0,.16.08l.15.45c0,.08.07.08.15,0a3.12,3.12,0,0,1,1.82-.76,2.35,2.35,0,0,1,2,.92c0,.07.07.07.15,0a2.68,2.68,0,0,1,2-.92c1.9,0,3,1.07,3,3.42v4.25c0,.08,0,.08-.08.08H70.14Z"/>
    <path d="M73.1,34.1h0L73,32.35c0-.07,0-.07.07-.07h1.67c.08,0,.08,0,.08.07V34c0,.08,0,.08-.08.08Z"/>
    <path d="M73.1,43c-.07,0-.07-.08,0,0L73,35.39c0-.08,0-.08.07-.08h1.67c.08,0,.08,0,.08.08V42.9c0,.08,0,.08-.08.08Z"/>
    <path d="M76,43h0l-.08-1.52c0-.07,0-.07.08-.15l3.64-4.18s0-.15-.07-.15H76.14c-.08,0-.08,0-.08-.07V35.39c0-.08,0-.08.08-.08h5.69c.08,0,.08,0,.08.08V37l-3.64,4.25s0,.16.07.16h3.72c.08,0,.08,0,.08.07V43c0,.08,0,.08-.08.08H76Z"/>
    <path d="M89.65,39.79H84.41c-.07,0-.07,0-.07.08a1.66,1.66,0,0,0,1.82,1.52c.68,0,1.21-.16,1.44-.69a.29.29,0,0,1,.15-.07H89.5c.08,0,.08,0,.08.07a3.24,3.24,0,0,1-3.42,2.36,3.66,3.66,0,0,1-3.72-4,3.73,3.73,0,1,1,7.44,0,2,2,0,0,1-.23.68Zm-1.82-1.44h0c.08-.68-.46-1.52-1.67-1.52a1.66,1.66,0,0,0-1.82,1.44c0,.08,0,.08.07.08Z"/>
    <path d="M90.79,43c-.08,0-.08-.08,0,0l-.08-10.55c0-.08,0-.08.08-.08h1.67c.08,0,.08,0,.08.08V42.9c0,.08,0,.08-.08.08Z"/>
  </g>
  <g>
    <path class="f92c4a65-dd5d-450e-a914-233e0d4093f8" d="M14.57,26.51a8.4,8.4,0,0,0-2.27,4,8.58,8.58,0,0,0-4,2.28,8.93,8.93,0,0,0-2.66,6.3L12,32.73a13.45,13.45,0,0,0,.15,1.67L5.77,40.78a8.4,8.4,0,0,0,.91,2.66l4.1-4.1a3.5,3.5,0,0,1,1.14-2.89,3.57,3.57,0,0,1,.6-.53h0a9.91,9.91,0,0,0,2.05,3.26,8.21,8.21,0,0,0,3.27,2h0a2.09,2.09,0,0,1-.53.61A4,4,0,0,1,14.42,43l-4.1,4.1A8.65,8.65,0,0,0,13,48l6.38-6.38a11.65,11.65,0,0,0,1.67.15l-6.38,6.38a8.6,8.6,0,0,0,6.22-2.66,9.88,9.88,0,0,0,2.36-4,8.48,8.48,0,0,0,4-2.35,8.94,8.94,0,1,0-12.68-12.6Zm9.11,9a3.76,3.76,0,0,1-5.39,0,3.83,3.83,0,0,1,0-5.39,3.76,3.76,0,0,1,5.39,0A3.9,3.9,0,0,1,23.68,35.54Z"/>
    <path class="f92c4a65-dd5d-450e-a914-233e0d4093f8" d="M11.84,41.92a5.9,5.9,0,0,1-.76-1.07L7.36,44.57a8.34,8.34,0,0,0,.84,1,5.3,5.3,0,0,0,1,.84l3.72-3.72A10,10,0,0,1,11.84,41.92Z"/>
  </g>
</svg>
