<svg xmlns="http://www.w3.org/2000/svg" viewBox="0 0 48 48"><defs><style>.cls-1{fill:#ee3235;}</style></defs><g id="oraclehcm"><path class="cls-1" d="M13.24,31.72a8.7,8.7,0,0,1-2.76-17A8.69,8.69,0,0,1,19.18,7a8.79,8.79,0,0,1,6.75,3.12A8.54,8.54,0,0,1,27.36,10a8.3,8.3,0,0,1,7.35,4.43,8.66,8.66,0,0,1,.63,17.31,1.25,1.25,0,0,1-1.4-1.22h0a1.23,1.23,0,0,1,1.18-1.23,6.19,6.19,0,1,0-.31-12.38c-.25,0-.5,0-.74,0a1.23,1.23,0,0,1-1.29-.79,5.85,5.85,0,0,0-7-3.46,1.25,1.25,0,0,1-1.35-.49,6.31,6.31,0,0,0-5.23-2.73,6.19,6.19,0,0,0-6.27,6.09,1.38,1.38,0,0,1-1,1.36,6.24,6.24,0,0,0,1.31,12.37,1.24,1.24,0,1,1,0,2.47Z"/><circle class="cls-1" cx="18.41" cy="29.67" r="2.43"/><path class="cls-1" d="M21.28,32.29h-.43l-2,5.6h2.38a.85.85,0,0,0,.84-.84V33.13A.84.84,0,0,0,21.28,32.29Z"/><path class="cls-1" d="M16,32.29h-.43a.84.84,0,0,0-.84.84v3.92a.85.85,0,0,0,.84.84h2.38Z"/><polygon class="cls-1" points="18.41 36.53 17.34 33.37 18.41 32.51 19.49 33.37 18.41 36.53"/><circle class="cls-1" cx="29.97" cy="29.67" r="2.43"/><path class="cls-1" d="M32.84,32.29H32.4l-1.94,5.6h2.38a.85.85,0,0,0,.84-.84V33.13A.84.84,0,0,0,32.84,32.29Z"/><path class="cls-1" d="M27.54,32.29h-.43a.83.83,0,0,0-.84.84v3.92a.84.84,0,0,0,.84.84h2.38Z"/><polygon class="cls-1" points="29.97 36.53 28.89 33.37 29.97 32.51 31.05 33.37 29.97 36.53"/><circle class="cls-1" cx="24.04" cy="32.59" r="2.54"/><path class="cls-1" d="M27,35.32h-.45l-2,5.85H27a.88.88,0,0,0,.87-.88V36.2A.88.88,0,0,0,27,35.32Z"/><path class="cls-1" d="M21.5,35.32H21a.88.88,0,0,0-.87.88v4.09a.88.88,0,0,0,.87.88h2.49Z"/><polygon class="cls-1" points="24.04 39.75 22.91 36.46 24.04 35.56 25.16 36.46 24.04 39.75"/></g></svg>