<svg id="CURRENT" xmlns="http://www.w3.org/2000/svg" viewBox="0 0 48 48">
  <title>oracelsalescloud</title>
  <g>
    <path d="M36.51,31.83a1.38,1.38,0,1,1,0-2.76c3.35,0,4.87-3,4.88-5.72a5.35,5.35,0,0,0-2-4.11,6.1,6.1,0,0,0-4.77-1.43l-1.24.2-.32-1.22a5.18,5.18,0,0,0-2.62-3.25,5.58,5.58,0,0,0-4.31-.29l-1.09.31-.51-1A5.42,5.42,0,0,0,21.35,10a5.18,5.18,0,0,0-4,.26,5.77,5.77,0,0,0-2.94,6.28l.21,1.57H13c-1.54,0-5.31,1.9-5.31,5.42a5.66,5.66,0,0,0,5.85,5.58,1.38,1.38,0,1,1,0,2.76A8.46,8.46,0,0,1,5,23.49c0-4.46,3.78-7.21,6.61-8A8.3,8.3,0,0,1,16,7.79a8,8,0,0,1,6.15-.46,8.36,8.36,0,0,1,4.29,3,7.77,7.77,0,0,1,5.37.77A8.18,8.18,0,0,1,35.4,15a8.93,8.93,0,0,1,5.83,2.16,8.09,8.09,0,0,1,2.92,6.21C44.14,28.26,40.93,31.83,36.51,31.83Z" style="fill: #ec1c2e"/>
    <polygon points="14.8 37.5 17.05 39.65 20.4 36.3 22.43 37.97 25.3 34.67 26.61 36.26 30.72 31.39 32.2 32.81 32.2 28.87 28.37 29.46 29.48 30.45 27.58 32.6 25.57 30.74 22.3 34.26 20.09 32.15 14.8 37.5" style="fill: #ec1c2e"/>
  </g>
</svg>
