<svg id="506e9db3-965f-4e91-ba0c-9b3ef9faa683"   xmlns="http://www.w3.org/2000/svg" viewBox="0 0 48 48">
  <defs>
    <style>
      .\32 3eb5ef1-0622-4d2e-a6d8-aac94464dd4e {
        fill: #ed2a32;
      }

      .f43560a3-c667-4cfb-b4f5-7891f3078364 {
        fill: #fff;
      }
    </style>
  </defs>
  <title>oraclecrm</title>
  <g>
    <rect class="23eb5ef1-0622-4d2e-a6d8-aac94464dd4e" x="2.88" y="3" width="42.33" height="42.33"/>
    <path class="f43560a3-c667-4cfb-b4f5-7891f3078364" d="M31.47,14.35H16.61A8.15,8.15,0,0,0,8.47,22.5v3.34A8.14,8.14,0,0,0,16.61,34H31.47a8.15,8.15,0,0,0,8.15-8.14V22.5a8.16,8.16,0,0,0-8.15-8.15m0,3a5.17,5.17,0,0,1,5.17,5.17v3.34A5.17,5.17,0,0,1,31.47,31H16.61a5.18,5.18,0,0,1-5.17-5.17V22.5a5.18,5.18,0,0,1,5.17-5.17H31.47"/>
  </g>
</svg>
