<svg xmlns="http://www.w3.org/2000/svg" viewBox="0 0 48 48"><title>eloqua</title><path d="M17.39,19.24a3.9,3.9,0,0,1,3.9,3.83h0a2.3,2.3,0,0,0,4.59,0h1.6a3.9,3.9,0,0,1-7.79,0h0a2.3,2.3,0,0,0-4.59,0H13.5A3.9,3.9,0,0,1,17.39,19.24Z" style="fill:#939ba1;fill-rule:evenodd"/><path d="M34,19.23V23.1a2.3,2.3,0,0,1-4.59,0V19.22h-1.6V23.1a3.9,3.9,0,0,0,7.79,0V19.23Z" style="fill:#e31837;fill-rule:evenodd"/><path d="M11.34,15.54V26.87h1.6V15.54Z" style="fill:#e31837;fill-rule:evenodd"/><path d="M43.72,26.89V23.05a3.91,3.91,0,0,0-3.9-3.81,4,4,0,0,0-1.11.16A3.79,3.79,0,0,0,35.93,23a.37.37,0,0,0,0,.11h0a3.81,3.81,0,0,0,3.8,3.79A3.77,3.77,0,0,0,42.11,26v.88h1.61Zm-3.94-1.53a2.3,2.3,0,0,1-2.3-2.29h0a2.34,2.34,0,0,1,2.34-2.23,2.26,2.26,0,1,1,0,4.52Z" style="fill:#e31837;fill-rule:evenodd"/><path d="M17.39,26.89a3.9,3.9,0,0,0,3.9-3.82h0a2.3,2.3,0,0,1,4.59,0v8.45h1.6V23.05a3.9,3.9,0,0,0-7.79,0h0a2.3,2.3,0,0,1-4.59,0H13.5A3.9,3.9,0,0,0,17.39,26.89Z" style="fill:#e31837;fill-rule:evenodd"/><path d="M10.66,23.58H4.9a1.88,1.88,0,0,0,.67,1.22A2.08,2.08,0,0,0,7,25.25a2.39,2.39,0,0,0,1.73-.71l1.51.72a3.59,3.59,0,0,1-1.35,1.18A4.21,4.21,0,0,1,7,26.83a3.71,3.71,0,0,1-2.74-1.07A3.58,3.58,0,0,1,3.16,23.1a3.69,3.69,0,0,1,1.06-2.71A3.5,3.5,0,0,1,6.86,19.3a3.64,3.64,0,0,1,2.75,1.09,3.88,3.88,0,0,1,1.06,2.85ZM8.87,22.17a1.79,1.79,0,0,0-.7-1A2.06,2.06,0,0,0,7,20.82a2.12,2.12,0,0,0-1.31.42,2.37,2.37,0,0,0-.66.93Z" style="fill:#e31837"/><path d="M45,26.07v.76h-.13v-.76h-.24V26h.61v.12Z" style="fill:#e31837"/><path d="M46,26.83v-.59l-.21.43h-.09l-.21-.43v.59h-.13V26h.13l.26.55L46,26h.13v.88Z" style="fill:#e31837"/></svg>