<svg xmlns="http://www.w3.org/2000/svg" viewBox="0 0 48 48"><title>oracle database</title><path d="M42.71,40.78S41.22,44.19,24,44.19,5.29,40.78,5.29,40.78V31S7,34,24,34c16.34,0,18.71-3,18.71-3Z" style="fill:red"/><path d="M42.71,28.94S41.22,32.35,24,32.35,5.29,28.94,5.29,28.94V19.17s1.67,3,18.71,3c16.34,0,18.71-3,18.71-3Z" style="fill:red"/><path d="M42.71,17.19S41.22,20.6,24,20.6,5.29,17.19,5.29,17.19V7S7,3.37,24,3.37c16.34,0,18.71,3.32,18.71,3.32Z" style="fill:red"/><path d="M31,14.92a.5.5,0,0,1,0-1c4.46-.3,7.56-.81,9.47-1.55a.5.5,0,1,1,.36.93c-2,.78-5.2,1.31-9.76,1.62Z" style="fill:#fff"/><path d="M31,26.9a.49.49,0,0,1-.49-.47A.5.5,0,0,1,31,25.9c4.46-.3,7.56-.8,9.47-1.55a.5.5,0,1,1,.36.94c-2,.78-5.2,1.3-9.76,1.61Z" style="fill:#fff"/><path d="M31,38.88a.5.5,0,0,1,0-1c4.46-.3,7.56-.81,9.47-1.55a.5.5,0,1,1,.36.93c-2,.78-5.2,1.31-9.76,1.61Z" style="fill:#fff"/><ellipse cx="24.58" cy="6.82" rx="15.83" ry="2.15" style="fill:#fff"/></svg>