<svg xmlns="http://www.w3.org/2000/svg" viewBox="0 0 48 48"><defs><style>.cls-1{stroke:#000;stroke-miterlimit:10;stroke-width:0.18px;}.cls-2{fill:#ee3235;}</style></defs><g id="oracleerp"><path class="cls-1" d="M15.13,38.33V32.16H19.6v.73H16v1.89h3.42v.72H16v2.1h3.79v.73Z"/><path class="cls-1" d="M21.41,38.33V32.16h2.74a3.64,3.64,0,0,1,1.25.16,1.41,1.41,0,0,1,.69.59,1.76,1.76,0,0,1,.26.93A1.57,1.57,0,0,1,25.92,35a2.13,2.13,0,0,1-1.31.57,2.46,2.46,0,0,1,.49.31,4.42,4.42,0,0,1,.68.82l1.07,1.68h-1L25,37.05c-.24-.37-.44-.66-.59-.85a1.74,1.74,0,0,0-.42-.41,1.12,1.12,0,0,0-.37-.17,2.39,2.39,0,0,0-.46,0h-.94v2.74Zm.82-3.45H24a2.58,2.58,0,0,0,.88-.11,1,1,0,0,0,.48-.37,1,1,0,0,0,.16-.56.92.92,0,0,0-.31-.72,1.5,1.5,0,0,0-1-.28H22.23Z"/><path class="cls-1" d="M28.15,38.33V32.16h2.33a5.49,5.49,0,0,1,.94.06,1.68,1.68,0,0,1,.76.29,1.53,1.53,0,0,1,.5.59,2,2,0,0,1,.19.84,1.94,1.94,0,0,1-.5,1.34,2.44,2.44,0,0,1-1.82.54H29v2.51ZM29,35.09h1.6a1.67,1.67,0,0,0,1.12-.29A1.06,1.06,0,0,0,32,34a1.09,1.09,0,0,0-.19-.66.89.89,0,0,0-.52-.37,4.09,4.09,0,0,0-.76,0H29Z"/><path class="cls-2" d="M35.36,16.66a1.23,1.23,0,0,1-1-.57,8.3,8.3,0,0,0-7-3.88,7.61,7.61,0,0,0-1.43.13,8.8,8.8,0,0,0-6.75-3.13,8.71,8.71,0,0,0-8.6,7.06,1.28,1.28,0,0,1-.76.94,8.64,8.64,0,0,0-.56,15.84,1.21,1.21,0,0,0,1.65-.72v0a1.22,1.22,0,0,0-.64-1.49,6.23,6.23,0,0,1-3.47-5.54,6.32,6.32,0,0,1,5.12-6.12,1.39,1.39,0,0,0,1-1.37,6.19,6.19,0,0,1,6.27-6.08A6.34,6.34,0,0,1,24,13.92a2.42,2.42,0,0,0,2.27.86,6.22,6.22,0,0,1,1.05-.1,5.81,5.81,0,0,1,5.13,3.05,2.58,2.58,0,0,0,2.3,1.39h0a6.29,6.29,0,0,1,6.38,6.19,6.18,6.18,0,0,1-4,5.76,1.2,1.2,0,0,0-.78,1.31v0a1.2,1.2,0,0,0,1.58,1,8.63,8.63,0,0,0,5.71-8.09A8.72,8.72,0,0,0,35.36,16.66Z"/></g></svg>