<svg id="CURRENT" xmlns="http://www.w3.org/2000/svg" viewBox="0 0 48 48">
  <title>msoutlook</title>
  <g>
    <path id="path3" d="M28.53,13.52v7.12L31,22.2a.61.61,0,0,0,.27,0L42,15a1.52,1.52,0,0,0-1.25-1.46Z" style="fill: #0072c6"/>
    <path id="path5" d="M28.53,23.29l2.27,1.56a.68.68,0,0,0,.71,0c-.39.24,10.49-7,10.49-7V31a1.83,1.83,0,0,1-1.94,2H28.53V23.29Z" style="fill: #0072c6"/>
    <g id="g23">
      <path id="path25" d="M16.77,20a2.09,2.09,0,0,0-1.84,1.09A5.34,5.34,0,0,0,14.24,24a5.2,5.2,0,0,0,.69,2.88,2.07,2.07,0,0,0,3.6,0A5.26,5.26,0,0,0,19.2,24a5.7,5.7,0,0,0-.65-3A2,2,0,0,0,16.77,20Z" style="fill: #0072c6"/>
      <path id="path27" d="M6,9.9V37.76L27.19,42.2V5.8ZM20.18,28.54a4.2,4.2,0,0,1-3.5,1.77,4.15,4.15,0,0,1-3.44-1.72,7.1,7.1,0,0,1-1.32-4.46,7.68,7.68,0,0,1,1.34-4.7,4.25,4.25,0,0,1,3.57-1.8,4.09,4.09,0,0,1,3.4,1.72,7.38,7.38,0,0,1,1.29,4.53A7.54,7.54,0,0,1,20.18,28.54Z" style="fill: #0072c6"/>
    </g>
  </g>
</svg>
