<svg xmlns="http://www.w3.org/2000/svg" viewBox="0 0 48 48"><defs><style>.cls-1{fill:#5952ff;fill-rule:evenodd;}</style></defs><g id="Outreach"><path class="cls-1" d="M41.69,13.41C37.82,9.53,29.51,7.83,24,7.83s-9.84,1.43-12.29,3.89a12.8,12.8,0,0,0-3.68,9.5c0,5.8,2.92,12,7,16.1,1.07,1.07,4.74,4.35,9.55,4.35s8.58-3,10.88-5.33C39.92,31.87,44,24.17,44,19.15A8.08,8.08,0,0,0,41.69,13.41ZM30.82,27.86a7.51,7.51,0,0,1-5.39,2.56,6.68,6.68,0,0,1-4.56-1.92,7.82,7.82,0,0,1-2.28-5.23,6.14,6.14,0,0,1,1.74-4.45A7.63,7.63,0,0,1,26,16.77,7.63,7.63,0,0,1,31.8,19a4.74,4.74,0,0,1,1.38,3.4A8,8,0,0,1,30.82,27.86Z"/></g></svg>