<svg xmlns="http://www.w3.org/2000/svg" viewBox="0 0 48 48">
  <defs>
    <style>
      .\38 63b1f98-a922-4e86-9380-36cff30a7890 {
        fill: #fff;
      }

      .ca78511f-ca76-4b45-871e-dc7999b78002 {
        fill: #e7162c;
      }

      .\31 d44e061-3e36-4c85-b8dd-54d99a259fe5 {
        fill: #e50d27;
      }
    </style>
  </defs>
  <title>icon-</title>
  <g id="8fbff412-aba5-45ed-b51e-ed2004173dd7" data-name="pca accounting2">
    <rect class="863b1f98-a922-4e86-9380-36cff30a7890" x="8.02" y="7.73" width="32.73" height="32.54"/>
    <g>
      <g>
        <path class="ca78511f-ca76-4b45-871e-dc7999b78002" d="M41.26,7.4V40.91H7.74a15,15,0,0,1,0-1.5,1.49,1.49,0,0,0-.68-1.52c-1-.76-2-1.62-3-2.44a.81.81,0,0,1-.31-.66V22c0-.08,0-.17,0-.29H7.74V7.4Zm-10.91,23-.09.12c-.86,1.4-1.73,2.8-2.58,4.21a.75.75,0,0,1-.75.42H8.62V40H40.39V8.28H8.62V21.75H10.4a2.57,2.57,0,0,0,1.08,0c.3-.16.47-.57.69-.87l.39-.5,0,0V34l.1,0c2.48,0,5,.06,7.45,0a5.68,5.68,0,0,0,5.07-3.08,7.53,7.53,0,0,0,.42-6.45,6,6,0,0,0-4-3.89c-.42-.13-.86-.19-1.29-.28h7.27a.36.36,0,0,1,.25.17l1.61,2.77c.3.53.61,1.06.93,1.61.06-.11.11-.18.15-.26.76-1.36,1.53-2.71,2.28-4.07a.37.37,0,0,1,.39-.23c1.48,0,3,0,4.44,0l.3,0c0,.07-.06.12-.09.16q-2.17,3.4-4.37,6.8a.33.33,0,0,0,0,.43c1.35,2,2.69,4.06,4,6.09l.88,1.34-.1,0H33.4a.34.34,0,0,1-.23-.16c-.52-.82-1-1.65-1.53-2.48Z"/>
        <path class="ca78511f-ca76-4b45-871e-dc7999b78002" d="M21.82,28.32h-1v1.82h-3.7V23.91a23.58,23.58,0,0,1,2.39.17A2,2,0,0,1,21,25.49c.3.89.52,1.8.77,2.71A.38.38,0,0,1,21.82,28.32Z"/>
        <path class="ca78511f-ca76-4b45-871e-dc7999b78002" d="M17.37,18.33l-.14-.6c.24,0,.44,0,.64,0a.31.31,0,0,0,.22-.11c.17-.34.33-.68.51-1.07H17.26V16h4.53v.52H19.5a.32.32,0,0,0-.35.21c-.13.3-.28.59-.45.94l1.88-.12L20,16.91s0-.05,0-.05c.53-.32.36-.34.77.08s.67.78,1,1.18l-.54.34s-.06,0-.07-.05c-.13-.37-.39-.39-.74-.35C19.45,18.18,18.43,18.24,17.37,18.33Z"/>
        <path class="ca78511f-ca76-4b45-871e-dc7999b78002" d="M21,15.28l-.05.23H18.09L18,15.25l-.52.26c-.16.1-.27.09-.36-.09A3.45,3.45,0,0,0,17,15.1l.41-.19a4.87,4.87,0,0,0,1.73-1.36.62.62,0,0,1,.8,0A5.32,5.32,0,0,0,22,15l.1.06-.38.52ZM19.49,14l-.88,1h1.91Z"/>
        <path class="ca78511f-ca76-4b45-871e-dc7999b78002" d="M30.37,18.45h-.6V15.7H28.71v-.57h1V13.42h.63v1.71h1v.56h-.65c-.34,0-.34,0-.34.36Z"/>
        <path class="ca78511f-ca76-4b45-871e-dc7999b78002" d="M26.57,18.49c0-.09,0-.13,0-.16V16.6h1.87v1.65c-.36,0-.7,0-1.05,0-.12,0-.24-.05-.32.15S26.75,18.46,26.57,18.49Zm1.31-.75a4.77,4.77,0,0,0,0-.54.16.16,0,0,0-.12-.12c-.21,0-.42,0-.65,0v.67Z"/>
        <path class="ca78511f-ca76-4b45-871e-dc7999b78002" d="M28.58,14.32v.45H26.34v-.45Z"/>
        <path class="ca78511f-ca76-4b45-871e-dc7999b78002" d="M26.6,15.52V15.1h1.76v.42Z"/>
        <path class="ca78511f-ca76-4b45-871e-dc7999b78002" d="M26.59,16.25v-.4h1.77v.4Z"/>
        <path class="ca78511f-ca76-4b45-871e-dc7999b78002" d="M26.66,14v-.42H28.3V14Z"/>
        <path class="863b1f98-a922-4e86-9380-36cff30a7890" d="M19.49,14l1,1H18.61Z"/>
        <path class="863b1f98-a922-4e86-9380-36cff30a7890" d="M27.88,17.74H27.1v-.67c.23,0,.44,0,.65,0a.16.16,0,0,1,.12.12A4.77,4.77,0,0,1,27.88,17.74Z"/>
      </g>
      <circle class="1d44e061-3e36-4c85-b8dd-54d99a259fe5" cx="37.2" cy="37.69" r="5.71"/>
      <path class="863b1f98-a922-4e86-9380-36cff30a7890" d="M36.32,39.94a2.13,2.13,0,0,1,.16-.25,1.33,1.33,0,0,1,.74-.43.25.25,0,0,0,.14-.08,2,2,0,0,1,1.55-.84,2.11,2.11,0,0,1,2,1,.17.17,0,0,1,0,.07s0,0-.07,0a2,2,0,0,0-.92-.56,1.78,1.78,0,0,0-1.34.12,1.4,1.4,0,0,0-.41.36c0,.05,0,.08,0,.11l.15.09v0H37.16c-.18,0-.26.08-.25.25a.31.31,0,0,1-.13.29,2.48,2.48,0,0,0-.28.36s-.07.08-.13,0a2.11,2.11,0,0,0-1.72-.07,2.25,2.25,0,0,0-.63.38l-.08,0s0-.06,0-.09a1.79,1.79,0,0,1,1.32-.94,2.58,2.58,0,0,1,.48,0c.11,0,.13,0,.14-.12s0-.26,0-.39v-3.9a1.29,1.29,0,0,0-.07-.51.62.62,0,0,0-.38-.38c-.14-.05-.28-.08-.42-.12a.1.1,0,0,1-.07,0s0,0,.07,0c.36,0,.72-.09,1.08-.1s1,0,1.47,0a3.52,3.52,0,0,1,1.48.37A1.65,1.65,0,0,1,40,36a1.47,1.47,0,0,1-.7,1.39,2.45,2.45,0,0,1-1.05.4c-.29,0-.59,0-.88.07h-.07l0,0,0,0,.06,0a3.08,3.08,0,0,0,.84-.23,1.28,1.28,0,0,0,.78-1,2.23,2.23,0,0,0-.06-1,1.32,1.32,0,0,0-.9-.88,2,2,0,0,0-.81-.09l-.14,0a.27.27,0,0,0-.21.25s0,.11,0,.17c0,1.35,0,2.69,0,4a.2.2,0,0,1-.1.19,1,1,0,0,0-.43.71h0Z"/>
    </g>
  </g>
</svg>
