<svg id="87f89fb4-1e90-4349-b184-9a845d25e11d" data-name="Icons" xmlns="http://www.w3.org/2000/svg" viewBox="0 0 108 72">
  <defs>
    <style>
      .\30 179b984-b91f-4ba1-82c0-9af479320ddc {
        fill: #07265d;
      }
    </style>
  </defs>
  <title>PersistIQ</title>
  <g id="401c4b0f-2eda-428f-995e-8c02f1da7402" data-name="Page-1">
    <g id="637be43c-b59a-4958-ad45-b6f62588d5d9" data-name="persistiq-logo">
      <path id="6a638d7e-de8f-41d1-9dd3-cc64447ff0f2" data-name="PersistIQ" class="0179b984-b91f-4ba1-82c0-9af479320ddc" d="M11.55,42.17V36.58h4a4.67,4.67,0,1,0,0-9.33H8.93V42.17Zm3.61-7.9H11.55V29.55h3.61a2.37,2.37,0,1,1,0,4.72Zm12.35,8.17a6.41,6.41,0,0,0,4.39-1.59l-1.07-1.54a4.59,4.59,0,0,1-3.09,1.21,3.28,3.28,0,0,1-3.43-3h8.33V37c0-3.4-2.06-5.86-5.31-5.86a5.46,5.46,0,0,0-5.48,5.66A5.42,5.42,0,0,0,27.51,42.44Zm2.87-6.58H24.29a3,3,0,0,1,3-2.84A2.91,2.91,0,0,1,30.38,35.86Zm6.94,6.31V34.81a3.7,3.7,0,0,1,2.8-1.45,3.55,3.55,0,0,1,.71.06V31.1a4.68,4.68,0,0,0-3.51,1.83V31.36H35V42.17Zm9.13.27c2.91,0,4.5-1.45,4.5-3.38,0-4.29-6.54-2.86-6.54-4.76,0-.77.76-1.35,2-1.35a4.4,4.4,0,0,1,3.2,1.3l1-1.66a6.17,6.17,0,0,0-4.18-1.49c-2.73,0-4.26,1.49-4.26,3.26,0,4.16,6.54,2.64,6.54,4.77,0,.85-.74,1.43-2.15,1.43a5.57,5.57,0,0,1-3.65-1.5l-1.07,1.68A6.53,6.53,0,0,0,46.45,42.44Zm8-12.4A1.46,1.46,0,1,0,53,28.59,1.45,1.45,0,0,0,54.49,30Zm1.16,12.13V31.36H53.3V42.17Zm6.76.27c2.91,0,4.5-1.45,4.5-3.38,0-4.29-6.54-2.86-6.54-4.76,0-.77.77-1.35,2-1.35a4.4,4.4,0,0,1,3.2,1.3l1-1.66a6.17,6.17,0,0,0-4.18-1.49c-2.73,0-4.26,1.49-4.26,3.26,0,4.16,6.54,2.64,6.54,4.77,0,.85-.74,1.43-2.15,1.43a5.57,5.57,0,0,1-3.65-1.5l-1.07,1.68A6.53,6.53,0,0,0,62.41,42.44Zm10.12,0a3.18,3.18,0,0,0,2.19-.69L74.16,40a1.47,1.47,0,0,1-1,.4c-.67,0-1-.56-1-1.3V33.4h2.2v-2H72.1V28.41H69.75v2.95H68v2h1.79v6.24A2.49,2.49,0,0,0,72.53,42.44Zm6.56-.27V27.25H76.47V42.17Zm10.16.27A8,8,0,0,0,93,41.55L94.31,43l1.81-1.52-1.23-1.39a7.77,7.77,0,0,0,2-5.37,7.63,7.63,0,1,0-15.26,0A7.4,7.4,0,0,0,89.25,42.44Zm0-2.33c-3,0-5-2.32-5-5.39s1.93-5.39,5-5.39,5,2.3,5,5.39a5.86,5.86,0,0,1-1,3.42L91.33,36,89.5,37.56l1.86,2.11A5,5,0,0,1,89.25,40.11Z"/>
    </g>
  </g>
</svg>
