<svg xmlns="http://www.w3.org/2000/svg" viewBox="0 0 48 48">
  <title>pivitoltracker</title>
  <g id="Salesforce_Pardot" data-name="Salesforce Pardot">
    <g>
      <path d="M19.2,14.45l4,7a2.87,2.87,0,0,1,2,.18l2.11-3.66-3.53-6.11-4.61,2.66Z" style="fill: #de752c"/>
      <path d="M13,23.52h8a3.24,3.24,0,0,1,.29-.7,2.89,2.89,0,0,1,.85-.92L20.1,18.24H13v5.33h0Z" style="fill: #de752c"/>
      <path d="M26.44,25.67a2.9,2.9,0,0,1-.85.92l2.11,3.66h7.06V25h-8a2.94,2.94,0,0,1-.28.69" style="fill: #de752c"/>
      <path d="M25.9,22.15a2.9,2.9,0,0,1,.83,1.79H31l3.53-6.12-4.57-2.64Z" style="fill: #de752c"/>
      <path d="M17.92,33.12l4-7a2.86,2.86,0,0,1-.84-1.79H16.88l-3.53,6.12L18,33.14Z" style="fill: #de752c"/>
      <path d="M28.79,34l-4-7a2.87,2.87,0,0,1-2-.18l-2.12,3.66,3.53,6.12,4.61-2.66Z" style="fill: #de752c"/>
      <path d="M24,6A18,18,0,1,0,42,24,18,18,0,0,0,24,6Zm0,3.65A14.36,14.36,0,1,1,9.64,24,14.34,14.34,0,0,1,24,9.65Z" style="fill: #517c9f"/>
    </g>
  </g>
</svg>
