<svg id="Layer_1" data-name="Layer 1" xmlns="http://www.w3.org/2000/svg" viewBox="0 0 48 48"><defs><style>.cls-1{fill:#de752c;}.cls-2{fill:#517c9f;}</style></defs><title>pivotaltracker</title><path class="cls-1" d="M18.24,12.81l4.68,8.12a3.34,3.34,0,0,1,2.3.21l2.47-4.27L23.57,9.73l-5.38,3.11Z"/><path class="cls-1" d="M11.05,23.39h9.38a3.35,3.35,0,0,1,.33-.82,3.4,3.4,0,0,1,1-1.07l-2.46-4.27H11.05v6.21h0Z"/><path class="cls-1" d="M26.67,25.9a3.26,3.26,0,0,1-1,1.07l2.46,4.28h8.24V25.09H27a3.57,3.57,0,0,1-.34.81"/><path class="cls-1" d="M26,21.78a3.4,3.4,0,0,1,1,2.1H32l4.12-7.14-5.34-3.08Z"/><path class="cls-1" d="M16.74,34.59l4.69-8.13a3.38,3.38,0,0,1-1-2.09H15.52L11.4,31.51l5.38,3.1Z"/><path class="cls-1" d="M29.42,35.56l-4.68-8.13a3.28,3.28,0,0,1-2.3-.2L20,31.5l4.12,7.13,5.38-3.1Z"/><path class="cls-2" d="M23.83,3a21,21,0,1,0,21,21,21,21,0,0,0-21-21Zm0,4.25A16.75,16.75,0,1,1,7.08,24,16.75,16.75,0,0,1,23.83,7.2Z"/></svg>