<svg xmlns="http://www.w3.org/2000/svg" viewBox="0 0 48 48">
  <title>icon-postcodeJP</title>
  <g id="Layer_3" data-name="Layer 3">
    <g>
      <path d="M24,3.29A16.79,16.79,0,0,0,7.21,20.08C7.21,29.35,24,44.71,24,44.71S40.79,29.35,40.79,20.08A16.79,16.79,0,0,0,24,3.29Zm0,26.88A10.29,10.29,0,1,1,34.29,19.88,10.29,10.29,0,0,1,24,30.17Z" style="fill: #945ef0"/>
      <path d="M24,9.6A10.29,10.29,0,1,0,34.29,19.88,10.29,10.29,0,0,0,24,9.6Zm0,17a6.71,6.71,0,1,1,6.71-6.71A6.7,6.7,0,0,1,24,26.59Z" style="fill: #df99f7"/>
    </g>
  </g>
</svg>
