<svg xmlns="http://www.w3.org/2000/svg" xmlns:xlink="http://www.w3.org/1999/xlink" viewBox="0 0 48 48"><defs><linearGradient id="a" x1="6.81" y1="9.48" x2="40.48" y2="37.73" gradientUnits="userSpaceOnUse"><stop offset="0" stop-color="#2fa6da"/><stop offset="0.49" stop-color="#2e9fd3"/><stop offset="1" stop-color="#2575b7"/></linearGradient><linearGradient id="b" x1="30.87" y1="15.72" x2="9.69" y2="38.85" gradientUnits="userSpaceOnUse"><stop offset="0.11" stop-color="#fff"/><stop offset="0.19" stop-color="#f9fcfd"/><stop offset="0.31" stop-color="#e7f4f7"/><stop offset="0.43" stop-color="#cae7ee"/><stop offset="0.58" stop-color="#a2d5e0"/><stop offset="0.73" stop-color="#6fbecf"/><stop offset="0.89" stop-color="#31a2bb"/><stop offset="1" stop-color="#008cab"/></linearGradient><linearGradient id="c" x1="14.14" y1="12.96" x2="38.57" y2="40.32" gradientUnits="userSpaceOnUse"><stop offset="0.11" stop-color="#fff"/><stop offset="0.19" stop-color="#faf9ff"/><stop offset="0.31" stop-color="#ede7fe"/><stop offset="0.43" stop-color="#d8cafd"/><stop offset="0.58" stop-color="#baa2fc"/><stop offset="0.73" stop-color="#946ffa"/><stop offset="0.89" stop-color="#6631f9"/><stop offset="1" stop-color="#4200f7"/></linearGradient><linearGradient id="d" x1="24.84" y1="27.62" x2="24.84" y2="6.48" gradientUnits="userSpaceOnUse"><stop offset="0" stop-color="#242424"/><stop offset="0.1" stop-color="#2f2f2f"/><stop offset="0.27" stop-color="#4c4c4c"/><stop offset="0.49" stop-color="#7a7a7a"/><stop offset="0.75" stop-color="#bababa"/><stop offset="1" stop-color="#fff"/></linearGradient></defs><title>powershell</title><g style="isolation:isolate"><path d="M11.66,7H44.18C46,7,47.1,8.28,46.75,9.82L40.3,38.49a4,4,0,0,1-3.82,2.79H4c-1.76,0-2.91-1.26-2.56-2.8L7.84,9.81A4,4,0,0,1,11.66,7Z" style="fill-rule:evenodd;opacity:0.32"/><path d="M11.23,6.48H43.76c1.76,0,2.91,1.26,2.56,2.81L39.87,37.94a4,4,0,0,1-3.82,2.8H3.53A2.34,2.34,0,0,1,1,37.94L7.42,9.28A4,4,0,0,1,11.23,6.48Z" style="fill-rule:evenodd;fill:url(#a)"/><path d="M11.23,6.48H43.76c1.76,0,2.91,1.26,2.56,2.81L39.87,37.94a4,4,0,0,1-3.82,2.8H3.53A2.34,2.34,0,0,1,1,37.94L7.42,9.28A4,4,0,0,1,11.23,6.48Z" style="fill-rule:evenodd;opacity:0.62;mix-blend-mode:multiply;fill:url(#b)"/><path d="M11.23,6.48H43.76c1.76,0,2.91,1.26,2.56,2.81L39.87,37.94a4,4,0,0,1-3.82,2.8H3.53A2.34,2.34,0,0,1,1,37.94L7.42,9.28A4,4,0,0,1,11.23,6.48Z" style="fill-rule:evenodd;opacity:0.23;mix-blend-mode:multiply;fill:url(#c)"/><g style="opacity:0.48"><path d="M43.76,6.48H11.23a4,4,0,0,0-3.81,2.8L1,37.94a2.34,2.34,0,0,0,2.56,2.8H36.05a4,4,0,0,0,3.82-2.8L46.32,9.29C46.67,7.74,45.52,6.48,43.76,6.48Zm2,2.55L39.34,37.91a3.32,3.32,0,0,1-3.18,2.28H3.43a2.06,2.06,0,0,1-1.65-.68,1.49,1.49,0,0,1-.27-1.32L8,9.31A3.33,3.33,0,0,1,11.12,7H43.86a2.06,2.06,0,0,1,1.65.68A1.51,1.51,0,0,1,45.78,9Z" style="fill:#fff;fill-rule:evenodd"/></g><g style="mix-blend-mode:screen"><path d="M30,22.34,19.44,10.77a2.51,2.51,0,0,0-3.21,0,2.39,2.39,0,0,0-1,1.4,1.56,1.56,0,0,0,.34,1.41l9.28,10.16L11,33.79a2.39,2.39,0,0,0-1,1.4,1.57,1.57,0,0,0,.34,1.41,2.52,2.52,0,0,0,3.21,0L29.38,25.14A1.92,1.92,0,0,0,30,22.34Z" style="fill:#7ad3eb"/></g><path d="M22.94,33a2.8,2.8,0,0,0-2.72,2,1.67,1.67,0,0,0,1.82,2l7.55,0a2.8,2.8,0,0,0,2.71-2,1.67,1.67,0,0,0-1.81-2Z" style="fill:#b7dbed"/><g style="mix-blend-mode:screen"><path d="M30,22.34,19.44,10.77a2.51,2.51,0,0,0-3.21,0,2.39,2.39,0,0,0-1,1.4,1.56,1.56,0,0,0,.34,1.41l9.28,10.16L11,33.79a2.39,2.39,0,0,0-1,1.4,1.57,1.57,0,0,0,.34,1.41,2.52,2.52,0,0,0,3.21,0L29.38,25.14A1.92,1.92,0,0,0,30,22.34Z" style="fill:#7ad3eb"/></g><path d="M30,22.34,19.44,10.77a2.51,2.51,0,0,0-3.21,0,2.39,2.39,0,0,0-1,1.4,1.56,1.56,0,0,0,.34,1.41l9.28,10.16L11,33.79a2.39,2.39,0,0,0-1,1.4,1.57,1.57,0,0,0,.34,1.41,2.52,2.52,0,0,0,3.21,0L29.38,25.14A1.92,1.92,0,0,0,30,22.34Z" style="fill:#e1eff7"/><path d="M22.94,33a2.8,2.8,0,0,0-2.72,2,1.67,1.67,0,0,0,1.82,2l7.55,0a2.8,2.8,0,0,0,2.71-2,1.67,1.67,0,0,0-1.81-2Z" style="fill:#b7dbed"/><path d="M44.25,18.49l2.07-9.2c.35-1.55-.8-2.81-2.56-2.81H11.23a4,4,0,0,0-3.81,2.8L3.31,27.62C19.54,20.53,38.41,18.84,44.25,18.49Z" style="fill-rule:evenodd;opacity:0.5700000000000001;mix-blend-mode:screen;fill:url(#d)"/><path d="M11.23,6.37Zm0,0A4.08,4.08,0,0,0,7.31,9.25L.87,37.91a2.93,2.93,0,0,0-.06.58,2.24,2.24,0,0,0,.48,1.4,2.88,2.88,0,0,0,2.24,1H36.05A4.07,4.07,0,0,0,40,38L46.42,9.31a2.26,2.26,0,0,0-.42-2,2.79,2.79,0,0,0-2.24-1ZM3.53,40.63a2.65,2.65,0,0,1-2.08-.88A2.15,2.15,0,0,1,1.08,38L7.52,9.3a3.89,3.89,0,0,1,3.71-2.72H43.76a2.63,2.63,0,0,1,2.07.9,2.1,2.1,0,0,1,.4,1.78L39.76,37.93a3.85,3.85,0,0,1-3.71,2.7Z" style="fill:#257baa;fill-rule:evenodd"/></g></svg>