<svg xmlns="http://www.w3.org/2000/svg" viewBox="0 0 48 48"><title>powerbixmla</title><g id="powerbi"><path d="M17.347,35.43A2.26,2.26,0,0,1,15.1,37.677a2.194,2.194,0,0,1-2.247-2.247V25.8A2.26,2.26,0,0,1,15.1,23.553,2.194,2.194,0,0,1,17.347,25.8Z" style="fill:#040404"/><path d="M23.767,38a2.26,2.26,0,0,1-2.247,2.247A2.108,2.108,0,0,1,19.38,38V23.339a2.26,2.26,0,0,1,2.247-2.247,2.194,2.194,0,0,1,2.247,2.247V38Z" style="fill:#040404"/><path d="M10.82,33.29a2.26,2.26,0,0,1-2.247,2.247A2.194,2.194,0,0,1,6.326,33.29V28.047a2.247,2.247,0,0,1,4.494,0Z" style="fill:#040404"/><path d="M30.187,40.352a2.194,2.194,0,1,1-4.387,0V20.878a2.247,2.247,0,0,1,4.494,0V40.352Z" style="fill:#040404"/><path d="M37.249,39.389a4.551,4.551,0,0,1-1.177-.214L33.4,38.319a.846.846,0,1,1,.535-1.605l2.782.856a1.717,1.717,0,0,0,1.712-.321,1.735,1.735,0,0,0,.749-1.5V17.882a1.865,1.865,0,0,0-1.284-1.819L11.676,8.145a1.967,1.967,0,0,0-1.712.214,2.276,2.276,0,0,0-.749,1.605v12.3a.856.856,0,1,1-1.712,0V9.964A3.412,3.412,0,0,1,9,7.075a3.49,3.49,0,0,1,3.21-.535l26.108,7.918a3.694,3.694,0,0,1,2.568,3.531V35.858a3.75,3.75,0,0,1-1.5,3,6.986,6.986,0,0,1-2.14.535" style="fill:#040404"/></g></svg>