<svg id="febbd851-bc1c-4c69-9050-3fb831b4045e" data-name="Icons" xmlns="http://www.w3.org/2000/svg" viewBox="0 0 108 72">
  <title>propad</title>
  <path id="3da10f13-6330-40c7-9959-b3f567ba81a3" data-name="Pro" d="M11.06,35.49a3.2,3.2,0,0,0,2.09-.65,2.13,2.13,0,0,0,.74-1.72v0a2.14,2.14,0,0,0-.78-1.77,3.27,3.27,0,0,0-2.09-.6H8.37v4.78Zm-5-6.87h5.2a5.81,5.81,0,0,1,2.09.33,4.34,4.34,0,0,1,1.58.88,4,4,0,0,1,1,1.39A4.72,4.72,0,0,1,16.31,33v0a4.31,4.31,0,0,1-.42,2,4.22,4.22,0,0,1-1.11,1.39,4.67,4.67,0,0,1-1.67.83,7.35,7.35,0,0,1-2,.28H8.37v4.23H6.05Zm11.56,3.25h2.27V34.1a4.41,4.41,0,0,1,1.35-1.81,3.06,3.06,0,0,1,2.18-.61V34.1h-.14a4.35,4.35,0,0,0-1.39.23,2.52,2.52,0,0,0-1.07.74,3.33,3.33,0,0,0-.7,1.26A5.06,5.06,0,0,0,19.88,38v3.81H17.61Zm11.74,8.22a2.94,2.94,0,0,0,2.23-.93,2.54,2.54,0,0,0,.6-1,3.45,3.45,0,0,0,.19-1.21v0a4,4,0,0,0-.23-1.25,2.67,2.67,0,0,0-.65-1,3.87,3.87,0,0,0-1-.7,2.82,2.82,0,0,0-1.25-.23,3.58,3.58,0,0,0-1.26.23,3.82,3.82,0,0,0-1,.7,2.47,2.47,0,0,0-.6,1,3.45,3.45,0,0,0-.19,1.21v0a4,4,0,0,0,.23,1.26,3,3,0,0,0,.65,1,3.61,3.61,0,0,0,1,.69A4,4,0,0,0,29.35,40.09ZM29.3,42a5.19,5.19,0,0,1-2.08-.42,5.32,5.32,0,0,1-1.68-1.12,5.69,5.69,0,0,1-1.11-1.62,5,5,0,0,1-.42-2h0a4.77,4.77,0,0,1,.42-2,5.94,5.94,0,0,1,1.11-1.67,5.32,5.32,0,0,1,1.68-1.12,5.43,5.43,0,0,1,5.94,1.12,5.69,5.69,0,0,1,1.11,1.62,4.78,4.78,0,0,1,.42,2v0a4.78,4.78,0,0,1-.42,2,6.75,6.75,0,0,1-1.11,1.67,4.53,4.53,0,0,1-1.67,1.11A5.54,5.54,0,0,1,29.3,42Z"/>
  <path d="M43.69,28.06v4.46a5.44,5.44,0,0,0-.92-.51,5.31,5.31,0,0,0-2.14-.42,5,5,0,0,0-3.76,1.58,5.14,5.14,0,0,0-1.11,1.67,5,5,0,0,0-.42,2v0a4.78,4.78,0,0,0,.42,2,4.91,4.91,0,0,0,1.11,1.62,5.16,5.16,0,0,0,1.67,1.12,5.24,5.24,0,0,0,2.09.42,5.31,5.31,0,0,0,2.14-.42,6.24,6.24,0,0,0,.92-.51v.69H46V28.06Zm0,8.82a3.45,3.45,0,0,1-.18,1.21,2.86,2.86,0,0,1-.61,1,3.65,3.65,0,0,1-1,.7,2.82,2.82,0,0,1-1.25.23,3.47,3.47,0,0,1-1.21-.23,2.8,2.8,0,0,1-1-.7,3.7,3.7,0,0,1-.65-1,2.69,2.69,0,0,1-.24-1.25v-.05a3.49,3.49,0,0,1,.19-1.21,2.84,2.84,0,0,1,.6-1,3.61,3.61,0,0,1,1-.69,2.69,2.69,0,0,1,1.25-.24,3.52,3.52,0,0,1,1.25.24,2.91,2.91,0,0,1,1,.69,4,4,0,0,1,.65,1,5.67,5.67,0,0,1,.18,1.3Z"/>
  <path id="9f7b5e7e-97a2-4944-91df-651cbaf5e142" data-name="Pad" d="M48.43,41.8V28.62h4.83c3.06,0,4.92,1.67,4.92,4.09C58.18,35.4,56,37,53,37h-3.2V41.8Zm1.39-6.08h3.25c2,0,3.71-1,3.71-2.87V32.8c0-2-1.62-2.83-3.62-2.83H49.77ZM62.68,42c-2.09,0-3.85-1.25-3.85-3.16v0c0-1.95,1.57-3.3,4.31-3.3a12.34,12.34,0,0,1,2.88.33v-.14C66,33.77,64.81,33,63.14,33a6.46,6.46,0,0,0-3.06.84l-.51-1.21a8.2,8.2,0,0,1,3.62-.93,4.08,4.08,0,0,1,3.15,1.12,3.79,3.79,0,0,1,1,2.78v6.13h-1.3V40.6A4.73,4.73,0,0,1,62.68,42Zm0-1.3c1.68,0,3.35-1,3.35-2.69v-.88a11.75,11.75,0,0,0-3-.38c-2,0-2.88.89-2.88,2h0C60.22,40,61.33,40.69,62.72,40.69ZM73.45,42a4.82,4.82,0,0,1-4.74-5,4.85,4.85,0,0,1,4.74-5.11A4.41,4.41,0,0,1,77,33.63V28.11h1.35V41.85H77V40.13A4.29,4.29,0,0,1,73.45,42Zm.09-1.3a3.67,3.67,0,0,0,3.53-3.76v0a3.67,3.67,0,0,0-3.53-3.76,3.41,3.41,0,0,0-3.39,3.72v0A3.52,3.52,0,0,0,73.54,40.69Z"/>
  <path d="M100.55,29.6a4.29,4.29,0,0,0-3.25-3.25,27.06,27.06,0,0,0-5.43-.56,26.2,26.2,0,0,0-5.38.56,4.17,4.17,0,0,0-3.25,3.25,27,27,0,0,0-.6,5.38v.51c1.71.14,5-.65,8.17-3-1.67-.32-2.19-.74-2.23-1.21,0-.32.42-.6,1.34-.83l6.55-1.3c-.37,3.9-.6,6.13-.7,6.64-.14.78-.32,1.48-.79,1.39s-1-.7-1.39-2.18a14.36,14.36,0,0,0-2.27,8.35l.18.93H92a24.49,24.49,0,0,0,5.43-.6,4.31,4.31,0,0,0,3.25-3.25,27.61,27.61,0,0,0,.6-5.48A40.18,40.18,0,0,0,100.55,29.6Z"/>
  <path d="M87.51,43.89a15.83,15.83,0,0,1,.88-5.43,19.45,19.45,0,0,1-5.43.79c.05.42.14.79.23,1.21a4.26,4.26,0,0,0,3.25,3.25C86.77,43.75,87.14,43.85,87.51,43.89Z"/>
</svg>
