<svg xmlns="http://www.w3.org/2000/svg" viewBox="0 0 48 48"><title>quickbooks pos</title><circle cx="23.97" cy="23.99" r="20.07" style="fill:#2ca01c"/><path d="M38.89,24.74,26.48,12.34a2.32,2.32,0,0,0-3.27,0l-.6.6L38.29,28.62l.6-.6A2.33,2.33,0,0,0,38.89,24.74Z" style="fill:#fff"/><path d="M27.28,34.48l.94.94a2.32,2.32,0,0,0,3.27,0L35.4,31.5l-2.57-2.57Z" style="fill:#fff"/><path d="M32.48,27.56a2.38,2.38,0,0,0-.32-3h0L19.92,12.35a2.4,2.4,0,0,0-3.38,0L9.08,19.82a2.38,2.38,0,0,0,0,3.37L21.31,35.43a2.4,2.4,0,0,0,3.38,0L32.16,28A1.76,1.76,0,0,0,32.48,27.56Zm-8.63,7a1.2,1.2,0,0,1-1.7,0L9.92,22.35a1.2,1.2,0,0,1,0-1.7l4.57-4.57L28.43,30Zm7.47-7.47-.22.22L17.16,13.41l.22-.22a1.19,1.19,0,0,1,.85-.35,1.17,1.17,0,0,1,.85.35L31.32,25.42h0a1.23,1.23,0,0,1,.35.85A1.18,1.18,0,0,1,31.32,27.12Z" style="fill:#fff"/><path d="M13,21.3a.41.41,0,0,0-.58.58l9.86,9.86a.41.41,0,0,0,.58,0,.4.4,0,0,0,0-.57Z" style="fill:#fff"/><path d="M23.7,30.36a.41.41,0,1,0,.58-.58L22.09,27.6a.4.4,0,0,0-.57.57Z" style="fill:#fff"/><path d="M13.85,19.92a.41.41,0,0,0,0,.58l5.3,5.31a.41.41,0,0,0,.58-.58l-5.31-5.31A.4.4,0,0,0,13.85,19.92Z" style="fill:#fff"/></svg>