<svg id="Layer_1" data-name="Layer 1" xmlns="http://www.w3.org/2000/svg" version="1.1" viewBox="0 0 48 48"><defs><style>.cls-1 {fill: #008c95;stroke-width: 0px;}</style></defs><path class="cls-1" d="M45,7.8c0-2.6-3.4-4.8-8.9-4.8-8,0-11.8,3.9-14,4.9-.3.1-.5-.2-.2-.3,2-1.3,2.1-3.1,2.1-3.9,0-.3-.2-.4-.5-.2-2.6,2.2-4,2.4-6.6,2.5-6.5.1-11.3,3.4-11,7.7,0,.5-.1.6-.5.8-2.8,1.5-3.2,4.9-1.2,6.6.4.3.6.2.5-.2-.5-1.6.6-2.4,1.1-2.4.7.1-.8,5.1,5.2,6.4.4,0,.5,0,.4.9-.7,6.9,1.6,14.1,9,18.4,4.7,2.7,9.3-.9,5-6.6,2.7-.2,4.5-2.3,4.9-4.6,2.5,1.2,5.5,1.1,7.9-.3,2.4-1.4,3.9-3.9,3.9-6.6,0-2.9-1.7-5.5-4.3-6.9,2.2-1.8,2.4-5.5,1-7.1,3.9-.4,6.2-2.1,6.2-4.2h0ZM14.9,11.9c1.3,1.1,1.6,2.9.8,4.4-.8,1.5-2.6,2.2-4.2,1.8-1.7-.4-2.9-1.9-2.9-3.5s0-.5,0-.7c0-.1.1-.2.3-.3.4-.1.9-.2,1.4-.4,0,0,0,0,0,0,0,0,0,0,0,0-.2.4-.4.8-.3,1.2,0,1.1.9,2.1,2.1,2.2,1.2.1,2.3-.6,2.6-1.7.3-1.1-.3-2.2-1.5-2.6,0,0,0,0,0,0s0,0,0,0c.4-.2.9-.3,1.3-.5.1,0,.3,0,.4,0Z"/></svg>