<svg xmlns="http://www.w3.org/2000/svg" viewBox="0 0 48 48"><title>sageintacct</title><path d="M38.2,8.7c-2.93,0-4.84,2-4.84,5.32,0,4.11,2.93,5.29,5,5.29a5.75,5.75,0,0,0,4.16-1.78l-1.35-1.36a3.82,3.82,0,0,1-2.78,1c-1.63,0-2.73-.95-2.73-2.26H43S44.22,8.7,38.2,8.7m-2.51,4.47a2.55,2.55,0,0,1,2.76-2.61,2.53,2.53,0,0,1,2.73,2.61Z" style="fill:#00dc00"/><path d="M11.44,13c-.93-.12-3.62,0-3.62-1.24C7.82,11,9,10.63,10,10.63a5.44,5.44,0,0,1,3.07.89l1.4-1.4A7.19,7.19,0,0,0,10,8.7c-2.3,0-4.37,1.2-4.37,3.13,0,2.95,3.57,2.95,5.06,3.1.9.09,1.72.15,1.72,1s-1.26,1.28-2.23,1.28A4.7,4.7,0,0,1,6.7,15.88L5.19,17.39A6.91,6.91,0,0,0,10,19.31c2.67,0,4.61-1.18,4.61-3.55,0-1.57-1.05-2.5-3.21-2.77" style="fill:#00dc00"/><path d="M19.12,8.7A6.5,6.5,0,0,0,15,10.12l1.4,1.41a4.39,4.39,0,0,1,2.72-.88c1.77,0,2.3.7,2.3,1.5v1H18.28c-1.17,0-3.47.3-3.47,2.87,0,1.89,1.08,3.29,3.67,3.29a3.62,3.62,0,0,0,3-1.24v1h2.3V12.31c0-2.38-1.46-3.61-4.62-3.61m2.34,6.69c0,2-1.4,1.86-2.65,1.86s-2.08-.33-2.08-1.21.66-1.1,2-1.1h2.71Z" style="fill:#00dc00"/><path d="M30.83,8.92v1.14a3.67,3.67,0,0,0-3-1.36,3.53,3.53,0,0,0-3.68,2.52A12.25,12.25,0,0,0,24,14a7.74,7.74,0,0,0,.46,3.36,3.94,3.94,0,0,0,3.41,2,3.86,3.86,0,0,0,3-1.31v.64a1.91,1.91,0,0,1-.73,1.63,2.94,2.94,0,0,1-1.93.63,3.59,3.59,0,0,1-1.9-.7l-1.54,1.55a5.67,5.67,0,0,0,3.49,1.37A5.23,5.23,0,0,0,31.65,22a4.54,4.54,0,0,0,1.51-3.54V8.92Zm0,5.08a11.19,11.19,0,0,1-.07,1.68A2.21,2.21,0,0,1,28.5,17.2c-.34,0-2.08-.19-2.28-1.71A11.09,11.09,0,0,1,26.15,14a9,9,0,0,1,.11-1.85,2.21,2.21,0,0,1,2.24-1.47,2.12,2.12,0,0,1,2.26,1.56A14.27,14.27,0,0,1,30.83,14" style="fill:#00dc00"/><path d="M5.56,38.9h-.7V28.33h.7Z" style="fill:#8e8a86"/><path d="M13.62,38.9h-.71v-5c0-1.23-.4-1.94-1.65-1.94a4.6,4.6,0,0,0-2.72,1.15V38.9H7.83V31.48h.62l.05,1a5.09,5.09,0,0,1,2.89-1.11c1.56,0,2.23.9,2.23,2.57Z" style="fill:#8e8a86"/><path d="M19.12,38.64a3.29,3.29,0,0,1-1.59.43c-1.37,0-1.88-.57-1.88-1.86v-5.1H14.47v-.63h1.18V29.37l.71-.12v2.23h2.11v.63H16.36v5c0,.89.21,1.42,1.22,1.42a2.84,2.84,0,0,0,1.34-.4Z" style="fill:#8e8a86"/><path d="M24.77,37.85c0,.41.07.61.45.61a1.54,1.54,0,0,0,.46-.09l.05.47A1.47,1.47,0,0,1,25,39a.81.81,0,0,1-.85-.94,3.55,3.55,0,0,1-2.51,1,1.92,1.92,0,0,1-2.19-2c0-2.12,1.91-2.48,3.63-2.48.35,0,.69,0,1,0V34c0-1.46-.36-2-1.76-2s-1.73.46-1.89,1.38l-.68-.11c.23-1.38,1.14-1.87,2.62-1.87,1.74,0,2.44.64,2.44,2.48Zm-.71-2.63c-.34,0-.69,0-1.14,0-1.49,0-2.76.3-2.76,1.81,0,.8.31,1.47,1.53,1.47a3.21,3.21,0,0,0,2.37-1.05Z" style="fill:#8e8a86"/><path d="M26.17,35.22c0-2.61,1.29-3.88,3.45-3.88a2.42,2.42,0,0,1,2.62,2.41l-.77.08c-.13-1.27-.74-1.86-1.94-1.86s-2.61.7-2.61,3.15c0,2.64,1.28,3.28,2.52,3.28a1.92,1.92,0,0,0,2.13-1.69l.73.15a2.65,2.65,0,0,1-2.84,2.21C27,39.07,26.17,37.47,26.17,35.22Z" style="fill:#8e8a86"/><path d="M33.18,35.22c0-2.61,1.28-3.88,3.44-3.88a2.42,2.42,0,0,1,2.63,2.41l-.77.08c-.14-1.27-.75-1.86-1.95-1.86s-2.61.7-2.61,3.15c0,2.64,1.29,3.28,2.53,3.28a1.93,1.93,0,0,0,2.13-1.69l.73.15a2.65,2.65,0,0,1-2.85,2.21C34,39.07,33.18,37.47,33.18,35.22Z" style="fill:#8e8a86"/><path d="M44.33,38.64a3.32,3.32,0,0,1-1.59.43c-1.37,0-1.89-.57-1.89-1.86v-5.1H39.67v-.63h1.18V29.37l.72-.12v2.23h2.1v.63h-2.1v5c0,.89.2,1.42,1.21,1.42a2.81,2.81,0,0,0,1.34-.4Z" style="fill:#8e8a86"/></svg>