<svg id="CURRENT" xmlns="http://www.w3.org/2000/svg" viewBox="0 0 48 48"><title>sage300</title><g id="NEED_VECTOR" data-name="NEED VECTOR"><path d="M37.57,12.66c-2.82,0-4.66,1.93-4.66,5.12,0,4,2.82,5.11,4.84,5.11a5.49,5.49,0,0,0,4-1.74l-1.3-1.3a3.79,3.79,0,0,1-2.68,1c-1.58,0-2.61-.92-2.61-2.19h7s1.19-6-4.61-6M35.15,17a2.45,2.45,0,0,1,2.38-2.52h.28a2.44,2.44,0,0,1,2.61,2.27,1,1,0,0,1,0,.24Z" style="fill:#0c0"/><path d="M11.75,16.82c-.87-.11-3.48,0-3.48-1.19,0-.7,1.1-1.09,2.09-1.09a5.37,5.37,0,0,1,3,.87l1.35-1.34a7,7,0,0,0-4.35-1.37c-2.2,0-4.18,1.14-4.18,3,0,2.85,3.48,2.85,4.87,3,.87.1,1.67.15,1.67,1s-1.24,1.25-2.19,1.25a4.54,4.54,0,0,1-3.34-1.31L5.72,21.06a6.62,6.62,0,0,0,4.68,1.86c2.61,0,4.44-1.13,4.44-3.41,0-1.52-1-2.41-3.09-2.69" style="fill:#0c0"/><path d="M19.15,12.66a6.27,6.27,0,0,0-4,1.37l1.4,1.37a4.25,4.25,0,0,1,2.61-.87c1.74,0,2.24.68,2.24,1.45v1H18.33C17.19,17,15,17.3,15,19.79,15,21.61,16,23,18.52,23a3.54,3.54,0,0,0,2.87-1.18v1h2.22V16.14c0-2.3-1.41-3.48-4.47-3.48m2.26,6.46c0,1.89-1.35,1.79-2.55,1.79s-2-.32-2-1.18.61-1,1.95-1h2.61v.37Z" style="fill:#0c0"/><path d="M30.45,12.89V14a3.6,3.6,0,0,0-2.89-1.32A3.39,3.39,0,0,0,24,15.1a11.92,11.92,0,0,0-.18,2.67A7.59,7.59,0,0,0,24.28,21a3.77,3.77,0,0,0,3.28,1.89,3.7,3.7,0,0,0,2.89-1.26v.62a1.83,1.83,0,0,1-.7,1.57,2.77,2.77,0,0,1-1.85.61,3.33,3.33,0,0,1-1.84-.69l-1.5,1.5a5.44,5.44,0,0,0,3.34,1.34,5.1,5.1,0,0,0,3.32-1.11,4.43,4.43,0,0,0,1.45-3.42V12.89Zm0,4.9a8.75,8.75,0,0,1-.07,1.62,2.11,2.11,0,0,1-2.18,1.47c-.33,0-2-.19-2.2-1.65a9.92,9.92,0,0,1-.07-1.44,9.24,9.24,0,0,1,.1-1.74,2.15,2.15,0,0,1,2.17-1.42,2,2,0,0,1,2.18,1.51,10.7,10.7,0,0,1,.07,1.7" style="fill:#0c0"/></g><path d="M14.8,33.12h.43a3.73,3.73,0,0,0,.91-.1,2.21,2.21,0,0,0,.75-.32,1.61,1.61,0,0,0,.5-.57,1.87,1.87,0,0,0,.18-.85,2,2,0,0,0-.15-.78,1.83,1.83,0,0,0-.43-.59,2,2,0,0,0-.64-.38,2.18,2.18,0,0,0-.76-.14,2,2,0,0,0-1.91,1.18l-.87-.46A3.09,3.09,0,0,1,14,28.92a3.41,3.41,0,0,1,1.65-.39,3.75,3.75,0,0,1,1.12.17,2.78,2.78,0,0,1,.94.52,2.57,2.57,0,0,1,.65.84,2.7,2.7,0,0,1,.23,1.16,2.27,2.27,0,0,1-.49,1.49,2.38,2.38,0,0,1-1.25.81v0a2.63,2.63,0,0,1,1.44.83A2.43,2.43,0,0,1,18.86,36a2.9,2.9,0,0,1-.26,1.28,2.8,2.8,0,0,1-.7,1,3.1,3.1,0,0,1-1,.6,3.88,3.88,0,0,1-1.24.2,3.51,3.51,0,0,1-1.93-.53A3.3,3.3,0,0,1,12.46,37l1-.36a2.21,2.21,0,0,0,.85,1.13,2.46,2.46,0,0,0,2.19.25,2,2,0,0,0,.71-.42,2.07,2.07,0,0,0,.49-.67,2.21,2.21,0,0,0,.18-.91,1.89,1.89,0,0,0-.22-1,1.76,1.76,0,0,0-.58-.63,2.62,2.62,0,0,0-.84-.35,4.37,4.37,0,0,0-1-.1H14.8Z" style="fill:#4f4f4f"/><path d="M24.05,28.53a2.55,2.55,0,0,1,1.56.46,3.42,3.42,0,0,1,1,1.2,6.06,6.06,0,0,1,.54,1.7,11.6,11.6,0,0,1,0,3.84,6.09,6.09,0,0,1-.54,1.69,3.33,3.33,0,0,1-1,1.2,2.62,2.62,0,0,1-1.56.45,2.66,2.66,0,0,1-1.58-.45,3.31,3.31,0,0,1-1-1.2,5.77,5.77,0,0,1-.53-1.69,11.6,11.6,0,0,1,0-3.84,5.74,5.74,0,0,1,.53-1.7,3.39,3.39,0,0,1,1-1.2A2.59,2.59,0,0,1,24.05,28.53Zm0,.86a1.6,1.6,0,0,0-1.11.41,3,3,0,0,0-.69,1.05,5.55,5.55,0,0,0-.36,1.43,11.75,11.75,0,0,0,0,3.06,5.39,5.39,0,0,0,.36,1.41,2.79,2.79,0,0,0,.69,1,1.59,1.59,0,0,0,1.11.4,1.57,1.57,0,0,0,1.1-.4,2.79,2.79,0,0,0,.69-1,6.31,6.31,0,0,0,.37-1.41,11.75,11.75,0,0,0,0-3.06,6.49,6.49,0,0,0-.37-1.43,3,3,0,0,0-.69-1.05A1.58,1.58,0,0,0,24.05,29.39Z" style="fill:#4f4f4f"/><path d="M32.5,28.53a2.55,2.55,0,0,1,1.56.46,3.3,3.3,0,0,1,1,1.2,5.75,5.75,0,0,1,.55,1.7,11.6,11.6,0,0,1,0,3.84,5.79,5.79,0,0,1-.55,1.69,3.22,3.22,0,0,1-1,1.2,2.62,2.62,0,0,1-1.56.45,2.66,2.66,0,0,1-1.58-.45,3.22,3.22,0,0,1-1-1.2,5.78,5.78,0,0,1-.54-1.69,12.36,12.36,0,0,1,0-3.84,5.75,5.75,0,0,1,.54-1.7,3.3,3.3,0,0,1,1-1.2A2.59,2.59,0,0,1,32.5,28.53Zm0,.86a1.57,1.57,0,0,0-1.11.41,2.89,2.89,0,0,0-.7,1.05,5.55,5.55,0,0,0-.35,1.43,11.75,11.75,0,0,0,0,3.06,5.39,5.39,0,0,0,.35,1.41,2.69,2.69,0,0,0,.7,1,1.56,1.56,0,0,0,1.11.4,1.55,1.55,0,0,0,1.09-.4,2.69,2.69,0,0,0,.7-1,5.82,5.82,0,0,0,.36-1.41,10.7,10.7,0,0,0,0-3.06,6,6,0,0,0-.36-1.43,2.89,2.89,0,0,0-.7-1.05A1.55,1.55,0,0,0,32.5,29.39Z" style="fill:#4f4f4f"/></svg>