<svg id="Layer_1" data-name="Layer 1" xmlns="http://www.w3.org/2000/svg" viewBox="0 0 48 48"><defs><style>.cls-1{font-size:10.4px;fill:#707070;font-family:SegoeUI-Light, Segoe UI;}.cls-2{letter-spacing:-0.02em;}.cls-3{fill:#0c0;}</style></defs><title>SageUS</title><text class="cls-1" transform="translate(34.25 38.6)"><tspan class="cls-2">U</tspan><tspan x="6.58" y="0">S</tspan></text><path class="cls-3" d="M39.61,15c-3.24,0-5.36,2.22-5.36,5.9,0,4.56,3.24,5.87,5.57,5.87a6.35,6.35,0,0,0,4.61-2l-1.5-1.5a4.32,4.32,0,0,1-3.08,1.14c-1.81,0-3-1.05-3-2.5h8.06S46.28,15,39.61,15M36.83,20a2.83,2.83,0,0,1,3.07-2.89,2.81,2.81,0,0,1,3,2.89Z"/><path class="cls-3" d="M9.93,19.76c-1-.13-4,0-4-1.38,0-.8,1.26-1.24,2.4-1.24a6.13,6.13,0,0,1,3.41,1l1.56-1.54a8,8,0,0,0-5-1.57c-2.55,0-4.84,1.33-4.84,3.47,0,3.27,4,3.27,5.6,3.44,1,.1,1.91.16,1.91,1.14s-1.39,1.42-2.47,1.42A5.23,5.23,0,0,1,4.66,23L3,24.64a7.65,7.65,0,0,0,5.38,2.13c3,0,5.11-1.3,5.11-3.93,0-1.73-1.17-2.77-3.56-3.08"/><path class="cls-3" d="M18.44,15a7.25,7.25,0,0,0-4.55,1.57l1.56,1.56a4.91,4.91,0,0,1,3-1c2,0,2.56.79,2.56,1.67v1.11H17.51c-1.3,0-3.85.33-3.85,3.19,0,2.1,1.2,3.64,4.07,3.64A4,4,0,0,0,21,25.41v1.14h2.55V19c0-2.64-1.61-4-5.13-4M21,22.43c0,2.18-1.56,2.06-2.93,2.06s-2.3-.37-2.3-1.35.73-1.21,2.24-1.21h3v.5Z"/><path class="cls-3" d="M31.43,15.24V16.5A4.14,4.14,0,0,0,28.11,15,3.89,3.89,0,0,0,24,17.81a13.06,13.06,0,0,0-.21,3.07,8.72,8.72,0,0,0,.5,3.72,4.35,4.35,0,0,0,3.78,2.18,4.3,4.3,0,0,0,3.32-1.45V26a2.13,2.13,0,0,1-.81,1.81,3.23,3.23,0,0,1-2.13.7,3.88,3.88,0,0,1-2.1-.79l-1.72,1.72A6.26,6.26,0,0,0,28.53,31a5.84,5.84,0,0,0,3.81-1.29A5.06,5.06,0,0,0,34,25.78V15.24Zm0,5.63a11.21,11.21,0,0,1-.09,1.87,2.44,2.44,0,0,1-2.5,1.69c-.39,0-2.31-.22-2.53-1.9a12.44,12.44,0,0,1-.07-1.66,10.57,10.57,0,0,1,.12-2,2.45,2.45,0,0,1,2.49-1.63,2.35,2.35,0,0,1,2.5,1.73,14.08,14.08,0,0,1,.09,1.94"/></svg>