<svg xmlns="http://www.w3.org/2000/svg" viewBox="0 0 48 48"><title>sage50uk</title><path d="M39.37,30.71c0,2-.86,3-2.59,3s-2.46-1-2.46-2.92V26.34h.5v4.41c0,1.69.69,2.54,2.06,2.54s2-.82,2-2.46V26.34h.49Z" style="fill:#707070"/><path d="M45,33.62l-3.1-3.48a.53.53,0,0,1-.12-.17h0v3.65h-.51V26.34h.51v3.43h0a.59.59,0,0,1,.13-.17l2.95-3.26h.65l-3.19,3.53,3.39,3.75Z" style="fill:#707070"/><path d="M38.84,10c-3.24,0-5.36,2.23-5.36,5.9,0,4.56,3.24,5.87,5.57,5.87a6.35,6.35,0,0,0,4.61-2l-1.5-1.5a4.33,4.33,0,0,1-3.08,1.14c-1.81,0-3-1-3-2.5h8.06S45.51,10,38.84,10m-2.78,5a2.83,2.83,0,0,1,3.06-2.89,2.81,2.81,0,0,1,3,2.89Z" style="fill:#0c0"/><path d="M9.16,14.79c-1-.13-4,0-4-1.38,0-.8,1.26-1.24,2.4-1.24a6.05,6.05,0,0,1,3.41,1l1.55-1.55a8,8,0,0,0-5-1.57C5,10,2.7,11.37,2.7,13.5c0,3.28,4,3.28,5.61,3.44,1,.1,1.91.16,1.91,1.14S8.82,19.5,7.74,19.5A5.25,5.25,0,0,1,3.89,18L2.23,19.66A7.65,7.65,0,0,0,7.61,21.8c3,0,5.11-1.31,5.11-3.93,0-1.73-1.17-2.77-3.56-3.08" style="fill:#0c0"/><path d="M17.67,10a7.28,7.28,0,0,0-4.55,1.57l1.56,1.56a4.92,4.92,0,0,1,3-1c2,0,2.57.79,2.57,1.68V15H16.74c-1.31,0-3.86.32-3.86,3.18,0,2.11,1.2,3.65,4.08,3.65a4,4,0,0,0,3.29-1.37v1.15H22.8V14c0-2.63-1.62-4-5.13-4m2.59,7.43c0,2.17-1.55,2.06-2.93,2.06S15,19.15,15,18.17,15.76,17,17.27,17h3v.51Z" style="fill:#0c0"/><path d="M30.66,10.27v1.26A4.14,4.14,0,0,0,27.34,10a3.89,3.89,0,0,0-4.07,2.8,13.26,13.26,0,0,0-.21,3.07,8.7,8.7,0,0,0,.51,3.72,4.43,4.43,0,0,0,7.09.73v.71a2.12,2.12,0,0,1-.81,1.8,3.25,3.25,0,0,1-2.14.7,3.93,3.93,0,0,1-2.1-.78l-1.72,1.71A6.2,6.2,0,0,0,27.76,26a5.81,5.81,0,0,0,3.81-1.29,5.05,5.05,0,0,0,1.67-3.92V10.27Zm0,5.63a10.55,10.55,0,0,1-.09,1.87,2.44,2.44,0,0,1-2.5,1.69c-.39,0-2.31-.23-2.53-1.9a13.18,13.18,0,0,1-.08-1.66,10.36,10.36,0,0,1,.12-2,2.44,2.44,0,0,1,2.49-1.63A2.33,2.33,0,0,1,30.57,14a12.55,12.55,0,0,1,.09,1.94" style="fill:#0c0"/></svg>