<svg id="CURRENT" xmlns="http://www.w3.org/2000/svg" viewBox="0 0 48 48"><title>sagebcaccounting</title><path d="M39.55,12.87c-3.23,0-5.35,2.22-5.35,5.88,0,4.54,3.24,5.84,5.55,5.84a6.35,6.35,0,0,0,4.59-2l-1.49-1.49a4.26,4.26,0,0,1-3.07,1.13c-1.8,0-3-1.05-3-2.49h8s1.4-6.9-5.25-6.9m-2.78,4.94a2.82,2.82,0,0,1,3.06-2.88,2.79,2.79,0,0,1,3,2.88Z" style="fill:#00dc00"/><path d="M10,17.61c-1-.13-4,0-4-1.37C6,15.44,7.23,15,8.38,15a6,6,0,0,1,3.4,1l1.54-1.55a7.94,7.94,0,0,0-4.94-1.57c-2.54,0-4.82,1.33-4.82,3.46,0,3.26,3.94,3.26,5.58,3.42,1,.1,1.91.17,1.91,1.15s-1.39,1.41-2.47,1.41a5.24,5.24,0,0,1-3.84-1.5L3.08,22.47a7.61,7.61,0,0,0,5.36,2.12c2.94,0,5.09-1.3,5.09-3.91,0-1.74-1.16-2.77-3.55-3.07" style="fill:#00dc00"/><path d="M18.47,12.87a7.23,7.23,0,0,0-4.53,1.57L15.49,16a4.92,4.92,0,0,1,3-1c2,0,2.54.78,2.54,1.67v1.1H17.54c-1.3,0-3.84.33-3.84,3.17,0,2.09,1.2,3.63,4.06,3.63A4,4,0,0,0,21,23.23v1.13h2.54v-7.5c0-2.63-1.61-4-5.1-4m2.58,7.4c0,2.17-1.55,2.05-2.93,2.05S15.83,22,15.83,21s.73-1.2,2.23-1.2h3Z" style="fill:#00dc00"/><path d="M31.41,13.11v1.26a4.09,4.09,0,0,0-3.31-1.5A3.9,3.9,0,0,0,24,15.66a13.11,13.11,0,0,0-.21,3.06,8.45,8.45,0,0,0,.51,3.7,4.42,4.42,0,0,0,7.07.73v.71a2.14,2.14,0,0,1-.82,1.8,3.19,3.19,0,0,1-2.12.69,3.92,3.92,0,0,1-2.1-.77l-1.7,1.7a6.2,6.2,0,0,0,3.85,1.52,5.78,5.78,0,0,0,3.8-1.28A5,5,0,0,0,34,23.61V13.11Zm0,5.61a11.42,11.42,0,0,1-.09,1.86,2.4,2.4,0,0,1-2.48,1.68c-.38,0-2.31-.21-2.52-1.88a11.43,11.43,0,0,1-.08-1.66,9.63,9.63,0,0,1,.12-2,2.44,2.44,0,0,1,2.48-1.62,2.33,2.33,0,0,1,2.49,1.72,14.65,14.65,0,0,1,.08,1.94" style="fill:#00dc00"/><path d="M3.93,37.46V28.34H7a4.55,4.55,0,0,1,1.34.17,1.88,1.88,0,0,1,.79.44,1.42,1.42,0,0,1,.4.65,2.91,2.91,0,0,1,.13.85,2.2,2.2,0,0,1-.14.8,1.78,1.78,0,0,1-.36.58,2.07,2.07,0,0,1-.54.39,3,3,0,0,1-.69.25l-.18,0v.43l.2,0a2.46,2.46,0,0,1,1.59.69A2,2,0,0,1,10,35.1a2.39,2.39,0,0,1-.24,1.13,1.75,1.75,0,0,1-.65.7,2.93,2.93,0,0,1-1,.4,6.64,6.64,0,0,1-1.39.13Zm.73-.54H6.54a7.79,7.79,0,0,0,1-.06,2.23,2.23,0,0,0,.86-.26A1.48,1.48,0,0,0,9,36a1.94,1.94,0,0,0,.22-1A2,2,0,0,0,9,34.11a1.7,1.7,0,0,0-.54-.62,2.48,2.48,0,0,0-.78-.33,4.36,4.36,0,0,0-.9-.09H4.66Zm0-4.38H6.29a5,5,0,0,0,.85-.07A2.76,2.76,0,0,0,8,32.2a2,2,0,0,0,.65-.6,1.76,1.76,0,0,0,.26-1,2.1,2.1,0,0,0-.15-.84,1.26,1.26,0,0,0-.46-.56,1.73,1.73,0,0,0-.72-.28,5,5,0,0,0-.91-.07h-2Z" style="fill:#8e8a86"/><path d="M14.27,37.63a4.54,4.54,0,0,1-1.83-.33,3,3,0,0,1-1.22-.91,4,4,0,0,1-.7-1.44,7.49,7.49,0,0,1-.23-1.9,6.69,6.69,0,0,1,.3-2.08,4.2,4.2,0,0,1,.85-1.53,3.67,3.67,0,0,1,1.32-.94,4.52,4.52,0,0,1,1.76-.33,4.58,4.58,0,0,1,1.32.18,2.53,2.53,0,0,1,1,.54,2.57,2.57,0,0,1,.69.92,3.67,3.67,0,0,1,.29,1.13l-.68.08a3.05,3.05,0,0,0-.73-1.61,2.57,2.57,0,0,0-1.91-.65A3.2,3.2,0,0,0,12,29.82a4.71,4.71,0,0,0-.9,3.13,7,7,0,0,0,.21,1.83,3.39,3.39,0,0,0,.64,1.29,2.48,2.48,0,0,0,1.05.75,3.72,3.72,0,0,0,1.37.24,2.88,2.88,0,0,0,1.89-.56,2.67,2.67,0,0,0,.86-1.42l.65.14a3,3,0,0,1-.41,1,2.72,2.72,0,0,1-.81.81,3.33,3.33,0,0,1-1.06.45A5.39,5.39,0,0,1,14.27,37.63Z" style="fill:#8e8a86"/><path d="M22.16,28.47l3.09,8.94h-.91l-1-2.88h-3.6l-1,2.88H18l3-8.94Zm-.58.68L20,33.81h3.13Z" style="fill:#8b8782"/></svg>