<svg id="ad848d3a-3fb0-4089-a85c-ca7df30e454c"   xmlns="http://www.w3.org/2000/svg" viewBox="0 0 48 48">
  <defs>
    <style>
      .e517173b-fda1-4866-a646-d56a83b21e8f {
        fill: #0f9bd7;
      }

      .\39 d8e91c8-84bf-4561-87b7-04303ac7e4a7 {
        fill: #fff;
      }
    </style>
  </defs>
  <title>salesforce chatter</title>
  <g>
    <path class="e517173b-fda1-4866-a646-d56a83b21e8f" d="M20.43,10.44A7.74,7.74,0,0,1,26.05,8a7.86,7.86,0,0,1,6.84,4.05,9.26,9.26,0,0,1,3.88-.82,9.64,9.64,0,0,1-.06,19.28,9.28,9.28,0,0,1-1.82-.18,7,7,0,0,1-9.16,2.87,8,8,0,0,1-14.82-.36A7.77,7.77,0,0,1,9.39,33a7.49,7.49,0,0,1-3.7-14,8.61,8.61,0,0,1,14.75-8.64"/>
    <g>
      <path class="9d8e91c8-84bf-4561-87b7-04303ac7e4a7" d="M11.17,19.14a2.94,2.94,0,0,1,.94.15,2.83,2.83,0,0,1,.81.42l-.36.61a2.3,2.3,0,0,0-1.39-.44,1.54,1.54,0,0,0-1.29.55,2.76,2.76,0,0,0,0,3,1.54,1.54,0,0,0,1.28.56,2.65,2.65,0,0,0,1.41-.44l.32.62a3,3,0,0,1-1.8.57,2.51,2.51,0,0,1-1.45-.4,2.31,2.31,0,0,1-.83-1,3.77,3.77,0,0,1-.25-1.35,2.86,2.86,0,0,1,.69-2A2.46,2.46,0,0,1,11.17,19.14Z"/>
      <path class="9d8e91c8-84bf-4561-87b7-04303ac7e4a7" d="M13.76,17.23h.87V20h0a1.86,1.86,0,0,1,.7-.63,2.18,2.18,0,0,1,1.1-.25,1.75,1.75,0,0,1,1.46.58,2.15,2.15,0,0,1,.48,1.43v3.4h-.88V21.33a1.63,1.63,0,0,0-.31-1,1.16,1.16,0,0,0-1-.41,1.47,1.47,0,0,0-1.15.47,1.71,1.71,0,0,0-.43,1.18v3h-.87Z"/>
      <path class="9d8e91c8-84bf-4561-87b7-04303ac7e4a7" d="M19.31,23.11a1.46,1.46,0,0,1,.74-1.42,4.9,4.9,0,0,1,2.23-.4h.54V21a1.12,1.12,0,0,0-.32-.88,1.43,1.43,0,0,0-1-.28,3,3,0,0,0-1.58.44l-.31-.59a3.67,3.67,0,0,1,1.94-.55,2.22,2.22,0,0,1,1.62.52,2.15,2.15,0,0,1,.51,1.57v2.15a9.46,9.46,0,0,0,.08,1.17H23a4.5,4.5,0,0,1-.07-.71h0a1.94,1.94,0,0,1-.73.64A2.69,2.69,0,0,1,21,24.7a1.81,1.81,0,0,1-1.23-.41A1.49,1.49,0,0,1,19.31,23.11Zm3.51-.5v-.69h-.46a5.88,5.88,0,0,0-1.24.1,1.26,1.26,0,0,0-.68.35,1,1,0,0,0-.22.69.88.88,0,0,0,.27.7,1.06,1.06,0,0,0,.74.24,1.69,1.69,0,0,0,.86-.21,1.56,1.56,0,0,0,.55-.53A1.3,1.3,0,0,0,22.82,22.61Z"/>
      <path class="9d8e91c8-84bf-4561-87b7-04303ac7e4a7" d="M26.11,19.29h1.4V20h-1.4v3.18q0,.84.78.84a1.72,1.72,0,0,0,.52-.07l.13.65a2.27,2.27,0,0,1-.82.14,1.37,1.37,0,0,1-1.49-1.49V20H24.3v-.57l.92-.1V18l.89-.31Z"/>
      <path class="9d8e91c8-84bf-4561-87b7-04303ac7e4a7" d="M29.78,19.29h1.39V20H29.78v3.18c0,.56.25.84.77.84a1.72,1.72,0,0,0,.52-.07l.13.65a2.21,2.21,0,0,1-.81.14,1.51,1.51,0,0,1-1.1-.39,1.49,1.49,0,0,1-.39-1.1V20H28v-.57l.92-.1V18l.89-.31Z"/>
      <path class="9d8e91c8-84bf-4561-87b7-04303ac7e4a7" d="M36.38,22.24H32.47A2.07,2.07,0,0,0,33,23.52,1.6,1.6,0,0,0,34.2,24a2.82,2.82,0,0,0,.85-.12,3.66,3.66,0,0,0,.76-.39l.39.57a3.48,3.48,0,0,1-.94.48,3.6,3.6,0,0,1-1.12.17,2.38,2.38,0,0,1-1.88-.77,2.93,2.93,0,0,1-.68-2,3.23,3.23,0,0,1,.29-1.43,2.16,2.16,0,0,1,.84-1A2.46,2.46,0,0,1,34,19.14a2.1,2.1,0,0,1,1.75.75,3,3,0,0,1,.61,2A3.32,3.32,0,0,1,36.38,22.24Zm-.84-.69a2.06,2.06,0,0,0-.4-1.26A1.34,1.34,0,0,0,34,19.82a1.39,1.39,0,0,0-1.14.49,2,2,0,0,0-.43,1.24Z"/>
      <path class="9d8e91c8-84bf-4561-87b7-04303ac7e4a7" d="M37.42,20.47a9.45,9.45,0,0,0-.07-1.18h.84c0,.23.06.51.07.83h0a1.67,1.67,0,0,1,1.66-1l.3,0-.06.76-.32,0a1.37,1.37,0,0,0-1.15.51,2,2,0,0,0-.41,1.31v2.82h-.88Z"/>
    </g>
  </g>
</svg>
