<svg xmlns="http://www.w3.org/2000/svg" viewBox="0 0 48 48"><defs><style>.cls-1{fill:#06492e;}.cls-2{fill:#fff;}.cls-3{fill:#b4d625;}</style></defs><g id="salesloft"><rect class="cls-1" x="6.28" y="6.28" width="35.43" height="35.43"/><path class="cls-2" d="M18,15.84c0-1.73,1.67-3.13,3.8-3.13,2.73,0,4.4,1.26,5.33,7.86h.6l.87-9c-6.2-2.13-13.8.14-13.93,6.6,0,7,11.13,7,11.13,13.39a3.32,3.32,0,0,1-3.53,3.14c-4.93,0-6.07-4.13-6.33-8.47h-.6l-1.6,8.13A17.18,17.18,0,0,0,21.3,36.5c4.74-.07,7.87-3.54,8-7.2C29.3,22.3,18,20.84,18,15.84Z"/><path class="cls-3" d="M29.3,34a2.5,2.5,0,1,1,2.53,2.47A2.4,2.4,0,0,1,29.3,34Z"/></g></svg>