<svg id="CURRENT" xmlns="http://www.w3.org/2000/svg" viewBox="0 0 48 48">
  <title>salesforcemarketingcloud</title>
  <g>
    <g>
      <path d="M2,35.76a5.58,5.58,0,0,0,0-.7h.5a2.45,2.45,0,0,1,0,.44h0A1.08,1.08,0,0,1,3,35.12,1.26,1.26,0,0,1,3.57,35a1.14,1.14,0,0,1,.65.17.91.91,0,0,1,.37.47h0A1.15,1.15,0,0,1,5,35.14,1.31,1.31,0,0,1,5.71,35a1.15,1.15,0,0,1,.64.17,1,1,0,0,1,.39.44,1.54,1.54,0,0,1,.12.61v2H6.34V36.26a1,1,0,0,0-.18-.61.65.65,0,0,0-.56-.25.81.81,0,0,0-.49.15,1,1,0,0,0-.31.4,1.32,1.32,0,0,0-.1.53v1.71H4.17V36.25a1,1,0,0,0-.17-.6.64.64,0,0,0-.56-.25.8.8,0,0,0-.65.29,1.07,1.07,0,0,0-.24.71v1.79H2Z" style="fill: #6b6b6b"/>
      <path d="M7.52,37.34A.89.89,0,0,1,8,36.49a2.87,2.87,0,0,1,1.33-.24h.32v-.18a.65.65,0,0,0-.19-.52.81.81,0,0,0-.58-.18,1.74,1.74,0,0,0-.94.27l-.19-.35A2.14,2.14,0,0,1,8.87,35a1.32,1.32,0,0,1,1,.31,1.27,1.27,0,0,1,.31.94V37.5a5.43,5.43,0,0,0,0,.69H9.7a2.61,2.61,0,0,1,0-.42h0a1.07,1.07,0,0,1-.44.38,1.45,1.45,0,0,1-.67.13A1.07,1.07,0,0,1,7.8,38,.87.87,0,0,1,7.52,37.34ZM9.61,37v-.41H9.34a3.6,3.6,0,0,0-.74.06.93.93,0,0,0-.41.21.6.6,0,0,0-.13.42.5.5,0,0,0,.16.41.63.63,0,0,0,.44.15,1,1,0,0,0,.52-.13.82.82,0,0,0,.32-.32A.67.67,0,0,0,9.61,37Z" style="fill: #6b6b6b"/>
      <path d="M11,35.76a5.58,5.58,0,0,0,0-.7h.5c0,.14,0,.3,0,.5h0a1,1,0,0,1,1-.59l.18,0,0,.45h-.2a.83.83,0,0,0-.69.3,1.21,1.21,0,0,0-.24.78v1.68H11Z" style="fill: #6b6b6b"/>
      <path d="M14.08,36.69l-.3.28v1.22h-.53V33.83h.53v2.55l1.42-1.32h.63l-1.39,1.29L16,38.19h-.65Z" style="fill: #6b6b6b"/>
      <path d="M19,36.81H16.63a1.24,1.24,0,0,0,.28.77,1,1,0,0,0,.74.28,1.61,1.61,0,0,0,.51-.07,2,2,0,0,0,.45-.24l.24.34a2,2,0,0,1-1.23.39,1.43,1.43,0,0,1-1.12-.45,1.78,1.78,0,0,1-.4-1.22,2,2,0,0,1,.17-.86,1.32,1.32,0,0,1,.5-.57,1.43,1.43,0,0,1,.79-.21,1.27,1.27,0,0,1,1.05.45A1.78,1.78,0,0,1,19,36.59,1.09,1.09,0,0,1,19,36.81Zm-.5-.4a1.11,1.11,0,0,0-.24-.75.79.79,0,0,0-.65-.29.81.81,0,0,0-.68.3,1.18,1.18,0,0,0-.26.74Z" style="fill: #6b6b6b"/>
      <path d="M20.37,35.06h.83v.4h-.83v1.89c0,.34.15.51.46.51a1.06,1.06,0,0,0,.31,0l.08.39a1.48,1.48,0,0,1-.49.08.9.9,0,0,1-.65-.23.86.86,0,0,1-.24-.66V35.46h-.55v-.34l.55-.06v-.77l.53-.19Z" style="fill: #6b6b6b"/>
      <path d="M21.75,34a.31.31,0,0,1,.35-.34c.22,0,.33.11.33.34a.31.31,0,0,1-.08.23.32.32,0,0,1-.25.09.34.34,0,0,1-.27-.09A.36.36,0,0,1,21.75,34Zm.6,4.2h-.52V35.06h.52Z" style="fill: #6b6b6b"/>
      <path d="M23.3,35.76a5.58,5.58,0,0,0,0-.7h.5a3.94,3.94,0,0,1,0,.44h0a1.13,1.13,0,0,1,.43-.38A1.4,1.4,0,0,1,24.9,35a1.1,1.1,0,0,1,.88.34,1.31,1.31,0,0,1,.29.86v2h-.53V36.27a1,1,0,0,0-.18-.62.7.7,0,0,0-.6-.24.87.87,0,0,0-.68.28,1,1,0,0,0-.25.71v1.79H23.3Z" style="fill: #6b6b6b"/>
      <path d="M26.59,38.83a.8.8,0,0,1,.15-.47,1.36,1.36,0,0,1,.49-.39.43.43,0,0,1-.18-.71.74.74,0,0,1,.34-.19.84.84,0,0,1-.45-.35,1.07,1.07,0,0,1-.17-.61,1.05,1.05,0,0,1,.35-.83,1.42,1.42,0,0,1,1-.3,1.19,1.19,0,0,1,.28,0l.27.06h1.09v.42L29,35.4a.93.93,0,0,1,.24.3,1.08,1.08,0,0,1,.09.46.92.92,0,0,1-.34.77,1.44,1.44,0,0,1-.95.28,1.22,1.22,0,0,0-.48.08c-.12.06-.18.13-.18.23s.2.25.6.26a2.63,2.63,0,0,1,1.26.23.7.7,0,0,1,.39.66,1,1,0,0,1-.44.82,2.25,2.25,0,0,1-1.24.29,1.78,1.78,0,0,1-1-.25A.79.79,0,0,1,26.59,38.83Zm2.55-.12a.36.36,0,0,0-.14-.3,1,1,0,0,0-.47-.18,5.33,5.33,0,0,0-.91-.06,1.08,1.08,0,0,0-.4.28.56.56,0,0,0-.12.36q0,.57.9.57a1.61,1.61,0,0,0,.85-.17A.53.53,0,0,0,29.14,38.71Zm-.27-2.6a.77.77,0,0,0-.2-.54.82.82,0,0,0-.61-.2.83.83,0,0,0-.58.19.68.68,0,0,0-.22.53.7.7,0,0,0,.2.55.82.82,0,0,0,.6.2C28.6,36.84,28.87,36.6,28.87,36.11Z" style="fill: #6b6b6b"/>
      <path d="M32.87,35a1.69,1.69,0,0,1,.56.09,1.57,1.57,0,0,1,.48.25l-.21.36a1.39,1.39,0,0,0-.83-.26.9.9,0,0,0-.76.33,1.62,1.62,0,0,0,0,1.76.87.87,0,0,0,.75.34,1.55,1.55,0,0,0,.85-.27l.19.37a1.75,1.75,0,0,1-1.07.34A1.47,1.47,0,0,1,32,38a1.28,1.28,0,0,1-.49-.61,2.16,2.16,0,0,1-.15-.81,1.73,1.73,0,0,1,.41-1.2A1.48,1.48,0,0,1,32.87,35Z" style="fill: #6b6b6b"/>
      <path d="M35.06,33.83v4.36h-.52V33.83Z" style="fill: #6b6b6b"/>
      <path d="M39,36.62a2,2,0,0,1-.18.86,1.37,1.37,0,0,1-.55.59,1.61,1.61,0,0,1-.84.21,1.65,1.65,0,0,1-.85-.21,1.34,1.34,0,0,1-.54-.59,2,2,0,0,1-.19-.86,1.69,1.69,0,0,1,.42-1.2A1.48,1.48,0,0,1,37.4,35a1.65,1.65,0,0,1,.85.21,1.35,1.35,0,0,1,.54.57A2,2,0,0,1,39,36.62Zm-2.6,0a1.48,1.48,0,0,0,.25.9.9.9,0,0,0,.78.34.92.92,0,0,0,.78-.34,1.48,1.48,0,0,0,.26-.9,1.46,1.46,0,0,0-.26-.9.94.94,0,0,0-.78-.33.92.92,0,0,0-.78.33A1.46,1.46,0,0,0,36.37,36.62Z" style="fill: #6b6b6b"/>
      <path d="M39.68,37V35.06h.53v1.85a1.13,1.13,0,0,0,.19.69.67.67,0,0,0,.58.26.85.85,0,0,0,.69-.32,1.29,1.29,0,0,0,.26-.81V35.06h.52V37.5c0,.22,0,.46,0,.69H42a4.69,4.69,0,0,1,0-.49h0a1.16,1.16,0,0,1-1.08.58,1.06,1.06,0,0,1-.88-.36A1.41,1.41,0,0,1,39.68,37Z" style="fill: #6b6b6b"/>
      <path d="M46.25,38.19h-.49a2.77,2.77,0,0,1,0-.46h0a1.21,1.21,0,0,1-1.12.55,1.23,1.23,0,0,1-1-.45,2,2,0,0,1-.35-1.19,2.08,2.08,0,0,1,.17-.85,1.49,1.49,0,0,1,.51-.6,1.29,1.29,0,0,1,.77-.22,1.36,1.36,0,0,1,1,.41V33.83h.52V37.5A5.47,5.47,0,0,0,46.25,38.19Zm-.57-1.35v-1a1.16,1.16,0,0,0-.42-.35,1.25,1.25,0,0,0-.53-.11.86.86,0,0,0-.72.34,1.7,1.7,0,0,0,0,1.79.83.83,0,0,0,.7.33.92.92,0,0,0,.71-.28A1.05,1.05,0,0,0,45.68,36.84Z" style="fill: #6b6b6b"/>
    </g>
    <g>
      <path d="M21.12,10.78a6,6,0,0,1,9.65,1.27,7.46,7.46,0,1,1,3,14.31,7,7,0,0,1-1.46-.15,5.39,5.39,0,0,1-7.09,2.23,6.17,6.17,0,0,1-11.48-.28,5.84,5.84,0,0,1-1.18.13,5.77,5.77,0,0,1-5.74-5.8,5.83,5.83,0,0,1,2.87-5,6.67,6.67,0,0,1,11.43-6.69" style="fill: #0f9bd7"/>
      <path d="M11.8,20.63a.07.07,0,0,0,0,.08l.2.12a2.16,2.16,0,0,0,1,.24c.7,0,1.14-.38,1.14-1h0c0-.56-.5-.76-1-.91l-.06,0c-.35-.11-.65-.21-.65-.44h0c0-.2.18-.34.45-.34a2.21,2.21,0,0,1,.9.22s.06.05.09,0l.14-.38a.07.07,0,0,0,0-.08,2,2,0,0,0-1-.27H13a1,1,0,0,0-1.1.94v0c0,.58.5.78,1,.91l.08,0c.34.11.63.2.63.43v0c0,.21-.19.38-.5.38a1.75,1.75,0,0,1-.9-.26L12,20.21s-.07,0-.09,0Z" style="fill: #fff"/>
      <path d="M22.11,20.63c0,.06,0,.07,0,.08l.2.12a2.15,2.15,0,0,0,1,.24c.71,0,1.15-.38,1.15-1h0c0-.56-.5-.76-1-.91l-.06,0c-.35-.11-.65-.21-.65-.44h0c0-.2.17-.34.45-.34a2.12,2.12,0,0,1,.89.22s.07.05.09,0,.14-.35.15-.38a.06.06,0,0,0,0-.08,2,2,0,0,0-1-.27h-.07a1,1,0,0,0-1.09.94v0c0,.58.5.78,1,.91l.08,0c.33.11.63.2.63.43v0c0,.21-.19.38-.5.38a1.75,1.75,0,0,1-.91-.26l-.11-.08s-.08,0-.1,0Z" style="fill: #fff"/>
      <path d="M29.75,18.82a1.38,1.38,0,0,0-.27-.51A1.3,1.3,0,0,0,29,18a1.62,1.62,0,0,0-1.27,0,1.4,1.4,0,0,0-.45.35,1.23,1.23,0,0,0-.26.51,2.08,2.08,0,0,0-.09.63,2.13,2.13,0,0,0,.09.63,1.23,1.23,0,0,0,.26.51,1.2,1.2,0,0,0,.46.34,1.54,1.54,0,0,0,.63.13,1.57,1.57,0,0,0,.63-.13,1.17,1.17,0,0,0,.45-.34,1.38,1.38,0,0,0,.27-.51,2.53,2.53,0,0,0,.08-.63,2.47,2.47,0,0,0-.08-.63m-.59.63a1.5,1.5,0,0,1-.19.8.63.63,0,0,1-.57.28.61.61,0,0,1-.57-.28,1.78,1.78,0,0,1,0-1.6.62.62,0,0,1,.57-.27.65.65,0,0,1,.57.27,1.5,1.5,0,0,1,.19.8" style="fill: #fff"/>
      <path d="M34.58,20.44a.06.06,0,0,0-.08,0l-.27.08-.33,0a.88.88,0,0,1-.67-.25,1.14,1.14,0,0,1-.25-.8,1.27,1.27,0,0,1,.22-.78.79.79,0,0,1,.66-.29,2,2,0,0,1,.62.09.05.05,0,0,0,.07,0c.05-.14.09-.24.14-.4s0-.06,0-.07a2.32,2.32,0,0,0-.4-.1,2.76,2.76,0,0,0-.44,0,1.48,1.48,0,0,0-.65.13,1.39,1.39,0,0,0-.48.34,1.58,1.58,0,0,0-.28.51,1.91,1.91,0,0,0-.1.64,1.7,1.7,0,0,0,.39,1.17,1.48,1.48,0,0,0,1.16.43,2.68,2.68,0,0,0,.84-.14.07.07,0,0,0,0-.08Z" style="fill: #fff;fill-rule: evenodd"/>
      <path d="M37.59,18.71a1.29,1.29,0,0,0-.26-.47A1.07,1.07,0,0,0,37,18a1.41,1.41,0,0,0-.57-.11,1.69,1.69,0,0,0-.66.12,1.43,1.43,0,0,0-.45.35,1.36,1.36,0,0,0-.27.52,2.2,2.2,0,0,0-.09.64,2.13,2.13,0,0,0,.09.63,1.28,1.28,0,0,0,.29.51,1.37,1.37,0,0,0,.5.33,1.94,1.94,0,0,0,.72.12,2.12,2.12,0,0,0,1-.2s.05,0,0-.1l-.13-.36a.05.05,0,0,0-.07,0,1.86,1.86,0,0,1-.82.15.9.9,0,0,1-.68-.24.89.89,0,0,1-.23-.66h2a0,0,0,0,0,0-.05,2,2,0,0,0,0-.85m-2,.41a1.18,1.18,0,0,1,.17-.47.63.63,0,0,1,.56-.29.62.62,0,0,1,.56.29,1,1,0,0,1,.14.47Z" style="fill: #fff;fill-rule: evenodd"/>
      <path d="M21.64,18.71a1.29,1.29,0,0,0-.26-.47A1,1,0,0,0,21,18a1.48,1.48,0,0,0-.57-.11,1.66,1.66,0,0,0-.66.12,1.37,1.37,0,0,0-.46.35,1.51,1.51,0,0,0-.27.52,2.2,2.2,0,0,0-.09.64,2.13,2.13,0,0,0,.09.63,1.28,1.28,0,0,0,.29.51,1.37,1.37,0,0,0,.5.33,2,2,0,0,0,.73.12,2.19,2.19,0,0,0,1-.2.08.08,0,0,0,0-.1l-.14-.36a.05.05,0,0,0-.07,0,1.83,1.83,0,0,1-.82.15.9.9,0,0,1-.68-.24.89.89,0,0,1-.23-.66h2a.06.06,0,0,0,.06-.05,2.1,2.1,0,0,0-.06-.85m-2,.41a1.18,1.18,0,0,1,.16-.47.7.7,0,0,1,1.13,0,1.08,1.08,0,0,1,.13.47Z" style="fill: #fff;fill-rule: evenodd"/>
      <path d="M16.15,19h-.31a1.93,1.93,0,0,0-.49.06,1.35,1.35,0,0,0-.42.19,1,1,0,0,0-.29.33,1,1,0,0,0-.11.46.88.88,0,0,0,.1.45.74.74,0,0,0,.26.32,1,1,0,0,0,.4.17,2.15,2.15,0,0,0,.53.06,3.94,3.94,0,0,0,.6,0l.5-.1.14,0a.06.06,0,0,0,.05-.06V19a1.11,1.11,0,0,0-.32-.88,1.31,1.31,0,0,0-.91-.28,3.29,3.29,0,0,0-.54.05,2,2,0,0,0-.61.23s0,0,0,.08l.14.37a.06.06,0,0,0,.07,0l0,0a2,2,0,0,1,.87-.2.77.77,0,0,1,.49.13c.11.08.16.21.16.47v.09l-.32,0m-.8,1.4-.11-.12a.48.48,0,0,1-.06-.26.45.45,0,0,1,.18-.39.87.87,0,0,1,.58-.14,4,4,0,0,1,.54,0v.91a5.21,5.21,0,0,1-.54.07,1,1,0,0,1-.59-.11" style="fill: #fff"/>
      <path d="M32.21,18a.06.06,0,0,0,0-.07,2.45,2.45,0,0,0-.34-.06,1.1,1.1,0,0,0-.51.08,1.07,1.07,0,0,0-.34.25V18a.06.06,0,0,0,0-.06h-.51a.06.06,0,0,0-.06.06v3a.06.06,0,0,0,.06.06H31a.06.06,0,0,0,.06-.06V19.45a1.62,1.62,0,0,1,.07-.53.74.74,0,0,1,.17-.29.64.64,0,0,1,.25-.15.88.88,0,0,1,.27,0,.93.93,0,0,1,.21,0s.06,0,.08,0l.15-.42" style="fill: #fff;fill-rule: evenodd"/>
      <path d="M27.3,16.62l-.2,0a1.14,1.14,0,0,0-.27,0,1.12,1.12,0,0,0-.84.3,1.57,1.57,0,0,0-.4.9l0,.14h-.45A.06.06,0,0,0,25,18l-.07.42s0,.06.06.06h.44L25,20.92a4.66,4.66,0,0,1-.12.5,1.45,1.45,0,0,1-.14.28.42.42,0,0,1-.18.14.88.88,0,0,1-.24,0h-.16l-.11,0a.05.05,0,0,0-.07,0s-.13.37-.14.41a.05.05,0,0,0,0,.08l.18.05a1,1,0,0,0,.29,0,1.48,1.48,0,0,0,.49-.08,1,1,0,0,0,.37-.25,1.31,1.31,0,0,0,.25-.45,4,4,0,0,0,.18-.67l.45-2.54h.65a.07.07,0,0,0,.07-.06L26.9,18s0-.06-.06-.06H26.2s0-.24.11-.45a.55.55,0,0,1,.14-.21.39.39,0,0,1,.17-.11.66.66,0,0,1,.21,0l.16,0,.1,0c.07,0,.08,0,.09,0l.15-.42s0-.06,0-.07" style="fill: #fff;fill-rule: evenodd"/>
      <rect x="17.76" y="16.62" width="0.64" height="4.37" rx="0.06" ry="0.06" style="fill: #fff"/>
    </g>
  </g>
</svg>
