<svg xmlns="http://www.w3.org/2000/svg" viewBox="0 0 48 48"><title>salesforcepardot</title><g id="CURRENT"><path d="M21.69,13.31a4.79,4.79,0,0,1,3.47-1.49,4.84,4.84,0,0,1,4.22,2.51,5.79,5.79,0,0,1,2.39-.51,6,6,0,0,1,0,11.9,5.5,5.5,0,0,1-1.16-.12,4.32,4.32,0,0,1-3.77,2.21A4.25,4.25,0,0,1,25,27.38a4.92,4.92,0,0,1-9.15-.22,4.83,4.83,0,0,1-.94.09,4.58,4.58,0,0,1-4.56-4.61,4.63,4.63,0,0,1,2.28-4,5.31,5.31,0,0,1,9.1-5.33" style="fill:#0f9bd7"/><path d="M14.27,21.16s0,.05,0,.06a.83.83,0,0,0,.16.09,1.64,1.64,0,0,0,.82.19c.56,0,.91-.29.91-.78h0c0-.45-.4-.61-.77-.73h-.05c-.27-.09-.51-.17-.51-.35h0c0-.16.14-.28.35-.28a1.54,1.54,0,0,1,.72.19s.05,0,.07,0l.12-.31a0,0,0,0,0,0-.06,1.57,1.57,0,0,0-.81-.22h0a.78.78,0,0,0-.87.76h0c0,.47.39.62.76.72l.06,0c.27.09.5.16.5.35h0c0,.17-.15.3-.39.3a1.27,1.27,0,0,1-.72-.21l-.1-.06s0,0-.07,0Z" style="fill:#fff"/><path d="M22.49,21.16s0,.05,0,.06a1.19,1.19,0,0,0,.15.09,1.67,1.67,0,0,0,.82.19c.56,0,.91-.29.91-.78h0c0-.45-.39-.61-.76-.73h-.05c-.28-.09-.52-.17-.52-.35h0c0-.16.14-.28.36-.28a1.5,1.5,0,0,1,.71.19s.06,0,.08,0l.11-.31a0,0,0,0,0,0-.06,1.56,1.56,0,0,0-.8-.22h-.06a.78.78,0,0,0-.87.76h0c0,.47.4.62.77.72l.06,0c.27.09.5.16.5.35h0c0,.17-.15.3-.39.3a1.32,1.32,0,0,1-.73-.21l-.09-.06s-.06,0-.07,0Z" style="fill:#fff"/><path d="M28.56,19.71A1,1,0,0,0,28,19a1.12,1.12,0,0,0-.5-.1A1.19,1.19,0,0,0,27,19a1.06,1.06,0,0,0-.35.27,1.25,1.25,0,0,0-.22.41,1.86,1.86,0,0,0,0,1,1.11,1.11,0,0,0,.22.4.92.92,0,0,0,.36.28,1.43,1.43,0,0,0,1,0,1.07,1.07,0,0,0,.57-.68,1.7,1.7,0,0,0,.07-.51,1.68,1.68,0,0,0-.07-.5m-.47.5a1.14,1.14,0,0,1-.15.64.49.49,0,0,1-.45.22.51.51,0,0,1-.46-.22,1.24,1.24,0,0,1-.14-.64,1.23,1.23,0,0,1,.14-.63.51.51,0,0,1,.46-.22.49.49,0,0,1,.45.22,1.13,1.13,0,0,1,.15.63" style="fill:#fff"/><path d="M32.41,21a.05.05,0,0,0-.06,0l-.22.07h-.26a.69.69,0,0,1-.53-.2.89.89,0,0,1-.2-.64.94.94,0,0,1,.18-.61.59.59,0,0,1,.52-.23,1.49,1.49,0,0,1,.49.07.05.05,0,0,0,.06,0l.11-.32a0,0,0,0,0,0-.06L32.16,19l-.35,0a1.21,1.21,0,0,0-.52.1,1.05,1.05,0,0,0-.38.27,1.18,1.18,0,0,0-.23.41,1.59,1.59,0,0,0-.07.5,1.35,1.35,0,0,0,.31.94,1.17,1.17,0,0,0,.92.34,2,2,0,0,0,.67-.12s0,0,0-.05Z" style="fill:#fff;fill-rule:evenodd"/><path d="M34.81,19.62a.92.92,0,0,0-.21-.37,1,1,0,0,0-.3-.23,1.31,1.31,0,0,0-1,0,1.09,1.09,0,0,0-.36.28,1.25,1.25,0,0,0-.22.41,2.09,2.09,0,0,0-.07.51,1.59,1.59,0,0,0,.08.5.93.93,0,0,0,.23.41,1,1,0,0,0,.4.26,1.39,1.39,0,0,0,.57.09,1.75,1.75,0,0,0,.8-.15s0,0,0-.08l-.1-.29a.05.05,0,0,0-.06,0,1.57,1.57,0,0,1-.65.12.66.66,0,0,1-.73-.71h1.59a0,0,0,0,0,0,0,1.73,1.73,0,0,0,0-.69M33.23,20a.81.81,0,0,1,.13-.37.49.49,0,0,1,.45-.23.47.47,0,0,1,.44.23.73.73,0,0,1,.11.37Z" style="fill:#fff;fill-rule:evenodd"/><path d="M22.11,19.62a.92.92,0,0,0-.21-.37,1,1,0,0,0-.3-.23,1.31,1.31,0,0,0-1,0,1.09,1.09,0,0,0-.36.28,1.25,1.25,0,0,0-.22.41,2.09,2.09,0,0,0-.07.51,1.59,1.59,0,0,0,.08.5,1,1,0,0,0,.23.41,1,1,0,0,0,.4.26,1.42,1.42,0,0,0,.57.09,1.75,1.75,0,0,0,.8-.15s0,0,0-.08L22,21a.05.05,0,0,0-.06,0,1.53,1.53,0,0,1-.65.12.66.66,0,0,1-.73-.71h1.59a0,0,0,0,0,0,0,1.54,1.54,0,0,0,0-.69M20.53,20a.81.81,0,0,1,.13-.37.49.49,0,0,1,.45-.23.5.5,0,0,1,.45.23.84.84,0,0,1,.1.37Z" style="fill:#fff;fill-rule:evenodd"/><path d="M17.73,19.88h-.24a1.75,1.75,0,0,0-.4.05,1.24,1.24,0,0,0-.33.15.87.87,0,0,0-.23.27.9.9,0,0,0,0,.72.64.64,0,0,0,.21.25.78.78,0,0,0,.32.14,1.87,1.87,0,0,0,.42,0,2.52,2.52,0,0,0,.48,0l.4-.07.11,0a.05.05,0,0,0,0-.05V19.85a.9.9,0,0,0-.25-.7,1.08,1.08,0,0,0-.73-.22,2.09,2.09,0,0,0-.43,0,1.4,1.4,0,0,0-.49.18s0,0,0,.06l.11.3s.05,0,.05,0l0,0a1.72,1.72,0,0,1,.69-.16.7.7,0,0,1,.39.1c.09.07.13.17.13.38v.07l-.26,0M17.1,21A.36.36,0,0,1,17,20.9a.41.41,0,0,1-.05-.21.34.34,0,0,1,.14-.3.73.73,0,0,1,.46-.12,2.46,2.46,0,0,1,.43,0V21s-.2,0-.42.06a.76.76,0,0,1-.47-.1" style="fill:#fff"/><path d="M30.52,19.06a.06.06,0,0,0,0-.06l-.27,0a.88.88,0,0,0-.41.06.86.86,0,0,0-.26.2V19a0,0,0,0,0,0-.05H29.1a0,0,0,0,0,0,.05v2.36a0,0,0,0,0,.05.05h.41a0,0,0,0,0,.05-.05V20.21a1.53,1.53,0,0,1,.05-.41.69.69,0,0,1,.14-.24.56.56,0,0,1,.2-.11.53.53,0,0,1,.21,0l.17,0s.05,0,.06-.05.11-.29.12-.33" style="fill:#fff;fill-rule:evenodd"/><path d="M26.61,18l-.16,0-.21,0a.9.9,0,0,0-.67.24,1.27,1.27,0,0,0-.32.72l0,.11h-.36a.05.05,0,0,0-.05.05l-.06.32s0,.06,0,.06h.35l-.36,2a2.28,2.28,0,0,1-.09.39,1.24,1.24,0,0,1-.11.23.28.28,0,0,1-.15.11.48.48,0,0,1-.18,0l-.13,0a.24.24,0,0,1-.09,0,0,0,0,0,0-.05,0s-.11.29-.12.32a.06.06,0,0,0,0,.07l.15,0a1,1,0,0,0,.23,0,1.14,1.14,0,0,0,.39-.06.72.72,0,0,0,.29-.2,1.07,1.07,0,0,0,.21-.36,3.61,3.61,0,0,0,.14-.53l.36-2h.52a.05.05,0,0,0,0-.05L26.3,19s0-.05-.05-.05h-.51a2.09,2.09,0,0,1,.09-.36.42.42,0,0,1,.11-.17.35.35,0,0,1,.13-.08.47.47,0,0,1,.17,0h.13l.08,0c.05,0,.06,0,.07,0l.12-.33s0-.05,0-.05" style="fill:#fff;fill-rule:evenodd"/><rect x="19.02" y="17.96" width="0.51" height="3.48" rx="0.05" ry="0.05" style="fill:#fff"/></g><g id="Salesforce_Pardot" data-name="Salesforce Pardot"><path d="M13.82,31.92h.54v.47h0a1.54,1.54,0,0,1,.51-.41,1.44,1.44,0,0,1,.65-.15,1.94,1.94,0,0,1,.7.13,1.7,1.7,0,0,1,.54.36,1.68,1.68,0,0,1,.35.54,2,2,0,0,1,0,1.37,1.79,1.79,0,0,1-.35.54,1.57,1.57,0,0,1-.51.36,1.73,1.73,0,0,1-.64.12,1.47,1.47,0,0,1-.77-.19,1.15,1.15,0,0,1-.48-.47h0v2.17h-.54Zm.54,1.62a1.46,1.46,0,0,0,.08.48,1.21,1.21,0,0,0,.23.38,1.18,1.18,0,0,0,.37.26,1.21,1.21,0,0,0,.48.09,1.11,1.11,0,0,0,.84-.35,1,1,0,0,0,.23-.38,1.46,1.46,0,0,0,.08-.48,1.4,1.4,0,0,0-.08-.47,1,1,0,0,0-.23-.38,1.11,1.11,0,0,0-.84-.35,1.21,1.21,0,0,0-.48.09,1.18,1.18,0,0,0-.37.26,1.21,1.21,0,0,0-.23.38A1.4,1.4,0,0,0,14.36,33.54Z" style="fill:#728089"/><path d="M18.05,32.34a1.46,1.46,0,0,1,.6-.38,2.11,2.11,0,0,1,.7-.13,1.37,1.37,0,0,1,1,.35,1.46,1.46,0,0,1,.32,1v1.4c0,.09,0,.19,0,.29a1.93,1.93,0,0,0,0,.27h-.52a1.45,1.45,0,0,1,0-.25v-.23h0a1.41,1.41,0,0,1-.43.41,1.29,1.29,0,0,1-.64.15,1.73,1.73,0,0,1-.47-.06,1.17,1.17,0,0,1-.39-.18,1.08,1.08,0,0,1-.26-.3.93.93,0,0,1-.09-.42.89.89,0,0,1,.21-.63,1.12,1.12,0,0,1,.51-.34,2.11,2.11,0,0,1,.67-.14l.66,0h.21v-.1a.64.64,0,0,0-.22-.53.89.89,0,0,0-.59-.18,1.53,1.53,0,0,0-.52.08,1.29,1.29,0,0,0-.45.27Zm1.57,1.27a2.05,2.05,0,0,0-.82.14.5.5,0,0,0-.31.48.48.48,0,0,0,.21.44,1,1,0,0,0,.51.13,1.07,1.07,0,0,0,.41-.08,1,1,0,0,0,.3-.22,1.15,1.15,0,0,0,.18-.31,1.43,1.43,0,0,0,.07-.37v-.21Z" style="fill:#728089"/><path d="M21.7,32.69c0-.15,0-.29,0-.42s0-.24,0-.35h.52a2.26,2.26,0,0,0,0,.26v.27h0a1,1,0,0,1,.15-.23,1.12,1.12,0,0,1,.24-.19,1.15,1.15,0,0,1,.32-.14,1.1,1.1,0,0,1,.37-.06h.11l.11,0,0,.55a.92.92,0,0,0-.29,0,.83.83,0,0,0-.73.32,1.54,1.54,0,0,0-.22.89v1.58H21.7Z" style="fill:#728089"/><path d="M26.73,34.59h0a1.15,1.15,0,0,1-.48.47,1.49,1.49,0,0,1-.77.19,1.73,1.73,0,0,1-.64-.12,1.57,1.57,0,0,1-.51-.36,1.62,1.62,0,0,1-.35-.54,2,2,0,0,1,0-1.37,1.53,1.53,0,0,1,.35-.54,1.7,1.7,0,0,1,.54-.36,1.94,1.94,0,0,1,.7-.13,1.44,1.44,0,0,1,.65.15,1.54,1.54,0,0,1,.51.41h0V29.92h.54v5.25h-.54Zm0-1.05a1.4,1.4,0,0,0-.08-.47,1.21,1.21,0,0,0-.23-.38,1.18,1.18,0,0,0-.37-.26,1.21,1.21,0,0,0-.48-.09,1.19,1.19,0,0,0-.47.09,1.08,1.08,0,0,0-.37.26,1,1,0,0,0-.23.38,1.4,1.4,0,0,0-.08.47,1.46,1.46,0,0,0,.08.48,1,1,0,0,0,.23.38,1.08,1.08,0,0,0,.37.26,1.19,1.19,0,0,0,.47.09,1.21,1.21,0,0,0,.48-.09,1.18,1.18,0,0,0,.37-.26,1.21,1.21,0,0,0,.23-.38A1.46,1.46,0,0,0,26.73,33.54Z" style="fill:#728089"/><path d="M28.08,33.54a1.74,1.74,0,0,1,.14-.69,1.42,1.42,0,0,1,.36-.54,1.48,1.48,0,0,1,.55-.35,1.93,1.93,0,0,1,.69-.13,2,2,0,0,1,.7.13,1.67,1.67,0,0,1,.55.35,1.7,1.7,0,0,1,.36.54,1.92,1.92,0,0,1,0,1.39,1.7,1.7,0,0,1-.36.54,1.67,1.67,0,0,1-.55.35,2,2,0,0,1-.7.12,1.92,1.92,0,0,1-.69-.12,1.48,1.48,0,0,1-.55-.35,1.42,1.42,0,0,1-.36-.54A1.75,1.75,0,0,1,28.08,33.54Zm.59,0a1.24,1.24,0,0,0,.08.48,1,1,0,0,0,.23.38,1,1,0,0,0,.37.26,1.19,1.19,0,0,0,.47.09,1.21,1.21,0,0,0,.48-.09,1,1,0,0,0,.36-.26A1.23,1.23,0,0,0,30.9,34a1.46,1.46,0,0,0,.08-.48,1.4,1.4,0,0,0-.08-.47,1.23,1.23,0,0,0-.24-.38,1,1,0,0,0-.36-.26,1.21,1.21,0,0,0-.48-.09,1.19,1.19,0,0,0-.47.09,1,1,0,0,0-.37.26,1,1,0,0,0-.23.38A1.19,1.19,0,0,0,28.67,33.54Z" style="fill:#728089"/><path d="M34.18,32.38h-1V34a2.81,2.81,0,0,0,0,.3.6.6,0,0,0,.05.24.43.43,0,0,0,.15.15.47.47,0,0,0,.28.06l.24,0a1,1,0,0,0,.24-.09l0,.5a1.4,1.4,0,0,1-.31.09,1.77,1.77,0,0,1-.32,0,1.23,1.23,0,0,1-.47-.07.54.54,0,0,1-.27-.22.69.69,0,0,1-.13-.34,3.23,3.23,0,0,1,0-.46V32.38H32v-.46h.71V31h.54v.93h1Z" style="fill:#728089"/><rect x="2.5" y="2.62" width="42.63" height="42.63" rx="21.31" ry="21.31" style="fill:none;stroke:#009cdb;stroke-miterlimit:10;stroke-width:2px"/></g></svg>