<svg xmlns="http://www.w3.org/2000/svg" viewBox="0 0 48 48"><title>sap</title><path d="M1.66,35.61h23.1L47.36,13H1.66v22.6" style="fill:#004990"/><path d="M29.05,23.83h-1V20.2h1c1.32,0,2.38.44,2.38,1.79s-1.06,1.84-2.38,1.84M18.39,26.41A4.14,4.14,0,0,1,17,26.16l1.43-4.5h0l1.39,4.51A4.12,4.12,0,0,1,18.39,26.41Zm10.4-9.15h-4.5V28L20.36,17.26H16.47L13.11,26.2c-.35-2.25-2.69-3-4.52-3.61-1.22-.4-2.5-1-2.49-1.6s.69-1,2-.93a7.36,7.36,0,0,1,3.29.89L13,18.22A12.23,12.23,0,0,0,7.9,17h0a6.19,6.19,0,0,0-4.5,1.64,3.83,3.83,0,0,0-1.08,2.63,3.54,3.54,0,0,0,1.55,3.14,10.55,10.55,0,0,0,3.06,1.39c1.24.39,2.26.73,2.25,1.44a1.05,1.05,0,0,1-.29.71,2,2,0,0,1-1.45.45A6.2,6.2,0,0,1,3.7,27.36L2.31,30.12a10.46,10.46,0,0,0,5.1,1.35h.23a6.15,6.15,0,0,0,3.87-1.3l.16-.14-.45,1.2h4.09L16,29.15a7.81,7.81,0,0,0,4.75,0l.66,2.06h6.66V26.92h1.45c3.51,0,5.6-1.79,5.6-4.79,0-3.34-2-4.87-6.32-4.87" style="fill:#fff"/><path d="M31.21,34.07v-.53h.35c.18,0,.36.05.36.26s-.19.27-.4.27Zm0,.22h.29L32,35h.29l-.48-.74a.44.44,0,0,0,.43-.47c0-.33-.19-.48-.59-.48H31V35h.25Zm.31,1.35A1.47,1.47,0,1,0,30,34.17,1.46,1.46,0,0,0,31.52,35.64Zm-1.2-1.47a1.2,1.2,0,1,1,1.2,1.23,1.2,1.2,0,0,1-1.2-1.23" style="fill:#004990"/></svg>