<svg width="48" height="48" viewBox="0 0 48 48" fill="none" xmlns="http://www.w3.org/2000/svg">
<path d="M37.9603 34.3427L25.315 10.904H28.1134C28.6815 10.904 29.1233 11.178 29.3548 11.6417L42 35.0805H39.2016C38.6967 35.0805 38.1917 34.8064 37.9603 34.3427ZM14.2268 35.0805H17.0251C17.5932 35.0805 18.0351 34.8064 18.2665 34.3427L21.7382 27.9561L19.9497 24.5836L14.2268 35.0805ZM8.79836 35.0805C9.36645 35.0805 9.8083 34.8064 10.0397 34.3427L19.8866 16.1103L29.7335 34.3427C29.9649 34.7854 30.4068 35.0805 30.9749 35.0805H33.7732L21.128 11.6417C20.8965 11.1991 20.4547 10.904 19.8866 10.904C19.3817 10.904 18.8767 11.178 18.6452 11.6417L6 35.0805H8.79836Z" fill="#FBBA00"/>
</svg>
