<svg xmlns="http://www.w3.org/2000/svg" viewBox="0 0 48 48"><defs><style>.cls-1{fill:#6d6d6d;}.cls-2{fill:#d63028;}.cls-3{fill:#054487;}</style></defs><title>icon-</title><g id="sapbusinessobjects"><path class="cls-1" d="M10.75,23.36a1.82,1.82,0,0,1-.23.94,1.75,1.75,0,0,1-.59.62,2.6,2.6,0,0,1-.84.34,5.15,5.15,0,0,1-1,.1H5.38V18.48H8.12a4.65,4.65,0,0,1,.82.08,2.65,2.65,0,0,1,.76.28,1.77,1.77,0,0,1,.55.54,1.65,1.65,0,0,1,.22.87,1.39,1.39,0,0,1-.32.94,1.66,1.66,0,0,1-.81.54v0a2.53,2.53,0,0,1,.55.18,1.48,1.48,0,0,1,.44.34,1.54,1.54,0,0,1,.31.47A1.75,1.75,0,0,1,10.75,23.36ZM8.86,20.47A.57.57,0,0,0,8.6,20a1.57,1.57,0,0,0-.8-.16H7v1.42h.89A1.22,1.22,0,0,0,8.61,21,.65.65,0,0,0,8.86,20.47Zm.23,2.73a.61.61,0,0,0-.32-.59,1.9,1.9,0,0,0-.86-.17H7V24h.93a1.87,1.87,0,0,0,.4,0,1.13,1.13,0,0,0,.38-.12A.68.68,0,0,0,9,23.61.71.71,0,0,0,9.09,23.2Z"/><path class="cls-1" d="M14.45,25.36v-.67h0a1.66,1.66,0,0,1-.23.31,1.59,1.59,0,0,1-.33.25,2.65,2.65,0,0,1-.42.18,1.86,1.86,0,0,1-.48.06,1.72,1.72,0,0,1-.82-.17,1.65,1.65,0,0,1-.55-.45,1.83,1.83,0,0,1-.3-.63,3,3,0,0,1-.09-.73v-3h1.6v2.62a2.38,2.38,0,0,0,0,.39,1.17,1.17,0,0,0,.11.33.69.69,0,0,0,.22.23.83.83,0,0,0,1-.23,1.28,1.28,0,0,0,.22-.73V20.52H16v4.84Z"/><path class="cls-1" d="M20,22a1.57,1.57,0,0,0-.45-.31,1.21,1.21,0,0,0-.56-.13,1,1,0,0,0-.41.09.32.32,0,0,0,0,.59,4.14,4.14,0,0,0,.68.19,3.74,3.74,0,0,1,.54.17,1.62,1.62,0,0,1,.5.28,1.36,1.36,0,0,1,.36.43,1.27,1.27,0,0,1,.14.6,1.51,1.51,0,0,1-.18.77,1.59,1.59,0,0,1-.49.51,2,2,0,0,1-.66.29,3.72,3.72,0,0,1-.74.08,3.57,3.57,0,0,1-1.16-.19,2.31,2.31,0,0,1-.95-.56l.9-.94a1.58,1.58,0,0,0,.52.39,1.53,1.53,0,0,0,.66.16.81.81,0,0,0,.39-.1.33.33,0,0,0,.18-.32.34.34,0,0,0-.23-.33,4.26,4.26,0,0,0-.73-.23,3.17,3.17,0,0,1-.5-.15,1.66,1.66,0,0,1-.45-.26,1.2,1.2,0,0,1-.33-.41,1.31,1.31,0,0,1-.13-.58,1.46,1.46,0,0,1,.19-.75,1.6,1.6,0,0,1,.47-.5,2.1,2.1,0,0,1,.65-.28,2.48,2.48,0,0,1,.71-.1,3.51,3.51,0,0,1,1.06.17,2.46,2.46,0,0,1,.88.51Z"/><path class="cls-1" d="M21.26,25.36V20.52h1.59v4.84Z"/><path class="cls-1" d="M21.26,20V18.81h1.59V20Z"/><path class="cls-1" d="M26.75,25.36V22.71a2.34,2.34,0,0,0,0-.38,1,1,0,0,0-.11-.33.58.58,0,0,0-.22-.22.64.64,0,0,0-.36-.09.75.75,0,0,0-.37.09.67.67,0,0,0-.27.23,1,1,0,0,0-.16.33,1.74,1.74,0,0,0-.05.39v2.63h-1.6V20.52h1.54v.67h0a2.06,2.06,0,0,1,.23-.31,1.2,1.2,0,0,1,.33-.25,1.89,1.89,0,0,1,.41-.18,1.85,1.85,0,0,1,.48-.07,1.71,1.71,0,0,1,.82.18A1.53,1.53,0,0,1,28,21a1.72,1.72,0,0,1,.3.64,2.55,2.55,0,0,1,.1.72v3Z"/><path class="cls-1" d="M33.83,23v.19a1.15,1.15,0,0,1,0,.19h-3.5a.77.77,0,0,0,.12.36,1,1,0,0,0,.26.29,1.24,1.24,0,0,0,.36.19,1.14,1.14,0,0,0,.41.07,1.35,1.35,0,0,0,.64-.14,1.3,1.3,0,0,0,.43-.37l1.11.7a2.32,2.32,0,0,1-.9.77,3.08,3.08,0,0,1-1.3.26,3,3,0,0,1-1-.17,2.66,2.66,0,0,1-.85-.49,2.43,2.43,0,0,1-.57-.8,2.91,2.91,0,0,1,0-2.17,2.33,2.33,0,0,1,.55-.81,2.29,2.29,0,0,1,.83-.52,2.85,2.85,0,0,1,1-.19,2.64,2.64,0,0,1,1,.18,2.24,2.24,0,0,1,.76.52,2.39,2.39,0,0,1,.5.83A3.15,3.15,0,0,1,33.83,23Zm-1.46-.62a1,1,0,0,0-.24-.65.91.91,0,0,0-.72-.27,1.42,1.42,0,0,0-.42.07,1.07,1.07,0,0,0-.58.5.86.86,0,0,0-.09.35Z"/><path class="cls-1" d="M37.56,22a1.57,1.57,0,0,0-.45-.31,1.21,1.21,0,0,0-.56-.13,1,1,0,0,0-.41.09.32.32,0,0,0,0,.59,4.26,4.26,0,0,0,.67.19,3.86,3.86,0,0,1,.55.17,1.74,1.74,0,0,1,.5.28,1.36,1.36,0,0,1,.36.43,1.27,1.27,0,0,1,.14.6,1.42,1.42,0,0,1-.19.77,1.47,1.47,0,0,1-.48.51,2.07,2.07,0,0,1-.66.29,3.72,3.72,0,0,1-.74.08,3.53,3.53,0,0,1-1.16-.19,2.31,2.31,0,0,1-.95-.56l.89-.94a1.74,1.74,0,0,0,.53.39,1.53,1.53,0,0,0,.66.16.75.75,0,0,0,.38-.1.32.32,0,0,0,.19-.32.34.34,0,0,0-.23-.33,4.58,4.58,0,0,0-.73-.23,2.88,2.88,0,0,1-.5-.15,1.89,1.89,0,0,1-.46-.26,1.3,1.3,0,0,1-.32-.41,1.18,1.18,0,0,1-.13-.58,1.37,1.37,0,0,1,.19-.75,1.6,1.6,0,0,1,.47-.5,2.1,2.1,0,0,1,.65-.28,2.47,2.47,0,0,1,.7-.1,3.52,3.52,0,0,1,1.07.17,2.55,2.55,0,0,1,.88.51Z"/><path class="cls-1" d="M42.13,22a1.62,1.62,0,0,0-.46-.31,1.2,1.2,0,0,0-.55-.13,1,1,0,0,0-.42.09.32.32,0,0,0-.19.3.31.31,0,0,0,.21.29,4.46,4.46,0,0,0,.68.19,4.3,4.3,0,0,1,.55.17,1.89,1.89,0,0,1,.5.28,1.5,1.5,0,0,1,.36.43,1.26,1.26,0,0,1,.13.6,1.51,1.51,0,0,1-.18.77,1.68,1.68,0,0,1-.48.51,2.13,2.13,0,0,1-.67.29,3.72,3.72,0,0,1-.74.08,3.57,3.57,0,0,1-1.16-.19,2.38,2.38,0,0,1-1-.56l.9-.94a1.69,1.69,0,0,0,.52.39,1.53,1.53,0,0,0,.66.16.81.81,0,0,0,.39-.1.34.34,0,0,0,.19-.32.35.35,0,0,0-.24-.33,4.26,4.26,0,0,0-.73-.23,3.51,3.51,0,0,1-.5-.15A1.66,1.66,0,0,1,39.5,23a1.33,1.33,0,0,1-.33-.41,1.31,1.31,0,0,1-.12-.58,1.46,1.46,0,0,1,.18-.75,1.53,1.53,0,0,1,.48-.5,2,2,0,0,1,.64-.28,2.48,2.48,0,0,1,.71-.1,3.51,3.51,0,0,1,1.06.17A2.46,2.46,0,0,1,43,21Z"/><path d="M12.44,31.2a3.8,3.8,0,0,1-.28,1.49,3.34,3.34,0,0,1-2,1.9,4.08,4.08,0,0,1-1.5.26,4,4,0,0,1-1.49-.26A3.33,3.33,0,0,1,6,33.85a3.37,3.37,0,0,1-.79-1.16A4,4,0,0,1,5,31.2a3.92,3.92,0,0,1,.28-1.49A3.25,3.25,0,0,1,6,28.58a3.44,3.44,0,0,1,1.18-.72,4.24,4.24,0,0,1,1.49-.25,4.29,4.29,0,0,1,1.5.25,3.58,3.58,0,0,1,1.19.72,3.36,3.36,0,0,1,.78,1.13A3.73,3.73,0,0,1,12.44,31.2Zm-1.78,0a2.32,2.32,0,0,0-.14-.84,2.08,2.08,0,0,0-.4-.66,1.88,1.88,0,0,0-.63-.44,1.91,1.91,0,0,0-.8-.16,1.83,1.83,0,0,0-.79.16,2,2,0,0,0-.63.44,1.92,1.92,0,0,0-.4.66,2.55,2.55,0,0,0-.14.84,2.39,2.39,0,0,0,.15.86,1.92,1.92,0,0,0,1,1.12,2,2,0,0,0,.79.16,2.08,2.08,0,0,0,.8-.16,1.87,1.87,0,0,0,.62-.45,1.89,1.89,0,0,0,.41-.67A2.39,2.39,0,0,0,10.66,31.2Z"/><path d="M18.25,32.23a2.86,2.86,0,0,1-.16,1,2.33,2.33,0,0,1-.45.82,2.22,2.22,0,0,1-.72.57,2.33,2.33,0,0,1-1.89,0,1.64,1.64,0,0,1-.67-.57h0v.63H12.88V27.32h1.59v3h0a1.91,1.91,0,0,1,.57-.44,1.83,1.83,0,0,1,.91-.21,2.09,2.09,0,0,1,.94.21,2.16,2.16,0,0,1,.72.55,2.58,2.58,0,0,1,.46.81A3.13,3.13,0,0,1,18.25,32.23Zm-1.54,0a1.43,1.43,0,0,0-.07-.46,1.07,1.07,0,0,0-.22-.39,1.25,1.25,0,0,0-.36-.28,1.25,1.25,0,0,0-1,0,1.25,1.25,0,0,0-.36.28,1.47,1.47,0,0,0-.24.4,1.44,1.44,0,0,0-.08.46,1.48,1.48,0,0,0,.08.46,1.28,1.28,0,0,0,.24.39,1.12,1.12,0,0,0,.36.29,1.25,1.25,0,0,0,1,0,1.12,1.12,0,0,0,.36-.29,1.11,1.11,0,0,0,.22-.4A1.43,1.43,0,0,0,16.71,32.23Z"/><path d="M20.63,34.79a4.54,4.54,0,0,1-.08.85,1.82,1.82,0,0,1-.3.71,1.49,1.49,0,0,1-.59.48,2.39,2.39,0,0,1-1,.17l-.36,0a1.39,1.39,0,0,1-.33-.06l.11-1.33.18,0h.16a.46.46,0,0,0,.46-.24,1.35,1.35,0,0,0,.12-.61v-5h1.59Z"/><path d="M26.46,32.31v.19a1.15,1.15,0,0,1,0,.19H22.94a1,1,0,0,0,.13.37.86.86,0,0,0,.26.28,1.13,1.13,0,0,0,.36.19,1.14,1.14,0,0,0,.41.07,1.38,1.38,0,0,0,.64-.14,1.3,1.3,0,0,0,.43-.37l1.11.7a2.32,2.32,0,0,1-.9.77,3.11,3.11,0,0,1-1.3.26,3,3,0,0,1-1-.17,2.4,2.4,0,0,1-.85-.49,2.43,2.43,0,0,1-.57-.8,2.68,2.68,0,0,1-.21-1.09,2.79,2.79,0,0,1,.2-1.07,2.3,2.3,0,0,1,.56-.82,2.49,2.49,0,0,1,.82-.52,2.9,2.9,0,0,1,1-.19,2.55,2.55,0,0,1,1,.18,2.18,2.18,0,0,1,.77.52,2.39,2.39,0,0,1,.5.83A3.15,3.15,0,0,1,26.46,32.31ZM25,31.7a1,1,0,0,0-.23-.66.91.91,0,0,0-.72-.27,1.22,1.22,0,0,0-.43.08,1.14,1.14,0,0,0-.34.19,1.33,1.33,0,0,0-.23.3.88.88,0,0,0-.1.36Z"/><path d="M30.58,31.39a1.07,1.07,0,0,0-.37-.28,1.18,1.18,0,0,0-.48-.1.93.93,0,0,0-.45.1,1.06,1.06,0,0,0-.35.27,1.09,1.09,0,0,0-.23.39,1.28,1.28,0,0,0-.09.48,1.51,1.51,0,0,0,.08.48,1.18,1.18,0,0,0,.23.39,1.22,1.22,0,0,0,.36.27,1.19,1.19,0,0,0,.47.09,1.36,1.36,0,0,0,.48-.09.91.91,0,0,0,.39-.27l.88,1.08a2,2,0,0,1-.78.46,3,3,0,0,1-1,.16,3.12,3.12,0,0,1-1.07-.17,2.55,2.55,0,0,1-.86-.51,2.27,2.27,0,0,1-.58-.81A2.67,2.67,0,0,1,27,32.25a2.62,2.62,0,0,1,.21-1.07,2.27,2.27,0,0,1,.58-.81,2.57,2.57,0,0,1,.86-.52,3.11,3.11,0,0,1,1.06-.18,3,3,0,0,1,.52,0l.5.13a2.46,2.46,0,0,1,.43.21,1.62,1.62,0,0,1,.35.27Z"/><path d="M34,31v1.85a.8.8,0,0,0,.13.51.57.57,0,0,0,.47.17l.25,0a.64.64,0,0,0,.22-.06l0,1.17a2.61,2.61,0,0,1-.42.1,2.92,2.92,0,0,1-.51,0,2.39,2.39,0,0,1-.81-.12,1.18,1.18,0,0,1-.53-.35,1.41,1.41,0,0,1-.29-.54,2.6,2.6,0,0,1-.09-.71V31h-.77V29.83h.77V28.56H34v1.27h1.14V31Z"/><path d="M38.76,31.26A1.69,1.69,0,0,0,38.3,31a1.17,1.17,0,0,0-.55-.13.91.91,0,0,0-.41.09.3.3,0,0,0-.19.3.3.3,0,0,0,.21.29,4.86,4.86,0,0,0,.67.2,3.08,3.08,0,0,1,.55.16,2.22,2.22,0,0,1,.5.28,1.36,1.36,0,0,1,.36.43,1.27,1.27,0,0,1,.14.6,1.51,1.51,0,0,1-.19.77,1.31,1.31,0,0,1-.48.51,2.13,2.13,0,0,1-.67.29,3.63,3.63,0,0,1-.73.08,3.59,3.59,0,0,1-1.17-.19,2.44,2.44,0,0,1-.94-.55l.89-.95a1.62,1.62,0,0,0,.53.39,1.34,1.34,0,0,0,.66.16.88.88,0,0,0,.38-.09.34.34,0,0,0,.19-.33.35.35,0,0,0-.23-.33,3.86,3.86,0,0,0-.73-.22,3.33,3.33,0,0,1-.51-.16,1.43,1.43,0,0,1-.45-.26,1.3,1.3,0,0,1-.32-.41,1.18,1.18,0,0,1-.13-.58,1.49,1.49,0,0,1,.18-.75,1.76,1.76,0,0,1,.48-.5,2,2,0,0,1,.65-.28,2.82,2.82,0,0,1,.7-.1,3.46,3.46,0,0,1,1.06.17,2.46,2.46,0,0,1,.88.51Z"/><path class="cls-2" d="M21,28.29a1,1,0,0,1-.09.42,1,1,0,0,1-.24.34,1.11,1.11,0,0,1-.36.23,1.06,1.06,0,0,1-.43.08,1.12,1.12,0,0,1-.81-.31,1.07,1.07,0,0,1-.32-.76,1,1,0,0,1,.32-.76,1.38,1.38,0,0,1,.36-.23,1.13,1.13,0,0,1,.45-.09,1.26,1.26,0,0,1,.43.08,1.11,1.11,0,0,1,.36.23,1,1,0,0,1,.24.34A1,1,0,0,1,21,28.29Z"/><path class="cls-3" d="M4.16,17c1-.36,1.93-.74,2.91-1.06a93.29,93.29,0,0,1,20.15-4.38,30.93,30.93,0,0,1,7.75,0,8.63,8.63,0,0,1,3.05,1A2.94,2.94,0,0,1,39.56,16c-.05.24-.12.47-.21.82A6.59,6.59,0,0,0,41.23,14a2.1,2.1,0,0,0-.7-2.37,5.91,5.91,0,0,0-1.34-.81,13.4,13.4,0,0,0-4.38-.93,43.1,43.1,0,0,0-9.56.45A71.46,71.46,0,0,0,7.8,15.22c-1.37.57-2.71,1.21-4.06,1.82l0,.09Z"/></g></svg>