<svg id="8236680a-d649-427f-b90a-675b79536e63"   xmlns="http://www.w3.org/2000/svg" viewBox="0 0 48 48">
  <defs>
    <style>
      .\38 3122bc2-068b-4347-94f3-67664b5bac26 {
        fill: #f0ab00;
      }
    </style>
  </defs>
  <title>sap concur</title>
  <g id="ab727e8a-b159-4d18-802d-36d1edb99f81" data-name="Source Base 36x36 ">
    <path class="83122bc2-068b-4347-94f3-67664b5bac26" d="M23.62,28.92a5.15,5.15,0,0,1-5.09-5.09,5.09,5.09,0,0,1,5.09-5.09h0a4.76,4.76,0,0,1,3.55,1.47l2.61-2.63A8.63,8.63,0,0,0,23.54,15a8.79,8.79,0,0,0,0,17.58,9.19,9.19,0,0,0,6.24-2.55l-2.61-2.62a5.29,5.29,0,0,1-3.55,1.47"/>
    <path class="83122bc2-068b-4347-94f3-67664b5bac26" d="M31,21.58a2.25,2.25,0,1,0,2.24,2.25A2.24,2.24,0,0,0,31,21.58"/>
    <path class="83122bc2-068b-4347-94f3-67664b5bac26" d="M7.82,40.39H41V7.18H7.82Zm3.7-3.77V10.83H37.31V36.62Z"/>
  </g>
</svg>
