<svg id="CURRENT" xmlns="http://www.w3.org/2000/svg" viewBox="0 0 48 48"><title>sapgateway</title><path d="M24.82,28.25h1.66l.91,3.47h.08l1.1-3.47h1.52l1.11,3.47h.07l.91-3.47h1.64L32,33.78H30.45l-1.11-3.49h-.07l-1.11,3.49H26.59Z" style="fill:#f0ab00"/><path d="M41,33.51l-2.33-5.26h1.68l1.4,3.35h.08l1.34-3.35h1.65l-3.46,8H39.78Z" style="fill:#f0ab00"/><path d="M38.88,32.42V30.23c0-1.47-.64-2.24-2.19-2.24a4,4,0,0,0-2.83,1l.72,1a3,3,0,0,1,1.86-.7c.56,0,.77.27.77.68v.14c-2.49.2-3.6.93-3.6,2.25a1.52,1.52,0,0,0,1.62,1.54,2.53,2.53,0,0,0,2-.92,2.54,2.54,0,0,0,.13.83H39A3.86,3.86,0,0,1,38.88,32.42Zm-1.67-.31a1.75,1.75,0,0,1-1.3.49c-.37,0-.62-.18-.62-.54,0-.53.57-.87,1.92-1Z" style="fill:#f0ab00"/><path d="M15.46,32.42V30.23c0-1.47-.64-2.24-2.2-2.24a4,4,0,0,0-2.83,1l.73,1a3,3,0,0,1,1.86-.7c.55,0,.76.27.76.68v.14c-2.49.2-3.59.93-3.59,2.25A1.51,1.51,0,0,0,11.8,33.9a2.51,2.51,0,0,0,2-.92,2.83,2.83,0,0,0,.13.83h1.7A4.16,4.16,0,0,1,15.46,32.42Zm-1.68-.31a1.73,1.73,0,0,1-1.3.49c-.37,0-.62-.18-.62-.54,0-.53.57-.87,1.92-1Z" style="fill:#f0ab00"/><path d="M16.55,32.28V29.44h-.94V28.19h.94v-2h1.7v2h1.46v1.25H18.25v2.47c0,.61.18.8.79.8a2.32,2.32,0,0,0,.57-.06v1.23a8.91,8.91,0,0,1-1.13.08C16.8,34,16.55,33.35,16.55,32.28Z" style="fill:#f0ab00"/><path d="M25.27,31.32c0-2.58-1.44-3.17-2.61-3.17a2.79,2.79,0,0,0-2.85,3,2.67,2.67,0,0,0,2.89,3,3.69,3.69,0,0,0,2.47-.85l-.66-1a2.6,2.6,0,0,1-1.68.68,1.23,1.23,0,0,1-1.32-1.3h3.76Zm-3.74-.76c.13-.83.59-1.18,1.12-1.18s1,.38,1.08,1.18Z" style="fill:#f0ab00"/><path d="M9.61,33.14a6.46,6.46,0,0,1-3.08.74A4.48,4.48,0,0,1,5,33.6a3.71,3.71,0,0,1-1.24-.79,3.52,3.52,0,0,1-.81-1.22A4.09,4.09,0,0,1,2.6,30a4.21,4.21,0,0,1,.3-1.62,3.55,3.55,0,0,1,.81-1.25A3.71,3.71,0,0,1,5,26.34a4.48,4.48,0,0,1,1.58-.28,5.89,5.89,0,0,1,1.6.21A3.23,3.23,0,0,1,9.46,27l-1,1a2.27,2.27,0,0,0-.86-.53,3,3,0,0,0-1.08-.19,2.68,2.68,0,0,0-1,.2,2.47,2.47,0,0,0-.81.57,2.81,2.81,0,0,0-.52.85,3,3,0,0,0-.18,1A3.25,3.25,0,0,0,4.17,31a2.69,2.69,0,0,0,.52.87,2.36,2.36,0,0,0,.81.58,2.51,2.51,0,0,0,1,.21,4.13,4.13,0,0,0,1-.1,2.64,2.64,0,0,0,.79-.29V30.54H6.76v-1.2H9.61Z" style="fill:#f0ab00;stroke:#f0ab00;stroke-miterlimit:10;stroke-width:0.275075197219849px"/><path d="M6.44,15.78l1,.18a6.16,6.16,0,0,1,1.42.5L8,18c-.27-.1-.52-.22-.78-.3a3.31,3.31,0,0,0-1.59-.15,1.12,1.12,0,0,0-.43.16.34.34,0,0,0,0,.6,1.94,1.94,0,0,0,.51.33c.41.17.85.3,1.27.47a7.93,7.93,0,0,1,1.1.53A1.9,1.9,0,0,1,9,20.89L9,20.73l1.74-4.65c0-.12.09-.17.22-.17h1.87a.18.18,0,0,1,.22.14q1,2.82,2.06,5.62a.25.25,0,0,0,.08.14V15.93h.12c1,0,2,0,2.92,0a4.53,4.53,0,0,1,1.5.28,2.22,2.22,0,0,1,1.51,2,3.13,3.13,0,0,1-.13,1.36,2.36,2.36,0,0,1-1.7,1.55,6.92,6.92,0,0,1-1.21.17,8.77,8.77,0,0,1-.89,0v2.42h-3.6a.17.17,0,0,1-.19-.14c-.1-.34-.21-.67-.32-1a4.47,4.47,0,0,1-2.66,0l-.38,1.16H7.91l.2-.57a10.13,10.13,0,0,1-1,.49,4.42,4.42,0,0,1-2.31.13,5.29,5.29,0,0,1-1.9-.68l.77-1.54.57.29a3.19,3.19,0,0,0,1.85.27.69.69,0,0,0,.64-.5.37.37,0,0,0-.11-.4A1.83,1.83,0,0,0,6.17,21c-.47-.18-.94-.32-1.41-.5a3.49,3.49,0,0,1-1.23-.73,2.17,2.17,0,0,1,0-3.08,3.33,3.33,0,0,1,1.94-.85l.17,0Zm10.91,1.76v2a3.52,3.52,0,0,0,1.17-.06.9.9,0,0,0,.71-1,.86.86,0,0,0-.75-.88C18.12,17.58,17.74,17.58,17.35,17.54Zm-4.64,3.37-.79-2.54-.8,2.53A2.23,2.23,0,0,0,12.71,20.91Z" style="fill:#8b8c8e"/><path d="M22.39,17.76a.91.91,0,0,1-.84-.6.9.9,0,0,1,.25-1,.92.92,0,0,1,1.51.87A.92.92,0,0,1,22.39,17.76Zm.52-.44a.68.68,0,0,0,.1-.83.69.69,0,0,0-.77-.34.72.72,0,0,0-.19,1.31.66.66,0,0,0,.86-.15Z" style="fill:#8b8c8e"/><path d="M22.66,16.4a.22.22,0,0,1,.09.07l.05.07a.34.34,0,0,1,0,.1.28.28,0,0,1,0,.13.14.14,0,0,1-.11.09.24.24,0,0,1,.09.08.26.26,0,0,1,0,.14v.15a.09.09,0,0,0,0,.06v0h-.22a.43.43,0,0,0,0,0s0-.05,0-.08v-.09a.17.17,0,0,0,0-.12.16.16,0,0,0-.11,0h-.19v.37h-.19v-.93h.45Zm-.4.14v.25h.21l.09,0a.09.09,0,0,0,.06-.1.12.12,0,0,0-.06-.12h-.3Z" style="fill:#8b8c8e"/></svg>