<svg xmlns="http://www.w3.org/2000/svg" viewBox="0 0 48 48"><title>sap hana</title><path d="M11.66,30.28V23.56H6.39v6.72H5.18V16.81H6.39v5.73h5.27V16.81h1.2V30.28Z" style="fill:#f7941e"/><path d="M14.23,30.28l4-13.47h1.51l4,13.47H22.42l-1.09-3.93H16.61l-1.09,3.93Zm2.65-4.94h4.19L19,17.75h0Z" style="fill:#f7941e"/><path d="M25.08,30.28V16.81h1.63l5.18,11.73V16.81H33.1V30.28H31.46L26.28,18.54V30.28Z" style="fill:#f7941e"/><path d="M34.47,30.28l4-13.47H40l4,13.47H42.66l-1.1-3.93H36.84l-1.09,3.93Zm2.64-4.94H41.3l-2.08-7.59h0Z" style="fill:#f7941e"/></svg>