<svg xmlns="http://www.w3.org/2000/svg" viewBox="0 0 48 48"><title>saphybrisc4c</title><path d="M33.83,44.57h-4c-.64,0-.85-.21-.85-.84V40.54c0-.63.21-1.06.85-1.06h4.45c.64,0,.85-.21,1.06-.84a53.86,53.86,0,0,0,1.91-19.31,49.1,49.1,0,0,0-1.69-9.75c-.22-.64-.43-1.06-1.28-1.06-1.48,0-2.75-.22-4.24-.22-.63,0-1.06-.21-.85-1.06v-3c0-.63.22-.84.85-.84,2.76.21,5.52.21,8.06.42.64,0,.64.42.85.85a55.28,55.28,0,0,1,3,11.66,60,60,0,0,1-2.12,25.25c-.85,2.75-.85,2.75-3.82,2.75a6.6,6.6,0,0,1-2.12.21Z" style="fill:#efab20"/><path d="M5.62,24.42A59.64,59.64,0,0,1,9,5.12c.21-.85.64-1.06,1.49-1.06,2.54,0,4.88-.21,7.42-.42.85,0,1.06.21,1.06,1.06V7.46c0,.84-.21,1.06-1.06,1.06-1.48,0-2.76.21-4.24.21-.64,0-.85.21-.85.63a54.86,54.86,0,0,0-1.91,18.46,55.64,55.64,0,0,0,1.7,10.39,1.39,1.39,0,0,0,1.48,1.27h4c.64,0,.85.22.85.85v3.18c0,.64-.21.85-.85.85-2.75,0-5.3-.21-8.06-.21-.63,0-.85-.42-1.06-.85A43.48,43.48,0,0,1,6,30.79C5.83,28.88,5.83,26.55,5.62,24.42Z" style="fill:#efab20"/><path d="M24.07,21.88c.64-1.7,1.28-3.39,1.91-4.88a1.16,1.16,0,0,1,1.27-.85,27.43,27.43,0,0,0,4.25.21,82.26,82.26,0,0,1-4.25,10.82,1.94,1.94,0,0,0,0,2.12c.85,1.49,1.7,3.18,2.55,4.88H24.71c-.43,0-.64-.21-.85-.63a81,81,0,0,1-7-16.55c-.21-.64,0-.85.64-.85a18.39,18.39,0,0,0,3.39-.21c.64,0,.85.21,1.06.85a48.23,48.23,0,0,1,1.7,5.09Z" style="fill:#efab20"/></svg>