<svg xmlns="http://www.w3.org/2000/svg" viewBox="0 0 48 48">
  <title>sasxpt</title>
  <g id="Salesforce_Pardot" data-name="Salesforce Pardot">
    <g>
      <g>
        <path d="M15.86,19.32l-.45-.54A1.64,1.64,0,0,0,13,18.66a1.67,1.67,0,0,0-.35,2.39l.2.24" style="fill: #4381cf"/>
        <path d="M12.88,21.28l3.33,4c2.38,2.89,1.31,6.45-1.92,8.47C11.45,35.54,6.23,34.9,4.43,32c1.4,4.12,6.07,6.81,11.24,5.51,4.49-1.12,9.5-6.88,4-13.53L15.62,19" style="fill: #4381cf"/>
        <path d="M13.32,27.46l-3.07-3.7c-2.38-2.88-1.32-6.44,1.91-8.47C15,13.5,20.23,14.14,22,17.07,20.63,13,16,10.27,10.78,11.56c-4.48,1.12-9.49,6.88-4,13.53l3.88,4.69" style="fill: #4381cf"/>
        <path d="M10,29.06,11,30.18a1.64,1.64,0,0,0,2.37.12,1.67,1.67,0,0,0,.35-2.39l-.89-1.07" style="fill: #4381cf"/>
        <path d="M22.69,32a.84.84,0,1,1,.84.87.84.84,0,0,1-.84-.87m.84,1a1,1,0,1,0-1.05-1,1,1,0,0,0,1.05,1m-.22-1h.21l.32.52H24l-.34-.52a.31.31,0,0,0,.31-.33c0-.24-.14-.34-.42-.34h-.46v1.19h.18Zm0-.15v-.37h.25c.13,0,.26,0,.26.18s-.14.19-.29.19Z" style="fill: #010102"/>
      </g>
      <g>
        <path d="M28,25.67l-2.18,3h-1l2.69-3.62L25,21.7h1L28,24.48l2-2.78h1l-2.53,3.38,2.62,3.62h-1Z"/>
        <path d="M33.2,31.46h-.81V21.7h.81v1.23h0a2.05,2.05,0,0,1,.45-.61,2.67,2.67,0,0,1,.61-.45A4.37,4.37,0,0,1,35,21.6a2.72,2.72,0,0,1,.69-.09,3.35,3.35,0,0,1,1.45.28,2.78,2.78,0,0,1,1,.78,3.35,3.35,0,0,1,.56,1.17,6.07,6.07,0,0,1,.17,1.45,5,5,0,0,1-.19,1.4,3.41,3.41,0,0,1-.57,1.18,2.77,2.77,0,0,1-1,.81,2.87,2.87,0,0,1-1.38.31,3.26,3.26,0,0,1-1.43-.33,2.53,2.53,0,0,1-1.07-1Zm0-6.23a3.75,3.75,0,0,0,.16,1.12,3.07,3.07,0,0,0,.47.94,2.37,2.37,0,0,0,.74.63,2,2,0,0,0,1,.24,2.22,2.22,0,0,0,1.09-.25,2.29,2.29,0,0,0,.77-.68,3.18,3.18,0,0,0,.43-1A4.94,4.94,0,0,0,38,25a3.26,3.26,0,0,0-.19-1.17,2.55,2.55,0,0,0-.5-.85,2.12,2.12,0,0,0-.76-.54,2.44,2.44,0,0,0-.95-.18,2.24,2.24,0,0,0-1,.23,2,2,0,0,0-.74.63,2.74,2.74,0,0,0-.45.94A4.13,4.13,0,0,0,33.2,25.23Z"/>
        <path d="M43,28.73a3.34,3.34,0,0,0-.39.09,1.81,1.81,0,0,1-.54.07,1.26,1.26,0,0,1-.93-.31,1.47,1.47,0,0,1-.31-1.08V22.37h-1V21.7h1V19.75h.81V21.7H43v.67H41.65v4.8c0,.17,0,.32,0,.45a.88.88,0,0,0,.08.31.39.39,0,0,0,.21.17,1.05,1.05,0,0,0,.4.06,1.84,1.84,0,0,0,.33,0l.33-.07Z"/>
      </g>
    </g>
  </g>
</svg>
