<svg id="09b9dac4-68c8-4b55-bb73-87076fb0ef19" data-name="Icons" xmlns="http://www.w3.org/2000/svg" viewBox="0 0 108 72">
  <defs>
    <style>
      .\38 b9b9810-fb48-42df-b439-f25ddf5e7846 {
        fill: #58595b;
      }

      .a6550e8e-1943-4093-8d3d-d27da05ad78f {
        fill: #f7931d;
      }

      .\37 88970e5-1f51-4a65-95d0-2b455c2b4551 {
        fill: #fdb813;
      }

      .d76da7fe-c0cf-4c25-b411-a3294458f04a {
        fill: #df851a;
      }

      .\36 5555194-2510-4f3f-810a-48115deb5e97 {
        fill: #f7931e;
      }

      .\36 7c30d4d-357d-49d4-aded-5181dd079f4a {
        fill: none;
        stroke: #f7931e;
        stroke-miterlimit: 10;
        stroke-width: 0.12px;
      }
    </style>
  </defs>
  <title>sendwithus</title>
  <g>
    <path class="8b9b9810-fb48-42df-b439-f25ddf5e7846" d="M3.63,47.52a5.91,5.91,0,0,0,2.63.72c1.14,0,1.68-.48,1.68-1.14S7.52,46,6.26,45.61c-2-.72-2.87-1.8-2.87-3,0-1.86,1.5-3.23,3.89-3.23a6.45,6.45,0,0,1,2.75.6l-.54,1.85a4.62,4.62,0,0,0-2.21-.6c-1,0-1.44.42-1.44,1.08s.48,1,1.8,1.43c1.85.66,2.75,1.62,2.75,3.17,0,1.86-1.49,3.23-4.19,3.23A6.91,6.91,0,0,1,3,49.38Z"/>
    <path class="8b9b9810-fb48-42df-b439-f25ddf5e7846" d="M14.16,45.43c.06,1.85,1.56,2.69,3.17,2.69a7.73,7.73,0,0,0,2.87-.48l.36,1.8a9.85,9.85,0,0,1-3.59.65,4.91,4.91,0,0,1-5.32-5.26c0-2.87,1.73-5.56,5.08-5.56s4.49,2.75,4.49,5c0,.48-.06.9-.06,1.14Zm4.55-1.8a2.24,2.24,0,0,0-2.16-2.51,2.58,2.58,0,0,0-2.39,2.51Z"/>
    <path class="8b9b9810-fb48-42df-b439-f25ddf5e7846" d="M23,42.62c0-1.2,0-2.22-.06-3.11h2.28l.12,1.55h.06a3.59,3.59,0,0,1,3.29-1.79c1.79,0,3.7,1.19,3.7,4.42v6.17H29.77V44c0-1.49-.54-2.63-2-2.63a2.14,2.14,0,0,0-2,1.56,3.47,3.47,0,0,0-.11.83v6.11H23V42.62Z"/>
    <path class="8b9b9810-fb48-42df-b439-f25ddf5e7846" d="M44.37,34.78V47c0,1.08.06,2.22.06,2.94H42.1L42,48.3h0a3.71,3.71,0,0,1-3.41,1.85c-2.46,0-4.43-2.09-4.43-5.32,0-3.47,2.15-5.5,4.67-5.5a3.33,3.33,0,0,1,2.93,1.37h.06V34.84h2.57ZM41.8,43.87a2.15,2.15,0,0,0-.06-.65,2.33,2.33,0,0,0-2.28-1.86c-1.67,0-2.63,1.5-2.63,3.41s1,3.29,2.57,3.29a2.35,2.35,0,0,0,2.28-1.85,3.17,3.17,0,0,0,.06-.78V43.87Z"/>
    <path class="a6550e8e-1943-4093-8d3d-d27da05ad78f" d="M48.44,39.57l1.07,4.72c.24,1.14.48,2.22.66,3.35h.06c.24-1.13.54-2.27.84-3.35l1.31-4.72h2.16l1.31,4.6c.3,1.2.6,2.34.84,3.47h.06c.18-1.13.42-2.27.66-3.47l1.14-4.6h2.57L57.89,49.92H55.44l-1.26-4.19c-.3-1.08-.54-2.1-.78-3.29h-.06c-.24,1.25-.48,2.27-.78,3.29l-1.31,4.19H48.8L45.74,39.57Z"/>
    <rect class="a6550e8e-1943-4093-8d3d-d27da05ad78f" x="62.49" y="39.57" width="2.63" height="10.35"/>
    <path class="a6550e8e-1943-4093-8d3d-d27da05ad78f" d="M70.57,36.58v2.93h2.51v2H70.57V46c0,1.25.36,1.91,1.32,1.91a4.28,4.28,0,0,0,1-.12l.06,2a5.11,5.11,0,0,1-1.91.23,3,3,0,0,1-2.28-.83,4.27,4.27,0,0,1-.83-2.87V41.48H66.5v-2H68V37.17Z"/>
    <path class="a6550e8e-1943-4093-8d3d-d27da05ad78f" d="M74.64,34.78h2.63v6.16h.06a3.2,3.2,0,0,1,1.32-1.19,3.6,3.6,0,0,1,1.79-.48c1.79,0,3.59,1.19,3.59,4.48v6.11H81.4V44.05c0-1.49-.54-2.63-2-2.63a2.14,2.14,0,0,0-2,1.5,3,3,0,0,0-.12.77v6.23H74.64V34.78Z"/>
    <path class="8b9b9810-fb48-42df-b439-f25ddf5e7846" d="M95.63,46.8c0,1.26.06,2.28.06,3.12H93.42l-.12-1.56h-.06A3.77,3.77,0,0,1,90,50.15c-1.91,0-3.59-1.13-3.59-4.48v-6.1H89v5.62c0,1.73.54,2.81,1.92,2.81a2.13,2.13,0,0,0,2-1.37,3.51,3.51,0,0,0,.12-.78V39.57h2.63V46.8Z"/>
    <path class="8b9b9810-fb48-42df-b439-f25ddf5e7846" d="M97.91,47.52a5.88,5.88,0,0,0,2.63.72c1.14,0,1.67-.48,1.67-1.14s-.41-1.07-1.67-1.49c-2-.72-2.87-1.8-2.87-3,0-1.86,1.49-3.23,3.89-3.23a6.49,6.49,0,0,1,2.75.6l-.54,1.85a4.69,4.69,0,0,0-2.21-.6c-1,0-1.44.42-1.44,1.08s.48,1,1.79,1.43c1.86.66,2.76,1.62,2.76,3.17,0,1.86-1.5,3.23-4.19,3.23a6.88,6.88,0,0,1-3.17-.71Z"/>
  </g>
  <g>
    <path class="a6550e8e-1943-4093-8d3d-d27da05ad78f" d="M53.26,24.59a9.69,9.69,0,0,1,2.55.34,9.75,9.75,0,0,1,6.71-2.67,9.47,9.47,0,0,1,2.67.38A9.81,9.81,0,0,1,69.37,20a9.75,9.75,0,0,0-18.46,4.39c0,.17,0,.34,0,.51A9.47,9.47,0,0,1,53.26,24.59Z"/>
    <path class="788970e5-1f51-4a65-95d0-2b455c2b4551" d="M55.65,24.62a8.12,8.12,0,0,0-2.27-.26,9.33,9.33,0,0,0-2.2.26c0-.16,0-.33,0-.49a9.38,9.38,0,0,1,7-9S55,19.56,55.65,24.62Z"/>
    <path class="d76da7fe-c0cf-4c25-b411-a3294458f04a" d="M65.11,22.18A7.85,7.85,0,0,1,67,20.76,9.5,9.5,0,0,1,69,19.84l-.24-.43a9.4,9.4,0,0,0-10.71-4.25S63.08,17.39,65.11,22.18Z"/>
    <circle class="65555194-2510-4f3f-810a-48115deb5e97" cx="63.77" cy="35.91" r="1.93"/>
    <line class="67c30d4d-357d-49d4-aded-5181dd079f4a" x1="69.32" y1="20.04" x2="63.71" y2="34.46"/>
    <line class="67c30d4d-357d-49d4-aded-5181dd079f4a" x1="65.16" y1="22.15" x2="63.53" y2="34.4"/>
    <line class="67c30d4d-357d-49d4-aded-5181dd079f4a" x1="55.62" y1="24.68" x2="63.04" y2="34.7"/>
    <line class="67c30d4d-357d-49d4-aded-5181dd079f4a" x1="50.91" y1="24.68" x2="63.16" y2="35.18"/>
  </g>
</svg>
