<svg xmlns="http://www.w3.org/2000/svg" viewBox="0 0 48 48"><defs><style>.cls-1{fill:#ffa400;}.cls-2{fill:#fff;}.cls-3{fill:#8a1a9b;}</style></defs><title>j-senseway</title><g id="Layer_3" data-name="Layer 3"><path class="cls-1" d="M24,6A18,18,0,1,0,42,24,18,18,0,0,0,24,6"/><path class="cls-2" d="M12.41,30.63a13.49,13.49,0,0,0,24.77-3l-1.93-3.3-4.86,5.84L24.16,19.67,17.68,30.22,9.31,18.8l.24-.6A15.75,15.75,0,0,1,37.09,15l-1.91,1.33A13.42,13.42,0,0,0,12,18.48l5.55,7.57,6.68-10.88,6.52,11,4.87-5.87,4.09,7-.11.45a15.82,15.82,0,0,1-29.18,4.08Z"/><circle class="cls-3" cx="37.66" cy="18.63" r="1.9"/><circle class="cls-3" cx="10.07" cy="28.23" r="1.9"/></g></svg>