<svg width="48" height="48" viewBox="0 0 48 48" fill="none" xmlns="http://www.w3.org/2000/svg">
<g clip-path="url(#clip0_1695_1063)">
<rect x="6" y="5.06567" width="36" height="35.8675" rx="3" fill="#0F2839"/>
<path fill-rule="evenodd" clip-rule="evenodd" d="M24 13.4348C17.952 13.4348 13.2 18.1693 13.2 24.195C13.2 27.3514 14.496 30.2208 16.512 32.2294C17.232 32.9467 18.528 32.9467 19.392 32.3728C20.544 31.3685 22.272 30.7947 24 30.7947C25.872 30.7947 27.312 31.3685 28.608 32.3728C29.472 33.0902 30.624 32.9467 31.488 32.0859C33.504 30.0773 34.8 27.3514 34.8 24.195C34.656 18.3128 29.904 13.4348 24 13.4348ZM23.856 29.7904C20.544 29.7904 18.384 27.3514 18.384 24.3385C18.384 21.3256 20.544 18.8866 23.856 18.8866C27.168 18.8866 29.328 21.3256 29.328 24.3385C29.328 27.3514 27.168 29.7904 23.856 29.7904Z" fill="#70D051"/>
</g>
<defs>
<clipPath id="clip0_1695_1063">
<rect width="36" height="36" fill="white" transform="translate(6 5)"/>
</clipPath>
</defs>
</svg>
