<svg id="Layer_1" data-name="Layer 1" xmlns="http://www.w3.org/2000/svg" xmlns:xlink="http://www.w3.org/1999/xlink" viewBox="0 0 48 48"><defs><style>.cls-1{fill:url(#linear-gradient);}.cls-2{fill:#fff;}</style><linearGradient id="linear-gradient" x1="24" y1="6.33" x2="24" y2="42.01" gradientUnits="userSpaceOnUse"><stop offset="0.15" stop-color="#84c74b"/><stop offset="0.83" stop-color="#57b849"/></linearGradient></defs><title>servicem8</title><rect class="cls-1" x="6.16" y="6" width="35.68" height="36" rx="6.4" ry="6.4"/><path class="cls-2" d="M30.65,9.72a5.87,5.87,0,0,0-5.86,5.86A6,6,0,0,0,25,17.23h0s.52,2.46-.71,3.69a3.08,3.08,0,0,1-2.42.73,8,8,0,0,0-1.09-.17h0a7.32,7.32,0,0,0-.81,0,8.4,8.4,0,1,0,8.51,8.4,8.25,8.25,0,0,0-1.28-4.42h0a2.59,2.59,0,0,1,.55-2.75,3.85,3.85,0,0,1,2.8-1.23h.07a5.86,5.86,0,0,0,0-11.72Z"/></svg>