<svg id="0f9a8b3a-cdd6-49c2-8645-2ba87fc979ce"   xmlns="http://www.w3.org/2000/svg" viewBox="0 0 48 48">
  <defs>
    <style>
      .d8139702-c524-4ee0-9189-3ab4d411de9a {
        fill: none;
        stroke: #119fda;
        stroke-linecap: round;
        stroke-miterlimit: 10;
        stroke-width: 0.79px;
      }

      .\37 056a96b-09fb-4d45-9453-0a7002330664 {
        fill: #4e748b;
      }

      .dbdbf408-4b79-40bc-95a7-813debda45c2 {
        fill: #119fda;
      }
    </style>
  </defs>
  <title>salesforce einstein</title>
  <g>
    <path class="d8139702-c524-4ee0-9189-3ab4d411de9a" d="M29.21,9.91c-4.58-1.79-8.32,1-11.07,4.47-3,3.73-6.11,8.65-7.35,13.31-.95,3.56,0,7.77,3.16,9.93s9,1.92,11.37-1.23c2-2.67,1.2-6.83.11-9.72-1.51-4-5.43-7-9.38-8.3C11.9,17,6.66,17.49,3.91,21.28c-2.53,3.5-2.21,9.19,1.7,11.55,5.55,3.36,9.9-.84,13.09-5.12a80.13,80.13,0,0,1,10.12-11.8"/>
    <path class="d8139702-c524-4ee0-9189-3ab4d411de9a" d="M38.05,12.55c4.25,1.09,7.85,4,8.35,8.58.32,2.94-.61,6.56-3,8.45-3.62,2.81-8.53,3.05-11.86-.2-2.82-2.76-4.17-6.64-5.93-10.08C23.5,15.3,20.75,9.74,16,8.55c-3.58-.89-8.2.9-9.74,4.35-2.14,4.8,1,10,4.34,13.28,4,4,9.28,7.61,15,8.5,2.58.4,6,.39,8.29-1.2,5.39-3.81,2.32-10.57,1.29-15.59"/>
    <path class="7056a96b-09fb-4d45-9453-0a7002330664" d="M33.06,11.74a1.73,1.73,0,1,1-1.72,1.73,1.73,1.73,0,0,1,1.72-1.73m0-1.84a3.57,3.57,0,1,0,3.57,3.57A3.57,3.57,0,0,0,33.06,9.9Z"/>
    <circle class="dbdbf408-4b79-40bc-95a7-813debda45c2" cx="9.23" cy="9.9" r="1.74"/>
    <circle class="dbdbf408-4b79-40bc-95a7-813debda45c2" cx="19.33" cy="26.89" r="1.62"/>
  </g>
</svg>
