<svg xmlns="http://www.w3.org/2000/svg" viewBox="0 0 48 48"><title>slicingdice</title><polygon points="5.86 13.59 5.92 33.81 24.23 44.84 24.18 23.69 5.86 13.59" style="fill:#939393"/><polygon points="28.64 21.02 28.71 42.06 24.25 44.84 24.18 23.69 28.64 21.02" style="fill:#a5a5a5"/><polygon points="35.33 17.15 24.02 10.34 19.44 13.08 30.75 19.77 35.33 17.15" style="fill:#64b7b7"/><polygon points="35.33 17.15 35.45 38 30.88 40.74 30.75 19.77 35.33 17.15" style="fill:#5aa19e"/><polygon points="42.37 13.51 42.37 33.81 37.67 36.67 37.67 16.06 42.37 13.51" style="fill:#a5a5a5"/><polygon points="5.86 13.59 24.18 3.26 42.37 13.47 37.67 16.06 24.18 7.94 14.59 13.27 21.76 17.27 28.64 21.02 24.18 23.69 5.86 13.59" style="fill:#cecece"/></svg>