<svg xmlns="http://www.w3.org/2000/svg" viewBox="0 0 48 48">
  <title>icon-</title>
  <g id="smaregi">
    <g>
      <path d="M40.67,39.3a2,2,0,0,1-2,2H9.2a1.89,1.89,0,0,1-1.87-2V8.7a1.9,1.9,0,0,1,1.87-2H38.69a2,2,0,0,1,2,2Z"/>
      <path d="M33.66,25.05H32.39a.15.15,0,0,0-.16.16v3.1a.16.16,0,0,0,.16.16h1.27a.16.16,0,0,0,.16-.16v-3.1A.15.15,0,0,0,33.66,25.05Zm2.36,0H34.78a.15.15,0,0,0-.16.16v3.1a.16.16,0,0,0,.16.16h1.27a.16.16,0,0,0,.16-.16v-3.1A.2.2,0,0,0,36,25.05Zm-1.65,5.61a.17.17,0,0,0-.23-.05l-7.8,5a.18.18,0,0,0,0,.23l.92,1.36a.18.18,0,0,0,.23.05l7.79-5a.18.18,0,0,0,0-.23Zm-8.32-4.81a.15.15,0,0,0-.16.16v1.52a.15.15,0,0,0,.16.16h4.69a.16.16,0,0,0,.16-.16V26a.16.16,0,0,0-.16-.16Zm4.87,4.85V29.18a.16.16,0,0,0-.16-.16H26.05a.15.15,0,0,0-.16.16V30.7a.15.15,0,0,0,.16.16h4.69A.18.18,0,0,0,30.92,30.7Zm-9.7.55a.17.17,0,0,0-.23,0l-5.47,3.58v-9a.16.16,0,0,0-.16-.16H13.72a.16.16,0,0,0-.16.16V37.05a.16.16,0,0,0,.16.16H15.4s0,0,.07,0l6.64-4.34a.17.17,0,0,0,.05-.23Zm8.34-14.41-1.67-1.68a.15.15,0,0,0-.23,0l-1.18,1.17a.15.15,0,0,0,0,.23l5.91,5.91a.15.15,0,0,0,.23,0l1.17-1.17a.15.15,0,0,0,0-.23L31,18.26l5.08-5.6a.15.15,0,0,0,0-.23l-1.2-1.2s0,0,0,0a.1.1,0,0,0-.09,0H25.86a.19.19,0,0,0-.16.19v1.7a.18.18,0,0,0,.16.18H32.8Zm-11.28-.12,3.54-3.93.13-.13a.15.15,0,0,0,0-.23l-1.19-1.2s0,0-.05,0,0,0-.09,0H12.51a.19.19,0,0,0-.17.19v1.7a.18.18,0,0,0,.17.18h6.2l-.09.19-6.9,7.65a.17.17,0,0,0,0,.23l1.18,1.17a.15.15,0,0,0,.23,0L17,18.24l3.7,4.25a.18.18,0,0,0,.23,0l1.24-1.08a.17.17,0,0,0,0-.23Z" style="fill: #fff"/>
    </g>
  </g>
</svg>
