<svg xmlns="http://www.w3.org/2000/svg" viewBox="0 0 48 48">
  <title>icon-smartdrive</title>
  <g id="Layer_3" data-name="Layer 3">
    <path d="M24.06,19.08a4.91,4.91,0,0,0-2.23.52l2.35,4.7L21.84,29a5.3,5.3,0,0,0,2.25.51l2.59-5.2Z" style="fill: #05867b"/>
    <path d="M6.61,24.29A17.65,17.65,0,0,1,7.42,19h-2a19.06,19.06,0,0,0-.73,5.27,19.27,19.27,0,0,0,6.43,14.38h3.08A17.43,17.43,0,0,1,6.61,24.29Z" style="fill: #05867b"/>
    <path d="M8.11,16.37H23.59a7.92,7.92,0,0,1,5.88,13.24h2.39a9.82,9.82,0,0,0-8.08-15.14H7.4c-.36.61-.7,1.25-1,1.92l1.72,0Z" style="fill: #05867b"/>
    <path d="M36.87,9.91H33.79a17.42,17.42,0,0,1,6.77,19.7h2a19.28,19.28,0,0,0-5.68-19.7Z" style="fill: #05867b"/>
    <path d="M39.91,32.23H30.22s0,0,0,0H24.42A7.92,7.92,0,0,1,18.51,19H16.14a9.71,9.71,0,0,0-1.54,5.27,9.84,9.84,0,0,0,9.83,9.83v0h16.2c.36-.62.69-1.26,1-1.91Z" style="fill: #05867b"/>
    <path d="M24,36.76A12.45,12.45,0,0,1,12.72,19H10.64a14.2,14.2,0,0,0-1,5.27A14.38,14.38,0,0,0,24,38.65a14.2,14.2,0,0,0,7.15-1.91H24.34Z" style="fill: #05867b"/>
    <path d="M24,9.92a14.22,14.22,0,0,0-7.17,1.93H24A12.47,12.47,0,0,1,36.47,24.3a12.34,12.34,0,0,1-1.19,5.32h2.09A14.4,14.4,0,0,0,24,9.92Z" style="fill: #05867b"/>
  </g>
</svg>
