<svg xmlns="http://www.w3.org/2000/svg" viewBox="0 0 48 48"><defs><style>.cls-1{fill:#fff;}.cls-2{fill:#fffd00;}</style></defs><title>icon-</title><g id="snapchat_ads" data-name="snapchat ads"><path class="cls-1" d="M41.29,35.39a9.83,9.83,0,0,1-2.55,1l-.53.15a1.2,1.2,0,0,0-.43.25,1.27,1.27,0,0,0-.17.53,1.88,1.88,0,0,1-.74,1.3,3.76,3.76,0,0,1-2.09.43,11.37,11.37,0,0,0-3.31.51,8.58,8.58,0,0,0-1.75.9,10,10,0,0,1-11.44,0,8.58,8.58,0,0,0-1.77-.92A11.31,11.31,0,0,0,13.2,39a3.84,3.84,0,0,1-2.09-.43,1.83,1.83,0,0,1-.72-1.22,1.46,1.46,0,0,0-.19-.62,1.08,1.08,0,0,0-.45-.25l-.51-.15a10.29,10.29,0,0,1-2.79-1.12,1.78,1.78,0,0,1-.94-1.83c.15-.51.92-.9.92-.9l.21-.12A14.73,14.73,0,0,0,10,30.16a10.89,10.89,0,0,0,2-2.24,8.46,8.46,0,0,0,1.08-2.21.75.75,0,0,0,0-.58.92.92,0,0,0-.29-.32l-1.54-1c-.37-.24-.7-.45-.88-.58a3.7,3.7,0,0,1-1.26-1.32A2.24,2.24,0,0,1,9,20a2.21,2.21,0,0,1,2.19-1.4,3.43,3.43,0,0,1,.71.08,11.19,11.19,0,0,1,1.63.52.05.05,0,0,0,.08-.05,31.7,31.7,0,0,1,0-4.24,10.34,10.34,0,0,1,.85-3.49A9.45,9.45,0,0,1,16,9.12a9.57,9.57,0,0,1,2.4-1.93A11.21,11.21,0,0,1,24,5.76a11.19,11.19,0,0,1,5.6,1.43A9.14,9.14,0,0,1,32,9.12a9.45,9.45,0,0,1,1.52,2.28,10.58,10.58,0,0,1,.85,3.49,33.5,33.5,0,0,1,0,4.24s0,.07.07.05a11.34,11.34,0,0,1,1.64-.52,3.34,3.34,0,0,1,.7-.08A2.22,2.22,0,0,1,39,20a2.31,2.31,0,0,1-.11,1.91,3.79,3.79,0,0,1-1.26,1.32l-.88.58c-.43.28-1.13.73-1.57,1a1,1,0,0,0-.27.3.8.8,0,0,0,0,.56A8.41,8.41,0,0,0,36,27.92a11.42,11.42,0,0,0,2,2.24,14.94,14.94,0,0,0,3.39,2.22,1.86,1.86,0,0,0,.2.1s.77.38.93.92S42.53,34.69,41.29,35.39Z"/><path class="cls-2" d="M41.29,35.39a9.83,9.83,0,0,1-2.55,1l-.53.15a1.2,1.2,0,0,0-.43.25,1.27,1.27,0,0,0-.17.53,1.88,1.88,0,0,1-.74,1.3,3.76,3.76,0,0,1-2.09.43,11.37,11.37,0,0,0-3.31.51,8.58,8.58,0,0,0-1.75.9,10,10,0,0,1-11.44,0,8.58,8.58,0,0,0-1.77-.92A11.31,11.31,0,0,0,13.2,39a3.84,3.84,0,0,1-2.09-.43,1.83,1.83,0,0,1-.72-1.22,1.46,1.46,0,0,0-.19-.62,1.08,1.08,0,0,0-.45-.25l-.51-.15a10.29,10.29,0,0,1-2.79-1.12,1.78,1.78,0,0,1-.94-1.83c.15-.51.92-.9.92-.9l.21-.12A14.73,14.73,0,0,0,10,30.16a10.89,10.89,0,0,0,2-2.24,8.46,8.46,0,0,0,1.08-2.21.75.75,0,0,0,0-.58.92.92,0,0,0-.29-.32l-1.54-1c-.37-.24-.7-.45-.88-.58a3.7,3.7,0,0,1-1.26-1.32A2.24,2.24,0,0,1,9,20a2.21,2.21,0,0,1,2.19-1.4,3.43,3.43,0,0,1,.71.08,11.19,11.19,0,0,1,1.63.52.05.05,0,0,0,.08-.05,31.7,31.7,0,0,1,0-4.24,10.34,10.34,0,0,1,.85-3.49A9.45,9.45,0,0,1,16,9.12a9.57,9.57,0,0,1,2.4-1.93A11.21,11.21,0,0,1,24,5.76a11.19,11.19,0,0,1,5.6,1.43A9.14,9.14,0,0,1,32,9.12a9.45,9.45,0,0,1,1.52,2.28,10.58,10.58,0,0,1,.85,3.49,33.5,33.5,0,0,1,0,4.24s0,.07.07.05a11.34,11.34,0,0,1,1.64-.52,3.34,3.34,0,0,1,.7-.08A2.22,2.22,0,0,1,39,20a2.31,2.31,0,0,1-.11,1.91,3.79,3.79,0,0,1-1.26,1.32l-.88.58c-.43.28-1.13.73-1.57,1a1,1,0,0,0-.27.3.8.8,0,0,0,0,.56A8.41,8.41,0,0,0,36,27.92a11.42,11.42,0,0,0,2,2.24,14.94,14.94,0,0,0,3.39,2.22,1.86,1.86,0,0,0,.2.1s.77.38.93.92S42.53,34.69,41.29,35.39Z"/><path d="M43.55,33a2.71,2.71,0,0,0-1.39-1.47,2.25,2.25,0,0,0-.3-.16l-.54-.27A11.68,11.68,0,0,1,37,27.39a7.67,7.67,0,0,1-.74-1.31.61.61,0,0,1,0-.51.91.91,0,0,1,.24-.24c.32-.21.64-.43.87-.57l.91-.6a4.86,4.86,0,0,0,1.62-1.73,3.42,3.42,0,0,0,.17-2.85,3.38,3.38,0,0,0-3.27-2.15,5,5,0,0,0-1,.1l-.25.06a26.53,26.53,0,0,0-.09-2.8,10.15,10.15,0,0,0-2.65-6.42A10.39,10.39,0,0,0,30.18,6.2,12.18,12.18,0,0,0,24,4.61a12.24,12.24,0,0,0-6.17,1.58,10.72,10.72,0,0,0-2.7,2.17,10.21,10.21,0,0,0-2.65,6.43c-.08.94-.1,1.9-.09,2.8l-.24-.06a4.45,4.45,0,0,0-1-.1,3.4,3.4,0,0,0-3.11,5,5,5,0,0,0,1.62,1.73l.92.6.83.54a1,1,0,0,1,.27.27.61.61,0,0,1,0,.54A8.62,8.62,0,0,1,11,27.39,11.72,11.72,0,0,1,6.8,31c-1,.5-1.94.84-2.35,2a2.47,2.47,0,0,0,.69,2.64,4.18,4.18,0,0,0,1,.77,11,11,0,0,0,2.46,1,1.52,1.52,0,0,1,.49.22c.3.26.25.64.64,1.2a3.08,3.08,0,0,0,.73.75,4.81,4.81,0,0,0,2.69.63,9.93,9.93,0,0,1,3,.45,7.27,7.27,0,0,1,1.52.8,11.12,11.12,0,0,0,12.65,0,8.5,8.5,0,0,1,1.5-.79,10,10,0,0,1,3-.45,4.84,4.84,0,0,0,2.7-.63,3,3,0,0,0,.83-.91c.27-.47.27-.81.53-1a1.24,1.24,0,0,1,.47-.21,11.48,11.48,0,0,0,2.5-1,4.11,4.11,0,0,0,1.06-.81h0A2.49,2.49,0,0,0,43.55,33Zm-2.26,2.41a9.83,9.83,0,0,1-2.55,1l-.53.15a1.2,1.2,0,0,0-.43.25,1.27,1.27,0,0,0-.17.53,1.88,1.88,0,0,1-.74,1.3,3.76,3.76,0,0,1-2.09.43,11.37,11.37,0,0,0-3.31.51,8.58,8.58,0,0,0-1.75.9,10,10,0,0,1-11.44,0,8.58,8.58,0,0,0-1.77-.92A11.31,11.31,0,0,0,13.2,39a3.84,3.84,0,0,1-2.09-.43,1.83,1.83,0,0,1-.72-1.22,1.46,1.46,0,0,0-.19-.62,1.08,1.08,0,0,0-.45-.25l-.51-.15a10.29,10.29,0,0,1-2.79-1.12,1.78,1.78,0,0,1-.94-1.83c.15-.51.92-.9.92-.9l.21-.12A14.73,14.73,0,0,0,10,30.16a10.89,10.89,0,0,0,2-2.24,8.46,8.46,0,0,0,1.08-2.21.75.75,0,0,0,0-.58.92.92,0,0,0-.29-.32l-1.54-1c-.37-.24-.7-.45-.88-.58a3.7,3.7,0,0,1-1.26-1.32A2.24,2.24,0,0,1,9,20a2.21,2.21,0,0,1,2.19-1.4,3.43,3.43,0,0,1,.71.08,11.19,11.19,0,0,1,1.63.52.05.05,0,0,0,.08-.05,31.7,31.7,0,0,1,0-4.24,10.34,10.34,0,0,1,.85-3.49A9.45,9.45,0,0,1,16,9.12a9.57,9.57,0,0,1,2.4-1.93A11.21,11.21,0,0,1,24,5.76a11.19,11.19,0,0,1,5.6,1.43A9.14,9.14,0,0,1,32,9.12a9.45,9.45,0,0,1,1.52,2.28,10.58,10.58,0,0,1,.85,3.49,33.5,33.5,0,0,1,0,4.24s0,.07.07.05a11.34,11.34,0,0,1,1.64-.52,3.34,3.34,0,0,1,.7-.08A2.22,2.22,0,0,1,39,20a2.31,2.31,0,0,1-.11,1.91,3.79,3.79,0,0,1-1.26,1.32l-.88.58c-.43.28-1.13.73-1.57,1a1,1,0,0,0-.27.3.8.8,0,0,0,0,.56A8.41,8.41,0,0,0,36,27.92a11.42,11.42,0,0,0,2,2.24,14.94,14.94,0,0,0,3.39,2.22,1.86,1.86,0,0,0,.2.1s.77.38.93.92S42.53,34.69,41.29,35.39Z"/></g></svg>