<svg xmlns="http://www.w3.org/2000/svg" viewBox="0 0 48 48"><title>snowflake</title><path d="M24.43,28.27a1,1,0,0,1-.71-1.71l2.8-2.79L23.85,21.1a1,1,0,0,1,0-1.42,1,1,0,0,1,1.41,0l3.38,3.38v1.41L25.14,28A1,1,0,0,1,24.43,28.27Z" style="fill:#26a5ff"/><path d="M23.87,28.27a1,1,0,0,1-.71-.3L19.79,24.6V23.18l3.5-3.5a1,1,0,0,1,1.41,0,1,1,0,0,1,0,1.42l-2.79,2.79,2.66,2.67a1,1,0,0,1-.7,1.71Z" style="fill:#26a5ff"/><path d="M42.33,31.2a2,2,0,0,1-1-.25l-9.62-5.31a2,2,0,0,1-1-1.74,2,2,0,0,1,1-1.75l9.62-5.44a2,2,0,1,1,2,3.48l-6.51,3.68,6.49,3.58a2,2,0,0,1-1,3.75Z" style="fill:#26a5ff"/><path d="M6.09,31.2a2,2,0,0,1-1-3.74l6.51-3.67L5.12,20.2a2,2,0,0,1,1.93-3.5L16.68,22a2,2,0,0,1,0,3.5L7.07,30.94A2,2,0,0,1,6.09,31.2Z" style="fill:#26a5ff"/><path d="M26.92,43.21a2.09,2.09,0,0,1-.27-1l-.23-11a2,2,0,0,1,3-1.76L39,35.09a2,2,0,0,1-2,3.45L30.5,34.75l.15,7.41a2,2,0,0,1-3.73,1.05Z" style="fill:#26a5ff"/><path d="M8.74,11.85a2,2,0,0,1,2.74-2.73l6.45,3.78-.16-7.41a2,2,0,0,1,4-.08l.23,11a2,2,0,0,1-1,1.77,2,2,0,0,1-2,0l-9.53-5.6A2,2,0,0,1,8.74,11.85Z" style="fill:#26a5ff"/><path d="M8.52,35.52a2,2,0,0,1,.71-.7l9.53-5.49a2,2,0,0,1,3,1.8l-.33,11.05a2,2,0,0,1-4-.12l.22-7.47-6.42,3.7a2,2,0,0,1-2.73-.74A2,2,0,0,1,8.52,35.52Z" style="fill:#26a5ff"/><path d="M27.28,4.5a2,2,0,0,1,1.77-1A2,2,0,0,1,31,5.6l-.22,7.47,6.42-3.7a2,2,0,1,1,2,3.47l-9.53,5.48a2,2,0,0,1-3-1.79l.33-11A2,2,0,0,1,27.28,4.5Z" style="fill:#26a5ff"/></svg>