<svg id="Layer_1" data-name="Layer 1" xmlns="http://www.w3.org/2000/svg" viewBox="0 0 48 48"><defs><style>.cls-1{fill:#f99d1c;}</style></defs><title>solarwindsservicedesk</title><path class="cls-1" d="M23.37,23.58c-2.07.56-4.14,1-6.21,1.69A27.29,27.29,0,0,0,1.83,18.41,50.06,50.06,0,0,1,30.8,9l-3.57,3.29s15.14-.56,18.9-5.73a9.68,9.68,0,0,1-.47,1.59A17.28,17.28,0,0,1,40.11,16a32.29,32.29,0,0,1-7.8,4.51,71.2,71.2,0,0,1-8.56,3.11c-.1-.1-.29,0-.38,0m23.7-.47a84.24,84.24,0,0,0-28.4,3.57,27.26,27.26,0,0,1,4.79,6.87c7.62-4.23,18.16-9.69,23.61-10.44M24.41,35.71A26.51,26.51,0,0,1,26.1,43L39.36,29.32Zm7.14,7.15a1.13,1.13,0,1,0-1.22-1.13,1.11,1.11,0,0,0,1.09,1.13h.13m0-2a.87.87,0,0,1,.94.79v.06c0,.66-.47.85-.94.85a.86.86,0,0,1-.93-.79.13.13,0,0,1,0-.06c0-.66.47-.85.94-.85M32,42.29,31.93,42c0-.09-.09-.19-.19-.28.1-.09.19-.09.19-.28s-.28-.38-.47-.38h-.38v1.22h.29v-.47h.18c.1,0,.1.19.1.29l.09.18Zm-.47-.94c.19,0,.19,0,.19.19s-.09.19-.37.19v-.38h.18"/></svg>