<svg xmlns="http://www.w3.org/2000/svg" viewBox="0 0 108 72">
  <defs>
    <style>
      .\32 064918d-29fb-4387-8a1d-3fda43abd38a {
        fill: #005288;
      }

      .edffa973-7a9d-43c3-b7af-746963577629 {
        fill: #a7a9ac;
      }
    </style>
  </defs>
  <title>spacex</title>
  <g id="42999317-bde3-450d-8aff-d4e342f01feb" data-name="NEED VECTOR">
    <g>
      <path class="2064918d-29fb-4387-8a1d-3fda43abd38a" d="M10.81,38.4c1.41,0,2.83,0,4.25,0,.44,0,.56-.16.55-.56,0-1.34.13-1.18-1.14-1.18l-5.9,0a5.54,5.54,0,0,1-.81-.07,1.51,1.51,0,0,1-1.49-1.72,15.71,15.71,0,0,1,.05-1.68,1.37,1.37,0,0,1,1.23-1.24,4.79,4.79,0,0,1,1-.11c2.26,0,4.51,0,6.76,0a5.89,5.89,0,0,1,1.54.33,1.2,1.2,0,0,1,.54.46.71.71,0,0,1,.12.56c0,.1-.31.17-.48.17-2.64,0-5.28,0-7.92,0-.42,0-.56.1-.55.54C8.6,35.17,8.42,35,9.67,35c2,0,4,0,6,0a5,5,0,0,1,1.27.2,1.25,1.25,0,0,1,.92,1.23c0,.67,0,1.35,0,2a1.4,1.4,0,0,1-1.31,1.48,6.72,6.72,0,0,1-1.1.1c-2.46,0-4.93,0-7.39,0a4.7,4.7,0,0,1-1.23-.19A1.23,1.23,0,0,1,6,39c-.16-.47-.07-.61.45-.61h4.4Z"/>
      <path class="2064918d-29fb-4387-8a1d-3fda43abd38a" d="M23.59,40h-2.5c0-.16,0-.3,0-.44V32.52c0-.54.15-.69.68-.69h8.89a3.88,3.88,0,0,1,.95.13,1.4,1.4,0,0,1,1.17,1.54c0,.51,0,1,0,1.55A1.55,1.55,0,0,1,31,36.84c-1.15,0-2.29,0-3.43,0s-2.26,0-3.39,0c-.43,0-.61.13-.59.58,0,.73,0,1.45,0,2.18A2.87,2.87,0,0,1,23.59,40Zm3.22-6.66h0c-.89,0-1.78,0-2.66,0-.37,0-.54.11-.52.5a7.06,7.06,0,0,1,0,.92c0,.45.15.63.62.63,1.58,0,3.15,0,4.73,0,1.18,0,1.26-.08,1.26-1.25,0-.6-.16-.77-.78-.77C28.58,33.35,27.69,33.36,26.81,33.36Z"/>
      <path class="2064918d-29fb-4387-8a1d-3fda43abd38a" d="M60.2,33.37H51.66c-.61,0-.63,0-.63.62v3.77c0,.62,0,.64.66.64H60a1.07,1.07,0,0,1-.61,1.33,3.63,3.63,0,0,1-1.3.3c-2.54,0-5.09,0-7.63,0a4.06,4.06,0,0,1-.91-.12,1.43,1.43,0,0,1-1.16-1.52c0-1.63,0-3.25,0-4.88A1.47,1.47,0,0,1,50,31.91a11.17,11.17,0,0,1,1.29-.08h6.53a7.44,7.44,0,0,1,1.15.1C59.69,32.07,60.05,32.47,60.2,33.37Z"/>
      <path class="edffa973-7a9d-43c3-b7af-746963577629" d="M105,28c-1.62.41-3.24.78-4.84,1.24A44,44,0,0,0,81.32,39.77a1,1,0,0,1-.59.25c-.87,0-1.74,0-2.61,0a.86.86,0,0,1-.55-.31c0-.06.1-.36.22-.48a40.84,40.84,0,0,1,13.52-8.16A57.53,57.53,0,0,1,102.84,28a11.42,11.42,0,0,1,1.55-.06H105Z"/>
      <path class="2064918d-29fb-4387-8a1d-3fda43abd38a" d="M63.51,40c0-1.76,0-3.47,0-5.17,0-.1.17-.29.26-.29,2.39,0,4.79,0,7.23,0v1.53H66.78c-.66,0-.66,0-.66.68v1.11c0,.67,0,.7.72.7h4.25c1,0,2.06,0,3.09,0,.31,0,.44.09.42.42s0,.67,0,1Z"/>
      <path class="2064918d-29fb-4387-8a1d-3fda43abd38a" d="M47.07,40c-1,0-1.92,0-2.81,0-.14,0-.29-.14-.43-.21s0,0,0,0c-1.37-1.8-.86-1.47-3-1.49-1.67,0-3.35,0-5,0h-.66c.49-.58.88-1.06,1.3-1.51.08-.09.3-.09.45-.09h4a2.15,2.15,0,0,0,.44-.09,1.59,1.59,0,0,0-.16-.43c-.56-.8-1.12-1.61-1.71-2.39a.5.5,0,0,1,0-.75c.43-.48.82-1,1.29-1.57Z"/>
      <path class="2064918d-29fb-4387-8a1d-3fda43abd38a" d="M74.69,31.87v1.56H63.54V31.87Z"/>
      <path class="2064918d-29fb-4387-8a1d-3fda43abd38a" d="M91.77,40c-1,0-2.06,0-3.09,0a.8.8,0,0,1-.41-.09c-1.15-.82-2.28-1.66-3.51-2.55.55-.44,1-.86,1.57-1.25.75-.56.52-.53,1.24,0l4.36,3.18C92.05,39.43,92,40,91.77,40Z"/>
      <path class="2064918d-29fb-4387-8a1d-3fda43abd38a" d="M77.93,31.8c1,0,2.67,0,3.32,0a1.33,1.33,0,0,1,.7.23c.81.55,1.59,1.15,2.45,1.78l-.74.4c-.53.29-1.06.59-1.61.86a.57.57,0,0,1-.46,0,37.82,37.82,0,0,1-3.85-2.77A.29.29,0,0,1,77.93,31.8Z"/>
    </g>
  </g>
</svg>
