<svg id="bcea114e-a505-4b00-a785-92f67706187f" data-name="Icons" xmlns="http://www.w3.org/2000/svg" viewBox="0 0 108 72">
  <defs>
    <style>
      .\39 87172d4-d050-45fd-bf8d-9db292ff5067 {
        fill: #55555a;
      }

      .\37 d618fd6-2dc6-49df-8e9c-310e81a655e7 {
        fill: #fa6423;
      }
    </style>
  </defs>
  <title>sparkpost</title>
  <g>
    <path class="987172d4-d050-45fd-bf8d-9db292ff5067" d="M8.46,42,10,40.14a5.53,5.53,0,0,0,3.58,1.44c1.11,0,1.71-.44,1.71-1.11h0c0-.66-.38-1-2.42-1.54-2.37-.61-4-1.32-4-3.69h0c0-2.21,1.76-3.64,4.19-3.64a6.86,6.86,0,0,1,4.46,1.54l-1.37,2A5.67,5.67,0,0,0,13,34c-1,0-1.54.5-1.54,1.05h0c0,.82.55,1,2.59,1.6,2.43.6,3.8,1.48,3.8,3.58h0c0,2.37-1.81,3.75-4.41,3.75a7.93,7.93,0,0,1-5-1.93ZM19.54,31.76h4.9c2.87,0,4.63,1.71,4.63,4.14h0c0,2.76-2.15,4.24-4.85,4.24h-2v3.59h-2.7v-12Zm4.74,6A1.87,1.87,0,0,0,26.37,36h0c0-1.15-.82-1.81-2.15-1.81h-2v3.69h2.1Zm8.49-6.12h2.42l5.19,12.08H37.62L36.52,41H31.45l-1.11,2.7h-2.7l5.13-12.08Zm2.81,7.06L34,34.8l-1.6,3.91Zm6.06-6.95H47.1A5,5,0,0,1,50.63,33a3.79,3.79,0,0,1,1,2.75h0a3.79,3.79,0,0,1-2.6,3.75L52,43.78H48.92L46.33,40h-2.1v3.8H41.59l0-12Zm5.29,5.79c1.27,0,2-.66,2-1.71h0c0-1.1-.82-1.7-2.09-1.7H44.23v3.47h2.7Zm18.75-5.79H70c2.65,0,4.47,1.38,4.47,3.7h0c0,2.53-2.21,3.8-4.69,3.8H66.56v4.47h-.88v-12Zm4.19,6.67c2.2,0,3.74-1.15,3.74-3h0c0-1.93-1.48-2.92-3.63-2.92H66.56v5.89ZM88.77,42l.56-.66a5.81,5.81,0,0,0,4.29,1.76c1.82,0,3-1,3-2.37h0c0-1.27-.66-2-3.42-2.54s-4.08-1.54-4.08-3.36h0c0-1.76,1.65-3.14,3.86-3.14a6,6,0,0,1,4.08,1.43l-.55.72A5.1,5.1,0,0,0,93,32.48c-1.76,0-2.92,1-2.92,2.26h0c0,1.27.66,2,3.53,2.65s4,1.54,4,3.3h0c0,1.93-1.66,3.26-4,3.26A7.19,7.19,0,0,1,88.77,42Zm14-9.48H98.53v-.83h9.26v.83H103.6V43.73h-.88V32.54ZM56.09,36.78l4.13-5.07h3.25l-4.9,5.73,5.23,6.29H60.39L56,38.32v5.35H53.38v-12H56v5.07Z"/>
    <path class="7d618fd6-2dc6-49df-8e9c-310e81a655e7" d="M86,29a5.12,5.12,0,0,0-1.66,4c-2.09-2.48,3.92-9.65-2.92-14.06,4.25,5.46-6,10.92-6,19,0,3.2,2,6,6.34,6.95,4.25-.88,6.4-3.75,6.4-6.95-.06-4.74-3-6.28-2.15-8.87ZM81.77,42.24A4.19,4.19,0,1,1,86,38.05a4.2,4.2,0,0,1-4.19,4.19Z"/>
  </g>
</svg>
