<svg xmlns="http://www.w3.org/2000/svg" xmlns:xlink="http://www.w3.org/1999/xlink" viewBox="0 0 48 48"><defs><linearGradient id="a" x1="211.59" y1="-1787.71" x2="211.59" y2="-1778.5" gradientTransform="matrix(0.8, 0, 0, -0.8, -157.39, -1402.77)" gradientUnits="userSpaceOnUse"><stop offset="0" stop-color="#9f083b"/><stop offset="1" stop-color="#d13a6d"/></linearGradient></defs><title>suitecrm</title><path d="M24.24,28.29a4.12,4.12,0,0,1-2-.77,4.72,4.72,0,0,1-.94-1A4.58,4.58,0,0,1,20.77,23a3.86,3.86,0,0,1,2.49-2.65,4,4,0,0,1,1.47-.23,4.18,4.18,0,0,1,2,.45,3.09,3.09,0,0,1,.92.62,9.78,9.78,0,0,1-1.11,1.12,1,1,0,0,1-.26-.14,2.63,2.63,0,0,0-1.45-.49,2.27,2.27,0,0,0-2.27,1.81,3.35,3.35,0,0,0,0,1.41,2.33,2.33,0,0,0,3.73,1.29l.28-.2.56.56a6.65,6.65,0,0,1,.56.6,4.33,4.33,0,0,1-1.55.9,4.67,4.67,0,0,1-1.89.2Zm4.08-.17s0-.83,0-3.91V20.33h1.78c2,0,2.06,0,2.7.32A2.27,2.27,0,0,1,34,22.07a3.71,3.71,0,0,1,0,1.37,2,2,0,0,1-.53.94,1.71,1.71,0,0,1-.89.5c-.15,0-.24.08-.24.11s.43.74,1,1.57,1,1.54.94,1.56a15.17,15.17,0,0,1-2.13,0s-.47-.74-1-1.58S30.16,25,30.14,25s0,.59,0,1.54a9.17,9.17,0,0,1-.05,1.58,10.09,10.09,0,0,1-1.74,0Zm3.11-4.4a.87.87,0,0,0,.64-.42.81.81,0,0,0,.09-.51.93.93,0,0,0-.1-.55,1,1,0,0,0-.62-.51,2.43,2.43,0,0,0-.76-.06h-.56v2.09h.56a6.56,6.56,0,0,0,.77,0Zm3.49,4.38s0-.73,0-2.82A16.88,16.88,0,0,1,35,22.21a5.63,5.63,0,0,1,.23-.6,2,2,0,0,1,.46-.61,2.71,2.71,0,0,1,1.69-.81,5.43,5.43,0,0,1,1.72,0,3.5,3.5,0,0,1,1.13.55l.2.16.09-.07a3.33,3.33,0,0,1,2.24-.74,3.25,3.25,0,0,1,2.41.84,2.51,2.51,0,0,1,.73,1.53c0,.2,0,1.1,0,2.95v2.67h-.82a7.1,7.1,0,0,1-.91,0H44.1l0-2.51A19,19,0,0,0,44,22.86a1.49,1.49,0,0,0-.75-1.06.91.91,0,0,0-.57-.09,1.17,1.17,0,0,0-.82.22,1.43,1.43,0,0,0-.52,1c0,.14,0,1.28,0,2.7a11.33,11.33,0,0,1-.06,2.49,12.37,12.37,0,0,1-1.73,0,23.07,23.07,0,0,1,0-2.42c0-2.66,0-2.8-.23-3.25a1.06,1.06,0,0,0-.57-.62,1,1,0,0,0-.59-.12,1,1,0,0,0-.9.36,1.51,1.51,0,0,0-.39.77,12.1,12.1,0,0,0-.09,2.77c0,1.89,0,2.5,0,2.52a6.47,6.47,0,0,1-.88,0c-.67,0-.83,0-.87,0Z" style="fill:#4b5557"/><path d="M2.53,28.08c0-.08,0-7.66,0-7.71s18.69-.06,18.69,0a2.37,2.37,0,0,1-.29.34,5.21,5.21,0,0,0,0,7.06,2.09,2.09,0,0,1,.27.32s-3,0-9.33,0c-8.25,0-9.33,0-9.35-.05Zm14.24-1.76a2.05,2.05,0,0,0,1.12-.77c.21-.3.19-.31-.4-.3l-.49,0-.11.13a1,1,0,0,1-1.05.2,1.32,1.32,0,0,1-.46-.48c-.09-.23-.14-.22,1.32-.23H18v-.14a2.35,2.35,0,0,0-.23-1,1.8,1.8,0,0,0-1.8-1A1.75,1.75,0,0,0,14.34,24a2.21,2.21,0,0,0,0,1.17,1.72,1.72,0,0,0,1.3,1.15,3,3,0,0,0,1.11,0Zm-1.38-2.18a1,1,0,0,1,.13-.28.76.76,0,0,1,1.18-.15c.15.13.32.45.28.52a5,5,0,0,1-.82,0h-.79ZM5.86,26.3a1,1,0,0,0,.74-1c0-.5-.17-.7-.82-1S5.11,24.08,5,24s-.1-.37.17-.48a.4.4,0,0,1,.49.1.42.42,0,0,1,.09.13,2.31,2.31,0,0,0,.83,0c0-.09-.07-.37-.23-.53a1.25,1.25,0,0,0-1-.33,1.18,1.18,0,0,0-.64.1,1,1,0,0,0-.61,1c0,.44.18.63.86.92s.67.3.73.45a.28.28,0,0,1-.11.36.45.45,0,0,1-.68-.13.26.26,0,0,0-.12-.13,2.8,2.8,0,0,0-.65,0c-.11,0-.13,0-.13.14,0,.33.36.68.85.81A2.34,2.34,0,0,0,5.86,26.3Zm3.22,0a1.25,1.25,0,0,0,.93-.75c.08-.19.08-.23.08-1.43V22.91h-1l0,1.18c0,1.31,0,1.3-.25,1.43a.75.75,0,0,1-.55,0C8,25.4,8,25.36,8,24.07l0-1.16h-.5c-.49,0-.5,0-.52.07s0,.63,0,1.29a4.67,4.67,0,0,0,.1,1.38,1.42,1.42,0,0,0,1.44.73,3,3,0,0,0,.57-.05Zm4.78-.42v-.39l-.16-.07c-.26-.1-.27-.11-.26-1v-.77h.21l.22,0v-.74h-.15c-.31,0-.29,0-.3-.47V22h-.5c-.59,0-.53-.07-.55.52v.37H12.2l-.18,0v.74l.18,0h.17l0,.3c0,.17,0,.65,0,1.07,0,.68,0,.78.07.9s.39.35,1,.34h.4V25.9Zm-2.29-1.33V22.88h-1v1.65c0,.91,0,1.67,0,1.69s.15.05.51.05h.49Zm-.26-2.18a.55.55,0,0,0,.17-.91.37.37,0,0,0-.36-.16.5.5,0,0,0-.52.25.65.65,0,0,0,0,.62.57.57,0,0,0,.7.2Z" style="fill:url(#a)"/></svg>