<svg id="CURRENT" xmlns="http://www.w3.org/2000/svg" viewBox="0 0 48 48">
  <title>swell</title>
  <path d="M41.46,28.75l.14-.18c.1-.14.21-.28.3-.42A1.74,1.74,0,0,0,42,28c.1-.15.19-.3.28-.46s.05-.12.08-.19.16-.31.23-.48,0-.15.08-.23l.16-.45c0-.16.07-.27.1-.4s.05-.2.07-.3a7.65,7.65,0,0,0,0-2.94c0-.09,0-.19-.07-.29s-.06-.27-.1-.41-.11-.3-.16-.46,0-.15-.08-.22a4.59,4.59,0,0,0-.24-.5,1.11,1.11,0,0,0-.07-.16A5.09,5.09,0,0,0,42,20l-.08-.13a5,5,0,0,0-.37-.5.61.61,0,0,1-.07-.1c-.17-.2-.34-.39-.52-.57L39.5,17.23,29.33,7.06c-.18-.18-.37-.35-.56-.51l-.13-.09a4.85,4.85,0,0,0-.48-.35A1.29,1.29,0,0,0,28,6a5.55,5.55,0,0,0-.48-.29l-.18-.08-.48-.23a2.5,2.5,0,0,1-.25-.09l-.44-.15-.43-.11L25.49,5a7.7,7.7,0,0,0-2.95,0l-.24.06-.45.11-.43.15-.26.09-.46.22-.21.09c-.15.08-.3.18-.44.27l-.2.11-.42.31-.18.14-.5.44-.07.07L7.05,18.66a7.53,7.53,0,0,0,0,10.65l1,1L18.67,40.93a7.54,7.54,0,0,0,10.66,0L41,29.31a1.42,1.42,0,0,1,.12-.13C41.2,29.05,41.33,28.9,41.46,28.75ZM22.93,38.86l-.23-.08-.21-.1-.09,0a3.5,3.5,0,0,1-.82-.61h0l-4.94-4.94a7.64,7.64,0,0,0,3-1.83L31.25,19.63a3.43,3.43,0,0,1,4.84,0l.49.49L38,21.57a2.73,2.73,0,0,1,.23.25l0,0,.17.24a.75.75,0,0,1,.08.14l.09.14.12.25,0,0a3.51,3.51,0,0,1-.14,2.92l-.05.08-.12.21a.91.91,0,0,0-.1.13l-.1.14-.17.18-.06.07L26.41,38c-.08.09-.17.16-.25.24h0l-.25.19-.1,0-.19.12-.19.09-.1,0a3.59,3.59,0,0,1-2.31.11ZM10,26.41a3.42,3.42,0,0,1,0-4.84L21.58,9.94l.15-.14.1-.09L22,9.58l.09-.07.23-.14.06,0a3.43,3.43,0,0,1,2.92-.14l0,0a1,1,0,0,1,.25.12l.13.07.16.09a1.56,1.56,0,0,0,.19.14l.08.06a2.83,2.83,0,0,1,.25.24h0l4.94,4.94a7.49,7.49,0,0,0-3,1.85L16.72,28.35a3.42,3.42,0,0,1-4.84,0l-1.29-1.29Z" style="fill: #d7366a"/>
</svg>
