<svg xmlns="http://www.w3.org/2000/svg" viewBox="0 0 48 48">
  <title>taxjar</title>
  <g id="Salesforce_Pardot" data-name="Salesforce Pardot">
    <g>
      <path d="M14.49,16.68a8.31,8.31,0,0,1-.43-5.29,2.49,2.49,0,0,1,1.48-1.6A24.44,24.44,0,0,1,20.9,8.4a25.73,25.73,0,0,1,9.41.52,11,11,0,0,1,1.5.49c1.91.78,2.29,1.35,2.29,3.41a12,12,0,0,0,0,1.47A2.86,2.86,0,0,1,32,17.49a24.46,24.46,0,0,1-10.8,1.14,23.49,23.49,0,0,1-3.42-.58,2.52,2.52,0,0,0-3.35,2.53c0,3.93,0,7.87,0,11.8,0,.2.06.39.11.77.51-.36.9-.62,1.28-.91L33.09,19A9,9,0,0,1,34,18.3c1-.55,1.85-.08,1.85,1.05,0,4.75,0,9.49,0,14.23a4.6,4.6,0,0,1-2.19,4,12.47,12.47,0,0,1-5.4,1.94,24.85,24.85,0,0,1-11.95-1c-.59-.21-1.55-.2-1.28-1.27.19-.76.91-.92,2-.47a18.46,18.46,0,0,0,11.37.78,18.78,18.78,0,0,0,3.8-1.5,2.67,2.67,0,0,0,1.46-2.61c0-3.76,0-7.52,0-11.28,0-.23-.05-.47-.1-.9-.47.33-.84.56-1.18.82L15,35.41a12,12,0,0,1-1,.74,1.1,1.1,0,0,1-1.78-1c0-2.11,0-4.22,0-6.33,0-2.32,0-4.64-.08-6.95C12,19.72,12.35,17.82,14.49,16.68ZM16,11.94a10.64,10.64,0,0,0,1.85.77,39.64,39.64,0,0,0,4.45.72,21.28,21.28,0,0,0,7.82-.72A13.91,13.91,0,0,0,32,11.89C28.94,9.58,18.91,9.6,16,11.94ZM31.8,14.36a30,30,0,0,1-15.72.14,1.61,1.61,0,0,0,.5,1,5.39,5.39,0,0,0,1.45.59,24.36,24.36,0,0,0,9.39.48,22.82,22.82,0,0,0,3.85-1A.78.78,0,0,0,31.8,14.36Z" style="fill: #46b028"/>
      <path d="M24,31.22A3.44,3.44,0,0,1,27.64,28a3.5,3.5,0,0,1,3.64,3.21,3.44,3.44,0,0,1-3.63,3.32A3.43,3.43,0,0,1,24,31.22Zm3.64,1.32a1.32,1.32,0,1,0,0-2.62,1.32,1.32,0,1,0,0,2.62Z" style="fill: #46b028"/>
      <path d="M20.36,26.52a3.39,3.39,0,0,1-3.58-3.32c0-1.82,1.63-3.16,3.75-3.14a3.38,3.38,0,0,1,3.55,3.25A3.47,3.47,0,0,1,20.36,26.52ZM20.48,22a1.49,1.49,0,0,0-1.54,1.29,1.39,1.39,0,0,0,1.49,1.3A1.45,1.45,0,0,0,22,23.29,1.46,1.46,0,0,0,20.48,22Z" style="fill: #46b028"/>
    </g>
  </g>
</svg>
