<svg xmlns="http://www.w3.org/2000/svg" viewBox="0 0 48 48"><title>teradata</title><rect x="3.38" y="2.66" width="42.33" height="42.33" rx="21.17" ry="21.17" style="fill:#f37340"/><path d="M18.43,10.33h5.13c.35,0,.47.11.46.46,0,1.39,0,2.78,0,4.17,0,.43.1.58.55.57,1.71,0,3.42,0,5.17,0a3,3,0,0,1,.05.39c0,1.24,0,2.48,0,3.72,0,.35-.1.46-.45.46-1.61,0-3.22,0-4.82,0-.41,0-.51.13-.51.52,0,2.66,0,5.32,0,8a5.74,5.74,0,0,0,.2,1.43c.42,1.61,1.85,2.4,3.71,2,.54-.1,1.07-.26,1.63-.4a12.72,12.72,0,0,0,2.79,4.13,12.09,12.09,0,0,1-3.54,1.33,10.72,10.72,0,0,1-5.59-.35,6.78,6.78,0,0,1-4.61-5.91,18.81,18.81,0,0,1-.18-2.8c0-5.68,0-11.35,0-17Z" style="fill:#fff"/></svg>