<svg id="Layer_1" data-name="Layer 1" xmlns="http://www.w3.org/2000/svg" viewBox="0 0 48 48">
  <title>ticketmaster</title>
  <g>
    <path d="M4.7,22.88h.74l.17-.81,1.1-.36-.25,1.17h.91l-.16.75H6.3l-.37,1.71a1.85,1.85,0,0,0,0,.38.37.37,0,0,0,.4.39A1.43,1.43,0,0,0,6.77,26l-.17.79a3.43,3.43,0,0,1-.56.08c-.69,0-1.18-.27-1.18-1A4.08,4.08,0,0,1,5,25l.29-1.33H4.54Z"/>
    <g>
      <path d="M31.14,26.2h0a1.47,1.47,0,0,1-1.27.69,1.08,1.08,0,0,1-1.2-1.12c0-1.29,1.44-1.39,2.4-1.39h.35a1.23,1.23,0,0,0,0-.33c0-.39-.43-.51-.79-.51a3.06,3.06,0,0,0-1.29.31l.15-.81a4,4,0,0,1,1.33-.23c.78,0,1.52.28,1.52,1.2,0,.53-.39,2.07-.48,2.81H31l.12-.62m-1-.05c.76,0,1-.52,1.15-1.15H31c-.5,0-1.32.08-1.32.75C29.63,26,29.89,26.15,30.15,26.15Z"/>
      <path d="M7.79,22.88h1L8,26.79H7l.84-3.91m.37-1.69h1l-.21,1H8Z"/>
      <path d="M11.89,23.78a1.32,1.32,0,0,0-.75-.2,1.38,1.38,0,0,0-1.27,1.5c0,.51.17,1,.86,1a2.14,2.14,0,0,0,.83-.2l-.11.81a2.27,2.27,0,0,1-1,.19A1.58,1.58,0,0,1,8.8,25.22a2.26,2.26,0,0,1,2.31-2.41,4.27,4.27,0,0,1,1,.14Z"/>
      <polygon points="13.01 21.09 14.03 21.09 13.35 24.31 13.37 24.31 14.79 22.88 16.11 22.88 14.24 24.66 15.41 26.81 14.27 26.81 13.26 24.73 13.24 24.73 12.8 26.81 11.8 26.81 13.01 21.09"/>
      <path d="M19.79,22.88h.74l.17-.81,1.1-.36-.25,1.17h.91l-.16.75h-.91L21,25.34a1.85,1.85,0,0,0-.05.38.37.37,0,0,0,.4.39,1.38,1.38,0,0,0,.49-.09l-.17.79a3.28,3.28,0,0,1-.56.08c-.69,0-1.18-.27-1.18-1a3.59,3.59,0,0,1,.14-.91l.28-1.33h-.74Z"/>
      <path d="M19.45,24.28a1.41,1.41,0,0,0-1.6-1.49,2.33,2.33,0,0,0-2.23,2.39c0,1.17.76,1.71,1.88,1.71a4.44,4.44,0,0,0,1.25-.22l.13-.81a3,3,0,0,1-1.2.28c-.66,0-1-.23-1.09-.85h0v-.15h0a2,2,0,0,1,.16-.77h0c.2-.51.47-.85,1.07-.85a.59.59,0,0,1,.66.65c0,.09,0,.17,0,.27H17.06a2.39,2.39,0,0,0-.11.7h2.4A4,4,0,0,0,19.45,24.28Z"/>
      <path d="M22.91,23.31c0-.15.06-.31.08-.43h1l-.08.53h0a1.41,1.41,0,0,1,1.2-.62.94.94,0,0,1,1,.75h0a1.53,1.53,0,0,1,1.38-.75,1.09,1.09,0,0,1,1.09,1.07,4.28,4.28,0,0,1-.18,1.08L28,26.81H27l.4-1.91a4.91,4.91,0,0,0,.14-.84.47.47,0,0,0-.48-.47c-.72,0-.89.83-1,1.36l-.41,1.86h-1L25,24.9a6.1,6.1,0,0,0,.13-.84.47.47,0,0,0-.48-.47c-.69,0-.89.83-1,1.36l-.41,1.86h-1Z"/>
      <path d="M35.4,23.68a1.62,1.62,0,0,0-.67-.15c-.31,0-.69.09-.69.4,0,.49,1.33.67,1.33,1.63s-.89,1.33-1.76,1.33a2.88,2.88,0,0,1-1.2-.23l.22-.81a1.92,1.92,0,0,0,1,.3c.34,0,.7-.11.7-.43,0-.62-1.33-.69-1.33-1.67s.88-1.24,1.7-1.24a4.44,4.44,0,0,1,1,.12Z"/>
      <path d="M36.06,22.88h.73l.18-.81,1.09-.36-.24,1.17h.91l-.16.75h-.91l-.37,1.71a1.35,1.35,0,0,0,0,.38.37.37,0,0,0,.39.39,1.34,1.34,0,0,0,.49-.09l-.17.79a3.31,3.31,0,0,1-.55.08c-.69,0-1.18-.27-1.18-1a4.73,4.73,0,0,1,.12-.91l.29-1.33H35.9Z"/>
      <path d="M43,23.41c0-.17.07-.35.09-.53h1l-.13.74h0a1.41,1.41,0,0,1,1.16-.83,2.45,2.45,0,0,1,.39,0l-.21,1a1.23,1.23,0,0,0-.39-.06c-.73,0-1.07.65-1.21,1.28l-.37,1.76h-1Z"/>
      <path d="M42.27,24.28a1.41,1.41,0,0,0-1.6-1.49,2.35,2.35,0,0,0-2.23,2.39c0,1.17.77,1.71,1.89,1.71a4.31,4.31,0,0,0,1.24-.22l.14-.81a3,3,0,0,1-1.21.28c-.65,0-1-.23-1.08-.85h0v-.15h0a2,2,0,0,1,.16-.77h0a1.07,1.07,0,0,1,1.07-.85.58.58,0,0,1,.65.65,1.31,1.31,0,0,1,0,.27H39.88a2.79,2.79,0,0,0-.11.7h2.4A3.49,3.49,0,0,0,42.27,24.28Z"/>
    </g>
  </g>
</svg>
