<svg xmlns="http://www.w3.org/2000/svg" viewBox="0 0 48 48"><defs><style>.cls-1{fill:#ff6d00;}</style></defs><title>tigergraph</title><g id="tigergraph"><g id="Layer_2" data-name="Layer 2"><g id="NAV"><g id="LOGO"><path class="cls-1" d="M42.16,19.7s-.12-.22-.22-.11a.35.35,0,0,0-.12.23c.22,3.29-1.58,8.5-9.15,13.42a.16.16,0,0,1-.22,0,.15.15,0,0,1,0-.23c3.27-3.64,10.62-13.65,2.48-20,0,0-.22-.23-.34-.11a.33.33,0,0,0-.11.22c1.92,5.13-.57,9.57-1.81,11.38a.39.39,0,0,1-.22.11c-.12,0-.12-.22-.12-.22,1.7-7.44-1.23-12-5.87-15.7l1.15-4-3.39.11A12.11,12.11,0,0,0,19,6.5,12.6,12.6,0,0,0,15.42,7a14.59,14.59,0,0,0-5.14,3.41L3.9,17.55l3.19,4.31a6.21,6.21,0,0,0,3.95,6,8.24,8.24,0,0,1,7.12-4.67,7.1,7.1,0,0,1,5.39,2.71c1.69-3.64-.46-7.85-1.14-9.45a.18.18,0,0,1,0-.22h0c.12-.12.24.12.24.12,7.89,9.09-.91,22.86-4.41,27a.31.31,0,0,0,0,.45h0c.11.34.45.12.45.12,2.26-.8,6.89-2.39,11.85-4.55C39.47,35.86,48.05,30.19,42.16,19.7ZM12.69,15.45c-.12.12-.23,0-.12-.12s1.07-2.49,1.07-2.49c.34-.8.56-1.48,1.69-1.6l2.24-.18s-4.64,4.32-4.86,4.43Z"/></g></g></g></g></svg>