<svg id="Layer_1" data-name="Layer 1" xmlns="http://www.w3.org/2000/svg" viewBox="0 0 48 48">
  <title>todoist</title>
  <g>
    <rect x="4" y="4" width="40" height="40" rx="5.11" ry="5.11" style="fill: #e44333"/>
    <path d="M27.41,11.81l1.25.61a.7.7,0,0,1,0,1.23L12.57,23a2,2,0,0,1-2.06,0L4.06,18.88v-3.4l7.12,4.16a1.05,1.05,0,0,0,1.07,0l13.42-7.77A1.88,1.88,0,0,1,27.41,11.81Z" style="fill: #fffeff"/>
    <path d="M27.41,18.46l1.25.6a.7.7,0,0,1,0,1.23L12.57,29.65a2,2,0,0,1-2.06,0L4.06,25.52V22.13l7.12,4.15a1,1,0,0,0,1.07,0l13.42-7.77A1.88,1.88,0,0,1,27.41,18.46Z" style="fill: #fffeff"/>
    <path d="M27.41,25.17l1.25.6a.7.7,0,0,1,0,1.23L12.57,36.36a2,2,0,0,1-2.06,0L4.06,32.23v-3.4L11.18,33a1.05,1.05,0,0,0,1.07,0l13.42-7.77A1.85,1.85,0,0,1,27.41,25.17Z" style="fill: #fffeff"/>
  </g>
</svg>
