<svg id="29ba812e-1e1f-428a-8733-6325e77c0899" data-name="Icons" xmlns="http://www.w3.org/2000/svg" viewBox="0 0 108 72">
  <defs>
    <style>
      .df85ae43-8065-40ed-b601-cb96c922a117 {
        fill: #e1393f;
      }

      .cc7ec9a9-f875-4418-83e1-3cf6f4f04099 {
        fill: #fff;
      }
    </style>
  </defs>
  <title>toggl</title>
  <path d="M96.41,43.19c-1.33,0-2-.94-2-2.83V27c0-1.92.61-2.83,2-2.83s1.92,1,1.92,2.83V40.36C98.33,42.25,97.73,43.19,96.41,43.19ZM84.77,48.67c-3.59,0-5.74-1.32-5.74-2.83a1.66,1.66,0,0,1,1.59-1.7h.11c1,0,2.15,1,4.19,1S88,44,88,41.91c0-.15,0-.31,0-.49a4.09,4.09,0,0,1-3.55,1.85c-3.09,0-5.66-2.84-5.66-6.8s2.75-6.92,6.08-6.92A3.81,3.81,0,0,1,87.94,31a2.16,2.16,0,0,1,1.74-1.25c1.32,0,2,.91,2,2.84v7.82c0,2.34-.15,4.15-.91,5.4-1.17,1.89-3.21,2.91-6,2.91Zm.57-15.45c-1.44,0-2.57,1.24-2.57,3.21s1.09,3.29,2.57,3.29,2.57-1.29,2.57-3.29S86.77,33.22,85.34,33.22ZM69.92,48.67c-3.58,0-5.74-1.32-5.74-2.83a1.66,1.66,0,0,1,1.59-1.7h.11c1,0,2.16,1,4.2,1s3.06-1.17,3.06-3.28c0-.15,0-.31,0-.49a4.11,4.11,0,0,1-3.55,1.85c-3.06,0-5.67-2.84-5.67-6.8s2.76-6.92,6.08-6.92A3.84,3.84,0,0,1,73.1,31a2.13,2.13,0,0,1,1.74-1.25c1.32,0,2,.91,2,2.84v7.82c0,2.34-.15,4.15-.91,5.4-1.13,1.89-3.17,2.91-6,2.91Zm.57-15.45c-1.43,0-2.57,1.24-2.57,3.21s1.1,3.29,2.57,3.29,2.57-1.29,2.57-3.29S71.93,33.22,70.49,33.22ZM56.1,43.42c-3.86,0-6.61-2.91-6.61-7s2.79-7,6.61-7,6.61,2.91,6.61,7-2.72,7-6.57,7Zm0-10.32c-1.44,0-2.57,1.25-2.57,3.29s1.09,3.33,2.57,3.33,2.57-1.29,2.57-3.33S57.53,33.1,56.1,33.1ZM47,33.44h-.34v6.92c0,1.89-.6,2.83-1.92,2.83s-1.93-.94-1.93-2.83V33.44h-.15c-1.4,0-2.19-.68-2.19-1.7s.79-1.66,2.34-1.73v-1.7c0-1.89.6-2.84,2-2.84s1.93,1,1.93,2.84V30H47c1.55,0,2.46.68,2.46,1.73S48.66,33.44,47,33.44Z"/>
  <circle class="df85ae43-8065-40ed-b601-cb96c922a117" cx="21.12" cy="34.88" r="13.45"/>
  <path class="cc7ec9a9-f875-4418-83e1-3cf6f4f04099" d="M22,26.76H20.13V36.2H22Zm-.94,15.11a6.61,6.61,0,0,1-1.7-13v2a4.72,4.72,0,1,0,3.4,0v-2a6.61,6.61,0,0,1-1.7,13Z"/>
</svg>
