<svg xmlns="http://www.w3.org/2000/svg" viewBox="0 0 48 48"><title>twitter</title><path d="M16.05,41.39c16.6,0,25.68-13.75,25.68-25.68,0-.39,0-.78,0-1.17a18.33,18.33,0,0,0,4.5-4.67A18.07,18.07,0,0,1,41,11.29a9.13,9.13,0,0,0,4-5,18.37,18.37,0,0,1-5.74,2.19,9,9,0,0,0-15.61,6.17,9.29,9.29,0,0,0,.23,2.06A25.67,25.67,0,0,1,5.27,7.29a9,9,0,0,0,2.8,12.05A9,9,0,0,1,4,18.21v.12a9,9,0,0,0,7.24,8.85,9.36,9.36,0,0,1-2.38.31,8.67,8.67,0,0,1-1.7-.16,9,9,0,0,0,8.44,6.27A18.14,18.14,0,0,1,4.36,37.46a19.23,19.23,0,0,1-2.15-.12,25.57,25.57,0,0,0,13.84,4" style="fill:#1da1f2"/></svg>