<svg xmlns="http://www.w3.org/2000/svg" viewBox="0 0 48 48"><defs><style>.cls-1{fill:#1da1f2;}.cls-2{font-size:13.36px;font-family:Helvetica-Bold, Helvetica;font-weight:700;}</style></defs><title>icon-</title><g id="twitterads"><path class="cls-1" d="M9.13,29.61a8,8,0,0,0,8.06-8.06c0-.12,0-.24,0-.37a5.63,5.63,0,0,0,1.42-1.46,6,6,0,0,1-1.63.44,2.85,2.85,0,0,0,1.25-1.56,5.68,5.68,0,0,1-1.8.68,2.84,2.84,0,0,0-4.9,1.94,2.81,2.81,0,0,0,.07.65,8.06,8.06,0,0,1-5.84-3,2.84,2.84,0,0,0,.88,3.78,2.82,2.82,0,0,1-1.29-.35v0a2.84,2.84,0,0,0,2.28,2.78,2.85,2.85,0,0,1-1.28.05,2.85,2.85,0,0,0,2.64,2,5.68,5.68,0,0,1-3.52,1.21c-.22,0-.45,0-.67,0a8,8,0,0,0,4.34,1.27"/><text class="cls-2" transform="translate(19.48 28.96)">Ads</text></g></svg>