<svg xmlns="http://www.w3.org/2000/svg" viewBox="0 0 48 48">
  <title>ubiregi</title>
  <g id="Layer_3" data-name="Layer 3">
    <g id="wX2mRf.tif">
      <g>
        <path d="M2,27.52H12.82v1.4H2Z" style="fill: #e5005a"/>
        <path d="M40.07,29.06,40,27.86l5.78-.6v1.16l-3.38.36c-.63.08-1.27.19-1.9.28Z" style="fill: #727171"/>
        <path d="M10.66,20.4c0,2,0,3.92,0,5.85a.74.74,0,0,1-.77.81A.77.77,0,0,1,9,26.24c0-.67,0-1.34,0-2.12H3.75V20.4Z" style="fill: #e5005a"/>
        <path d="M15.31,28.82v-1h3.34c0-1.17,0-2.26,0-3.34,0-.11-.32-.29-.49-.3-.68,0-1.35,0-2.08,0V23.08c1,0,2.07,0,3.08,0a1.22,1.22,0,0,1,1.2,1.36c0,1.07,0,2.14,0,3.3h1.51v1.07Z" style="fill: #727171"/>
        <path d="M25.83,25.68c-.2,2.1-.2,2.1,1.73,2.1h1.87v1c-1.44,0-2.86,0-4.27,0a1.06,1.06,0,0,1-1-1.06c-.05-1.52,0-3.06,0-4.62h1.64v1.54h3.33v1Z" style="fill: #727171"/>
        <path d="M37.76,27.33v1.14c-1.35.14-2.67.31-4,.42a1.15,1.15,0,0,1-1.29-1c-.06-1.58,0-3.16,0-4.76h1.65v4.57Z" style="fill: #727171"/>
        <path d="M42,23.1v1H40.06v-1Z" style="fill: #727171"/>
        <path d="M40,25H42v1H40Z" style="fill: #727171"/>
        <path d="M28.73,24h-.86V23.1h.86Z" style="fill: #727171"/>
        <path d="M44.81,23.08h.87V24h-.87Z" style="fill: #727171"/>
        <path d="M30.22,23.1V24h-.9V23.1Z" style="fill: #727171"/>
        <path d="M44.26,23.11V24h-.93v-.84Z" style="fill: #727171"/>
      </g>
    </g>
  </g>
</svg>
