<svg width="48" height="48" viewBox="0 0 48 48" fill="none" xmlns="http://www.w3.org/2000/svg">
<path d="M19.9724 17.8641C23.4424 17.8641 26.6948 19.5933 28.6417 22.4252C30.0439 21.6442 31.6258 21.2347 33.2622 21.2347C37.1699 21.2347 40.5338 23.6014 42 26.976V7.94127C42 7.31355 41.4864 6.79999 40.8587 6.79999H36.4452C35.8175 6.79999 35.2626 7.31189 35.2121 7.93755L34.798 14.3862C34.7475 15.0119 34.2845 15.2307 33.7691 14.8724L27.3106 10.383C26.7952 10.0247 26.3735 10.2452 26.3735 10.8729V14.3876C26.3735 15.0153 25.9518 15.2358 25.4363 14.8775L18.9704 10.383C18.455 10.0247 18.0333 10.2452 18.0333 10.8729V18.0463C18.6622 17.9286 19.3098 17.8641 19.9724 17.8641Z" fill="#2A61FF"/>
<path d="M33.2623 38.9199H14.7167C14.2831 38.9199 13.9315 38.5683 13.9315 38.1346C13.9315 37.701 14.2831 37.3494 14.7167 37.3494H33.2623C36.897 37.3494 39.8539 34.3923 39.8539 30.7577C39.8539 27.1232 36.897 24.1661 33.2623 24.1661C31.4322 24.1661 29.731 24.9001 28.4715 26.2331C28.2821 26.4332 28.0022 26.5195 27.733 26.461C27.4639 26.4022 27.2453 26.2066 27.1568 25.9459C26.1127 22.8652 23.2256 20.7953 19.9724 20.7953C15.7889 20.7953 12.3854 24.1989 12.3854 28.3823C12.3854 28.8159 12.0338 29.1675 11.6001 29.1675C11.1665 29.1675 10.8149 28.8159 10.8149 28.3823C10.8149 23.3329 14.923 19.2249 19.9724 19.2249C23.5036 19.2249 26.6775 21.2451 28.1974 24.3565C29.6321 23.2139 31.3927 22.5956 33.2623 22.5956C37.7628 22.5956 41.4244 26.2572 41.4244 30.7577C41.4244 35.2583 37.7628 38.9199 33.2623 38.9199Z" fill="#7D7D7D"/>
<path d="M18.9437 35.6537H10.4142C9.9806 35.6537 9.62901 35.3021 9.62901 34.8685C9.62901 34.4348 9.9806 34.0833 10.4142 34.0833H18.9437C19.3773 34.0833 19.7289 34.4348 19.7289 34.8685C19.7289 35.3021 19.3773 35.6537 18.9437 35.6537Z" fill="#7D7D7D"/>
<path d="M15.3147 32.297H6.78523C6.35159 32.297 6 31.9454 6 31.5117C6 31.0781 6.35159 30.7265 6.78523 30.7265H15.3147C15.7483 30.7265 16.0999 31.0781 16.0999 31.5117C16.0999 31.9454 15.7483 32.297 15.3147 32.297Z" fill="#7D7D7D"/>
<path d="M20.9648 27.1839V31.2992C20.9648 32.3135 21.2951 32.8112 21.9004 32.8112C22.5107 32.8112 22.8359 32.3701 22.8359 31.2992V27.1839H24.6262V31.1344C24.6262 33.1817 23.68 34.2691 21.8619 34.2691C20.0351 34.2691 19.1746 33.1902 19.1746 31.0972V27.1839H20.9648Z" fill="#7D7D7D"/>
<path d="M31.2761 31.7567C31.2506 31.0342 31.2254 30.13 31.2303 29.1445H31.2041C31.0195 30.016 30.757 31.0055 30.5714 31.6694L29.9382 34.0196H28.5662L28.0136 31.675C27.8606 31.022 27.6572 30.0378 27.5152 29.1445H27.4944C27.458 30.0539 27.4169 31.0342 27.386 31.7567L27.2775 34.1646H25.665L26.1275 27.1839H28.3926L28.849 29.1708C29.0359 29.9755 29.2336 30.8651 29.3694 31.701H29.4009C29.5649 30.875 29.7746 29.9326 29.9675 29.16L30.4672 27.1839H32.6894L33.0647 34.1646H31.3684L31.2761 31.7567Z" fill="#7D7D7D"/>
</svg>
