<svg id="3aeb1bef-dcd3-4c55-91e9-6275cd9f20dd" data-name="Icons" xmlns="http://www.w3.org/2000/svg" viewBox="0 0 108 72">
  <defs>
    <style>
      .\37 dee0c4a-5784-44c8-9678-d675601de223 {
        fill: #363a46;
        stroke: #363a46;
        stroke-miterlimit: 10;
        stroke-width: 0.03px;
      }

      .bc41ee4a-8676-420f-90b4-83227735e071 {
        fill: #0d8ce6;
      }

      .f8858080-7291-4b2d-b37b-2f16e6b2868b {
        fill: #53b9ff;
      }
    </style>
  </defs>
  <title>wistia</title>
  <g id="67e0eba9-c4cc-44a4-8cd6-47d5186f1002" data-name="layer1">
    <g id="7ccd0484-ffcc-45fc-8973-15891bb4315a" data-name="g297">
      <path id="6ddb77e3-178a-4ccc-b1da-642814f9e761" data-name="path249" class="7dee0c4a-5784-44c8-9678-d675601de223" d="M46.23,28h2l-5.65,14h-.44L37.56,30.7,32.93,42.07h-.42L26.87,28h2l3.86,9.62L36.62,28h1.89l3.9,9.62Z"/>
      <path id="bdf5bdef-0c6b-466a-b801-b66f3893e9ee" data-name="path251" class="7dee0c4a-5784-44c8-9678-d675601de223" d="M50.82,28h2V42h-2Z"/>
      <path id="92baf3ab-2744-427f-99c9-af98b01dc389" data-name="path253" class="7dee0c4a-5784-44c8-9678-d675601de223" d="M60.41,36.16l-1.52-.92a6.88,6.88,0,0,1-2-1.72,3.33,3.33,0,0,1-.59-2,3.45,3.45,0,0,1,1.15-2.67,4.28,4.28,0,0,1,3-1,5.75,5.75,0,0,1,3.21,1v2.28a4.64,4.64,0,0,0-3.26-1.46,2.67,2.67,0,0,0-1.6.46,1.36,1.36,0,0,0-.63,1.16,1.76,1.76,0,0,0,.46,1.17A6.22,6.22,0,0,0,60,33.6l1.53.9a4.48,4.48,0,0,1,2.56,3.89A3.55,3.55,0,0,1,63,41.12a4.11,4.11,0,0,1-2.93,1.07,6.12,6.12,0,0,1-3.77-1.27V38.36a4.66,4.66,0,0,0,3.74,2,2.33,2.33,0,0,0,1.56-.53,1.61,1.61,0,0,0,.63-1.31c0-.85-.6-1.65-1.83-2.41Z"/>
      <path id="7e91c11b-50d9-44a3-848e-a207b49170e2" data-name="path255" class="7dee0c4a-5784-44c8-9678-d675601de223" d="M66.17,28H77.85v1.78H73V42H71V29.79H66.15V28Z"/>
      <path id="2f28946f-7184-47cc-a4f1-74f25d4d67d6" data-name="path257" class="7dee0c4a-5784-44c8-9678-d675601de223" d="M80.79,28h2V42h-2Z"/>
      <path id="0d7a8e38-dc89-43a3-9224-fc745d1054e3" data-name="path259" class="7dee0c4a-5784-44c8-9678-d675601de223" d="M91.38,28h1.41L99.05,42H97l-1.86-4.14h-6L87.43,42H85.37Zm2.94,8.14L92.07,31,90,36.09h4.34Z"/>
      <path id="651f01c4-dd4d-4c5b-8dc4-46c8595341a0" data-name="path261" class="bc41ee4a-8676-420f-90b4-83227735e071" d="M23.9,33.41a7,7,0,0,1-2.48,2.14,13.08,13.08,0,0,1-5.07,1.38c-1.27.12-3.61,0-4.61,0a2.67,2.67,0,0,0-2.38,1.23L6,41.93h2c.87,0,6.32.32,8.74-.34C24.67,39.43,23.9,33.41,23.9,33.41Z"/>
      <path id="66d500d3-7ce3-4435-9a89-3827c4ab0a33" data-name="path263" class="f8858080-7291-4b2d-b37b-2f16e6b2868b" d="M23.69,31c.38-2.31-.92-2.94-.92-2.94s.05,1.87-3.38,2.27c-3.08.36-13.37.07-13.37.07l3.31,3.79a2.79,2.79,0,0,0,2.37,1.22,43.88,43.88,0,0,0,4.73-.07A11.14,11.14,0,0,0,22,33.49,4.21,4.21,0,0,0,23.69,31Z"/>
    </g>
  </g>
</svg>
