<svg id="CURRENT" xmlns="http://www.w3.org/2000/svg" viewBox="0 0 48 48"><title>woocommerce</title><path d="M28.1,32.88l1.4,3.46-.77-.42L23.46,33a1.48,1.48,0,0,0-.7-.13c-4.44,0-8.87,0-13.31,0a3.32,3.32,0,0,1-3.19-2.07A3.93,3.93,0,0,1,6,29.52c0-3.72,0-7.43,0-11.15A3.26,3.26,0,0,1,9.38,15H38.64a3.27,3.27,0,0,1,3.3,2.68,3.6,3.6,0,0,1,.06.73V29.48a3.29,3.29,0,0,1-2.61,3.3,4,4,0,0,1-.85.07H28.63ZM15.32,24.55l.24.73A14.8,14.8,0,0,0,18,30.06a5.62,5.62,0,0,0,1,1,1.07,1.07,0,0,0,1.73-.73,4.48,4.48,0,0,0,.05-.73c0-.19,0-.38,0-.57a30.87,30.87,0,0,1,.44-4.89,18.59,18.59,0,0,1,1.46-5.43,1.2,1.2,0,0,0-.38-1.53,1.26,1.26,0,0,0-2,.44,18.23,18.23,0,0,0-1.6,5.55c-.13.73-.21,1.47-.31,2.21a6.57,6.57,0,0,1-.39-1q-.39-1.43-.75-2.85c-.12-.45-.17-.92-.32-1.36A1.09,1.09,0,0,0,15,19.8a3,3,0,0,0-.32.47q-1.26,2.4-2.53,4.8l-.64,1.23a1.22,1.22,0,0,1-.07-.2c-.46-2.43-.91-4.86-1.37-7.28A2.66,2.66,0,0,0,9.82,18a1.2,1.2,0,0,0-1.53-.45A1.25,1.25,0,0,0,7.47,19c.19,1.18.38,2.37.59,3.56a52.42,52.42,0,0,0,1.59,6.91,7.2,7.2,0,0,0,.57,1.34A.81.81,0,0,0,11.6,31a5.16,5.16,0,0,0,1-1.16c.63-1.11,1.2-2.26,1.79-3.39C14.68,25.84,15,25.24,15.32,24.55Zm16.33,0A7,7,0,0,0,32,27.1a3.7,3.7,0,0,0,4.91,2.32,4.46,4.46,0,0,0,2.18-2,7.56,7.56,0,0,0,.81-6.2A3.56,3.56,0,0,0,37,18.55a3.61,3.61,0,0,0-3.63,1.38A7.51,7.51,0,0,0,31.65,24.59ZM31,23.28a17.36,17.36,0,0,0-.28-1.78A3.75,3.75,0,0,0,24,20a7.77,7.77,0,0,0-1.54,6,4.38,4.38,0,0,0,1.33,2.68,3.71,3.71,0,0,0,5.31-.39A8,8,0,0,0,31,23.28Z" style="fill:#9b5c8f"/><path d="M15.32,24.55c-.34.69-.64,1.29-1,1.89-.59,1.13-1.16,2.28-1.79,3.39a5.16,5.16,0,0,1-1,1.16.81.81,0,0,1-1.38-.21,7.2,7.2,0,0,1-.57-1.34,52.42,52.42,0,0,1-1.59-6.91c-.21-1.19-.4-2.38-.59-3.56a1.25,1.25,0,0,1,.82-1.39A1.2,1.2,0,0,1,9.82,18a2.66,2.66,0,0,1,.23.79c.46,2.42.91,4.85,1.37,7.28a1.22,1.22,0,0,0,.07.2l.64-1.23q1.28-2.4,2.53-4.8A3,3,0,0,1,15,19.8a1.09,1.09,0,0,1,1.94.36c.15.44.2.91.32,1.36q.36,1.43.75,2.85a6.57,6.57,0,0,0,.39,1c.1-.74.18-1.48.31-2.21a18.23,18.23,0,0,1,1.6-5.55,1.26,1.26,0,0,1,2-.44,1.2,1.2,0,0,1,.38,1.53,18.59,18.59,0,0,0-1.46,5.43A30.87,30.87,0,0,0,20.75,29c0,.19,0,.38,0,.57a4.48,4.48,0,0,1-.05.73,1.07,1.07,0,0,1-1.73.73,5.62,5.62,0,0,1-1-1,14.8,14.8,0,0,1-2.43-4.78Z" style="fill:#fff"/><path d="M31.65,24.59a7.51,7.51,0,0,1,1.74-4.66A3.61,3.61,0,0,1,37,18.55a3.56,3.56,0,0,1,2.9,2.63,7.56,7.56,0,0,1-.81,6.2,4.46,4.46,0,0,1-2.18,2A3.7,3.7,0,0,1,32,27.1,7,7,0,0,1,31.65,24.59Zm6-1a3.79,3.79,0,0,0-.36-1.82,1,1,0,0,0-1.77-.32,2.33,2.33,0,0,0-.26.28,4.75,4.75,0,0,0-1.06,2.66,3.46,3.46,0,0,0,.54,2.24.8.8,0,0,0,1.16.3,3.52,3.52,0,0,0,1-.84A4.27,4.27,0,0,0,37.67,23.58Z" style="fill:#fff"/><path d="M31,23.28a8,8,0,0,1-1.9,5.08,3.71,3.71,0,0,1-5.31.39,4.38,4.38,0,0,1-1.33-2.68A7.77,7.77,0,0,1,24,20a3.75,3.75,0,0,1,6.72,1.46A17.36,17.36,0,0,1,31,23.28Zm-2.63.18A3.36,3.36,0,0,0,28,21.57a.93.93,0,0,0-1.38-.35,2.11,2.11,0,0,0-.37.3A4.55,4.55,0,0,0,25,24.19a3.8,3.8,0,0,0,.4,2.27.92.92,0,0,0,1.44.38,3,3,0,0,0,.68-.6A4.48,4.48,0,0,0,28.41,23.46Z" style="fill:#fff"/><path d="M37.67,23.58a4.27,4.27,0,0,1-.79,2.5,3.52,3.52,0,0,1-1,.84.8.8,0,0,1-1.16-.3,3.46,3.46,0,0,1-.54-2.24,4.75,4.75,0,0,1,1.06-2.66,2.33,2.33,0,0,1,.26-.28,1,1,0,0,1,1.77.32A3.79,3.79,0,0,1,37.67,23.58Z" style="fill:#9b5c8f"/><path d="M28.41,23.46a4.48,4.48,0,0,1-.89,2.78,3,3,0,0,1-.68.6.92.92,0,0,1-1.44-.38,3.8,3.8,0,0,1-.4-2.27,4.55,4.55,0,0,1,1.2-2.67,2.11,2.11,0,0,1,.37-.3.93.93,0,0,1,1.38.35A3.36,3.36,0,0,1,28.41,23.46Z" style="fill:#9b5c8f"/></svg>