<svg xmlns="http://www.w3.org/2000/svg" viewBox="0 0 48 48"><title>wordpress</title><path d="M8.55,24.08a15.93,15.93,0,0,0,9,14.34L9.92,17.6A15.91,15.91,0,0,0,8.55,24.08Z" style="fill:#464342"/><path d="M35.23,23.28a8.33,8.33,0,0,0-1.32-4.39c-.8-1.31-1.56-2.43-1.56-3.74A2.76,2.76,0,0,1,35,12.32l.21,0a15.93,15.93,0,0,0-24.07,3h1c1.67,0,4.25-.2,4.25-.2a.66.66,0,0,1,.1,1.31s-.87.11-1.83.16l5.8,17.25L24,23.42l-2.48-6.8c-.86-.05-1.67-.16-1.67-.16a.66.66,0,0,1,.1-1.31s2.63.2,4.19.2,4.25-.2,4.25-.2a.66.66,0,0,1,.1,1.31s-.86.11-1.82.16l5.75,17.12L34,28.43A19.26,19.26,0,0,0,35.23,23.28Z" style="fill:#464342"/><path d="M24.75,25.48,20,39.36a16,16,0,0,0,9.79-.25,1.51,1.51,0,0,1-.11-.22Z" style="fill:#464342"/><path d="M38.45,16.44a12,12,0,0,1,.11,1.64,15.24,15.24,0,0,1-1.21,5.71L32.48,37.85a15.93,15.93,0,0,0,6-21.41Z" style="fill:#464342"/><path d="M24.47,5.52A18.57,18.57,0,1,0,43,24.08,18.59,18.59,0,0,0,24.47,5.52Zm0,36.28A17.72,17.72,0,1,1,42.19,24.08,17.74,17.74,0,0,1,24.47,41.8Z" style="fill:#464342"/></svg>