<svg xmlns="http://www.w3.org/2000/svg" viewBox="0 0 48 48"><title>workday</title><path d="M23.36,5.35A18.2,18.2,0,0,1,40.64,16.14a1.22,1.22,0,0,1,.13.75,1,1,0,0,1-.88.82,1,1,0,0,1-1.07-.64A16.07,16.07,0,0,0,33,10a15.9,15.9,0,0,0-5.26-2.28A16.09,16.09,0,0,0,9.17,17.08a1,1,0,0,1-.76.62,1,1,0,0,1-1.13-1.35,18.16,18.16,0,0,1,16.08-11h0" style="fill:#f49813"/><path d="M7.21,20.76a1,1,0,0,1,.8-.47c1,0,2,0,3,0a1.05,1.05,0,0,1,.94.95c1,4.05,2,8.1,3,12.15.29,1.26.64,2.49.83,3.77s.23,2.3.42,3.44a45,45,0,0,1,.93-4.87q1.93-7.26,3.89-14.5a1.2,1.2,0,0,1,1.17-.95c1.12,0,2.25,0,3.38,0a1.36,1.36,0,0,1,1.4.95c1,3.52,1.92,7.05,2.89,10.58a65.08,65.08,0,0,1,1.68,6.88c.09.64.18,1.29.31,1.93A97.88,97.88,0,0,1,34,29.75c.64-2.87,1.27-5.74,1.92-8.61a1.15,1.15,0,0,1,1.24-.85c.91,0,1.83,0,2.74,0a.8.8,0,0,1,.66,1.1Q37.77,31.53,35,41.65a1.17,1.17,0,0,1-1.12,1c-1.41,0-2.83,0-4.24,0a1,1,0,0,1-1.13-.78c-1.27-4.64-2.51-9.29-3.76-13.94A31.77,31.77,0,0,1,24,23a39.53,39.53,0,0,1-.74,4.44q-1.92,7.17-3.86,14.35c-.14.78-1,.93-1.69.88-1.31,0-2.62,0-3.94,0a1,1,0,0,1-.91-.81Q10.05,31.74,7.28,21.65a6.54,6.54,0,0,1-.07-.89h0" style="fill:#3069b5"/></svg>