<svg xmlns="http://www.w3.org/2000/svg" viewBox="0 0 48 48"><title>wowma</title><path d="M43.94,9.49H33.57V8.33a6.18,6.18,0,0,0-6.18-6.19H20.88a6.19,6.19,0,0,0-6.19,6.19V9.49H4.3a1.66,1.66,0,0,0-1.66,1.66v19.1A15.12,15.12,0,0,0,17.77,45.38H30.68A14.91,14.91,0,0,0,45.59,30.46V11.15A1.66,1.66,0,0,0,43.94,9.49ZM17,9.49v-1a4,4,0,0,1,4-4h6.09a4,4,0,0,1,4,4v1Z" style="fill:#e56200"/><path d="M15.75,20.11a2,2,0,0,0-.1.21L14.39,24.7c0,.12-.09.25-.12.38a.81.81,0,0,1-.77.63.78.78,0,0,1-.84-.6c-.23-.79-.45-1.58-.68-2.36l-1.16-4c-.14-.49-.29-1-.42-1.47a.81.81,0,0,1,1.23-1,1.21,1.21,0,0,1,.34.5c.45,1.53.89,3.06,1.33,4.59,0,.13.08.25.14.43a.92.92,0,0,0,.13-.21c.43-1.49.85-3,1.28-4.49a4,4,0,0,1,.17-.52.69.69,0,0,1,.56-.43.77.77,0,0,1,.91.43c.12.31.21.64.3,1,.36,1.28.73,2.56,1.09,3.85,0,.11.1.22.15.33h.08c.06-.2.13-.4.18-.6l1-3.31.27-1a.85.85,0,0,1,.41-.6.84.84,0,0,1,.85,0,.7.7,0,0,1,.35.66,5.13,5.13,0,0,1-.36,1.51c-.51,1.83-1,3.64-1.56,5.46-.12.4-.23.8-.35,1.2a.81.81,0,0,1-.75.63.78.78,0,0,1-.86-.61c-.23-.76-.44-1.52-.66-2.28s-.51-1.79-.77-2.69Z" style="fill:#fff"/><path d="M14,35.07c0-.59,0-1.17,0-1.76a2.6,2.6,0,0,1,4.2-2c.13.1.21.11.33,0a2.42,2.42,0,0,1,1.84-.56,2.54,2.54,0,0,1,2.31,2c0,.12-.07.26-.07.4,0,1.09,0,2.17,0,3.26a1.57,1.57,0,0,0,.05.37.74.74,0,0,1-.9.89.81.81,0,0,1-.64-.85c0-1.07,0-2.14,0-3.21a3,3,0,0,0,0-.42.93.93,0,0,0-.92-.82.9.9,0,0,0-.94.83,9.45,9.45,0,0,0-.08,1.07c0,.91,0,1.82,0,2.73a.81.81,0,0,1-1.16.59.76.76,0,0,1-.39-.93,1,1,0,0,0,0-.3c0-.84,0-1.69,0-2.53A3.26,3.26,0,0,0,17.5,33a.94.94,0,0,0-1.81.33c0,1.17,0,2.34,0,3.51a.83.83,0,0,1-1.21.79.82.82,0,0,1-.44-.77V35.07Z" style="fill:#fff"/><path d="M33.61,22.41l-.48,1.36c-.15.41-.29.83-.44,1.25s-.32.65-.74.69a.81.81,0,0,1-.92-.64l-.63-1.79c-.37-1.06-.76-2.12-1.1-3.19a.92.92,0,0,1,.15-.93.86.86,0,0,1,1.3.2c.2.53.4,1.08.59,1.62s.3.86.51,1.32a3.26,3.26,0,0,0,.18-.38c.28-.78.54-1.56.83-2.34a1.17,1.17,0,0,1,.34-.5.82.82,0,0,1,1.25.4L35.32,22a2,2,0,0,0,.14.25.84.84,0,0,0,.19-.24c.28-.79.55-1.58.82-2.36a.83.83,0,0,1,.91-.67.7.7,0,0,1,.7.76,11.12,11.12,0,0,1-.42,1.5c-.43,1.27-.89,2.53-1.33,3.8-.17.49-.41.7-.8.71a.77.77,0,0,1-.84-.59c-.29-.8-.57-1.61-.85-2.41,0-.11-.1-.21-.15-.32Z" style="fill:#fff"/><path d="M31.13,34.25V37a.76.76,0,0,1-.55.67.8.8,0,0,1-.85-.22c-.12-.15-.22-.15-.38-.06a3.55,3.55,0,0,1-4.48-.75A3.44,3.44,0,0,1,24,34.36a3.55,3.55,0,0,1,2.92-3.53,3.47,3.47,0,0,1,2.52.44c.16.1.23,0,.31-.07a.85.85,0,0,1,1.32.16,1,1,0,0,1,.07.29c0,.87,0,1.74,0,2.6Zm-3.57-1.84a1.94,1.94,0,1,0,2,1.9A1.9,1.9,0,0,0,27.56,32.41Z" style="fill:#fff"/><path d="M24.64,18.75a3.28,3.28,0,0,1,1.82.38,3.5,3.5,0,0,1,1.87,2.38,6.33,6.33,0,0,1-.09,1.95A3.58,3.58,0,1,1,24,18.85C24.18,18.8,24.42,18.78,24.64,18.75Zm2.14,3.59a1.93,1.93,0,0,0-1.86-1.94,1.94,1.94,0,1,0-.07,3.87A1.91,1.91,0,0,0,26.78,22.34Z" style="fill:#fff"/><circle cx="33.87" cy="36.95" r="0.93" style="fill:#fff"/><path d="M33.87,28.22a.88.88,0,0,0-.88.88v5a.89.89,0,0,0,1.77,0v-5A.88.88,0,0,0,33.87,28.22Z" style="fill:#fff"/></svg>