<svg xmlns="http://www.w3.org/2000/svg" viewBox="0 0 48 48"><title>xbase</title><g id="Warstwa_1" data-name="Warstwa 1"><path d="M19,8.69H29.45c2.27,0,3.33.66,3.35,2.94L32,16.2l.93,19.62h8.83a1.49,1.49,0,0,0,1.49-1.49V11a2.34,2.34,0,0,0-.71-1.67l-6-5.75a2.32,2.32,0,0,0-1.53-.64c-3.32-.08-14.79-.31-15.47.33S19,8.69,19,8.69Z" style="fill:#f0f0f0"/><polyline points="36.15 2.95 36.15 10.21 43.41 10.21" style="fill:none;stroke:#b2bfcf;stroke-linecap:round;stroke-linejoin:round;stroke-width:0.7260000000000001px"/><path d="M19,8.16V4.33a1.45,1.45,0,0,1,1.45-1.45L36.15,3l7.27,7.25,0,13.5V34.37A1.45,1.45,0,0,1,42,35.82h-8" style="fill:none;stroke:#b2bfcf;stroke-linecap:round;stroke-linejoin:round;stroke-width:0.7260000000000001px"/><path d="M20.19,42.91h-12a1.52,1.52,0,0,1-1.45-1.57V12.05a1.51,1.51,0,0,1,1.45-1.57l21.54.07a1.52,1.52,0,0,1,1.45,1.57V41.34a1.52,1.52,0,0,1-1.45,1.57Z" style="fill:#fff;stroke:#009ada;stroke-linecap:round;stroke-linejoin:round;stroke-width:0.7260000000000001px"/><path d="M6.76,32.3H31.2v9.24a1.31,1.31,0,0,1-1.36,1.25H8.12a1.31,1.31,0,0,1-1.36-1.25Z" style="fill:#009ada"/><path d="M8.21,10.09l21.54.07a1.91,1.91,0,0,1,1.81,2V41.34a1.9,1.9,0,0,1-1.82,2H8.21a1.89,1.89,0,0,1-1.81-2V12.06a1.9,1.9,0,0,1,1.81-2m0-2.17h0a4.07,4.07,0,0,0-4,4.14V41.34a4.08,4.08,0,0,0,4,4.15H29.74a4.08,4.08,0,0,0,4-4.15V12.13a4.07,4.07,0,0,0-4-4.14L8.22,7.92Z" style="fill:#fff"/><path d="M9.57,37.46,7.81,34.82H9l1.17,1.94,1.15-1.94H12.5l-1.73,2.66,2,3H11.53l-1.38-2.22L8.82,40.48H7.61Z" style="fill:#fff"/><path d="M13.45,34.82h2.21c.85,0,1.73.4,1.73,1.43a1.25,1.25,0,0,1-1,1.23v0a1.3,1.3,0,0,1,1.22,1.33c0,1.23-1.07,1.65-2.14,1.65h-2Zm1,2.3h.9c.67,0,1-.28,1-.76s-.36-.71-1.12-.71h-.81Zm0,2.51h.9c.52,0,1.26-.1,1.26-.84s-.4-.8-1.22-.8h-.94Z" style="fill:#fff"/><path d="M21,40h0a1.35,1.35,0,0,1-1.19.58c-.62,0-1.44-.29-1.44-1.19,0-1.14,1.44-1.3,2.64-1.3V38c0-.47-.4-.71-.88-.71a1.58,1.58,0,0,0-1,.44l-.49-.58a2.42,2.42,0,0,1,1.62-.61,1.5,1.5,0,0,1,1.71,1.62v2.33H21Zm0-1.26h-.22c-.61,0-1.46.07-1.46.64,0,.37.34.48.67.48a.91.91,0,0,0,1-1Z" style="fill:#fff"/><path d="M25.07,37.67a1.08,1.08,0,0,0-.84-.42c-.31,0-.62.11-.62.42s.3.37.83.5,1.24.39,1.24,1.14c0,.94-.76,1.28-1.6,1.28A2.15,2.15,0,0,1,22.51,40l.63-.59a1.26,1.26,0,0,0,1,.48c.28,0,.62-.11.62-.46s-.3-.41-.88-.55-1.13-.37-1.13-1.08.76-1.23,1.52-1.23a1.87,1.87,0,0,1,1.44.59Z" style="fill:#fff"/><path d="M30.16,38.87H27.25a1.06,1.06,0,0,0,1.09.94,1.13,1.13,0,0,0,1-.5l.64.51a1.88,1.88,0,0,1-1.64.77,1.93,1.93,0,0,1-2.06-2,2,2,0,0,1,2-2.06,1.82,1.82,0,0,1,1.85,2.08A2.26,2.26,0,0,1,30.16,38.87Zm-.95-.69a.85.85,0,0,0-.9-.93,1,1,0,0,0-1.06.93Z" style="fill:#fff"/><path d="M12,25.21v2.43s0,.77,3.21,1.26a26.7,26.7,0,0,0,7.7-.1A6.8,6.8,0,0,0,25.64,28c.38-.33.28-.86.28-1.23s.06-1.66-.12-1.57a11.39,11.39,0,0,1-4,1.09,54.9,54.9,0,0,1-5.6,0C14.89,26.27,12.45,25.77,12,25.21Z" style="fill:#fff"/><line x1="11.94" y1="24.84" x2="11.94" y2="27.56" style="fill:#fff;stroke:#b2bfcf;stroke-miterlimit:10;stroke-width:0.7260000000000001px"/><ellipse cx="18.93" cy="24.84" rx="6.99" ry="1.58" style="fill:#e9edf2;stroke:#b2bfcf;stroke-miterlimit:10;stroke-width:0.7260000000000001px"/><path d="M12,20.57V23s0,.77,3.21,1.27a27.46,27.46,0,0,0,7.7-.1,6.77,6.77,0,0,0,2.72-.8c.38-.33.28-.86.28-1.23s.06-1.66-.12-1.57a11.15,11.15,0,0,1-4,1.09,54.9,54.9,0,0,1-5.6,0C14.89,21.63,12.45,21.14,12,20.57Z" style="fill:#fff"/><line x1="11.94" y1="20.19" x2="11.94" y2="22.91" style="fill:#fff;stroke:#b2bfcf;stroke-miterlimit:10;stroke-width:0.7260000000000001px"/><ellipse cx="18.93" cy="20.19" rx="6.99" ry="1.58" style="fill:#e9edf2;stroke:#b2bfcf;stroke-miterlimit:10;stroke-width:0.7260000000000001px"/><path d="M12,16v2.43s0,.77,3.21,1.26a26.7,26.7,0,0,0,7.7-.1,6.8,6.8,0,0,0,2.72-.79c.38-.33.28-.87.28-1.23S26,15.94,25.8,16a11.25,11.25,0,0,1-4,1.08,52.34,52.34,0,0,1-5.6,0C14.89,17.08,12.45,16.59,12,16Z" style="fill:#fff"/><path d="M25.92,27.56c0,.87-3.13,1.58-7,1.58s-7-.71-7-1.58" style="fill:#fff;stroke:#b2bfcf;stroke-miterlimit:10;stroke-width:0.7260000000000001px"/><line x1="25.92" y1="24.84" x2="25.92" y2="27.56" style="fill:#fff;stroke:#b2bfcf;stroke-miterlimit:10;stroke-width:0.7260000000000001px"/><path d="M25.92,22.91c0,.87-3.13,1.58-7,1.58s-7-.71-7-1.58" style="fill:#fff;stroke:#b2bfcf;stroke-miterlimit:10;stroke-width:0.7260000000000001px"/><line x1="25.92" y1="20.19" x2="25.92" y2="22.91" style="fill:#fff;stroke:#b2bfcf;stroke-miterlimit:10;stroke-width:0.7260000000000001px"/><path d="M25.92,18.39c0,.87-3.13,1.57-7,1.57s-7-.7-7-1.57" style="fill:#fff;stroke:#b2bfcf;stroke-miterlimit:10;stroke-width:0.7260000000000001px"/><line x1="25.92" y1="15.66" x2="25.92" y2="18.39" style="fill:#fff;stroke:#b2bfcf;stroke-miterlimit:10;stroke-width:0.7260000000000001px"/><line x1="11.94" y1="15.66" x2="11.94" y2="18.39" style="fill:#fff;stroke:#b2bfcf;stroke-miterlimit:10;stroke-width:0.7260000000000001px"/><ellipse cx="18.93" cy="15.66" rx="6.99" ry="1.58" style="fill:#e9edf2;stroke:#b2bfcf;stroke-miterlimit:10;stroke-width:0.7260000000000001px"/></g></svg>