<svg id="CURRENT" xmlns="http://www.w3.org/2000/svg" viewBox="0 0 48 48"><title>xcart</title><path d="M11.73,7.24H36.27a4.51,4.51,0,0,1,4.49,4.49V36.27a4.51,4.51,0,0,1-4.49,4.49H11.73a4.51,4.51,0,0,1-4.49-4.49V11.73A4.56,4.56,0,0,1,11.73,7.24Z" style="fill:#f29221"/><path d="M32.9,23.48l-2.33,2.33,2.24,2.25a1.25,1.25,0,0,1,.35.78V32.9c0,.43-.09.52-.52.52h-1.9V30.31a1,1,0,0,0-.35-.87l-2.07-2.07a1.23,1.23,0,0,0-.86-.35H20.63a1,1,0,0,0-.86.35l-2.08,2.07a1,1,0,0,0-.34.87v2.5c0,.44-.09.61-.61.61h-1.9V28.84a1.25,1.25,0,0,1,.35-.78l2.33-2.33-2.25-2.25a1.29,1.29,0,0,1-.34-.78V14.49h2.5v6.74a1,1,0,0,0,.35.87l2.07,2.07a1.25,1.25,0,0,0,.87.35h6.82a1,1,0,0,0,.87-.35l2.07-2.07a1,1,0,0,0,.35-.87V14.49h2.5V22.7A1.61,1.61,0,0,1,32.9,23.48Z" style="fill:#fff"/><path d="M19.94,19.25h1.81v1.81H19.94Z" style="fill:#fff"/><path d="M26.68,19.25h1.81v1.81H26.68Z" style="fill:#fff"/><path d="M19.94,15.88h1.81v1.81H19.94Z" style="fill:#fff"/><path d="M26.68,15.88h1.81v1.81H26.68Z" style="fill:#fff"/><path d="M23.31,19.25h1.81v1.81H23.31Z" style="fill:#fff"/><path d="M23.31,15.88h1.81v1.81H23.31Z" style="fill:#fff"/><path d="M17.43,35.23a1.75,1.75,0,0,1-1.64-1.29h1.38a.74.74,0,0,0,.69-.69V31.86a1.68,1.68,0,0,1,1.3,1.65A1.73,1.73,0,0,1,17.43,35.23Z" style="fill:#b14c26"/><path d="M33.33,35.23a1.65,1.65,0,0,1-1.64-1.29h1.38a.74.74,0,0,0,.69-.69V31.86a1.68,1.68,0,0,1,1.3,1.65A1.73,1.73,0,0,1,33.33,35.23Z" style="fill:#b14c26"/></svg>