<?xml version="1.0" encoding="utf-8"?>
<!-- Generator: Adobe Illustrator 22.1.0, SVG Export Plug-In . SVG Version: 6.00 Build 0)  -->
<svg version="1.1" id="yahooshopping" xmlns="http://www.w3.org/2000/svg" xmlns:xlink="http://www.w3.org/1999/xlink" x="0px"
	 y="0px" viewBox="0 0 48 48" style="enable-background:new 0 0 48 48;" xml:space="preserve">
<style type="text/css">
	.st0{fill:url(#SVGID_1_);}
	.st1{fill:#350071;}
	.st2{fill:#8966AC;}
	.st3{fill:#F4F4F4;}
	.st4{fill:#FFFFFF;}
	.st5{fill:#744B9E;}
	.st6{fill:#DBDBDB;}
	.st7{fill:#390070;}
	.st8{fill:none;stroke:#8966AC;stroke-linecap:round;stroke-miterlimit:10;}
</style>
<title>yahooshoppingicon-</title>
<g>
	<g>
		<linearGradient id="SVGID_1_" gradientUnits="userSpaceOnUse" x1="24" y1="2.625" x2="24" y2="46.3779">
			<stop  offset="0" style="stop-color:#4E0191"/>
			<stop  offset="0.6345" style="stop-color:#430098"/>
		</linearGradient>
		<path class="st0" d="M13.6,25.6l20-13l12.2,12V20c0-9.5-7.8-17.3-17.3-17.3h-9C10,2.7,2.2,10.5,2.2,20v9c0,9.5,7.8,17.3,17.3,17.3
			h4.1L13.5,35.5L13.6,25.6z"/>
		<path class="st1" d="M45.8,29v-4.4l-12.2-12l-20,13l-0.1,9.9l10.2,10.8h4.9C38,46.3,45.8,38.5,45.8,29z"/>
	</g>
	<polygon class="st2" points="16.4,16 31.7,16 31.7,13.9 33.6,15.4 33.6,12.6 14.5,12.6 14.5,15.4 16.4,13.9 	"/>
	<g>
		<polygon class="st3" points="33.6,12.6 31.7,13.9 33.6,15.4 		"/>
		<polygon class="st3" points="14.5,15.4 16.4,13.9 14.5,12.6 		"/>
	</g>
	<g>
		<path class="st4" d="M35.1,34l0-1.1v1.6C35.1,34.4,35.1,34.2,35.1,34z"/>
		<path class="st4" d="M12.9,34C12.9,34,12.9,34,12.9,34l0-0.1L12.9,34z"/>
		<path class="st4" d="M15.2,36.4h17.6c1.1,0,2.1-0.8,2.3-1.9v-1.6l-0.1-3.4H13.1l-0.2,4.4v0.2C12.9,35.4,13.9,36.4,15.2,36.4z"/>
	</g>
	<path class="st5" d="M18.5,15.4L18.5,15.4c-0.4,0-0.7-0.3-0.7-0.7v0c0-0.4,0.3-0.7,0.7-0.7l0,0c0.4,0,0.7,0.3,0.7,0.7v0
		C19.2,15.1,18.9,15.4,18.5,15.4z"/>
	<path class="st5" d="M29.5,15.4L29.5,15.4c-0.4,0-0.7-0.3-0.7-0.7v0c0-0.4,0.3-0.7,0.7-0.7l0,0c0.4,0,0.7,0.3,0.7,0.7v0
		C30.2,15.1,29.9,15.4,29.5,15.4z"/>
	<g>
		<polygon class="st6" points="31.7,16 34.3,16 34.3,16 34.3,16 33.6,15.4 33.6,15.4 31.7,13.9 		"/>
		<polygon class="st6" points="16.4,16 16.4,13.9 14.5,15.4 14.5,15.4 13.8,16 13.8,16 		"/>
		<polygon class="st3" points="34.9,29.5 34.3,16 34.3,16 31.7,16 16.4,16 13.8,16 13.7,16 13.1,29.5 14.6,29.5 33.5,29.5 		"/>
	</g>
	<path class="st7" d="M18.5,19.1L18.5,19.1c-0.4,0-0.7-0.3-0.7-0.7v0c0-0.4,0.3-0.7,0.7-0.7l0,0c0.4,0,0.7,0.3,0.7,0.7v0
		C19.2,18.8,18.9,19.1,18.5,19.1z"/>
	<path class="st7" d="M29.5,19.1L29.5,19.1c-0.4,0-0.7-0.3-0.7-0.7v0c0-0.4,0.3-0.7,0.7-0.7l0,0c0.4,0,0.7,0.3,0.7,0.7v0
		C30.2,18.8,29.9,19.1,29.5,19.1z"/>
	<path class="st8" d="M18.5,18.7c0,1.4,1.1,5.6,5.4,5.6s5.6-4.2,5.6-5.6"/>
</g>
</svg>
