<svg xmlns="http://www.w3.org/2000/svg" viewBox="0 0 48 48"><defs><style>.cls-1{fill:#ff0132;}</style></defs><g id="yahoojapan"><path id="path79" class="cls-1" d="M0,14.81.15,13.1H18.69l-.28,1.62c-.86.19-4.76.28-5.8.57,2.66,3.89,6.84,9,8.17,10.93.76-1,7.9-6.08,8.09-7.61-1.05-.19-4.38-.66-4.95-.66l-.28-1.71h16l-1,1.61h0c-.66.1-3.51.67-4.47.86s-10.74,7.89-11.4,9.7c-.1.57,0,7.22,0,7.22L28.2,36,28,37.82c-.76-.1-5.9,0-9.13,0-1.61,0-6.56.19-8.27.1l.19-1.72a11.1,11.1,0,0,0,3.61-.38c.95-.28,1.71-.66,1.71-1.61V28.5c-.38-1-8.46-11.22-10.55-12.83C5,15.48.91,15,0,14.81"/><path id="path2" class="cls-1" d="M41.23,31.82H38.28l2.06-15.31H47l-.57,2.29ZM39,37.91,37,38l.38-3.42,2,.09,1.9-.09-.38,3.33Z"/></g></svg>