<svg id="CURRENT" xmlns="http://www.w3.org/2000/svg" viewBox="0 0 48 48">
  <title>yotpo</title>
  <g id="Page-1">
    <g id="Group-3">
      <circle id="Oval" cx="24" cy="24" r="18.17" style="fill: #2f84ed"/>
      <g id="Group-2">
        <polygon id="Path" points="13.81 16.34 15.96 16.34 17.61 19.37 19.21 16.34 21.25 16.34 18.55 21.19 18.55 23.78 16.57 23.78 16.57 21.25 13.81 16.34" style="fill: #fff"/>
        <path id="Shape" d="M20.64,20.09a3.91,3.91,0,0,1,7.82,0,3.91,3.91,0,0,1-7.82,0m5.78,0a1.93,1.93,0,1,0-3.85,0,1.92,1.92,0,0,0,1.93,2.09,1.89,1.89,0,0,0,1.92-2.09" style="fill: #fff"/>
        <polygon id="Path-2" data-name="Path" points="30.28 18 28.35 18 28.35 16.34 34.19 16.34 34.19 18 32.26 18 32.26 23.78 30.28 23.78 30.28 18" style="fill: #fff"/>
        <path id="Shape-2" data-name="Shape" d="M16.34,31.93H14.42V24.5h2.75a2.92,2.92,0,1,1,0,5.83h-.83Zm.72-3.3a1.08,1.08,0,0,0,1.21-1.22,1.11,1.11,0,0,0-1.21-1.26h-.72v2.48Z" style="fill: #fff"/>
        <path id="Shape-3" data-name="Shape" d="M20.59,28.24a3.79,3.79,0,0,1,3.91-3.8,3.83,3.83,0,1,1,0,7.66,3.88,3.88,0,0,1-3.91-3.86m5.83,0a1.93,1.93,0,1,0-3.85,0,1.93,1.93,0,1,0,3.85,0" style="fill: #fff"/>
        <path id="Path-3" data-name="Path" d="M28.41,31a1,1,0,1,1,1,1.11,1.14,1.14,0,0,1-1-1.11" style="fill: #fff"/>
      </g>
    </g>
  </g>
</svg>
