<svg xmlns="http://www.w3.org/2000/svg" xmlns:xlink="http://www.w3.org/1999/xlink" viewBox="0 0 48 48"><defs><linearGradient id="a" x1="24.06" y1="10.19" x2="24.06" y2="37.02" gradientUnits="userSpaceOnUse"><stop offset="0" stop-color="#e52d27"/><stop offset="1" stop-color="#bf171d"/></linearGradient></defs><title>youtube analytics</title><path d="M33.66,37l1.27-.66L24.62,31" style="fill:#420000;fill-rule:evenodd;opacity:0.12"/><path d="M42.75,16s-.37-2.63-1.52-3.79a5.39,5.39,0,0,0-3.82-1.61c-5.34-.39-13.34-.39-13.34-.39h0s-8,0-13.34.39a5.39,5.39,0,0,0-3.82,1.61C5.74,13.35,5.37,16,5.37,16A57.72,57.72,0,0,0,5,22.15V25a58,58,0,0,0,.38,6.18S5.74,33.84,6.89,35c1.45,1.52,3.35,1.47,4.2,1.63,3.05.3,13,.39,13,.39s8,0,13.35-.4A5.46,5.46,0,0,0,41.23,35c1.15-1.16,1.52-3.78,1.52-3.78A58,58,0,0,0,43.13,25V22.15A57.72,57.72,0,0,0,42.75,16Z" style="fill:url(#a)"/><rect x="13.04" y="21.4" width="3.73" height="10.7" style="fill:#fff"/><rect x="19.24" y="13.14" width="4" height="18.96" style="fill:#fff"/><rect x="25.43" y="19.4" width="4" height="12.7" style="fill:#fff"/><rect x="31.77" y="23.69" width="4" height="8.41" style="fill:#fff"/></svg>