<svg id="Layer_1" data-name="Layer 1" xmlns="http://www.w3.org/2000/svg" viewBox="0 0 48 48">
  <title>zenefits</title>
  <g>
    <polygon points="20.39 6.8 12.08 4.67 12.08 4.7 12.08 8.11 12.08 8.62 32.48 13.85 27.3 16.48 12.08 12.58 12.08 16.43 22.44 19.11 12.08 24.35 12.08 28.27 37.47 15.13 37.57 15.16 37.57 15.08 37.57 11.2 37.57 11.14 20.39 6.8" style="fill: #fe5745"/>
    <polygon points="29.26 41.2 37.57 43.33 37.57 43.3 37.57 39.89 37.57 39.38 17.17 34.15 22.35 31.52 37.57 35.42 37.57 31.57 27.21 28.89 37.57 23.65 37.57 19.73 12.18 32.87 12.08 32.84 12.08 32.92 12.08 36.8 12.08 36.86 29.26 41.2" style="fill: #fe5745"/>
  </g>
</svg>
