<svg id="Layer_1" data-name="Layer 1" xmlns="http://www.w3.org/2000/svg" viewBox="0 0 48 48">
  <title>zohodesk</title>
  <g>
    <g id="AYLtQ1.tif">
      <path d="M7.83,46c.45-2.25.94-4.5,1.35-6.76,1.23-6.77,2.42-13.55,3.65-20.32.52-2.91,1.86-4,4.86-4H27.91c1.51,0,2,.55,1.74,2-.68,3.63-.37,3.37-3.89,3.35-1.87,0-3.75,0-5.62,0a2.56,2.56,0,0,0-2.49,2.09q-1.12,6.13-2.23,12.28c-.27,1.44.28,2.18,1.73,2.19,4.27,0,8.54,0,12.81,0,1.28,0,1.7-.42,1.94-1.7Q34,23.28,36.2,11.42c.24-1.31-.22-1.9-1.55-2-.41,0-.82,0-1.24,0a2,2,0,0,1-2-2.4c.28-1.55.61-3.09,1-4.62A1.44,1.44,0,0,1,34,1.23c1.57,0,3.14,0,4.71,0,2.15.06,3.24,1.43,4,3.23a.74.74,0,0,1,.05.25V6.07a.64.64,0,0,1,0,.2,7.08,7.08,0,0,0-.22.75Q39.6,22.65,36.79,38.26c-.51,2.8-1.86,3.92-4.68,3.92-5.58,0-11.15,0-16.73,0a3.77,3.77,0,0,0-2.1.77c-1.51,1.15-2.91,2.44-4.34,3.68a.67.67,0,0,1-.45.16h0A.68.68,0,0,1,7.83,46Z" style="fill: #088e45"/>
    </g>
    <path d="M26.77,30.6H21.86a.32.32,0,0,1-.31-.38l.67-2.9a.18.18,0,0,1,.29-.09l2,1.71a.39.39,0,0,0,.45,0l2.7-1.52a.12.12,0,0,1,.18.13l-.52,2.55A.54.54,0,0,1,26.77,30.6Z" style="fill: #0a8e45"/>
    <path d="M28,25.89H22.65a.14.14,0,0,0-.15.11l0,.09a.18.18,0,0,0,.06.19L24.7,28a.29.29,0,0,0,.34,0l2.87-1.61a.29.29,0,0,0,.14-.2L28.1,26A.08.08,0,0,0,28,25.89Z" style="fill: #0a8e45"/>
  </g>
</svg>
