<svg width="48" height="48" viewBox="0 0 48 48" fill="none" xmlns="http://www.w3.org/2000/svg">
<g clip-path="url(#clip0_105_9554)">
<g opacity="0.9">
<path d="M15.2672 35.4362C15.0194 35.4359 14.7796 35.3483 14.5899 35.1889C14.4002 35.0295 14.2727 34.8083 14.2297 34.5643L9.67559 8.7357C9.63512 8.50364 9.53133 8.28728 9.37568 8.11047C9.22003 7.93367 9.01857 7.8033 8.79352 7.73374L6.75902 7.10093C6.62562 7.06077 6.50149 6.99459 6.39381 6.90619C6.28613 6.81779 6.19703 6.70893 6.13165 6.5859C6.06628 6.46287 6.02593 6.32811 6.01293 6.1894C5.99993 6.05069 6.01455 5.91078 6.05593 5.77775C6.0973 5.64472 6.16463 5.5212 6.25401 5.41434C6.3434 5.30747 6.45307 5.21937 6.57669 5.15513C6.70032 5.09089 6.83544 5.05178 6.97427 5.04006C7.11309 5.02833 7.25286 5.04423 7.38551 5.08683L9.42 5.71964C10.0153 5.90342 10.5482 6.24814 10.9599 6.71574C11.3716 7.18333 11.646 7.7556 11.753 8.36937L16.3071 34.198C16.3312 34.3344 16.3282 34.4742 16.2982 34.6094C16.2683 34.7446 16.212 34.8727 16.1325 34.9861C16.0531 35.0996 15.9521 35.1963 15.8353 35.2708C15.7185 35.3452 15.5882 35.3959 15.4518 35.42C15.3908 35.4307 15.3291 35.4361 15.2672 35.4362V35.4362Z" fill="#E42527"/>
</g>
<g opacity="0.9">
<path d="M20.2826 38.9479C20.0187 38.948 19.7643 38.849 19.5698 38.6707C19.3752 38.4924 19.2546 38.2476 19.2317 37.9846C19.2089 37.7217 19.2854 37.4598 19.4462 37.2505C19.6071 37.0413 19.8405 36.8999 20.1005 36.8544L38.8127 33.555C38.9794 33.5266 39.1389 33.4656 39.282 33.3754C39.425 33.2853 39.5488 33.1677 39.6462 33.0295C39.7436 32.8913 39.8128 32.7351 39.8496 32.5701C39.8865 32.4051 39.8903 32.2344 39.861 32.0679C39.8316 31.9013 39.7696 31.7422 39.6785 31.5998C39.5874 31.4573 39.4691 31.3342 39.3303 31.2377C39.1914 31.1411 39.0349 31.073 38.8696 31.0372C38.7044 31.0014 38.5336 30.9986 38.3673 31.029L22.2967 33.8633C21.858 33.9406 21.4084 33.9308 20.9735 33.8344C20.5387 33.738 20.127 33.5569 19.7622 33.3014C19.3973 33.046 19.0863 32.7211 18.8469 32.3454C18.6076 31.9698 18.4446 31.5506 18.3673 31.112L15.5337 15.0406C15.4563 14.602 15.4661 14.1524 15.5625 13.7175C15.6589 13.2826 15.84 12.871 16.0955 12.5061C16.351 12.1412 16.6759 11.8302 17.0515 11.5909C17.4272 11.3516 17.8463 11.1886 18.285 11.1112L34.3556 8.27762C34.7943 8.20026 35.2439 8.21006 35.6788 8.30646C36.1137 8.40286 36.5253 8.58398 36.8902 8.83946C37.255 9.09495 37.566 9.4198 37.8054 9.79547C38.0447 10.1711 38.2077 10.5903 38.285 11.0289L40.9081 25.9046C40.9524 26.1783 40.8872 26.4585 40.7265 26.6845C40.5658 26.9105 40.3226 27.0642 40.0494 27.1121C39.7763 27.1601 39.4953 27.0986 39.2672 26.9409C39.0391 26.7832 38.8822 26.542 38.8307 26.2695L36.2077 11.3949C36.1485 11.0601 35.9589 10.7626 35.6804 10.5675C35.402 10.3724 35.0575 10.2959 34.7227 10.3546L18.651 13.1886C18.4851 13.2178 18.3267 13.2795 18.1847 13.37C18.0426 13.4605 17.9198 13.5781 17.8233 13.716C17.7267 13.854 17.6582 14.0096 17.6218 14.1741C17.5854 14.3385 17.5818 14.5085 17.6111 14.6743L20.4447 30.7449C20.4739 30.9108 20.5355 31.0693 20.6259 31.2114C20.7164 31.3534 20.834 31.4763 20.972 31.5729C21.1099 31.6695 21.2656 31.7379 21.43 31.7744C21.5945 31.8108 21.7645 31.8145 21.9304 31.7852L38.001 28.9516C38.443 28.8659 38.8977 28.8691 39.3384 28.9609C39.7792 29.0528 40.1973 29.2315 40.5683 29.4866C40.9393 29.7417 41.2558 30.0681 41.4994 30.4468C41.7429 30.8255 41.9086 31.2489 41.9868 31.6924C42.065 32.1358 42.0542 32.5903 41.9549 33.0295C41.8556 33.4686 41.6698 33.8837 41.4085 34.2503C41.1471 34.6169 40.8154 34.9279 40.4326 35.165C40.0499 35.4021 39.6237 35.5606 39.1791 35.6313L20.4668 38.9318C20.406 38.9425 20.3443 38.9479 20.2826 38.9479V38.9479Z" fill="#E42527"/>
</g>
<path d="M24.5273 18.4276C24.2635 18.4275 24.0092 18.3285 23.8147 18.1502C23.6202 17.9718 23.4997 17.727 23.4768 17.4641C23.454 17.2012 23.5306 16.9393 23.6914 16.7301C23.8522 16.5209 24.0857 16.3796 24.3456 16.334L30.4477 15.2582C30.7231 15.2097 31.0066 15.2725 31.2358 15.433C31.4649 15.5934 31.6209 15.8383 31.6695 16.1138C31.7181 16.3893 31.6552 16.6727 31.4948 16.9019C31.3344 17.131 31.0895 17.2871 30.814 17.3356L24.7119 18.4114C24.651 18.4221 24.5892 18.4275 24.5273 18.4276Z" fill="#F9B21D"/>
<g opacity="0.9">
<path d="M17.3358 40.961C16.249 40.9609 15.2042 40.5414 14.4191 39.79C13.634 39.0385 13.1691 38.0131 13.1215 36.9273C13.0738 35.8416 13.4469 34.7794 14.1631 33.962C14.8793 33.1446 15.8833 32.6351 16.9659 32.5398C18.0485 32.4444 19.1261 32.7705 19.9742 33.45C20.8223 34.1296 21.3754 35.1103 21.5183 36.1876C21.6611 37.265 21.3828 38.3559 20.7411 39.233C20.0995 40.1102 19.1441 40.7058 18.0741 40.8959C17.8303 40.9391 17.5833 40.9608 17.3358 40.961ZM17.3491 34.6557C17.2255 34.6557 17.1021 34.6665 16.9804 34.688C16.4506 34.7824 15.9777 35.0774 15.66 35.5118C15.3424 35.9461 15.2046 36.4863 15.2754 37.0197C15.3461 37.5531 15.6199 38.0387 16.0397 38.3752C16.4596 38.7118 16.9931 38.8734 17.5291 38.8264C18.0651 38.7794 18.5624 38.5274 18.9172 38.1229C19.2721 37.7184 19.4572 37.1926 19.434 36.655C19.4108 36.1174 19.1811 35.6095 18.7927 35.237C18.4043 34.8646 17.8872 34.6564 17.3491 34.6557Z" fill="#E42527"/>
</g>
</g>
<defs>
<clipPath id="clip0_105_9554">
<rect width="36" height="36" fill="white" transform="translate(6 5)"/>
</clipPath>
</defs>
</svg>
