<svg width="48" height="48" viewBox="0 0 48 48" fill="none" xmlns="http://www.w3.org/2000/svg">
<g clip-path="url(#clip0_1628_221)">
<path d="M40.2307 30.5341C39.1033 29.424 37.5942 28.7865 35.994 28.7865H27.7373L41.0069 18.1232C41.8698 17.4423 42.2169 16.2889 41.8265 15.2654C41.4405 14.242 40.4865 13.5612 39.3635 13.5612H29.9404L34.6107 9.7625C35.4736 9.03832 35.8205 7.92814 35.4302 6.90468C35.04 5.88141 34.0904 5.2005 32.9671 5.2005H12.0436C10.4478 5.2005 8.93435 5.83796 7.81126 6.94814C6.64035 8.10159 6.03762 9.59341 6.03762 11.1718C6.03762 12.7503 6.64035 14.242 7.76799 15.3521C8.93435 16.458 10.4478 17.0998 12.0436 17.0998H36.5967L22.074 28.7865H11.3976L18.5744 22.8587C19.3073 22.2169 19.4373 21.1067 18.7869 20.339C18.1407 19.6149 17.0176 19.4892 16.2371 20.1267L6.94399 27.7632C6.08108 28.4874 5.77744 29.5974 6.16781 30.6209C6.55799 31.6443 7.50781 32.325 8.6309 32.325H17.6204L12.8242 36.2063C11.9613 36.8914 11.6144 38.0405 12.0004 39.064C12.3905 40.0874 13.3404 40.7725 14.4678 40.7725H35.994C37.5942 40.7725 39.1033 40.1741 40.2307 39.064C41.3973 37.9149 42 36.4187 42 34.8445V34.7578C42 33.136 41.3538 31.6443 40.2307 30.5341ZM24.2769 13.5178H12.0436C11.3976 13.5178 10.7904 13.3054 10.3178 12.8327C9.88417 12.3643 9.62399 11.766 9.62399 11.1285C9.62399 10.491 9.84072 9.8925 10.3178 9.42414C10.7904 8.99486 11.3976 8.73905 12.0436 8.73905H30.2005L24.2769 13.5178ZM38.4138 34.8445C38.4138 35.4821 38.1969 36.0805 37.7198 36.5489C37.2473 36.9738 36.6402 37.2296 35.994 37.2296H17.2778L23.3271 32.3685H35.994C36.6402 32.3685 37.2473 32.5809 37.7198 33.0492C38.1536 33.522 38.4138 34.1161 38.4138 34.7578V34.8445Z" fill="#00D2B9"/>
</g>
<defs>
<clipPath id="clip0_1628_221">
<rect width="36" height="36" fill="white" transform="translate(6 5)"/>
</clipPath>
</defs>
</svg>
