<svg xmlns="http://www.w3.org/2000/svg" viewBox="0 0 48 48"><title>as4</title><g id="Warstwa_1" data-name="Warstwa 1"><path d="M29.46,9.2s3.22,1,3.69,5.68h.41c3,0,5,.59,4.94,3.93v2.94s5.46.16,5.87-.3.25-.72.34-4.81.91-13-.32-13.45-9.91.11-9.91.11-4.72,3.57-4.9,4.5Z" style="fill:#f0f0f0"/><path d="M12.7,23.87h-2L6.08,28.06v13.6a.91.91,0,0,0,.91.91H20.42a.9.9,0,0,0,.9-.91V33.44" style="fill:#fff;stroke:#b2bfcf;stroke-linecap:round;stroke-linejoin:round;stroke-width:0.7260000000000001px"/><polyline points="10.74 23.87 10.74 28.06 6.08 28.06" style="fill:none;stroke:#b2bfcf;stroke-linecap:round;stroke-linejoin:round;stroke-width:0.7260000000000001px"/><polyline points="34.34 3.21 34.34 7.25 29.67 7.25" style="fill:#f0f0f0;stroke:#b2bfcf;stroke-linecap:round;stroke-linejoin:round;stroke-width:0.7260000000000001px"/><path d="M38.61,21.76H44a.91.91,0,0,0,.91-.91V4a.9.9,0,0,0-.91-.9H34.34L29.67,7.25V9" style="fill:none;stroke:#b2bfcf;stroke-linecap:round;stroke-linejoin:round;stroke-width:0.7260000000000001px"/><rect x="14.79" y="16.97" width="21.63" height="14.46" rx="1.45" ry="1.45" style="fill:#009ada"/><path d="M19.19,20.43H20.3l3.1,7.19H21.94L21.27,26H18.15l-.65,1.64H16.06Zm1.63,4.45L19.71,22l-1.13,2.93Z" style="fill:#fff"/><path d="M27.78,21.93a1.77,1.77,0,0,0-1.32-.62c-.59,0-1.27.29-1.27,1s.56.85,1.37,1.11,2.11.69,2.11,2.1A2.34,2.34,0,0,1,26,27.81a3.29,3.29,0,0,1-2.47-1l.92-.85a2.08,2.08,0,0,0,1.57.79c.6,0,1.31-.3,1.31-1.07s-.76-1-1.66-1.25-1.82-.7-1.82-2,1.33-2.12,2.63-2.12a3.16,3.16,0,0,1,2.1.78Z" style="fill:#fff"/><path d="M32.69,26.13H29.37V25.05l3.06-4.62h1.46v4.65h1v1.05h-1v1.49h-1.2Zm0-4.27h0l-2,3.22h2.06Z" style="fill:#fff"/><path d="M25.6,10.9h0a4.66,4.66,0,0,0-4.66,4.66v2.5h9.32v-2.5A4.65,4.65,0,0,0,25.6,10.9Z" style="fill:none;stroke:#009ada;stroke-linecap:round;stroke-linejoin:round;stroke-width:2.178px"/><path d="M25.6,9.8a5.76,5.76,0,0,1,5.75,5.75V17H35a1.45,1.45,0,0,1,1.45,1.45V30A1.45,1.45,0,0,1,35,31.42H16.24A1.45,1.45,0,0,1,14.79,30V18.42A1.45,1.45,0,0,1,16.24,17h3.62V15.55A5.75,5.75,0,0,1,25.6,9.8M22,17h7.14V15.55a3.57,3.57,0,0,0-7.14,0V17M25.6,7.62a7.94,7.94,0,0,0-7.89,7.17H16.24a3.64,3.64,0,0,0-3.63,3.63V30a3.64,3.64,0,0,0,3.63,3.63H35A3.64,3.64,0,0,0,38.6,30V18.42A3.64,3.64,0,0,0,35,14.79H33.49A7.93,7.93,0,0,0,25.6,7.62Zm-1.16,7.17a1.39,1.39,0,0,1,2.33,0Z" style="fill:#fff"/><polyline points="22.05 6.49 24.17 4.58 22.23 2.44" style="fill:none;stroke:#009ada;stroke-linecap:round;stroke-linejoin:round;stroke-width:1.4520000000000002px"/><polyline points="5.38 18.38 7.13 20.32 9.01 18.45" style="fill:none;stroke:#009ada;stroke-linecap:round;stroke-linejoin:round;stroke-width:1.4520000000000002px"/><path d="M7.17,16.32V7.25a2.9,2.9,0,0,1,2.9-2.91H20.23" style="fill:none;stroke:#009ada;stroke-linecap:round;stroke-linejoin:round;stroke-width:1.4520000000000002px"/><polyline points="28.43 39.13 26.32 41.04 28.09 43.01" style="fill:none;stroke:#009ada;stroke-linecap:round;stroke-linejoin:round;stroke-width:1.4520000000000002px"/><polyline points="45.24 27.23 43.36 25.31 41.21 27.24" style="fill:none;stroke:#009ada;stroke-linecap:round;stroke-linejoin:round;stroke-width:1.4520000000000002px"/><path d="M43.32,29.3v9.08a2.9,2.9,0,0,1-2.91,2.9H30.25" style="fill:none;stroke:#009ada;stroke-linecap:round;stroke-linejoin:round;stroke-width:1.4520000000000002px"/><path d="M23.8,15.51c0-.09.39-2,.39-2a19.7,19.7,0,0,1,2.31,0,6.33,6.33,0,0,1,1,1.65C27.48,15.28,23.8,15.51,23.8,15.51Z" style="fill:#fff"/></g></svg>