<svg xmlns="http://www.w3.org/2000/svg" viewBox="0 0 48 48"><g id="Warstwa_1" data-name="Warstwa 1"><path d="M18.25,6.34H42.34a2.91,2.91,0,0,1,2.8,3v9s1.41.24,1.66-.61S47,3.05,47,3.05s1.4-1.34-7-1-21,.2-21,.2a5.25,5.25,0,0,0-.69,2.35A13,13,0,0,1,18.25,6.34Z" style="fill:#fff"/><path d="M17.35,6.26V4a1.36,1.36,0,0,1,1.36-1.37H44.79A1.36,1.36,0,0,1,46.15,4V16.39a1.36,1.36,0,0,1-1.36,1.37h-.22" style="fill:none;stroke:#b2bfcf;stroke-linecap:round;stroke-linejoin:round;stroke-width:0.6836797283877257px"/><rect x="15.1" y="6.26" width="28.81" height="15.7" rx="1.39" style="fill:#e9edf2;stroke:#b2bfcf;stroke-miterlimit:10;stroke-width:0.6956046193581854px"/><path d="M39.68,27.88l-26-.06a1.57,1.57,0,0,1-1.43-1.66V11.88a1.49,1.49,0,0,1,1.37-1.58H39.68a1.49,1.49,0,0,1,1.37,1.58V26.3A1.49,1.49,0,0,1,39.68,27.88Z" style="fill:#fff;stroke:#00a0ff;stroke-linecap:round;stroke-linejoin:round;stroke-width:0.7360911306957598px"/><line x1="15.06" y1="14.12" x2="37.07" y2="14.12" style="fill:none;stroke:#00a0ff;stroke-linecap:round;stroke-linejoin:round;stroke-width:0.7681065065799022px"/><line x1="15.06" y1="17.57" x2="37.33" y2="17.57" style="fill:none;stroke:#00a0ff;stroke-linecap:round;stroke-linejoin:round;stroke-width:0.7681065065799022px"/><line x1="21.34" y1="21.01" x2="37.33" y2="21.01" style="fill:none;stroke:#00a0ff;stroke-linecap:round;stroke-linejoin:round;stroke-width:0.7681065065799022px"/><line x1="27.29" y1="24.19" x2="37.33" y2="24.19" style="fill:none;stroke:#00a0ff;stroke-linecap:round;stroke-linejoin:round;stroke-width:0.7681065065799022px"/><line x1="2.56" y1="40.57" x2="2.56" y2="37.87" style="fill:none;stroke:#b2bfcf;stroke-linecap:round;stroke-linejoin:round;stroke-width:0.8999777185090352px"/><line x1="2.56" y1="32.18" x2="2.56" y2="23.65" style="fill:none;stroke:#b2bfcf;stroke-linecap:round;stroke-linejoin:round;stroke-width:0.8999777185090352px;stroke-dasharray:5.689815044403076,5.689815044403076"/><polyline points="2.56 20.8 2.56 18.11 6.98 18.11" style="fill:none;stroke:#b2bfcf;stroke-linecap:round;stroke-linejoin:round;stroke-width:0.8999777185090352px"/><polygon points="6.19 20.8 10.86 18.11 6.19 15.41 6.19 20.8" style="fill:#b2bfcf"/><line x1="29.34" y1="30.42" x2="29.34" y2="33.12" style="fill:none;stroke:#b2bfcf;stroke-linecap:round;stroke-linejoin:round;stroke-width:0.8999777185090352px"/><polyline points="29.34 40.97 29.34 43.67 26.64 43.67" style="fill:none;stroke:#b2bfcf;stroke-linecap:round;stroke-linejoin:round;stroke-width:0.8999777185090352px"/><line x1="21.81" y1="43.67" x2="14.56" y2="43.67" style="fill:none;stroke:#b2bfcf;stroke-linecap:round;stroke-linejoin:round;stroke-width:0.8999777185090352px;stroke-dasharray:4.830755710601807,4.830755710601807"/><line x1="12.14" y1="43.67" x2="9.44" y2="43.67" style="fill:none;stroke:#b2bfcf;stroke-linecap:round;stroke-linejoin:round;stroke-width:0.8999777185090352px"/><polygon points="10.23 40.98 5.57 43.67 10.23 46.36 10.23 40.98" style="fill:#b2bfcf"/><path d="M24.9,31.48l.72-.07a10.54,10.54,0,0,0,.14-1.7,8.45,8.45,0,0,0-.11-1.34L25,28.32a1.49,1.49,0,0,1-1.29-1,8.44,8.44,0,0,0-.36-.9,1.48,1.48,0,0,1,.21-1.56L24,24.3a9.79,9.79,0,0,0-2.13-2.18l-.49.43a1.46,1.46,0,0,1-1.62.2,7.67,7.67,0,0,0-.89-.38,1.45,1.45,0,0,1-1-1.25l-.07-.72a10.54,10.54,0,0,0-1.7-.14,8.45,8.45,0,0,0-1.34.11l-.05.65a1.49,1.49,0,0,1-1,1.29,8.44,8.44,0,0,0-.9.36,1.48,1.48,0,0,1-1.56-.21L10.75,22a9.79,9.79,0,0,0-2.18,2.13l.43.49a1.46,1.46,0,0,1,.2,1.62c-.14.29-.27.59-.38.89a1.45,1.45,0,0,1-1.25,1l-.72.07a10.54,10.54,0,0,0-.14,1.7,8.45,8.45,0,0,0,.11,1.34l.65.05a1.48,1.48,0,0,1,1.29,1,7,7,0,0,0,.36.9,1.48,1.48,0,0,1-.21,1.56l-.46.56a9.79,9.79,0,0,0,2.13,2.18l.49-.43a1.46,1.46,0,0,1,1.62-.2c.29.14.59.27.89.38a1.45,1.45,0,0,1,1,1.25l.07.72a10.54,10.54,0,0,0,1.7.14,8.45,8.45,0,0,0,1.34-.11l.05-.65a1.48,1.48,0,0,1,1-1.29,7,7,0,0,0,.9-.36,1.5,1.5,0,0,1,1.57.21l.55.46a9.79,9.79,0,0,0,2.18-2.13L23.47,35a1.46,1.46,0,0,1-.2-1.62c.14-.29.27-.59.38-.89A1.45,1.45,0,0,1,24.9,31.48Z" style="fill:#00a0ff"/><circle cx="16.23" cy="29.78" r="4" style="fill:#fff"/></g></svg>