<?xml version="1.0" encoding="utf-8"?>
<!-- Generator: Adobe Illustrator 25.2.0, SVG Export Plug-In . SVG Version: 6.00 Build 0)  -->
<svg version="1.1" id="Layer_1" xmlns="http://www.w3.org/2000/svg" xmlns:xlink="http://www.w3.org/1999/xlink" x="0px" y="0px"
	 viewBox="0 0 550 74" style="enable-background:new 0 0 550 74;" xml:space="preserve">
<style type="text/css">
	.st0{fill:#ECA920;}
	.st1{clip-path:url(#SVGID_2_);}
	.st2{fill:#231F20;}
</style>
<path class="st0" d="M180.3,34V1.4h18.6c8.4,0,9.2,6.8,9.2,8.9c0,5.3-2.9,7.4-2.9,7.4s2.9,2.5,2.9,7.4c0,6.2-3.3,8.9-9.7,8.9H180.3z
	 M187.1,14h10.6c1.5,0,2.8-1.1,2.8-2.7c0-1.7-1.4-2.3-2.8-2.3h-10.6V14z M200.5,23.8c0-1.6-1.3-2.7-2.8-2.7h-10.6v5.4h10.6
	C199.1,26.5,200.5,25.4,200.5,23.8z"/>
<polygon class="st0" points="211.5,1.2 211.5,34.1 234.2,34.1 234.2,27.4 218.3,27.4 218.3,1.2 "/>
<path class="st0" d="M254.8,1.4L266.5,34h-7.6l-2.7-7.5h-10.2l-2.7,7.5h-7.5l11.9-32.6H254.8z M248.6,19.5h5l-2.5-6.9L248.6,19.5z"
	/>
<path class="st0" d="M274.1,18.6c0,4.9,1.1,8,5.7,8h12.6V34h-12.9c-9,0-13.1-5.4-13.1-15.7c0-11.5,3.7-16.9,13.2-16.9h12.7V9h-12.6
	C275.2,9,274.1,11.4,274.1,18.6z"/>
<path class="st0" d="M301.8,1.4v15.3l10.6-15.3h8.6l-10.8,16L321,34h-8.5l-10.7-16v16H295V1.4H301.8z"/>
<polygon class="st0" points="322.8,1.2 322.8,34.1 345.5,34.1 345.5,27.4 329.6,27.4 329.6,1.2 "/>
<path class="st0" d="M373.1,1.5h-23.6v7.7h24C373.4,9.2,373.3,1.7,373.1,1.5z"/>
<polygon class="st0" points="373.3,14.3 349,14.3 349,34.1 373.1,34.1 373.1,26.4 355.8,26.4 355.8,20.9 373.4,20.9 "/>
<path class="st0" d="M393.7,1.4L405.4,34h-7.6l-2.7-7.5H385l-2.7,7.5h-7.5l11.9-32.6H393.7z M387.6,19.5h5l-2.5-6.9L387.6,19.5z"/>
<path class="st0" d="M414.2,14h18.3v7.1h-18.3V34h-6.6l0.2-32.6l9.6,0h15.2V9h-18.3L414.2,14z"/>
<g id="Line">
	<rect x="180.7" y="39.7" class="st0" width="251.8" height="2.2"/>
</g>
<g>
	<path class="st0" d="M205.1,65.1h3.1c-0.1,2.2-0.2,3.7-0.4,4.5c-0.4,1.8-1.6,2.9-3.6,3.3c-1.6,0.3-4.5,0.5-8.6,0.5
		c-5.4,0-9-0.2-10.9-0.6c-1.8-0.4-3-1.3-3.6-2.8c-0.6-1.5-0.9-4.3-0.9-8.3c0-3.8,0.2-6.6,0.7-8.4c0.6-2.1,2-3.2,4.3-3.6
		c2.3-0.3,5.6-0.5,9.9-0.5c4.1,0,7.1,0.2,8.9,0.6c0.9,0.2,1.7,0.6,2.3,1.2c0.7,0.6,1.1,1.3,1.2,2c0.2,0.7,0.3,2.1,0.3,4.2h-3
		c0-0.4,0-0.7,0-0.8c0-1.1-0.1-2-0.3-2.5c-0.2-0.5-0.7-0.9-1.3-1.1c-1.2-0.5-4-0.7-8.3-0.7c-3.2,0-5.5,0.1-7.1,0.3
		c-1.6,0.2-2.6,0.4-3.1,0.8c-0.5,0.4-0.8,1.1-1,2.3c-0.2,1.2-0.3,2.8-0.3,4.9c0,1,0,2.3,0.1,3.8c0.1,1.6,0.2,2.6,0.2,3.2
		c0.1,0.9,0.4,1.6,0.9,2c0.5,0.4,1.2,0.7,2.2,0.8c1.8,0.2,4.4,0.3,7.8,0.3c1,0,2.4,0,4.1-0.1c1.7-0.1,2.7-0.1,3.2-0.2
		c0.9-0.1,1.6-0.3,2-0.5c0.4-0.2,0.7-0.6,0.9-1.1C205,68.1,205.1,67,205.1,65.1z"/>
	<path class="st0" d="M232.8,49.2c4.1,0,7,0.1,8.7,0.4c1.7,0.3,2.9,0.8,3.7,1.5c0.5,0.5,0.9,1.1,1.1,1.7c0.2,0.7,0.4,1.6,0.6,2.8
		c0.2,1.5,0.3,3.4,0.3,5.7c0,3-0.1,5.2-0.4,6.7c-0.3,1.5-0.8,2.6-1.4,3.3c-0.7,0.8-1.9,1.3-3.5,1.5c-1.6,0.3-4.3,0.4-7.9,0.4
		c-1.8,0-3.8,0-6-0.1c-2.2-0.1-3.6-0.1-4.3-0.2c-1.2-0.1-2.1-0.3-2.8-0.6c-0.7-0.3-1.3-0.7-1.8-1.3c-0.7-0.7-1.2-1.8-1.4-3.2
		c-0.2-1.4-0.4-3.7-0.4-6.9c0-3.8,0.3-6.5,0.8-8.1c0.6-1.9,2.1-3,4.3-3.4C224.2,49.4,227.8,49.2,232.8,49.2z M230.9,52.1
		c-3.4,0-5.8,0.1-7.4,0.4c-0.9,0.2-1.6,0.4-2,0.8c-0.4,0.4-0.7,1-0.9,1.8c-0.3,1.3-0.4,3.3-0.4,5.9c0,2.6,0.1,4.6,0.2,5.8
		c0.1,1.2,0.4,2,0.8,2.4c0.3,0.3,0.7,0.6,1.3,0.7c0.6,0.2,1.5,0.3,2.7,0.4c2.1,0.1,4.4,0.2,7.2,0.2c3.9,0,6.7-0.2,8.4-0.5
		c1.4-0.2,2.2-1,2.5-2.4c0.3-1.5,0.4-3.5,0.4-6.1c0-3.2-0.1-5.4-0.4-6.7c-0.2-1.3-1.1-2.1-2.7-2.3c-0.9-0.1-2-0.2-3.1-0.3
		C236.4,52.1,234.2,52.1,230.9,52.1z"/>
	<path class="st0" d="M256.7,49.3h5.3l21,21h0.7v-21h3.2v24h-5.4l-21-21h-0.7v21h-3.2V49.3z"/>
	<path class="st0" d="M297.1,49.3h5.3l21,21h0.7v-21h3.2v24H322l-21-21h-0.7v21h-3.2V49.3z"/>
	<path class="st0" d="M337.5,73.3v-24H361v2.8h-20.3v7.3h19.5v2.8h-19.5v8.2h20.3v2.8H337.5z"/>
	<path class="st0" d="M394.3,65.1h3.1c-0.1,2.2-0.2,3.7-0.4,4.5c-0.4,1.8-1.6,2.9-3.6,3.3c-1.6,0.3-4.5,0.5-8.6,0.5
		c-5.4,0-9-0.2-10.9-0.6c-1.8-0.4-3-1.3-3.6-2.8c-0.6-1.5-0.9-4.3-0.9-8.3c0-3.8,0.2-6.6,0.7-8.4c0.6-2.1,2-3.2,4.3-3.6
		c2.2-0.3,5.5-0.5,9.9-0.5c4.1,0,7.1,0.2,8.9,0.6c0.9,0.2,1.7,0.6,2.3,1.2c0.7,0.6,1.1,1.3,1.2,2c0.2,0.7,0.3,2.1,0.3,4.2h-3
		c0-0.4,0-0.7,0-0.8c0-1.1-0.1-2-0.3-2.5c-0.2-0.5-0.7-0.9-1.3-1.1c-1.2-0.5-4-0.7-8.3-0.7c-3.2,0-5.5,0.1-7.1,0.3
		c-1.6,0.2-2.6,0.4-3.1,0.8c-0.5,0.4-0.8,1.1-1,2.3s-0.3,2.8-0.3,4.9c0,1,0,2.3,0.1,3.8c0.1,1.6,0.2,2.6,0.2,3.2
		c0.1,0.9,0.4,1.6,0.9,2c0.5,0.4,1.2,0.7,2.2,0.8c1.8,0.2,4.4,0.3,7.8,0.3c1,0,2.4,0,4.1-0.1c1.7-0.1,2.7-0.1,3.2-0.2
		c0.9-0.1,1.6-0.3,2-0.5c0.4-0.2,0.7-0.6,0.9-1.1C394.2,68.1,394.3,67,394.3,65.1z"/>
	<path class="st0" d="M404.8,49.3h27.3v2.8h-12v21.2h-3.2V52.1h-12.1V49.3z"/>
</g>
<g>
	<path class="st0" d="M168.6,52.2c0,0,0.6,9.2-7.7,15.9c0,0-2.8,2.7-7.9,4c0,0-2.6,0.9-12.8,0.9c-10.3,0,13-7,13-7L168.6,52.2z"/>
	<g>
		<path class="st0" d="M162.2,37.3c1.2-1.1,5.9-5.9,5.9-15.9c0-4.5-1.9-19.4-23.2-19.4l-46,0v8.1c0,0,0,0,0,0V73h43.7l0,0
			c0.8,0,2.8-0.1,4.8-0.3h0.7c11.4,0,20.6-9.2,20.6-20.5C168.6,46.3,166.2,41.1,162.2,37.3z"/>
		<path class="st0" d="M98.8,10c0,0,0,0.1,0,0.1v0L98.8,10z"/>
	</g>
	<g>
		<defs>
			<path id="SVGID_1_" d="M162.2,37.3c1.2-1.1,5.9-5.9,5.9-15.9c0-4.5-1.9-19.4-23.2-19.4l-46,0v8.1c0,0,0,0,0,0V73h43.7l0,0
				c0.8,0,5.5-0.3,5.5-0.3c11.4,0,20.6-9.2,20.6-20.5C168.6,46.3,166.2,41.1,162.2,37.3z"/>
		</defs>
		<clipPath id="SVGID_2_">
			<use xlink:href="#SVGID_1_"  style="overflow:visible;"/>
		</clipPath>
		<g class="st1">
			<polygon class="st2" points="109.7,56.7 161.6,107.5 161.7,107.4 110.9,55.4 162.9,106.2 162.9,106.2 112.2,54.1 164.1,105 
				164.2,104.9 113.5,52.9 165.4,103.7 165.5,103.6 114.8,51.6 166.7,102.4 166.8,102.3 116,50.3 167.9,101.2 168,101.1 117.3,49 
				169.2,99.9 169.3,99.8 118.6,47.8 170.5,98.6 170.6,98.5 119.8,46.5 171.8,97.3 171.8,97.3 121.1,45.2 173,96.1 173.1,96 
				122.4,44 174.3,94.8 174.4,94.7 123.7,42.7 175.6,93.5 175.7,93.4 124.9,41.4 176.8,92.3 176.9,92.2 125.5,40.8 134,32.3 
				99.7,32.5 99.9,66.5 109,57.3 160.4,108.7 160.4,108.7 			"/>
			<polygon class="st2" points="149.2,16.1 97.3,-34.7 97.2,-34.6 148,17.4 96.1,-33.4 96,-33.4 146.7,18.7 94.8,-32.2 94.7,-32.1 
				145.4,20 93.5,-30.9 93.4,-30.8 144.2,21.2 92.2,-29.6 92.2,-29.5 142.9,22.5 91,-28.3 90.9,-28.3 141.6,23.8 89.7,-27.1 
				89.6,-27 140.3,25 88.4,-25.8 88.3,-25.7 139.1,26.3 87.2,-24.5 87.1,-24.5 137.8,27.6 85.9,-23.3 85.8,-23.2 136.5,28.9 
				84.6,-22 84.5,-21.9 135.3,30.1 83.3,-20.7 83.3,-20.6 134,31.4 82.1,-19.4 82,-19.4 133.4,32 124.9,40.5 159.2,40.3 159,6.3 
				149.9,15.5 98.6,-35.9 98.5,-35.9 			"/>
		</g>
	</g>
</g>
</svg>
