<svg width="62" height="36" viewBox="0 0 62 36" fill="none" xmlns="http://www.w3.org/2000/svg">
<g clip-path="url(#clip0_9874_235931)">
<path d="M13.9845 3.0725H3.96773C3.48158 3.06426 2.99858 3.15204 2.54642 3.33082C2.09425 3.50959 1.68181 3.77584 1.33274 4.11431C0.983664 4.45277 0.704818 4.8568 0.512181 5.30324C0.319545 5.74967 0.216905 6.22974 0.210146 6.71591V6.71591V10.4735C0.205289 10.9519 0.295942 11.4266 0.476799 11.8695C0.657656 12.3125 0.925079 12.7149 1.26341 13.0533C1.60174 13.3916 2.00417 13.659 2.44715 13.8399C2.89012 14.0207 3.36473 14.1114 3.84317 14.1065H13.9638L11.252 11.3844V5.69088L13.9845 3.0725ZM23.7729 3.0725V0H26.5055V12.6377C26.4981 13.0282 26.3396 13.4006 26.0632 13.6765C25.7868 13.9524 25.4142 14.1103 25.0237 14.1169H16.3745C15.8961 14.1218 15.4215 14.0311 14.9785 13.8503C14.5355 13.6694 14.1331 13.402 13.7948 13.0636C13.4564 12.7253 13.189 12.3229 13.0081 11.8799C12.8273 11.4369 12.7366 10.9623 12.7415 10.4839V6.71591C12.751 5.75531 13.1368 4.83672 13.816 4.15744C14.4953 3.47815 15.4139 3.09235 16.3745 3.08288H20.9262L23.6587 5.80506L23.7729 3.0725ZM44.8445 6.60173V10.3593C44.8421 10.495 44.8667 10.6298 44.9171 10.7558C44.9674 10.8818 45.0424 10.9965 45.1376 11.0932C45.2328 11.1898 45.3464 11.2665 45.4716 11.3188C45.5968 11.371 45.7312 11.3977 45.8669 11.3973H46.661L49.3936 14.1273H45.8643C44.8712 14.1185 43.9212 13.72 43.2189 13.0177C42.5166 12.3154 42.1181 11.3655 42.1093 10.3723V0H44.8445V1.81651H46.892V4.55426H44.8445V6.60173ZM61.79 14.1143H59.06V5.69088H51.659C51.539 5.68949 51.4199 5.7121 51.3088 5.75738C51.1977 5.80266 51.0967 5.8697 51.0118 5.95456C50.927 6.03942 50.8599 6.14039 50.8147 6.25152C50.7694 6.36266 50.7468 6.48173 50.7482 6.60173V10.3593C50.7461 10.4951 50.7711 10.63 50.8217 10.756C50.8723 10.882 50.9475 10.9967 51.043 11.0933C51.1384 11.1899 51.2521 11.2666 51.3775 11.3188C51.5029 11.371 51.6374 11.3977 51.7732 11.3973H56.3274L59.06 14.1273H51.7732C50.78 14.1185 49.83 13.72 49.1277 13.0177C48.4254 12.3154 48.027 11.3655 48.0182 10.3723V6.60173C48.027 5.64092 48.4126 4.72195 49.092 4.04252C49.7714 3.36309 50.6904 2.9775 51.6512 2.9687H60.3108C60.701 2.97537 61.0734 3.13336 61.3493 3.40932C61.6253 3.68528 61.7833 4.05765 61.79 4.44786V14.1143ZM41.2893 14.1143H38.5697V5.69088H31.1713C31.0512 5.68913 30.932 5.7115 30.8207 5.75665C30.7094 5.80181 30.6083 5.86884 30.5234 5.95377C30.4384 6.0387 30.3714 6.13981 30.3262 6.25111C30.2811 6.3624 30.2587 6.48163 30.2605 6.60173V6.60173V10.3593C30.258 10.4963 30.2832 10.6324 30.3345 10.7594C30.3858 10.8865 30.4621 11.0019 30.559 11.0988C30.6559 11.1957 30.7713 11.272 30.8984 11.3233C31.0254 11.3746 31.1615 11.3998 31.2985 11.3973H35.8501L38.5827 14.1273H31.2855C30.2919 14.1192 29.3412 13.721 28.6384 13.0186C27.9355 12.3163 27.5367 11.3659 27.5279 10.3723V6.60173C27.5367 5.64092 27.9223 4.72195 28.6017 4.04252C29.2812 3.36309 30.2001 2.9775 31.1609 2.9687H39.8127C40.203 2.97537 40.5753 3.13336 40.8513 3.40932C41.1272 3.68528 41.2852 4.05765 41.2919 4.44786V4.44786L41.2893 14.1143ZM23.7729 5.69088H16.4887C15.9178 5.69088 15.4637 6.03342 15.4637 6.60173V10.4735C15.4795 10.7099 15.5805 10.9325 15.748 11.1C15.9155 11.2675 16.1382 11.3685 16.3745 11.3844H23.7729V5.69088ZM11.252 11.3844H3.84317C3.6068 11.3685 3.3842 11.2675 3.21668 11.1C3.04917 10.9325 2.94813 10.7099 2.93232 10.4735V6.71591C2.92986 6.57892 2.95503 6.44284 3.00632 6.31579C3.05761 6.18874 3.13398 6.07333 3.23086 5.97644C3.32775 5.87956 3.44316 5.80319 3.57021 5.7519C3.69726 5.70061 3.83334 5.67544 3.97033 5.6779H11.252L8.29104 8.53243L11.252 11.3844Z" fill="#00A0FF"/>
<path d="M25.8961 35.5716C25.7493 35.0742 25.6708 34.5592 25.6625 34.0406C25.2344 34.5958 24.6754 35.0362 24.0355 35.3225C23.3784 35.6231 22.6638 35.7772 21.9413 35.7741C21.0071 35.8167 20.0919 35.5011 19.3826 34.8917C19.0664 34.6144 18.8149 34.271 18.6459 33.8858C18.4769 33.5007 18.3944 33.0831 18.4043 32.6626C18.3915 32.1613 18.5073 31.665 18.7409 31.2212C18.9744 30.7773 19.3177 30.4007 19.7381 30.1273C20.6256 29.5062 21.8634 29.1957 23.4516 29.1957H25.6522V27.9475C25.6701 27.6053 25.6147 27.2633 25.4899 26.9442C25.365 26.6251 25.1735 26.3364 24.9282 26.0972C24.4429 25.6483 23.7396 25.4251 22.8132 25.4251C22.0607 25.3957 21.3208 25.6246 20.7164 26.0739C20.4633 26.248 20.2556 26.4802 20.1106 26.7511C19.9657 27.022 19.8878 27.3237 19.8834 27.6309H18.6664C18.6664 26.7659 19.0721 26.0107 19.8834 25.3654C20.7411 24.7119 21.7977 24.3737 22.8755 24.4079C24.0969 24.4079 25.0614 24.7141 25.7689 25.3265C26.4765 25.9389 26.8398 26.7918 26.8589 27.8852V33.0752C26.8589 34.1375 26.9704 34.9315 27.1936 35.4575V35.5794L25.8961 35.5716ZM22.084 34.6997C22.8498 34.7115 23.6035 34.5074 24.2586 34.1106C24.8743 33.744 25.3612 33.1955 25.6522 32.5407V30.1273H23.4827C22.2717 30.1394 21.3254 30.3608 20.6438 30.7916C20.3295 30.9668 20.0684 31.2239 19.8884 31.5355C19.7084 31.8471 19.6161 32.2016 19.6213 32.5614C19.6151 32.8508 19.6731 33.1379 19.7911 33.4022C19.9091 33.6665 20.0842 33.9013 20.3038 34.0899C20.799 34.5105 21.4349 34.7284 22.084 34.6997V34.6997Z" fill="white"/>
<path d="M34.5376 25.638C34.2671 25.5879 33.9925 25.5636 33.7175 25.5653C33.0223 25.5454 32.342 25.7694 31.7946 26.1985C31.2365 26.678 30.8449 27.3222 30.6762 28.0384V35.5639H29.4695V24.6025H30.6554L30.6762 26.3464C31.318 25.0489 32.3482 24.4001 33.7668 24.4001C34.0404 24.3889 34.3133 24.4339 34.5687 24.5325L34.5376 25.638Z" fill="white"/>
<path d="M39.3694 34.749C40.1399 34.7749 40.8937 34.5214 41.4921 34.0354C41.7689 33.8102 41.9949 33.5288 42.155 33.2099C42.3151 32.891 42.4058 32.5417 42.4211 32.1852H43.5863C43.5539 32.838 43.3361 33.4682 42.9583 34.0017C42.5664 34.5592 42.0373 35.0061 41.4221 35.2992C40.7829 35.6107 40.0804 35.7706 39.3694 35.7663C37.9283 35.7663 36.7874 35.2663 35.9466 34.2664C35.1058 33.2664 34.6854 31.9213 34.6854 30.2311V29.873C34.6681 28.8918 34.8619 27.9183 35.2537 27.0185C35.5921 26.2255 36.1573 25.5502 36.8782 25.0774C37.624 24.6119 38.4905 24.3763 39.3694 24.4001C40.4624 24.3597 41.5284 24.7449 42.3433 25.4744C42.7332 25.8362 43.0455 26.2735 43.261 26.7598C43.4765 27.2461 43.5907 27.7711 43.5967 28.303H42.4315C42.4212 27.9135 42.3334 27.5299 42.1733 27.1746C42.0132 26.8193 41.7839 26.4995 41.4989 26.2338C41.2138 25.9681 40.8787 25.7618 40.5131 25.627C40.1475 25.4921 39.7587 25.4315 39.3694 25.4485C38.8778 25.4225 38.3872 25.5169 37.9404 25.7236C37.4936 25.9302 37.104 26.2429 36.8055 26.6344C36.2 27.4233 35.8981 28.5314 35.8999 29.9586V30.3116C35.8999 31.7129 36.2017 32.8045 36.8055 33.5865C37.4093 34.3684 38.2639 34.756 39.3694 34.749Z" fill="white"/>
</g>
<defs>
<clipPath id="clip0_9874_235931">
<rect width="61.58" height="35.778" fill="white" transform="translate(0.209961)"/>
</clipPath>
</defs>
</svg>
