<svg id="Layer_1" data-name="Layer 1" xmlns="http://www.w3.org/2000/svg" viewBox="0 0 560 70"><defs><style>.cls-1{fill:#474747;}.cls-2{fill:#177cb8;}</style></defs><title>connect_logo</title><g id="logo"><path class="cls-1" d="M327.8,53.87a20.05,20.05,0,0,1-13.34,5c-8.81-.15-18-4.62-18-19.86s9.31-19.7,18-19.7A20.58,20.58,0,0,1,326.89,23a1.12,1.12,0,0,1,.25,1.62L326,26.55a1.53,1.53,0,0,1-2.14.38A16.47,16.47,0,0,0,315,24.09c-8.32,0-12.6,5.54-12.6,14.93s4.28,15,12.6,15a16.63,16.63,0,0,0,10-3.93c.74-.62,1.4-.62,2,.08l1.4,2.08C328.79,52.95,328.29,53.41,327.8,53.87Z"/><path class="cls-1" d="M331,39.1c0-14.32,8-19.78,19.6-19.78s19.68,5.93,19.68,19.78c0,12.78-8,19.78-19.68,19.78S331,51.87,331,39.1Zm33.27,0c0-10.54-5.11-15-13.67-15s-13.67,4.46-13.67,15,5.19,15,13.67,15S364.22,49.56,364.22,39.1Z"/><path class="cls-1" d="M409,34.25V57q0,1.15-1.24,1.15h-3.38q-1.24,0-1.24-1.15V37.4c0-8.08-.74-13.24-9.88-13.24-5.76,0-10,3.77-12.44,6.7V57q0,1.15-1.24,1.15h-3.38q-1.23,0-1.24-1.15V21.24q0-1.15,1.24-1.15h1.15c2.06,0,3.46,1.46,3.46,4.54v1.23A18.81,18.81,0,0,1,395,19.32C403.1,19.32,409,22.24,409,34.25Z"/><path class="cls-1" d="M449.54,34.25V57q0,1.15-1.23,1.15h-3.38q-1.24,0-1.24-1.15V37.4c0-8.08-.74-13.24-9.88-13.24-5.76,0-10,3.77-12.44,6.7V57q0,1.15-1.24,1.15h-3.38q-1.23,0-1.24-1.15V21.24q0-1.15,1.24-1.15h1.15c2.06,0,3.46,1.46,3.46,4.54v1.23a18.81,18.81,0,0,1,14.25-6.54C443.69,19.32,449.54,22.24,449.54,34.25Z"/><path class="cls-1" d="M491.16,36.86V37c0,2.46-1.15,4.23-4.78,4.23H460.11c.58,9.54,6.09,13,14.82,12.85a23,23,0,0,0,12.35-4.54c.66-.46,1.15,0,1.65.77l1.24,1.92c.33.62-.08,1-.74,1.46a27.09,27.09,0,0,1-15.89,5.16c-8.89,0-19.44-4.69-19.44-19.78,0-13.16,7.25-19.78,18.69-19.78C487.37,19.32,491.16,28.94,491.16,36.86Zm-5.93,0c-.41-7.93-3.38-12.78-12.6-12.78-7.66,0-11.94,3.77-12.52,12.78Z"/><path class="cls-1" d="M527,53.87a20.05,20.05,0,0,1-13.34,5c-8.81-.15-18-4.62-18-19.86s9.31-19.7,18-19.7A20.58,20.58,0,0,1,526.07,23a1.12,1.12,0,0,1,.25,1.62l-1.15,1.92a1.53,1.53,0,0,1-2.14.38,16.47,16.47,0,0,0-8.89-2.85c-8.32,0-12.6,5.54-12.6,14.93s4.28,15,12.6,15a16.63,16.63,0,0,0,10-3.93c.74-.62,1.4-.62,2,.08l1.4,2.08C528,52.95,527.47,53.41,527,53.87Z"/><path class="cls-1" d="M554.57,57.34a29.68,29.68,0,0,1-9.14,1.54c-7.49,0-9.39-4.08-9.39-11.54V24.63h-4.28q-1.24,0-1.24-1.16V21.32l5.52-.92V14.31c0-.77.08-1.62.91-2l3.71-1.69q1.23-.58,1.23.92v8.54h10.46q1.23,0,1.24,1.15v2.23q0,1.15-1.24,1.16H541.88v20.7c0,6.93.91,8.85,5.68,8.85A23.09,23.09,0,0,0,554.07,53c.74-.23,1.07.38,1.24,1.23l.41,1.92C555.88,56.8,555.14,57.11,554.57,57.34Z"/><path class="cls-2" d="M36.75,19.61H14.39a6.35,6.35,0,0,0-3.91,1.62L5.91,25.79A6.36,6.36,0,0,0,4.29,29.7V55.87a2.5,2.5,0,0,0,2.5,2.5H10.1a2.5,2.5,0,0,0,2.5-2.5V29.7a1.79,1.79,0,0,1,1.78-1.78H36.75a2.5,2.5,0,0,0,2.5-2.5V22.1A2.5,2.5,0,0,0,36.75,19.61Z"/><path class="cls-2" d="M79.66,19.61H53.49a6.35,6.35,0,0,0-3.91,1.62L45,25.79a6.36,6.36,0,0,0-1.62,3.91V33A6.37,6.37,0,0,0,45,36.93l4.57,4.59a6.34,6.34,0,0,0,3.91,1.62H72a1.79,1.79,0,0,1,1.78,1.78v3.32A1.79,1.79,0,0,1,72,50H45.89a2.5,2.5,0,0,0-2.5,2.5v3.34a2.5,2.5,0,0,0,2.5,2.5H72a6.36,6.36,0,0,0,3.91-1.62l4.6-4.6a6.36,6.36,0,0,0,1.62-3.91V44.93A6.36,6.36,0,0,0,80.54,41l-4.6-4.6A6.35,6.35,0,0,0,72,34.8H53.49A1.79,1.79,0,0,1,51.71,33V29.7a1.79,1.79,0,0,1,1.78-1.78H79.66a2.5,2.5,0,0,0,2.5-2.5V22.1A2.5,2.5,0,0,0,79.66,19.61Z"/><path class="cls-2" d="M121.1,19.61H94.94A6.35,6.35,0,0,0,91,21.22l-4.57,4.57a6.36,6.36,0,0,0-1.62,3.91V33a6.37,6.37,0,0,0,1.62,3.91L91,41.52a6.34,6.34,0,0,0,3.91,1.62h18.54a1.79,1.79,0,0,1,1.78,1.78v3.32A1.79,1.79,0,0,1,113.48,50H87.34a2.5,2.5,0,0,0-2.5,2.5v3.34a2.5,2.5,0,0,0,2.5,2.5h26.14a6.36,6.36,0,0,0,3.91-1.62l4.6-4.6a6.36,6.36,0,0,0,1.62-3.91V44.93A6.36,6.36,0,0,0,122,41l-4.6-4.6a6.35,6.35,0,0,0-3.91-1.62H94.94A1.79,1.79,0,0,1,93.15,33V29.7a1.79,1.79,0,0,1,1.78-1.78H121.1a2.5,2.5,0,0,0,2.5-2.5V22.1A2.5,2.5,0,0,0,121.1,19.61Z"/><path class="cls-2" d="M208.38,19.61H205a2.5,2.5,0,0,0-2.5,2.5V48.24A1.79,1.79,0,0,1,200.76,50H182.22a1.79,1.79,0,0,1-1.78-1.78V22.1a2.5,2.5,0,0,0-2.5-2.5h-3.32a2.5,2.5,0,0,0-2.5,2.5V48.24a6.37,6.37,0,0,0,1.62,3.91l4.57,4.59a6.34,6.34,0,0,0,3.91,1.62h18.54a6.36,6.36,0,0,0,3.91-1.62l4.6-4.6a6.36,6.36,0,0,0,1.62-3.91V22.1A2.5,2.5,0,0,0,208.38,19.61Z"/><path class="cls-2" d="M251.47,19.61H225.31a6.35,6.35,0,0,0-3.91,1.62l-4.57,4.57a6.36,6.36,0,0,0-1.62,3.91V33a6.37,6.37,0,0,0,1.62,3.91l4.57,4.59a6.34,6.34,0,0,0,3.91,1.62h18.54a1.79,1.79,0,0,1,1.78,1.78v3.32A1.79,1.79,0,0,1,243.85,50H217.71a2.5,2.5,0,0,0-2.5,2.5v3.34a2.5,2.5,0,0,0,2.5,2.5h26.14a6.36,6.36,0,0,0,3.91-1.62l4.6-4.6A6.36,6.36,0,0,0,254,48.24V44.93A6.36,6.36,0,0,0,252.35,41l-4.6-4.6a6.35,6.35,0,0,0-3.91-1.62H225.31A1.79,1.79,0,0,1,223.52,33V29.7a1.79,1.79,0,0,1,1.78-1.78h26.16a2.5,2.5,0,0,0,2.5-2.5V22.1A2.5,2.5,0,0,0,251.47,19.61Z"/><path class="cls-2" d="M138.52,19.8a2,2,0,0,1-1.95-1.94v-11a2,2,0,0,0-2-1.94h-4.35a1.94,1.94,0,0,0-1.94,1.94V26a2,2,0,0,0,1.95,1.94l25.9.09A2,2,0,0,1,158.13,30V47.65a2,2,0,0,1-1.95,1.94H138.52a1.94,1.94,0,0,1-1.95-1.94V31c0-1.07-.66-1.42-1.46-.78l-5.31,4.23a4.48,4.48,0,0,0-1.47,3.1V48.22a5.48,5.48,0,0,0,1.44,3.38l4.8,4.82a5.51,5.51,0,0,0,3.38,1.45h18.8A5.31,5.31,0,0,0,160,56.54l5.06-5.06a5.28,5.28,0,0,0,1.31-3.26V29.41A5.49,5.49,0,0,0,164.95,26l-4.82-4.8a5.58,5.58,0,0,0-3.39-1.43"/><rect class="cls-1" x="272.17" y="4" width="6.06" height="61.74" rx="2.02" ry="2.02"/></g></svg>