<svg xmlns="http://www.w3.org/2000/svg" viewBox="0 0 48 48"><title>copy</title><g id="Warstwa_1" data-name="Warstwa 1"><path d="M16.55,9.26l8.34.11a.87.87,0,0,1,.63.27l8.1,8.3a1.86,1.86,0,0,1,.53,1.34l-.17,16,5.06.11A1.44,1.44,0,0,0,40.51,34l.23-21.11L33.43,5.71s-15.55-.64-16.36.1S16.55,9.26,16.55,9.26Z" style="fill:#f0f0f0"/><path d="M40.94,12.82,33.69,5.57,18,5.5A1.46,1.46,0,0,0,16.52,7V34A1.45,1.45,0,0,0,18,35.45H30l9,.06a1.82,1.82,0,0,0,1.82-1.81C40.78,28.68,40.94,12.82,40.94,12.82Z" style="fill:none;stroke:#b2bfcf;stroke-linecap:round;stroke-linejoin:round;stroke-width:0.7260000000000001px"/><polyline points="33.84 5.57 33.75 12.83 41.01 12.92" style="fill:none;stroke:#b2bfcf;stroke-linecap:round;stroke-linejoin:round;stroke-width:0.7260000000000001px"/><polyline points="33.72 5.5 33.73 12.76 40.98 12.76" style="fill:none;stroke:#b2bfcf;stroke-linecap:round;stroke-linejoin:round;stroke-width:0.7260000000000001px"/><path d="M34,19.47V18.3a2.25,2.25,0,0,0-.68-1.6L26.49,10a2.26,2.26,0,0,0-1.59-.65L8.24,9.38A1.62,1.62,0,0,0,6.63,11l.23,28a3.88,3.88,0,0,0,3.92,3.85l11.14-.09,7.79,0A4.28,4.28,0,0,0,34,38.45c0-6.08-.07-16.64,0-18.27Z" style="fill:#fff"/><path d="M31.6,21.49V19.16l-7.27-7.24L8.61,11.87a1.44,1.44,0,0,0-1.45,1.46l0,27a1.45,1.45,0,0,0,1.45,1.45l12,0,9,.05A1.82,1.82,0,0,0,31.44,40C31.45,35,31.47,21.36,31.6,21.49Z" style="fill:#fff;stroke:#009ada;stroke-linecap:round;stroke-linejoin:round;stroke-width:0.7260000000000001px"/><polyline points="24.37 11.88 24.34 19.14 31.6 19.18" style="fill:none;stroke:#009ada;stroke-linecap:round;stroke-linejoin:round;stroke-width:0.7260000000000001px"/></g></svg>