<svg xmlns="http://www.w3.org/2000/svg" viewBox="0 0 48 48"><title>edifact</title><g id="Warstwa_1" data-name="Warstwa 1"><path d="M19,8.69l8.28,0h2.15c2.27,0,3.34.66,3.36,2.93L32,16.19l.93,19.64,8.83,0a1.49,1.49,0,0,0,1.49-1.49V11A2.3,2.3,0,0,0,42.5,9.3l-6-5.75a2.3,2.3,0,0,0-1.53-.64c-3.31-.08-14.79-.31-15.47.33S19,8.69,19,8.69Z" style="fill:#f0f0f0"/><polyline points="36.16 2.94 36.16 10.2 43.41 10.2" style="fill:none;stroke:#b2bfcf;stroke-linecap:round;stroke-linejoin:round;stroke-width:0.7260000000000001px"/><path d="M19,7.94V4.32a1.45,1.45,0,0,1,1.45-1.45l15.72.06,7.27,7.26,0,13.5V34.36A1.45,1.45,0,0,1,42,35.81h-8.2" style="fill:none;stroke:#b2bfcf;stroke-linecap:round;stroke-linejoin:round;stroke-width:0.7260000000000001px"/><path d="M20.19,42.9h-12a1.52,1.52,0,0,1-1.45-1.58V12a1.51,1.51,0,0,1,1.45-1.57l21.54.07a1.52,1.52,0,0,1,1.45,1.57V41.32a1.52,1.52,0,0,1-1.46,1.58Z" style="fill:#fff;stroke:#009ada;stroke-linecap:round;stroke-linejoin:round;stroke-width:0.7260000000000001px"/><path d="M6.76,34.23H31.2v7.53c0,.56-.61,1-1.36,1H8.12c-.75,0-1.36-.46-1.36-1Z" style="fill:#009ada"/><path d="M8.21,10.11l21.54.07a1.89,1.89,0,0,1,1.81,2V41.35a1.89,1.89,0,0,1-1.81,2H8.21a1.9,1.9,0,0,1-1.82-2V12.07a1.9,1.9,0,0,1,1.82-2m0-2.18h0a4.07,4.07,0,0,0-4,4.14V41.35a4.08,4.08,0,0,0,4,4.15H29.74a4.08,4.08,0,0,0,4-4.15V12.14a4.08,4.08,0,0,0-4-4.14L8.22,7.93Z" style="fill:#fff"/><path d="M8.28,36.88h2.57v.6H9v1h1.78v.59H9v1.09h2v.61H8.28Z" style="fill:#fff"/><path d="M11.62,36.88H13a1.91,1.91,0,0,1,2.14,1.94A2,2,0,0,1,13,40.75H11.62Zm1.26,3.27c.71,0,1.51-.29,1.51-1.33s-.8-1.35-1.51-1.35h-.57v2.68Z" style="fill:#fff"/><path d="M15.8,36.88h.69v3.87H15.8Z" style="fill:#fff"/><path d="M17.34,36.88h2.5v.6H18v1.06h1.71v.58H18v1.63h-.69Z" style="fill:#fff"/><path d="M21.39,36.88H22l1.67,3.87h-.79l-.36-.88H20.83l-.35.88h-.77Zm.88,2.39-.6-1.57-.6,1.57Z" style="fill:#fff"/><path d="M26.74,37.79a1.09,1.09,0,0,0-.88-.4,1.33,1.33,0,0,0-1.34,1.41,1.29,1.29,0,0,0,1.31,1.43,1.12,1.12,0,0,0,.94-.45l.56.39a1.83,1.83,0,0,1-1.5.68,2,2,0,1,1,0-4.07,1.84,1.84,0,0,1,1.41.59Z" style="fill:#fff"/><path d="M28.5,37.48H27.31v-.6h3.07v.6H29.19v3.27H28.5Z" style="fill:#fff"/><rect x="10.84" y="27.32" width="3.37" height="3.37" style="fill:#fff;stroke:#009ada;stroke-linecap:round;stroke-linejoin:round;stroke-width:1.4520000000000002px"/><rect x="17.27" y="27.26" width="3.37" height="3.37" style="fill:#e9edf2;stroke:#b2bfcf;stroke-miterlimit:10;stroke-width:0.7260000000000001px"/><rect x="23.69" y="27.26" width="3.37" height="3.37" style="fill:#fff;stroke:#009ada;stroke-linecap:round;stroke-linejoin:round;stroke-width:1.4520000000000002px"/><rect x="10.84" y="20.94" width="3.37" height="3.37" style="fill:#e9edf2;stroke:#b2bfcf;stroke-miterlimit:10;stroke-width:0.7260000000000001px"/><rect x="17.27" y="20.88" width="3.37" height="3.37" style="fill:#fff;stroke:#009ada;stroke-linecap:round;stroke-linejoin:round;stroke-width:1.4520000000000002px"/><rect x="23.69" y="20.88" width="3.37" height="3.37" style="fill:#fff;stroke:#009ada;stroke-linecap:round;stroke-linejoin:round;stroke-width:1.4520000000000002px"/><rect x="10.84" y="14.45" width="3.37" height="3.37" style="fill:#e9edf2;stroke:#b2bfcf;stroke-miterlimit:10;stroke-width:0.7260000000000001px"/><rect x="17.27" y="14.39" width="3.37" height="3.37" style="fill:#fff;stroke:#009ada;stroke-linecap:round;stroke-linejoin:round;stroke-width:1.4520000000000002px"/><rect x="23.69" y="14.39" width="3.37" height="3.37" style="fill:#e9edf2;stroke:#b2bfcf;stroke-miterlimit:10;stroke-width:0.7260000000000001px"/></g></svg>