<svg xmlns="http://www.w3.org/2000/svg" viewBox="0 0 48 48"><title>ftp</title><g id="Warstwa_1" data-name="Warstwa 1"><path d="M37.68,12.73,32.83,14,28,15.33a1.1,1.1,0,0,0-.49,1.85l1.41,1.41-17.2,17a1.1,1.1,0,0,0,0,1.57l2.34,2.35a1.12,1.12,0,0,0,1.57,0l17.2-17,1.77,1.77a1.11,1.11,0,0,0,1.85-.5l1.29-4.84L39,14.09A1.11,1.11,0,0,0,37.68,12.73Z" style="fill:#f0f0f0;stroke:#b2bfcf;stroke-miterlimit:10;stroke-width:0.7260000000000001px"/><path d="M4.84,31.36l4.84-1.3,4.84-1.29a1.12,1.12,0,0,0,.5-1.86L13.61,25.5,30.27,8.76a1.12,1.12,0,0,0,0-1.57L27.93,4.85a1.1,1.1,0,0,0-1.57,0L9.69,21.59,7.93,19.83a1.1,1.1,0,0,0-1.85.49l-1.3,4.84L3.48,30A1.11,1.11,0,0,0,4.84,31.36Z" style="fill:#fff;stroke:#009ada;stroke-linecap:round;stroke-miterlimit:10;stroke-width:0.7260000000000001px"/><path d="M25.67,35.53H31v1.29H27.15V39.1h3.67v1.24H27.15v3.5H25.67Z" style="fill:#009ada"/><path d="M34.08,36.82H31.53V35.53h6.58v1.29H35.56v7H34.08Z" style="fill:#009ada"/><path d="M39.07,35.53h2.71c1.91,0,3.14.67,3.14,2.4s-1.47,2.47-3.23,2.47H40.55v3.44H39.07Zm2.51,3.63c1,0,1.85-.24,1.85-1.23s-.88-1.16-1.8-1.16H40.55v2.39Z" style="fill:#009ada"/><path d="M36.94,21.89l.79-3L39,14.09a1.11,1.11,0,0,0-1.35-1.36L32.83,14,28,15.33a1.1,1.1,0,0,0-.49,1.85l1.41,1.41-17.2,17a1.1,1.1,0,0,0,0,1.57l2.34,2.35a1.12,1.12,0,0,0,1.57,0l3.77-3.72" style="fill:none;stroke:#b2bfcf;stroke-linecap:round;stroke-linejoin:round;stroke-width:0.7260000000000001px"/></g></svg>