<svg xmlns="http://www.w3.org/2000/svg" viewBox="0 0 48 48"><title>gisb</title><g id="Warstwa_1" data-name="Warstwa 1"><path d="M18.26,41.55a6.74,6.74,0,0,1-1.55.53,8.67,8.67,0,0,1-1.94.19,5.62,5.62,0,0,1-2-.36,4.56,4.56,0,0,1-2.64-2.55,5.1,5.1,0,0,1-.37-2,5,5,0,0,1,.39-2,4.54,4.54,0,0,1,1.05-1.52,4.75,4.75,0,0,1,1.59-1,5.85,5.85,0,0,1,2-.34,6.22,6.22,0,0,1,2,.32,4.26,4.26,0,0,1,1.49.85l-1.14,1.23a2.65,2.65,0,0,0-1-.67A3.47,3.47,0,0,0,14.74,34a3.15,3.15,0,0,0-1.32.27,2.86,2.86,0,0,0-1,.72,3.11,3.11,0,0,0-.64,1.07,3.61,3.61,0,0,0-.23,1.33,3.79,3.79,0,0,0,.23,1.37,3.28,3.28,0,0,0,.65,1.08,3,3,0,0,0,1,.71,3.57,3.57,0,0,0,1.38.25,5,5,0,0,0,1.85-.32V38.11h-2V36.75h3.54Z" style="fill:#009ada"/><path d="M20.26,32.78h1.65V42H20.26Z" style="fill:#009ada"/><path d="M28.67,34.71a2.07,2.07,0,0,0-.74-.56,2.12,2.12,0,0,0-1-.23,2.3,2.3,0,0,0-.58.07,1.85,1.85,0,0,0-.52.22,1.21,1.21,0,0,0-.39.39,1.09,1.09,0,0,0-.15.58,1.13,1.13,0,0,0,.13.54,1.3,1.3,0,0,0,.36.38,2.43,2.43,0,0,0,.56.27l.72.24c.29.1.6.2.92.33a3.57,3.57,0,0,1,.88.48,2.41,2.41,0,0,1,.65.76,2.29,2.29,0,0,1,.26,1.14,3,3,0,0,1-.28,1.3,2.76,2.76,0,0,1-.73.92,3.19,3.19,0,0,1-1.07.55,4.64,4.64,0,0,1-1.3.18,4.86,4.86,0,0,1-1.76-.33,3.38,3.38,0,0,1-1.42-1l1.18-1.1a2.4,2.4,0,0,0,.91.75,2.59,2.59,0,0,0,1.12.27,2.44,2.44,0,0,0,.59-.07,1.65,1.65,0,0,0,.54-.24,1.45,1.45,0,0,0,.39-.43,1.22,1.22,0,0,0,.15-.63,1.07,1.07,0,0,0-.17-.61,1.45,1.45,0,0,0-.46-.42,3.08,3.08,0,0,0-.68-.3L26,37.89c-.28-.09-.56-.19-.84-.31a2.7,2.7,0,0,1-.75-.49,2.29,2.29,0,0,1-.54-.74,2.49,2.49,0,0,1-.21-1.09A2.43,2.43,0,0,1,24,34.05a2.76,2.76,0,0,1,.78-.85,3.44,3.44,0,0,1,1.08-.49,4.75,4.75,0,0,1,1.24-.17,4.58,4.58,0,0,1,1.43.25,3.64,3.64,0,0,1,1.26.75Z" style="fill:#009ada"/><path d="M31.45,32.78h3.61a4.46,4.46,0,0,1,1,.12,2.7,2.7,0,0,1,.91.41,2.25,2.25,0,0,1,.65.72,2.16,2.16,0,0,1,.25,1.08,1.88,1.88,0,0,1-.45,1.29,2.44,2.44,0,0,1-1.16.73v0a2.44,2.44,0,0,1,1.44.68,2,2,0,0,1,.56,1.5,2.53,2.53,0,0,1-.3,1.28,2.42,2.42,0,0,1-.79.83,3.35,3.35,0,0,1-1.13.45,6.12,6.12,0,0,1-1.28.14H31.45Zm1.65,3.76h1.46a2.06,2.06,0,0,0,1.26-.32,1.1,1.1,0,0,0,.43-.93,1,1,0,0,0-.44-.89,2.9,2.9,0,0,0-1.39-.26H33.1Zm0,4.11h1.48a5.74,5.74,0,0,0,.68,0,2.08,2.08,0,0,0,.67-.19,1.15,1.15,0,0,0,.71-1.15,1.09,1.09,0,0,0-.49-1A3.17,3.17,0,0,0,34.64,38H33.1Z" style="fill:#009ada"/><path d="M24.71,28.87h0a7.49,7.49,0,0,1-7.25-9.36L24.65,2.65,32,19.6A7.5,7.5,0,0,1,24.71,28.87Z" style="fill:#f0f0f0;stroke:#b2bfcf;stroke-miterlimit:10;stroke-width:0.7260000000000001px"/><polygon points="24.87 26.06 25.1 19.8 21.41 19.76 24.59 10.51 24.98 16.73 28.64 16.73 24.87 26.06" style="fill:#009ada"/></g></svg>