<svg xmlns="http://www.w3.org/2000/svg" viewBox="0 0 48 48"><title>iatapadis</title><g id="Warstwa_1" data-name="Warstwa 1"><rect x="7" y="34.55" width="34" height="11" rx="1.16" ry="1.16" style="fill:#f0f0f0"/><path d="M8.61,30.85l1.75-8.8h2.86l-1.74,8.8ZM17.24,28h1.82l-.49-3.25Zm-4,2.86,4.34-8.8h2.82l1.75,8.8H19.51l-.17-1.05h-2.8l-.45,1.05Zm11.53,0,1-6.6H23.25L23.67,22h7.68l-.42,2.24H28.56l-1,6.6ZM34.36,28h1.81l-.45-3.25Zm-4,2.86,4.29-8.8H37.5l1.78,8.8H36.59l-.1-1.05H33.66l-.46,1.05ZM19.65,4.69a6.15,6.15,0,0,0,1.64,1,8.7,8.7,0,0,1,2-2.58A6.73,6.73,0,0,0,19.65,4.69ZM17.28,9.61h3a8.85,8.85,0,0,1,.8-3.46A7.66,7.66,0,0,1,19.27,5,6.75,6.75,0,0,0,17.28,9.61Zm6.49-2.83V9.61h-3a8.24,8.24,0,0,1,.77-3.28A6.71,6.71,0,0,0,23.77,6.78Zm4.58-2.09a6.15,6.15,0,0,1-1.64,1,9.24,9.24,0,0,0-2-2.58A6.73,6.73,0,0,1,28.35,4.69Zm2.37,4.92h-3A9.57,9.57,0,0,0,27,6.15,8.12,8.12,0,0,0,28.73,5,6.81,6.81,0,0,1,30.72,9.61ZM24.26,6.78V9.61h3a7.66,7.66,0,0,0-.77-3.28A6.69,6.69,0,0,1,24.26,6.78ZM19.65,15a6.31,6.31,0,0,1,1.64-1,8.7,8.7,0,0,0,2,2.58A6.77,6.77,0,0,1,19.65,15ZM17.28,10.1h3a9.15,9.15,0,0,0,.8,3.46,7.38,7.38,0,0,0-1.81,1.12A7,7,0,0,1,17.28,10.1Zm6.49,2.83V10.1h-3a7.84,7.84,0,0,0,.77,3.25A6.94,6.94,0,0,1,23.77,12.93ZM28.35,15a6.63,6.63,0,0,0-1.64-1,8.7,8.7,0,0,1-2,2.58A6.77,6.77,0,0,0,28.35,15Zm2.37-4.89h-3A9,9,0,0,1,27,13.56a7.81,7.81,0,0,1,1.78,1.12A7.05,7.05,0,0,0,30.72,10.1Zm-6.46,2.83V10.1h3a7.5,7.5,0,0,1-.77,3.25A6.71,6.71,0,0,0,24.26,12.93Zm-.49-9.5a7.9,7.9,0,0,0-2,2.48,6.63,6.63,0,0,0,2,.38Zm.49,0a8.25,8.25,0,0,1,2,2.48,5.8,5.8,0,0,1-2,.38Zm-.49,12.85a7.68,7.68,0,0,1-2-2.48,5.83,5.83,0,0,1,2-.38Zm.49,0a8.68,8.68,0,0,0,2-2.52,6.61,6.61,0,0,0-2-.38Z" style="fill:#009ada"/><path d="M10.77,36.81h2.15a4.24,4.24,0,0,1,.88.09,2,2,0,0,1,.75.31,1.55,1.55,0,0,1,.52.56,1.86,1.86,0,0,1,.2.89,1.94,1.94,0,0,1-.21,1,1.46,1.46,0,0,1-.56.57,2.22,2.22,0,0,1-.81.28,7.63,7.63,0,0,1-1,.07h-.81v2.64H10.77Zm1.82,2.77.51,0a1.53,1.53,0,0,0,.48-.11,1,1,0,0,0,.36-.27.82.82,0,0,0,.14-.5A.78.78,0,0,0,14,38.2a.94.94,0,0,0-.32-.27,1.5,1.5,0,0,0-.44-.12,3.86,3.86,0,0,0-.47,0h-.81v1.79Z" style="fill:#b2bfcf"/><path d="M18.12,36.81h1l2.74,6.38H20.55L20,41.73H17.19l-.57,1.46H15.35Zm1.44,3.95-1-2.6-1,2.6Z" style="fill:#b2bfcf"/><path d="M23,36.81h2.52a3.79,3.79,0,0,1,1.21.2,2.9,2.9,0,0,1,1,.59,2.82,2.82,0,0,1,.72,1A3.41,3.41,0,0,1,28.76,40a3.13,3.13,0,0,1-.31,1.42,3,3,0,0,1-.81,1,3.42,3.42,0,0,1-1.08.58,3.85,3.85,0,0,1-1.18.2H23Zm2,5.35A4.09,4.09,0,0,0,26,42a2.38,2.38,0,0,0,.82-.38,1.75,1.75,0,0,0,.56-.67,2.27,2.27,0,0,0,.2-1,2.5,2.5,0,0,0-.18-1,1.71,1.71,0,0,0-.5-.67,2.09,2.09,0,0,0-.76-.38,3.6,3.6,0,0,0-1-.12h-1v4.32Z" style="fill:#b2bfcf"/><path d="M30.26,36.81h1.13v6.38H30.26Z" style="fill:#b2bfcf"/><path d="M36.36,38.18a1.06,1.06,0,0,0-.48-.38,1.79,1.79,0,0,0-1-.08,1,1,0,0,0-.33.15.72.72,0,0,0-.24.25.76.76,0,0,0-.09.38.58.58,0,0,0,.23.49,1.91,1.91,0,0,0,.55.3l.73.24a2.86,2.86,0,0,1,.73.33,1.73,1.73,0,0,1,.56.55,1.6,1.6,0,0,1,.23.9,2.09,2.09,0,0,1-.19.9,1.87,1.87,0,0,1-.51.63,2.17,2.17,0,0,1-.74.38,3,3,0,0,1-.9.13,3.42,3.42,0,0,1-1.14-.2,2.13,2.13,0,0,1-.94-.67l.85-.82a1.45,1.45,0,0,0,.55.49,1.58,1.58,0,0,0,.71.17,1.83,1.83,0,0,0,.4,0,1.46,1.46,0,0,0,.36-.16,1,1,0,0,0,.26-.28.8.8,0,0,0,.1-.38.67.67,0,0,0-.23-.54,1.87,1.87,0,0,0-.56-.32c-.22-.09-.46-.17-.72-.25A2.84,2.84,0,0,1,33.8,40a1.61,1.61,0,0,1-.56-.54,1.58,1.58,0,0,1-.23-.9,1.69,1.69,0,0,1,.21-.86,1.8,1.8,0,0,1,.53-.6,2.59,2.59,0,0,1,.75-.35,3.13,3.13,0,0,1,.86-.12,3,3,0,0,1,1,.16,2.3,2.3,0,0,1,.85.5Z" style="fill:#b2bfcf"/><path d="M45.5,12.09H32.09c-.49,2.48-2.2,4.54-5.63,6a3.47,3.47,0,0,0,3.08,2.27h7.3a2.82,2.82,0,0,0,2.34-1.72H31.77c-.45-.07-.45-.41,0-.48H39a2.93,2.93,0,0,0,2.27-1.68H32.86c-.46-.07-.46-.42,0-.49h8.52c.87,0,1.64-1,1.95-1.68H34c-.45-.07-.45-.49,0-.52h9.54C44.28,13.77,45,13,45.5,12.09Z" style="fill:#b2bfcf"/><path d="M2.5,12.09H15.91c.49,2.48,2.2,4.54,5.63,6a3.47,3.47,0,0,1-3.08,2.27h-7.3a2.82,2.82,0,0,1-2.34-1.72h7.41c.45-.07.45-.41,0-.48H9a2.93,2.93,0,0,1-2.27-1.68h8.46c.45-.07.45-.42,0-.49H6.62C5.75,16,5,15,4.67,14.29H14c.45-.07.45-.49,0-.52H4.49C3.72,13.77,3,13,2.5,12.09Z" style="fill:#b2bfcf"/></g></svg>