<svg xmlns="http://www.w3.org/2000/svg" viewBox="0 0 48 48"><defs><style>.cls-1{fill:#fff;}.cls-2,.cls-3,.cls-4{fill:none;stroke-linecap:round;stroke-linejoin:round;}.cls-2,.cls-3{stroke:#0093dd;}.cls-2{stroke-width:0.41px;}.cls-3{stroke-width:0.42px;}.cls-4{stroke:#b2bfcf;}.cls-5{fill:#0093dd;}</style></defs><title>IBMMQ</title><g id="Warstwa_1" data-name="Warstwa 1"><path class="cls-1" d="M20,28.68h-6a.84.84,0,0,1-.87-.8V16.58a.84.84,0,0,1,.87-.8H33.92a.84.84,0,0,1,.87.8V27.9a.79.79,0,0,1-.8.78H14.08a.84.84,0,0,1-.87-.8V16.58a.84.84,0,0,1,.87-.8H33.92a.84.84,0,0,1,.87.8V27.93a.79.79,0,0,1-.81.78Z"/><path class="cls-2" d="M20,28.68h-6a.84.84,0,0,1-.87-.8V16.58a.84.84,0,0,1,.87-.8H33.92a.84.84,0,0,1,.87.8V27.9a.79.79,0,0,1-.8.78H14.08a.84.84,0,0,1-.87-.8V16.58a.84.84,0,0,1,.87-.8H33.92a.84.84,0,0,1,.87.8V27.93a.79.79,0,0,1-.81.78Z"/><polyline class="cls-3" points="13.44 16.04 24 23.04 34.56 16.04"/><polyline class="cls-4" points="41.82 8.2 37.6 8.2 37.6 31.8 10.67 31.8 10.67 8.2 6.18 8.2"/><path class="cls-5" d="M6.05,36.27H7.31v7.08H6.05Z"/><path class="cls-5" d="M8.87,36.27h2.76a3.55,3.55,0,0,1,.79.09,2.17,2.17,0,0,1,.69.31,1.68,1.68,0,0,1,.5.56,1.71,1.71,0,0,1,.19.82,1.49,1.49,0,0,1-.34,1,2,2,0,0,1-.89.56v0a1.86,1.86,0,0,1,1.1.52,1.59,1.59,0,0,1,.43,1.15,1.91,1.91,0,0,1-.23,1,1.87,1.87,0,0,1-.61.64,2.54,2.54,0,0,1-.86.34,4.6,4.6,0,0,1-1,.11H8.87Zm1.26,2.88h1.12a1.62,1.62,0,0,0,1-.25.85.85,0,0,0,.33-.71.73.73,0,0,0-.34-.68,2.1,2.1,0,0,0-1.06-.2h-1Zm0,3.14h1.13a3.28,3.28,0,0,0,.52,0,1.67,1.67,0,0,0,.51-.14,1,1,0,0,0,.39-.32.89.89,0,0,0,.16-.56.83.83,0,0,0-.38-.78,2.34,2.34,0,0,0-1.15-.22H10.13Z"/><path class="cls-5" d="M15.34,36.27h2l1.84,5h0l1.82-5h2v7.08H21.73V37.66h0l-2.15,5.69h-.88l-2.12-5.69h0v5.69h-1.2Z"/><path class="cls-5" d="M27,36.27h2l1.84,5h0l1.82-5h2v7.08H33.43V37.66h0l-2.15,5.69h-.88l-2.12-5.69h0v5.69H27Z"/><path class="cls-5" d="M43.87,43.35H39.6a4.5,4.5,0,0,1-1.55-.25,3.31,3.31,0,0,1-1.19-.71,3.13,3.13,0,0,1-.76-1.14,4.09,4.09,0,0,1-.27-1.53,3.75,3.75,0,0,1,.28-1.48,3.41,3.41,0,0,1,.8-1.14,3.69,3.69,0,0,1,1.2-.75,4.35,4.35,0,0,1,1.51-.26,4.3,4.3,0,0,1,1.5.26,3.55,3.55,0,0,1,1.19.75,3.38,3.38,0,0,1,.79,1.14,3.94,3.94,0,0,1,.28,1.48,3.48,3.48,0,0,1-.11.88,3.61,3.61,0,0,1-.29.72,2.75,2.75,0,0,1-.4.57,3,3,0,0,1-.46.42v0h1.75Zm-4.25-6.13a2.38,2.38,0,0,0-1,.19,2.14,2.14,0,0,0-.76.52,2.39,2.39,0,0,0-.51.79,2.7,2.7,0,0,0-.18,1,3,3,0,0,0,.17,1,2.39,2.39,0,0,0,.49.8,2.12,2.12,0,0,0,.76.51,2.55,2.55,0,0,0,1.93,0,2.25,2.25,0,0,0,.77-.51,2.41,2.41,0,0,0,.5-.8,2.82,2.82,0,0,0,.18-1,2.91,2.91,0,0,0-.17-1,2.35,2.35,0,0,0-.49-.79,2.2,2.2,0,0,0-.75-.52A2.41,2.41,0,0,0,39.62,37.22Z"/></g></svg>