<svg width="80" height="36" xmlns="http://www.w3.org/2000/svg" viewBox="0 0 2870.59 1169.78"><title>Artboard 5</title><style>.mypath{stroke:#009cfb;stroke-width:20px;}</style><g id="_Group_" data-name="&lt;Group&gt;"><path class="mypath" d="M2299.25,232.61a21.17,21.17,0,0,1-7.06-1.44C2040.33,130.4,1735.77,73.83,1434.7,71.93c-301.27,1.88-605.9,58.45-857.82,159.28a20.77,20.77,0,0,1-6.91,1.4,3.3,3.3,0,0,1-3.25-1.83c-.55-1.05,0-2.59,3.72-4.7l.39-.23C685.85,154.19,817,98.37,960.58,59.91,1109.05,20.16,1267.27,0,1430.84,0h7.5c163.56,0,321.77,20.16,470.24,59.91,143.62,38.46,274.74,94.28,389.71,165.9l.39.23c3.83,2.15,4.72,4.21,4.17,5.27C2302.44,232.09,2301.25,232.61,2299.25,232.61Z" style="fill:#009cfb"/><path class="mypath" d="M105.59,455.69c-21.45,43.55-33.2,62-66.48,105.24a1.45,1.45,0,0,1-2.31,0c-10-13.81-16.67-19.7-33.22-29.73a1.44,1.44,0,0,1-.31-2.2C53.72,474.57,80.52,423.54,99.4,347.3c4.17-18.06,6.36-28.21,6.57-38.59a1.43,1.43,0,0,1,1.65-1.39L154,314.83a1.43,1.43,0,0,1,1.12,1.91c-3.94,10.67-5.57,17-11.84,37.88-5.64,20.46-12,38.87-18.31,55.9a1.42,1.42,0,0,0,1.34,1.92h130.4c34.69,0,53.63-1.37,70.06-4.11a1.42,1.42,0,0,1,1.66,1.41V457a1.42,1.42,0,0,1-1.55,1.42c-22.24-2.11-45.85-3.51-70.17-3.51H211.3a1.43,1.43,0,0,0-1.43,1.4c-1.43,50.72-2.87,95.83-5,134a1.41,1.41,0,0,0,1.42,1.5H267c29.07,0,50.59-1.37,67.87-4.12a1.42,1.42,0,0,1,1.65,1.41V636.9a1.42,1.42,0,0,1-1.63,1.41c-18-2.75-40.2-4.13-67.89-4.13H202.43a1.42,1.42,0,0,0-1.42,1.29c-1.51,16.46-5,38.11-8.52,55.81a1.44,1.44,0,0,0,.36,1.25C263,767,298,808.62,333.56,860.66a1.44,1.44,0,0,1-.31,1.94l-37.18,28.92a1.44,1.44,0,0,1-2.11-.4c-35.46-59.22-63.89-98.49-107.44-145.67l-.06-.08c-2.05-2.55-3-3.67-4.17-5.13a1.43,1.43,0,0,0-2.48.47c-27.6,86.54-65.42,139.43-142.85,202a1.44,1.44,0,0,1-2.1-.32C24,926.31,16.08,918.34.72,906.86a1.44,1.44,0,0,1,0-2.32C99.44,834.21,141.57,761.45,156.3,635.78a1.44,1.44,0,0,0-1.43-1.6h-65c-35,0-53.95.69-75.92,4.13a1.43,1.43,0,0,1-1.65-1.41V589A1.43,1.43,0,0,1,14,587.61c21.23,3.43,39.57,4.12,77.37,4.12h68.21A1.44,1.44,0,0,0,161,590.4c2.82-35.44,3.55-51.47,4.27-134.06a1.44,1.44,0,0,0-1.43-1.46H106.88A1.44,1.44,0,0,0,105.59,455.69Zm299.75,491H357.91a1.41,1.41,0,0,1-1.41-1.61c2.77-20.47,4.16-50.45,4.16-81.81V457.08a638.58,638.58,0,0,0-4.18-75,1.44,1.44,0,0,1,1.63-1.58c19.51,2.72,33.51,3.4,64,3.4H568.5c29.8,0,44.46-.68,64-3.39a1.43,1.43,0,0,1,1.62,1.59c-2.73,21.27-3.42,41.56-3.42,75v401c0,33.54,1.4,65.69,4.18,86.95a1.42,1.42,0,0,1-1.42,1.6H585.3a1.43,1.43,0,0,1-1.43-1.42V896.13a1.43,1.43,0,0,0-1.43-1.42H408.2a1.43,1.43,0,0,0-1.43,1.42v49.11A1.43,1.43,0,0,1,405.34,946.66Zm2.86-94.4H582.44a1.43,1.43,0,0,0,1.43-1.43V427.77a1.43,1.43,0,0,0-1.43-1.43H408.2a1.43,1.43,0,0,0-1.43,1.43V850.83A1.43,1.43,0,0,0,408.2,852.26Z" style="fill:#009cfb"/><path class="mypath" d="M847.33,719.8c0-30.13.67-50.86,2-83.4a1.43,1.43,0,0,0-2.55-.95c-24.76,31.2-45.51,51.11-79.29,77.41a1.45,1.45,0,0,1-2.17-.51c-8.19-16.77-15.84-27.94-26.57-38.9a1.43,1.43,0,0,1,.21-2.18c56.44-38.59,102.87-84.42,146.42-143.21,16.39-22.09,27.23-42.1,34.54-61.38a1.41,1.41,0,0,1,2-.73l42.47,24a1.42,1.42,0,0,1,.41,2.13c-7.93,10-10.38,14-20.91,30.16-15.28,24.74-28.39,41.52-48.69,65.46a1.44,1.44,0,0,0-.34.93V883.73c0,38.46,1.39,67.22,4.83,87.62a1.42,1.42,0,0,1-1.4,1.66H843.9a1.42,1.42,0,0,1-1.4-1.66c3.45-20.44,4.83-49.87,4.83-87.62Zm99.46-382.22a1.43,1.43,0,0,1,.27,2.22c-4.15,4.28-5.9,6.81-11.91,14.82-43.64,59.65-96,110.62-161.27,157.94a1.45,1.45,0,0,1-2-.35c-10.15-14.74-17.92-23.26-30.54-33.4a1.43,1.43,0,0,1,.12-2.32c40-25.85,66.05-46.9,94.92-76.49,35.92-35.92,54.21-61.26,65.95-87.79a1.41,1.41,0,0,1,2-.64ZM1270.32,902c0,46.84-16.83,59.28-82.69,59.28-26,0-54.22-.71-87.37-3.56a1.44,1.44,0,0,1-1.31-1.28c-2.08-18.91-4.85-31.6-10.71-47.05a1.43,1.43,0,0,1,1.53-1.93c41.18,5.63,70.63,8.45,100.78,8.45,24.89,0,30.74-2.93,30.74-17.57V582.92a1.43,1.43,0,0,0-1.43-1.43H1054.44c-33.34,0-61.87,1.37-79.59,4.12a1.43,1.43,0,0,1-1.65-1.41V536.33a1.43,1.43,0,0,1,1.66-1.41c17.67,2.75,45.53,4.12,79.58,4.12h256.87c36.12,0,62-1.37,78.84-4.11a1.43,1.43,0,0,1,1.66,1.41v47.88a1.42,1.42,0,0,1-1.63,1.41c-18.94-2.76-45.43-4.14-78.14-4.14h-40.29a1.43,1.43,0,0,0-1.43,1.43ZM1003.21,352.61a1.42,1.42,0,0,1,1.62-1.41c19.42,2.77,42.45,4.15,74.49,4.15h204.91c32.06,0,53.72-1.38,73.75-4.16a1.42,1.42,0,0,1,1.62,1.41v48A1.42,1.42,0,0,1,1358,402c-21.53-2.79-45.21-4.18-73.77-4.18H1079.32c-28.56,0-53,1.39-74.51,4.18a1.42,1.42,0,0,1-1.6-1.41Z" style="fill:#009cfb;stock:10"/><path class="mypath" d="M2051.82,480.23a1.43,1.43,0,0,1-.08,1.91c-4.35,4.44-5.63,6.58-15.92,20.31-88.21,120.28-222.88,242.73-359.18,326.86a1.43,1.43,0,0,0-.21,2.28c49.53,45.08,112,58.72,262,58.72,77.24,0,136-3.55,197.23-12.78a1.43,1.43,0,0,1,1.53,2c-9.24,21.23-11.55,28.35-17,52.94a1.46,1.46,0,0,1-1.28,1.13c-43.62,3.59-91,5-161.42,5-125.87,0-181.49-5.85-235.65-24.88q-34-11-57.08-28.54c-7.32-5.12-7.32-5.12-32.93-30-6.59-6.59-14.63-11-20.49-11-7.32,0-20.49,11-41.71,34.39-15.37,18.3-21.23,25.62-35.86,46.84L1515,951.23a1.43,1.43,0,0,1-2.12.22l-37.3-33.85a1.43,1.43,0,0,1-.12-2c9.35-10.68,10.17-11.69,36.4-44.31,14.64-17.57,35.86-40.25,49-52,20.5-18.3,35.13-24.88,55.62-24.88a44.27,44.27,0,0,1,19.78,4.77,1.44,1.44,0,0,0,1.38-.07c144.34-90,257-190.14,340.14-302.46a1.44,1.44,0,0,0-1.16-2.29H1598.19c-29.27,0-51.58,1.39-73,4.18a1.43,1.43,0,0,1-1.61-1.41V446.28a1.43,1.43,0,0,1,1.64-1.41c24.89,3.49,45.81,4.89,73.74,4.89h190.9a1.44,1.44,0,0,0,1.28-2.08c-21.31-43.05-39.46-71.3-74.82-116.65a1.44,1.44,0,0,1,.4-2.12l37.07-22a1.44,1.44,0,0,1,1.83.32c33.66,40.18,55.41,71.34,82.68,117.89a1.45,1.45,0,0,1-.46,1.93l-31.32,20.05a1.43,1.43,0,0,0,.77,2.63h161.24c27.17,0,43.17-.7,54.81-2.78a1.43,1.43,0,0,1,1.34.49Z" style="fill:#009cfb"/><path class="mypath" d="M2348.31,892.51c0,37.06,1.39,63,4.17,83.28a1.42,1.42,0,0,1-1.42,1.61h-48.68a1.42,1.42,0,0,1-1.42-1.61c2.78-20.91,4.17-46.18,4.17-83.28v-202c0-21.15,1.28-56.93,3.23-109.12a1.43,1.43,0,0,0-2.8-.46c-26.22,89.31-49.9,139.33-89.94,193.54a1.44,1.44,0,0,1-2.36-.06c-10.1-15.27-17.3-23.18-30.73-34.68a1.44,1.44,0,0,1-.17-2c52.64-63.11,90.28-141.29,116.46-243a1.44,1.44,0,0,0-1.39-1.79h-42.06a461.31,461.31,0,0,0-50.37,2.73,1.43,1.43,0,0,1-1.59-1.42V451.43a1.43,1.43,0,0,1,1.65-1.41c12.87,2,28.56,2.67,50.31,2.67h48.34a1.43,1.43,0,0,0,1.42-1.43V383.89c0-40.29-.68-57.37-4-73.65a1.42,1.42,0,0,1,1.39-1.72h47.83a1.42,1.42,0,0,1,1.4,1.63c-2.73,19.19-3.42,38.14-3.42,73v68.1a1.43,1.43,0,0,0,1.43,1.43h41c20.46,0,30.72-.68,45.2-2.7a1.43,1.43,0,0,1,1.63,1.41v42.14A1.41,1.41,0,0,1,2436,495a446.79,446.79,0,0,0-45.27-2h-41a1.43,1.43,0,0,0-1.43,1.43v30.2a1.43,1.43,0,0,0,.39,1c45.38,48.28,68,74.53,92.54,106.91a1.43,1.43,0,0,1-.12,1.87l-29.3,30a1.43,1.43,0,0,1-2.25-.29c-21.37-36.4-37-58.56-58.72-85.28a1.43,1.43,0,0,0-2.54.9Zm242.59-404.9c10.58-28.4,17-54.16,23.45-89.39a1.44,1.44,0,0,0-1.56-1.69c-63.58,6.34-77.26,7.12-116.92,8.55a1.46,1.46,0,0,1-1.46-1.12c-3.37-14.68-5.64-21.44-14-37.78a1.43,1.43,0,0,1,1.25-2.08c136.27-2.35,257.26-21,306.08-47.62a1.42,1.42,0,0,1,1.89.51l23.16,37.47a1.43,1.43,0,0,1-.85,2.13c-91.3,25-92.21,25.17-150.82,33.74a1.46,1.46,0,0,0-1.2,1.15c-8.51,41.73-12.93,58-24.81,95.19a1.43,1.43,0,0,0,1.35,1.88h151.73a604.37,604.37,0,0,0,75.23-4.21,1.44,1.44,0,0,1,1.61,1.42v45.86a1.42,1.42,0,0,1-1.56,1.42c-22.3-2.11-47.34-3.51-73.09-3.51h-59.72a1.44,1.44,0,0,0-1.24,2.16,404.44,404.44,0,0,0,48.52,66.63c25.37,27.54,41.41,40,90.78,68.69a1.44,1.44,0,0,1,.41,2.13c-10,12.83-14.35,21.7-21.12,44.42a1.44,1.44,0,0,1-2.17.79c-36.11-23.72-55.64-40.26-82-67.87a1.43,1.43,0,0,0-2.46.73c-2.51,15.14-3.16,35.92-3.16,69.66V893.24c0,31.47.7,52.45,4.15,75.93a1.43,1.43,0,0,1-1.41,1.64h-53a1.42,1.42,0,0,1-1.41-1.67c3.44-19.6,4.82-46,4.82-75.17V716.87c0-31.31-1.38-52.25-4.15-71.55a1.43,1.43,0,0,1,1.41-1.63H2757a1.43,1.43,0,0,0,1.07-2.38c-.64-.72-1.36-1.63-2.81-3.43a.24.24,0,0,0-.06-.08c-26.92-29.11-45.89-57.51-72.74-107.51a1.43,1.43,0,0,0-1.26-.76h-60.42a1.44,1.44,0,0,0-1.31.86c-19.89,46-39.17,77-69.22,110.92a1.43,1.43,0,0,0,1.06,2.38h47.65a1.43,1.43,0,0,1,1.38,1.8c-3.25,12.43-3.91,23.86-3.91,55.28-1.46,82-13.17,134.66-39.52,177.83-24.69,39.95-55.87,67.64-107.84,95.95a1.44,1.44,0,0,1-1.92-.51,170,170,0,0,0-29.89-36.84,1.43,1.43,0,0,1,.43-2.35c40-16.75,70.79-39.13,92.38-65.76,28.55-36.59,41.72-87.09,41.72-163.19q0-39-3.84-58.8a1.43,1.43,0,0,0-2.44-.7c-27.77,29-44.69,43.71-84.4,73.71a1.44,1.44,0,0,1-2.21-.63c-7.43-19.32-12.54-28.09-24.49-41.54a1.45,1.45,0,0,1,.35-2.2c47.44-27.48,78.51-53.63,103.86-86.94,14.32-18.62,18.83-26,34.11-57.21a1.43,1.43,0,0,0-1.28-2.06h-56.25c-28.87,0-47.57.67-62,3.33a1.42,1.42,0,0,1-1.69-1.4V486.61a1.43,1.43,0,0,1,1.69-1.4c14.21,2.66,30.31,3.34,62,3.34h74.38A1.45,1.45,0,0,0,2590.9,487.61Z" style="fill:#009cfb"/></g></svg>