<svg id="Layer_1" data-name="Layer 1" xmlns="http://www.w3.org/2000/svg" viewBox="0 0 48 48"><defs><style>.cls-1{fill:#005a4b;}</style></defs><title>OFTP</title><path class="cls-1" d="M6.41,17.57c2.22-1.1,4.59-1,5.94,0a5.57,5.57,0,0,0-6.28-.72,5.57,5.57,0,0,0-3.21,5.44C2.82,20.6,4.2,18.67,6.41,17.57Z"/><path class="cls-1" d="M12.74,30.44c-2.21,1.1-4.59,1-5.94,0a5.66,5.66,0,0,0,6.28.72,5.71,5.71,0,0,0,3.22-5.44C16.33,27.41,15,29.34,12.74,30.44Z"/><path class="cls-1" d="M9.7,18.8a4.73,4.73,0,0,1,3.52,1.45,5,5,0,0,1,1.4,3.64,4.92,4.92,0,0,1-1.42,3.62,4.82,4.82,0,0,1-3.57,1.43A4.57,4.57,0,0,1,6.2,27.51a5,5,0,0,1-1.37-3.59,5.12,5.12,0,0,1,1.38-3.67A4.63,4.63,0,0,1,9.7,18.8Zm.05,2.25a2.43,2.43,0,0,0-1.88.81,3,3,0,0,0-.73,2.05,2.89,2.89,0,0,0,.74,2,2.37,2.37,0,0,0,1.84.8,2.39,2.39,0,0,0,1.85-.82,2.92,2.92,0,0,0,.74-2,2.88,2.88,0,0,0-.74-2A2.36,2.36,0,0,0,9.75,21.05Z"/><path class="cls-1" d="M15.86,28.27V18.83h6.27v1.89H18.49v1.82h3v2h-3v3.69Z"/><path class="cls-1" d="M24.36,28.27V20.72H21.64V18.83H31v1.89h-4.4v7.55Z"/><path class="cls-1" d="M30.47,28.23v-9.4h3.27A6.07,6.07,0,0,1,35.6,19a2.64,2.64,0,0,1,1.46,1,3.11,3.11,0,0,1,.58,2,3.41,3.41,0,0,1-.33,1.57,2.88,2.88,0,0,1-.86,1,3,3,0,0,1-1.06.48,5.63,5.63,0,0,1-1.55.14H32.51v3.12Zm2-7.7V23.4h1.12c.8,0,.77,0,1-.16a1.32,1.32,0,0,0,.64-.49,1.46,1.46,0,0,0-.09-1.7,1.42,1.42,0,0,0-.82-.45,3,3,0,0,0-.9-.07Z"/><path class="cls-1" d="M45.34,28.24H38a4.94,4.94,0,0,1,.77-2.16,10.75,10.75,0,0,1,2.41-2.39,7.23,7.23,0,0,0,1.38-1.28,1.48,1.48,0,0,0,.3-.83,1,1,0,0,0-.3-.73,1.1,1.1,0,0,0-1.52,0,2,2,0,0,0-.4,1.1l-2.46-.21A4.31,4.31,0,0,1,38.68,20a2.51,2.51,0,0,1,1.09-.94,4.86,4.86,0,0,1,1.94-.32,5.18,5.18,0,0,1,2,.31,2.53,2.53,0,0,1,1.14.95,2.67,2.67,0,0,1,.41,1.45,3,3,0,0,1-.48,1.62,6.26,6.26,0,0,1-1.72,1.7c-.49.36-.82.61-1,.76s-.36.33-.59.56h3.84Z"/></svg>