<svg width="48" height="48" viewBox="0 0 48 48" fill="none" xmlns="http://www.w3.org/2000/svg">
<g clip-path="url(#clip0_305_3642)">
<path d="M13.7494 0.0134863C13.3015 0.0858415 12.764 0.320133 12.385 0.609556C11.2377 1.48126 10.3487 3.33149 9.97319 5.63652C9.83192 6.50822 9.73545 7.7176 9.73545 8.64101C9.73545 9.72978 9.86293 11.1217 10.0455 12.083C10.0869 12.2967 10.1076 12.4862 10.0903 12.5C10.0766 12.5137 9.90772 12.6515 9.71822 12.8031C9.07047 13.3199 8.32969 14.1159 7.81976 14.8429C6.84124 16.2314 6.20727 17.8095 5.94196 19.5184C5.8386 20.1937 5.81104 21.5581 5.89373 22.2334C6.07634 23.7908 6.54492 25.107 7.34772 26.3129L7.60958 26.7023L7.53378 26.8298C6.99628 27.7325 6.53803 29.0383 6.32441 30.2924C6.15558 31.2848 6.13491 31.5501 6.13491 32.88C6.13491 34.2203 6.15214 34.4856 6.31063 35.4125C6.50013 36.5219 6.88603 37.6968 7.31671 38.479C7.45798 38.7339 7.80253 39.2645 7.84388 39.2921C7.85766 39.299 7.81631 39.4264 7.75085 39.5746C7.25469 40.6599 6.8309 42.1036 6.65518 43.3199C6.53114 44.1536 6.51392 44.4224 6.51392 45.301C6.51392 46.4208 6.57593 46.9652 6.81023 47.8576L6.84468 47.9885H8.31935H9.79747L9.70099 47.8059C9.10493 46.7033 9.0498 44.6567 9.56317 42.6135C9.79747 41.6695 10.0628 40.9769 10.5589 40.0225L10.8552 39.4437V39.0888C10.8552 38.758 10.8483 38.7201 10.7415 38.5031C10.6588 38.3377 10.5486 38.1964 10.3522 38.0035C10.018 37.6796 9.7768 37.3385 9.58385 36.9181C8.73626 35.0782 8.57087 32.346 9.16694 30.0168C9.41502 29.0452 9.82503 28.1804 10.2557 27.7084C10.5486 27.3844 10.7002 27.0227 10.7002 26.6471C10.7002 26.2578 10.5624 25.9374 10.2523 25.6032C9.36333 24.6522 8.8155 23.4945 8.61911 22.1473C8.34002 20.2282 8.84651 18.1367 9.9973 16.4795C11.124 14.8532 12.7054 13.8092 14.473 13.5302C14.8692 13.4647 15.61 13.475 16.0235 13.5508C16.4749 13.6301 16.7573 13.6059 17.0468 13.4681C17.4051 13.2993 17.5843 13.0891 17.7945 12.6067C17.9805 12.1761 18.1252 11.9418 18.5146 11.456C18.9832 10.8737 19.4345 10.4774 20.158 9.9985C20.985 9.45757 21.9256 9.06481 22.8628 8.87528C23.2038 8.80637 23.3623 8.79603 23.9998 8.79603C24.6372 8.79603 24.7957 8.80637 25.1368 8.87528C26.5115 9.1544 27.876 9.86417 28.9647 10.8702C29.199 11.0873 29.7606 11.7833 29.9398 12.0727C30.0087 12.1864 30.1293 12.4276 30.2051 12.6067C30.4153 13.0891 30.5944 13.2993 30.9528 13.4681C31.2319 13.6025 31.5247 13.6301 31.9588 13.5577C32.6445 13.4406 33.1717 13.4509 33.8435 13.5887C36.1314 14.0504 38.1229 15.9351 39.0049 18.4607C39.7732 20.6761 39.5562 22.9949 38.4123 24.7659C38.2193 25.0657 38.0263 25.3068 37.7473 25.6032C37.1443 26.2475 37.1443 27.0468 37.7439 27.7084C38.7293 28.7868 39.346 31.4398 39.1599 33.7793C39.0359 35.3229 38.6397 36.7045 38.0953 37.4867C37.9988 37.6245 37.799 37.8587 37.6474 38.0035C37.451 38.1964 37.3407 38.3377 37.258 38.5031C37.1512 38.7201 37.1443 38.758 37.1443 39.0888V39.4437L37.4406 40.0225C37.9368 40.9769 38.2021 41.6695 38.4364 42.6135C38.9429 44.6292 38.8981 46.6344 38.3192 47.7749C38.271 47.8713 38.2296 47.9609 38.2296 47.9713C38.2296 47.9816 38.8878 47.9885 39.694 47.9885H41.1549L41.1928 47.8403C41.2135 47.7611 41.2479 47.6405 41.2651 47.5716C41.3031 47.42 41.3788 46.9721 41.4409 46.5414C41.4994 46.1073 41.4994 44.5085 41.4409 44.0262C41.2204 42.2759 40.8517 40.8873 40.2487 39.5746C40.1833 39.4264 40.1419 39.299 40.1557 39.2921C40.1729 39.2818 40.2694 39.1439 40.3727 38.9889C41.1239 37.8519 41.5855 36.422 41.8199 34.5339C41.8819 34.0136 41.8819 31.7775 41.8199 31.2778C41.6545 29.9893 41.4546 29.1141 41.1239 28.2286C40.986 27.86 40.6208 27.0813 40.4658 26.8298L40.39 26.7023L40.6518 26.3129C41.4546 25.107 41.9232 23.7908 42.1058 22.2334C42.1885 21.5581 42.161 20.1937 42.0576 19.5184C41.7888 17.806 41.1583 16.2348 40.1798 14.8429C39.6699 14.1159 38.9291 13.3199 38.2814 12.8031C38.0918 12.6515 37.923 12.5137 37.9092 12.5C37.892 12.4862 37.9127 12.2967 37.954 12.083C38.3709 9.90891 38.3571 7.19736 37.9196 5.07836C37.5406 3.23158 36.8515 1.76379 35.9625 0.916205C35.2527 0.240888 34.5292 -0.0485336 33.6609 0.00659433C31.6694 0.123741 30.0639 2.41499 29.4299 6.02586C29.3265 6.60815 29.237 7.29038 29.237 7.47642C29.237 7.54876 29.2231 7.60733 29.2059 7.60733C29.1887 7.60733 29.0543 7.53842 28.9096 7.45231C27.3729 6.54267 25.6639 6.05688 23.9998 6.05688C22.3356 6.05688 20.6266 6.54267 19.09 7.45231C18.9452 7.53842 18.8109 7.60733 18.7936 7.60733C18.7764 7.60733 18.7626 7.54876 18.7626 7.47642C18.7626 7.28347 18.6696 6.58061 18.5697 6.02586C17.9943 2.78366 16.6747 0.637119 14.9209 0.0961762C14.6797 0.0238209 13.9941 -0.0244141 13.7494 0.0134863ZM14.3352 2.81812C14.8313 3.2109 15.3826 4.33413 15.6996 5.59174C15.7582 5.81913 15.8202 6.08099 15.8374 6.17744C15.8512 6.27052 15.8891 6.48068 15.9201 6.6426C16.0545 7.37306 16.1165 8.16208 16.1234 9.12337L16.1268 10.0709L15.8891 10.4223L15.6514 10.7772H15.0966C14.4489 10.7772 13.8046 10.8599 13.1878 11.0253C12.9673 11.0804 12.7537 11.1356 12.7124 11.1459C12.6469 11.1597 12.6365 11.139 12.5987 10.8564C12.3954 9.32319 12.4057 7.62458 12.6297 6.2119C12.8777 4.63733 13.4566 3.2109 14.0216 2.79055C14.156 2.69063 14.1801 2.69408 14.3352 2.81812ZM33.9814 2.79399C34.3225 3.04552 34.698 3.71394 34.9771 4.56842C35.5387 6.27738 35.6972 8.62376 35.4009 10.8564C35.363 11.139 35.3527 11.1597 35.2872 11.1459C35.2459 11.1356 35.0322 11.0804 34.8118 11.0253C34.195 10.8599 33.5507 10.7772 32.9029 10.7772H32.3482L32.1105 10.4223L31.8727 10.0709L31.8762 9.12337C31.8831 7.78651 32.0071 6.74254 32.3034 5.5814C32.617 4.33413 33.1717 3.2109 33.6644 2.81812C33.8194 2.69408 33.8435 2.69063 33.9814 2.79399Z" fill="black"/>
<path d="M23.4666 20.1351C22.7188 20.2074 22.5156 20.235 22.1572 20.3074C21.5749 20.4279 20.7963 20.6967 20.2553 20.962C18.3741 21.8819 17.0786 23.4152 16.6824 25.1896C16.6031 25.5411 16.5928 25.6582 16.5928 26.2508C16.5928 26.8366 16.6031 26.964 16.6789 27.2982C17.2061 29.6171 19.3423 31.3295 22.1056 31.643C22.7051 31.7085 25.2961 31.7085 25.8956 31.643C28.1145 31.3915 30.0233 30.189 30.8813 28.5007C31.1086 28.0494 31.2189 27.7565 31.3223 27.2982C31.3981 26.964 31.4084 26.8366 31.4084 26.2508C31.4084 25.6582 31.3981 25.5411 31.3188 25.1896C30.7434 22.6124 28.242 20.583 25.1755 20.1971C24.7758 20.1489 23.7284 20.1075 23.4666 20.1351ZM24.7551 22.0094C25.7785 22.1197 26.8087 22.4849 27.6356 23.0362C28.0801 23.3325 28.7072 23.9527 28.9759 24.3593C29.3066 24.8623 29.4961 25.3757 29.5823 25.9993C29.6202 26.2853 29.5995 26.5024 29.4961 26.964C29.3342 27.6531 28.8311 28.3732 28.1524 28.8763C27.8354 29.1071 27.1773 29.4414 26.7742 29.5723C26.0093 29.8169 25.5097 29.8617 23.7249 29.8479C22.5604 29.8376 22.3536 29.8272 22.0194 29.7652C20.879 29.5516 19.9763 29.0968 19.3216 28.4043C18.791 27.8461 18.5498 27.3362 18.4189 26.5127C18.3603 26.1302 18.4706 25.4963 18.6945 24.9622C18.9667 24.311 19.6696 23.5013 20.3656 23.0362C21.1718 22.4987 22.2331 22.1163 23.2081 22.0129C23.5837 21.9715 24.3796 21.9715 24.7551 22.0094Z" fill="black"/>
<path d="M22.6834 24.5248C22.4215 24.666 22.2389 25.0243 22.294 25.2896C22.356 25.5756 22.6075 25.8651 23.0003 26.1028C23.2105 26.2303 23.2243 26.2475 23.2346 26.375C23.2415 26.4508 23.214 26.6679 23.1761 26.8608C23.1347 27.0503 23.1037 27.2502 23.1037 27.3053C23.1072 27.4535 23.245 27.6946 23.3897 27.8118C23.5172 27.9151 23.5413 27.9186 23.8996 27.9289C24.227 27.9392 24.2959 27.9323 24.4268 27.8703C24.7645 27.7049 24.8506 27.4017 24.7265 26.8195C24.6232 26.3337 24.6438 26.2578 24.9023 26.1097C25.1744 25.9512 25.4639 25.6721 25.55 25.4826C25.7154 25.1208 25.5638 24.7108 25.1985 24.5213C25.109 24.4765 24.9987 24.4559 24.8368 24.4559C24.5853 24.4559 24.4233 24.5144 24.127 24.7039L23.9582 24.8108L23.8514 24.7453C23.4138 24.4868 23.3346 24.4559 23.0692 24.4593C22.8798 24.4593 22.7764 24.4765 22.6834 24.5248Z" fill="black"/>
<path d="M14.3184 20.5244C13.7085 20.7174 13.2537 21.1653 13.0195 21.8027C12.9058 22.1059 12.8506 22.5849 12.8988 22.8432C13.0125 23.46 13.519 24.0216 14.0945 24.1767C14.818 24.3661 15.3589 24.2421 15.8379 23.7667C16.1169 23.4944 16.2686 23.2567 16.4202 22.8708C16.5304 22.5986 16.5373 22.5504 16.5373 22.1645L16.5407 21.751L16.396 21.4547C16.1651 20.9861 15.7483 20.6381 15.2659 20.5106C14.9937 20.4417 14.5561 20.4452 14.3184 20.5244Z" fill="black"/>
<path d="M32.72 20.5142C32.248 20.6417 31.8276 20.9931 31.6037 21.4548L31.459 21.7511L31.4624 22.1646C31.4624 22.5505 31.4693 22.5987 31.5795 22.8709C31.7312 23.2568 31.8828 23.4945 32.1618 23.7667C32.6408 24.2422 33.1817 24.3662 33.9053 24.1768C34.3222 24.0665 34.7391 23.715 34.9389 23.305C35.1112 22.957 35.1525 22.7055 35.0974 22.3093C34.97 21.4031 34.4393 20.745 33.6503 20.5142C33.4195 20.4453 32.9715 20.4453 32.72 20.5142Z" fill="black"/>
</g>
<defs>
<clipPath id="clip0_305_3642">
<rect width="36.3091" height="48" fill="white" transform="translate(5.84521)"/>
</clipPath>
</defs>
</svg>
