<svg width="48" height="48" viewBox="0 0 48 48" fill="none" xmlns="http://www.w3.org/2000/svg">
<g clip-path="url(#clip0_305_3640)">
<path d="M44.5594 19.6454C45.6484 16.3769 45.2734 12.7964 43.5319 9.82342C40.9129 5.26342 35.6479 2.91742 30.5059 4.02142C28.2184 1.44442 24.9319 -0.0210825 21.4864 -8.25409e-05C16.2304 -0.0120825 11.5669 3.37192 9.94985 8.37292C6.57335 9.06442 3.65885 11.1779 1.95335 14.1734C-0.685145 18.7214 -0.0836456 24.4544 3.44135 28.3544C2.35235 31.6229 2.72735 35.2034 4.46885 38.1764C7.08785 42.7364 12.3529 45.0824 17.4949 43.9784C19.7809 46.5554 23.0689 48.0209 26.5144 47.9984C31.7734 48.0119 36.4384 44.6249 38.0554 39.6194C41.4319 38.9279 44.3464 36.8144 46.0519 33.8189C48.6874 29.2709 48.0844 23.5424 44.5609 19.6424L44.5594 19.6454ZM26.5174 44.8619C24.4129 44.8649 22.3744 44.1284 20.7589 42.7799C20.8324 42.7409 20.9599 42.6704 21.0424 42.6194L30.6004 37.0994C31.0894 36.8219 31.3894 36.3014 31.3864 35.7389V22.2644L35.4259 24.5969C35.4694 24.6179 35.4979 24.6599 35.5039 24.7079V35.8664C35.4979 40.8284 31.4794 44.8514 26.5174 44.8619ZM7.19135 36.6074C6.13685 34.7864 5.75735 32.6519 6.11885 30.5804C6.18935 30.6224 6.31385 30.6989 6.40235 30.7499L15.9604 36.2699C16.4449 36.5534 17.0449 36.5534 17.5309 36.2699L29.1994 29.5319V34.1969C29.2024 34.2449 29.1799 34.2914 29.1424 34.3214L19.4809 39.8999C15.1774 42.3779 9.68135 40.9049 7.19285 36.6074H7.19135ZM4.67585 15.7439C5.72585 13.9199 7.38335 12.5249 9.35736 11.8004C9.35736 11.8829 9.35285 12.0284 9.35285 12.1304V23.1719C9.34985 23.7329 9.64985 24.2534 10.1374 24.5309L21.8059 31.2674L17.7664 33.5999C17.7259 33.6269 17.6749 33.6314 17.6299 33.6119L7.96685 28.0289C3.67235 25.5419 2.19935 20.0474 4.67435 15.7454L4.67585 15.7439ZM37.8649 23.4674L26.1964 16.7294L30.2359 14.3984C30.2764 14.3714 30.3274 14.3669 30.3724 14.3864L40.0354 19.9649C44.3374 22.4504 45.8119 27.9539 43.3264 32.2559C42.2749 34.0769 40.6189 35.4719 38.6464 36.1979V24.8264C38.6509 24.2654 38.3524 23.7464 37.8664 23.4674H37.8649ZM41.8849 17.4164C41.8144 17.3729 41.6899 17.2979 41.6014 17.2469L32.0434 11.7269C31.5589 11.4434 30.9589 11.4434 30.4729 11.7269L18.8044 18.4649V13.7999C18.8014 13.7519 18.8239 13.7054 18.8614 13.6754L28.5229 8.10142C32.8264 5.61892 38.3284 7.09642 40.8094 11.4014C41.8579 13.2194 42.2374 15.3479 41.8819 17.4164H41.8849ZM16.6084 25.7309L12.5674 23.3984C12.5239 23.3774 12.4954 23.3354 12.4894 23.2874V12.1289C12.4924 7.16092 16.5229 3.13492 21.4909 3.13792C23.5924 3.13792 25.6264 3.87592 27.2419 5.21992C27.1684 5.25892 27.0424 5.32942 26.9584 5.38042L17.4004 10.9004C16.9114 11.1779 16.6114 11.6969 16.6144 12.2594L16.6084 25.7279V25.7309ZM18.8029 20.9999L24.0004 17.9984L29.1979 20.9984V26.9999L24.0004 29.9999L18.8029 26.9999V20.9999Z" fill="black"/>
</g>
<defs>
<clipPath id="clip0_305_3640">
<rect width="48" height="48" fill="white"/>
</clipPath>
</defs>
</svg>
