<svg xmlns="http://www.w3.org/2000/svg" viewBox="0 0 48 48"><title>pgp</title><g id="Warstwa_1" data-name="Warstwa 1"><path d="M16.86,30.3H6.39a1.5,1.5,0,0,1-1.53-1.45V8.55A1.5,1.5,0,0,1,6.39,7.1H41.3a1.49,1.49,0,0,1,1.53,1.45V25.26" style="fill:#f0f0f0"/><rect x="29.3" y="30.69" width="2.76" height="8.71" transform="translate(65.72 4.36) rotate(90)" style="fill:#009ada"/><path d="M10.25,30.3H6.39a1.5,1.5,0,0,1-1.53-1.45V8.55A1.5,1.5,0,0,1,6.39,7.1H41.3a1.49,1.49,0,0,1,1.53,1.45V23.76" style="fill:none;stroke:#b2bfcf;stroke-linecap:round;stroke-linejoin:round;stroke-width:0.7450269527435304px"/><polyline points="5.26 7.57 23.85 20.15 42.43 7.57" style="fill:none;stroke:#b2bfcf;stroke-linecap:round;stroke-linejoin:round;stroke-width:0.7450269527435304px"/><line x1="5.22" y1="29.83" x2="19.36" y2="19.48" style="fill:none;stroke:#b2bfcf;stroke-linecap:round;stroke-linejoin:round;stroke-width:0.7260000000000001px"/><line x1="26.85" y1="19.48" x2="34.04" y2="23.17" style="fill:none;stroke:#b2bfcf;stroke-linecap:round;stroke-linejoin:round;stroke-width:0.7260000000000001px"/><ellipse cx="23.97" cy="18.49" rx="6.88" ry="6.53" style="fill:#fff;stroke:#009ada;stroke-linecap:round;stroke-linejoin:round;stroke-width:0.7450269527435304px"/><polyline points="19.52 18.65 22.29 21.23 26.32 17.23" style="fill:none;stroke:#009ada;stroke-linecap:round;stroke-linejoin:round;stroke-width:1.4520000000000002px"/><path d="M36.23,25.22a8.79,8.79,0,0,0-7.92,5H12.38l-2.7,3.5,3,4.37H15l2.35-2.35,2.34,2.34,2.35-2.34,2.35,2.35h4a8.8,8.8,0,1,0,7.8-12.86Z" style="fill:#009ada"/><polygon points="19.77 38.08 19.77 38.08 19.77 38.08 19.77 38.08 19.77 38.08 19.77 38.08" style="fill:#fff"/><polygon points="19.77 38.08 19.77 38.08 19.77 38.08 19.77 38.08" style="fill:#fff"/><circle cx="36.16" cy="33.92" r="9.17" style="fill:#009ada"/><path d="M36.16,24.75A9.18,9.18,0,1,1,28,38.08H24.4l-2.35-2.35L19.7,38.07l-2.34-2.34L15,38.08H12.67l-3-4.38,2.7-3.49H27.77a9.17,9.17,0,0,1,8.39-5.46m0-2.18A11.37,11.37,0,0,0,26.45,28H11.31l-.66.84L8,32.37,7,33.63l.89,1.3,3,4.37.65,1h4.39l.64-.63.81-.81.8.8,1.54,1.54,1.54-1.54.81-.8.81.81.64.63h3.23a11.35,11.35,0,1,0,9.43-17.68Z" style="fill:#fff"/><path d="M28.87,31.39h1.85c1.29,0,2.13.46,2.13,1.64s-1,1.68-2.2,1.68h-.77v2.34h-1Zm1.71,2.47c.66,0,1.26-.16,1.26-.83s-.6-.79-1.23-.79h-.73v1.62Z" style="fill:#fff"/><path d="M38.7,36.75a4.86,4.86,0,0,1-2.14.44,3,3,0,1,1,0-5.94,3.28,3.28,0,0,1,2.15.71l-.7.75a2,2,0,0,0-1.44-.58,2.08,2.08,0,0,0,.05,4.16,3,3,0,0,0,1.12-.2V34.65H36.53v-.83H38.7Z" style="fill:#fff"/><path d="M39.92,31.39h1.84c1.3,0,2.13.46,2.13,1.64s-1,1.68-2.19,1.68h-.78v2.34h-1Zm1.71,2.47c.65,0,1.25-.16,1.25-.83s-.6-.79-1.22-.79h-.74v1.62Z" style="fill:#fff"/></g></svg>