<svg xmlns="http://www.w3.org/2000/svg" viewBox="0 0 48 48"><title>psv</title><g id="Warstwa_1" data-name="Warstwa 1"><rect x="38.89" y="7.31" width="4.6" height="2.36" style="fill:#e9edf2;stroke:#b2bfcf;stroke-linejoin:round;stroke-width:0.36300000000000004px"/><rect x="38.89" y="12.15" width="4.6" height="2.36" style="fill:#e9edf2;stroke:#b2bfcf;stroke-linejoin:round;stroke-width:0.36300000000000004px"/><rect x="38.89" y="17" width="4.6" height="2.36" style="fill:#e9edf2;stroke:#b2bfcf;stroke-linejoin:round;stroke-width:0.36300000000000004px"/><rect x="38.89" y="21.84" width="4.6" height="2.36" style="fill:#e9edf2;stroke:#b2bfcf;stroke-linejoin:round;stroke-width:0.36300000000000004px"/><rect x="33.16" y="7.31" width="4.6" height="2.36" style="fill:#e9edf2;stroke:#b2bfcf;stroke-linejoin:round;stroke-width:0.36300000000000004px"/><rect x="33.16" y="12.15" width="4.6" height="2.36" style="fill:#e9edf2;stroke:#b2bfcf;stroke-linejoin:round;stroke-width:0.36300000000000004px"/><rect x="33.16" y="17" width="4.6" height="2.36" style="fill:#e9edf2;stroke:#b2bfcf;stroke-linejoin:round;stroke-width:0.36300000000000004px"/><rect x="33.16" y="21.84" width="4.6" height="2.36" style="fill:#e9edf2;stroke:#b2bfcf;stroke-linejoin:round;stroke-width:0.36300000000000004px"/><rect x="27.43" y="7.31" width="4.6" height="2.36" style="fill:#e9edf2;stroke:#b2bfcf;stroke-linejoin:round;stroke-width:0.36300000000000004px"/><rect x="27.43" y="12.15" width="4.6" height="2.36" style="fill:#e9edf2;stroke:#b2bfcf;stroke-linejoin:round;stroke-width:0.36300000000000004px"/><rect x="27.43" y="17" width="4.6" height="2.36" style="fill:#e9edf2;stroke:#b2bfcf;stroke-linejoin:round;stroke-width:0.36300000000000004px"/><rect x="27.43" y="21.84" width="4.6" height="2.36" style="fill:#e9edf2;stroke:#b2bfcf;stroke-linejoin:round;stroke-width:0.36300000000000004px"/><rect x="21.7" y="7.31" width="4.6" height="2.36" style="fill:#e9edf2;stroke:#b2bfcf;stroke-linejoin:round;stroke-width:0.36300000000000004px"/><rect x="21.7" y="12.15" width="4.6" height="2.36" style="fill:#e9edf2;stroke:#b2bfcf;stroke-linejoin:round;stroke-width:0.36300000000000004px"/><rect x="21.7" y="17" width="4.6" height="2.36" style="fill:#e9edf2;stroke:#b2bfcf;stroke-linejoin:round;stroke-width:0.36300000000000004px"/><rect x="21.7" y="21.84" width="4.6" height="2.36" style="fill:#e9edf2;stroke:#b2bfcf;stroke-linejoin:round;stroke-width:0.36300000000000004px"/><rect x="15.97" y="7.31" width="4.6" height="2.36" style="fill:#e9edf2;stroke:#b2bfcf;stroke-linejoin:round;stroke-width:0.36300000000000004px"/><rect x="15.97" y="12.15" width="4.6" height="2.36" style="fill:#e9edf2;stroke:#b2bfcf;stroke-linejoin:round;stroke-width:0.36300000000000004px"/><rect x="15.97" y="17" width="4.6" height="2.36" style="fill:#e9edf2;stroke:#b2bfcf;stroke-linejoin:round;stroke-width:0.36300000000000004px"/><rect x="15.97" y="21.84" width="4.6" height="2.36" style="fill:#e9edf2;stroke:#b2bfcf;stroke-linejoin:round;stroke-width:0.36300000000000004px"/><rect x="10.24" y="7.31" width="4.6" height="2.36" style="fill:#e9edf2;stroke:#b2bfcf;stroke-linejoin:round;stroke-width:0.36300000000000004px"/><rect x="10.24" y="12.15" width="4.6" height="2.36" style="fill:#e9edf2;stroke:#b2bfcf;stroke-linejoin:round;stroke-width:0.36300000000000004px"/><rect x="10.24" y="17" width="4.6" height="2.36" style="fill:#e9edf2;stroke:#b2bfcf;stroke-linejoin:round;stroke-width:0.36300000000000004px"/><rect x="10.24" y="21.84" width="4.6" height="2.36" style="fill:#e9edf2;stroke:#b2bfcf;stroke-linejoin:round;stroke-width:0.36300000000000004px"/><rect x="4.51" y="7.31" width="4.6" height="2.36" style="fill:#e9edf2;stroke:#b2bfcf;stroke-linejoin:round;stroke-width:0.36300000000000004px"/><rect x="4.51" y="12.15" width="4.6" height="2.36" style="fill:#e9edf2;stroke:#b2bfcf;stroke-linejoin:round;stroke-width:0.36300000000000004px"/><rect x="4.51" y="17" width="4.6" height="2.36" style="fill:#e9edf2;stroke:#b2bfcf;stroke-linejoin:round;stroke-width:0.36300000000000004px"/><rect x="4.51" y="21.84" width="4.6" height="2.36" style="fill:#e9edf2;stroke:#b2bfcf;stroke-linejoin:round;stroke-width:0.36300000000000004px"/><rect x="4.51" y="26.69" width="4.6" height="2.36" style="fill:#e9edf2;stroke:#b2bfcf;stroke-linejoin:round;stroke-width:0.36300000000000004px"/><rect x="4.51" y="31.54" width="4.6" height="2.36" style="fill:#e9edf2;stroke:#b2bfcf;stroke-linejoin:round;stroke-width:0.36300000000000004px"/><path d="M10.75,39.47a1.21,1.21,0,0,1,.38-.89,1.26,1.26,0,0,1,.91-.36,1.24,1.24,0,0,1,.89.35,1.11,1.11,0,0,1,.39.86,1.17,1.17,0,0,1-.38.88,1.22,1.22,0,0,1-.9.37,1.33,1.33,0,0,1-.49-.09,1.43,1.43,0,0,1-.41-.26,1.17,1.17,0,0,1-.28-.38A1.13,1.13,0,0,1,10.75,39.47Z" style="fill:#009ada"/><path d="M15.37,29.25h3.7a8.54,8.54,0,0,1,1.76.17,3.63,3.63,0,0,1,1.34.58A2.63,2.63,0,0,1,23,31a3.4,3.4,0,0,1,.3,1.5A3.22,3.22,0,0,1,23,34.12a2.85,2.85,0,0,1-.95,1,4.29,4.29,0,0,1-1.4.57,7.78,7.78,0,0,1-1.7.17H17.39v4.7h-2Zm3.42,5a5.7,5.7,0,0,0,.95-.08,2.42,2.42,0,0,0,.8-.25,1.38,1.38,0,0,0,.56-.51,1.48,1.48,0,0,0,.21-.83,1.35,1.35,0,0,0-.76-1.3,2.61,2.61,0,0,0-.79-.23,6.6,6.6,0,0,0-.9-.05H17.39V34.2Z" style="fill:#009ada"/><path d="M30.92,31.62a2.54,2.54,0,0,0-.91-.7,2.64,2.64,0,0,0-1.17-.28,2.88,2.88,0,0,0-.71.09,2.28,2.28,0,0,0-.64.27,1.44,1.44,0,0,0-.47.48,1.37,1.37,0,0,0-.19.71,1.34,1.34,0,0,0,.16.66,1.54,1.54,0,0,0,.45.47,2.87,2.87,0,0,0,.68.33c.26.1.56.19.88.29s.74.25,1.13.4a4.64,4.64,0,0,1,1.07.59,3.13,3.13,0,0,1,.8.93,2.84,2.84,0,0,1,.31,1.4A3.61,3.61,0,0,1,32,38.85a3.46,3.46,0,0,1-.9,1.13,3.87,3.87,0,0,1-1.31.67,5.55,5.55,0,0,1-1.59.22,6,6,0,0,1-2.16-.4,4.26,4.26,0,0,1-1.73-1.21l1.44-1.35a3,3,0,0,0,1.11.92,3.2,3.2,0,0,0,1.37.33,3,3,0,0,0,.72-.09,1.92,1.92,0,0,0,.67-.29,2,2,0,0,0,.48-.52,1.55,1.55,0,0,0,.18-.78,1.22,1.22,0,0,0-.21-.74,1.88,1.88,0,0,0-.56-.52,3.76,3.76,0,0,0-.83-.37l-1-.34a10.54,10.54,0,0,1-1-.38,3.37,3.37,0,0,1-.93-.6,2.77,2.77,0,0,1-.66-.9,3.11,3.11,0,0,1-.26-1.34,2.94,2.94,0,0,1,.36-1.49,3.13,3.13,0,0,1,.95-1,4.15,4.15,0,0,1,1.33-.61,6,6,0,0,1,1.51-.2,5.52,5.52,0,0,1,1.76.3,4.36,4.36,0,0,1,1.54.92Z" style="fill:#009ada"/><path d="M32.76,29.25H35L38.14,38h.06l3.16-8.73h2.18L39,40.59H37.24Z" style="fill:#009ada"/></g></svg>