<svg id="218b7433-aa40-48ba-a6f2-ecc80b9a721a"   xmlns="http://www.w3.org/2000/svg" viewBox="0 0 48 48">
  <defs>
    <style>
      .\36 30b88dc-b1d9-4618-9aca-7f72359567fb {
        fill: #8c3123;
      }

      .\34 458a178-13df-47dc-8e07-694598ee9f87 {
        fill: #e05243;
      }

      .\30 76dc63a-565c-4b19-ba8d-14ebcf2ae973 {
        fill: #5e1f18;
      }

      .\33 fdb4f9a-7d3d-4f10-8f97-c908e12ed1ca {
        fill: #f2b0a9;
      }
    </style>
  </defs>
  <title>amazon s3</title>
  <g>
    <polygon class="630b88dc-b1d9-4618-9aca-7f72359567fb" points="9.38 9.98 6.52 11.41 6.52 36.58 9.38 38.01 16.41 23.99 9.38 9.98"/>
    <polygon class="4458a178-13df-47dc-8e07-694598ee9f87" points="24.31 34.39 9.38 38 9.38 9.98 24.31 13.59 31.36 24.04 24.31 34.39"/>
    <polygon class="630b88dc-b1d9-4618-9aca-7f72359567fb" points="24.31 34.39 39.24 38 41.81 24.35 39.24 9.98 24.31 13.59 24.31 34.39"/>
    <polygon class="4458a178-13df-47dc-8e07-694598ee9f87" points="39.24 9.98 42.1 11.41 42.1 36.58 39.24 38.01 39.24 9.98"/>
    <polygon class="630b88dc-b1d9-4618-9aca-7f72359567fb" points="17.8 28.63 24.31 29.46 29.47 24.04 24.31 18.61 17.8 19.43 17.8 28.63"/>
    <polygon class="076dc63a-565c-4b19-ba8d-14ebcf2ae973" points="30.82 14.98 24.31 16.16 17.8 14.98 24.31 2.52 30.82 14.98"/>
    <polygon class="3fdb4f9a-7d3d-4f10-8f97-c908e12ed1ca" points="30.82 33.07 24.31 31.88 17.8 33.07 24.31 45.53 30.82 33.07"/>
    <polygon class="4458a178-13df-47dc-8e07-694598ee9f87" points="30.82 14.98 24.31 13.37 24.31 2.52 30.82 5.77 30.82 14.98"/>
    <polygon class="630b88dc-b1d9-4618-9aca-7f72359567fb" points="17.8 14.98 24.31 13.37 24.31 2.52 17.8 5.77 17.8 14.98"/>
    <polygon class="4458a178-13df-47dc-8e07-694598ee9f87" points="24.31 45.53 30.82 42.28 30.82 33.07 24.31 34.68 24.31 45.53"/>
    <polygon class="630b88dc-b1d9-4618-9aca-7f72359567fb" points="24.31 45.53 17.8 42.28 17.8 33.07 24.31 34.68 24.31 45.53"/>
    <polygon class="4458a178-13df-47dc-8e07-694598ee9f87" points="30.82 28.63 24.31 29.46 24.31 18.61 30.82 19.43 30.82 28.63"/>
  </g>
</svg>
