<svg xmlns="http://www.w3.org/2000/svg" xmlns:xlink="http://www.w3.org/1999/xlink" viewBox="0 0 48 48"><defs><filter id="luminosity-noclip" x="3.9" y="3.65" width="44.1" height="44.62" filterUnits="userSpaceOnUse" color-interpolation-filters="sRGB"><feFlood flood-color="#fff" result="bg"/><feBlend in="SourceGraphic" in2="bg"/></filter><mask id="mask" x="3.9" y="3.65" width="44.1" height="44.62" maskUnits="userSpaceOnUse"><rect x="17.76" y="18.03" width="30.04" height="30.04" rx="14.36" ry="14.36" style="stroke:#fff;stroke-miterlimit:10;stroke-width:0.4149509991388955px;filter:url(#luminosity-noclip)"/></mask></defs><title>schedule</title><g id="Warstwa_1" data-name="Warstwa 1"><path d="M23.78,27.52a.5.5,0,0,1-.2-.31c0-.12,0-.25,0-.37a2.42,2.42,0,0,1,0-.38A3.77,3.77,0,0,1,23.8,25a3.85,3.85,0,0,1,.81-1.2A3.92,3.92,0,0,1,25.8,23a3.77,3.77,0,0,1,1.46-.29,3.53,3.53,0,0,1,.66.05,3.58,3.58,0,0,1,.64.18.57.57,0,0,1,.31.28.53.53,0,0,1,0,.41.49.49,0,0,1-.28.3.44.44,0,0,1-.4,0,4,4,0,0,0-.47-.11,2.42,2.42,0,0,0-.47,0,2.58,2.58,0,0,0-1,.21,2.65,2.65,0,0,0-.85.57,3,3,0,0,0-.58.86,2.58,2.58,0,0,0-.21,1,2.44,2.44,0,0,0,0,.27,2,2,0,0,0,.05.26.53.53,0,0,1-.08.41.49.49,0,0,1-.34.23h-.11A.52.52,0,0,1,23.78,27.52ZM41.05,41.09h0a10.73,10.73,0,0,0,1.23-1.55,10.49,10.49,0,0,0,.91-1.72,11.16,11.16,0,0,0,.56-1.87,10.67,10.67,0,0,0,.18-2,9.52,9.52,0,0,0-.2-2,10.4,10.4,0,0,0-.57-1.9,9.54,9.54,0,0,0-.94-1.75,11,11,0,0,0-1.27-1.56,11.79,11.79,0,0,0-1.56-1.28,10.14,10.14,0,0,0-1.75-.93A9.59,9.59,0,0,0,35.71,24a10.2,10.2,0,0,0-2-.19,10.37,10.37,0,0,0-2,.19,9.91,9.91,0,0,0-1.9.58,10.14,10.14,0,0,0-1.75.93,11.09,11.09,0,0,0-1.55,1.28,10.4,10.4,0,0,0-1.28,1.56,10.19,10.19,0,0,0-.94,1.75A9.7,9.7,0,0,0,23.7,32a10.23,10.23,0,0,0-.19,2,9.87,9.87,0,0,0,.19,2,10.27,10.27,0,0,0,.55,1.87,11.26,11.26,0,0,0,.9,1.72,10.16,10.16,0,0,0,1.24,1.55h0l0,0L24.2,43.26a.53.53,0,0,0-.16.38.52.52,0,0,0,.16.37.54.54,0,0,0,.38.16.45.45,0,0,0,.2,0A.44.44,0,0,0,25,44l2.13-2.14,0,0,0,0a9.71,9.71,0,0,0,1.45,1,10.54,10.54,0,0,0,1.6.74,9.09,9.09,0,0,0,1.7.46,10.63,10.63,0,0,0,1.79.15A10.52,10.52,0,0,0,35.49,44a9,9,0,0,0,1.71-.46,10.54,10.54,0,0,0,1.6-.74,10.25,10.25,0,0,0,1.45-1l0,0,0,0L42.46,44a.33.33,0,0,0,.17.12.48.48,0,0,0,.2,0,.52.52,0,0,0,.21,0,.38.38,0,0,0,.17-.12.49.49,0,0,0,.16-.37.49.49,0,0,0-.16-.38l-2.14-2.15ZM25.3,30.43a9.1,9.1,0,0,1,2-2.91,9.4,9.4,0,0,1,2.9-2,9.23,9.23,0,0,1,7.1,0,9.19,9.19,0,0,1,4.86,4.87,9.23,9.23,0,0,1,0,7.1,9.15,9.15,0,0,1-4.86,4.85,9.11,9.11,0,0,1-7.1,0,9.37,9.37,0,0,1-2.9-2,9.06,9.06,0,0,1-2-2.9,9.11,9.11,0,0,1,0-7.1Zm14.13-.2a.5.5,0,0,0-.41.06l-5.29,3.05-4.11-2.88a.48.48,0,0,0-.4-.09.51.51,0,0,0-.35.22.48.48,0,0,0-.09.4.55.55,0,0,0,.22.35l4.4,3.08h0s0,0,0,0h.48l0,0h0l5.58-3.22a.57.57,0,0,0,.26-.33.47.47,0,0,0-.06-.4A.49.49,0,0,0,39.43,30.23Zm3.82-2.59h0a.46.46,0,0,1-.34-.23.53.53,0,0,1-.08-.41,1.09,1.09,0,0,0,0-.26,2.44,2.44,0,0,0,0-.27,2.58,2.58,0,0,0-.21-1A2.6,2.6,0,0,0,41.19,24a2.58,2.58,0,0,0-1-.21,2.42,2.42,0,0,0-.47,0,3,3,0,0,0-.45.11.45.45,0,0,1-.41,0,.51.51,0,0,1-.26-.71.52.52,0,0,1,.3-.28,3.26,3.26,0,0,1,.63-.18,3.67,3.67,0,0,1,.66-.05,3.77,3.77,0,0,1,1.46.29,3.85,3.85,0,0,1,1.2.81,3.66,3.66,0,0,1,.8,1.2,3.6,3.6,0,0,1,.3,1.46,2.42,2.42,0,0,1,0,.38,2.38,2.38,0,0,1-.06.37.47.47,0,0,1-.18.31.56.56,0,0,1-.34.12Z" style="fill:#009ada;stroke:#009ada;stroke-miterlimit:10;stroke-width:0.36300000000000004px"/><g style="mask:url(#mask)"><path d="M20.72,33.85H5.56c-.72,0-1.29-.78-1.29-1.74V7.9c0-1,.57-1.73,1.29-1.73H35c.71,0,1.29.78,1.29,1.73V27.83" style="fill:none;stroke:#b2bfcf;stroke-linecap:round;stroke-linejoin:round;stroke-width:0.7260000000000001px"/><path d="M9.48,27.51A.63.63,0,0,1,9,27.32a.62.62,0,0,1-.19-.46A.64.64,0,0,1,9,26.39a.63.63,0,0,1,.47-.19h8.41a.62.62,0,0,1,.46.19.65.65,0,0,1,.2.47.63.63,0,0,1-.2.46.62.62,0,0,1-.46.19Zm0-3.35A.63.63,0,0,1,9,24a.65.65,0,0,1-.19-.48A.62.62,0,0,1,9,23a.63.63,0,0,1,.47-.2H28a.68.68,0,0,1,.66.66.66.66,0,0,1-.2.48.62.62,0,0,1-.46.19Zm0-3.37A.63.63,0,0,1,9,20.6a.62.62,0,0,1-.19-.46.67.67,0,0,1,.66-.68H28a.63.63,0,0,1,.46.2.64.64,0,0,1,.2.48.63.63,0,0,1-.2.46.62.62,0,0,1-.46.19Z" style="fill:#b2bfcf"/><line x1="4.41" y1="13.7" x2="36.36" y2="13.7" style="fill:none;stroke:#b2bfcf;stroke-linecap:round;stroke-linejoin:round;stroke-width:0.7450269527435304px"/><line x1="10.83" y1="4.02" x2="10.83" y2="7.77" style="fill:none;stroke:#b2bfcf;stroke-linecap:round;stroke-linejoin:round;stroke-width:0.7450269527435304px"/><line x1="29.58" y1="4.02" x2="29.58" y2="7.77" style="fill:none;stroke:#b2bfcf;stroke-linecap:round;stroke-linejoin:round;stroke-width:0.7450269527435304px"/></g></g></svg>