<svg xmlns="http://www.w3.org/2000/svg" viewBox="0 0 48 48"><title>tradacoms</title><g id="Warstwa_1" data-name="Warstwa 1"><path d="M16.7,9.67l18.94,0a3,3,0,0,1,3,3V31.44s2.48.14,2.69-.88.06-20,.06-20S42.54,6.81,39,6.8s-21.11-.1-21.79.29S16.7,9.67,16.7,9.67Z" style="fill:#fff"/><path d="M16.74,9.31V8a1.35,1.35,0,0,1,1.46-1.2L40,6.81A1.34,1.34,0,0,1,41.42,8V30.24A1.36,1.36,0,0,1,40,31.44H39" style="fill:none;stroke:#b2bfcf;stroke-linecap:round;stroke-linejoin:round;stroke-width:0.7260000000000001px"/><path d="M25.48,36.45H13.39a1.36,1.36,0,0,1-1.47-1.2V13a1.36,1.36,0,0,1,1.47-1.2l21.75.06A1.35,1.35,0,0,1,36.61,13V35.25a1.36,1.36,0,0,1-1.47,1.2Z" style="fill:#e9edf2;stroke:#b2bfcf;stroke-miterlimit:10;stroke-width:0.7260000000000001px"/><polyline points="43.83 40.51 40.19 40.51 40.19 36.83" style="fill:none;stroke:#009ada;stroke-linecap:round;stroke-linejoin:round;stroke-width:1.4520000000000002px"/><polyline points="40.7 43.64 37.07 43.64 37.07 39.95" style="fill:none;stroke:#009ada;stroke-linecap:round;stroke-linejoin:round;stroke-width:1.4520000000000002px"/><polyline points="4.17 7.49 7.81 7.49 7.81 11.17" style="fill:none;stroke:#009ada;stroke-linecap:round;stroke-linejoin:round;stroke-width:1.4520000000000002px"/><polyline points="7.29 4.36 10.93 4.36 10.93 8.05" style="fill:none;stroke:#009ada;stroke-linecap:round;stroke-linejoin:round;stroke-width:1.4520000000000002px"/><path d="M20.19,41.74H8.1a1.36,1.36,0,0,1-1.47-1.2V18.25A1.35,1.35,0,0,1,8.1,17.06l21.75.05a1.35,1.35,0,0,1,1.46,1.2V40.54a1.36,1.36,0,0,1-1.47,1.2Z" style="fill:#fff;stroke:#009ada;stroke-linecap:round;stroke-linejoin:round;stroke-width:0.7260000000000001px"/><path d="M8.13,16.69l21.76.06a1.71,1.71,0,0,1,1.82,1.56V40.54a1.72,1.72,0,0,1-1.83,1.56H8.13A1.71,1.71,0,0,1,6.3,40.54V18.25a1.71,1.71,0,0,1,1.83-1.56m0-2.18h0a3.89,3.89,0,0,0-4,3.74V40.54a3.89,3.89,0,0,0,4,3.74H29.88a3.88,3.88,0,0,0,4-3.74V18.31a3.88,3.88,0,0,0-4-3.74L8.14,14.51Z" style="fill:#fff"/><line x1="10.68" y1="22.52" x2="27.33" y2="22.52" style="fill:none;stroke:#009ada;stroke-linecap:round;stroke-linejoin:round;stroke-width:1.4520000000000002px"/><line x1="10.68" y1="27.05" x2="23.81" y2="27.05" style="fill:none;stroke:#009ada;stroke-linecap:round;stroke-linejoin:round;stroke-width:1.4520000000000002px"/><line x1="10.68" y1="36" x2="26.84" y2="36" style="fill:none;stroke:#009ada;stroke-linecap:round;stroke-linejoin:round;stroke-width:1.4520000000000002px"/><line x1="10.68" y1="31.55" x2="24.95" y2="31.55" style="fill:none;stroke:#009ada;stroke-linecap:round;stroke-linejoin:round;stroke-width:1.4520000000000002px"/></g></svg>