<svg xmlns="http://www.w3.org/2000/svg" viewBox="0 0 48 48"><title>vda</title><g id="Warstwa_1" data-name="Warstwa 1"><path d="M13.75,11.68H39.33a3,3,0,0,1,3,3v8.89s1.49.24,1.77-.61.19-14.52.19-14.52,1.49-1.33-7.46-1-22.32.19-22.32.19A4.91,4.91,0,0,0,13.75,10,12.75,12.75,0,0,1,13.75,11.68Z" style="fill:#fff"/><path d="M13.75,11.33V8.89A1.45,1.45,0,0,1,15.2,7.44H42.89a1.45,1.45,0,0,1,1.45,1.45v13.2a1.45,1.45,0,0,1-1.45,1.46h-.23" style="fill:none;stroke:#b2bfcf;stroke-linecap:round;stroke-linejoin:round;stroke-width:0.7260000000000001px"/><rect x="9.9" y="13.55" width="30.59" height="16.11" rx="1.45" ry="1.45" style="fill:#e9edf2;stroke:#b2bfcf;stroke-miterlimit:10;stroke-width:0.7260000000000001px"/><path d="M35,36.13H11.09L5.84,38.38V21.47A1.45,1.45,0,0,1,7.29,20H35a1.45,1.45,0,0,1,1.46,1.45v13.2A1.46,1.46,0,0,1,35,36.13Z" style="fill:#fff;stroke:#009ada;stroke-linecap:round;stroke-linejoin:round;stroke-width:0.7260000000000001px"/><path d="M35,19.65a1.82,1.82,0,0,1,1.82,1.82v13.2A1.82,1.82,0,0,1,35,36.49H11.16L6,38.72a.35.35,0,0,1-.14,0,.36.36,0,0,1-.2-.06.36.36,0,0,1-.17-.31V21.47a1.83,1.83,0,0,1,1.82-1.82H35m0-2.17H7.29a4,4,0,0,0-4,4V38.38a2.53,2.53,0,0,0,1.14,2.13,2.56,2.56,0,0,0,1.4.42,2.45,2.45,0,0,0,1-.21l4.78-2H35a4,4,0,0,0,4-4V21.47a4,4,0,0,0-4-4Z" style="fill:#fff"/><path d="M8.59,23.91h1.76a.07.07,0,0,1,.06,0c.16.52,1.71,5.35,1.77,5.51a7.2,7.2,0,0,1,.14.84L14.12,24a.13.13,0,0,1,.13-.09h1.81c.07,0,.12.06.09.12-.32,1-2.42,7.28-2.54,7.61a1.32,1.32,0,0,1-1.25.87,1.44,1.44,0,0,1-1.29-.92C11,31.26,8.82,24.94,8.51,24A.08.08,0,0,1,8.59,23.91Z" style="fill:#009ada"/><path d="M20.87,23.89H18.39A1.14,1.14,0,0,0,17.25,25v6a1.22,1.22,0,0,0,1.19,1.32h2.25c2.06,0,3.59-1.57,3.59-4.3S23.07,23.89,20.87,23.89Zm-.17,7H19V25.37h1.67c1,0,2,.82,2,2.58C22.63,30,21.42,30.84,20.7,30.84Z" style="fill:#009ada"/><path d="M26.8,32.4H24.75s1.44-4.12,1.8-5.12.86-2.43.86-2.43a1.34,1.34,0,0,1,1.29-1.06c1.08,0,1.32,1.14,1.37,1.25s1.36,3.59,1.36,3.59H29.55l-.71-2.3c0-.15-.13-.55-.13-.55l-.94,3.27h5l.53,1.57h-6Z" style="fill:#009ada"/><path d="M30.27,31h2l.41,1.14a.17.17,0,0,1-.16.22H31a.26.26,0,0,1-.25-.17Z" style="fill:#009ada"/></g></svg>