<svg xmlns="http://www.w3.org/2000/svg" viewBox="0 0 48 48"><title>webhook</title><g id="Warstwa_1" data-name="Warstwa 1"><g id="zc6kb3.tif"><path d="M31.24,20.33a7.71,7.71,0,0,0-1.88-9.7,7.5,7.5,0,0,0-9.77.2,7.26,7.26,0,0,0-2.43,4.92,7.65,7.65,0,0,0,2.43,6.36C18.45,24,17.31,25.8,16.2,27.65c-.26.45-.5.79-1.08.61a.11.11,0,0,0-.08,0,3,3,0,0,0-2.68,1.86,3,3,0,0,0,.52,3.33,3,3,0,0,0,3.15,1,3.09,3.09,0,0,0,2-4.37.75.75,0,0,1,.05-.86c.57-.88,1.11-1.78,1.65-2.67l3.17-5.15a5.58,5.58,0,0,1-2.29-1.87,5.3,5.3,0,0,1-1-2.82,5.21,5.21,0,0,1,.69-2.86,4.91,4.91,0,0,1,6.08-2.1,5.12,5.12,0,0,1,2.76,2.48,5.34,5.34,0,0,1,0,4.92Zm-1.11,3.93c-1-1.89-2-3.76-3-5.63-.05-.09,0-.25.07-.37a6.84,6.84,0,0,0,.56-1.5,3.16,3.16,0,1,0-3.27,2.78.61.61,0,0,1,.59.38Q27,23.5,28.9,27.07l.24.4a5.55,5.55,0,0,1,4.2-1,5.16,5.16,0,0,1,3.58,2.43,4.9,4.9,0,0,1-1.07,6.37,5.07,5.07,0,0,1-3.43,1.22A5.36,5.36,0,0,1,28,34.06l-2,1.17a7.65,7.65,0,0,0,9.27,3.24,7.5,7.5,0,0,0,4.61-9.2A7.72,7.72,0,0,0,30.13,24.26Z" style="fill:#fff"/><path d="M7.67,31c.07-.44.13-.89.23-1.33a7.63,7.63,0,0,1,6.81-5.86H15c0,.19,0,.37,0,.54v1.8a5.39,5.39,0,0,0-4.78,6,4.89,4.89,0,0,0,4.71,4.33,5,5,0,0,0,3-.83,5.57,5.57,0,0,0,2-2.38,7.14,7.14,0,0,0,.41-3.12h.49l8.3-.05a.71.71,0,0,0,.68-.37,3.09,3.09,0,0,1,5.68,1.48,3.18,3.18,0,0,1-2,3.19A3.09,3.09,0,0,1,30,33.5a1.75,1.75,0,0,1-.35-.56c-.11-.35-.32-.42-.66-.41-2,0-3.93,0-5.89,0-.27,0-.37.06-.43.34A7.61,7.61,0,0,1,14.49,39a7.47,7.47,0,0,1-6.75-6.64c0-.14,0-.28-.07-.41Z" style="fill:#009ada"/><path d="M31.24,20.33l-2-1.17a5.34,5.34,0,0,0,0-4.92,5.12,5.12,0,0,0-2.76-2.48,4.91,4.91,0,0,0-6.08,2.1,5.21,5.21,0,0,0-.69,2.86,5.3,5.3,0,0,0,1,2.82,5.58,5.58,0,0,0,2.29,1.87l-3.17,5.15c-.54.89-1.08,1.79-1.65,2.67a.75.75,0,0,0-.05.86,3.09,3.09,0,0,1-2,4.37,3,3,0,0,1-3.15-1,3,3,0,0,1-.52-3.33A3,3,0,0,1,15,28.26a.11.11,0,0,1,.08,0c.58.18.82-.16,1.08-.61,1.11-1.85,2.25-3.68,3.39-5.54a7.65,7.65,0,0,1-2.43-6.36,7.26,7.26,0,0,1,2.43-4.92,7.5,7.5,0,0,1,9.77-.2A7.71,7.71,0,0,1,31.24,20.33Z" style="fill:#b2bfcf"/><path d="M30.13,24.26a7.72,7.72,0,0,1,9.7,5,7.5,7.5,0,0,1-4.61,9.2A7.65,7.65,0,0,1,26,35.23l2-1.17a5.36,5.36,0,0,0,4.47,2.43,5.07,5.07,0,0,0,3.43-1.22,4.9,4.9,0,0,0,1.07-6.37,5.16,5.16,0,0,0-3.58-2.43,5.55,5.55,0,0,0-4.2,1l-.24-.4Q27,23.5,25,19.92a.61.61,0,0,0-.59-.38,3.1,3.1,0,1,1,3.27-2.78,6.84,6.84,0,0,1-.56,1.5c0,.12-.12.28-.07.37C28.09,20.5,29.11,22.37,30.13,24.26Z" style="fill:#e9edf2;stroke:#b2bfcf;stroke-linejoin:round;stroke-width:0.363px"/></g></g></svg>