<svg width="298" height="184" viewBox="0 0 298 184" fill="none" xmlns="http://www.w3.org/2000/svg">
<rect width="298" height="184" fill="#FAFAFA"/>
<path d="M130 64C133.75 64 137 67.25 137 71V73H161V71C161 67.25 164.125 64 168 64H178C181.75 64 185 67.25 185 71V81C185 84.875 181.75 88 178 88H168C164.125 88 161 84.875 161 81V79H137V81C137 82 136.75 82.875 136.375 83.75L145.875 96.375C146.5 96.125 147.25 96 148 96H158C161.75 96 165 99.25 165 103V113C165 116.875 161.75 120 158 120H148C144.125 120 141 116.875 141 113V103C141 102.125 141.125 101.25 141.5 100.375L132 87.75C131.375 88 130.625 88 130 88H120C116.125 88 113 84.875 113 81V71C113 67.25 116.125 64 120 64H130ZM130 70H120C119.375 70 119 70.5 119 71V81C119 81.625 119.375 82 120 82H130C130.5 82 131 81.625 131 81V71C131 70.5 130.5 70 130 70ZM158 102H148C147.375 102 147 102.5 147 103V113C147 113.625 147.375 114 148 114H158C158.5 114 159 113.625 159 113V103C159 102.5 158.5 102 158 102ZM167 71V81C167 81.625 167.375 82 168 82H178C178.5 82 179 81.625 179 81V71C179 70.5 178.5 70 178 70H168C167.375 70 167 70.5 167 71Z" fill="#E6E6E6"/>
</svg>
