<svg xmlns="http://www.w3.org/2000/svg" viewBox="0 0 48 48"><title>ascx12</title><g id="Warstwa_1" data-name="Warstwa 1"><path d="M19,8.68H29.45c2.27,0,3.33.66,3.35,2.94L32,16.2l.93,19.62h8.83a1.49,1.49,0,0,0,1.49-1.49V11a2.34,2.34,0,0,0-.71-1.67l-6-5.75a2.32,2.32,0,0,0-1.53-.64c-3.32-.08-14.79-.31-15.47.33S19,8.68,19,8.68Z" style="fill:#f0f0f0"/><polyline points="36.15 2.95 36.15 10.21 43.41 10.21" style="fill:none;stroke:#b2bfcf;stroke-linecap:round;stroke-linejoin:round;stroke-width:0.7260000000000001px"/><path d="M19,8V4.33a1.45,1.45,0,0,1,1.45-1.45L36.15,3l7.27,7.25,0,13.5V34.37A1.45,1.45,0,0,1,42,35.82H33.69" style="fill:none;stroke:#b2bfcf;stroke-linecap:round;stroke-linejoin:round;stroke-width:0.7260000000000001px"/><path d="M20.19,42.91h-12a1.52,1.52,0,0,1-1.45-1.57V12.05a1.51,1.51,0,0,1,1.45-1.57l21.54.07a1.52,1.52,0,0,1,1.45,1.57V41.34a1.52,1.52,0,0,1-1.45,1.57Z" style="fill:#fff;stroke:#009ada;stroke-linecap:round;stroke-linejoin:round;stroke-width:0.7260000000000001px"/><path d="M6.76,32.3H31.2v9.24a1.31,1.31,0,0,1-1.36,1.25H8.12a1.31,1.31,0,0,1-1.36-1.25Z" style="fill:#009ada"/><path d="M8.21,10.09l21.54.07a1.91,1.91,0,0,1,1.81,2V41.34a1.9,1.9,0,0,1-1.82,2H8.21a1.89,1.89,0,0,1-1.81-2V12.06a1.9,1.9,0,0,1,1.81-2m0-2.17h0a4.07,4.07,0,0,0-4,4.14V41.34a4.08,4.08,0,0,0,4,4.15H29.74a4.08,4.08,0,0,0,4-4.15V12.13a4.07,4.07,0,0,0-4-4.14L8.22,7.92Z" style="fill:#fff"/><path d="M11.71,34.37h1.11l3.1,7.2H14.46l-.67-1.65H10.67L10,41.57H8.58Zm1.63,4.45L12.23,35.9,11.1,38.82Z" style="fill:#fff"/><path d="M20.4,35.88a1.74,1.74,0,0,0-1.32-.62c-.59,0-1.27.28-1.27,1s.56.86,1.37,1.11,2.11.69,2.11,2.1a2.33,2.33,0,0,1-2.62,2.3,3.24,3.24,0,0,1-2.47-1l.91-.85a2.05,2.05,0,0,0,1.58.79c.6,0,1.3-.29,1.3-1.06s-.75-1-1.66-1.25-1.82-.71-1.82-2.05,1.33-2.11,2.63-2.11a3.13,3.13,0,0,1,2.1.77Z" style="fill:#fff"/><path d="M27.87,36.06a2,2,0,0,0-1.64-.74A2.48,2.48,0,0,0,23.74,38a2.41,2.41,0,0,0,2.44,2.65,2.12,2.12,0,0,0,1.75-.83l1,.72a3.4,3.4,0,0,1-2.78,1.26,3.78,3.78,0,1,1,.06-7.56,3.34,3.34,0,0,1,2.61,1.1Z" style="fill:#fff"/><polygon points="9.42 26.37 8.79 26.37 11.38 21.74 8.78 17.25 9.42 17.25 12.02 21.74 9.42 26.37" style="fill:#b2bfcf"/><polygon points="10.68 26.37 10.05 26.37 12.24 22.46 12.58 22.99 10.68 26.37" style="fill:#b2bfcf"/><polygon points="12.24 21.04 10.05 17.25 10.68 17.25 12.57 20.51 12.24 21.04" style="fill:#b2bfcf"/><polygon points="11.94 26.37 11.31 26.37 12.93 23.48 13.27 24 11.94 26.37" style="fill:#b2bfcf"/><polygon points="14.1 22.53 13.79 21.96 13.91 21.74 13.81 21.55 14.12 21.01 14.54 21.74 14.1 22.53" style="fill:#b2bfcf"/><polygon points="12.9 20 11.31 17.25 11.95 17.25 13.24 19.48 12.9 20" style="fill:#b2bfcf"/><polygon points="17.6 26.37 15 21.75 17.61 17.25 18.24 17.25 15.64 21.75 18.23 26.37 17.6 26.37" style="fill:#009ada"/><polygon points="15.07 26.37 12.48 21.75 15.08 17.25 15.72 17.25 13.11 21.75 15.71 26.37 15.07 26.37" style="fill:#009ada"/><polygon points="16.34 26.37 14.41 22.94 14.76 22.44 16.97 26.37 16.34 26.37" style="fill:#009ada"/><polygon points="14.72 21.15 14.36 20.69 16.34 17.25 16.98 17.25 14.72 21.15" style="fill:#009ada"/><rect x="18.85" y="17.24" width="1.65" height="9.13" style="fill:#009ada"/><path d="M25.73,23.14l.57-.09a2.4,2.4,0,0,0,2.26-2.42v-.72a2.67,2.67,0,0,0-2.68-2.67h-.95a3.2,3.2,0,0,0-2.32.78A2,2,0,0,0,22,19.29h0v1.25h1.65V19.36a.47.47,0,0,1,.13-.22,1.61,1.61,0,0,1,1.13-.3h.9a1,1,0,0,1,1.08,1.07v.72c0,.36-.11.71-.9.85l-.54.08c-1.37.21-3.45.52-3.45,2.36v2.45H28.5V24.78H23.67v-.86C23.67,23.48,24.6,23.31,25.73,23.14Z" style="fill:#009ada"/></g></svg>