<svg id="Layer_1" data-name="Layer 1" xmlns="http://www.w3.org/2000/svg" viewBox="0 0 48 48"><defs><style>.cls-1{fill:#df1f26;}</style></defs><title>PDF</title><path class="cls-1" d="M43.79,30.14q-1-2-7-2a22.07,22.07,0,0,0-4.65.33,29.8,29.8,0,0,1-3.32-2.32,19.39,19.39,0,0,1-5.64-9.3c.33-1.66.33-4.31.67-7.63v-2a3.26,3.26,0,0,0-.34-2.66,1.71,1.71,0,0,0-1.32-.66h-.67c-.66,0-1.33.66-1.66,1.66a22,22,0,0,0-.33,5,52.19,52.19,0,0,0,1.33,6.3,81.83,81.83,0,0,1-4,10.29,51.11,51.11,0,0,1-4.31,7.64h0a1.22,1.22,0,0,0-1-.33,24.21,24.21,0,0,0-5.31,3.65A9.29,9.29,0,0,0,4,41.76c0,.66,0,1,.33,1.33l.33.33,1,.33a1.21,1.21,0,0,0,1,.33c2.33,0,5.65-3.32,9.63-10.29a65.29,65.29,0,0,1,15.27-3.32,15.51,15.51,0,0,0,5,2,12,12,0,0,0,4.65.67c1.66,0,2.65-.33,2.65-1.33h0A1.49,1.49,0,0,0,43.79,30.14ZM6.28,42.42a22.65,22.65,0,0,1,2-3,31.5,31.5,0,0,1,3.32-3.32C9.6,39.77,7.61,41.76,6.28,42.42ZM21.88,6.24h0a1.7,1.7,0,0,1,.67,1.33h0V7.9a5.87,5.87,0,0,0-.33,1.66,3.93,3.93,0,0,1-.34,1.66A12.38,12.38,0,0,1,21.88,6.24ZM17.24,32.13a30.69,30.69,0,0,0,1.66-3.32,69,69,0,0,0,3.32-7.63,18.62,18.62,0,0,0,5,7l.66.66c.33.34.33.34.66.34A56.35,56.35,0,0,0,17.24,32.13ZM41.8,31.8a16.45,16.45,0,0,1-5-1c3,0,5,.33,5.65,1H41.8Z"/></svg>