<svg width="48" height="48" viewBox="0 0 48 48" fill="none" xmlns="http://www.w3.org/2000/svg">
<g clip-path="url(#clip0_889_10661)">
<path d="M6.0338 10.6451C6.0338 7.54367 8.54365 5.03381 11.6451 5.03381H36.3465C39.4479 5.03381 41.9577 7.54367 41.9577 10.6451V35.3465C41.9577 38.4479 39.4479 40.9578 36.3465 40.9578H11.6451C8.54365 40.9578 6.0338 38.4479 6.0338 35.3465V10.6451Z" fill="#FA0F00"/>
<path d="M11.6451 5.03381H36.3465C39.4479 5.03381 41.9577 7.54367 41.9577 10.6451V35.3465C41.9577 38.4479 39.4479 40.9578 36.3465 40.9578H11.6451C8.54365 40.9578 6.0338 38.4479 6.0338 35.3465V10.6451C6.0338 7.54367 8.54365 5.03381 11.6451 5.03381Z" fill="#FA0F00"/>
<path d="M26.8394 13.1549L35.4761 32.8451H29.3493L24 20.6592L20.7465 28.0873H24.5662L26.6535 32.8451H12.5239L21.1606 13.1549H26.8394Z" fill="white"/>
</g>
<defs>
<clipPath id="clip0_889_10661">
<rect width="36" height="36" fill="white" transform="translate(6 5)"/>
</clipPath>
</defs>
</svg>
