<svg xmlns="http://www.w3.org/2000/svg" viewBox="0 0 108 72">
  <defs>
    <style>
      .f83a486d-27fb-4797-94a5-4ab0ff49b085 {
        fill: #1665c1;
      }
    </style>
  </defs>
  <title>activecampaign</title>
  <g id="4002fbac-3799-4464-a9ae-e8857a8ea132" data-name="NEED VECTOR">
    <path class="f83a486d-27fb-4797-94a5-4ab0ff49b085" d="M78.59,31.1c.35,0,.43.21.43.39v.66h-.68c-.34,0-.41-.21-.41-.38V31.1Zm-.06,2.15a.38.38,0,0,1,.43.41v5.53h-.61v0a.37.37,0,0,1-.36-.4V33.25ZM46.21,37.56l.27.27,0,0,0,0A4.12,4.12,0,1,1,43.33,31a4.11,4.11,0,0,1,3.1,1.27l0,0,0,0s-.18.19-.35.36a.42.42,0,0,1-.62,0,3.2,3.2,0,0,0-2.16-.8,3,3,0,0,0-3,3.19,3.09,3.09,0,0,0,3,3.24,3.18,3.18,0,0,0,2.2-.83A.5.5,0,0,1,46.21,37.56Zm14.5-4.46a2.14,2.14,0,0,1,2.22,2.39v3.66h-.5c-.4,0-.45-.25-.45-.49v-3C62,34.6,61.45,34,60.52,34a1.58,1.58,0,0,0-1.58,1.76v3.41h-.52a.39.39,0,0,1-.43-.43v-3c0-1.06-.54-1.69-1.46-1.69A1.63,1.63,0,0,0,55,35.76v3c0,.34-.15.41-.41.41H54V33.2h.53a.41.41,0,0,1,.45.44v.42a2.11,2.11,0,0,1,1.84-1,2,2,0,0,1,1.87,1.12,2.35,2.35,0,0,1,2-1.08Zm6.89,0a2.9,2.9,0,0,1,2.83,3.08,2.9,2.9,0,0,1-2.83,3.08,2.63,2.63,0,0,1-2.19-1.14V41h-.54a.38.38,0,0,1-.41-.43v-7.3h.47a.43.43,0,0,1,.48.47v.61A2.6,2.6,0,0,1,67.6,33.12Zm1.84,3.08a2,2,0,0,0-2-2.22,2.21,2.21,0,0,0,0,4.42A2,2,0,0,0,69.44,36.2Zm15.82-2.54a.46.46,0,0,1,.44-.45h.53v4.88a2.69,2.69,0,0,1-3,2.89,4.55,4.55,0,0,1-2.68-.83l0,0,0,0s.06-.12.21-.37a.35.35,0,0,1,.3-.19.79.79,0,0,1,.36.14,3.66,3.66,0,0,0,1.8.47,1.86,1.86,0,0,0,2.07-2v-.55A2.78,2.78,0,0,1,83,38.69a2.74,2.74,0,0,1-2.79-2.8,2.81,2.81,0,0,1,.86-2.06A2.87,2.87,0,0,1,83,33.08a2.75,2.75,0,0,1,2.23,1.09v-.51Zm0,2.27a2,2,0,0,0-2.09-2,1.89,1.89,0,0,0-2,1.93,1.92,1.92,0,0,0,2,2A2,2,0,0,0,85.29,35.93Zm5.43-2.81A2.18,2.18,0,0,1,93,35.49v3.68h-.58c-.27,0-.39-.13-.39-.41V35.7A1.51,1.51,0,0,0,90.45,34a1.67,1.67,0,0,0-1.7,1.78l0,3.39h-1V33.23h.53a.41.41,0,0,1,.45.41v.51A2.24,2.24,0,0,1,90.72,33.12ZM74,33.16a2.24,2.24,0,0,1,2.55,2.37v3.62H76c-.28,0-.41-.13-.41-.39v-.4a2.66,2.66,0,0,1-2.07.92,2,2,0,0,1-2.22-1.88c0-1.19.93-1.88,2.54-1.88h1v.34c0,.27-.14.41-.43.41H74c-1.06,0-1.65.39-1.65,1.11S73,38.5,73.72,38.5A1.69,1.69,0,0,0,75.62,37V35.55c0-1-.6-1.53-1.69-1.53a3.68,3.68,0,0,0-1.43.28c-.18.06-.4.05-.48-.14s-.12-.31-.17-.46l0,0,0,0A5,5,0,0,1,74,33.16Zm-24,0a2.23,2.23,0,0,1,2.54,2.37v3.62H52c-.28,0-.41-.13-.41-.39v-.4a2.66,2.66,0,0,1-2.07.92,2,2,0,0,1-2.22-1.88c0-1.19.92-1.88,2.54-1.88h1v.34c0,.27-.14.41-.43.41h-.47c-1.06,0-1.65.39-1.65,1.11S49,38.5,49.7,38.5A1.69,1.69,0,0,0,51.6,37V35.55c0-1-.6-1.53-1.69-1.53a3.68,3.68,0,0,0-1.43.28c-.18.06-.4.05-.48-.14l-.18-.46v0l0,0A5,5,0,0,1,50,33.16Zm52.82,2.2a.68.68,0,0,1,.32.55V36a.74.74,0,0,1-.32.6h0L100,38.54l-3,2.09v.15l-.09-.15v0h0v-.78a.58.58,0,0,1,.33-.6c.25-.16,4.17-2.88,4.69-3.24L97.3,32.75l0,0c-.19-.14-.35-.25-.35-.55v-.93l.08.06,5.82,4.06Zm-3.4,1a.7.7,0,0,1-.41-.14c-.34-.22-2.08-1.43-2.1-1.45h0v-.6a.33.33,0,0,1,.16-.3.38.38,0,0,1,.38.05l2.82,1.95.06,0-.06,0-.36.24A.82.82,0,0,1,99.41,36.41Zm-80.93,1.4.29.26,0,0,0,0a3,3,0,0,1-2.4,1.16,3.09,3.09,0,0,1,0-6.18,3,3,0,0,1,2.36,1l0,0,0,0c-.1.12-.21.23-.32.34s-.39.18-.64,0A2.15,2.15,0,0,0,16.35,34a2.1,2.1,0,0,0-2,2.22,2.13,2.13,0,0,0,2.09,2.22,2.17,2.17,0,0,0,1.47-.59.43.43,0,0,1,.6,0Zm6.34-6.71a.41.41,0,0,1,.43.45v.6h-.68c-.34,0-.41-.21-.41-.38V31.1Zm-.07,2.15a.37.37,0,0,1,.42.41v5.53h-.61v0a.39.39,0,0,1-.36-.41V33.25Zm6.27.32a.5.5,0,0,1,.52-.34h.66l0,.07-2.42,5.55a.47.47,0,0,1-.48.32h-.12a.45.45,0,0,1-.5-.3l-2.42-5.59,0-.07h.68a.54.54,0,0,1,.54.36c.07.21,1.52,3.71,1.79,4.37C29.48,37.28,30.93,33.77,31,33.57Zm6,2.28a.14.14,0,0,0,.12-.05.21.21,0,0,0,0-.2A1.71,1.71,0,0,0,35.37,34a2,2,0,0,0-1.84,1.94,2.33,2.33,0,0,0,0,.32,2.19,2.19,0,0,0,0,.3,2,2,0,0,0,2,1.94,2.21,2.21,0,0,0,1.57-.58.41.41,0,0,1,.56,0l.29.25,0,0,0,0a3.06,3.06,0,0,1-2.43,1.1,3,3,0,0,1-3-3.1,2.91,2.91,0,0,1,2.85-3.1,2.64,2.64,0,0,1,2.72,2.5,1,1,0,0,1-.21.76.91.91,0,0,1-.7.25c-.52,0-1.78,0-2.86,0h0v-.37a.37.37,0,0,1,.41-.41ZM9.56,31.39C9.68,31.64,13,39,13,39.1l0,.07H12.5a.66.66,0,0,1-.64-.32c-.1-.23-2.54-5.75-2.89-6.56l-1.74,3.9H9.8v.43a.46.46,0,0,1-.5.47H6.84c-.09.2-.66,1.46-.77,1.69a.62.62,0,0,1-.58.39H4.87l0-.07c0-.08,3.39-7.56,3.47-7.73a.51.51,0,0,1,.46-.29h.23a.47.47,0,0,1,.5.31Zm13.23,6.94a.33.33,0,0,1,.11.27c0,.21,0,.38,0,.39v0h0a3,3,0,0,1-1.21.25A1.52,1.52,0,0,1,20,37.59V31.12h.46a.43.43,0,0,1,.49.44v1.69h1.35a.46.46,0,0,1,.5.45v.41H20.92l0,3.35a.82.82,0,0,0,.92.92,1.82,1.82,0,0,0,.56-.09.42.42,0,0,1,.37,0Z"/>
  </g>
</svg>
