<svg width="48" height="48" viewBox="0 0 48 48" fill="none" xmlns="http://www.w3.org/2000/svg">
<g clip-path="url(#clip0_1656_3932)">
<path d="M42 27.7071V40.5778H29.0817C25.5163 40.5778 22.2811 39.1344 19.9466 36.8086C17.6122 34.4827 16.1635 31.2594 16.1635 27.7071C16.1635 27.1985 16.1935 26.6974 16.2535 26.2039C18.6255 29.1579 22.2661 31.05 26.357 31.05H32.4671V24.9624C32.4671 20.9015 30.583 17.2818 27.633 14.9261C28.1059 14.8737 28.5938 14.8438 29.0817 14.8438C36.2127 14.8363 42 20.6024 42 27.7071Z" fill="url(#paint0_linear_1656_3932)"/>
<path d="M19.9466 36.8086C22.2811 39.1344 25.5163 40.5778 29.0817 40.5778H24C19.0309 40.5778 14.5271 38.5735 11.2694 35.3278C8.01168 32.0821 6 27.5949 6 22.644C6 12.7423 14.0617 4.71025 24 4.71025C26.95 4.71025 29.7348 5.42072 32.1968 6.66965C30.4479 5.81709 28.4062 5.30106 26.357 5.30106C22.7915 5.30106 19.5563 6.74444 17.2219 9.0703C14.8874 11.3962 13.4387 14.6194 13.4387 18.1718C13.4387 19.69 13.7014 21.1408 14.1818 22.4945C14.6697 23.8481 15.3678 25.0895 16.2535 26.1889C16.1935 26.6825 16.1635 27.1836 16.1635 27.6921C16.1635 31.2594 17.6122 34.4827 19.9466 36.8086Z" fill="url(#paint1_linear_1656_3932)"/>
<path d="M42 22.644V27.7071C42 20.6024 36.2127 14.8363 29.0817 14.8363C22.4612 14.8363 16.9967 19.8021 16.2536 26.2039C15.3753 25.1045 14.6697 23.8556 14.1818 22.5094C13.7014 21.1558 13.4387 19.7049 13.4387 18.1868C13.4387 14.6344 14.8874 11.4111 17.2219 9.08526C19.5563 6.7594 22.7915 5.31602 26.357 5.31602C28.4062 5.31602 30.4479 5.82457 32.1968 6.68462C32.2119 6.69209 32.2194 6.69957 32.2344 6.69957C38.0292 9.66859 42 15.6964 42 22.644Z" fill="url(#paint2_linear_1656_3932)"/>
</g>
<defs>
<linearGradient id="paint0_linear_1656_3932" x1="19.7201" y1="36.8216" x2="38.8998" y2="25.2077" gradientUnits="userSpaceOnUse">
<stop stop-color="#00649C"/>
<stop offset="0.11" stop-color="#0875AC"/>
<stop offset="0.37" stop-color="#1A9ACF"/>
<stop offset="0.62" stop-color="#28B5E9"/>
<stop offset="0.83" stop-color="#30C6F9"/>
<stop offset="1" stop-color="#33CCFF"/>
</linearGradient>
<linearGradient id="paint1_linear_1656_3932" x1="24.1091" y1="3.06458" x2="15.4495" y2="39.5694" gradientUnits="userSpaceOnUse">
<stop stop-color="#00649C"/>
<stop offset="0.11" stop-color="#0875AC"/>
<stop offset="0.37" stop-color="#1A9ACF"/>
<stop offset="0.62" stop-color="#28B5E9"/>
<stop offset="0.83" stop-color="#30C6F9"/>
<stop offset="1" stop-color="#33CCFF"/>
</linearGradient>
<linearGradient id="paint2_linear_1656_3932" x1="41.6191" y1="22.4371" x2="14.8456" y2="13.0556" gradientUnits="userSpaceOnUse">
<stop stop-color="#00649C"/>
<stop offset="0.11" stop-color="#0875AC"/>
<stop offset="0.37" stop-color="#1A9ACF"/>
<stop offset="0.62" stop-color="#28B5E9"/>
<stop offset="0.83" stop-color="#30C6F9"/>
<stop offset="1" stop-color="#33CCFF"/>
</linearGradient>
<clipPath id="clip0_1656_3932">
<rect width="36" height="36" fill="white" transform="translate(6 5)"/>
</clipPath>
</defs>
</svg>
