<svg id="Layer_1" data-name="Layer 1" xmlns="http://www.w3.org/2000/svg" viewBox="0 0 48 48"><defs><style>.cls-1{fill:#004870;}</style></defs><title>acxiom</title><path class="cls-1" d="M2.67,26.21A2,2,0,0,1,4.57,24a21.78,21.78,0,0,1,2.51-.18c0-1-.44-1.47-1.51-1.47a20.41,20.41,0,0,0-2.45.18L3,21.41a17.19,17.19,0,0,1,2.72-.25c1.57,0,2.84.42,2.84,2.22v3.13c0,.46,0,.87-.05,1.29a6.44,6.44,0,0,1-3.17.62C3.41,28.42,2.67,27.66,2.67,26.21Zm4.41-1.42A10.12,10.12,0,0,0,5.15,25c-.73.18-1,.4-1,1.22s.49,1.11,1.4,1.11A3.8,3.8,0,0,0,7,27.05c0-.29,0-.64,0-.95V24.79Z"/><path class="cls-1" d="M14.19,22.51A7.13,7.13,0,0,0,13,22.36c-1.86,0-2.05.52-2.05,2.35S11,27.18,13,27.18A6.27,6.27,0,0,0,14.18,27l.13,1.15a9.46,9.46,0,0,1-2.2.25c-2.36,0-2.74-1.79-2.74-3.71,0-2.32.54-3.56,3.12-3.56a6.23,6.23,0,0,1,1.8.25Z"/><polygon class="cls-1" points="21.9 28.32 20.14 28.32 18.43 25.77 16.74 28.32 15.09 28.32 17.65 24.65 15.28 21.24 17.01 21.24 18.55 23.55 20.09 21.24 21.7 21.24 19.34 24.63 21.9 28.32"/><path class="cls-1" d="M23.78,20.24c-.72,0-.92-.22-.92-.92s.22-.92.92-.92.91.22.91.92S24.49,20.24,23.78,20.24ZM23,28.32V21.24h1.52v7.08Z"/><path class="cls-1" d="M40.58,28.32H39.07V23.94c0-1.06-.26-1.6-1.4-1.6a2.9,2.9,0,0,0-1.09.23c0,.28,0,.63,0,.95v4.79H35V23.06c0-.47,0-.87.06-1.3A7,7,0,0,1,38,21.14a2.87,2.87,0,0,1,1.75.45,6.22,6.22,0,0,1,2.28-.45c2.21,0,2.55,1.2,2.55,2.63v4.54H43.1V23.93c0-1.06-.25-1.6-1.39-1.6a2.83,2.83,0,0,0-1.25.31,4.5,4.5,0,0,1,.12,1.13Z"/><path class="cls-1" d="M32.33,24.66a6.22,6.22,0,0,0-.4-1.72c-.06-.15-.13-.3-.2-.44a.25.25,0,0,0,.05-.15,7.48,7.48,0,0,1,1.5.29,4.47,4.47,0,0,1,.41.95,7.77,7.77,0,0,1-1.27,1.16Zm-.93-2.74a.45.45,0,0,1,.28.16l.05.1a7.92,7.92,0,0,1,1.39.24,4,4,0,0,0-2.61-1.66A5.8,5.8,0,0,1,31.4,21.92Zm-3.21.46a.37.37,0,0,1,.1.16,9.78,9.78,0,0,1,2.34-.39h.49a.42.42,0,0,1,0-.12,7.1,7.1,0,0,0-1-1.29l0,0-.33,0a4.64,4.64,0,0,0-.93.11A5.06,5.06,0,0,0,28.19,22.38Zm3.12,6.08a4.12,4.12,0,0,0,1.23-.77L32,27.64a.48.48,0,0,1-.27.18C31.57,28,31.44,28.24,31.31,28.46Zm.68-3.2a3.37,3.37,0,0,1-.32.19,8,8,0,0,1-2.7,1l-.27.05s0,0,0,.05a14.11,14.11,0,0,0,2.75.74.46.46,0,0,1,.29-.18,5.45,5.45,0,0,0,.36-1.71A.94.94,0,0,1,32,25.26Zm.08-.62a5.78,5.78,0,0,0-.39-1.59c-.06-.16-.13-.31-.19-.45a.37.37,0,0,1-.27-.16l-.08-.12a9.37,9.37,0,0,0-2.83.4s0,.07,0,.11a.51.51,0,0,1-.27.33,7.79,7.79,0,0,0,.09,2.64.62.62,0,0,1,.57.47,8,8,0,0,0,2.89-1,3.79,3.79,0,0,0,.34-.2s0,0,0,0A.38.38,0,0,1,32.07,24.64Zm.43.28v0a.41.41,0,0,1-.16.41,1.79,1.79,0,0,1,0,.23A6.09,6.09,0,0,1,32,27.14a.29.29,0,0,1,.07.19c.26,0,.51.05.78.06a4,4,0,0,0,1-2.68,3.44,3.44,0,0,0-.11-.91A7.77,7.77,0,0,1,32.5,24.92Zm-1.07,2.81a.41.41,0,0,1-.08-.19,13.91,13.91,0,0,1-2.78-.75.8.8,0,0,1-.17.15,14,14,0,0,0,.68,1.73,4.56,4.56,0,0,0,.75.06,3.93,3.93,0,0,0,1.09-.15A7.35,7.35,0,0,0,31.43,27.73Z"/><path class="cls-1" d="M26,23.47a4.07,4.07,0,0,1,2.43-2.53,5.56,5.56,0,0,0-.54,1.36.47.47,0,0,0-.31.34.57.57,0,0,0,0,.13A11.35,11.35,0,0,0,26,23.47Zm1.48,2.85a12.42,12.42,0,0,1-1.63-.94,3.81,3.81,0,0,0,.25.85,9.32,9.32,0,0,0,1.37.13A.08.08,0,0,0,27.48,26.32Zm.62.71h0a.61.61,0,0,1-.6-.5,9.61,9.61,0,0,1-1.3-.1,4,4,0,0,0,2.5,2.15A11.92,11.92,0,0,1,28.1,27Zm-.29-1.16c0-.16,0-.32-.07-.48a7.79,7.79,0,0,1,0-2.26A.4.4,0,0,1,27.6,23a9,9,0,0,0-1.66.77,3.66,3.66,0,0,0-.13,1,2.09,2.09,0,0,0,0,.25A11.66,11.66,0,0,0,27.61,26,.55.55,0,0,1,27.81,25.87Z"/><path class="cls-1" d="M46.67,27.78a.7.7,0,0,1-.05.25.67.67,0,0,1-.14.19.52.52,0,0,1-.19.12.59.59,0,0,1-.23,0,.47.47,0,0,1-.24-.05.43.43,0,0,1-.19-.13A1.27,1.27,0,0,1,45.5,28a.67.67,0,0,1,0-.24.66.66,0,0,1,0-.25.55.55,0,0,1,.14-.19.7.7,0,0,1,.19-.13.59.59,0,0,1,.23,0,.85.85,0,0,1,.23,0,.64.64,0,0,1,.19.13.55.55,0,0,1,.14.19A1.09,1.09,0,0,1,46.67,27.78Zm-.13,0a.71.71,0,0,0,0-.21.49.49,0,0,0-.1-.16.58.58,0,0,0-.15-.11.57.57,0,0,0-.18,0,.54.54,0,0,0-.19,0,.72.72,0,0,0-.15.11.51.51,0,0,0-.09.16.49.49,0,0,0,0,.21.51.51,0,0,0,0,.2.29.29,0,0,0,.09.15.33.33,0,0,0,.15.11.4.4,0,0,0,.2,0l.18,0a.42.42,0,0,0,.15-.11.62.62,0,0,0,.1-.16A1.23,1.23,0,0,0,46.54,27.78Zm-.59.35h-.11v-.69h.26a.3.3,0,0,1,.18,0,.18.18,0,0,1,.07.15.2.2,0,0,1-.05.14.33.33,0,0,1-.12,0l.19.3h-.14l-.18-.3h-.11v.3Zm.13-.39h.1a.08.08,0,0,0,0,0,.13.13,0,0,0,0-.1l0,0H46v.2h.13Z"/></svg>