<svg xmlns="http://www.w3.org/2000/svg" viewBox="0 0 216 108"><defs><style>.cls-1{fill:#ed1b2e;}</style></defs><title>adp</title><g id="adp"><path class="cls-1" d="M155.38,83.21a3.85,3.85,0,1,1,3.84-3.86,3.86,3.86,0,0,1-3.84,3.86Zm0,.82a4.68,4.68,0,1,0-4.69-4.68A4.66,4.66,0,0,0,155.38,84Zm-.28-4.38c.3,0,.59,0,.8.23a2.08,2.08,0,0,1,.31,1.17c0,.32.12.67.18,1h1.1a7.89,7.89,0,0,1-.33-1.59c-.08-.6-.17-.93-.93-1.08v0a1.26,1.26,0,0,0,1.12-1.28c0-1.24-1-1.51-2-1.51h-1.78V82h.86V79.65Zm-.72-.85V77.39h1c.69,0,.87.22.87.63s-.18.76-1,.78"/><path class="cls-1" d="M121.86,54a17.15,17.15,0,0,1-17.15,17.16H98.16V63.66h6.55a9.65,9.65,0,1,0,0-19.3H98.16V36.87h6.55A17.14,17.14,0,0,1,121.86,54ZM85.3,36.87V50.8h-12L69,58.31H92.81V36.87Zm85.77,10.72a23.59,23.59,0,0,1-23.59,23.58V84H127.11V74a30,30,0,0,1-22.4,10H85.3V71.17H70.13L62.63,84H38.81l35-60h30.89a30,30,0,0,1,22.4,10V24h20.37a23.6,23.6,0,0,1,23.59,23.59Zm-66.36,29a22.5,22.5,0,0,0,20.34-12.88h9.57V76.54H140V63.66h7.51a16.08,16.08,0,1,0,0-32.16H134.62V50.8H127a22.51,22.51,0,0,0-22.27-19.3H78.31l-26.25,45h6.26l7.51-12.88h27V76.54Zm42.77-39.67H140v7.49h7.51a3.22,3.22,0,0,1,0,6.44H140v7.51h7.51a10.72,10.72,0,0,0,0-21.44"/></g></svg>