<svg xmlns="http://www.w3.org/2000/svg" viewBox="0 0 108 72">
  <defs>
    <style>
      .bde35b88-3bb8-4045-8f83-47cd1242ba99 {
        fill: #409ce3;
      }

      .\30 987e53e-ea2a-44db-b2cc-7aa278b0b1f5 {
        fill: #121313;
      }
    </style>
  </defs>
  <title>agilecrm</title>
  <g id="6e669ee4-fa5f-452a-b5f9-b45295e40386" data-name="NEED VECTOR">
    <g id="53eab68c-02a4-4a84-b5df-d5343ff0e602" data-name="Page-1">
      <g id="84349c2f-bfb3-4742-9f40-b612d7be147e" data-name="agilecrmlogo">
        <path id="0009420a-9f4d-4d49-90ca-a6fa79f16b23" data-name="path18" class="bde35b88-3bb8-4045-8f83-47cd1242ba99" d="M15.6,28.09a4.67,4.67,0,0,1,2.23,0,5.31,5.31,0,0,1,4,3.8,5.81,5.81,0,0,1,.14,1.94,3.23,3.23,0,0,1,2.23.5,3.15,3.15,0,0,1,1.4,2.77,3.21,3.21,0,0,1-3.16,2.95H12.62a5.16,5.16,0,0,1-1.8-.18A4.25,4.25,0,0,1,8.2,37.35,4.75,4.75,0,0,1,8,35a4.23,4.23,0,0,1,3.7-3.45,5.28,5.28,0,0,1,3.88-3.48Zm-2.33,3.77a14.11,14.11,0,0,1,2.94,1.25c-.18.29-.43,1.08-.57,1.37-.54-.29-1.12-.54-1.66-.86a3,3,0,0,0-2.08-.4,2.66,2.66,0,0,0-2.26,2.7c.07,1.43,1.61,2.44,3,2.44h9.16c.75,0,1.72,0,2.12-.68a1.78,1.78,0,0,0-.36-2.16,1.75,1.75,0,0,0-2-.18,3.46,3.46,0,0,1-.82,1.22c-.25-.21-1-.68-1.22-.86a3.58,3.58,0,0,0,.86-1.94,3.75,3.75,0,0,0-7.18-1.9Z"/>
        <path id="56c1874b-ae1b-4cf5-ab12-97cfd57475b8" data-name="path20" class="bde35b88-3bb8-4045-8f83-47cd1242ba99" d="M69.65,30.28a5,5,0,0,1,4.1-1.84,4.08,4.08,0,0,1,3.7,1.66,4.53,4.53,0,0,1,.79,1.79c-1,.25-1.87.72-2.8,1a3,3,0,0,0-1-1.5,1.59,1.59,0,0,0-2.05.5,4.15,4.15,0,0,0-.54,2.62,4,4,0,0,0,.72,2.3,1.63,1.63,0,0,0,2.26.14,4,4,0,0,0,.86-1.22c.9.5,1.83.94,2.7,1.44A4.84,4.84,0,0,1,75.15,40a5.61,5.61,0,0,1-4.56-.71,5.72,5.72,0,0,1-2.12-4A7.18,7.18,0,0,1,69.65,30.28Z"/>
        <g id="6db74777-0c29-45ab-aaf8-7e233e4a6ae3" data-name="#121313ff">
          <path id="1bf6c84e-5d98-4372-b26d-c3f074269e7c" data-name="path27" class="0987e53e-ea2a-44db-b2cc-7aa278b0b1f5" d="M49.71,28.06c1-.32,2.33.18,2.33,1.36,0,1.66-2.69,2-3.3.58A1.44,1.44,0,0,1,49.71,28.06Z"/>
          <path id="02f3eb16-76f3-4dcc-b63f-fb768430a8fe" data-name="path29" class="0987e53e-ea2a-44db-b2cc-7aa278b0b1f5" d="M52.94,29.32c1-.36,1.94-.79,2.91-1.19,0,3.95,0,7.9,0,11.78H52.94Z"/>
          <path id="43ba006e-1dc5-4313-a590-4f13811880d9" data-name="path31" class="0987e53e-ea2a-44db-b2cc-7aa278b0b1f5" d="M32.79,28.63H36L40.08,40H36.63c-.18-.65-.39-1.3-.61-1.94h-3.3c-.18.64-.43,1.29-.58,1.94H28.69c1.37-3.77,2.7-7.55,4.1-11.32Zm1.58,3.52c-.25,1.08-.57,2.19-.86,3.27H35.3C35,34.34,34.69,33.23,34.37,32.15Z"/>
          <path id="80c568f3-f9c7-455a-a13e-074253172d93" data-name="path33" class="0987e53e-ea2a-44db-b2cc-7aa278b0b1f5" d="M41,32.15A2.74,2.74,0,0,1,44.86,32v-.54h3c0,2.41,0,4.85,0,7.3a4.27,4.27,0,0,1-1.08,3.05A6,6,0,0,1,43.38,43c-.35-.57-.75-1.15-1.07-1.72a5.81,5.81,0,0,0,2.26-.72,1.58,1.58,0,0,0,.32-1.26,2.92,2.92,0,0,1-3.41.29,4.3,4.3,0,0,1-1.36-3.34,5.94,5.94,0,0,1,.86-4.1Zm2.48,1.62c-.51.39-.47,1.08-.51,1.62a3.52,3.52,0,0,0,.43,2.08,1.33,1.33,0,0,0,1.48-.18c0-1.08,0-2.16,0-3.23A1.35,1.35,0,0,0,43.46,33.77Z"/>
          <path id="4349ddad-0db6-4f8e-b722-a2246c1efc13" data-name="path35" class="0987e53e-ea2a-44db-b2cc-7aa278b0b1f5" d="M57.25,32.91c1.26-2.19,5-2.27,6.28-.11a6.32,6.32,0,0,1,.72,3.7h-5a1.59,1.59,0,0,0,.9,1.22,3.89,3.89,0,0,0,2.73-.54c.39.61.79,1.26,1.18,1.94a6.23,6.23,0,0,1-4.59.86,3.61,3.61,0,0,1-2.66-2.69,5.5,5.5,0,0,1,.43-4.38Zm2,1.72c.83.07,1.58,0,2.41,0-.07-.72-.61-1.44-1.44-1.22C59.58,33.52,59.37,34.16,59.22,34.63Z"/>
          <path id="e24bff44-523e-42bf-af3c-8b64572827b2" data-name="path37" class="0987e53e-ea2a-44db-b2cc-7aa278b0b1f5" d="M48.84,31.43h3c0,2.84,0,5.68,0,8.48-1,0-1.94,0-3,0C48.84,37.07,48.84,34.27,48.84,31.43Z"/>
        </g>
        <path id="0201152e-edd9-4e9a-9c3a-531179c0afb6" data-name="path22" class="bde35b88-3bb8-4045-8f83-47cd1242ba99" d="M89.91,28.66c1,0,1.94,0,3,0,.93,2.08,1.94,4.09,2.76,6.25.83-2.12,1.83-4.17,2.77-6.25h2.94c0,3.74,0,7.54,0,11.31h-3c0-1.86,0-3.66,0-5.49-.79,2.05-1.79,4-2.73,6-.93-1.94-1.86-3.91-2.73-5.89.11,1.83,0,3.66.08,5.42H90C89.88,36.17,89.91,32.4,89.91,28.66Z"/>
        <path id="a7309321-fb6f-4714-8520-4cbe748a7b5d" data-name="path24" class="bde35b88-3bb8-4045-8f83-47cd1242ba99" d="M79.17,28.66h5.46a4.38,4.38,0,0,1,3.23,1.22,4.1,4.1,0,0,1,.69,3.41,3.16,3.16,0,0,1-1.94,2.34c.79,1.43,1.51,2.87,2.26,4.31H85.31c-.61-1.22-1.22-2.52-1.83-3.74H82.26v3.74H79.14c0-3.77,0-7.54,0-11.28Zm3.13,2.55c0,.83,0,1.62,0,2.41a8.63,8.63,0,0,0,2.48-.11,1.2,1.2,0,0,0-.11-2.26A17,17,0,0,0,82.3,31.21Z"/>
      </g>
    </g>
  </g>
</svg>
