<svg id="Layer_1" data-name="Layer 1" xmlns="http://www.w3.org/2000/svg" viewBox="0 0 48 48"><defs><style>.cls-1{fill:#224363;}</style></defs><title>alexantopsites</title><g id="wUb0k2.tif"><path class="cls-1" d="M43.5,24.4A19.75,19.75,0,1,1,23.69,4.67,19.73,19.73,0,0,1,43.5,24.4Zm-3.26,0A16.5,16.5,0,1,0,23.83,40.91,16.54,16.54,0,0,0,40.24,24.39Z"/><path class="cls-1" d="M32.9,30.91l.46.71c-2,2.29-4.49,1.66-6.26-1.67l-1.34,1.2a7.14,7.14,0,0,1-7.22,1.44,3.72,3.72,0,0,1-1.75-6.24,9.64,9.64,0,0,1,4.83-2.76c1.76-.51,3.57-.85,5.41-1.28a24.55,24.55,0,0,0,0-3.09,3.12,3.12,0,0,0-2.15-2.51,5.25,5.25,0,0,0-4.63.38c-.87.5-.95.94-.42,1.78l.1.14A1.82,1.82,0,0,1,20,21.36a1.84,1.84,0,0,1-2.17.39,2,2,0,0,1-1.19-2.06A3.85,3.85,0,0,1,18,17.13,9.49,9.49,0,0,1,27.62,16,4.18,4.18,0,0,1,29.91,20c0,2.69,0,5.39,0,8.09,0,.36,0,.73,0,1.09C30,31.21,30.91,31.77,32.9,30.91ZM27,23.76a13,13,0,0,0-7.53,3.11,2.6,2.6,0,0,0-.79,2.22,2.82,2.82,0,0,0,4,2.17C26.61,29.81,27.45,27.59,27,23.76Z"/></g><g id="wUb0k2.tif-2" data-name="wUb0k2.tif"><path class="cls-1" d="M43.5,24.4A19.75,19.75,0,1,1,23.69,4.67,19.73,19.73,0,0,1,43.5,24.4Zm-3.26,0A16.5,16.5,0,1,0,23.83,40.91,16.54,16.54,0,0,0,40.24,24.39Z"/><path class="cls-1" d="M32.9,30.91l.46.71c-2,2.29-4.49,1.66-6.26-1.67l-1.34,1.2a7.14,7.14,0,0,1-7.22,1.44,3.72,3.72,0,0,1-1.75-6.24,9.64,9.64,0,0,1,4.83-2.76c1.76-.51,3.57-.85,5.41-1.28a24.55,24.55,0,0,0,0-3.09,3.12,3.12,0,0,0-2.15-2.51,5.25,5.25,0,0,0-4.63.38c-.87.5-.95.94-.42,1.78l.1.14A1.82,1.82,0,0,1,20,21.36a1.84,1.84,0,0,1-2.17.39,2,2,0,0,1-1.19-2.06A3.85,3.85,0,0,1,18,17.13,9.49,9.49,0,0,1,27.62,16,4.18,4.18,0,0,1,29.91,20c0,2.69,0,5.39,0,8.09,0,.36,0,.73,0,1.09C30,31.21,30.91,31.77,32.9,30.91ZM27,23.76a13,13,0,0,0-7.53,3.11,2.6,2.6,0,0,0-.79,2.22,2.82,2.82,0,0,0,4,2.17C26.61,29.81,27.45,27.59,27,23.76Z"/></g></svg>