<svg xmlns="http://www.w3.org/2000/svg" viewBox="0 0 48 48"><defs><style>.cls-1{fill:#4285f4;}.cls-2{fill:#aecbfa;}.cls-3{fill:#669df6;}</style></defs><g id="AlloyDB"><path class="cls-1" d="M6,15.86l.24.11,3.15,1.6a.33.33,0,0,1,.21.35V31.67a.34.34,0,0,0,.22.37q7,3.48,14,7a.34.34,0,0,0,.34,0l14-7a.32.32,0,0,0,.19-.34V17.94a.35.35,0,0,1,.22-.38c1-.52,2.09-1.06,3.14-1.59l.25-.11V33.92a.32.32,0,0,1-.21.34L24.18,43a.38.38,0,0,1-.36,0L6.2,34.25A.27.27,0,0,1,6,34C6,28,6,22,6,16.05,6,16,6,16,6,15.86Z"/><path class="cls-1" d="M42,13.83l-1.88,1c-.64.32-1.28.64-1.92,1a.37.37,0,0,1-.39,0L24.25,9a.48.48,0,0,0-.49,0L10.19,15.78a.39.39,0,0,1-.38,0L6.23,13.94,6,13.83l3.09-1.54L23.76,5a.51.51,0,0,1,.48,0l17.54,8.72Z"/><path class="cls-2" d="M31.19,21.77v1.4a.26.26,0,0,1-.17.29L24.15,27a.37.37,0,0,1-.29,0l-6.92-3.51a.24.24,0,0,1-.15-.25V20.29c0-.13.05-.18.15-.24l6.89-3.38a.42.42,0,0,1,.31,0L31,20.07a.25.25,0,0,1,.17.28C31.18,20.82,31.19,21.3,31.19,21.77Z"/><path class="cls-2" d="M12,16.86l2.92-1.45L23.81,11a.34.34,0,0,1,.35,0C28.07,12.93,32,14.86,35.9,16.8l.1.06-.17.1-3.3,1.68a.36.36,0,0,1-.36,0l-8-3.95a.4.4,0,0,0-.42,0c-2.64,1.31-5.29,2.61-7.93,3.93a.45.45,0,0,1-.46,0c-1.06-.55-2.12-1.08-3.19-1.62Z"/><path class="cls-3" d="M16.81,25.47a1.24,1.24,0,0,1,.23.11L23.79,29a.37.37,0,0,0,.39,0l6.75-3.42.25-.12c0,.1,0,.17,0,.24v3.64a.28.28,0,0,1-.19.31L24.16,33a.34.34,0,0,1-.34,0L17,29.61a.29.29,0,0,1-.2-.32c0-1.2,0-2.39,0-3.59C16.8,25.64,16.81,25.57,16.81,25.47Z"/><path class="cls-3" d="M33,32.6V20.67a.34.34,0,0,1,.22-.36c1-.51,2.06-1,3.09-1.57l.27-.13c0,.1,0,.17,0,.25v11.8c0,.12,0,.22-.14.28l-3.34,1.62Z"/><path class="cls-3" d="M11.4,18.6l.57.29,2.84,1.45a.23.23,0,0,1,.17.25V32.44a1,1,0,0,1,0,.16l-.2-.09L11.57,31a.27.27,0,0,1-.18-.28q0-5.94,0-11.89Z"/></g></svg>