<svg id="27702a9a-6288-42c5-86a1-744b9359bb96"   xmlns="http://www.w3.org/2000/svg" viewBox="0 0 48 48">
  <defs>
    <style>
      .\30 7c91ab8-e6cf-4166-a67a-ecfceb461404 {
        fill: #2d72b8;
      }

      .bd85ae3c-bc57-41aa-8722-a37d0b4d0f0b {
        fill: #5294cf;
      }

      .\39 3361772-e45b-45a0-ab44-cf9415766205 {
        fill: #205b98;
      }

      .\34 6b8fe2f-991f-4b2b-8648-5ea41e31c008 {
        fill: #1a476f;
      }
    </style>
  </defs>
  <title>amazon dynamobdb</title>
  <g id="9655ce2f-dbfd-4db1-9365-05e00db5bde5" data-name="Layer 1">
    <g>
      <polygon class="07c91ab8-e6cf-4166-a67a-ecfceb461404" points="38.04 14.35 42.23 17.38 42.23 13.09 38.01 8.15 38.01 14.33 38.04 14.34 38.04 14.35"/>
      <g>
        <polygon class="bd85ae3c-bc57-41aa-8722-a37d0b4d0f0b" points="29.95 44.73 38.01 40.7 38.01 8.14 29.94 4.12 29.95 44.73"/>
        <polygon class="93361772-e45b-45a0-ab44-cf9415766205" points="18.47 44.73 10.41 40.7 10.41 8.14 18.48 4.12 18.47 44.73"/>
        <rect class="07c91ab8-e6cf-4166-a67a-ecfceb461404" x="18.48" y="4.12" width="11.46" height="40.61"/>
        <polygon class="07c91ab8-e6cf-4166-a67a-ecfceb461404" points="38.01 34.52 38.01 40.7 42.23 35.76 42.23 31.47 38.04 34.52 38.01 34.52"/>
        <polygon class="07c91ab8-e6cf-4166-a67a-ecfceb461404" points="38.01 31.91 38.04 31.91 42.23 29.65 42.23 25.34 38.01 25.72 38.01 31.91"/>
        <polygon class="07c91ab8-e6cf-4166-a67a-ecfceb461404" points="38.04 16.96 38.01 16.95 38.01 23.12 42.23 23.52 42.23 19.2 38.04 16.96"/>
        <polygon class="46b8fe2f-991f-4b2b-8648-5ea41e31c008" points="42.23 23.52 38.01 23.12 29.94 22.8 24.21 22.8 18.48 22.8 10.41 23.12 10.41 16.97 10.4 16.97 10.41 16.95 18.48 15.09 24.21 15.09 29.94 15.09 38.01 16.95 40.98 18.53 40.98 17.52 42.23 17.38 38.01 14.33 29.94 11.83 24.21 11.83 18.48 11.83 10.41 14.33 10.41 8.15 6.19 13.09 6.19 17.41 6.22 17.39 7.45 17.52 7.45 18.55 6.19 19.22 6.19 23.52 6.22 23.52 7.45 23.53 7.45 25.34 6.39 25.35 6.19 25.33 6.19 29.63 7.45 30.3 7.45 31.35 6.24 31.48 6.19 31.44 6.19 35.76 10.41 40.7 10.41 34.52 18.48 37.02 24.21 37.02 29.94 37.02 38.03 34.52 42.23 31.49 40.98 31.35 40.98 30.32 38.03 31.91 29.94 33.77 29.94 33.77 24.21 33.77 18.48 33.77 18.48 33.77 10.39 31.91 10.37 31.88 10.41 31.9 10.41 25.72 18.48 26.05 18.48 26.05 24.21 26.05 29.94 26.05 29.94 26.05 38.01 25.72 42.23 25.35 40.98 25.34 40.98 23.53 42.23 23.52"/>
      </g>
    </g>
  </g>
</svg>
