<svg id="Layer_1" data-name="Layer 1" xmlns="http://www.w3.org/2000/svg" viewBox="0 0 48 48"><defs><style>.cls-1{fill:#4da3dc;}</style></defs><title>Amplitude0</title><path class="cls-1" d="M23.48,16.05a9.88,9.88,0,0,0-.67-1.26,2.75,2.75,0,0,0-.73-.82.59.59,0,0,0-.52-.11,1.82,1.82,0,0,0-.78.56,10.53,10.53,0,0,0-1.5,2.47,39.91,39.91,0,0,0-1.7,4.6h7.65c-.22-.85-.45-1.7-.71-2.53A30.15,30.15,0,0,0,23.48,16.05Z"/><path class="cls-1" d="M24,4.66A18.67,18.67,0,1,0,42.67,23.33,18.67,18.67,0,0,0,24,4.66ZM36.88,23.82H28.27l.18.86A56.51,56.51,0,0,0,30,30.9a8.3,8.3,0,0,0,.57,1.35,1.85,1.85,0,0,0,.61.73h.11l.26,0a1.58,1.58,0,0,0,.5-.18,3.25,3.25,0,0,0,.95-.88,10.75,10.75,0,0,0,1.36-2.71,26.64,26.64,0,0,0,.87-3.09l.58.06a17,17,0,0,1-.34,3.33,9.85,9.85,0,0,1-1.21,3.27,4.42,4.42,0,0,1-1.34,1.43,3.29,3.29,0,0,1-1,.44,3.63,3.63,0,0,1-.56.09H31a1.51,1.51,0,0,1-.37-.07A2.4,2.4,0,0,1,29.57,34a5.07,5.07,0,0,1-.63-.81,10.86,10.86,0,0,1-.8-1.6,55.43,55.43,0,0,1-1.95-6.39l-.36-1.39H16.89q-.75,2.66-1.43,5.36l-.58-.08a49.08,49.08,0,0,1,.48-5.28H11.82a1.17,1.17,0,1,1,0-2.33h3.93A33,33,0,0,1,17.23,16,11.35,11.35,0,0,1,19,12.86a4.11,4.11,0,0,1,1.83-1.34,3.06,3.06,0,0,1,2.6.34,5.09,5.09,0,0,1,1.51,1.53A10.3,10.3,0,0,1,25.8,15,24.62,24.62,0,0,1,27,18.25c.3,1.08.57,2.16.82,3.24h9.11a1.17,1.17,0,0,1,0,2.33Z"/></svg>