<?xml version="1.0" encoding="utf-8"?>
<!-- Generator: Adobe Illustrator 22.1.0, SVG Export Plug-In . SVG Version: 6.00 Build 0)  -->
<svg version="1.1" id="Layer_1" xmlns="http://www.w3.org/2000/svg" xmlns:xlink="http://www.w3.org/1999/xlink" x="0px" y="0px"
	 viewBox="0 0 48 48" style="enable-background:new 0 0 48 48;" xml:space="preserve">
<style type="text/css">
	.st0{fill:#FFFF00;}
</style>
<path d="M46.6,16.6c-0.4-2.3-1.8-6-4.3-3.3c-0.4,0.4-0.8,1.2-1.5,0.9c-0.6-0.3-0.9-1.3-1.3-1.8c-1.2-1.6-3.2-2.7-4.8-3.8
	c-3.3-2.1-7.6-2.3-10.8,0.1c-0.7,0.5-1.2,1.3-1.9,1.9c-0.7,0.7-1.7,1-2.5,1.6c-0.8,0.5-1.5,1.2-2.4,1.6c-1,0.4-2.1,0.4-3.2,0.8
	c-2.1,0.6-4.2,2-5.4,3.8c-0.6,0.8-1.5,3.4-2.8,3c0.2,0.1,0.5-1.6,0.5-1.7c0.1,0.2,0.2,0.3,0.3,0.5c0.1,0,0.1-0.1,0.2-0.1
	c-0.2,0.2-0.1,0.4,0.1,0.5C7,19.8,7.4,17.3,6.7,17C6.9,17.1,7,17,7,16.7c-1.7,0.2-3.6,1.5-3.6,3.4c0,1.5,1.2,3.6,3,3.3
	c-0.3,1.7,0.5,3.4-0.1,5c-0.5,1.3-2.3,2.1-2.4,3.6c0,2,2.9,4.3,4.9,4c-0.4,1.2-0.7,2.2,0.6,3c1.1,0.7,2.7,1,4,1
	c1.3,0,1.8-0.5,2.2-1.6c0.5-1.2,1.3-2.7,1.2-4.1c0.8,0.1,1.7,0.1,2.5,0.1c-2.2,1.1-0.2,4.1,1.1,5.2c0.9,0.8,2.1,1.2,3.2,0.5
	c1-0.6,1.4-1.9,2.5-2.5c1.8-0.9,4.4,1.3,5.8-0.4c0.9-1.1,0.3-2.8,0.1-4c-0.1-0.7-0.1-1.4-0.4-2c-0.2-0.7-0.9-1.4-0.7-2.2
	c1.4,1.4,3.7,2.9,5.5,1.4c0.7-0.6,0.9-2.1,1.8-2.4c0.5-0.2,1.2,0,1.8,0c0.8,0,1.6-0.1,2.3-0.3C46.6,26.1,47.2,20.6,46.6,16.6z
	 M4.1,21.2L4.1,21.2L4.1,21.2L4.1,21.2z M31.7,34.8L31.7,34.8L31.7,34.8L31.7,34.8z M31.6,18.2c-0.4-0.7,1-1.1,1.1-0.5
	C32.7,18,31.9,18.8,31.6,18.2z M38.9,15.9c-0.1,0.3-0.9,0.4-0.8-0.2C38.1,15.1,39.1,15.3,38.9,15.9z M45.4,24.6L45.4,24.6
	C45.4,24.6,45.4,24.6,45.4,24.6L45.4,24.6z"/>
<g>
	<g>
		<path class="st0" d="M6,18.8c0.2,0,0.3,0.1,0.4,0.2c0-0.3-0.1-0.6-0.3-0.7C6.1,18.5,6,18.7,6,18.8z"/>
		<path class="st0" d="M7.1,21.2c-0.3,0.8-0.3,1.5-1.3,1.5c-0.9,0-1-0.7-1.3-1.4c-0.3-0.7-0.6-1.1-0.2-1.9c0.3-0.6,1-1.2,1.6-1.5
			c-0.3,0.6-0.3,1.1-0.4,1.7c-0.1,0.5-0.6,1.4-0.5,1.7C5,22.6,6.6,21.7,7.1,21.2z"/>
	</g>
	<g>
		<g>
			<path id="path88_1_" class="st0" d="M31.4,33c-0.2,1.1,1.1,3.1-0.3,3.8c-0.9,0.5-2.9,0.2-3.8-0.2c0.8-0.9,1.4-1.9,1.9-3
				c0.4-0.8,0.4-1.9,0.8-2.7C30.7,29.5,31.2,32.4,31.4,33"/>
			<path class="st0" d="M45,14.1c-0.5-1.3-1.4-0.6-2.1,0.1c-0.3,0.4-0.6,0.7-1,0.9c-0.3,0.2-0.8,0.2-1.1,0.4
				c-0.7,0.6-0.1,1.9-0.2,2.7c-0.1,1-0.3,2.4-0.9,3.2c0.2-0.6,0.9-3.3,0.3-3.8c-1-0.8-1.9,2.8-2.1,3.1c0.5-1.1,0-2.7,1.2-3.3
				c-1.5-0.2-1.8,1.4-2.5,2.2c0.4-0.7,0.4-1.7,1.1-2.2c0.8-0.6,1.5-0.2,2.2-0.2c-0.1-0.6,0-0.6-0.6-0.7c-0.5-0.1-1.1,0-1.5,0.1
				c0.1-0.1,0.3-0.1,0.4-0.2c-0.3-0.3-0.3-0.9-0.1-1.2c-0.2,0.1-0.5,0.1-0.8,0c1.1-0.2,1.5-0.7,2.6-0.3c-0.7-1.5-2-3.4-3.9-3
				c0.3-0.1,0.6-0.2,0.9-0.2c-2.4-1.7-4.2-4-7.4-3.7c-2.8,0.3-5.4,1.6-7.1,3.8c1,0,2-0.1,3-0.2C24,12,22,11.9,20.7,12.7
				c-1.4,0.9-2.6,2.7-3.7,3.9c-1.2,1.3-2.5,2.7-3,4.4c-0.5,1.6,1.2,2.5,1.7,3.9c0.7-1.1,1.6-2,2.5-3.2c-0.7,1.1-1.3,2.2-1.9,3.3
				c-0.6,1.1-1,2,0,2.9c1.8,1.7,3.5,0.4,5.3-0.5c0.5-0.2,0.9-0.5,1.4-0.6c0.4-0.1,1.3-0.1,1.5-0.3c0.6-0.5,0.7-2.2,0.6-3
				c0-2.5-0.7-4.7-0.1-7.2c0.2,3.3,1.4,6.7,0.5,9.9c-0.2,0.7-0.2,0.8-0.8,1c-0.3,0.1-0.7,0.1-1.1,0.2c-0.8,0.2-1.5,0.6-2.3,1
				c-1.4,0.7-2.6,1.6-4.2,1.1c-0.6-0.2-1.1-0.6-1.6-1c-0.7-0.7-0.9-1-0.6-2c0.2-0.8,0.2-1-0.2-1.8c-0.4-0.7-1-1.3-1.4-2
				c-0.7-1.3,0.1-2.6,0.8-3.8c0.8-1.5,2.1-2.8,3.2-4.1c-4.1,0.6-7.6,2.6-9.3,6.4c-1.8,3.9-0.7,8.1,1.4,11.7c0.3,0.5,0.7,0.9,0.7,1.4
				c0,0.4-0.2,1-0.3,1.5c-0.1,0.6-0.7,1.5-0.4,2.1c0.5,0.8,2.5,1.1,3.4,1.2c0.5,0.1,1.3,0.2,1.7-0.2c0.4-0.4,0.1-1.1,0.2-1.5
				c0.1-0.3,0.3-0.6,0.5-0.9c1-1.6,0.6-3,0.7-4.8c0.1,0.6,0.1,1.5,0.6,1.8c0.5,0.3,1.7,0.2,2.3,0.2c0.6,0,1.4,0,2-0.2
				c0.6-0.2,0.4-0.1,0.7-0.7c0.2-0.3,0.3-0.7,0.4-1c-0.1,1-0.1,1.9,0,3c-0.5-0.9-0.8-0.3-1.6,0.1c-0.5,0.3-1,0.4-1.1,1
				c-0.1,0.9,1,2.3,1.5,2.9c0.9,1.1,1.9,1.1,2.8,0c0.6-0.7,1.3-1.2,2.1-1.8c1.3-1.1,2.2-2.2,3-3.7c0.6-1.1,1-2.5,1.3-3.7
				c0.1-0.2,0.3-1,0.2-1.2c-0.1-0.2-0.7-0.3-0.9-0.4c-0.6-0.4-1-0.9-1.5-1.4c0.9,0.6,1.8,1,2.7,1.4c1,0.5,1.6,1.4,2.5,1.9
				c2.1,1.4,3.5-0.4,4.1-2.3c-1.1-0.3-0.5,0.6-1.1,1.3c-0.5,0.6-1.7,0.7-2.3,0.2c0.3,0.7,1.2,0.6,1.8,0.5c-3.1,1.6-1.6-2.8-1.9-4.1
				c3.2,2,8.4,2.9,10.9-0.6C46.7,22.1,46.4,17.4,45,14.1z M21.5,14.4c-0.7,0.6-1.6,3-2,3.9c0.3-1.3,0.7-2.7,1.4-3.8
				c0.9-1.4,2.7-1.2,4.2-1.3c-0.9,0.3-1.9,0.5-2.5,1.1c-0.5,0.6-0.8,1.3-0.9,2 M33.2,24.9c-0.6,0.3-0.8,1-1,1.6
				c0.2-1.5,0.4-1.8,1.9-2.1C33.9,24.6,33.5,24.8,33.2,24.9z M31.4,19.4c0.2-0.5,0.3-0.6,0.2-1.1c-0.1-0.4-0.5-0.5-0.5-1
				c-0.3,0.3-0.7,0.5-1.1,0.7c0.6-0.6,1-1.4,1.7-1.8c0.6-0.4,1.4-0.4,2.1-0.7c-0.2,0.2-0.5,0.4-0.8,0.5c0.5,0.2,0.5,0.8,0.9,1
				c0.3,0.2,0.8-0.1,1.3-0.1C33.9,17.3,32.4,18.2,31.4,19.4z M43.9,14.9c-0.9,1-1.7,1.5-3,1.3c0.6-0.4,1.4-0.4,2.1-0.9
				c0.6-0.5,0.8-1.1,1.5-1.4C44.2,14.2,44,14.5,43.9,14.9z"/>
		</g>
		<path class="st0" d="M6.8,29c0.4,1.5,1.3,2.8,1.9,4.2c0.6,1.3,0.1,2.2-1.4,1.6c-1.1-0.4-2.4-1.6-2.4-2.9C4.9,30.7,6.4,30.1,6.8,29
			z"/>
	</g>
</g>
</svg>
