<svg xmlns="http://www.w3.org/2000/svg" viewBox="0 0 48 48">
  <path d="M28.6 34v7.8h1.9v-3.6h.4v3.6h1.9V34h-1.9v2.9h-.4V34zm6.6 0h-1.9v7.8h1.9zm.3 0l1.5 7.8h2.2l1.5-7.8h-2l-.5 3.3c0 .1-.2.1-.2 0l-.5-3.3zm9.3 0h-3.7v7.8h3.7v-2h-2.1v-.9h1v-2h-1v-.8h2.1z" stroke="#fdee21" stroke-width=".21"/>
  <path d="M24.8 10.4c-.3-.9-11-5-11.2-4.6-2 .5-2.8 2.8-4.1 4.2l-3-.2c-1.3 1.7-2 3.4-1.5 5.2 1.7 2.3 3.7 4.3 4.9 7.1.1 1.4 5.9.1 7.1-.1-1.7 1.2-3.2 3.1-2.5 8.5.6 2.6 1 5.4 6.1 8.3 1 .4 1.9.8 2.9 1.1.8.4 1.8.5 4.5-.3 1.6-.7 3.3-1.1 4.8-1.8l-1.8.3c-2.6.1-4.5.2-5.1-.5l-2.4-4.1 1.4-2.7c1.9.2 2.5 1.7 4.2 2.3l2-1.5c5.7 3.4 8-2.1 8.7-6.5-.1-1.8-3.8.5-3.6-.3.1-1.9-1.5-4.4-2.4-6.3l1.1-4.4c.5-.5-2.4-5.4-4.8-6-2.1-.3-5.3 2.3-5.3 2.3z" fill="#fdee21"/>
  <path d="M34.8 26.1c-.2 0-.5 0-.5.1a8.64 8.64 0 0 0-1 1.6c.5-.5.6-1 1.4-1.5a2.2 2.2 0 0 1 .8.1c-.1.3-.3.6-.4.9-.3.4-.6.9-.9 1.3.9-1.1.6-.7 1.2-1.4.2-.6.5-1.3.7-1.9l-.4.3-.2.5-.3-.1v-.1a7.72 7.72 0 0 0-1.5-.2l-.9 1.2c.4-.3.7-.8 1.2-.9a5.38 5.38 0 0 0 .8.1zM31.9 12.8a15.55 15.55 0 0 1 .8 2.3c-.1-.9-.4-1.7-.5-2.5a8.52 8.52 0 0 0-1.7-2.5 2.35 2.35 0 0 0 .5 1.3 4.19 4.19 0 0 1 .9 1.4zM28.5 29a1.05 1.05 0 0 0-.5.9l.29-.26-.19.26a3.8 3.8 0 0 1 1.7-.7c-.4-.1-.8-.1-1.3-.2zM19.9 13.8c1.6.4 3.9.4 5 1.1a.1.1 0 0 1-.1.1 1.1 1.1 0 0 0-.8 0l-1.2.6a5.86 5.86 0 0 1 2.3.1c1 .3 1.5 2 2.1 2.5-.6-1.2-1-3-2.1-4a22.81 22.81 0 0 0-5.2-.4zM32.5 24.9l-.6-.4a1.41 1.41 0 0 0-.1-.9h.1a3.23 3.23 0 0 0-3 .4h.32H29a2.27 2.27 0 0 1 .4.1 3.22 3.22 0 0 0 .1.8l-.14.35-.06.05h.05l-.25.62c.9-1.02 2.2-.92 3.4-1.02zm-.75-1.29h-.14zM29.3 21.1a1.74 1.74 0 0 0-.14.27c-.13.1-.27.35-.56 1.53a3.74 3.74 0 0 1 2.4-1.7l-.27-.07h.37a5.44 5.44 0 0 0-1.8-.03z"/>
  <path d="M36.1 24.5a10.47 10.47 0 0 0-1.9-4.6 5.72 5.72 0 0 0 .1 1.4c.1.3-.2.3-.4.4l1.1.3c.2.4.4.7.6 1.1.2.9.1.9-.1 1a4.87 4.87 0 0 1-1.2-.1.42.42 0 0 1 .17.14h-.17a.56.56 0 0 0 .19.09.37.37 0 0 1 0 .11 1.41 1.41 0 0 1-.07.41v.07a.74.74 0 0 1-.14.22h-.18.14v.06a7.84 7.84 0 0 0 1.4.5l.09-.19.41-.21-.14-.51z"/>
  <path d="M30.6 24.3c-.1-.2-.6-.1-.7 0s0 .7.1.6a1.42 1.42 0 0 1 .6-.2.3.3 0 0 0 0-.4zm4.4.9a.6.6 0 0 0 .1-.4c-.1-.2-.5-.2-.5-.2a.76.76 0 0 0-.2.5c.1.1.6.1.6.1z" fill="#fff"/>
  <path d="M39 28.89c.12-.27.22-.54.31-.81A8.4 8.4 0 0 0 40 24.9c-.3-.5-.7-1-1-.9-1.2.3-1.6.9-2.8.8h.4a3.79 3.79 0 0 0 0-1.5 22.5 22.5 0 0 0-1.1-2.2 10.09 10.09 0 0 0-.7-1.5l-.7-.53v-.27c0-.3.1-.5.1-.7a20.74 20.74 0 0 1 1-3.3c.1-.3.3-.4.3-.6a3.51 3.51 0 0 0-.6-1.4c-.3-.6-.6-1.1-.9-1.6a7.62 7.62 0 0 0-3-2.9 6.52 6.52 0 0 0-2.4-.2 7.49 7.49 0 0 0-1.6.5c-.7.4-1.2 1.1-1.9 1.5a15.92 15.92 0 0 1-2.2-1.3A26.42 26.42 0 0 0 20 7.4a19.4 19.4 0 0 0-6.8-1.8 17.38 17.38 0 0 0-1.5 1.3 23.91 23.91 0 0 1-2.2 2.3 2 2 0 0 1-1.3.4h-1a1 1 0 0 0-1.3.4 14.25 14.25 0 0 0-1.3 2.8c-.5 2.1.8 3.8 2 5.1a8.55 8.55 0 0 1 2.2 2.8 18.94 18.94 0 0 1 .9 2.1c.1.2 0 .2.3.2a14.92 14.92 0 0 0 2.1.2h1.1a11.63 11.63 0 0 0 1.8-.4 5.78 5.78 0 0 0 1.4-.5c0 .2-.5.4-.6.6a9.45 9.45 0 0 0-1.4 3 9.27 9.27 0 0 0-.2 3.9 11.9 11.9 0 0 0 .9 3.6 7.81 7.81 0 0 0 1.1 2l.09.11a11.37 11.37 0 0 1-1.39-2.71c-.16-.66-.35-1.44-.49-2.29L15 33a17.9 17.9 0 0 0 8.82 2.79c.28.5.6 1 .88 1.41l.09.13a12.89 12.89 0 0 1-7.89-1.43h-.26l-.35-.39.21.29.11.1.09.07 3.3 2.62A23.47 23.47 0 0 1 16.73 36a13.93 13.93 0 0 0 3.57 2.83l.2.16h.08a14.59 14.59 0 0 0 3.52 1.3 5.5 5.5 0 0 0 2.2-.2c1.9-.6 5.8-2 5.8-2a42.14 42.14 0 0 1-5 .1 1.69 1.69 0 0 1-1-.3s-.2-.4-.1-.4a5.16 5.16 0 0 1 1.1-.2c-1.3-.1-1.3-.1-1.4-.4a13.92 13.92 0 0 0-.6-1.3c.6 0 1.8.1 2.3-.3H26a1.85 1.85 0 0 1-.7-.2 3.93 3.93 0 0 0-.6-.2c-.1-.2-.2-.5-.3-.7a7.72 7.72 0 0 1-.2-1.5 3 3 0 0 0 1.7 1.2 3 3 0 0 0 1.6.2H27a3.1 3.1 0 0 1-1.8-1.4l-.6-.9c.19-.37.29-.4.47-.4a5.84 5.84 0 0 0 1.56.07 3.39 3.39 0 0 0 1.07 1.64c2.25.69 2.78-.16 3.27-1a4.43 4.43 0 0 0 3.8.94 5 5 0 0 0 2.33-1 12.35 12.35 0 0 0 1.9-3.15zm-13.54 9.5a2.74 2.74 0 0 0 .34.41c1.3 1.7-1.6 1.3-2.2 1.2a9.84 9.84 0 0 1-2.84-1 13.11 13.11 0 0 0 4.7-.61zM23.2 34.1v.08c-6.18-1.28-6.88-3-8.89-4.5a10.63 10.63 0 0 1 .17-3.54c.62 2 4.17 5.81 9 6.44a4.53 4.53 0 0 0-.28 1.52zm3.95-2.69h.05c-.2-.5-.5-.9-.7-1.3-2-1.6-1.1-3-.5-3.9-1.1-.3-2.6-.9-2.8-1.6a10.21 10.21 0 0 1 .1-4.6c-1.6.3-3.1.7-4.6 1.1a35 35 0 0 0 3.9 8.6 3.7 3.7 0 0 0 1.49 1.43c-.06.16-.16.37-.28.62a33.28 33.28 0 0 1-4.41-2.86c-2.23-1.65-2.77-3.59-3.16-6.08h.06a6.43 6.43 0 0 1 2.4-1l-.1-.5a14.27 14.27 0 0 0-2.2.8c-.9.3-1.7.5-2.8.8h-1.1c-.8-.1-2.3 0-2.4-.1-.6-.8-.7-2.2-1.2-3a10 10 0 0 0-1-1.1A8.64 8.64 0 0 1 5.3 15a4.13 4.13 0 0 1-.2-1.9 5.74 5.74 0 0 1 1.6-2.7 9.74 9.74 0 0 1 2.4.2 9.36 9.36 0 0 1 1.6.4c1.6.6 3.8 1.6 3.8 1.6a28.22 28.22 0 0 0-4.6-2.3c-.2 0-.3-.1-.3-.2 1.7-1 2.1-2.2 3.2-3.3a5.64 5.64 0 0 1 1.2-.4 25.07 25.07 0 0 1 8.7 3.4c.8.4 1.6.8 2.3 1.2a10.34 10.34 0 0 1 3.1 2.4c.5 1.2 1 2.5 1.4 3.8A12.09 12.09 0 0 0 30 19a5 5 0 0 1-.2-1.2 3.55 3.55 0 0 0 1 .2s-1-.5-1.2-1c-.4-1.5-.9-3.9-1-4a12.84 12.84 0 0 0-2.6-2c-.3-.2-.5-.3-.5-.4l.9-.9a2.07 2.07 0 0 1 1-.6c1.8-.8 2.8.3 3 .1 0 0-.4-.4-.2-.4a1.91 1.91 0 0 1 .8.3 15.76 15.76 0 0 1 3.4 4.3 1.7 1.7 0 0 1 .2 1.4c-.1.4-.2.9-.3 1.3a14.16 14.16 0 0 0-.7 2.2 4.19 4.19 0 0 0 .5 2.2v-1.06a.29.29 0 0 1 .1.26 15 15 0 0 0 1.6 3.4c.4.7 0 1.6.4 2.1 0 .1.7 0 1.2 0 .8-.2.8-.5 1.5-.6.25 0 .37.22.44.44a.72.72 0 0 0-.24-.14v.07L39 25a3 3 0 0 1-2.7.5 1.15 1.15 0 0 0 1.4.5 2.22 2.22 0 0 0 1.3-.8.81.81 0 0 0 .13-.11 1.32 1.32 0 0 1 0 .71 7.4 7.4 0 0 1-1.6 4c-2.89 4.62-5.77 2-8.21 0-.09-.12-.2-.22-.29-.34a4.66 4.66 0 0 1-1.2 2c-.09.09-.08.27.19.71 0 .08 0 .17.11.3a2 2 0 0 1-.98-1.06z"/>
</svg>
