<svg xmlns="http://www.w3.org/2000/svg" viewBox="0 0 48 48">
  <title>couchdbicon-</title>
  <g id="apachecouchdb">
    <g id="JaK39z.tif">
      <g>
        <path d="M14.54,12h19l.24.07a14.82,14.82,0,0,1,1.75.41,4.74,4.74,0,0,1,2.89,5.05l0,0a2.87,2.87,0,0,0-3.19,2.5,13,13,0,0,0-.1,1.4,2.67,2.67,0,0,1-2.23,2.6,5.36,5.36,0,0,1-1.13.13H16.48a7.93,7.93,0,0,1-1-.06A2.83,2.83,0,0,1,13,22a16.66,16.66,0,0,1-.16-1.72,2.84,2.84,0,0,0-2.1-2.57c-.39-.09-.77-.12-1.21-.18,0-.39.05-.76.09-1.13a4.48,4.48,0,0,1,3.76-4.17C13.77,12.12,14.15,12.07,14.54,12Z" style="fill: #e42528"/>
        <path d="M24,35.94h-8.8a4.63,4.63,0,0,1-.74-.07,1.78,1.78,0,0,1-1.53-1.72A4.35,4.35,0,0,1,13,33a1.73,1.73,0,0,1,1.57-1.44,6.3,6.3,0,0,1,.75-.05H32.68a4,4,0,0,1,1,.11,1.74,1.74,0,0,1,1.41,1.7,4.53,4.53,0,0,1,0,1,1.91,1.91,0,0,1-2.14,1.57Z" style="fill: #e42528"/>
        <path d="M24,29.93H15.2a3.07,3.07,0,0,1-.68,0A1.8,1.8,0,0,1,12.9,28a4,4,0,0,1,0-.85,1.83,1.83,0,0,1,1.89-1.61h18a3.81,3.81,0,0,1,.75.07A1.68,1.68,0,0,1,35,27a4.2,4.2,0,0,1,0,1.37,1.9,1.9,0,0,1-1.75,1.52c-.45,0-.9,0-1.35,0Z" style="fill: #e42528"/>
        <path d="M36.23,27.65V21.71a5.42,5.42,0,0,1,.06-.81A1.83,1.83,0,0,1,38,19.35a3.09,3.09,0,0,1,3.61,2.75,8.37,8.37,0,0,1,.14,1.5c0,2.19,0,4.37,0,6.56a10.12,10.12,0,0,1-.66,3.69,3,3,0,0,1-2,2,2.79,2.79,0,0,1-1.49,0c-1-.27-1.43-1-1.43-2.19C36.22,31.65,36.23,29.65,36.23,27.65Z" style="fill: #e42528"/>
        <path d="M11.75,27.63v6a4.11,4.11,0,0,1-.07.78,2,2,0,0,1-2.41,1.49A2.83,2.83,0,0,1,6.94,34a7.62,7.62,0,0,1-.65-2.93c-.06-2.62-.07-5.25-.07-7.87A5.25,5.25,0,0,1,6.71,21a3.11,3.11,0,0,1,3.88-1.49,1.92,1.92,0,0,1,1.16,2C11.76,23.59,11.75,25.61,11.75,27.63Z" style="fill: #e42528"/>
      </g>
    </g>
  </g>
</svg>
