<svg xmlns="http://www.w3.org/2000/svg" viewBox="0 0 48 48"><title>kafka</title><path d="M21.57,16.83A7.5,7.5,0,0,1,26,19.39c.81-.46,1.61-.92,2.4-1.4.09-.06.1-.33.06-.48A5.63,5.63,0,1,1,29.75,20l-2.57,1.48a7.42,7.42,0,0,1,0,5.11L29.74,28a5.84,5.84,0,0,1,2.84-1.67,5.66,5.66,0,0,1,6.31,8.27,5.38,5.38,0,0,1-5.44,2.84,5.6,5.6,0,0,1-5-6.94.5.5,0,0,0-.31-.67c-.73-.39-1.43-.82-2.17-1.24a7.44,7.44,0,0,1-4.42,2.55c0,.92,0,1.85,0,2.77,0,.11.24.25.39.3a5.67,5.67,0,1,1-7.21,6.22,5.65,5.65,0,0,1,4-6.19c.34-.1.47-.22.46-.59,0-.82,0-1.65,0-2.51a7.29,7.29,0,0,1-6.06-7.53c.08-3.19,2.13-5.54,6.06-6.85,0-.88,0-1.78,0-2.67,0-.13-.23-.3-.39-.36a5.69,5.69,0,1,1,3.23,0c-.36.11-.46.26-.45.61C21.58,15.17,21.57,16,21.57,16.83Zm-1.12,3.39a3.78,3.78,0,1,0,3.7,3.85A3.77,3.77,0,0,0,20.45,20.22ZM23,39.72a2.6,2.6,0,1,0-5.2,0,2.6,2.6,0,1,0,5.2,0ZM23,8.31A2.6,2.6,0,0,0,20.39,5.7a2.61,2.61,0,1,0,0,5.22A2.61,2.61,0,0,0,23,8.31ZM34,18.74a2.54,2.54,0,0,0,2.58-2.63A2.6,2.6,0,1,0,34,18.74Zm0,10.52a2.6,2.6,0,1,0,2.55,2.62A2.56,2.56,0,0,0,34,29.26Z"/><path d="M20.45,20.22a3.78,3.78,0,1,1-3.84,3.71A3.78,3.78,0,0,1,20.45,20.22Z" style="fill:#fff"/><path d="M23,39.72a2.6,2.6,0,1,1-2.56-2.63A2.59,2.59,0,0,1,23,39.72Z" style="fill:#fff"/><path d="M23,8.31a2.61,2.61,0,0,1-2.58,2.61,2.61,2.61,0,1,1,0-5.22A2.6,2.6,0,0,1,23,8.31Z" style="fill:#fff"/><path d="M34,18.74a2.59,2.59,0,1,1,2.58-2.63A2.54,2.54,0,0,1,34,18.74Z" style="fill:#fff"/><path d="M34,29.26a2.6,2.6,0,1,1-.11,5.19A2.6,2.6,0,1,1,34,29.26Z" style="fill:#fff"/></svg>