<svg id="Layer_1" data-name="Layer 1" xmlns="http://www.w3.org/2000/svg" xmlns:xlink="http://www.w3.org/1999/xlink" viewBox="0 0 48 48"><defs><style>.cls-1{fill:url(#linear-gradient);}.cls-2{fill:url(#linear-gradient-2);}.cls-3{fill:url(#linear-gradient-3);}</style><linearGradient id="linear-gradient" x1="-236.01" y1="609.16" x2="-215.37" y2="609.1" gradientTransform="matrix(0.86, 0.51, 0.51, -0.86, -106.12, 662.94)" gradientUnits="userSpaceOnUse"><stop offset="0" stop-color="#fff"/><stop offset="0.04" stop-color="#f9f8fa"/><stop offset="0.09" stop-color="#e8e5ed"/><stop offset="0.15" stop-color="#cdc5d7"/><stop offset="0.22" stop-color="#a799b8"/><stop offset="0.29" stop-color="#766191"/><stop offset="0.34" stop-color="#513673"/><stop offset="0.76" stop-color="#513673"/><stop offset="0.79" stop-color="#786392"/><stop offset="0.83" stop-color="#a192b3"/><stop offset="0.86" stop-color="#c3b9cf"/><stop offset="0.9" stop-color="#ddd8e4"/><stop offset="0.93" stop-color="#f0eef3"/><stop offset="0.97" stop-color="#fbfbfc"/><stop offset="1" stop-color="#fff"/></linearGradient><linearGradient id="linear-gradient-2" x1="-381.74" y1="-84.1" x2="-361.08" y2="-84.16" gradientTransform="matrix(-0.87, 0.49, 0.49, 0.87, -251.94, 269.15)" xlink:href="#linear-gradient"/><linearGradient id="linear-gradient-3" x1="307.69" y1="153.09" x2="328.4" y2="153.03" gradientTransform="matrix(0.02, -1, -1, -0.02, 178.13, 355.33)" xlink:href="#linear-gradient"/></defs><title>apptus</title><path class="cls-1" d="M20,20.59a4.55,4.55,0,0,1,.29,1.51,3,3,0,0,1-.43,1.49l-3.75,6.17,7.82-4L19.6,33.06l-7.43,4.4a1,1,0,0,1-.79.12c-.33-.08-.47-.29-.64-.65C10.09,35,8.26,29.7,8,29a3.36,3.36,0,0,1-.16-1A2.57,2.57,0,0,1,8.2,27l.19-.33c.23-.42,3.72-6.18,3.72-6.18H3.31l4.2-7.31,8.27-.56a2.61,2.61,0,0,1,1.21.1c.41.23.5.75.68,1.11l2.16,6.32Z"/><path class="cls-2" d="M30.37,21.65a4.21,4.21,0,0,1-1.45-.52A2.85,2.85,0,0,1,27.85,20l-3.47-6.33L24,22.61l-4.23-7.54-.08-8.69a1.09,1.09,0,0,1,.3-.75,1,1,0,0,1,.87-.22L29,7a3.2,3.2,0,0,1,.93.36,2.39,2.39,0,0,1,.78.83l.2.33c.24.41,3.47,6.31,3.47,6.31l4.41-7.63,4.23,7.33L39.42,22a2.61,2.61,0,0,1-.69,1,2,2,0,0,1-1.3,0l-6.55-1.29Z"/><path class="cls-3" d="M24.27,30.06a4.32,4.32,0,0,1,1.18-1,2.69,2.69,0,0,1,1.5-.36l7.21.18-7.53-4.84,8.69.14,7.52,4.34a1,1,0,0,1,.49.63,1,1,0,0,1-.24.87L37.58,36.3a3.7,3.7,0,0,1-.78.64,2.85,2.85,0,0,1-1.11.25h-.38c-.48,0-7.21-.18-7.21-.18l4.37,7.61H24l-4.57-6.95a2.63,2.63,0,0,1-.51-1.11c0-.46.39-.81.63-1.14l4.41-5Z"/></svg>