<svg id="Layer_1" data-name="Layer 1" xmlns="http://www.w3.org/2000/svg" viewBox="0 0 48 48">
  <title>arxivreview</title>
  <g>
    <rect x="3.27" y="15.82" width="41.71" height="16.82" rx="1.46" ry="1.46" style="fill: #b31b1b"/>
    <g>
      <path d="M9.17,24.17A.45.45,0,0,0,9.54,24a.44.44,0,0,0,.06-.25.52.52,0,0,0-.3-.5,1.93,1.93,0,0,0-.85-.15,1.21,1.21,0,0,0-.91.28.81.81,0,0,0-.19.46H6.58a1.1,1.1,0,0,1,.58-1,2.87,2.87,0,0,1,1.31-.29,3.07,3.07,0,0,1,1.39.27.87.87,0,0,1,.54.83v2.28a.23.23,0,0,0,0,.17.29.29,0,0,0,.22.06h.12l.15,0v.49l-.29.06h-.28a.71.71,0,0,1-.61-.25.66.66,0,0,1-.14-.36,2.24,2.24,0,0,1-.72.46,2.68,2.68,0,0,1-1,.2,1.74,1.74,0,0,1-1.1-.34,1,1,0,0,1-.43-.84,1,1,0,0,1,.42-.85,2.21,2.21,0,0,1,1.11-.37ZM7.44,26a1.13,1.13,0,0,0,.62.17A2.19,2.19,0,0,0,8.89,26a.93.93,0,0,0,.69-.89v-.53a2,2,0,0,1-.39.13,4,4,0,0,1-.46.07l-.5,0a2.43,2.43,0,0,0-.67.16.58.58,0,0,0-.38.55A.52.52,0,0,0,7.44,26Z" style="fill: #fff"/>
      <path d="M11.76,22.61h.78v.68a1.56,1.56,0,0,1,.47-.48,1.39,1.39,0,0,1,.86-.29H14l.18,0v.7h-.26a1.32,1.32,0,0,0-1,.33,1,1,0,0,0-.33.74v2.28h-.82Z" style="fill: #fff"/>
      <path d="M15.52,26.57H14.43l2.37-2.79-2.22-2.64h1.13l1.68,2.08,1.68-2.08h1.07l-2.21,2.64,2.32,2.79H19.13l-1.78-2.23Z" style="fill: #fff"/>
      <path d="M21.06,21.14h.84v.75h-.84Zm0,1.49h.84v3.94h-.84Z" style="fill: #fff"/>
      <path d="M23.54,22.61l1.3,3.23,1.36-3.23h.9l-1.84,4h-.87l-1.8-4Z" style="fill: #fff"/>
      <path d="M27.31,25.77h1v.8h-1Z" style="fill: #fff"/>
      <path d="M33.24,23a1.79,1.79,0,0,1,.64,1.5,2.27,2.27,0,0,1-.57,1.58,2.31,2.31,0,0,1-1.77.62A2.2,2.2,0,0,1,30,26.16a1.94,1.94,0,0,1-.59-1.48A2.09,2.09,0,0,1,30,23.09a2.28,2.28,0,0,1,1.66-.59A2.5,2.5,0,0,1,33.24,23Zm-.51,2.63a2.13,2.13,0,0,0,.3-1.12,1.74,1.74,0,0,0-.22-.9,1.29,1.29,0,0,0-1.18-.54,1.25,1.25,0,0,0-1.08.46,1.91,1.91,0,0,0-.34,1.13,1.65,1.65,0,0,0,.34,1,1.3,1.3,0,0,0,1.07.42A1.19,1.19,0,0,0,32.73,25.64Z" style="fill: #fff"/>
      <path d="M34.91,22.61h.78v.68a1.56,1.56,0,0,1,.47-.48,1.39,1.39,0,0,1,.86-.29h.08l.18,0v.7H37a1.32,1.32,0,0,0-1,.33,1,1,0,0,0-.33.74v2.28h-.82Z" style="fill: #fff"/>
      <path d="M40.71,22.77a2.18,2.18,0,0,1,.47.38v-.5h.75v3.6a2.26,2.26,0,0,1-.27,1.19,2.09,2.09,0,0,1-1.92.81A2.8,2.8,0,0,1,38.42,28a1.08,1.08,0,0,1-.6-.9h.83a.73.73,0,0,0,.24.42,1.42,1.42,0,0,0,.87.22A1.28,1.28,0,0,0,41,27.16,2.77,2.77,0,0,0,41.15,26a1.61,1.61,0,0,1-.59.45,2.35,2.35,0,0,1-.92.15,2.19,2.19,0,0,1-1.38-.46,1.79,1.79,0,0,1-.59-1.51,2,2,0,0,1,.6-1.55,2.05,2.05,0,0,1,1.44-.56A2.14,2.14,0,0,1,40.71,22.77Zm.1.71a1.36,1.36,0,0,0-1-.35,1.19,1.19,0,0,0-1.18.66,2.16,2.16,0,0,0-.17.92,1.41,1.41,0,0,0,.34,1,1.18,1.18,0,0,0,.89.35A1.3,1.3,0,0,0,41,25.43a1.79,1.79,0,0,0,.2-.86A1.48,1.48,0,0,0,40.81,23.48Z" style="fill: #fff"/>
    </g>
  </g>
</svg>
