<svg xmlns="http://www.w3.org/2000/svg" viewBox="0 0 48 48">
  <path fill="#FFBE45" d="M41.4 26.5c-.1.1-.2.1-.3.1h-.5c-.1 0-.3-.1-.4-.2l-2.4-3v.3c0 .5 0 1 .1 1.5h.3c.3 0 .5.2.5.5v.3c0 .3-.2.5-.5.5h-2.1c-.1 0-.2 0-.3-.1-.2.1-.4.2-.7.2H35c-1.2 5.9-6.9 9.7-12.8 8.5-4.3-.9-7.7-4.3-8.5-8.6h-.2c-.1 0-.3-.1-.4-.1l-.2.1c-.2.1-.3.1-.5.1-.4 0-.8-.1-1.1-.4-.1.1-.2.1-.3.1-.4.1-.9.2-1.4.3h-.2c-.1 0-.2 0-.3-.1l-.1-.1v-.1c-.2.1-.5.2-.8.2-.3 0-.5-.1-.8-.2v.2l-1.1.2.3 1.6 1.1-.2c.1.5.2.9.4 1.4l-1 .4.6 1.5 1-.4c.2.4.4.9.6 1.3l-.9.5.8 1.4 1-.5c.3.4.5.8.8 1.1l-1 .8 1 1.2.9-.7c.3.3.6.7 1 1l-.7.8 1.2 1 .7-.9c.4.3.8.5 1.1.8l-.6 1 1.4.8.6-1c.4.2.8.4 1.3.6l-.4 1.1 1.5.6.4-1.1c.4.1.9.2 1.3.3l-.2 1.2 1.6.3.2-1.2c.5 0 .9.1 1.4.1v1.2h1.6v-1.2c.5 0 .9-.1 1.4-.1l.2 1.2 1.6-.3-.2-1.3c.5-.1.9-.2 1.3-.4l.4 1.2 1.5-.6L31 40l1.2-.6.7 1.2 1.4-.8-.7-1.2c.4-.2.8-.5 1.1-.8l.9 1 1.2-1-.9-1 1-1 1.1.9 1-1.2-1.1-.9c.3-.4.5-.7.8-1.1l1.2.7.8-1.4-1.2-.7.6-1.2 1.3.5.5-1.5-1.3-.5c.1-.4.2-.9.3-1.3l1.4.2.3-1.6-1.2-.2z"/>
  <path fill="#FFBE45" d="M19.6 35.8l-1.1-.5-.5 1.2 1 .4c.2.1.3.1.5.1.1 0 .3 0 .4-.1.1-.1.2-.2.2-.3.1-.2.1-.3 0-.5-.1-.1-.2-.2-.5-.3zm23.3-11.3zm-.6-3.9v.3c0 .3-.2.5-.5.5h-.2c0 .2 0 .5-.1.8l.4-.1c.2-.2.5-.3.7-.3l-.2-1.4h-.2c.1 0 .1.1.1.2zM8.6 23.1V25c.1 0 .1 0 .2-.1v-1.7h-.1c0-.1 0-.1-.1-.1zm2.3 1.9v-1.8zm-4.3-.3v-1.1h-.3v.1c.1.3.2.6.3 1zm6.8-1.5H13V25l.1-.1c.1-.1.3-.1.4 0h.1v-.5c0-.3 0-.7.1-1V23c-.1.1-.2.2-.3.2zm8-12.6c.1-.1.2-.2.2-.3v-.4c0-.2-.1-.3-.3-.4-.2-.1-.4-.1-.6 0l-1.2.3.3 1.2 1-.3c.2 0 .4 0 .6-.1z"/>
  <path fill="#FFBE45" d="M6.6 21.9c.4 0 1-.1 1.5-.1.1 0 .3 0 .4.1l.1.1c.1-.1.2-.1.3-.1.4 0 1.1-.1 1.5-.1.1 0 .3 0 .4.1l.1.1.1-.1c0-.2.1-.3.2-.4l.9-.7c.2-.1.4-.1.5 0l.1.1c.2.1.3.3.3.5v.6h.3c.1 0 .2 0 .3.1v-.9h-.1c-.3 0-.5-.2-.5-.5v-.2c0-.2.2-.5.4-.5l1.2-.2c2.6-5.4 9.1-7.6 14.5-5 3.7 1.8 6.1 5.5 6.1 9.6.5 0 .9.4 1 .9.1-.5.1-1 .1-1.5v-2.3s0-.1-.3-.1-.5-.2-.5-.5v-.3c0-.3.2-.5.5-.5h1.4c.1 0 .3.1.4.2l2.3 2.7v-.1c0-.5 0-1-.1-1.5h-.3c-.3 0-.5-.2-.5-.5v-.3c0-.3.2-.5.5-.5H41c-.1-.2-.1-.5-.2-.7l1.4-.5-.5-1.5-1.4.5-.6-1.2L41 16l-.8-1.4-1.3.7c-.2-.4-.5-.7-.8-1.1l1.1-.9-1-1.2-1.2.8c-.3-.3-.6-.6-.9-1l.9-1.1-1.2-1-.9 1.1c-.3-.3-.7-.5-1.1-.8l.7-1.2-1.5-.8-.7 1.2-1.2-.6.5-1.3-1.5-.6-.5 1.3c-.4-.1-.9-.2-1.3-.4l.2-1.3-1.5-.2-.2 1.3c-.5-.1-.9-.1-1.4-.1V6h-1.6v1.3c-.5 0-.9 0-1.4.1l-.2-1.3-1.6.3.2 1.3c-.4.1-.8.2-1.3.3l-.4-1.2-1.5.6.4 1.2-1.2.6-.6-1.1-1.4.8.6 1c-.4.2-.8.5-1.1.8l-.8-.9-1.2 1 .8.9c-.4.3-.7.6-1 1l-.9-.8-1.2 1.3.9.7c-.3.4-.6.8-.8 1.1l-1-.6-.8 1.4 1 .6-.6 1.2-1-.4-.6 1.5 1 .4c-.1.4-.3.9-.4 1.4l-1.1-.2-.2 1.7c.1 0 .1-.1.2-.1z"/>
  <path fill="#075580" d="M4 22.1l.6 1.7H3.4l.6-1.7m.8 3.9H7v-.2c-.4-.1-.6-.1-.9-.9s-.6-1.9-1-2.9l-.5-1.5-.4.1-1.7 4.3c-.3.8-.4.8-.9.9v.2h1.9v-.2h-.2c-.4 0-.4-.1-.3-.5s.2-.7.3-1h1.5c.1.3.3.7.4 1s.1.5-.2.5h-.2v.2zm4.6-2.9c0-.3 0-.4-.2-.4h-.3v-.2c.4 0 1.1-.1 1.5-.1v2.8c0 .3 0 .4.3.4h.3v.2l-1.5.3-.1-.1v-.5c-.2.1-.3.2-.5.3-.2.1-.5.2-.7.2-.6 0-1-.4-1.1-.9V23c0-.3 0-.4-.2-.4h-.3v-.2c.4 0 1.1-.1 1.5-.1v2.5c0 .5.2.7.6.7.3 0 .5-.1.7-.3v-2.1m3.1 1.7c0 .6.3.8.5.8s.3-.1.4-.1l.1.2-.7.3c-.1 0-.2.1-.3.1-.6 0-1-.3-1-1v-2.3H11l-.1-.1.3-.3h.3v-.5l.9-.7.1.1v1.1h.8c.1.1.1.3 0 .4h-.8v2m2.6-2c.3-.3.7-.5 1.1-.5.6 0 1.1.4 1.2 1v1.9c0 .5 0 .5.5.6v.2H16v-.2c.4-.1.4-.1.4-.6v-1.6c0-.5-.3-.7-.6-.7-.2 0-.5.1-.7.3v2c0 .5 0 .5.4.6v.2h-2v-.2c.6-.1.6-.1.6-.6v-4c0-.5 0-.5-.5-.5v-.2l1.6-.3-.1 2.6m4.1 1.1c0-.9.4-1.3.7-1.3.5 0 .9.6.9 1.8s-.4 1.4-.7 1.4c-.5-.1-.9-.8-.9-1.9m.8-1.7c-1.1 0-2 .9-2 2 0 1 .8 1.8 1.8 1.8h.2c1 0 1.9-.8 1.9-1.8V24c0-1-.8-1.8-1.8-1.8H20zm3.7 3c0 .5 0 .5.7.6v.2h-2.3v-.2c.5-.1.6-.1.6-.6v-1.9c0-.5 0-.5-.5-.6v-.2c.5-.1 1-.2 1.6-.3v.8c.1-.2.2-.4.4-.5.1-.2.3-.3.5-.3.3 0 .5.2.6.5 0 .3-.2.5-.4.6-.1.1-.2.1-.2 0-.1-.1-.3-.2-.4-.2-.1 0-.3.1-.4.4l-.2 1.7m2.2-1.9c0-.5 0-.5-.5-.6v-.2c.5-.1 1-.2 1.6-.3v2.9c0 .5 0 .5.6.6v.3h-2.2v-.2c.5-.1.6-.1.6-.6v-1.9m.9-2.4c0 .3-.3.6-.6.6s-.6-.3-.5-.7c0-.3.3-.5.5-.5.3 0 .6.2.6.6zm3.9 1.4l.1.1-1.9 3.2h.7c.4.1.9-.2 1.1-.6l.1-.2.3.1c-.1.4-.2.7-.4 1h-3l-.1-.1 2-3.2H29c-.5 0-.7.1-.9.5l-.1.4-.3-.1c.1-.3.2-.8.3-1.2h.2c0 .1.1.2.5.2l2.1-.1"/>
  <path fill="#075580" d="M32 23.6c0-.6.4-1 .7-1s.6.4.6.8c0 .2 0 .2-.2.2H32m2.1 1.4c-.3.2-.6.3-.9.3-.7 0-1.2-.6-1.2-1.2V24c.8 0 1.9-.1 2-.1s.2 0 .2-.4c0-.7-.6-1.2-1.3-1.2-1.1.1-1.9 1-1.9 2.1 0 .9.7 1.7 1.6 1.8h.1c.6-.1 1.1-.4 1.4-.9V25zm.4.4c0-.3.3-.6.6-.6s.6.3.6.6-.3.6-.6.6c-.3.1-.6-.2-.6-.6 0 .1 0 0 0 0m6.6.6h-.5l-3.3-4v1.7c0 .5 0 1.1.1 1.6 0 .3.2.4.8.4v.3h-2.1v-.2c.4 0 .6-.1.7-.4.1-.5.1-1.1.1-1.6v-1.7c0-.5 0-.7-.2-.9-.2-.2-.4-.3-.7-.3v-.3h1.4l3.2 3.7v-1.5c0-.5 0-1.1-.1-1.6 0-.3-.2-.4-.8-.4v-.3h2.1v.3c-.4 0-.6.1-.7.4-.1.5-.1 1.1-.1 1.6l.1 3.2"/>
  <path fill="#075580" d="M42.4 23.6c0-.6.4-1 .7-1s.6.4.6.8c0 .2 0 .2-.2.2h-1.1m2.1 1.4c-.3.2-.6.3-.9.3-.7 0-1.2-.5-1.2-1.2V24c.8 0 1.9-.1 2-.1s.2 0 .2-.4c0-.7-.6-1.2-1.3-1.2-1.1 0-2 1-1.9 2.1 0 .9.7 1.7 1.6 1.8h.1c.6 0 1.1-.4 1.4-.9V25zm1.7-.2c0 .6.3.8.5.8s.3-.1.4-.1l.1.2-.7.3c-.1 0-.2.1-.3.1-.6 0-1-.3-1-1v-2.3h-.5l-.1-.1.3-.3h.3v-.5l.9-.7.2.1v1.1h.7c.1.1.1.3 0 .4h-.8v2"/>
</svg>
