<svg width="48" height="48" viewBox="0 0 48 48" fill="none" xmlns="http://www.w3.org/2000/svg">
<path d="M15.5484 26.5331L17.128 31.3388L41.8428 38.3616L15.5484 26.5331Z" fill="#0068E0"/>
<path d="M24.1767 18.5753C24.4805 19.7741 24.1609 20.5357 22.2138 20.347L41.7446 38.3802C41.9661 38.4687 42.0047 38.3208 41.8516 38.0955L24.1767 18.5753Z" fill="#000094"/>
<path d="M23.5561 9.874C23.5561 9.874 22.8595 10.529 23.5923 11.3773C24.1357 12.0073 24.9486 11.6207 24.9486 11.6207C24.9486 11.6207 25.6972 11.202 25.1286 10.3194C24.3894 9.17125 23.5561 9.874 23.5561 9.874ZM41.8907 38.4594L14.1833 26.1623C14.1833 26.1623 5.13023 20.5834 6.06815 18.3797C6.98152 16.2464 15.0505 20.545 15.9043 20.7429C16.7581 20.9426 17.2332 20.4041 17.2489 20.0285C17.2741 19.4871 16.0504 17.9384 16.685 17.277C17.3173 16.6173 19.3854 17.9023 19.3854 17.9023L21.0631 19.0597L41.8907 38.4594Z" fill="#1CCCFC"/>
<path d="M42 38.3435L23.7156 18.1637C23.7156 18.1637 20.4221 14.438 20.5588 13.3714C20.6956 12.3048 25.0696 15.7096 25.0696 15.7096C25.0696 15.7096 25.5558 16.176 26.0169 16.0962C26.4779 16.0188 25.9847 15.2549 25.9847 15.2549C25.9847 15.2549 25.2291 13.5059 25.7334 13.1921C26.2407 12.8806 27.521 14.197 27.521 14.197C27.521 14.197 27.8407 14.5271 28.1761 14.438C28.5115 14.3472 28.3315 13.613 28.3315 13.613C28.3315 13.613 26.0192 8.30025 27.0278 7.90434C28.5665 7.29708 30.7579 11.6934 31.493 13.0622C31.6777 13.4401 42 38.3435 42 38.3435ZM13.4663 13.3737C13.4663 13.3737 12.5284 13.9926 13.5715 15.1821C14.5304 16.2784 15.3842 15.7096 15.3842 15.7096C15.3842 15.7096 16.2695 15.1705 15.4204 14.1539C14.2973 12.8101 13.4663 13.3737 13.4663 13.3737Z" fill="#1CCCFC"/>
</svg>
