<svg xmlns="http://www.w3.org/2000/svg" viewBox="0 0 48 48"><title>aws</title><path d="M20.41,28.6a.73.73,0,0,1-.62-.47l-3-10.61a.44.44,0,0,1,.34-.52l2.11-.25a.53.53,0,0,1,.58.43l.85,3.56c0,.23.14.66.18,1,0,0,.2.91.29,1.54s.19,1.2.24,1.54a14,14,0,0,1,.29-1.68c.14-.75.34-1.54.57-2.4l.89-3.34a.67.67,0,0,1,.62-.47h1.92a.57.57,0,0,1,.57.47L27,20.28a6,6,0,0,0,.25.92s.23,1.09.43,2,.28,1.4.34,1.73a2.51,2.51,0,0,1,.09-.58c.09-.34.09-.62.14-.86s.09-.57.2-1.05a12.31,12.31,0,0,0,.23-1.35l.82-3.7a.66.66,0,0,1,.58-.47h2.2a.32.32,0,0,1,.38.26.31.31,0,0,1,0,.21L29.52,28.13a.74.74,0,0,1-.61.47H27a.73.73,0,0,1-.62-.47l-.81-3.08a5.56,5.56,0,0,0-.25-.91c-.05-.23-.38-1.54-.57-2.4a5.73,5.73,0,0,0-.2-1.2,11.57,11.57,0,0,1-.28,1.54,17.24,17.24,0,0,1-.43,1.72c-.18.63-.29,1.2-.38,1.63s-.2.73-.2.77l-.48,1.93a.68.68,0,0,1-.57.47Z" style="fill:#f8981e"/><path d="M41.57,17.52l-.77,1.63a.47.47,0,0,1-.63.23,8,8,0,0,0-2.35-.66c-.87,0-1.43.48-1.43,1.16s.38.91,1.38,1.18l.92.25a3.7,3.7,0,0,1,.91.34,6.52,6.52,0,0,1,1.82,1.15,3.18,3.18,0,0,1,.63,2c0,2.43-1.92,4.12-4.8,4.12a10,10,0,0,1-4.62-1.35l.86-1.82a.43.43,0,0,1,.56-.23l.07,0a9.74,9.74,0,0,0,3.31,1.11A1.4,1.4,0,0,0,39,25.43v-.09c0-.82-.52-1.2-1.72-1.45l-.86-.13a4.62,4.62,0,0,1-.91-.3,5.47,5.47,0,0,1-1.63-1,3.68,3.68,0,0,1-.63-2c0-2.31,1.72-3.85,4.37-3.85A7.28,7.28,0,0,1,41.57,17.52Z" style="fill:#f8981e"/><path d="M16.67,26.73a2.84,2.84,0,0,1-.77-1.91V21.55c0-1.4.09-2.64-.91-3.6a4.64,4.64,0,0,0-3.08-1.06c-1.95,0-4.17.72-4.61,3.17a.34.34,0,0,0,.23.42h.06l2,.25c.18,0,.33-.2.38-.39a1.53,1.53,0,0,1,1.68-1.24,1.32,1.32,0,0,1,1.15.52,2.64,2.64,0,0,1,.23,1.54v.28a15.4,15.4,0,0,0-3.92.72,3.53,3.53,0,0,0-2.29,3.36,2.94,2.94,0,0,0,2.62,3.24,2.26,2.26,0,0,0,.45,0,4.26,4.26,0,0,0,3.45-1.54,6,6,0,0,0,1.2,1.4.37.37,0,0,0,.48,0,17.24,17.24,0,0,1,1.54-1.29A.47.47,0,0,0,16.67,26.73ZM13,23.51a6.49,6.49,0,0,1-.43,2.22,1.77,1.77,0,0,1-1.43.95c-.82,0-1.25-.62-1.25-1.54C9.88,23.37,11.42,23,13,23Z" style="fill:#f8981e"/><path d="M39.07,37.42a6.71,6.71,0,0,0,2.15-4.77v-.16c0-.3,0-.46-.15-.61a6.46,6.46,0,0,0-4.46-.16,4.24,4.24,0,0,0-1.39.77c-.31.31-.31.47,0,.47s.77-.16,1.39-.16c1.23-.15,2.61-.15,2.92.31.46.62-.46,3.08-.92,4.16C38.45,37.57,38.76,37.73,39.07,37.42ZM8.44,32.65A24.44,24.44,0,0,0,24.75,39a23.86,23.86,0,0,0,12-3.23l1.38-.93c.62-.46,0-1.07-.46-.77a2.42,2.42,0,0,1-.77.31A31.38,31.38,0,0,1,25.22,36.5,33.51,33.51,0,0,1,8.9,32.19C8.29,31.88,8,32.34,8.44,32.65Z" style="fill:#6b6b6b"/></svg>