<svg id="64f1ba8a-de6f-4c73-822a-ab203cdb28be"   xmlns="http://www.w3.org/2000/svg" viewBox="0 0 48 48">
  <defs>
    <style>
      .\32 0fb3d9d-20cc-4604-a5c9-c8d43f324109 {
        fill: #f90;
      }
    </style>
  </defs>
  <title>aws data management</title>
  <g>
    <path class="20fb3d9d-20cc-4604-a5c9-c8d43f324109" d="M38.65,8.32a1.57,1.57,0,0,1,1.56,1.55v16a1.57,1.57,0,0,1-1.56,1.55H10.32a1.57,1.57,0,0,1-1.55-1.55v-16a1.57,1.57,0,0,1,1.55-1.55H38.65m0-2.75H10.32A4.31,4.31,0,0,0,6,9.87v16a4.31,4.31,0,0,0,4.3,4.3H38.65A4.32,4.32,0,0,0,43,25.84v-16a4.32,4.32,0,0,0-4.31-4.3Z"/>
    <path class="20fb3d9d-20cc-4604-a5c9-c8d43f324109" d="M39.3,33.82h-31a3,3,0,0,0-2.95,3v2.71a3,3,0,0,0,3,3H39.3a3,3,0,0,0,2.94-3V36.77A3,3,0,0,0,39.3,33.82Zm-1,5.14H26.54a1.18,1.18,0,0,1,0-2.36H38.27a1.18,1.18,0,0,1,0,2.36Z"/>
  </g>
</svg>
