<svg xmlns="http://www.w3.org/2000/svg" viewBox="0 0 48 48"><title>azuredatalake</title><rect x="10.4" y="9.02" width="14.97" height="29.09" style="fill:#3e3e3e"/><rect x="25.35" y="9.02" width="15.45" height="29.09" style="fill:#a0a1a2"/><ellipse cx="25.67" cy="8.48" rx="12.44" ry="3.64" style="fill:#b8d432"/><path d="M14.94,11.28C17,10.12,21,9.33,25.67,9.33c4.46,0,8.36.73,10.47,1.81.52.27-5,1.62-10.54,1.65S14.49,11.53,14.94,11.28Z" style="fill:#7fba00"/><path d="M25.68,4.73c-8.47,0-15.33,2-15.33,4.56s6.86,4.56,15.33,4.56S41,11.81,41,9.29,34.14,4.73,25.68,4.73Zm0,7.39c-6.75,0-12.23-1.62-12.23-3.64s5.48-3.64,12.23-3.64S37.9,6.47,37.9,8.48,32.42,12.12,25.66,12.12Z" style="fill:#fff"/><path d="M36.13,28.73a6.15,6.15,0,0,1-5.23-2.92h-.19a6.22,6.22,0,0,1-10.55,0H20a6.15,6.15,0,0,1-9.63,1.07V38.26h0c.11,2.7,6.76,4.87,14.94,4.87V38.24H40.89V26.47A6.13,6.13,0,0,1,36.13,28.73Z" style="fill:#3999c6"/><path d="M36.13,28.73a6.15,6.15,0,0,1-5.23-2.92h-.19a6.22,6.22,0,0,1-5.27,2.92h-.1v9.52h0v4.89c8.4,0,15.4-2.18,15.49-4.88h0V26.52A6.12,6.12,0,0,1,36.13,28.73Z" style="fill:#59b4d9"/></svg>