<svg id="Layer_1" data-name="Layer 1" xmlns="http://www.w3.org/2000/svg" viewBox="0 0 48 48">
  <title>billsby</title>
  <rect x="3.51" y="3.92" width="40.62" height="40.62" style="fill: #243f5c"/>
  <g id="Page-1">
    <g id="Billsby_Logo_White" data-name="Billsby Logo White">
      <path id="Billsby" d="M11.2,19.51a3.59,3.59,0,0,1,2.12.53,1.78,1.78,0,0,1,.77,1.57,1.62,1.62,0,0,1-.29.95,1.73,1.73,0,0,1-.82.64,1.58,1.58,0,0,1,1,.63A1.89,1.89,0,0,1,14.37,25a2,2,0,0,1-.73,1.67,3.31,3.31,0,0,1-2.07.57H7.77v-.92l.82-.16V20.59l-.82-.15v-.93Zm-1.06,4.28V26h1.43a1.39,1.39,0,0,0,.93-.27,1,1,0,0,0,.33-.79,1.25,1.25,0,0,0-.28-.86,1.12,1.12,0,0,0-.87-.3Zm0-1.06h1.11a1.57,1.57,0,0,0,1-.26.87.87,0,0,0,.33-.74A.9.9,0,0,0,12.2,21a1.62,1.62,0,0,0-1-.25H10.14Zm4.49,3.54.75-.16V22.57l-.83-.16v-.93h2.38v4.63l.74.16v.92h-3Zm2.3-6.16H15.38V19h1.55Zm.78-.22V19h2.38v7.15l.74.16v.92h-3v-.92l.75-.16V20.05Zm3.16,0V19h2.37v7.15l.75.16v.92H21v-.92l.75-.16V20.05Zm8,3.55h-1l-.16-.71a1.66,1.66,0,0,0-.4-.21,1.53,1.53,0,0,0-.54-.08,1,1,0,0,0-.64.18.54.54,0,0,0-.24.45.51.51,0,0,0,.23.43,2.31,2.31,0,0,0,.91.31,3.61,3.61,0,0,1,1.58.62,1.35,1.35,0,0,1,.51,1.12,1.49,1.49,0,0,1-.66,1.26,2.88,2.88,0,0,1-1.75.49,3.9,3.9,0,0,1-1.22-.19,3.23,3.23,0,0,1-1-.55l0-1.29h1.08l.21.75a1.12,1.12,0,0,0,.38.17,2.07,2.07,0,0,0,.5,0,1.33,1.33,0,0,0,.72-.16.55.55,0,0,0,.24-.46.53.53,0,0,0-.25-.44,2.65,2.65,0,0,0-.91-.33,3.66,3.66,0,0,1-1.53-.61,1.3,1.3,0,0,1-.52-1.1,1.56,1.56,0,0,1,.6-1.23,2.44,2.44,0,0,1,1.69-.52,4.36,4.36,0,0,1,1.26.18,2.52,2.52,0,0,1,.93.45Zm6.15,1a3.34,3.34,0,0,1-.58,2,1.94,1.94,0,0,1-1.65.77,1.7,1.7,0,0,1-.87-.21,1.8,1.8,0,0,1-.63-.6l-.11.7H29.85V20.05L29,19.89V19h2.37v3.13a1.65,1.65,0,0,1,.59-.53,1.71,1.71,0,0,1,.8-.18,1.88,1.88,0,0,1,1.66.82A3.73,3.73,0,0,1,35,24.38Zm-1.55-.11a3.05,3.05,0,0,0-.24-1.32.89.89,0,0,0-.84-.49,1.15,1.15,0,0,0-.61.15,1,1,0,0,0-.39.43v2.41a.89.89,0,0,0,.39.4,1.19,1.19,0,0,0,.62.14.89.89,0,0,0,.84-.42,2.54,2.54,0,0,0,.23-1.19Zm7.83-2-.53.08L38.66,28a3.31,3.31,0,0,1-.66,1,1.75,1.75,0,0,1-1.26.41,2.22,2.22,0,0,1-.37,0l-.4-.09.18-1.12.15,0h.14a.81.81,0,0,0,.59-.19,1.16,1.16,0,0,0,.32-.46l.18-.44-1.82-4.7-.54-.08v-.93H38v.93l-.64.1.79,2.28.08.41h0l.9-2.7-.64-.1v-.93h2.8Z" style="fill: #fff"/>
      <rect id="Rectangle" x="7.77" y="28.44" width="27.56" height="0.88" style="fill: #fe7f2d"/>
    </g>
  </g>
</svg>
