<svg id="Layer_1" data-name="Layer 1" xmlns="http://www.w3.org/2000/svg" viewBox="0 0 48 48"><defs><style>.cls-1{fill:#ed5724;}</style></defs><title>bloomfire</title><path class="cls-1" d="M8.08,31.94l13.14-6.62c-2.29-1.18-4.1-2.09-5.88-3-1.06-.57-2.56-1.58-2.12-2.59.51-1.18,2.12-.7,3.2-.4,2,.55,3.87,1.26,6.48,2.13-1-3-1.77-5.45-2.56-7.87A28,28,0,0,1,19.17,10c-.12-.63-.24-1.75.5-2s1.46.62,1.75,1.17c1.38,2.58,2.6,5.25,3.9,7.87.37.75.84,1.44,1.52,2.59.66-1.22,1.13-2,1.52-2.83C30,13.26,31.53,9.79,33.25,6.4c.34-.67,1.14-1.84,2-1.51s.62,1.8.38,2.52c-1.21,3.68-2.62,7.3-3.94,11-.29.78-.48,1.6-.9,3A38.25,38.25,0,0,1,36,19.77c.83-.14,2.24-.35,2.66.68s-.79,1.83-1.48,2.33a37.48,37.48,0,0,1-4.67,2.51c2.48,1.24,4.46,2.26,6.48,3.21,1.17.56,2.32,1.32,1.51,2.63-.33.55-1.9.69-2.77.47-2.12-.53-4.15-1.38-7-2.36,1,3,1.76,5.34,2.56,7.68a15.63,15.63,0,0,1,1,2.9c.08.72.12,2-.65,2.26s-1.46-.66-1.77-1.23c-1.22-2.21-2.27-4.52-3.39-6.8-.41-.84-.84-1.66-1.62-3.19L21.19,42.78a1.35,1.35,0,0,1-1.9,0c-.7-.7,0-2.48.3-3.61.93-3.13,2.06-6.19,3.29-9.79-1.28.36-2,.54-2.72.77-3.21,1.06-6.39,2.23-9.64,3.17-1,.28-2.46,1.07-3,.21S7.63,32.19,8.08,31.94Z"/></svg>