<svg xmlns="http://www.w3.org/2000/svg" viewBox="0 0 48 48">
  <title>icon-board</title>
  <g id="Layer_3" data-name="Layer 3">
    <g>
      <path d="M13.27,35.27A11.27,11.27,0,1,1,24.54,24,11.28,11.28,0,0,1,13.27,35.27Z" style="fill: #9fa0a0"/>
      <path d="M24.59,24a10.17,10.17,0,0,1,5.88-9.21A11.13,11.13,0,0,0,24,12.73a11.27,11.27,0,0,0,0,22.54,11.13,11.13,0,0,0,6.47-2.06A10.17,10.17,0,0,1,24.59,24Z" style="fill: #044f6e"/>
      <path d="M34.73,35.27A11.27,11.27,0,1,1,46,24,11.28,11.28,0,0,1,34.73,35.27ZM38.3,16.05v1.09h2.52l-6.48,6.48.77.76,6.48-6.47v2.51h1.08V16.05Z" style="fill: #227fab"/>
    </g>
  </g>
</svg>
