<svg xmlns="http://www.w3.org/2000/svg" viewBox="0 0 48 48"><title>bridge</title><path d="M33.34,21.45v5.71h1.81l.65-8.51s0-.1,0-.16A11.43,11.43,0,0,1,33.34,21.45Z" style="fill:#1a7dba"/><path d="M28.58,27.16V24.11a13.76,13.76,0,0,1-3.49.54v2.51Z" style="fill:#1a7dba"/><path d="M32.73,27.16V22a12.74,12.74,0,0,1-3.54,1.92v3.26Z" style="fill:#1a7dba"/><path d="M38.79,27.16V24.42a12.74,12.74,0,0,1-1.94-2.84l.43,5.58Z" style="fill:#1a7dba"/><path d="M5.46,27.16A11.86,11.86,0,0,0,12.94,19l.17-2.11.14-1.77L13.33,14l.06-.8.27,3.49a5.33,5.33,0,0,0,.37.85A11.8,11.8,0,0,0,24.8,24.06a11.81,11.81,0,0,0,10.78-6.54,4.52,4.52,0,0,0,.36-.85l.27-3.49.07.8.08,1.18.13,1.77L36.67,19a11.84,11.84,0,0,0,7.48,8.12H47a24.37,24.37,0,0,0,.17-2.72,22.57,22.57,0,0,0-45.13,0,22.19,22.19,0,0,0,.17,2.72Z" style="fill:#1a7dba"/><path d="M39.41,27.16h2.88a11.7,11.7,0,0,1-2.88-2.1Z" style="fill:#1a7dba"/><path d="M12.33,27.16l.43-5.58a13.12,13.12,0,0,1-1.95,2.84v2.74Z" style="fill:#1a7dba"/><path d="M37.42,29l.43,5.62H34.59L35,29H14.58L15,34.65H11.75L12.18,29H2.53a22.57,22.57,0,0,0,44.19,0Z" style="fill:#1a7dba"/><path d="M10.2,27.16v-2.1a11.89,11.89,0,0,1-2.88,2.1Z" style="fill:#1a7dba"/><path d="M20.42,27.16V23.9A12.89,12.89,0,0,1,16.88,22v5.18Z" style="fill:#1a7dba"/><path d="M13.81,18.65l.65,8.51h1.81V21.45a11.43,11.43,0,0,1-2.42-3A1.24,1.24,0,0,0,13.81,18.65Z" style="fill:#1a7dba"/><path d="M24.51,27.16V24.64A12.84,12.84,0,0,1,21,24.11v3.05Z" style="fill:#1a7dba"/></svg>