<svg xmlns="http://www.w3.org/2000/svg" viewBox="0 0 48 48"><title>btrieve</title><path d="M14,34.09H12.4a.13.13,0,0,1-.14-.13l0-13.85a.13.13,0,0,0-.13-.13H10.64a.13.13,0,0,1-.13-.14V18.65a.13.13,0,0,1,.13-.14h5.1a.13.13,0,0,1,.13.14v1.19a.13.13,0,0,1-.13.14H14.39a.13.13,0,0,0-.14.13L14.12,34A.13.13,0,0,1,14,34.09Z"/><rect x="23.67" y="18.51" width="1.99" height="15.58"/><path d="M36.55,34.09H35.12A.12.12,0,0,1,35,34L32.3,18.67a.13.13,0,0,1,.13-.16h1.63a.13.13,0,0,1,.13.12L35.68,28.9h.48l1.55-10.27a.14.14,0,0,1,.14-.12h1.39a.13.13,0,0,1,.13.16L36.69,34A.14.14,0,0,1,36.55,34.09Z"/><path d="M44.39,34.09H40.33A.13.13,0,0,1,40.2,34V18.65a.13.13,0,0,1,.13-.14h4.06a.13.13,0,0,1,.13.14v1.28a.13.13,0,0,1-.13.13h-2.3a.14.14,0,0,0-.13.14v5.17a.13.13,0,0,0,.13.14h1.75a.13.13,0,0,1,.14.13V27a.13.13,0,0,1-.14.13H42.12a.13.13,0,0,0-.13.14v5.24a.13.13,0,0,0,.13.13l2.27,0a.13.13,0,0,1,.13.14V34A.13.13,0,0,1,44.39,34.09Z"/><path d="M31.51,34.09H27.46a.13.13,0,0,1-.14-.13V18.65a.14.14,0,0,1,.14-.14h4.05a.14.14,0,0,1,.14.14v1.28a.13.13,0,0,1-.14.13H29.22a.14.14,0,0,0-.14.14v5.17a.14.14,0,0,0,.14.14H31a.13.13,0,0,1,.13.13V27a.13.13,0,0,1-.13.13H29.25a.13.13,0,0,0-.13.14v5.24a.13.13,0,0,0,.13.13l2.26,0a.14.14,0,0,1,.14.14V34A.13.13,0,0,1,31.51,34.09Z"/><path d="M20.92,27.27A.24.24,0,0,1,21,27l.82-.49a1,1,0,0,0,.46-.8l.08-5.31a1.89,1.89,0,0,0-1.89-1.89H17V34.09h1.73l.1-6.86a.18.18,0,0,1,.36,0l1.66,6.9h1.8Zm-.21-1.35a.13.13,0,0,1-.13.13h-1.9a.13.13,0,0,1-.13-.13v-6a.13.13,0,0,1,.13-.14h1.9a.13.13,0,0,1,.13.14Z"/><path d="M9,24.94l.35-.19a.57.57,0,0,0,.29-.5V17.91a1.36,1.36,0,0,0-1.36-1.37H3.78V34.09H7.61a2,2,0,0,0,2-2V26.19a.81.81,0,0,0-.34-.67L9,25.27A.19.19,0,0,1,9,24.94ZM8,32.56a.41.41,0,0,1-.41.41H5.82a.4.4,0,0,1-.4-.41V26a.41.41,0,0,1,.4-.41H7.55A.41.41,0,0,1,8,26Zm0-8.11a.4.4,0,0,1-.4.4H5.82a.4.4,0,0,1-.4-.4V17.86a.41.41,0,0,1,.4-.41H7.56a.41.41,0,0,1,.4.41Z"/><polygon points="35.92 20.16 35.92 20.16 33.66 13.09 38.18 13.09 35.92 20.16" style="fill:#ef0000"/></svg>