<svg id="2b3d9e92-3953-4b5b-a7a3-b67ba4fde8d0" data-name="Icons" xmlns="http://www.w3.org/2000/svg" viewBox="0 0 108 72">
  <title>Bugsnag</title>
  <path d="M65.14,29.28a5.08,5.08,0,0,0-4.85,5.12v6.23a.26.26,0,0,0,.26.26h1.51a.27.27,0,0,0,.27-.26V34.38a3,3,0,0,1,2.82-3.05,3,3,0,0,1,3.11,2.82c0,.05,0,.1,0,.15v6.33a.25.25,0,0,0,.26.26H70a.26.26,0,0,0,.27-.26V34.3a5,5,0,0,0-5-5Z"/>
  <path d="M77.88,29.34a5.8,5.8,0,1,0,3.51,10.2v1.08a.27.27,0,0,0,.26.27h1.51a.27.27,0,0,0,.27-.27V35.25A5.88,5.88,0,0,0,77.88,29.34Zm-.25,9.55a3.76,3.76,0,1,1,3.76-3.76h0A3.77,3.77,0,0,1,77.63,38.89Z"/>
  <path d="M91.2,29.34a5.8,5.8,0,0,0-.52,11.58,5.72,5.72,0,0,0,4-1.38v2.3a3.83,3.83,0,0,1-3.83,3.85,3.72,3.72,0,0,1-3-1.58.26.26,0,0,0-.35-.07l-1.28.8a.27.27,0,0,0-.09.37h0a5.77,5.77,0,0,0,4.67,2.52,5.9,5.9,0,0,0,5.91-5.92V35.26A5.88,5.88,0,0,0,91.2,29.34ZM91,38.89a3.76,3.76,0,1,1,3.75-3.76h0A3.75,3.75,0,0,1,91,38.89Z"/>
  <path d="M42.53,29.34A5.8,5.8,0,1,0,46,39.54v2.3a3.84,3.84,0,0,1-3.83,3.85,3.7,3.7,0,0,1-3-1.58.28.28,0,0,0-.36-.07l-1.28.8a.27.27,0,0,0-.08.37h0a5.81,5.81,0,0,0,4.66,2.52,5.9,5.9,0,0,0,5.91-5.92V35.26A5.87,5.87,0,0,0,42.53,29.34Zm-.25,9.55A3.76,3.76,0,1,1,46,35.13h0A3.77,3.77,0,0,1,42.28,38.89Z"/>
  <path d="M34.32,29.41l-1.51,0a.26.26,0,0,0-.26.26v6a3,3,0,0,1-3,3h-.14a3,3,0,0,1-2.82-3V29.71a.27.27,0,0,0-.27-.27H24.83a.27.27,0,0,0-.26.27v5.91a5.08,5.08,0,0,0,4.86,5.12,5,5,0,0,0,5.16-4.88V29.68a.27.27,0,0,0-.27-.27Z"/>
  <path d="M54.57,34.16c-1.48-.41-2.38-.72-2.38-1.52,0-1.16,1.27-1.58,2.12-1.58a4,4,0,0,1,2.33.69.26.26,0,0,0,.36-.08l.7-1.09a.27.27,0,0,0-.08-.37h0a6.56,6.56,0,0,0-3.37-.94c-1.92,0-3.9,1.27-3.9,3.39S52.26,35.34,54,35.8s2.57.77,2.57,1.78-1,1.62-2.21,1.62a4.73,4.73,0,0,1-2.88-1.07.27.27,0,0,0-.37,0l-.83,1a.27.27,0,0,0,0,.38A6.47,6.47,0,0,0,54.4,41c2.3,0,4-1.47,4-3.48C58.38,35.22,56.26,34.63,54.57,34.16Z"/>
  <path d="M17.77,29.37a5.78,5.78,0,0,0-4.44,1.35V24.54a.27.27,0,0,0-.27-.27.33.33,0,0,0-.13,0l-1.51.92a.28.28,0,0,0-.13.23V35a5.88,5.88,0,0,0,5.55,5.92,5.8,5.8,0,0,0,.93-11.56Zm-.68,9.52a3.76,3.76,0,1,1,3.76-3.76A3.76,3.76,0,0,1,17.09,38.89Z"/>
</svg>
