<svg xmlns="http://www.w3.org/2000/svg" xmlns:xlink="http://www.w3.org/1999/xlink" viewBox="0 0 48 48"><defs><linearGradient id="a" x1="80" y1="894.4" x2="80" y2="863.52" gradientTransform="matrix(1, 0, 0, -1, -56, 908)" gradientUnits="userSpaceOnUse"><stop offset="0" stop-color="#8a7ab9"/><stop offset="1" stop-color="#b888b6"/></linearGradient><linearGradient id="b" x1="21.73" y1="875.56" x2="19.3" y2="872.85" gradientTransform="matrix(1, 0, 0, -1, 0, 908)" gradientUnits="userSpaceOnUse"><stop offset="0" stop-color="#f6daaa"/><stop offset="1" stop-color="#e4bc98"/></linearGradient><radialGradient id="c" cx="-181.76" cy="897.19" r="1.84" gradientTransform="matrix(1.58, 0, 0, -1.58, 321.88, 1440.27)" gradientUnits="userSpaceOnUse"><stop offset="0" stop-color="#fff"/><stop offset="1" stop-color="#fff" stop-opacity="0"/></radialGradient><linearGradient id="d" x1="25.76" y1="885.95" x2="24.75" y2="886.06" gradientTransform="matrix(1, 0, 0, -1, 0, 908)" gradientUnits="userSpaceOnUse"><stop offset="0" stop-color="#363433"/><stop offset="1" stop-color="#363433" stop-opacity="0"/></linearGradient><radialGradient id="e" cx="279.77" cy="1014.71" r="3.4" gradientTransform="matrix(0.59, 0.29, 1.19, -2.39, -1357.02, 2360.6)" gradientUnits="userSpaceOnUse"><stop offset="0" stop-color="#e4bc98"/><stop offset="1" stop-color="#f6daaa" stop-opacity="0"/></radialGradient></defs><title>bugzilla</title><rect x="8.73" y="13.77" width="30.53" height="30.53" rx="0.69" ry="0.69" style="stroke:#625874;stroke-width:0.343056218363653px;fill:url(#a)"/><path d="M19.64,35c-7.77,0-8.44,7.61-8.5,9.11H27.51C27.54,42.39,27.24,35,19.64,35Z" style="fill:#363433"/><path d="M33.45,22.32C33.52,26.53,28.3,20.49,29,18a2.45,2.45,0,0,1,1.65-.86C31.25,17.16,32.94,19.91,33.45,22.32Z" style="fill:#f6daaa;stroke:#363433;stroke-linecap:square;stroke-width:0.450983986963997px"/><path d="M22.37,18.49C25.28,11,24,4,21.35,3.25" style="fill:none;stroke:#6d6e6e;stroke-linecap:square;stroke-width:0.173455385963843px"/><path d="M22.19,18.36a4.81,4.81,0,0,0-4.54,5.48,39.18,39.18,0,0,1,1.76,11.74c.71.76,2.69,1.61,3.91.38-.37-2.83,2-3.64,5.56-3.37,4.25.31,9.74-.7,9.74-4.73-.33-2.55-3.27-4.43-7.83-7.06" style="stroke:#363433;stroke-linecap:square;stroke-width:0.450983986963997px;fill:url(#b)"/><path d="M23.31,17.81C23.15,14.36,31,8,33.7,11.22" style="fill:none;stroke:#6d6e6e;stroke-linecap:square;stroke-width:0.173455385963843px"/><path d="M20.43,20.35c4.31-5.32,8.25-6,11.16,2.82" style="fill:#f6daaa"/><path d="M34.3,23.08a2.89,2.89,0,1,0,3.78,3.53,7.26,7.26,0,0,0-1.87-2.16A22.2,22.2,0,0,0,34.3,23.08Z" style="fill:url(#c)"/><path d="M22.48,31.62c-.17,0-.37.32-.06.29a6.36,6.36,0,0,1,4.37.82l.12,0,.16-.2,0-.06A7,7,0,0,0,22.48,31.62Z" style="fill:#363433"/><path d="M24.35,25.14c-.32-.32-2.12-5.93,1-6.81,2-.56,4.35,3.79,4.35,5.6S26,26.62,24.35,25.14Z" style="fill:#fff;stroke-linecap:square;stroke-width:0.260183078945765px;stroke:url(#d)"/><path d="M27.33,20.92c-.2,1.08-1,1.84-1.72,1.69s-1.21-1.13-1-2.2,1-1.84,1.71-1.7S27.52,19.84,27.33,20.92Z" style="fill:#343231"/><path d="M26.22,20.18c-.17.36-.48.56-.69.46s-.24-.47-.07-.82h0c.17-.35.48-.56.69-.46s.24.47.07.82Z" style="fill:#fff"/><path d="M25.68,21.79a.31.31,0,0,0,.34.11.16.16,0,0,0,.09-.25.31.31,0,0,0-.34-.11.16.16,0,0,0-.09.25Z" style="fill:#fff"/><path d="M22.4,18.56h-.11c-.2.16-.21.1-.19,0l-.11,0-.14.16-.1.13-.11.05.11-.13.13-.19h-.09c-.11.08-.2.15-.08,0a4.65,4.65,0,0,0-3.29,2.24,4.25,4.25,0,0,0-.56,2.86h0a39.25,39.25,0,0,1,1.77,11.68,3.47,3.47,0,0,0,1.59.83,2.22,2.22,0,0,0,1.28-.07,3.42,3.42,0,0,0,.59-1,2.63,2.63,0,0,1,1.43-2.28h0Z" style="fill:url(#e)"/><path d="M21.76,3.18a.55.55,0,0,1-.55.54.54.54,0,0,1-.54-.54.55.55,0,0,1,.54-.55A.55.55,0,0,1,21.76,3.18Z" style="fill:#413f3e"/><path d="M34.25,11.24a.54.54,0,0,1-1.08,0,.54.54,0,1,1,1.08,0Z" style="fill:#413f3e"/><path d="M19.27,35.21c-4-.11-6.6,3.95-6.31,4.09.48.11,1-1,3-2.73.92-.78,3.34-1,3.3-1.31Z" style="fill:#fff"/><path d="M19.31,36.36c-4.27,1.87-5.56,4.85-5.6,7.77H27.06c0-2.26-.14-5.26-3.41-7.6a3,3,0,0,1-2.61.62A4.25,4.25,0,0,1,19.31,36.36Z" style="fill:#e67e71"/><path d="M31.59,23.18a13.6,13.6,0,0,0-2.22-5,4.43,4.43,0,0,0-2.81-1.88,4.44,4.44,0,0,0-3.07.87,14,14,0,0,0-3.06,3.19,24.21,24.21,0,0,1,3.24-2.9,4.11,4.11,0,0,1,2.85-.81,4,4,0,0,1,2.56,1.73A17.27,17.27,0,0,1,31.59,23.18Z" style="fill:#363433"/></svg>