<svg xmlns="http://www.w3.org/2000/svg" viewBox="0 0 48 48"><title>bullhorn</title><path d="M21.35,11.45l-.32.23c-.13.11-.26.21-.38.33a.42.42,0,0,0,.39.72c.13,0,.26-.06.39-.09s.19,0,.18.14a1.69,1.69,0,0,1,0,.23.49.49,0,0,0,.45.62c.75.12,1.5.24,2.24.39a2.33,2.33,0,0,1,1.36.8,1,1,0,0,0,.44.21c.72.2,1.45.37,2.17.6A5.57,5.57,0,0,1,32,19.14c.34.89.64,1.79,1,2.69.06.17.14.34.22.51l.1,0a1.11,1.11,0,0,0,0-.36c-.23-1.06-.46-2.12-.7-3.18a.83.83,0,0,0,0-.15c-.14-.52.18-.85.7-.71.35.09.69.21,1,.32a25.89,25.89,0,0,1,4.48,1.88,10.43,10.43,0,0,1,1,.64,2.52,2.52,0,0,1,1,1.77,1.72,1.72,0,0,0,.16.43v0a6.71,6.71,0,0,1,1.49,3.53,2.55,2.55,0,0,0,.71,1.39,1.47,1.47,0,0,0,2,.13.41.41,0,0,0,.16-.21,1.19,1.19,0,0,1,.71-.83l.52-.29c.09.19.18.35.25.53a.68.68,0,0,1-.15.79,1.3,1.3,0,0,1-.61.35,3.31,3.31,0,0,0-1,.38,1.86,1.86,0,0,1-1.8,0,.42.42,0,0,0-.36,0c-.07,0-.11.21-.1.32a12.54,12.54,0,0,1-.16,3.72,1.08,1.08,0,0,0,.1.67,2.1,2.1,0,0,1,.32,1.7,3.35,3.35,0,0,0,.68,2.67c.27.39.53.78.78,1.19a1.94,1.94,0,0,1,.14,1.44.87.87,0,0,1-.62.53c-.07,0-.15-.08-.22-.13s-.27-.1-.31.1-.09.41-.33.43a3.82,3.82,0,0,1-.83,0c-.05,0-.11-.13-.12-.2-.06-.48-.12-1-.14-1.44a12.39,12.39,0,0,0-.69-3.4c-.16-.47-.26-1-.39-1.45a.48.48,0,0,0,0-.17c-.3-.55-.59-1.12-.93-1.65-.54-.82-1.15-1.6-1.67-2.44a4.83,4.83,0,0,1-.65-2.47c0-.13,0-.26,0-.39l-.07,0a1.79,1.79,0,0,0-.12.24,6.39,6.39,0,0,0-.13,2.22,1.16,1.16,0,0,1-.71,1.18c-.35.19-.7.38-1,.6s-.73.53-1.09.8a.66.66,0,0,0-.13,1,3.31,3.31,0,0,1,.39.45,2.63,2.63,0,0,1,.3.69.72.72,0,0,0,.68.65,2.11,2.11,0,0,1,1.61,1,.84.84,0,0,1,0,1.11,1.51,1.51,0,0,1-1.85.67,3,3,0,0,1-2.22-1.92,1.65,1.65,0,0,0-1.08-1,.68.68,0,0,1-.37-.3c-.34-.69-.65-1.39-1-2.09a1.12,1.12,0,0,1-.1-.31.83.83,0,0,0-.66-.65,12.92,12.92,0,0,0-1.39-.2,16.67,16.67,0,0,1-6.34-1.71,5.89,5.89,0,0,1-2.57-2.54,16.37,16.37,0,0,0-2.77-3.68,16,16,0,0,0-2.7-2.36c-.07-.06-.15-.1-.23-.16a1.49,1.49,0,0,0-1.11-.26c-1.2.14-2.41.25-3.61.39a1.33,1.33,0,0,1-1.45-.71,2.43,2.43,0,0,1-.39-1.62.41.41,0,0,0,0-.19,2.2,2.2,0,0,1,.33-1.86,19.18,19.18,0,0,0,.94-1.8c.14-.29.06-.39-.27-.39A15.53,15.53,0,0,1,4,14.4a4.83,4.83,0,0,1-2.19-1.15,5.11,5.11,0,0,1-.54-.75c0-.06,0-.17,0-.26s.16,0,.23,0a8.34,8.34,0,0,0,4.54,1,10.51,10.51,0,0,0,3.57-.87.45.45,0,0,0,.24-.25,1.49,1.49,0,0,1,.89-.94,3.71,3.71,0,0,1,1.7-.35.64.64,0,0,0,.64-.35,2.3,2.3,0,0,1,1.83-1.12,2.18,2.18,0,0,1,1.37.26.3.3,0,0,0,.21,0A10.85,10.85,0,0,0,19.2,8.38l0,0c.39-.3.4-.51,0-.77s-1-.59-1.46-.89c-.65-.4-1.29-.81-1.93-1.22,0,0-.13-.08-.14-.13s-.07-.26,0-.34A.34.34,0,0,1,16,4.92c.34.13.67.3,1,.45A22.2,22.2,0,0,0,20.84,6.6,3.57,3.57,0,0,1,22,7.1a1.1,1.1,0,0,1,.29,1.77A8.63,8.63,0,0,1,19.83,11a1.83,1.83,0,0,0-.3.18.73.73,0,0,0-.13.23c.08,0,.17.1.25.09l1.48-.06Z" style="fill:#f16a22"/><path d="M23.29,31.61c.61.16,1.18.35,1.77.47,1.43.27,2.87.5,4.31.75a.8.8,0,0,1,.6.39c.46.73.93,1.45,1.42,2.16a3.45,3.45,0,0,1,.49,1.11,3.19,3.19,0,0,0,.5,1.11A7.93,7.93,0,0,0,33.62,39a6.88,6.88,0,0,1,1.66,2.51,4.93,4.93,0,0,1,.22.53.4.4,0,0,1-.24.59,1.83,1.83,0,0,0-.32.14c-.15.08-.27.13-.42,0a.19.19,0,0,0-.33.16c0,.25-.11.36-.32.35a5.06,5.06,0,0,1-.86-.11.32.32,0,0,1-.19-.2,3.29,3.29,0,0,1-.18-.8,3,3,0,0,0-.33-1.33c-.15-.33-.32-.65-.47-1s-.32-.66-.47-1a2.17,2.17,0,0,0-.84-1,1.56,1.56,0,0,1-.64-.75,2.66,2.66,0,0,0-1.58-1.52c-.66-.26-1.33-.51-2-.83a6.46,6.46,0,0,1-2.5-2.31C23.68,32.14,23.49,31.89,23.29,31.61Z" style="fill:#f16a22"/></svg>