<svg xmlns="http://www.w3.org/2000/svg" viewBox="0 0 48 48"><defs><style>.cls-1{fill:#0085d0;}.cls-2{fill:#004da0;}.cls-3{fill:#fff;}</style></defs><title>icon-</title><g id="b-ridge"><path class="cls-1" d="M42.5,6.27A1.27,1.27,0,0,0,41.23,5H10.94A6.34,6.34,0,0,0,5.5,10.72v30A1.27,1.27,0,0,0,6.77,42l5-.06H36.14a6.33,6.33,0,0,0,6.33-6.33V11.27a2.14,2.14,0,0,1,0-.34Z"/><path class="cls-2" d="M35.29,23.76A6.21,6.21,0,0,0,30,22.45a2.1,2.1,0,0,1-2.42-1.51,2.3,2.3,0,0,1,.66-2.19,13,13,0,0,0,1.43-1.28c2.78-2.84,3.9-6.24,2.52-7.58s-4.74-.14-7.52,2.7c-2.07,2.13-3.22,4.56-3.1,6.21h0a4,4,0,0,1-1,2.54,6,6,0,0,1-3,1.76h0c-1.49.1-3.36,1.54-4.68,3.76-1.7,2.86-1.82,5.91-.29,6.82,1.28.76,3.29-.19,4.91-2.17h0l.36-.46a2.47,2.47,0,0,1,2.37-.79c1.6.27,2,2.25,2,2.25v0a6,6,0,0,0,1.93,4c2.82,2.48,7.6,1.65,10.69-1.85s3.3-8.35.49-10.84M23.23,27.59v0s-1.11,1.64-2.55,1.27a1.42,1.42,0,0,1-1.08-1.52h0A6.88,6.88,0,0,0,19.78,26h0a7.45,7.45,0,0,1,1.29-4.05c1.27-1.56,2-1.25,2-1.25h0a4,4,0,0,0,2.08-.17,1.41,1.41,0,0,1,1.34.92c.49,1.27-.49,2.7-1,3.34a11.9,11.9,0,0,0-.87.87,10.32,10.32,0,0,0-1.37,2"/><path class="cls-3" d="M34.52,23.55a6.22,6.22,0,0,0-5.25-1.32,2.08,2.08,0,0,1-2.42-1.5,2.29,2.29,0,0,1,.66-2.19,14.11,14.11,0,0,0,1.43-1.28c2.77-2.84,3.9-6.24,2.52-7.59s-4.75-.13-7.52,2.71c-2.07,2.12-3.22,4.56-3.1,6.21h0a4.05,4.05,0,0,1-1,2.55,6.07,6.07,0,0,1-3,1.76h0c-1.49.11-3.37,1.55-4.68,3.77-1.7,2.85-1.83,5.91-.29,6.82,1.28.76,3.29-.2,4.91-2.17h0c.12-.15.24-.3.35-.46a2.49,2.49,0,0,1,2.38-.79c1.6.27,1.95,2.25,1.95,2.25v0a6,6,0,0,0,1.93,3.95C26.17,38.71,31,37.89,34,34.39s3.3-8.36.48-10.84M22.47,27.37h0S21.35,29,19.92,28.63a1.42,1.42,0,0,1-1.08-1.53h0A6.34,6.34,0,0,0,19,25.73h0a7.51,7.51,0,0,1,1.3-4c1.27-1.56,2-1.25,2-1.25h0a4,4,0,0,0,2.09-.18,1.42,1.42,0,0,1,1.33.93c.49,1.27-.49,2.69-1,3.34a8.93,8.93,0,0,0-.87.87,10.12,10.12,0,0,0-1.37,2"/></g></svg>