<svg xmlns="http://www.w3.org/2000/svg" viewBox="0 0 108 72">
  <defs>
    <style>
      .ab1b9092-6057-4cfb-ac86-1f8eb1c72a08 {
        fill: #666a73;
      }
    </style>
  </defs>
  <title>Calendly</title>
  <g id="a6fd2952-e2e1-4b2e-b82f-08494cca9ffb" data-name="NEED VECTOR">
    <g>
      <path class="ab1b9092-6057-4cfb-ac86-1f8eb1c72a08" d="M22.74,39.49a3.61,3.61,0,1,1-2.26-6.43,3.58,3.58,0,0,1,2.22.77.22.22,0,0,0,.27-.34,4,4,0,1,0,0,6.33.21.21,0,0,0,0-.3A.22.22,0,0,0,22.74,39.49Z"/>
      <path class="ab1b9092-6057-4cfb-ac86-1f8eb1c72a08" d="M44,39.46a3.48,3.48,0,0,1-2.13.73,3.27,3.27,0,1,1,0-6.53,3.4,3.4,0,0,1,2.09.7.33.33,0,0,0,.39-.52A4.09,4.09,0,0,0,41.9,33a3.92,3.92,0,1,0,0,7.83A4.07,4.07,0,0,0,44.42,40a.31.31,0,0,0,.06-.45A.32.32,0,0,0,44,39.46Z"/>
      <path class="ab1b9092-6057-4cfb-ac86-1f8eb1c72a08" d="M28.94,25.56H25.13v-.8a.43.43,0,1,0-.86,0v.8h-9v-.8a.44.44,0,0,0-.87,0v.8H10.71a1.85,1.85,0,0,0-1.85,1.85V45.54a1.86,1.86,0,0,0,1.85,1.86H28.94a1.86,1.86,0,0,0,1.85-1.86V27.41A1.85,1.85,0,0,0,28.94,25.56Zm.57,20a.58.58,0,0,1-.57.57H10.71a.58.58,0,0,1-.57-.57V27.41a.58.58,0,0,1,.57-.57h3.71v1.48a.44.44,0,0,0,.87,0V26.84h9v1.48a.43.43,0,0,0,.86,0V26.84h3.81a.58.58,0,0,1,.57.57Z"/>
      <path class="ab1b9092-6057-4cfb-ac86-1f8eb1c72a08" d="M63.91,33a4,4,0,0,0,0,7.92,3.65,3.65,0,0,0,3.21-2,.31.31,0,1,0-.55-.29,3,3,0,0,1-2.66,1.68A3.2,3.2,0,0,1,60.85,37v-.06h6.41a.33.33,0,0,0,.23-.1.32.32,0,0,0,.08-.24A3.78,3.78,0,0,0,63.91,33Zm-3,3.27a3,3,0,0,1,6,0Z"/>
      <path class="ab1b9092-6057-4cfb-ac86-1f8eb1c72a08" d="M53.57,33.05a.31.31,0,0,0-.32.31v1.48a3.54,3.54,0,0,0-3-1.8,4,4,0,0,0,0,7.91,3.55,3.55,0,0,0,3-1.81v1.33a.32.32,0,0,0,.63,0V33.36A.31.31,0,0,0,53.57,33.05Zm-3.36,7.28a3.35,3.35,0,1,1,3-3.34A3.19,3.19,0,0,1,50.21,40.33Z"/>
      <path class="ab1b9092-6057-4cfb-ac86-1f8eb1c72a08" d="M86.47,29.74a.31.31,0,0,0-.31.31v4.79a3.56,3.56,0,0,0-3-1.8,4,4,0,0,0,0,7.91,3.57,3.57,0,0,0,3-1.81v1.33a.31.31,0,0,0,.31.31.31.31,0,0,0,.31-.31V30.05A.3.3,0,0,0,86.47,29.74ZM83.11,40.33a3.35,3.35,0,1,1,3-3.34A3.19,3.19,0,0,1,83.11,40.33Z"/>
      <path class="ab1b9092-6057-4cfb-ac86-1f8eb1c72a08" d="M57.47,29.63a.31.31,0,0,0-.31.31V40.47a.31.31,0,0,0,.62,0V29.94A.31.31,0,0,0,57.47,29.63Z"/>
      <path class="ab1b9092-6057-4cfb-ac86-1f8eb1c72a08" d="M73.38,33.07a2.94,2.94,0,0,0-2.52,1.22v-.9a.31.31,0,1,0-.62,0v7.08a.31.31,0,0,0,.31.32h0a.31.31,0,0,0,.31-.32s0-3.19,0-4.26a2.47,2.47,0,1,1,4.93.09v4.17a.31.31,0,1,0,.62,0V36.3A3,3,0,0,0,73.38,33.07Z"/>
      <path class="ab1b9092-6057-4cfb-ac86-1f8eb1c72a08" d="M100,40V33.39a.31.31,0,0,0-.31-.32h0a.32.32,0,0,0-.32.32v4.26a2.47,2.47,0,1,1-4.93-.09V33.39a.32.32,0,1,0-.63,0v4.17a3,3,0,0,0,3,3.23,2.9,2.9,0,0,0,2.51-1.22v.12c0,.11,0,.22,0,.33A2.51,2.51,0,0,1,98,42.73a3.54,3.54,0,0,1-3,.18.31.31,0,0,0-.26.57,4.1,4.1,0,0,0,1.6.31,4.15,4.15,0,0,0,2-.51A3.09,3.09,0,0,0,100,40Z"/>
      <path class="ab1b9092-6057-4cfb-ac86-1f8eb1c72a08" d="M90.5,29.74a.31.31,0,0,0-.31.31V40.47a.31.31,0,0,0,.62,0V30.05A.31.31,0,0,0,90.5,29.74Z"/>
    </g>
  </g>
</svg>
