<svg xmlns="http://www.w3.org/2000/svg" viewBox="0 0 48 48">
  <title>icon-camcardbusiness_1</title>
  <g id="Layer_3" data-name="Layer 3">
    <g id="_0lSGAh.tif" data-name="0lSGAh.tif">
      <g>
        <path d="M7,38.67V9.31a.39.39,0,0,0,.06-.11A2.67,2.67,0,0,1,9.85,7h28.3a3.72,3.72,0,0,1,.88.11,2.65,2.65,0,0,1,2,2.68V38.41a2.7,2.7,0,0,1-2.07,2.51l-.24.08H9.32l0,0A2.81,2.81,0,0,1,7,38.7S7,38.68,7,38.67ZM23.61,16.44a6.65,6.65,0,0,0-12,4.32,6.71,6.71,0,0,0,5,6.09,6.58,6.58,0,0,0,7-2.48l-2.39-1.8a3.62,3.62,0,1,1,0-4.34ZM34,22.57a3.62,3.62,0,1,1,0-4.33l2.4-1.8A6.64,6.64,0,0,0,24.41,21a6.68,6.68,0,0,0,5.53,6,6.46,6.46,0,0,0,6.4-2.61ZM12.08,33.9c.58,0,1.16,0,1.74,0a1.1,1.1,0,0,0,.52-.19.65.65,0,0,0-.06-1.16L14,32.41c.32-.14.57-.31.52-.68a.62.62,0,0,0-.58-.59c-.62,0-1.24,0-1.86,0,.34.05.36.28.35.54v1.7C12.43,33.62,12.42,33.85,12.08,33.9ZM30,31.12H27.66c.29.07.34.25.34.5,0,.59,0,1.18,0,1.76,0,.26,0,.47-.36.47,0,0,.05.07.06.07h2.22a.21.21,0,0,0,.15-.1c.05-.25.08-.51.12-.77-.1,0-.12,0-.14.08a.93.93,0,0,1-1.07.6.37.37,0,0,1-.25-.22c0-.3,0-.61,0-.92.46,0,.46.36.64.69v-1.5c-.16.25-.18.62-.62.58V31.31c.56-.07,1,0,1.23.59Zm-5.93,0a.65.65,0,0,1,.37.68c0,.49,0,1,0,1.49,0,.29,0,.55-.36.64H25c-.33-.08-.39-.3-.37-.59s0-.42,0-.63v-.89h.07L26.47,34l.09,0v-2c0-.31,0-.64.43-.79h-.91c.1.13.27.26.29.4,0,.39,0,.79,0,1.28-.44-.56-.82-1-1.21-1.51-.07-.08-.16-.18-.25-.19C24.63,31.08,24.33,31.09,24,31.09Zm-3.13.08a3.15,3.15,0,0,1-.53-.08.94.94,0,0,0-1.2.42.87.87,0,0,0,.44,1.12l.29.16a1.52,1.52,0,0,1,.45.26c.12.13.25.36.2.47a.61.61,0,0,1-.46.28.81.81,0,0,1-.78-.55c-.05-.1-.09-.21-.13-.31h-.06v.92a3.25,3.25,0,0,1,.59.06c.75.23,1.43-.2,1.38-.89a.94.94,0,0,0-.56-.73c-.24-.15-.52-.26-.74-.43a.46.46,0,0,1-.16-.41.54.54,0,0,1,.37-.24.7.7,0,0,1,.71.45c.05.09.09.19.13.28h.06Zm-3.52-.07c.12.13.3.24.3.36,0,.61,0,1.22,0,1.82a.6.6,0,0,1-.7.47c-.31,0-.47-.18-.48-.55s0-1,0-1.46c0-.29,0-.56.37-.62H15.45c.26.08.32.24.31.49,0,.48,0,1,0,1.46a.81.81,0,0,0,.63.87,2.37,2.37,0,0,0,.88,0,.78.78,0,0,0,.63-.79c0-.44,0-.89,0-1.33,0-.29,0-.57.33-.71Zm13.72,2.81a2.46,2.46,0,0,1,.55,0,1.28,1.28,0,0,0,1-.06.82.82,0,0,0,.07-1.41c-.29-.21-.64-.35-.93-.56-.11-.08-.23-.31-.19-.4a.62.62,0,0,1,.4-.26.7.7,0,0,1,.7.46l.14.27,0,0v-.77a3.51,3.51,0,0,1-.53-.08.87.87,0,0,0-1.25.85.91.91,0,0,0,.51.69,6,6,0,0,1,.74.44.55.55,0,0,1,.18.47.6.6,0,0,1-.43.26.81.81,0,0,1-.81-.57l-.14-.29-.05,0Zm2.87,0,.59,0a3.18,3.18,0,0,0,.62,0,.86.86,0,0,0,.76-.64.79.79,0,0,0-.35-.89c-.2-.14-.43-.24-.63-.37a2.17,2.17,0,0,1-.39-.25.33.33,0,0,1,.17-.58.76.76,0,0,1,.84.44c0,.09.09.19.13.28h0V31c-.2.35-.39.14-.57.09a.92.92,0,0,0-1.14.42.83.83,0,0,0,.37,1.08l.31.19a1.79,1.79,0,0,1,.49.28c.11.12.24.36.19.48a.56.56,0,0,1-.46.27.82.82,0,0,1-.77-.57,2.71,2.71,0,0,1-.13-.3L34,33Zm-12.07,0h1.4c-.33-.06-.37-.27-.36-.54q0-.8,0-1.59c0-.29,0-.57.35-.65H21.92c.31.06.33.29.33.53v1.73C22.25,33.63,22.22,33.84,21.91,33.9Z" style="fill: #4d5a74"/>
        <path d="M23.61,16.44l-2.4,1.79a3.63,3.63,0,1,0,0,4.34l2.39,1.8a6.58,6.58,0,0,1-7,2.48,6.65,6.65,0,0,1-.34-12.78A6.61,6.61,0,0,1,23.61,16.44Z" style="fill: #fff"/>
        <path d="M34,22.57l2.38,1.79A6.46,6.46,0,0,1,29.94,27a6.65,6.65,0,0,1-1-12.88,6.59,6.59,0,0,1,7.39,2.35L34,18.24a3.62,3.62,0,1,0,0,4.33Z" style="fill: #fff"/>
        <path d="M12.08,33.9c.34,0,.35-.28.35-.53v-1.7c0-.26,0-.49-.35-.54.62,0,1.24,0,1.86,0a.62.62,0,0,1,.58.59c.05.37-.2.54-.52.68l.28.14a.65.65,0,0,1,.06,1.16,1.1,1.1,0,0,1-.52.19C13.24,33.92,12.66,33.9,12.08,33.9Zm1-1.31c0,.28,0,.57,0,.85s.13.37.4.27a.57.57,0,0,0,.37-.69C13.81,32.68,13.58,32.54,13.12,32.59Zm0-.25c.48,0,.68-.2.66-.57s-.22-.49-.66-.45Z" style="fill: #fff"/>
        <path d="M30,31.12v.78c-.2-.64-.67-.66-1.23-.59v1.06c.44,0,.46-.33.62-.58v1.5c-.18-.33-.18-.71-.64-.69,0,.31,0,.62,0,.92a.37.37,0,0,0,.25.22.93.93,0,0,0,1.07-.6s0-.06.14-.08c0,.26-.07.52-.12.77a.21.21,0,0,1-.15.1H27.7s0,0-.06-.07c.33,0,.36-.21.36-.47,0-.58,0-1.17,0-1.76,0-.25-.05-.43-.34-.5Z" style="fill: #fff"/>
        <path d="M24,31.09c.29,0,.59,0,.88,0,.09,0,.18.11.25.19.39.47.77,1,1.21,1.51,0-.49,0-.89,0-1.28,0-.14-.19-.27-.29-.4H27c-.48.15-.43.48-.43.79v2l-.09,0-1.8-2.22H24.6v.89c0,.21,0,.42,0,.63s0,.51.37.59H24c.35-.09.37-.35.36-.64,0-.5,0-1,0-1.49A.65.65,0,0,0,24,31.09Z" style="fill: #fff"/>
        <path d="M20.91,31.17V32h-.06c0-.09-.08-.19-.13-.28a.7.7,0,0,0-.71-.45.54.54,0,0,0-.37.24.46.46,0,0,0,.16.41c.22.17.5.28.74.43a.94.94,0,0,1,.56.73c0,.69-.63,1.12-1.38.89a3.25,3.25,0,0,0-.59-.06V33h.06c0,.1.08.21.13.31a.81.81,0,0,0,.78.55.61.61,0,0,0,.46-.28c.05-.11-.08-.34-.2-.47a1.52,1.52,0,0,0-.45-.26l-.29-.16a.87.87,0,0,1-.44-1.12.94.94,0,0,1,1.2-.42A3.15,3.15,0,0,0,20.91,31.17Z" style="fill: #fff"/>
        <path d="M17.39,31.1h.87c-.34.14-.33.42-.33.71,0,.44,0,.89,0,1.33a.78.78,0,0,1-.63.79,2.37,2.37,0,0,1-.88,0,.81.81,0,0,1-.63-.87c0-.49,0-1,0-1.46,0-.25,0-.41-.31-.49h1.38c-.36.06-.37.33-.37.62,0,.48,0,1,0,1.46s.17.53.48.55a.6.6,0,0,0,.7-.47c0-.6,0-1.21,0-1.82C17.69,31.34,17.51,31.23,17.39,31.1Z" style="fill: #fff"/>
        <path d="M31.11,33.91V33l.05,0,.14.29a.81.81,0,0,0,.81.57.6.6,0,0,0,.43-.26.55.55,0,0,0-.18-.47,6,6,0,0,0-.74-.44.91.91,0,0,1-.51-.69.87.87,0,0,1,1.25-.85,3.51,3.51,0,0,0,.53.08v.77l0,0-.14-.27a.7.7,0,0,0-.7-.46.62.62,0,0,0-.4.26c0,.09.08.32.19.4.29.21.64.35.93.56a.82.82,0,0,1-.07,1.41,1.28,1.28,0,0,1-1,.06A2.46,2.46,0,0,0,31.11,33.91Z" style="fill: #fff"/>
        <path d="M34,33.88V33l.07,0a2.71,2.71,0,0,0,.13.3.82.82,0,0,0,.77.57.56.56,0,0,0,.46-.27c.05-.12-.08-.36-.19-.48a1.79,1.79,0,0,0-.49-.28l-.31-.19a.83.83,0,0,1-.37-1.08.92.92,0,0,1,1.14-.42c.18.05.37.26.57-.09v1h0c0-.09-.08-.19-.13-.28a.76.76,0,0,0-.84-.44.33.33,0,0,0-.17.58,2.17,2.17,0,0,0,.39.25c.2.13.43.23.63.37a.79.79,0,0,1,.35.89.86.86,0,0,1-.76.64,3.18,3.18,0,0,1-.62,0Z" style="fill: #fff"/>
        <path d="M21.91,33.9c.31-.06.34-.27.34-.52V31.65c0-.24,0-.47-.33-.53H23.3c-.37.08-.36.36-.35.65q0,.79,0,1.59c0,.27,0,.48.36.54Z" style="fill: #fff"/>
        <path d="M13.12,32.59c.46-.05.69.09.77.43a.57.57,0,0,1-.37.69c-.27.1-.4,0-.4-.27S13.12,32.87,13.12,32.59Z" style="fill: #4d5a74"/>
        <path d="M13.14,32.34v-1c.44,0,.64.1.66.45S13.62,32.32,13.14,32.34Z" style="fill: #4d5a74"/>
      </g>
    </g>
  </g>
</svg>
