<svg id="Layer_1" data-name="Layer 1" xmlns="http://www.w3.org/2000/svg" viewBox="0 0 48 48"><defs><style>.cls-1{fill:#349dcc;}.cls-2{fill:#75c8dc;}</style></defs><title>campaignmonitor</title><path class="cls-1" d="M42.4,10.6,25.22,22.08a3.06,3.06,0,0,1-3.69,0L5.6,10.6a1.51,1.51,0,0,0-1.51,1.5V35.91A1.52,1.52,0,0,0,5.6,37.42H42.4a1.52,1.52,0,0,0,1.51-1.51V12.1A1.51,1.51,0,0,0,42.4,10.6Z"/><path class="cls-2" d="M4.09,35.91A1.52,1.52,0,0,0,5.6,37.42H42.4a1.52,1.52,0,0,0,1.51-1.51v-24a1.34,1.34,0,0,0-2.09-1.11Z"/></svg>