<svg id="Layer_1" data-name="Layer 1" xmlns="http://www.w3.org/2000/svg" viewBox="0 0 48 48"><defs><style>.cls-1{fill:#3e476a;}.cls-2{fill:#de2179;}.cls-3{fill:#42ba9b;}</style></defs><title>CapsuleCRM0</title><polygon class="cls-1" points="3.44 36.24 8.68 36.24 8.68 32.95 15.38 32.95 15.38 36.24 20.62 36.24 20.62 10.94 3.44 10.94 3.44 36.24"/><path class="cls-1" d="M29.8,3.88h0a1.44,1.44,0,0,0-1.43,1.44h0A1.44,1.44,0,0,0,29.8,6.76h0a1.44,1.44,0,0,0,1.44-1.44h0A1.44,1.44,0,0,0,29.8,3.88Z"/><path class="cls-1" d="M29.8,10.51h0A1.44,1.44,0,0,0,28.37,12h0a1.44,1.44,0,0,0,1.43,1.44h0A1.44,1.44,0,0,0,31.24,12h0A1.44,1.44,0,0,0,29.8,10.51Z"/><path class="cls-1" d="M29.8,17.14h0a1.44,1.44,0,0,0,0,2.88h0a1.44,1.44,0,0,0,0-2.88Z"/><path class="cls-1" d="M36.56,3.88h0a1.45,1.45,0,0,0-1.44,1.44h0a1.45,1.45,0,0,0,1.44,1.44h0A1.45,1.45,0,0,0,38,5.32h0A1.45,1.45,0,0,0,36.56,3.88Z"/><path class="cls-1" d="M36.56,10.51h0A1.45,1.45,0,0,0,35.12,12h0a1.45,1.45,0,0,0,1.44,1.44h0A1.45,1.45,0,0,0,38,12h0A1.45,1.45,0,0,0,36.56,10.51Z"/><path class="cls-1" d="M36.56,17.14h0a1.44,1.44,0,0,0,0,2.88h0a1.44,1.44,0,1,0,0-2.88Z"/><path class="cls-1" d="M43.2,3.88h0a1.45,1.45,0,0,0-1.44,1.44h0A1.45,1.45,0,0,0,43.2,6.76h0a1.45,1.45,0,0,0,1.44-1.44h0A1.43,1.43,0,0,0,43.2,3.88Z"/><path class="cls-1" d="M43.2,10.51h0A1.45,1.45,0,0,0,41.76,12h0a1.45,1.45,0,0,0,1.44,1.44h0A1.45,1.45,0,0,0,44.64,12h0A1.43,1.43,0,0,0,43.2,10.51Z"/><path class="cls-1" d="M43.2,17.14h0a1.44,1.44,0,0,0,0,2.88h0a1.44,1.44,0,1,0,0-2.88Z"/><path class="cls-2" d="M12.22,27.44a8.6,8.6,0,1,0,8.4,8.8A8.6,8.6,0,0,0,12.22,27.44ZM14.9,39.12H9.14V33.37H14.9Z"/><circle class="cls-3" cx="12.02" cy="11.25" r="8.6"/><path class="cls-3" d="M27.67,25.81V43.54H45.39V25.81ZM41.79,38.67H31.27v-2.2H41.79Zm0-5.81H31.27V30.67H41.79Z"/></svg>