<svg id="Layer_1" data-name="Layer 1" xmlns="http://www.w3.org/2000/svg" viewBox="0 0 48 48">
  <title>chargebee</title>
  <g id="_95mYV8.tif" data-name="95mYV8.tif">
    <g>
      <path d="M26.59,3.29c.2,0,.39,0,.59.06a20.6,20.6,0,0,1,14,6.23,4,4,0,0,1-1.72,6.69,3.81,3.81,0,0,1-3.88-1.08,12.19,12.19,0,0,0-5-3.22,12.49,12.49,0,0,0-12.84,2.64,12.2,12.2,0,0,0-4.07,7.76,12.76,12.76,0,0,0,9.74,14.1,12.49,12.49,0,0,0,8.21-.79c.61-.27,1.17,0,1.21.57a.73.73,0,0,1-.46.76,13.83,13.83,0,0,1-4,1.19,14.55,14.55,0,0,1-4.61-.1,1.27,1.27,0,0,0-.22,0c.33.48.63.94,1,1.39a.5.5,0,0,0,.29.09,15.53,15.53,0,0,0,12.63-4.5,1.26,1.26,0,0,1,1-.45,1.09,1.09,0,0,1,1,.7,1.07,1.07,0,0,1-.24,1.22,17.62,17.62,0,0,1-6.36,4.2,17.22,17.22,0,0,1-6,1.17H25.61L26,43.24l2.21-.11.34,0a.72.72,0,0,1,.82.66.71.71,0,0,1-.7.85c-1.21,0-2.43.15-3.64.09a19.42,19.42,0,0,1-9.08-2.75,20.5,20.5,0,0,1-10-14.28c-.13-.69-.17-1.39-.26-2.09a1.6,1.6,0,0,0,0-.21V22.71a2.25,2.25,0,0,0,0-.22c.07-.58.11-1.17.2-1.74A20.39,20.39,0,0,1,13.28,8a20.22,20.22,0,0,1,12.2-4.61,4.93,4.93,0,0,0,.54,0Z" style="fill: #ff6c36"/>
      <path d="M31.23,24a4.9,4.9,0,1,1-4.86-4.89A4.9,4.9,0,0,1,31.23,24Z" style="fill: #ff6c36"/>
      <path d="M38.11,39.29a.79.79,0,0,1,.83.5.71.71,0,0,1-.29.88c-.89.58-1.78,1.18-2.7,1.69a19.21,19.21,0,0,1-4.8,1.81c-.64.16-1.09-.18-1-.79,0-.34.24-.56.64-.68.8-.23,1.6-.45,2.39-.73a18.16,18.16,0,0,0,4.46-2.41A3.3,3.3,0,0,1,38.11,39.29Z" style="fill: #ff6c36"/>
      <path d="M33.2,35.13a2.34,2.34,0,0,1,.37-.54c.67-.6,1.36-1.18,2-1.77a.77.77,0,0,1,1.09,0,.72.72,0,0,1,0,1.07c-.71.65-1.45,1.27-2.2,1.89a.69.69,0,0,1-.84,0A.89.89,0,0,1,33.2,35.13Z" style="fill: #ff6c36"/>
      <path d="M39.08,33.39a1.12,1.12,0,0,1,1.13-1.12,1.14,1.14,0,0,1,1.13,1.14,1.12,1.12,0,0,1-1.13,1.13A1.11,1.11,0,0,1,39.08,33.39Z" style="fill: #ff6c36"/>
      <path d="M40,39.36a.79.79,0,0,1-.74-.47.72.72,0,0,1,.15-.83c.29-.3.59-.6.9-.89a.76.76,0,0,1,1,0,.7.7,0,0,1,.13,1,11.68,11.68,0,0,1-1,1.06A1.24,1.24,0,0,1,40,39.36Z" style="fill: #ff6c36"/>
    </g>
  </g>
</svg>
