<svg data-name="Icons" xmlns="http://www.w3.org/2000/svg" viewBox="0 0 108 72"><path d="M53.62 41c.31 0 .62.51.8.71C50.19 46.2 42 45.33 39.1 39.74c-2.75-5.39-.89-13.08 5.21-15.11a10.08 10.08 0 0 1 9.87 1.92c-.14.2-.29.57-.51.7-.47.27-.94-.3-1.32-.56a7.84 7.84 0 0 0-3.75-1.29 8.23 8.23 0 0 0-7.6 3.26c-3.21 4.61-1.77 12.72 4.1 14.35a9.68 9.68 0 0 0 4.84 0 7.34 7.34 0 0 0 2-.82C52.31 42 53.13 41 53.62 41zm5.23 3.36V23.78h1.34v20.55zm12-.87c3.53 0 5-3 5-6.16s-1.57-6.33-5.19-6.21-4.89 3.23-4.85 6.35 1.58 5.99 5.03 5.99zm0-13.41a6.1 6.1 0 0 1 6.1 4.71c.69 2.67.36 6.13-1.71 8.13a6.74 6.74 0 0 1-7.94.67c-2.47-1.57-3.1-4.77-2.8-7.5.37-3.48 2.76-6.04 6.34-6.04zm17.67 2c-.27.53-1.08-.23-1.36-.38a5 5 0 0 0-1.5-.5 4 4 0 0 0-3.79 1.13c-2.62 3.24 3.5 4.15 5.21 5a3.29 3.29 0 0 1 2.07 2.79 4.11 4.11 0 0 1-1.62 3.51c-2.31 1.72-5.75 1.11-7.78-.72.17-.26.36-.7.72-.71s1.24.79 1.63 1a5 5 0 0 0 4.07.08 2.93 2.93 0 0 0 1.54-3.67c-.67-1.37-2.63-1.69-3.92-2.1s-2.71-.87-3.39-2.11a3.37 3.37 0 0 1 .6-3.87c2-2.19 5.81-1.83 7.83 0zm9.24-1c-2.86 0-4.65 2.11-5 4.83H102c0-2.6-1.51-4.86-4.25-4.86zm0-1c3.28 0 5.45 2.62 5.51 5.79 0 .71-.08.85-.68.91s-1.14 0-1.7 0h-8.16c0 2.7.8 5.76 3.76 6.52a6.46 6.46 0 0 0 4.24-.42c.4-.18 1.12-.87 1.54-.89s.51.29.74.56c-1.35 1.69-4.2 2.22-6.23 1.92a6 6 0 0 1-4.88-4.09c-1.6-4.53.43-10.33 5.83-10.33z" fill="#262e39"/><path d="M31.65 35.55a5.45 5.45 0 0 0-1.78-4.42 12.72 12.72 0 0 0-5.13-2.52 10.71 10.71 0 0 0 .47 2.17 1.63 1.63 0 0 0 .92.59 8.85 8.85 0 0 1 3.49 2.16c1.08 1.2.76 2.22-.35 3.24-.42.38-.73.57-.66 1.14s.41 1 .51 1.55a5.08 5.08 0 0 0 2.53-3.91M15.44 42c-.46-.36-.91-.75-1.36-1.16.08.29.07.82.3 1s.76.11 1.06.14m2.38-.89a3.83 3.83 0 0 0 2.75 1 21.15 21.15 0 0 0 3.36-.52c.54-.12 1.06-.27 1.59-.43a4.47 4.47 0 0 0 1.5-.58c.48-.52-.14-1.57-.37-2.14a21.81 21.81 0 0 1-10.33 1.47c.49.42 1 .82 1.5 1.18M9.72 30.6q.15.49.33 1a21.81 21.81 0 0 1 10.33-1.47 9.75 9.75 0 0 0-3.06-2.15 7.87 7.87 0 0 0-3.5.26A21.66 21.66 0 0 0 10 29.26c-.24.09-.51.1-.6.35s.21.76.28 1M21.27 28c.45.36.91.75 1.35 1.16-.07-.29-.06-.81-.3-1s-.76-.16-1.05-.16M6.23 35c.26-1 1-1.4 1.62-2.17s-.12-1.54-.26-2.29c-2.26 1.56-3.43 4.61-1.9 7.09 1.31 2.12 4 3.13 6.28 3.76a16.49 16.49 0 0 0-.42-2.18c-.26-.53-1.11-.6-1.64-.83-1.46-.66-3.26-1.7-3.68-3.38" fill="#2f577e"/><path d="M21.27 42c-.58.06-1.17.11-1.78.14.26.15.62.52.93.51s.62-.47.85-.65m6.88-16a5.39 5.39 0 0 0-4.28-1.88A12.59 12.59 0 0 0 18.35 26c.59.33 1.35 1.21 2 1.32.5.09 1.56-.65 2.09-.82 1.39-.46 3.14-.84 4.48 0" fill="#f4b563"/><path d="M26.92 26.43c.56.93.25 1.76.39 2.73.12.72 1.24 1 1.81 1.38.31-1.73.16-3.8-1.4-4.91m-5.44 14.05a3.68 3.68 0 0 0 2.47-1 22 22 0 0 0 2.19-3A11.42 11.42 0 0 0 28.39 33c.22-.83-1.11-1.19-1.74-1.47a21.67 21.67 0 0 1-6.27 8.35c.65 0 1.29-.13 1.9-.23M15.44 28c.57-.07 1.17-.11 1.77-.14-.25-.15-.62-.53-.93-.51s-.61.46-.84.65M9.78 43.57c-.55-.93-.24-1.76-.39-2.73-.11-.72-1.24-1-1.8-1.38a5.41 5.41 0 0 0 3.09 6.18c2.53 1 5.48-.36 7.67-1.61-.58-.33-1.34-1.21-2-1.32-.49-.09-1.55.65-2.09.83-1.39.45-3.13.84-4.48 0M9.14 38c.3.16.6.3.91.44a21.77 21.77 0 0 1 6.27-8.35 10.23 10.23 0 0 0-3.65.63 5.9 5.9 0 0 0-1.93 2.1 26.54 26.54 0 0 0-2 3.22c-.14.28-.57.94-.51 1.27s.62.54.9.69" fill="#f4b563"/><path d="M11.31 37.92c-.06-.58-.11-1.18-.14-1.78-.15.26-.52.62-.5.93s.46.61.64.85M9.78 26.43c.93-.55 1.76-.24 2.73-.39.73-.11 1-1.24 1.38-1.8-1.73-.32-3.79-.16-4.91 1.39a3.62 3.62 0 0 1 .36-.42 5.36 5.36 0 0 0-1.88 4.27A12.5 12.5 0 0 0 9.32 35c.33-.58 1.21-1.34 1.33-2 .08-.49-.66-1.56-.83-2.09-.46-1.39-.84-3.13 0-4.48m15.57 5.65c.07.58.11 1.18.14 1.78.15-.26.53-.62.51-.93s-.46-.62-.65-.85M23 31.07a3.64 3.64 0 0 0-1-2.46 21.23 21.23 0 0 0-3-2.2A11 11 0 0 0 16.38 25c-.83-.23-1.19 1.1-1.47 1.73A21.67 21.67 0 0 1 23.26 33c-.05-.65-.13-1.28-.23-1.9m-9.36 7.83a4 4 0 0 0 1 2.45 17 17 0 0 0 3 2.21A10.8 10.8 0 0 0 20.32 45c.84.23 1.19-1.1 1.47-1.73A21.64 21.64 0 0 1 13.45 37c.05.65.12 1.28.22 1.9m13.69 5.89a5.4 5.4 0 0 0 1.89-4.27A12.73 12.73 0 0 0 27.38 35c-.3.54-1.08 1.31-1.22 1.91s.31 1.08.49 1.53a6.94 6.94 0 0 1 .6 4.27c-.28 1-1.14 1.28-2.12 1.3a6.45 6.45 0 0 0-1-.09c-.33.08-.15 0-.38.27-.38.48-.55 1.07-.9 1.57a5 5 0 0 0 4.55-1" fill="#5cafcd"/><path d="M12.26 34.47a3.86 3.86 0 0 0-1 2.75 23.71 23.71 0 0 0 .52 3.36c.13.53.27 1.06.44 1.58a4 4 0 0 0 .58 1.5c.51.49 1.56-.14 2.13-.36A21.68 21.68 0 0 1 13.45 33c-.43.49-.82 1-1.19 1.5m13.13 3.42c-.36.45-.75.9-1.16 1.35.29-.08.82-.07 1-.3s.11-.76.14-1m-14.06-5.89c.36-.45.75-.9 1.16-1.35-.29.08-.81.07-1 .3s-.11.76-.14 1m13.11 3.5a3.8 3.8 0 0 0 1-2.74 21.45 21.45 0 0 0-.52-3.37c-.12-.53-.26-1.06-.43-1.58a4.47 4.47 0 0 0-.58-1.5c-.52-.49-1.57.14-2.14.36A21.81 21.81 0 0 1 23.26 37c.42-.49.82-1 1.18-1.5m-1.63-11.26c-1.55-2.26-4.61-3.43-7.09-1.9-2.12 1.31-3.13 4-3.75 6.27.64-.17 1.28-.28 1.93-.4s.57-.28.77-.85a9.72 9.72 0 0 1 1.79-3.2c1-1.11 2.05-1.57 3.27-.51.31.26.53.75.84 1s.56.05 1.08-.11M17.8 48.3a5.47 5.47 0 0 0 4.43-1.78 12.89 12.89 0 0 0 2.51-5.13c-.65.15-1.3.3-1.95.43s-.59.38-.87 1a10.13 10.13 0 0 1-2 3.38c-1 1-1.91 1.15-3 .17-.31-.27-.74-1.1-1.09-1.16a3.17 3.17 0 0 0-.65.25c-.43.14-.87.23-1.32.34a5.07 5.07 0 0 0 3.94 2.5" fill="#47b178"/></svg>
