<svg xmlns="http://www.w3.org/2000/svg" viewBox="0 0 48 48"><title>cloudsign</title><path d="M37,18.87a13,13,0,0,0-25.54-.26,8.69,8.69,0,0,0-7.88,8.65,9,9,0,0,0,7.19,8.68l-.08-3a5.94,5.94,0,0,1-1-.38,5.89,5.89,0,0,1,2-11.17l2.09-.19.39-2.06a10.18,10.18,0,0,1,20-.16,9.2,9.2,0,0,0-1.73.56l1,2.52a6,6,0,0,1,3.37-.32,5.6,5.6,0,0,1,4.69,5.65c0,2.72-1.78,5.47-4.43,6l-1.24.2H27.07L25.48,36h9.84l.57-.05v0A8.57,8.57,0,0,0,37,18.87Z" style="fill:#00a0dd"/><polygon points="18.19 35.95 18.19 32.21 24 22.02 27.84 24.35 22.12 34.74 18.19 35.95" style="fill:#00a0dd"/></svg>