<svg xmlns="http://www.w3.org/2000/svg" viewBox="0 0 48 48"><title>cloudant</title><path d="M44.57,24.27c0,10.65-8.9,19.29-19.87,19.29S4.82,34.92,4.82,24.27,13.72,5,24.7,5s19.87,8.63,19.87,19.28" style="fill:#72c7e6"/><path d="M11.9,22.31s-.8-4,7.3-4.91c.34-5.35,19.18-5.47,14.48,1.34,3.48,1.2,2.92,3.63,2.92,3.63A3.54,3.54,0,0,1,35.53,25C34.32,26.24,33,27,29,27a14.6,14.6,0,0,1-6.63-1.15c-3.65.76-7.6,0-8.8-.91-2-1.53-1.65-2.64-1.65-2.64" style="fill:#fff"/><path d="M11.9,22.31V28.5s.42,5.59,10.59,3.39c4.05,3,13.39,1.07,14.11-2.44V22.37c.06,1.73-8,6.43-14,2.38-9,2-10.65-2.44-10.65-2.44" style="fill:#002c77"/></svg>