<svg id="0380893e-64d5-4366-b59f-e26240f24706" data-name="Icons" xmlns="http://www.w3.org/2000/svg" viewBox="0 0 108 72">
  <title>codat</title>
  <g>
    <path d="M10.46,23.08H34.59V47.31H11c-.37,0-.52-.07-.52-.49q0-11.65,0-23.3C10.44,23.4,10.45,23.27,10.46,23.08Zm1.87,1.86V45.41H32.74V24.94Z"/>
    <path d="M74,43a14.2,14.2,0,0,1-5.75.51,5.09,5.09,0,0,1-4.36-4.36,7.67,7.67,0,0,1,.3-4.11,4.87,4.87,0,0,1,6.26-3l1,.35V27L74,26.59Zm-2.6-5V35.82c0-1.32,0-1.34-1.31-1.68A2.61,2.61,0,0,0,66.63,36a6,6,0,0,0-.09,2.74,2.92,2.92,0,0,0,3.19,2.58c.4,0,.81-.07,1.22-.09s.46-.15.45-.51C71.38,39.82,71.39,38.88,71.39,38Z"/>
    <path d="M50.6,37.71a6.22,6.22,0,0,1,2.1-4.77,5.43,5.43,0,0,1,8.8,3.38,6.58,6.58,0,0,1-.78,4.85,5.12,5.12,0,0,1-5.29,2.4A5,5,0,0,1,51,40,16.88,16.88,0,0,1,50.6,37.71Zm2.78,0a4.72,4.72,0,0,0,.52,2.4,2.53,2.53,0,0,0,4.41.1,4.81,4.81,0,0,0,0-4.89,2.54,2.54,0,0,0-4.29-.23A4.2,4.2,0,0,0,53.38,37.67Z"/>
    <path d="M83.23,36.62c.26-1.62-.57-2.68-2.15-2.66-1,0-2,.17-3.09.27l-.3-1.93a3.45,3.45,0,0,1,.42-.14,11.7,11.7,0,0,1,4-.34,3.63,3.63,0,0,1,3.59,3.46,5.83,5.83,0,0,1,.06.72c0,2.22,0,4.44,0,6.66,0,.26,0,.42-.33.47a20.56,20.56,0,0,1-4.82.39,7.41,7.41,0,0,1-1.87-.33A3.06,3.06,0,0,1,76.59,40a3,3,0,0,1,2-3.12,7.42,7.42,0,0,1,4-.37Zm0,3.29h0c0-.36,0-.73,0-1.09s-.11-.43-.37-.44a18.26,18.26,0,0,0-2.34,0,1.44,1.44,0,0,0-1.36,1.49,1.36,1.36,0,0,0,1.3,1.51,14.67,14.67,0,0,0,2.48,0c.1,0,.26-.23.27-.36A10.63,10.63,0,0,0,83.27,39.91Z"/>
    <path d="M88.94,29.06l2.58-.42V32h4.06v2.15H91.64c0,.08-.08.1-.08.12,0,1.71,0,3.42,0,5.12.06,1.49.77,2,2.25,1.91.6-.06,1.18-.21,1.81-.33.12.57.26,1.16.36,1.75a.41.41,0,0,1-.21.31,6.85,6.85,0,0,1-4.53.24,3.07,3.07,0,0,1-2.15-2.56A9,9,0,0,1,88.93,39q0-4.83,0-9.66C88.92,29.29,88.93,29.2,88.94,29.06Z"/>
    <path d="M49.29,32.34l-.53,2A19.87,19.87,0,0,0,46.55,34a2.8,2.8,0,0,0-3.16,2.62,7.71,7.71,0,0,0,0,2.3c.3,1.68,1.47,2.5,3.34,2.4.77,0,1.54-.22,2.35-.33.1.57.22,1.19.31,1.81a.4.4,0,0,1-.18.3,7.55,7.55,0,0,1-6.3-.42,4.3,4.3,0,0,1-1.82-2.19,7.23,7.23,0,0,1-.14-5.1,5.32,5.32,0,0,1,5.63-3.64,18.26,18.26,0,0,1,1.92.31A7.31,7.31,0,0,1,49.29,32.34Z"/>
    <path d="M13.85,30.15l1.61,1.07q2.41,1.61,4.84,3.2a.66.66,0,0,1,.34.66c0,.73,0,1.47,0,2.3l-1.25-.85L14.21,33a.73.73,0,0,1-.37-.7C13.87,31.59,13.85,30.92,13.85,30.15Z"/>
    <path d="M31.14,37.28c0,.83,0,1.58,0,2.33a.42.42,0,0,1-.17.28c-2.17,1.51-4.33,3-6.61,4.59V43.4c0-.54-.16-1.17.07-1.6s.84-.65,1.29-.95l5-3.32Z"/>
    <path d="M16.25,28.86l4.38-2.93c0,.95,0,1.79,0,2.62a.41.41,0,0,1-.19.28c-.62.43-1.24.86-1.87,1.27a.45.45,0,0,1-.36,0C17.56,29.72,16.94,29.3,16.25,28.86Z"/>
    <path d="M28.72,36l-2.1,1.37c-.71-.49-1.42-1-2.11-1.46a.37.37,0,0,1-.15-.26c0-.84,0-1.68,0-2.61Z"/>
  </g>
</svg>
