<svg xmlns="http://www.w3.org/2000/svg" xmlns:xlink="http://www.w3.org/1999/xlink" viewBox="0 0 48 48"><defs><linearGradient id="linear-gradient" x1="41.72" y1="1444.68" x2="17.09" y2="1458.84" gradientTransform="matrix(1, 0, 0, -1, 0, 1490)" gradientUnits="userSpaceOnUse"><stop offset="0.18" stop-color="#0052cc"/><stop offset="1" stop-color="#2684ff"/></linearGradient><linearGradient id="linear-gradient-2" x1="-1201.44" y1="2219.42" x2="-1226.08" y2="2233.58" gradientTransform="matrix(-1, 0, 0, 1, -1195.17, -2216.71)" xlink:href="#linear-gradient"/></defs><title>confluence</title><g id="Salesforce_Pardot" data-name="Salesforce Pardot"><path d="M5.75,34c-.41.67-.87,1.44-1.26,2a1.26,1.26,0,0,0,.42,1.7l8.15,5a1.25,1.25,0,0,0,1.72-.4v0l1.2-2c3.23-5.33,6.47-4.67,12.32-1.88l8.07,3.84a1.25,1.25,0,0,0,1.67-.59l0,0L42,32.85a1.26,1.26,0,0,0-.63-1.64c-1.7-.8-5.09-2.4-8.14-3.87C22.21,22,12.88,22.36,5.75,34Z" style="fill:url(#linear-gradient)"/><path d="M42.25,14.06c.41-.66.87-1.43,1.26-2a1.27,1.27,0,0,0-.42-1.71l-8.15-5a1.25,1.25,0,0,0-1.73.34.35.35,0,0,0-.05.08c-.33.54-.75,1.25-1.2,2-3.23,5.32-6.47,4.67-12.32,1.88l-8-3.82a1.25,1.25,0,0,0-1.67.59v0L6,15.18a1.24,1.24,0,0,0,.62,1.64c1.71.8,5.1,2.4,8.15,3.87C25.79,26,35.12,25.66,42.25,14.06Z" style="fill:url(#linear-gradient-2)"/></g></svg>