<svg xmlns="http://www.w3.org/2000/svg" xmlns:xlink="http://www.w3.org/1999/xlink" viewBox="0 0 48 48"><defs><style>.cls-1{fill:url(#linear-gradient);}.cls-2{fill:#fff;}.cls-3{fill:#d42e02;}</style><linearGradient id="linear-gradient" x1="-688.37" y1="96.53" x2="-688.37" y2="96.99" gradientTransform="matrix(71.63, 0, 0, -51.42, 49334.64, 5000.34)" gradientUnits="userSpaceOnUse"><stop offset="0" stop-color="#a82400"/><stop offset="0.01" stop-color="#a82400"/><stop offset="0.99" stop-color="#d52e02"/><stop offset="1" stop-color="#d52e02"/></linearGradient></defs><title>j-connpass</title><g id="Layer_3" data-name="Layer 3"><path class="cls-1" d="M6,8.12a62.16,62.16,0,0,0,36,0l-.31,7.58a6,6,0,0,0-.45,11L41.69,34C30.15,31.75,19,32.13,6.29,34l.46-7.22a6,6,0,0,0-.45-11Z"/><path class="cls-2" d="M26.5,24a2.44,2.44,0,0,1-.61,1,2.2,2.2,0,0,1-.87.53,2.41,2.41,0,0,1-1.88-.12,1.79,1.79,0,0,1-.67-.58,1.57,1.57,0,0,1-.25-.88V19.23a1.43,1.43,0,0,1,.26-.85,1.74,1.74,0,0,1,.67-.56,2.61,2.61,0,0,1,.91-.24,2.44,2.44,0,0,1,1,.11,2,2,0,0,1,.84.48,2,2,0,0,1,.54.89L29.83,18a5.09,5.09,0,0,0-.91-1.9,4.8,4.8,0,0,0-1.4-1.23,6.16,6.16,0,0,0-1.65-.67A7.6,7.6,0,0,0,24.2,14a8,8,0,0,0-1.76.21,6.49,6.49,0,0,0-1.62.63,5.33,5.33,0,0,0-1.35,1.05,4.61,4.61,0,0,0-.91,1.47,5,5,0,0,0-.34,1.9v4.65a5,5,0,0,0,.34,1.9,4.67,4.67,0,0,0,.91,1.46,5.29,5.29,0,0,0,1.35,1,6.88,6.88,0,0,0,1.62.62,7.43,7.43,0,0,0,1.76.21,6.93,6.93,0,0,0,1.66-.21,6.19,6.19,0,0,0,1.65-.68A5.51,5.51,0,0,0,29,27,6.11,6.11,0,0,0,30,25.11Z"/><path class="cls-3" d="M9.06,39a.93.93,0,0,1-.23.36.8.8,0,0,1-.32.19.85.85,0,0,1-.35,0,1,1,0,0,1-.34-.09.73.73,0,0,1-.24-.22.61.61,0,0,1-.1-.32v-1.7a.67.67,0,0,1,.1-.32.71.71,0,0,1,.25-.2.9.9,0,0,1,.33-.09,1.11,1.11,0,0,1,.36,0,1,1,0,0,1,.31.18.78.78,0,0,1,.19.32l1.26-.38a2,2,0,0,0-.34-.7,1.67,1.67,0,0,0-.51-.45,2.31,2.31,0,0,0-.61-.25,2.6,2.6,0,0,0-.61-.07,2.74,2.74,0,0,0-.64.08,2.57,2.57,0,0,0-.6.23,2,2,0,0,0-.49.38,2.15,2.15,0,0,0-.34.54,1.94,1.94,0,0,0-.12.7V39a1.68,1.68,0,0,0,.46,1.23,2.05,2.05,0,0,0,.49.39,2.54,2.54,0,0,0,.6.22,2.74,2.74,0,0,0,.64.08,2.62,2.62,0,0,0,.61-.08,2.12,2.12,0,0,0,.61-.25A2,2,0,0,0,10,40.1a2.22,2.22,0,0,0,.38-.7Z"/><path class="cls-3" d="M12.54,36.68a.92.92,0,0,1,.33.06.75.75,0,0,1,.28.18.5.5,0,0,1,.11.3V39a.55.55,0,0,1-.11.3.83.83,0,0,1-.28.21.75.75,0,0,1-.33.07h0V40.9h0a2.72,2.72,0,0,0,.8-.12,2.21,2.21,0,0,0,.7-.36,1.65,1.65,0,0,0,.49-.59,1.82,1.82,0,0,0,.19-.86V37.22a1.75,1.75,0,0,0-.19-.85,1.69,1.69,0,0,0-.49-.6,2.47,2.47,0,0,0-.7-.37,2.72,2.72,0,0,0-.8-.12h0v1.4Zm0,2.91a.93.93,0,0,1-.33-.07.74.74,0,0,1-.28-.21.48.48,0,0,1-.11-.3V37.22a.44.44,0,0,1,.11-.3.68.68,0,0,1,.28-.18.92.92,0,0,1,.33-.06v-1.4a2.72,2.72,0,0,0-.8.12,2.47,2.47,0,0,0-.7.37,1.83,1.83,0,0,0-.5.6,1.87,1.87,0,0,0-.18.85V39a1.94,1.94,0,0,0,.18.86,1.79,1.79,0,0,0,.5.59,2.21,2.21,0,0,0,.7.36,2.72,2.72,0,0,0,.8.12Z"/><path class="cls-3" d="M27.32,40.86a2.73,2.73,0,0,0,.57,0,2.27,2.27,0,0,0,.62-.21,1.78,1.78,0,0,0,.88-.91,1.65,1.65,0,0,0,.12-.68V37.15a2.07,2.07,0,0,0-.23-.88,1.6,1.6,0,0,0-.51-.58,2,2,0,0,0-.7-.32,3.66,3.66,0,0,0-.75-.09v1.09a1.2,1.2,0,0,1,.35.1.73.73,0,0,1,.27.22.59.59,0,0,1,.11.33V39.1a.66.66,0,0,1-.13.32.83.83,0,0,1-.28.21,1.09,1.09,0,0,1-.32.1Zm-.73,1.07V40.68a2.09,2.09,0,0,0,.64.17h.09V39.73h0a1.15,1.15,0,0,1-.37,0,.92.92,0,0,1-.33-.11V36.47a1.29,1.29,0,0,1,.35-.1,1.21,1.21,0,0,1,.38,0h0V35.28h-.07a5.78,5.78,0,0,0-.71,0,6.68,6.68,0,0,0-.73.14,5.05,5.05,0,0,0-.69.22v6.7A11,11,0,0,0,26.59,41.93Z"/><path class="cls-3" d="M31.91,40.94h.15a5.46,5.46,0,0,0,1.38-.19,6.75,6.75,0,0,0,.68-.21V37.18A1.94,1.94,0,0,0,34,36.4a1.85,1.85,0,0,0-.45-.58,2,2,0,0,0-.65-.36,2.43,2.43,0,0,0-.76-.14h-.18v1.16h0a.93.93,0,0,1,.39.15.8.8,0,0,1,.28.32,1.19,1.19,0,0,1,.1.53,1.28,1.28,0,0,0-.43-.14l-.35,0v1.12H32a1.43,1.43,0,0,1,.36,0,1.67,1.67,0,0,1,.3.07v1.24l-.3,0a1.62,1.62,0,0,1-.31,0h-.13Zm-.1-3.64a2.21,2.21,0,0,0-.89.16,1.86,1.86,0,0,0-.63.41,1.82,1.82,0,0,0-.38.58,1.92,1.92,0,0,0-.11.67,1.78,1.78,0,0,0,.16.67,1.69,1.69,0,0,0,.42.58,1.93,1.93,0,0,0,.7.41,2.91,2.91,0,0,0,.83.16V39.81a.9.9,0,0,1-.34-.09.72.72,0,0,1-.29-.25.62.62,0,0,1-.11-.34.62.62,0,0,1,.07-.33.67.67,0,0,1,.28-.27,1,1,0,0,1,.39-.11V37.3Zm.1-2a3.1,3.1,0,0,0-.61.09,2.1,2.1,0,0,0-.72.31,2.16,2.16,0,0,0-.59.54l.72.66a1.56,1.56,0,0,1,.35-.27,1.5,1.5,0,0,1,.42-.15,1.26,1.26,0,0,1,.43,0Z"/><path class="cls-3" d="M34.36,40a2.4,2.4,0,0,0,.57.54,2.15,2.15,0,0,0,.66.29,3,3,0,0,0,.73.09,2.55,2.55,0,0,0,.74-.11,1.91,1.91,0,0,0,.63-.34,1.49,1.49,0,0,0,.44-.55,1.73,1.73,0,0,0,.16-.78,1.45,1.45,0,0,0-.14-.65,1.32,1.32,0,0,0-.38-.46,2,2,0,0,0-.51-.3,2.85,2.85,0,0,0-.54-.18l-.21-.06-.25-.11a.67.67,0,0,1-.2-.17A.26.26,0,0,1,36,37a.43.43,0,0,1,.42-.44,1.06,1.06,0,0,1,.35,0,1.7,1.7,0,0,1,.34.12,1.58,1.58,0,0,1,.27.18l.72-1a2.19,2.19,0,0,0-.58-.35,3,3,0,0,0-.61-.18,3.53,3.53,0,0,0-.54,0,2.23,2.23,0,0,0-.86.18,1.72,1.72,0,0,0-.61.43,1.6,1.6,0,0,0-.34.61,1.51,1.51,0,0,0,0,.67,1.46,1.46,0,0,0,.26.65,1.78,1.78,0,0,0,.58.54,2.61,2.61,0,0,0,.93.32,1,1,0,0,1,.39.14.44.44,0,0,1,.14.55.4.4,0,0,1-.27.22.94.94,0,0,1-.44,0,1.73,1.73,0,0,1-.53-.2,2.26,2.26,0,0,1-.52-.37Z"/><path class="cls-3" d="M38,40a2.23,2.23,0,0,0,.57.54,2,2,0,0,0,.66.29,2.86,2.86,0,0,0,.73.09,2.6,2.6,0,0,0,.74-.11,2.13,2.13,0,0,0,.63-.34,1.47,1.47,0,0,0,.43-.55,1.73,1.73,0,0,0,.17-.78,1.45,1.45,0,0,0-.15-.65,1.22,1.22,0,0,0-.38-.46,2,2,0,0,0-.5-.3,3.42,3.42,0,0,0-.54-.18l-.22-.06-.24-.11a.56.56,0,0,1-.2-.17.27.27,0,0,1-.07-.21.44.44,0,0,1,.14-.32.45.45,0,0,1,.28-.12,1.06,1.06,0,0,1,.35,0,2.06,2.06,0,0,1,.35.12,1.46,1.46,0,0,1,.26.18l.73-1a2.41,2.41,0,0,0-.59-.35,3.11,3.11,0,0,0-.6-.18,3.65,3.65,0,0,0-.55,0,2.27,2.27,0,0,0-.86.18,1.72,1.72,0,0,0-.61.43,1.46,1.46,0,0,0-.33.61,1.52,1.52,0,0,0-.05.67,1.46,1.46,0,0,0,.26.65,1.72,1.72,0,0,0,.59.54,2.61,2.61,0,0,0,.93.32,1,1,0,0,1,.38.14.47.47,0,0,1,.18.25.45.45,0,0,1,0,.3.41.41,0,0,1-.26.22,1,1,0,0,1-.45,0,1.73,1.73,0,0,1-.53-.2,2.49,2.49,0,0,1-.52-.37Z"/><path class="cls-3" d="M17.42,36.68a1,1,0,0,1,.34.06.64.64,0,0,1,.27.18.44.44,0,0,1,.11.3v3.6h1.47v-3.6a2,2,0,0,0-.19-.85,1.71,1.71,0,0,0-.5-.6,2.34,2.34,0,0,0-.7-.37,2.63,2.63,0,0,0-.8-.12,2.72,2.72,0,0,0-.8.12,2.47,2.47,0,0,0-.7.37,1.71,1.71,0,0,0-.5.6,2,2,0,0,0-.19.85v3.6H16.7v-3.6a.44.44,0,0,1,.11-.3.64.64,0,0,1,.27-.18A1,1,0,0,1,17.42,36.68Z"/><path class="cls-3" d="M22.36,36.68a1,1,0,0,1,.34.06.64.64,0,0,1,.27.18.44.44,0,0,1,.11.3v3.6h1.46v-3.6a1.87,1.87,0,0,0-.18-.85,1.83,1.83,0,0,0-.5-.6,2.47,2.47,0,0,0-.7-.37,2.67,2.67,0,0,0-.8-.12,2.72,2.72,0,0,0-.8.12,2.34,2.34,0,0,0-.7.37,1.71,1.71,0,0,0-.5.6,1.87,1.87,0,0,0-.19.85v3.6h1.47v-3.6a.44.44,0,0,1,.11-.3.64.64,0,0,1,.27-.18A1,1,0,0,1,22.36,36.68Z"/></g></svg>