<svg xmlns="http://www.w3.org/2000/svg" viewBox="0 0 48 48">
  <title>constantcontact</title>
  <g id="Salesforce_Pardot" data-name="Salesforce Pardot">
    <path d="M23.22,25a50.09,50.09,0,0,1,7.4-1.32,53.7,53.7,0,0,1,1.74-5.53l-.23,0a51.4,51.4,0,0,0-7,1.85c-.72,1.62-1.36,3.28-1.92,5m-6.1-2.48q1.13-2.31,2.47-4.5-2.06,1.18-4,2.52a50.2,50.2,0,0,0-2.79,4.54c1.41-.92,2.86-1.78,4.34-2.56" style="fill: #fcd98d"/>
    <path d="M22.21,25.26c.52-1.64,1.11-3.26,1.79-4.84a52.17,52.17,0,0,0-6.22,2.74q-1,2.13-1.84,4.34a47.71,47.71,0,0,1,6.27-2.24" style="fill: #809eba"/>
    <path d="M32,17.29l.75-.13a53.34,53.34,0,0,1,2.57-5.53,56.9,56.9,0,0,0-6.87,2.14,55.41,55.41,0,0,0-2.79,5.14A53.56,53.56,0,0,1,32,17.29M8.92,31.38c.44-1.19.94-2.39,1.49-3.57-.93.69-1.84,1.42-2.73,2.18-.79,1.28-1.52,2.61-2.19,4q1.65-1.37,3.43-2.57" style="fill: #2b5e8c"/>
    <path d="M14.82,28c.49-1.41,1-2.79,1.67-4.16a52.52,52.52,0,0,0-4.58,2.87c-.63,1.25-1.21,2.53-1.73,3.84A44.38,44.38,0,0,1,14.82,28" style="fill: #f9b31b"/>
    <path d="M31.55,23.57a50.1,50.1,0,0,1,8.21,0c.62-2.21,1.27-4.29,2-6.25H41.4a50.29,50.29,0,0,0-8,.67,53.33,53.33,0,0,0-1.82,5.62" style="fill: #809eba"/>
    <path d="M41.39,16.39h.71A45.38,45.38,0,0,1,45,10.25a49.36,49.36,0,0,0-8.54,1.12A52.73,52.73,0,0,0,33.76,17a51.3,51.3,0,0,1,7.63-.6M21.66,31c1-.18,2-.32,3.06-.43,1.56-.17,3.13-.27,4.7-.29a45.22,45.22,0,0,1,1-5.73A50.07,50.07,0,0,0,22.9,26a48.12,48.12,0,0,0-1.24,5" style="fill: #f9b31b"/>
    <path d="M3.33,39a35.91,35.91,0,0,1,4.08-2.85" style="fill: #fcd98d"/>
    <path d="M7.41,36.18c.28-1.1.61-2.23,1-3.36a46,46,0,0,0-3.85,3.12C4.11,37,3.7,38,3.33,39" style="fill: #fcd98d"/>
    <path d="M20.73,31.19a46.27,46.27,0,0,1,1.17-4.92,48.53,48.53,0,0,0-6.38,2.4c-.48,1.41-.9,2.83-1.25,4.28a44.05,44.05,0,0,1,6.46-1.75" style="fill: #2b5e8c"/>
  </g>
</svg>
