<svg xmlns="http://www.w3.org/2000/svg" viewBox="0 0 48 48">
  <title>contactually</title>
  <g id="Layer_3" data-name="Layer 3">
    <g id="ZV4G0Q.tif">
      <g>
        <path d="M3.14,22.06v-.12c0-.1.08-.19.1-.29.35-1.56.71-3.11,1-4.67,0-.23.14-.29.36-.29,1.07,0,2.13-.11,3.2-.15a.37.37,0,0,0,.36-.25c.24-.47.48-.94.74-1.4a.36.36,0,0,0,0-.44c-.59-.87-1.16-1.75-1.74-2.62-.05-.09-.1-.18-.16-.27l3.7-4,.3.15,2.81,1.46a.34.34,0,0,0,.42,0q.68-.44,1.38-.84A.33.33,0,0,0,15.85,8c-.07-1-.11-2.07-.18-3.11,0-.2,0-.3.25-.36C17.5,4,19.07,3.51,20.65,3c.2-.06.28,0,.39.15.56.89,1.14,1.76,1.71,2.64A.32.32,0,0,0,23.1,6c.54-.06,1.09-.11,1.64-.14a.35.35,0,0,0,.34-.23c.47-.95,1-1.89,1.42-2.84l.14-.25L31.8,3.66c.18,0,.18.15.19.3,0,1,.1,2.05.13,3.08a.52.52,0,0,0,.36.54,5.7,5.7,0,0,1,1.1.56.68.68,0,0,0,.93,0c.85-.59,1.73-1.15,2.6-1.72a.63.63,0,0,1,.12.1L41,9.93c.15.14.11.23,0,.37l-1.46,2.82a.33.33,0,0,0,0,.39c.33.5.63,1,1,1.5a.34.34,0,0,0,.27.15L43.94,15c.22,0,.33,0,.4.26q.72,2.34,1.45,4.65a.33.33,0,0,1-.16.47c-.85.53-1.69,1.09-2.55,1.62a.43.43,0,0,0-.23.49,6.78,6.78,0,0,1,.08,1.27c-.06.5.16.72.59.91.88.4,1.74.85,2.61,1.27v.35a1.06,1.06,0,0,0-.06.19c-.35,1.53-.69,3.05-1,4.58,0,.19-.11.27-.31.28l-3.12.14a.38.38,0,0,0-.37.24c-.24.51-.5,1-.78,1.51a.36.36,0,0,0,0,.46l1.67,2.53a1.75,1.75,0,0,1,.16.27l-3.69,4-.3-.14-2.71-1.4a.32.32,0,0,0-.39,0c-.49.32-1,.64-1.48.94a.35.35,0,0,0-.2.39c.07,1,.12,2,.19,3.06,0,.21,0,.32-.26.38q-2.36.72-4.7,1.47a.28.28,0,0,1-.4-.14c-.55-.89-1.13-1.76-1.69-2.65a.35.35,0,0,0-.36-.19q-.82.06-1.65.06a.44.44,0,0,0-.5.29c-.47,1-1,2-1.46,2.92h-.17l-.16-.06c-1.54-.35-3.07-.7-4.61-1-.34-.07-.43-.2-.43-.52,0-1-.09-1.94-.12-2.91a.45.45,0,0,0-.31-.45,8.16,8.16,0,0,1-1.17-.62.72.72,0,0,0-1,0c-.83.59-1.69,1.13-2.55,1.69l-.1-.08L8.34,38.07c-.13-.12-.12-.2-.05-.34l1.48-2.84a.38.38,0,0,0,0-.44c-.3-.45-.58-.9-.85-1.37a.37.37,0,0,0-.42-.24L5.43,33a.28.28,0,0,1-.36-.24Q4.34,30.4,3.59,28c-.07-.21,0-.29.15-.39.89-.56,1.76-1.14,2.65-1.7a.37.37,0,0,0,.18-.38c-.06-.56-.07-1.13-.13-1.69a.41.41,0,0,0-.18-.28c-.4-.22-.82-.42-1.23-.62Zm33,1.94A11,11,0,0,0,14.4,21.87,11,11,0,0,0,25.07,35.1v3.74l8-6.61-8-6.57v5a6.39,6.39,0,0,1-6.38-5.26A6.61,6.61,0,0,1,23.5,17.7a6.34,6.34,0,0,1,4.86.6A6.49,6.49,0,0,1,31.79,24Z" style="fill: #f17461"/>
        <path d="M36.13,24H31.79a6.49,6.49,0,0,0-3.43-5.7,6.34,6.34,0,0,0-4.86-.6,6.61,6.61,0,0,0-4.81,7.69,6.39,6.39,0,0,0,6.38,5.26v-5l8,6.57-8,6.61V35.1A11,11,0,0,1,14.4,21.87,11,11,0,0,1,36.13,24Z" style="fill: #fff"/>
      </g>
    </g>
  </g>
</svg>
