<svg id="Layer_1" data-name="Layer 1" xmlns="http://www.w3.org/2000/svg" viewBox="0 0 48 48"><title>convertkit</title><path d="M24.85,34c6.54,0,11.59-4.93,11.59-11,0-5.7-4.75-9.18-7.89-9.18a8.28,8.28,0,0,0-8.39,7.62,1.67,1.67,0,0,1-1.61,1.55l-4.77,0a1,1,0,0,1-1-1,16.88,16.88,0,0,1,4-10.48,15.33,15.33,0,0,1,11.72-5c8.12,0,15.78,7.36,15.78,16.52,0,10.14-8.41,18.36-19.31,18.36-7.77,0-15.6-5.07-18.33-12.16a.11.11,0,0,1,0-.08,2.87,2.87,0,0,1,.17-.59,1.89,1.89,0,0,0,.19-.85l0-1a1.21,1.21,0,0,1,.7-1.15l.39-.18A1.53,1.53,0,0,0,9,24.18a1.53,1.53,0,0,1,1.51-1.25A2.72,2.72,0,0,1,13,24.8C14.85,30.07,17.75,34,24.85,34Z" style="fill:#fb6970"/></svg>