<svg id="Layer_1" data-name="Layer 1" xmlns="http://www.w3.org/2000/svg" viewBox="0 0 48 48"><title>copper</title><path id="Fill-5-Copy" d="M5.71,23.53A19.15,19.15,0,1,0,24.86,4.28,19.21,19.21,0,0,0,5.71,23.53" style="fill:#ff3465"/><path id="Fill-1" d="M24.78,33.29A10.07,10.07,0,0,1,21,32.58a9.11,9.11,0,0,1-3-2,9,9,0,0,1-2-3,10.07,10.07,0,0,1-.71-3.82,9.94,9.94,0,0,1,3-7.18,10.38,10.38,0,0,1,3.3-2.14,10.59,10.59,0,0,1,4.08-.79,9.81,9.81,0,0,1,3.06.47,8,8,0,0,1,2.48,1.29,6.1,6.1,0,0,1,1.67,1.95,5,5,0,0,1,.61,2.41,3.37,3.37,0,0,1-.89,2.37,3,3,0,0,1-4.41,0,3.26,3.26,0,0,1-.89-2.34,3.35,3.35,0,0,1,.09-.79c.06-.25.16-.61.28-1.08a8.67,8.67,0,0,0,.24-.95,3.69,3.69,0,0,0,.06-.69,2.12,2.12,0,0,0-.63-1.58,2.16,2.16,0,0,0-1.58-.62,2.5,2.5,0,0,0-1.55.54,4.82,4.82,0,0,0-1.24,1.48,8.36,8.36,0,0,0-.85,2.22,12.13,12.13,0,0,0-.31,2.75,8,8,0,0,0,1.71,5.4,5.72,5.72,0,0,0,4.6,2,7,7,0,0,0,3-.61A8.76,8.76,0,0,0,33.64,26l.44.22q-3.15,7.08-9.3,7.09" style="fill:#fff"/></svg>