<svg xmlns="http://www.w3.org/2000/svg" viewBox="0 0 48 48"><title>csv</title><g id="Warstwa_1" data-name="Warstwa 1"><rect x="38.56" y="7.16" width="4.6" height="2.36" style="fill:#e9edf2;stroke:#b2bfcf;stroke-linejoin:round;stroke-width:0.36300000000000004px"/><rect x="38.56" y="12.01" width="4.6" height="2.36" style="fill:#e9edf2;stroke:#b2bfcf;stroke-linejoin:round;stroke-width:0.36300000000000004px"/><rect x="38.56" y="16.85" width="4.6" height="2.36" style="fill:#e9edf2;stroke:#b2bfcf;stroke-linejoin:round;stroke-width:0.36300000000000004px"/><rect x="38.56" y="21.7" width="4.6" height="2.36" style="fill:#e9edf2;stroke:#b2bfcf;stroke-linejoin:round;stroke-width:0.36300000000000004px"/><rect x="32.83" y="7.16" width="4.6" height="2.36" style="fill:#e9edf2;stroke:#b2bfcf;stroke-linejoin:round;stroke-width:0.36300000000000004px"/><rect x="32.83" y="12.01" width="4.6" height="2.36" style="fill:#e9edf2;stroke:#b2bfcf;stroke-linejoin:round;stroke-width:0.36300000000000004px"/><rect x="32.83" y="16.85" width="4.6" height="2.36" style="fill:#e9edf2;stroke:#b2bfcf;stroke-linejoin:round;stroke-width:0.36300000000000004px"/><rect x="32.83" y="21.7" width="4.6" height="2.36" style="fill:#e9edf2;stroke:#b2bfcf;stroke-linejoin:round;stroke-width:0.36300000000000004px"/><rect x="27.1" y="7.16" width="4.6" height="2.36" style="fill:#e9edf2;stroke:#b2bfcf;stroke-linejoin:round;stroke-width:0.36300000000000004px"/><rect x="27.1" y="12.01" width="4.6" height="2.36" style="fill:#e9edf2;stroke:#b2bfcf;stroke-linejoin:round;stroke-width:0.36300000000000004px"/><rect x="27.1" y="16.85" width="4.6" height="2.36" style="fill:#e9edf2;stroke:#b2bfcf;stroke-linejoin:round;stroke-width:0.36300000000000004px"/><rect x="27.1" y="21.7" width="4.6" height="2.36" style="fill:#e9edf2;stroke:#b2bfcf;stroke-linejoin:round;stroke-width:0.36300000000000004px"/><rect x="21.37" y="7.16" width="4.6" height="2.36" style="fill:#e9edf2;stroke:#b2bfcf;stroke-linejoin:round;stroke-width:0.36300000000000004px"/><rect x="21.37" y="12.01" width="4.6" height="2.36" style="fill:#e9edf2;stroke:#b2bfcf;stroke-linejoin:round;stroke-width:0.36300000000000004px"/><rect x="21.37" y="16.85" width="4.6" height="2.36" style="fill:#e9edf2;stroke:#b2bfcf;stroke-linejoin:round;stroke-width:0.36300000000000004px"/><rect x="21.37" y="21.7" width="4.6" height="2.36" style="fill:#e9edf2;stroke:#b2bfcf;stroke-linejoin:round;stroke-width:0.36300000000000004px"/><rect x="15.64" y="7.16" width="4.6" height="2.36" style="fill:#e9edf2;stroke:#b2bfcf;stroke-linejoin:round;stroke-width:0.36300000000000004px"/><rect x="15.64" y="12.01" width="4.6" height="2.36" style="fill:#e9edf2;stroke:#b2bfcf;stroke-linejoin:round;stroke-width:0.36300000000000004px"/><rect x="15.64" y="16.85" width="4.6" height="2.36" style="fill:#e9edf2;stroke:#b2bfcf;stroke-linejoin:round;stroke-width:0.36300000000000004px"/><rect x="15.64" y="21.7" width="4.6" height="2.36" style="fill:#e9edf2;stroke:#b2bfcf;stroke-linejoin:round;stroke-width:0.36300000000000004px"/><rect x="9.91" y="7.16" width="4.6" height="2.36" style="fill:#e9edf2;stroke:#b2bfcf;stroke-linejoin:round;stroke-width:0.36300000000000004px"/><rect x="9.91" y="12.01" width="4.6" height="2.36" style="fill:#e9edf2;stroke:#b2bfcf;stroke-linejoin:round;stroke-width:0.36300000000000004px"/><rect x="9.91" y="16.85" width="4.6" height="2.36" style="fill:#e9edf2;stroke:#b2bfcf;stroke-linejoin:round;stroke-width:0.36300000000000004px"/><rect x="9.91" y="21.7" width="4.6" height="2.36" style="fill:#e9edf2;stroke:#b2bfcf;stroke-linejoin:round;stroke-width:0.36300000000000004px"/><rect x="4.18" y="7.16" width="4.6" height="2.36" style="fill:#e9edf2;stroke:#b2bfcf;stroke-linejoin:round;stroke-width:0.36300000000000004px"/><rect x="4.18" y="12.01" width="4.6" height="2.36" style="fill:#e9edf2;stroke:#b2bfcf;stroke-linejoin:round;stroke-width:0.36300000000000004px"/><rect x="4.18" y="16.85" width="4.6" height="2.36" style="fill:#e9edf2;stroke:#b2bfcf;stroke-linejoin:round;stroke-width:0.36300000000000004px"/><rect x="4.18" y="21.7" width="4.6" height="2.36" style="fill:#e9edf2;stroke:#b2bfcf;stroke-linejoin:round;stroke-width:0.36300000000000004px"/><rect x="4.18" y="26.55" width="3.15" height="2.36" style="fill:#e9edf2;stroke:#b2bfcf;stroke-linejoin:round;stroke-width:0.36300000000000004px"/><rect x="4.18" y="31.39" width="3.15" height="2.36" style="fill:#e9edf2;stroke:#b2bfcf;stroke-linejoin:round;stroke-width:0.36300000000000004px"/><path d="M9.84,39.61a1.19,1.19,0,0,1,.37-.88,1.25,1.25,0,0,1,.91-.37,1.32,1.32,0,0,1,.9.35,1.17,1.17,0,0,1,.38.87,1.2,1.2,0,0,1-.38.88,1.22,1.22,0,0,1-.9.37,1.19,1.19,0,0,1-.49-.1,1.55,1.55,0,0,1-.41-.25,1.21,1.21,0,0,1-.28-.39A1.12,1.12,0,0,1,9.84,39.61Z" style="fill:#009ada"/><path d="M22.63,32.05a2.61,2.61,0,0,0-1.17-.89,3.92,3.92,0,0,0-3,0,3.94,3.94,0,0,0-1.24.88,4.09,4.09,0,0,0-.8,1.32A4.77,4.77,0,0,0,16.13,35a5.14,5.14,0,0,0,.27,1.7,4,4,0,0,0,.78,1.32,3.61,3.61,0,0,0,1.21.86,4,4,0,0,0,1.59.3,3.5,3.5,0,0,0,1.61-.36,3.23,3.23,0,0,0,1.14-1L24.35,39a5.26,5.26,0,0,1-1.84,1.47A5.84,5.84,0,0,1,20,41a6.62,6.62,0,0,1-2.44-.44,5.8,5.8,0,0,1-1.92-1.23,5.72,5.72,0,0,1-1.25-1.89A6.57,6.57,0,0,1,13.91,35a6.06,6.06,0,0,1,.47-2.46,5.38,5.38,0,0,1,1.3-1.86,5.64,5.64,0,0,1,1.94-1.19,6.91,6.91,0,0,1,2.44-.42,6.44,6.44,0,0,1,1.13.11,5.34,5.34,0,0,1,1.14.32,5.06,5.06,0,0,1,1,.54,3.27,3.27,0,0,1,.81.76Z" style="fill:#009ada"/><path d="M31.38,31.76a2.52,2.52,0,0,0-.91-.69,2.64,2.64,0,0,0-1.17-.28,3.43,3.43,0,0,0-.71.08,2,2,0,0,0-.64.28,1.44,1.44,0,0,0-.47.48,1.32,1.32,0,0,0-.19.71,1.37,1.37,0,0,0,.16.66,1.51,1.51,0,0,0,.45.46,2.87,2.87,0,0,0,.68.34c.26.09.56.19.88.28s.74.26,1.13.41a4,4,0,0,1,1.07.59,2.9,2.9,0,0,1,.8.93,2.78,2.78,0,0,1,.31,1.39A3.58,3.58,0,0,1,32.44,39a3.36,3.36,0,0,1-.9,1.13,3.89,3.89,0,0,1-1.31.68,5.55,5.55,0,0,1-1.59.22,6,6,0,0,1-2.16-.41,4.08,4.08,0,0,1-1.73-1.21l1.44-1.34A2.93,2.93,0,0,0,27.3,39a3.22,3.22,0,0,0,1.37.34,3,3,0,0,0,.72-.09,1.94,1.94,0,0,0,.67-.3,1.84,1.84,0,0,0,.48-.52,1.55,1.55,0,0,0,.18-.78,1.27,1.27,0,0,0-.21-.74,1.73,1.73,0,0,0-.56-.51,3.77,3.77,0,0,0-.83-.38l-1-.34a8.44,8.44,0,0,1-1-.38,3.58,3.58,0,0,1-.93-.59,2.92,2.92,0,0,1-.66-.91,3.06,3.06,0,0,1-.26-1.33A2.91,2.91,0,0,1,25.6,31a3.26,3.26,0,0,1,.95-1,4.38,4.38,0,0,1,1.33-.61,6,6,0,0,1,1.51-.2,5.54,5.54,0,0,1,1.76.31,4.34,4.34,0,0,1,1.54.91Z" style="fill:#009ada"/><path d="M33.22,29.39h2.26l3.12,8.73h.07l3.15-8.73H44L39.45,40.73H37.7Z" style="fill:#009ada"/></g></svg>