<svg id="875f2f30-b5ec-48e2-ad81-3dfe361880e1"   xmlns="http://www.w3.org/2000/svg" viewBox="0 0 48 48">
  <defs>
    <style>
      .\38 720ad66-6137-46c4-8040-7930184265d0 {
        fill: #17244f;
      }

      .ca23afcc-75ef-484f-bbfb-5455d61539c6 {
        fill: #fff;
      }
    </style>
  </defs>
  <title>d365 finop</title>
  <g>
    <polygon class="8720ad66-6137-46c4-8040-7930184265d0" points="35.31 4.42 12.69 4.42 1.39 24 12.69 43.58 35.31 43.58 46.61 24 35.31 4.42"/>
    <g>
      <rect class="ca23afcc-75ef-484f-bbfb-5455d61539c6" x="15.7" y="31.08" width="1.19" height="2.39"/>
      <rect class="ca23afcc-75ef-484f-bbfb-5455d61539c6" x="18.07" y="31.08" width="1.19" height="2.39"/>
      <rect class="ca23afcc-75ef-484f-bbfb-5455d61539c6" x="20.44" y="31.08" width="1.19" height="2.39"/>
      <rect class="ca23afcc-75ef-484f-bbfb-5455d61539c6" x="22.81" y="31.08" width="1.19" height="2.39"/>
      <rect class="ca23afcc-75ef-484f-bbfb-5455d61539c6" x="25.18" y="25.16" width="1.19" height="8.31"/>
      <rect class="ca23afcc-75ef-484f-bbfb-5455d61539c6" x="27.55" y="25.16" width="1.19" height="8.31"/>
      <rect class="ca23afcc-75ef-484f-bbfb-5455d61539c6" x="29.92" y="18.05" width="1.19" height="15.42"/>
      <rect class="ca23afcc-75ef-484f-bbfb-5455d61539c6" x="32.29" y="18.05" width="1.19" height="15.42"/>
      <path class="ca23afcc-75ef-484f-bbfb-5455d61539c6" d="M22.81,25.18V24h-.68a3.62,3.62,0,0,0-.59-1.43l.48-.48-.84-.84-.48.48a3.63,3.63,0,0,0-1.44-.61v-.67H18.07v.66a3.56,3.56,0,0,0-1.46.6l-.46-.46-.84.84.45.45A3.64,3.64,0,0,0,15.15,24h-.63v1.2h.63a3.39,3.39,0,0,0,.61,1.46l-.45.45.84.85.45-.46a3.47,3.47,0,0,0,1.47.6v.65h1.19v-.66a3.37,3.37,0,0,0,1.44-.61l.48.48.84-.85-.48-.48a3.48,3.48,0,0,0,.59-1.43ZM18.64,26.9A2.32,2.32,0,1,1,21,24.59,2.31,2.31,0,0,1,18.64,26.9Z"/>
      <path class="ca23afcc-75ef-484f-bbfb-5455d61539c6" d="M24.65,16.26a2.22,2.22,0,0,1,.51.06l.38.08.34.21a2.54,2.54,0,0,1,.73.73l.21.34.09.38a2.22,2.22,0,0,1,.06.51,2.31,2.31,0,0,1-.06.52l-.09.38-.21.33a2.39,2.39,0,0,1-.72.73l-.33.21-.39.09a2.24,2.24,0,0,1-.52.06,2.05,2.05,0,0,1-.49-.06l-.39-.08-.33-.21a2.36,2.36,0,0,1-.73-.71l-.22-.34-.09-.38a2.48,2.48,0,0,1-.06-.54,2.81,2.81,0,0,1,.05-.49l.09-.38.2-.34a2.21,2.21,0,0,1,.73-.73l.33-.22.38-.09a2.46,2.46,0,0,1,.53-.06m1-1.73-.24.59a3.33,3.33,0,0,0-.78-.09,3.59,3.59,0,0,0-.81.1l-.25-.59L22.5,15l.24.59a3.6,3.6,0,0,0-1.1,1.13l-.6-.25-.45,1.11.6.24a3.82,3.82,0,0,0-.08.75,3.61,3.61,0,0,0,.1.82l-.61.26.46,1.1.62-.26a3.4,3.4,0,0,0,1.11,1.09l-.26.63,1.11.45.25-.63a3.22,3.22,0,0,0,.76.09,3.5,3.5,0,0,0,.8-.1l.26.63,1.1-.46-.26-.63a3.61,3.61,0,0,0,1.1-1.1l.62.25.45-1.1-.61-.25a4.07,4.07,0,0,0,.08-.79,3.33,3.33,0,0,0-.09-.78l.61-.26-.46-1.1-.6.26a3.63,3.63,0,0,0-1.12-1.12l.24-.59-1.1-.45Z"/>
    </g>
  </g>
</svg>
