<?xml version="1.0" encoding="utf-8"?>
<!-- Generator: Adobe Illustrator 22.1.0, SVG Export Plug-In . SVG Version: 6.00 Build 0)  -->
<svg version="1.1" baseProfile="tiny" id="Layer_1" xmlns="http://www.w3.org/2000/svg" xmlns:xlink="http://www.w3.org/1999/xlink"
	 x="0px" y="0px" viewBox="0 0 48 48" xml:space="preserve">
<title>d365 business central</title>
<g id="a">
	<polygon fill="#17244F" points="46.3,24.2 35.2,43.5 12.9,43.5 1.8,24.2 12.9,4.9 35.2,4.9 	"/>
</g>
<g>
	<path fill="#FFFFFF" d="M29.1,19.2c-0.4,0.4-0.8,0.8-1.3,1.2c-1.5-1.2-3.2-1.8-5.1-1.3c-1.3,0.3-2.3,1.1-3,2.1
		c-1.5,2.1-1.2,5,0.6,6.9c2.1,2,4.8,2.1,7.5,0.1c0.4,0.4,0.8,0.7,1.3,1.2c-0.9,1-2,1.6-3.3,1.9c-0.6,0.1-0.8,0.4-0.7,1
		c0,0.3,0,0.7,0,1c-0.1,0.8,0.1,1.3,0.9,1.8c1.4,0.9,1.6,3,0.5,4.3c-1.1,1.3-3.1,1.4-4.4,0.2c-1.3-1.2-1.4-3.4,0.1-4.4
		c1-0.7,1.1-1.4,1.1-2.5c0-0.9-0.1-1.3-1.1-1.6c-2.6-0.7-4.2-2.5-4.9-5.1c-0.2-0.6-0.4-0.8-1-0.8c-0.3,0-0.5,0-0.8,0
		c-0.8-0.1-1.5,0.1-2,0.9c-0.6,1.1-2.1,1.4-3.4,1c-1.2-0.4-2-1.6-2-3c0-1.3,0.8-2.4,2-2.8c1.3-0.4,2.6,0,3.4,1.1
		c0.2,0.3,0.5,0.8,0.7,0.8c0.9,0.1,1.7,0,2.6,0c0.1,0,0.3-0.4,0.3-0.6c0.8-2.9,2.5-4.7,5.4-5.4c0.4-0.1,0.7-0.3,0.6-0.8
		c0-0.4,0-0.7,0-1.1c0.1-0.8-0.1-1.4-0.9-1.9c-1.5-0.9-1.6-3.1-0.4-4.4c1.2-1.3,3.2-1.3,4.5,0c1.2,1.3,1.1,3.4-0.3,4.5
		c-0.3,0.2-0.8,0.5-0.9,0.8c-0.1,0.8-0.1,1.7,0,2.6c0,0.1,0.4,0.3,0.6,0.4C26.9,17.6,28.1,18.2,29.1,19.2z M24.1,10
		c-0.7,0-1.3,0.5-1.3,1.2c0,0.6,0.5,1.2,1.2,1.2c0.6,0,1.3-0.6,1.3-1.2C25.3,10.6,24.7,10,24.1,10z M12.1,24.3
		c0-0.7-0.5-1.2-1.2-1.3c-0.6,0-1.2,0.5-1.3,1.2c0,0.7,0.6,1.3,1.2,1.3C11.6,25.5,12.1,25,12.1,24.3z M24,38.6
		c0.6,0,1.2-0.5,1.3-1.2c0-0.6-0.5-1.2-1.2-1.2c-0.7,0-1.3,0.5-1.3,1.2C22.8,38,23.4,38.6,24,38.6z"/>
	<path fill="#FFFFFF" d="M30.5,25.2c-0.6,0-1.2,0-1.8,0c-1-0.1-1.8,0-2.5,1.1c-0.9,1.4-3.1,1.4-4.3,0.1c-1.2-1.3-1.1-3.4,0.2-4.6
		c1.3-1.1,3.4-0.9,4.3,0.6c0.5,0.7,0.9,0.9,1.7,0.9c1.8,0,3.6,0,5.5,0c0.3,0,0.8-0.3,0.9-0.6c0.8-1.2,2.1-1.8,3.5-1.4
		c1.3,0.4,2.2,1.6,2.2,3c0,1.4-0.8,2.6-2.1,3c-1.4,0.4-2.7-0.1-3.4-1.4c-0.3-0.5-0.6-0.6-1.1-0.6C32.5,25.3,31.5,25.2,30.5,25.2z
		 M24,25.5c0.7,0,1.2-0.6,1.2-1.3c0-0.7-0.6-1.2-1.2-1.2c-0.7,0-1.2,0.6-1.2,1.3C22.8,25,23.4,25.5,24,25.5z M37.2,23
		c-0.6,0-1.2,0.5-1.2,1.2c0,0.7,0.5,1.3,1.2,1.3c0.6,0,1.3-0.6,1.2-1.2C38.4,23.6,37.8,23.1,37.2,23z"/>
</g>
</svg>
