<svg xmlns="http://www.w3.org/2000/svg" viewBox="0 0 48 48"><defs><style>.cls-1{fill:#478d85;}</style></defs><title>icon-</title><g id="Dataverse"><path class="cls-1" d="M43.17,14.87a.35.35,0,0,0-.06-.14L43,14.55,33.82,5.34l-.38-.16H13.6l-.37.15L3.68,14.45l-.05.11a.82.82,0,0,0-.1.24V33.6l.15.38,9.55,9.55.38.15H33.22l.38-.15L43,34.09l.15-.38V14.93Zm-1,9.5L33,33.49H23.91L15.16,25H33.22l.38-.15,8.53-8.53ZM4.58,16.14l8.66,8.44v8.34L4.58,24.26ZM14.3,34.55h8l-8,7.39Zm0-1.06V25.62l8.09,7.87ZM41.94,15,33,23.9H14.3V6.24H33.22ZM13.24,6.79V23.1L4.79,14.86ZM4.58,33.38V25.76l8.64,8.64h0V42ZM33,42.62H15.14l8.76-8.07h9.32l.38-.15,8.53-8.53v7.62Z"/></g></svg>