<svg id="6f50e9f0-160c-4295-acdf-29c0f719bd11" data-name="Icons" xmlns="http://www.w3.org/2000/svg" viewBox="0 0 108 72">
  <defs>
    <style>
      .df0c8696-b08e-448b-8b95-0b05bc37e06e {
        fill: #323232;
      }
    </style>
  </defs>
  <title>delighted</title>
  <path class="df0c8696-b08e-448b-8b95-0b05bc37e06e" d="M50.23,31.38a1.48,1.48,0,1,0-1.48-1.48A1.48,1.48,0,0,0,50.23,31.38ZM95,32.61c5.71,4,.46,11.28-3,9.8-.61-.31-.61-.71.31-3Zm-2.2-1L91.84,34a2.21,2.21,0,0,0-2.19-1.69c-3,0-4.86,4.44-5.47,7.35-.3,1.33-3,2.51-4.54,2.51C77,42.16,78,39.3,78,39.3c3.12.35,4.85-.41,5.88-2.56,1.27-2.7-.11-4.44-2.3-4.44-3.83,0-6.23,5.16-6.23,8.12v.15c0,.67-1.69,1.64-2.35,1.64-.46,0-1-.31,0-2.71l3-7.35C84.18,30.36,89.49,30.56,92.76,31.64Zm-5.57,10c-.45,0-.66-.25-.66-.86,0-1.59,1.74-6.39,3.63-6.39,1,0,1,1.38,1,1.38l-1.64,4C89.49,39.81,88.37,41.64,87.19,41.64ZM37,34.34c.72,0,.72.62.26,1.69a2.56,2.56,0,0,1-2.45,1.84h-.57a.45.45,0,0,1-.25,0S35.22,34.34,37,34.34Zm44.53,0c.71,0,.71.62.25,1.69a2.67,2.67,0,0,1-3.27,1.79S79.74,34.34,81.48,34.34ZM51.55,49.56c-1.07,1.89-2.8,1.79-3,1-.3-1.48,1.74-2.76,4.91-4.75A30.28,30.28,0,0,1,51.55,49.56Zm1.84-7.92c-.46,0-.71-.25-.71-.86,0-1.59,1.73-6.39,3.62-6.39,1,0,1,1.38,1,1.38l-1.63,4C55.69,39.81,54.57,41.64,53.39,41.64Zm7-2.5c-.51,1.07-1.94,1.84-2.86,2.45l3.52-8.68c0-.15,0-.3-.2-.3H59a.52.52,0,0,0-.46.3l-.41,1a2.22,2.22,0,0,0-2.3-1.68c-3,0-4.85,4.59-5.41,7.45a4.18,4.18,0,0,1-2.76,2.4c-.4,0-.81-.35.11-2.7l2.65-6.49c0-.15,0-.3-.2-.3H48.34a.51.51,0,0,0-.46.3s-2.3,5.88-2.86,7.25a3.25,3.25,0,0,1-2.45,1.94c-.41,0-.82-.35.1-2.7l5.11-12.61c0-.16,0-.31-.21-.31H45.68a.51.51,0,0,0-.46.31L40.27,38.84c-.56,1.43-3.37,3.26-5.11,3.26-2.34,0-1.83-2.24-1.68-2.8h1.28c2.34.05,3.77-.77,4.64-2.66,1.28-2.71-.1-4.44-2.3-4.44-2.8,0-4.85,2.76-5.71,5.36,0,0-.05.1-.05.2-.41,0-.82,0-1.13,0a9.66,9.66,0,0,0-8.93-13.32,9.21,9.21,0,0,0-4.29,1h0c-4.55,2.14-5.67,7-.31,10.11a27.84,27.84,0,0,1-2.81,4.13.46.46,0,0,0,0,.56,6.89,6.89,0,0,0,1.64,1.64h0l.15.1a9.77,9.77,0,0,0,5.67,1.84A9.66,9.66,0,0,0,29.6,39a11.86,11.86,0,0,0,1.43.05,5.75,5.75,0,0,0-.1,1.28c0,2.14,1.22,3.37,3.62,3.37a7.24,7.24,0,0,0,5.11-2.2,1.92,1.92,0,0,0,2.09,2.2,4.56,4.56,0,0,0,3.06-1.48,1.84,1.84,0,0,0,2,1.48,4.93,4.93,0,0,0,3.42-1.84,2,2,0,0,0,2,1.84,3.21,3.21,0,0,0,2.4-1.43l-.36,1.12c-2.81,2.5-7.4,3.58-7.55,6.79-.21,3.63,5.36,4.5,7.4-.61l2.4-5.77a28.2,28.2,0,0,0,2.91-2.2l-.77,1.84c0,.16,0,.31.21.31h1.89a.51.51,0,0,0,.46-.31l3.11-7.55a3.89,3.89,0,0,1,2.5-1.54c.36,0,.62.16.62.46s-1.38,3.78-1.38,3.78c-1.53,3.73-.56,5.11,1.33,5.11a4.38,4.38,0,0,0,2.75-1.18,1.92,1.92,0,0,0,2.05,1.18A4.89,4.89,0,0,0,75.76,42c.51,1.13,1.63,1.74,3.32,1.74a7.31,7.31,0,0,0,5-2.1,2.11,2.11,0,0,0,2.14,2.1,4.55,4.55,0,0,0,3.07-1.69s.15,1.23,2.09,1.69c7.1,1.73,12.72-8.48,4.34-12.61l1.74-4.34c.05-.16,0-.31-.21-.31h-2a.51.51,0,0,0-.46.31l-1.43,3.47c-3.67-1-9.09-1.13-16.8.41l1.59-3.93a.23.23,0,0,0-.21-.31H76.06a.53.53,0,0,0-.46.31L74,30.87v.05h0l-.15.41c-.67.15-1.33.31-2,.51a.62.62,0,0,0-.45.41c-.11.25-.26.41-.36.61s.2.26.36.26l1.88-.46c-1.37,3.47-3,7.45-3.21,8.07A2.45,2.45,0,0,1,68.2,42.1c-.36,0-.87-.25.1-2.7l1.18-3a7,7,0,0,0,.66-2.51,1.61,1.61,0,0,0-1.79-1.68,5,5,0,0,0-3.06,1.38l1.43-3.37c3-.16,5.87-1.18,6.18-3.58,0-3.62-5.72-4.64-7.56.51l-.61,1.54a12.27,12.27,0,0,1-4.8-1.48c-.21-.11-.41-.06-.46.15l-.21.31a.56.56,0,0,0,.16.61A10.74,10.74,0,0,0,64.22,30h0Zm6.79-10.26c1.33-3.57,3.78-3.47,3.73-2.2C70.91,27.71,69.22,28.62,67.23,28.88ZM18.77,27.3a7.65,7.65,0,0,1,2.46-.41,5.56,5.56,0,0,1,.91.05c-2.34,1.33-3.77,4.65-4.9,7.3C13.82,31.64,15.1,28.52,18.77,27.3Zm5.31.15a7.3,7.3,0,0,1,4.4,6.64,6.87,6.87,0,0,1-.92,3.52,25.57,25.57,0,0,1-8.38-2.25C20.15,32.61,21.53,28.57,24.08,27.45ZM16.73,40.32a20.13,20.13,0,0,0,2-3.73,38.21,38.21,0,0,0,8.07,2.2,8.07,8.07,0,0,1-5.77,3A7.85,7.85,0,0,1,16.73,40.32Z"/>
</svg>
