<svg id="CURRENT" xmlns="http://www.w3.org/2000/svg" xmlns:xlink="http://www.w3.org/1999/xlink" viewBox="0 0 48 48">
  <defs>
    <linearGradient id="linear-gradient" x1="-129.09" y1="-241.66" x2="-129.09" y2="-222.45" gradientTransform="translate(252 438.09) scale(1.8)" gradientUnits="userSpaceOnUse">
      <stop offset="0" stop-opacity="0.6"/>
      <stop offset="0.6" stop-opacity="0.1"/>
    </linearGradient>
    <linearGradient id="linear-gradient-2" x1="-124.24" y1="-222.54" x2="-124.24" y2="-241.74" xlink:href="#linear-gradient"/>
    <linearGradient id="linear-gradient-3" x1="-131.54" y1="-230.25" x2="-128.27" y2="-219.73" gradientTransform="translate(252 438.09) scale(1.8)" gradientUnits="userSpaceOnUse">
      <stop offset="0" stop-opacity="0.5"/>
      <stop offset="0.75" stop-opacity="0.03"/>
    </linearGradient>
    <linearGradient id="linear-gradient-4" x1="-133.5" y1="-234.48" x2="-124.04" y2="-234.48" gradientTransform="translate(252 438.09) scale(1.8)" gradientUnits="userSpaceOnUse">
      <stop offset="0" stop-opacity="0.9"/>
      <stop offset="0.6" stop-opacity="0.1"/>
    </linearGradient>
  </defs>
  <title>doubleclickfp</title>
  <g>
    <path d="M28.34,3A15.78,15.78,0,0,0,24,3.57,17.36,17.36,0,0,1,37.05,20v.67a8.75,8.75,0,0,1-8.71,8.37A8.32,8.32,0,0,1,24,27.91a8.64,8.64,0,0,1-4.34-7.55A8.77,8.77,0,0,1,24,12.82a8.43,8.43,0,0,0-4.31-1.16A8.65,8.65,0,0,0,11,20v.67A17.34,17.34,0,1,0,28.34,3Z" style="fill: #369647"/>
    <path d="M37,20A17.35,17.35,0,1,0,19.63,37.7,15.91,15.91,0,0,0,24,37.13,17.32,17.32,0,0,1,11,20.67V20a8.7,8.7,0,0,1,8.65-8.37A8.36,8.36,0,0,1,24,12.79a8.61,8.61,0,0,1,4.31,7.55A8.77,8.77,0,0,1,24,27.88,9.2,9.2,0,0,0,28.31,29,8.65,8.65,0,0,0,37,20.67v-.33A1,1,0,0,0,37,20Z" style="fill: #aeea00"/>
    <path d="M37,20A17.35,17.35,0,1,0,19.63,37.7,15.91,15.91,0,0,0,24,37.13,17.32,17.32,0,0,1,11,20.67V20a8.7,8.7,0,0,1,8.65-8.37A8.36,8.36,0,0,1,24,12.79a8.61,8.61,0,0,1,4.31,7.55A8.77,8.77,0,0,1,24,27.88,9.2,9.2,0,0,0,28.31,29,8.65,8.65,0,0,0,37,20.67v-.33A1,1,0,0,0,37,20Z" style="opacity: 0.150000005960464;isolation: isolate;fill: url(#linear-gradient)"/>
    <path d="M28.34,3A15.78,15.78,0,0,0,24,3.57,17.36,17.36,0,0,1,37.05,20v.67a8.75,8.75,0,0,1-8.71,8.37A8.32,8.32,0,0,1,24,27.91a8.64,8.64,0,0,1-4.34-7.55A8.77,8.77,0,0,1,24,12.82a8.43,8.43,0,0,0-4.31-1.16A8.65,8.65,0,0,0,11,20v.67A17.34,17.34,0,1,0,28.34,3Z" style="opacity: 0.150000005960464;isolation: isolate;fill: url(#linear-gradient-2)"/>
    <path d="M24,37.16A17.34,17.34,0,0,1,11,20.7v.08a25.29,25.29,0,0,0,6.28,16.79,19.06,19.06,0,0,0,2.38.18A19.48,19.48,0,0,0,24,37.16Z" style="opacity: 0.400000005960465;isolation: isolate;fill: url(#linear-gradient-3)"/>
    <path d="M11.08,20.08a8.62,8.62,0,0,1,10.57-5.82,2,2,0,0,0,.46.13A9.05,9.05,0,0,1,24,12.87a8.44,8.44,0,0,0-4.32-1.16,8.61,8.61,0,0,0-8.63,8.37l0,.28A.26.26,0,0,1,11.08,20.08Z" style="opacity: 0.25;isolation: isolate;fill: url(#linear-gradient-4)"/>
    <g style="isolation: isolate">
      <g>
        <path d="M32.47,37.76h5.64v1.39h-4V41h3.51v1.38H34.11v3.32H32.47Z" style="fill: #359647;isolation: isolate"/>
        <path d="M44.5,42.24a3,3,0,0,1-2,.58H40.87v2.85H39.23V37.75h3.39a2.74,2.74,0,0,1,1.88.61,2.38,2.38,0,0,1,.7,1.9A2.44,2.44,0,0,1,44.5,42.24Zm-1.26-2.85a1.3,1.3,0,0,0-.88-.26H40.87v2.33h1.49a1.26,1.26,0,0,0,.88-.29,1.16,1.16,0,0,0,.32-.9A1.08,1.08,0,0,0,43.24,39.39Z" style="fill: #359647;isolation: isolate"/>
      </g>
    </g>
  </g>
</svg>
