<svg id="b56d4699-b8be-410d-9841-01cb48cb171d" data-name="Icons" xmlns="http://www.w3.org/2000/svg" viewBox="0 0 108 72">
  <defs>
    <style>
      .\34 a4f4031-e081-46f9-b870-1ef7aedbc42b {
        fill: #ff00fa;
      }
    </style>
  </defs>
  <title>drip</title>
  <g>
    <g id="c1e05da1-db86-4500-8746-cb899511c3a1" data-name="logomark">
      <path id="5271d54f-9ef4-4590-9e98-3da4fe2f7167" data-name="logo-mouth" class="4a4f4031-e081-46f9-b870-1ef7aedbc42b" d="M28.26,36.67h-3V37a6.83,6.83,0,1,1-13.65,0v-.36H8.76V37a9.75,9.75,0,1,0,19.5,0Z"/>
      <path id="2016ca21-d1f5-46bc-9888-05a9b202fc6e" data-name="logo-hat" class="4a4f4031-e081-46f9-b870-1ef7aedbc42b" d="M18.51,24.68l2,2.82h3.68A47.9,47.9,0,0,0,18.51,21a49.08,49.08,0,0,0-5.77,6.5h3.68Z"/>
      <g id="8efe94c0-c4c4-4388-9f53-47f861e2583c" data-name="logo-eyes">
        <circle id="83413000-0faa-4dd8-b01e-ad67b3b04508" data-name="logo-eye-left" class="4a4f4031-e081-46f9-b870-1ef7aedbc42b" cx="12.66" cy="32.19" r="1.95"/>
        <circle id="846cc1f0-fdb4-4d1b-a0c6-4a6b5629cb8b" data-name="logo-eye-center" class="4a4f4031-e081-46f9-b870-1ef7aedbc42b" cx="18.51" cy="32.19" r="1.95"/>
        <circle id="124ccc47-d815-4d9d-93b0-75a48b6d40a9" data-name="logo-eye-right" class="4a4f4031-e081-46f9-b870-1ef7aedbc42b" cx="24.36" cy="32.19" r="1.95"/>
      </g>
    </g>
    <g id="6ab180b2-5550-4ac6-9188-89043d3166a5" data-name="wordmark">
      <path id="fddd5124-d265-469f-a661-52f8b08cadb0" data-name="wordmark-d" class="4a4f4031-e081-46f9-b870-1ef7aedbc42b" d="M53,46.49H49.5V43.68a8.81,8.81,0,0,1-7.23,3.39,9.77,9.77,0,0,1-7.22-2.74,9.93,9.93,0,0,1-2.81-7.15A9.22,9.22,0,0,1,35.05,30a10.28,10.28,0,0,1,7.22-2.75,8.88,8.88,0,0,1,7.23,3.11V21H53ZM42.56,30.32c-4.26,0-6.86,2.45-6.86,6.79,0,4.18,2.6,6.71,6.86,6.71s6.94-2.53,6.94-6.71S46.9,30.32,42.56,30.32Z"/>
      <polygon id="a5761705-fcd9-432f-aec9-c65e6266728b" data-name="wordmark-r" class="4a4f4031-e081-46f9-b870-1ef7aedbc42b" points="68.56 30.61 60.19 30.61 60.19 47 56.86 47 56.86 27.5 68.56 27.5 68.56 30.61"/>
      <path id="f3c8c18b-d75f-4709-a625-25b9fa26a223" data-name="wordmark-i" class="4a4f4031-e081-46f9-b870-1ef7aedbc42b" d="M71.16,23.09a1.79,1.79,0,0,1,1-1.73,1.64,1.64,0,0,1,2,0,1.8,1.8,0,0,1,1,1.73,1.85,1.85,0,0,1-1,1.81,1.64,1.64,0,0,1-2,0A2,2,0,0,1,71.16,23.09Zm.36,4.63h3.25V47H71.52Z"/>
      <path id="eebae074-363a-4744-a255-7db7ecb9a0fb" data-name="wordmark-p" class="4a4f4031-e081-46f9-b870-1ef7aedbc42b" d="M79,27.93h3.47v2.82a9,9,0,0,1,7.3-3.25A10.17,10.17,0,0,1,97,30.24a9.62,9.62,0,0,1,2.82,7.15A9.48,9.48,0,0,1,97,44.54a10.49,10.49,0,0,1-7.37,2.75,8.88,8.88,0,0,1-7.15-3.18V53.5H79V27.93ZM89.29,44.18c4.34,0,6.94-2.45,6.94-6.79s-2.6-6.71-6.94-6.71-6.86,2.53-6.86,6.71S85,44.18,89.29,44.18Z"/>
    </g>
  </g>
</svg>
