<svg id="2317c1d1-9ab3-4017-848a-d26b51232388"   xmlns="http://www.w3.org/2000/svg" viewBox="0 0 48 48">
  <title>dynamics nav</title>
  <g>
    <path d="M44,40.25a.86.86,0,0,1-.27.65,1,1,0,0,1-1.32,0,.86.86,0,0,1-.27-.65.9.9,0,0,1,.27-.66,1,1,0,0,1,1.32,0,.87.87,0,0,1,.27.66m-.11,0a.78.78,0,0,0-.24-.58.78.78,0,0,0-.58-.23.76.76,0,0,0-.58.23.83.83,0,0,0,0,1.17.78.78,0,0,0,.58.23.82.82,0,0,0,.58-.23.79.79,0,0,0,.24-.59m-.37.58h-.2l-.13-.28c-.06-.14-.13-.22-.21-.22h-.11v.5h-.16V39.65h.33a.5.5,0,0,1,.33.1.27.27,0,0,1,.1.22.32.32,0,0,1-.08.21.36.36,0,0,1-.22.11h0c.07,0,.13.09.2.22ZM43.33,40a.18.18,0,0,0,0-.14.34.34,0,0,0-.22-.06h-.15v.4h.18c.16,0,.24-.06.24-.2"/>
    <path d="M1.19,41.52c20.39-7.67,39.32-.22,39.32-.22l.72-.31.1-23.89-.85-.61a83,83,0,0,1-7.26,7.26V37.54L32,38.25S19.93,33.07,1.32,41.36"/>
    <path d="M1.19,41.52V38.24S7.64,33.59,13.9,22C20.6,9.51,20.72,3.75,20.72,3.75l.86.6-.14,30-.84.49A36.59,36.59,0,0,0,1.19,41.52Z"/>
    <path d="M31.21,10.31a44.47,44.47,0,0,1-8.53,13.84L22.62,34.9l-.83.5s-9-.7-20.6,6v.12c18.11-9,29.93-4.13,29.93-4.13l.83-.49.05-26Z"/>
  </g>
</svg>
