<svg id="12001ce0-a653-45fb-9df2-cdc564f85ea4" data-name="Icons" xmlns="http://www.w3.org/2000/svg" viewBox="0 0 108 72">
  <defs>
    <style>
      .c013138e-a929-4077-b0be-fae6e571d27d {
        fill: #6b6b6b;
      }

      .\34 d58e0ee-56ef-47c1-a44c-3328f208875f {
        fill: #e53238;
      }

      .\31 e329bc6-9ac9-4918-b489-e7d69af431a1 {
        fill: #0064d2;
      }

      .bd57dd05-8cc0-44fc-bc28-72a113d9e52e {
        fill: #f5af02;
      }

      .be4c8743-5c5b-4b93-a1c5-8f95e3581f51 {
        fill: #86b817;
      }
    </style>
  </defs>
  <title>ebay analytics</title>
  <g>
    <path class="c013138e-a929-4077-b0be-fae6e571d27d" d="M55.88,40l-.12,0c-1,0-.95,0-1.3-.85-.21-.56-.43-1.11-.64-1.67a.3.3,0,0,0-.33-.23H50.23a.29.29,0,0,0-.32.23c-.29.77-.59,1.52-.88,2.28-.06.18-.14.27-.35.25s-.51,0-.81,0a2.86,2.86,0,0,1,.1-.31c1.08-2.77,2.16-5.53,3.24-8.31a.35.35,0,0,1,.4-.27c.81,0,.81,0,1.1.75,1,2.59,2,5.17,3,7.76C55.8,39.78,55.83,39.89,55.88,40Zm-5.51-3.7h3l-1.5-3.87Z"/>
    <path class="c013138e-a929-4077-b0be-fae6e571d27d" d="M68.92,40h-.85v-.72c-.06,0-.1,0-.12,0A2.67,2.67,0,0,1,65,40a1.79,1.79,0,0,1-.86-2.89,2.8,2.8,0,0,1,1.38-.7c.5-.12,1-.22,1.52-.33a1,1,0,0,0,.25-.06c.3-.1.6-.19.65-.56a1,1,0,0,0-.42-1,1.77,1.77,0,0,0-2.7,1l0,.14h-.89a2,2,0,0,1,1.34-2,3.45,3.45,0,0,1,2.45-.07A1.82,1.82,0,0,1,69,35.48c0,1.48,0,3,0,4.43A.3.3,0,0,1,68.92,40Zm-.87-3.49c-.73.21-1.37.38-2,.58a3.5,3.5,0,0,0-.8.34,1,1,0,0,0-.1,1.59c.7.6,2.52.4,2.79-.84A12.84,12.84,0,0,0,68.05,36.54Z"/>
    <path class="c013138e-a929-4077-b0be-fae6e571d27d" d="M93.68,37.67a3.07,3.07,0,0,1-3.48,2.51A3.37,3.37,0,0,1,90,33.51,3.06,3.06,0,0,1,93.69,36a8.77,8.77,0,0,1-.89,0c-.08,0-.18-.14-.21-.23A2.21,2.21,0,0,0,88.92,35a2.8,2.8,0,0,0-.44,2.9,2.21,2.21,0,0,0,2.16,1.39,2,2,0,0,0,1.92-1.4c.07-.19.14-.27.34-.25Z"/>
    <path class="c013138e-a929-4077-b0be-fae6e571d27d" d="M94.74,38h1a1.89,1.89,0,0,0,2.8,1.09.87.87,0,0,0,.51-.81.76.76,0,0,0-.52-.76c-.53-.18-1.08-.29-1.63-.44a6.77,6.77,0,0,1-1.1-.37,1.6,1.6,0,0,1-.11-2.84,3.09,3.09,0,0,1,3.2,0,1.89,1.89,0,0,1,1,1.53h-.93a1.75,1.75,0,0,0-2.41-1c-.43.17-.66.44-.65.8a.81.81,0,0,0,.63.81c.55.17,1.11.27,1.67.41a5.35,5.35,0,0,1,.68.21,1.56,1.56,0,0,1,1.19,1.5,1.74,1.74,0,0,1-1.12,1.75A3.42,3.42,0,0,1,96,39.85,2.12,2.12,0,0,1,94.74,38Z"/>
    <path class="c013138e-a929-4077-b0be-fae6e571d27d" d="M58.16,40h-.95V33.65h.93l0,.72a2.36,2.36,0,0,1,2.67-.79,1.89,1.89,0,0,1,1.42,1.9c.06,1.51,0,3,0,4.55h-1v-1c0-.92,0-1.83,0-2.74a3.82,3.82,0,0,0,0-.68,1.44,1.44,0,0,0-1.49-1.35,1.53,1.53,0,0,0-1.57,1.36,4.32,4.32,0,0,0-.05.62V40Z"/>
    <path class="c013138e-a929-4077-b0be-fae6e571d27d" d="M74.48,42.34c.3-.75.58-1.44.83-2.14a.83.83,0,0,0,0-.54c-.74-1.9-1.49-3.78-2.24-5.67l-.14-.35c.36,0,.69,0,1,0,.06,0,.14.14.18.23q.86,2.22,1.7,4.44c0,.1.09.19.16.35.37-1,.72-1.9,1.08-2.82.25-.66.51-1.32.75-2a.3.3,0,0,1,.35-.24H79c-.33.85-.65,1.65-1,2.46q-1.17,3-2.33,5.94c-.09.24-.21.35-.47.32A5.52,5.52,0,0,0,74.48,42.34Z"/>
    <path class="c013138e-a929-4077-b0be-fae6e571d27d" d="M79.65,34.44v-.8h1.06c0-.38,0-.72,0-1.06a.56.56,0,0,1,.17-.35c.23-.21.5-.38.8-.61v2h1.52v.81h-1.5V38a3.41,3.41,0,0,0,.05.55.81.81,0,0,0,.89.76h.55v.83A3.06,3.06,0,0,1,81.61,40a1.56,1.56,0,0,1-.88-1.55c0-1.2,0-2.39,0-3.59v-.39Z"/>
    <path class="c013138e-a929-4077-b0be-fae6e571d27d" d="M71.71,40h-.92V31.18h.92Z"/>
    <path class="c013138e-a929-4077-b0be-fae6e571d27d" d="M84.85,33.65l.23,0h.71V40h-.94Z"/>
    <path class="c013138e-a929-4077-b0be-fae6e571d27d" d="M85.32,30.9a.6.6,0,0,1,.63.67.63.63,0,0,1-.64.64.64.64,0,0,1-.65-.66A.63.63,0,0,1,85.32,30.9Z"/>
  </g>
  <path id="b9e02740-8232-4e34-b65c-477ee113f31c" data-name="e" class="4d58e0ee-56ef-47c1-a44c-3328f208875f" d="M12.86,30.81C10.21,30.81,8,31.93,8,35.33c0,2.69,1.49,4.38,4.94,4.38C17,39.71,17.24,37,17.24,37h-2a2.36,2.36,0,0,1-2.47,1.44,2.69,2.69,0,0,1-2.87-2.71h7.51v-1c0-1.56-1-4-4.59-4Zm-.07,1.26a2.43,2.43,0,0,1,2.67,2.44H10A2.6,2.6,0,0,1,12.79,32.07Z"/>
  <path id="290360fc-dfa6-435c-a610-b1110aa09af7" data-name="b" class="1e329bc6-9ac9-4918-b489-e7d69af431a1" d="M17.45,27.52V38c0,.59-.05,1.43-.05,1.43h1.88s.07-.6.07-1.15a4,4,0,0,0,3.44,1.45,4.25,4.25,0,0,0,4.45-4.48,4.23,4.23,0,0,0-4.45-4.43c-2.61,0-3.43,1.42-3.43,1.42V27.52Zm4.86,4.61a2.91,2.91,0,0,1,3,3.13,3,3,0,0,1-2.94,3.18,2.94,2.94,0,0,1-3-3.16A2.92,2.92,0,0,1,22.31,32.13Z"/>
  <path id="f56c57f8-4fc5-4725-87e9-a8be9740c5f9" data-name="a" class="bd57dd05-8cc0-44fc-bc28-72a113d9e52e" d="M31.9,30.81c-4,0-4.25,2.18-4.25,2.53h2s.1-1.27,2.12-1.27c1.32,0,2.33.6,2.33,1.75v.41H31.76c-3.09,0-4.72.91-4.72,2.74s1.51,2.79,3.55,2.79c2.78,0,3.68-1.54,3.68-1.54,0,.62,0,1.22,0,1.22h1.77S36,38.69,36,38.21V34.08c0-2.7-2.18-3.27-4.11-3.27Zm2.19,4.66V36c0,.72-.44,2.5-3,2.5-1.42,0-2-.71-2-1.54,0-1.49,2.06-1.5,5.07-1.5Z"/>
  <path id="74035bdc-2dab-44b2-8ff1-ee9862480917" data-name="y" class="be4c8743-5c5b-4b93-a1c5-8f95e3581f51" d="M34.94,31.15h2.24l3.2,6.43,3.2-6.43h2L39.78,42.59H37.65l1.69-3.19Z"/>
</svg>
