<svg id="c21b9861-9b3a-4583-b61d-42912847b7fc" data-name="CURRENT" xmlns="http://www.w3.org/2000/svg" viewBox="0 0 48 48"><title>ebay analytics</title><path d="M9.58,36.7l-.1,0c-.78,0-.78,0-1.06-.7-.18-.45-.36-.91-.53-1.37a.24.24,0,0,0-.27-.18H5a.24.24,0,0,0-.27.19c-.23.62-.48,1.24-.72,1.87a.25.25,0,0,1-.28.2c-.21,0-.43,0-.67,0,0-.09.05-.17.08-.24q1.34-3.4,2.66-6.82a.28.28,0,0,1,.32-.22c.67,0,.67,0,.91.61.83,2.12,1.67,4.24,2.5,6.37C9.51,36.5,9.54,36.6,9.58,36.7Zm-4.52-3H7.51L6.29,30.49Z" style="fill:#6b6b6b"/><path d="M20.28,36.72h-.71v-.6s-.08,0-.09,0a2.19,2.19,0,0,1-2.42.58,1.47,1.47,0,0,1-.71-2.37,2.34,2.34,0,0,1,1.13-.57c.42-.11.84-.18,1.25-.27l.21,0c.24-.08.49-.16.53-.46a.79.79,0,0,0-.34-.79,1.46,1.46,0,0,0-2.22.81l0,.11h-.73a1.69,1.69,0,0,1,1.1-1.62,2.84,2.84,0,0,1,2-.05,1.48,1.48,0,0,1,1,1.52c0,1.21,0,2.42,0,3.64A.84.84,0,0,1,20.28,36.72Zm-.72-2.87c-.6.17-1.13.31-1.65.47a3,3,0,0,0-.66.28.79.79,0,0,0-.08,1.31,1.51,1.51,0,0,0,2.28-.69A8.74,8.74,0,0,0,19.56,33.85Z" style="fill:#6b6b6b"/><path d="M40.58,34.78a2.51,2.51,0,0,1-2.86,2,2.76,2.76,0,0,1-.15-5.46,2.51,2.51,0,0,1,3,2c-.25,0-.49,0-.73,0-.07,0-.15-.11-.18-.19a1.81,1.81,0,0,0-3-.6A2.29,2.29,0,0,0,36.32,35a1.83,1.83,0,0,0,1.76,1.14A1.65,1.65,0,0,0,39.66,35c.06-.15.12-.22.28-.21S40.37,34.78,40.58,34.78Z" style="fill:#6b6b6b"/><path d="M41.45,35.07h.79a1.57,1.57,0,0,0,2.31.9A.75.75,0,0,0,45,35.3a.62.62,0,0,0-.43-.62c-.43-.15-.89-.24-1.33-.36a4.79,4.79,0,0,1-.9-.31,1.32,1.32,0,0,1-.1-2.33,2.56,2.56,0,0,1,2.63,0,1.48,1.48,0,0,1,.78,1.25h-.76a1.43,1.43,0,0,0-2-.78c-.36.14-.54.36-.54.65a.66.66,0,0,0,.52.67c.45.14.91.22,1.37.34a3.62,3.62,0,0,1,.56.17,1.27,1.27,0,0,1,1,1.23,1.41,1.41,0,0,1-.92,1.43,2.8,2.8,0,0,1-2.4,0A1.77,1.77,0,0,1,41.45,35.07Z" style="fill:#6b6b6b"/><path d="M11.45,36.72h-.78V31.48h.77l0,.59a1.91,1.91,0,0,1,2.19-.64A1.55,1.55,0,0,1,14.82,33c0,1.24,0,2.48,0,3.73h-.78v-3a5.11,5.11,0,0,0-.05-.55A1.18,1.18,0,0,0,12.78,32a1.26,1.26,0,0,0-1.29,1.12,2.89,2.89,0,0,0,0,.5v3.08Z" style="fill:#6b6b6b"/><path d="M24.84,38.61c.24-.62.47-1.18.68-1.76a.66.66,0,0,0,0-.44c-.6-1.56-1.22-3.1-1.83-4.65,0-.08-.07-.16-.12-.29.3,0,.57,0,.84,0,.05,0,.11.12.14.19L26,35.31c0,.08.06.16.12.29L27,33.28c.2-.54.42-1.08.61-1.62a.26.26,0,0,1,.29-.2c.21,0,.41,0,.65,0l-.79,2c-.64,1.62-1.28,3.25-1.91,4.87-.08.2-.17.29-.38.26A5.78,5.78,0,0,0,24.84,38.61Z" style="fill:#6b6b6b"/><path d="M29.08,32.13v-.66H30c0-.31,0-.59,0-.87a.53.53,0,0,1,.14-.29,8.11,8.11,0,0,1,.66-.49v1.64H32v.66H30.76v.74c0,.72,0,1.43,0,2.14a3.55,3.55,0,0,0,0,.46.67.67,0,0,0,.73.62H32v.69a2.62,2.62,0,0,1-1.3-.1A1.3,1.3,0,0,1,30,35.39c0-1,0-2,0-2.94v-.32Z" style="fill:#6b6b6b"/><path d="M22.57,36.71H21.8V29.45h.77Z" style="fill:#6b6b6b"/><path d="M33.34,31.48h.77V36.7h-.77Z" style="fill:#6b6b6b"/><path d="M33.73,29.22a.5.5,0,0,1,.51.55.51.51,0,0,1-.52.53.54.54,0,0,1-.54-.54A.53.53,0,0,1,33.73,29.22Z" style="fill:#6b6b6b"/><path id="5e75216d-7d27-432b-bfb5-5d2a22306ce6" data-name="e" d="M11.43,14.28c-2.65,0-4.86,1.12-4.86,4.52,0,2.69,1.48,4.38,4.93,4.38,4.05,0,4.31-2.67,4.31-2.67h-2A2.36,2.36,0,0,1,11.38,22a2.69,2.69,0,0,1-2.87-2.71H16v-1c0-1.56-1-4-4.59-4Zm-.07,1.27A2.42,2.42,0,0,1,14,18H8.55A2.6,2.6,0,0,1,11.36,15.55Z" style="fill:#e53238"/><path id="6569635a-984a-474a-9ab5-bf1e36b585a5" data-name="b" d="M16,11V21.48c0,.59,0,1.43,0,1.43h1.87s.07-.6.07-1.15a4,4,0,0,0,3.44,1.45,4.25,4.25,0,0,0,4.45-4.48,4.23,4.23,0,0,0-4.44-4.43c-2.62,0-3.43,1.42-3.43,1.42V11Zm4.86,4.61a2.91,2.91,0,0,1,2.95,3.13,3,3,0,0,1-2.94,3.18,2.93,2.93,0,0,1-2.95-3.16A2.92,2.92,0,0,1,20.88,15.6Z" style="fill:#0064d2"/><path id="a7f9f741-f795-4711-b950-0309099c7dcc" data-name="a" d="M30.47,14.28c-4,0-4.25,2.18-4.25,2.53h2s.11-1.27,2.12-1.27c1.32,0,2.33.6,2.33,1.75v.41H30.33c-3.09,0-4.72.91-4.72,2.74s1.51,2.79,3.55,2.79c2.78,0,3.68-1.53,3.68-1.53,0,.61,0,1.21,0,1.21h1.77s-.07-.75-.07-1.23V17.56c0-2.71-2.18-3.28-4.11-3.28Zm2.19,4.66v.54c0,.72-.44,2.5-3,2.5-1.43,0-2-.71-2-1.54,0-1.49,2.06-1.5,5.07-1.5Z" style="fill:#f5af02"/><path id="2c840a43-aee1-472e-ae88-9ea66f739ce0" data-name="y" d="M33.51,14.62h2.24L39,21.05l3.2-6.43h2L38.35,26.06H36.23l1.68-3.19Z" style="fill:#86b817"/></svg>