<svg id="CURRENT" xmlns="http://www.w3.org/2000/svg" xmlns:xlink="http://www.w3.org/1999/xlink" viewBox="0 0 48 48"><defs><linearGradient id="linear-gradient" x1="23.82" y1="11.25" x2="11.79" y2="16.49" gradientTransform="translate(2.8 -1.21) rotate(8.8)" gradientUnits="userSpaceOnUse"><stop offset="0" stop-color="#fff"/><stop offset="1" stop-color="#678091"/></linearGradient><linearGradient id="linear-gradient-2" x1="24.86" y1="13.63" x2="12.83" y2="18.87" gradientTransform="translate(1.29 -1.19) rotate(4.18)" gradientUnits="userSpaceOnUse"><stop offset="0" stop-color="#b3bfc6"/><stop offset="1" stop-color="#678091"/></linearGradient><linearGradient id="linear-gradient-3" x1="23.06" y1="9.51" x2="11.03" y2="14.75" gradientTransform="translate(26.41 0.18) rotate(87.66)" xlink:href="#linear-gradient"/><linearGradient id="linear-gradient-4" x1="22.52" y1="8.27" x2="10.49" y2="13.51" gradientTransform="translate(24.09 -5.14) rotate(81.04)" xlink:href="#linear-gradient"/><linearGradient id="linear-gradient-5" x1="22.09" y1="7.29" x2="10.07" y2="12.53" gradientTransform="translate(23.02 -7.45) rotate(80.07)" xlink:href="#linear-gradient"/><linearGradient id="linear-gradient-6" x1="21.57" y1="6.1" x2="9.55" y2="11.34" gradientTransform="translate(21.61 -8.59) rotate(80.07)" xlink:href="#linear-gradient"/><linearGradient id="linear-gradient-7" x1="25.76" y1="15.7" x2="13.73" y2="20.94" gradientTransform="translate(37.6 -7.01) rotate(84.87)" xlink:href="#linear-gradient-2"/><linearGradient id="linear-gradient-8" x1="26.6" y1="17.64" x2="14.57" y2="22.88" gradientTransform="translate(39.71 -12.46) rotate(80.19)" xlink:href="#linear-gradient-2"/><linearGradient id="linear-gradient-9" x1="27.38" y1="19.42" x2="15.35" y2="24.66" gradientTransform="translate(43.22 -15.5) rotate(80.19)" xlink:href="#linear-gradient-2"/></defs><title>edgaronline</title><g id="mRsmaV"><path d="M12.13,32.6V27.75a1.16,1.16,0,0,1,.18,0h4.41c.16,0,.32,0,.48,0,1.11.13,1.51.57,1.52,1.68,0,.55,0,1.09,0,1.63,0,.93-.37,1.47-1.29,1.52C15.67,32.66,13.91,32.6,12.13,32.6Zm1.52-1.24c1,0,1.93,0,2.87,0,.45,0,.64-.23.66-.68s0-.66,0-1S17,29,16.46,29H13.65Z" style="fill:#042e4a"/><path d="M25.56,29.41H24.11c0-.52-.4-.55-.79-.55-.6,0-1.2,0-1.79,0s-.74.21-.76.76a9.43,9.43,0,0,0,0,1.19c0,.46.21.66.67.68.69,0,1.38,0,2.06,0,.42,0,.55-.19.55-.65H22.23v-1h3.35c0,.62,0,1.24,0,1.85a.93.93,0,0,1-1,.92c-.86.07-1.72.08-2.58.08a9.37,9.37,0,0,1-1.5-.07,1.35,1.35,0,0,1-1.29-1.41,18.12,18.12,0,0,1,0-1.95,1.42,1.42,0,0,1,1.5-1.56,35.42,35.42,0,0,1,3.57,0C25.26,27.77,25.67,28.35,25.56,29.41Z" style="fill:#042e4a"/><path d="M38.74,30.7c.92.44.6,1.22.66,1.93H37.91c0-.23,0-.47,0-.7a.49.49,0,0,0-.5-.55c-.8,0-1.61,0-2.45,0v1.25h-1.5v-4.9h.4c1.3,0,2.6,0,3.9,0a3.39,3.39,0,0,1,.55,0A1.14,1.14,0,0,1,39.42,29c0,.14,0,.29,0,.44A1.14,1.14,0,0,1,38.74,30.7Zm-3.81-.55c.82,0,1.6,0,2.38,0,.5,0,.64-.17.63-.65s-.15-.53-.65-.53H34.93Z" style="fill:#042e4a"/><path d="M11.55,31.45v1.18H6.14v-4.9h5.31v1.14H7.65v.76h3.62v1H7.66v.78Z" style="fill:#042e4a"/><path d="M6.06,35.1c0-.08,0-.13,0-.18a1.34,1.34,0,0,1,0-.19H39.39v.37Z" style="fill:#042e4a"/><path d="M15.81,38.93v-1.8h.84v2.73c-.41,0-.81,0-1.22,0-.11,0-.23-.15-.31-.26-.43-.52-.84-1-1.34-1.55v1.81h-.85V37.1c.4,0,.8,0,1.19,0a.53.53,0,0,1,.29.23c.45.54.88,1.09,1.31,1.64Z" style="fill:#042e4a"/><path d="M8,39.87c-.35,0-.69,0-1,0A.78.78,0,0,1,6.18,39c0-.33,0-.66,0-1,0-.58.27-.88.84-.91a18.39,18.39,0,0,1,2.1,0,.78.78,0,0,1,.83.87,8.85,8.85,0,0,1,0,1,.78.78,0,0,1-.83.87C8.75,39.89,8.39,39.87,8,39.87Zm0-.69h.39c.55,0,.64-.09.64-.65a1.71,1.71,0,0,0,0-.32.4.4,0,0,0-.44-.41H7.75c-.61,0-.7.08-.7.68s.07.7.71.7Z" style="fill:#042e4a"/><path d="M30.08,38v1.8h-.83V37.1c.38,0,.77,0,1.16,0,.11,0,.22.13.3.22.45.55.89,1.11,1.41,1.64V37.12h.81v2.74c-.39,0-.77,0-1.15,0a.53.53,0,0,1-.31-.21C31,39.1,30.6,38.55,30.16,38Z" style="fill:#042e4a"/><path d="M36.86,38.74v.46H39v.66H36V37.12h3v.63H36.86v.44h2v.55Z" style="fill:#042e4a"/><path d="M19.7,39.84V37.12h.82v2h1.89v.7Z" style="fill:#042e4a"/><path d="M25.32,37.11h.81v2.72h-.81Z" style="fill:#042e4a"/></g><path d="M28.22,31.76c.73,0,2.59,0,2.59,0l.48.86H33l-2.85-4.9-1.68,0S26.06,32,25.71,32.62h1.56c.05,0,.51-.86.51-.86m1.56-2.86.95,1.78H28.42Z" style="fill:#042e4a"/><g id="uqyOwZ"><path d="M41,29.74a1,1,0,1,1,1-1A1,1,0,0,1,41,29.74Zm0-.12a.9.9,0,0,0,.9-.9.9.9,0,1,0-1.8,0A.9.9,0,0,0,41,29.62Z" style="fill:#042e4a"/><path d="M41.09,28.79l.36.56h-.22s0,0-.06-.05-.16-.24-.23-.37a.18.18,0,0,0-.21-.1v.52h-.22V28.1a2.09,2.09,0,0,1,.56,0,.31.31,0,0,1,.24.27.36.36,0,0,1-.15.36l0,0Zm-.36-.15h.2a.16.16,0,0,0,.16-.18c0-.09,0-.14-.15-.16h-.21Z" style="fill:#042e4a"/></g><ellipse cx="9.28" cy="17.58" rx="3.31" ry="1.87" transform="translate(-2.58 1.63) rotate(-8.8)" style="fill:url(#linear-gradient)"/><ellipse cx="16.94" cy="17.08" rx="2.42" ry="1.37" transform="matrix(1, -0.07, 0.07, 1, -1.2, 1.28)" style="fill:url(#linear-gradient-2)"/><ellipse cx="13.11" cy="13.85" rx="1.37" ry="2.43" transform="translate(-1.26 26.38) rotate(-87.66)" style="fill:url(#linear-gradient-3)"/><ellipse cx="15.05" cy="11.52" rx="0.79" ry="1.89" transform="translate(1.32 24.6) rotate(-81.04)" style="fill:url(#linear-gradient-4)"/><ellipse cx="15.94" cy="9.97" rx="0.51" ry="1.53" transform="translate(3.37 23.95) rotate(-80.07)" style="fill:url(#linear-gradient-5)"/><ellipse cx="15.92" cy="8.56" rx="0.4" ry="1.19" transform="translate(4.74 22.76) rotate(-80.07)" style="fill:url(#linear-gradient-6)"/><ellipse cx="22.64" cy="17.06" rx="1.03" ry="1.82" transform="translate(3.62 38.08) rotate(-84.87)" style="fill:url(#linear-gradient-7)"/><ellipse cx="27.26" cy="17.35" rx="0.82" ry="1.44" transform="translate(5.51 41.26) rotate(-80.19)" style="fill:url(#linear-gradient-8)"/><ellipse cx="30.81" cy="17.92" rx="0.63" ry="1.11" transform="translate(7.9 45.23) rotate(-80.19)" style="fill:url(#linear-gradient-9)"/><ellipse cx="20.13" cy="12.09" rx="0.57" ry="1.01" transform="translate(4.79 29.87) rotate(-80.19)" style="fill:#4d6f80"/><ellipse cx="23.73" cy="12.43" rx="0.7" ry="1.23" transform="translate(7.44 33.7) rotate(-80.19)" style="fill:#4d6f80"/><ellipse cx="27.92" cy="12.68" rx="0.7" ry="1.52" transform="translate(8.32 36.27) rotate(-74.7)" style="fill:#4d6f80"/><ellipse cx="32.5" cy="13.21" rx="0.82" ry="1.79" transform="translate(9.74 39.9) rotate(-71.66)" style="fill:#4d6f80"/><ellipse cx="37.4" cy="14.19" rx="0.98" ry="2.13" transform="translate(10.77 44.03) rotate(-69.04)" style="fill:#4d6f80"/><ellipse cx="36.71" cy="16.28" rx="0.93" ry="2.03" transform="translate(8.38 44.74) rotate(-69.04)" style="fill:#4d6f80"/><ellipse cx="35.6" cy="18.55" rx="0.97" ry="1.7" transform="translate(5.54 45.16) rotate(-69.04)" style="fill:#4d6f80"/><ellipse cx="34.25" cy="21.1" rx="0.97" ry="1.52" transform="translate(2.29 45.54) rotate(-69.04)" style="fill:#4d6f80"/><ellipse cx="32.95" cy="23.36" rx="0.77" ry="1.2" transform="translate(-0.65 45.77) rotate(-69.04)" style="fill:#4d6f80"/></svg>