<svg id="Layer_1" data-name="Layer 1" xmlns="http://www.w3.org/2000/svg" viewBox="0 0 48 48">
  <title>egnyte</title>
  <g>
    <path d="M25.5,15.1h-3a.38.38,0,0,1-.37-.37V3.1a.37.37,0,0,1,.37-.37h3a.37.37,0,0,1,.37.37V14.73A.38.38,0,0,1,25.5,15.1Z" style="fill: #32bdb5"/>
    <path d="M31.82,31.36l1.5-2.62a.36.36,0,0,1,.5-.14l10,5.81a.38.38,0,0,1,.13.51l-1.5,2.62a.37.37,0,0,1-.5.14L32,31.86A.36.36,0,0,1,31.82,31.36Z" style="fill: #32bdb5"/>
    <path d="M14.69,28.74l1.49,2.62a.36.36,0,0,1-.13.5l-10,5.82a.37.37,0,0,1-.5-.14l-1.5-2.62a.37.37,0,0,1,.14-.51l10-5.81A.38.38,0,0,1,14.69,28.74Z" style="fill: #32bdb5"/>
    <path d="M42.92,17.67l-3.1-5.42A.67.67,0,0,0,38.9,12L24,20.68,9.09,12a.66.66,0,0,0-.91.24L5.07,17.67a.67.67,0,0,0,.25.92l14.9,8.67V44.6a.67.67,0,0,0,.67.67h6.2a.66.66,0,0,0,.67-.67V27.26l14.91-8.67A.68.68,0,0,0,42.92,17.67Z" style="fill: #4b4f54"/>
  </g>
</svg>
