<svg xmlns="http://www.w3.org/2000/svg" xmlns:xlink="http://www.w3.org/1999/xlink" viewBox="0 0 48 48"><defs><linearGradient id="a" x1="-58.65" y1="36.58" x2="-58.65" y2="13.15" gradientTransform="matrix(1, 0, -0.18, 1, 86.83, 0)" gradientUnits="userSpaceOnUse"><stop offset="0" stop-color="#f1f2f7"/><stop offset="0.45" stop-color="#eff0f5"/><stop offset="0.67" stop-color="#e9e9ed"/><stop offset="0.83" stop-color="#dddee0"/><stop offset="0.97" stop-color="#cecece"/><stop offset="1" stop-color="#c9c9c9"/></linearGradient><linearGradient id="b" x1="-48.92" y1="36.58" x2="-48.92" y2="13.15" xlink:href="#a"/><linearGradient id="c" x1="21.75" y1="39.8" x2="21.75" y2="23.54" gradientTransform="matrix(1, 0, 0, 1, 0, 0)" xlink:href="#a"/><linearGradient id="d" x1="25.18" y1="27.06" x2="26.25" y2="10.07" gradientTransform="matrix(1, 0, 0, 1, 0, 0)" xlink:href="#a"/></defs><title>email</title><polyline points="3.41 33.21 33.09 33.21 33.09 10.99" style="fill:none;stroke:#6a7b89;stroke-miterlimit:10;stroke-width:1.85428370080821px"/><path d="M46,10.61l-.15-.22c0-.06,0,0-.06,0l-.26-.08H7.09l-.29.08s0,0-.06,0a.74.74,0,0,0-.33.47L2,36.8a.47.47,0,0,0,.16.47s0,0,0,0l.27.07H40.85l.3-.07c.07,0,0,0,.06,0l.22-.21.1-.26L46,10.85Z" style="fill:#b2b2b2"/><path d="M41.16,36.8a.24.24,0,0,1-.24.2H2.53a.17.17,0,0,1-.18-.2L6.78,10.85A.26.26,0,0,1,7,10.66H45.42a.17.17,0,0,1,.18.19Z" style="fill:url(#a)"/><path d="M45.42,10.66H26.28L21.78,37H40.92a.24.24,0,0,0,.24-.2L45.6,10.85A.17.17,0,0,0,45.42,10.66Z" style="fill:url(#b)"/><path d="M6.9,10.7a.24.24,0,0,0-.09.08,8,8,0,0,1,0,1.91,4.21,4.21,0,0,0,.94,2.48s14,13.09,14.54,13.58a1.47,1.47,0,0,0,.92.46,2,2,0,0,0,1.07-.46c.71-.49,19-13.58,19-13.58A6.45,6.45,0,0,0,45,12.69a10.68,10.68,0,0,1,.59-1.91.22.22,0,0,0-.05-.08h0a.15.15,0,0,0-.1,0H7l-.12,0Z" style="fill:#444d66"/><path d="M40.92,37H2.53a.18.18,0,0,1-.18-.12,8.17,8.17,0,0,0,.59-1.75,5.81,5.81,0,0,1,1.74-2.3s18.19-12.08,18.9-12.54a2.15,2.15,0,0,1,1.07-.42,1.52,1.52,0,0,1,.92.42c.56.46,14.62,12.54,14.62,12.54a3.83,3.83,0,0,1,1,2.3,7.92,7.92,0,0,0,0,1.75A.24.24,0,0,1,40.92,37Z" style="fill:url(#c)"/><path d="M23.66,19.83l-6.13,4.41C20,26.67,22,28.61,22.25,28.8c.54.51.92.52,1,.51s1.84-1,1.15-.51l6.16-4.56L25.8,19.83a1.45,1.45,0,0,0-1-.48A2,2,0,0,0,23.66,19.83Z" style="fill:#606a91"/><path d="M45.42,10.66H7a.24.24,0,0,0-.21.11,8,8,0,0,1,0,1.76,3.76,3.76,0,0,0,1,2.29S21.82,26.91,22.38,27.37a1.5,1.5,0,0,0,.92.42,2.13,2.13,0,0,0,1.06-.42c.71-.46,18.91-12.55,18.91-12.55A5.93,5.93,0,0,0,45,12.53a9.78,9.78,0,0,1,.58-1.76A.16.16,0,0,0,45.42,10.66Z" style="fill:url(#d)"/></svg>