<svg id="Layer_1" data-name="Layer 1" xmlns="http://www.w3.org/2000/svg" viewBox="0 0 48 48"><defs><style>.cls-1{fill:#0291d9;}</style></defs><title>enchant</title><path class="cls-1" d="M41.73,22a.06.06,0,0,1,0,0,.72.72,0,0,0-.7-.54.73.73,0,0,0-.68.49.58.58,0,0,0,0,.19A17,17,0,0,1,23.66,35.59a11.6,11.6,0,0,1,0-23.19,6.2,6.2,0,0,1,6.18,6.19,6.18,6.18,0,0,1-11.5,3.15.71.71,0,0,0-.61-.34.74.74,0,0,0-.67.44L17,22a7,7,0,0,0,6.63,9,12.37,12.37,0,0,0,0-24.73A17.78,17.78,0,0,0,11.09,36.57a17.65,17.65,0,0,0,12.57,5.21,23.17,23.17,0,0,0,7.62-1.28c.41-.15.82-.3,1.23-.47a15.86,15.86,0,0,0,9.61-14.57A16.66,16.66,0,0,0,41.73,22Z"/></svg>