<svg xmlns="http://www.w3.org/2000/svg" viewBox="0 0 48 48">
  <title>enterprisedb</title>
  <g id="Salesforce_Pardot" data-name="Salesforce Pardot">
    <g id="symbol">
      <circle id="Oval" cx="24" cy="24" r="19.26" style="fill: #ff3e00"/>
      <path id="Fill-20" d="M36,20.21h0a3,3,0,0,0-3.47-3l-2.91.29a.61.61,0,0,0-.56.59V28.73a.49.49,0,0,0,.56.48l2.91-.29A3.86,3.86,0,0,0,36,25.22h0a3,3,0,0,0-1.16-2.39A3.66,3.66,0,0,0,36,20.21" style="fill: #fff"/>
      <path id="Fill-23" d="M18.34,17.49l-2.91-.29a3,3,0,0,0-3.47,3,3.66,3.66,0,0,0,1.16,2.62A3,3,0,0,0,12,25.22h0a3.86,3.86,0,0,0,3.47,3.7l2.91.29a.49.49,0,0,0,.56-.48V18.08a.61.61,0,0,0-.56-.59" style="fill: #fff"/>
      <path id="Fill-26" d="M24,20.39H21.09a.55.55,0,0,0-.56.53v8a.6.6,0,0,0,.55.62H24c0,.58-.86,1-2.81,1.23l-.22,0c-.14,0-.44,0-.44.55v.14a.55.55,0,0,0,.55.55H24a3.42,3.42,0,0,0,3.48-3.34v-5A3.4,3.4,0,0,0,24,20.39" style="fill: #fff"/>
    </g>
  </g>
</svg>
