<svg id="CURRENT" xmlns="http://www.w3.org/2000/svg" viewBox="0 0 48 48"><title>epicoreerp</title><g id="图层_2" data-name="图层 2"><path d="M34,21.15H29.76c-1.09,0-1.61.54-1.61,1.51v2.45c0,1,.52,1.51,1.61,1.51H34c1.09,0,1.61-.54,1.61-1.51V22.66c0-1-.52-1.51-1.61-1.51m0,4.13H29.74v-2.8H34Z" style="fill:#00c2f6"/><polygon points="3.08 26.61 10.19 26.61 10.19 25.28 4.65 25.28 4.65 24.52 10.09 24.52 10.09 23.2 4.65 23.2 4.65 22.48 10.19 22.48 10.19 21.16 3.08 21.16 3.08 26.61" style="fill:#00c2f6"/><rect x="18.82" y="21.15" width="1.57" height="5.46" style="fill:#00c2f6"/><path d="M21.2,22.66v2.45c0,1,.52,1.51,1.61,1.51h4.53V25.29H22.8v-2.8h4.54V21.16H22.81c-1.09,0-1.61.53-1.61,1.5" style="fill:#00c2f6"/><path d="M16.4,21.15H11v5.46h1.57v-2H16.4c1.08,0,1.61-.53,1.61-1.5v-.43c0-1-.53-1.5-1.61-1.5m0,2.11H12.57v-.78h3.84Z" style="fill:#00c2f6"/><path d="M43.43,23.15v-.5c0-1-.53-1.5-1.61-1.5h-5.4V26.6H38v-2h2.69l1.09,2h1.82l-1.19-2a1.29,1.29,0,0,0,1-1.43m-1.6.18H38v-.85h3.84Z" style="fill:#00c2f6"/><path d="M44.64,26.19c0-.12-.07-.17-.21-.17h-.22v.59h.1v-.25h.07l.16.25h.11l-.16-.25a.15.15,0,0,0,.15-.17m-.33.09v-.17h.1c.06,0,.12,0,.12.08s-.05.09-.12.09Z" style="fill:#00c2f6"/><path d="M44.4,25.81a.52.52,0,1,0,0,1,.52.52,0,1,0,0-1m0,.94a.42.42,0,0,1,0-.83.42.42,0,0,1,0,.83" style="fill:#00c2f6"/></g></svg>