<svg xmlns="http://www.w3.org/2000/svg" viewBox="0 0 48 48">
  <title>esa</title>
  <g id="Layer_3" data-name="Layer 3">
    <g>
      <circle cx="24" cy="24" r="18.75" style="fill: #fff;stroke: #f8f8f8;stroke-miterlimit: 10"/>
      <g>
        <path d="M12.5,26.32a3.85,3.85,0,0,1-.91-2.77,3.67,3.67,0,0,1,.91-2.78A2.66,2.66,0,0,1,14.37,20a2.43,2.43,0,0,1,1.87.74,4,4,0,0,1,.91,2.78,3.64,3.64,0,0,1-.91,2.77,2.62,2.62,0,0,1-1.87.74A2.43,2.43,0,0,1,12.5,26.32Zm.62-2.77c0,1.47.4,2.26,1.25,2.26s1.25-.73,1.25-2.26-.4-2.27-1.25-2.27S13.12,22.07,13.12,23.55Z" style="fill: #666"/>
        <path d="M32.44,26.32a3.85,3.85,0,0,1-.91-2.77,3.67,3.67,0,0,1,.91-2.78A2.66,2.66,0,0,1,34.31,20a2.43,2.43,0,0,1,1.87.74,4,4,0,0,1,.91,2.78,3.64,3.64,0,0,1-.91,2.77,2.62,2.62,0,0,1-1.87.74A2.36,2.36,0,0,1,32.44,26.32Zm.62-2.77c0,1.47.4,2.26,1.25,2.26s1.25-.73,1.25-2.26-.4-2.27-1.25-2.27S33.06,22.07,33.06,23.55Z" style="fill: #666"/>
        <circle cx="24.45" cy="25.87" r="5.95" style="fill: #e79012"/>
        <path d="M28.7,26.83H20.26a1,1,0,1,1,0-1.92H28.7a1,1,0,1,1,0,1.92Z" style="fill: #666;opacity: 0.5;isolation: isolate"/>
      </g>
    </g>
  </g>
</svg>
