<svg xmlns="http://www.w3.org/2000/svg" viewBox="0 0 48 48"><defs><style>.cls-1{fill:#0077c3;}</style></defs><title>icon-</title><g id="e-salesmanager"><path class="cls-1" d="M35.48,15A12.37,12.37,0,0,1,29,17.12a35.43,35.43,0,0,1-8.8-.8,16.57,16.57,0,0,1,8.51-2.93A11,11,0,0,1,35.48,15ZM43,25.21c-3,1.7-7.42,2.78-11.92,3.12-7.59.58-14.08-1.62-14.42-6a4.78,4.78,0,0,1,.5-2.56l5.93,4a33.61,33.61,0,0,0,19.13-8.67c-2.13-2.85-7.11-5-13.71-4.47a32.17,32.17,0,0,0-14,4.39A79,79,0,0,1,5,11.83l7.19,4.73c-3.4,2.79-5.35,6.14-5.08,9.62.5,6.55,7.58,12.33,22.66,11.17a38.86,38.86,0,0,0,9-1.8Z"/></g></svg>