<svg xmlns="http://www.w3.org/2000/svg" viewBox="0 0 48 48"><title>evernote</title><path d="M10.56,11.58H14.5a.41.41,0,0,0,.41-.41s-.05-3.37-.05-4.31h0a4.51,4.51,0,0,1,.45-2l.13-.25,0,0L7.75,12.2a.05.05,0,0,0,0,.05l.4-.2a5.93,5.93,0,0,1,2.44-.47Zm30.65-.82A3.5,3.5,0,0,0,39,7.93a29.28,29.28,0,0,0-5.41-1,42,42,0,0,0-5.75-.18A3.42,3.42,0,0,0,26,4.16a14.71,14.71,0,0,0-7.15-.47A3.83,3.83,0,0,0,16.71,5a3.12,3.12,0,0,0-.52,1.84c0,.46,0,1.53,0,2.49s0,1.82,0,1.82a1.55,1.55,0,0,1-1.55,1.56H10.75a4.78,4.78,0,0,0-2,.36A2.69,2.69,0,0,0,7.67,14a4,4,0,0,0-.61,2.47,18.9,18.9,0,0,0,.18,2.13c.15,1.09,1.33,8.69,2.45,11a2.81,2.81,0,0,0,1.58,1.67,42.68,42.68,0,0,0,8.28,2c2,.26,3.31.8,4.07-.79l.36-1a15.82,15.82,0,0,0,.75-5.06.1.1,0,1,1,.19,0c0,.9-.17,4.11,2.26,5a28,28,0,0,0,5,.88c1.82.21,3.14.93,3.14,5.61,0,2.85-.59,3.24-3.72,3.24-2.54,0-3.5.06-3.5-2,0-1.63,1.61-1.46,2.8-1.46.53,0,.15-.39.15-1.4s.62-1.57,0-1.59c-4.12-.11-6.55,0-6.55,5.16,0,4.68,1.79,5.55,7.65,5.55,4.59,0,6.2-.15,8.1-6a55.06,55.06,0,0,0,1.83-10.65,117.1,117.1,0,0,0-.86-18Zm-8,12.54a8.45,8.45,0,0,0-1.62.1c.14-1.15.62-2.57,2.31-2.51,1.87.06,2.13,1.83,2.14,3A7.81,7.81,0,0,0,33.21,23.3Z" style="fill:#7ac143"/></svg>