<svg id="b1b7e878-c23b-4321-9f25-30899ea1bfe2"   xmlns="http://www.w3.org/2000/svg" viewBox="0 0 48 48">
  <defs>
    <style>
      .fcc93076-266c-493f-9d7c-37ac03c3f37b {
        fill: #1f7043;
      }

      .c4eacb1e-09c2-4e9b-ae4e-26b68191b7cd {
        fill: #fff;
      }
    </style>
  </defs>
  <title>excel online</title>
  <g>
    <g>
      <path class="fcc93076-266c-493f-9d7c-37ac03c3f37b" d="M42.39,4.7H26.72V1.18L4.49,4.94V34.12L26.72,38v-3.6H42.39a1.12,1.12,0,0,0,1.12-1.12V5.82A1.12,1.12,0,0,0,42.39,4.7Z"/>
      <path class="c4eacb1e-09c2-4e9b-ae4e-26b68191b7cd" d="M26.77,6V8.62h5.35V12H26.77v1.28h5.35v3.36H26.77V17.9h5.35v3.34H26.77v1.3h5.35v3.35H26.77v1.29h5.35v3.17H26.77v2.73H42.36V6ZM39.68,30.35H33.45V27.18h6.23Zm0-4.46H33.45V22.54h6.23Zm0-4.65H33.43V17.9h6.25Zm0-4.63H33.45V13.25h6.23Zm0-4.64H33.45V8.62h6.23Z"/>
      <polygon class="c4eacb1e-09c2-4e9b-ae4e-26b68191b7cd" points="19.73 26.29 16.75 26.1 14.78 21.3 12.98 25.89 10.25 25.73 13.29 19.65 10.52 13.47 13.18 13.36 14.94 17.95 16.86 13.09 19.74 12.93 16.43 19.6 19.73 26.29"/>
    </g>
    <g>
      <path class="fcc93076-266c-493f-9d7c-37ac03c3f37b" d="M15.35,46a2.45,2.45,0,0,1-1.91-.79,2.91,2.91,0,0,1-.72-2A3.1,3.1,0,0,1,13.45,41a2.56,2.56,0,0,1,2-.81,2.44,2.44,0,0,1,1.88.79A3,3,0,0,1,18,43a3.09,3.09,0,0,1-.73,2.18A2.54,2.54,0,0,1,15.35,46Zm.05-5.22a1.81,1.81,0,0,0-1.44.64,2.48,2.48,0,0,0-.55,1.68A2.53,2.53,0,0,0,14,44.79a1.75,1.75,0,0,0,1.4.63,1.82,1.82,0,0,0,1.46-.61,2.43,2.43,0,0,0,.54-1.69,2.54,2.54,0,0,0-.52-1.72A1.77,1.77,0,0,0,15.4,40.79Z"/>
      <path class="fcc93076-266c-493f-9d7c-37ac03c3f37b" d="M22.4,45.92h-.65v-2.3c0-.85-.31-1.27-.93-1.27a1,1,0,0,0-.8.36,1.35,1.35,0,0,0-.32.91v2.3h-.64v-4h.64v.66h0A1.46,1.46,0,0,1,21,41.8a1.26,1.26,0,0,1,1,.43,1.9,1.9,0,0,1,.35,1.23Z"/>
      <path class="fcc93076-266c-493f-9d7c-37ac03c3f37b" d="M24.25,45.92h-.64V40h.64Z"/>
      <path class="fcc93076-266c-493f-9d7c-37ac03c3f37b" d="M25.89,40.88a.42.42,0,1,1,0-.84.44.44,0,0,1,.3.12.41.41,0,0,1,.12.3.42.42,0,0,1-.12.3A.44.44,0,0,1,25.89,40.88Zm.31,5h-.64v-4h.64Z"/>
      <path class="fcc93076-266c-493f-9d7c-37ac03c3f37b" d="M30.84,45.92H30.2v-2.3c0-.85-.31-1.27-.94-1.27a1,1,0,0,0-.8.36,1.34,1.34,0,0,0-.31.91v2.3H27.5v-4h.65v.66h0a1.48,1.48,0,0,1,1.32-.76,1.24,1.24,0,0,1,1,.43,1.9,1.9,0,0,1,.35,1.23Z"/>
      <path class="fcc93076-266c-493f-9d7c-37ac03c3f37b" d="M35.28,44.07H32.45a1.47,1.47,0,0,0,.36,1,1.21,1.21,0,0,0,.95.37A2,2,0,0,0,35,45v.61A2.4,2.4,0,0,1,33.6,46a1.67,1.67,0,0,1-1.33-.55,2.19,2.19,0,0,1-.49-1.54,2.24,2.24,0,0,1,.53-1.53,1.73,1.73,0,0,1,1.32-.59,1.51,1.51,0,0,1,1.22.51,2.13,2.13,0,0,1,.43,1.42Zm-.66-.55a1.3,1.3,0,0,0-.26-.86.92.92,0,0,0-.74-.31,1,1,0,0,0-.77.32,1.44,1.44,0,0,0-.4.85Z"/>
    </g>
  </g>
</svg>
