<svg xmlns="http://www.w3.org/2000/svg" viewBox="0 0 48 48"><title>exchange</title><path d="M4.59,9.07V38.76l21.92,3.79V5.28ZM19.32,31.62,11,30.84V15.27l8-.86v3.15l-4.87.34v3.61l4.53-.12v3.13l-4.53-.05v3.7l5.19.3Z" style="fill:#0071bb"/><path d="M41.76,12.55H28.57v2.76h.56a.47.47,0,0,1,.35.15l2,2a.34.34,0,0,1,0,.48l-.71.71a.34.34,0,0,1-.49,0l-.88-.87a.11.11,0,0,0-.07,0h-.73V23c1.36,1.22,2.51,2.13,2.16,2.5s-1.1-.15-2.16-.79v5.38h.34c2.45-1.83,4.45-5.14,5-4.58s-4,6.9-4.61,7h-.77v2.77H41.76a2,2,0,0,0,2-2V14.5A2,2,0,0,0,41.76,12.55Zm-.82,17.56V32a.47.47,0,0,1-.48.48H35.55a.48.48,0,0,1-.34-.14l-2-2a.33.33,0,0,1,0-.48L34,29.2a.34.34,0,0,1,.48,0l.89.88a.09.09,0,0,0,.07,0h3.15V27.35C36.71,24.9,33.4,22.9,34,22.3s6.9,4,7,4.62Zm0-12.39v3a.5.5,0,0,1-.14.35l-2,2a.34.34,0,0,1-.48,0l-.72-.71a.36.36,0,0,1,0-.49l.88-.88a.11.11,0,0,0,0-.07V17.72H35.78c-2.45,1.82-4.45,5.14-5.05,4.58s4-6.91,4.62-7h5.11a.48.48,0,0,1,.48.49Z" style="fill:#0071bb"/></svg>