<svg xmlns="http://www.w3.org/2000/svg" xmlns:xlink="http://www.w3.org/1999/xlink" viewBox="0 0 48 48"><defs><linearGradient id="a" x1="24.61" y1="52.4" x2="24.61" y2="6.62" gradientUnits="userSpaceOnUse"><stop offset="0" stop-color="#1d395b"/><stop offset="1" stop-color="#3b5998"/></linearGradient></defs><title>facebook</title><path d="M40.92,4H8.3A4.08,4.08,0,0,0,4.22,8.11V40.74A4.08,4.08,0,0,0,8.3,44.82H40.92A4.08,4.08,0,0,0,45,40.74V8.11A4.07,4.07,0,0,0,40.92,4" style="fill:url(#a)"/><path d="M33.64,6.94a6.18,6.18,0,0,0-5.38,2.53c-1.08,1.42-1.12,3.71-1.12,5.2V18H23.67v5h3.47V40.5h6.5V23.06h5.15l.39-5H33.64V14.12c0-1.35,1.21-1.83,2.56-1.83a11.72,11.72,0,0,1,2.8.42l.87-5.14a21.72,21.72,0,0,0-6.23-.63" style="opacity:0.4"/><path d="M23.67,18.75h3.47V15.37c0-1.48,0-3.78,1.12-5.2a6.18,6.18,0,0,1,5.38-2.52,22.05,22.05,0,0,1,6.23.62L39,13.41A11.72,11.72,0,0,0,36.2,13c-1.35,0-2.56.49-2.56,1.84v3.92h5.54l-.39,5H33.64V41.21h-6.5V23.77H23.67v-5" style="fill:#fff"/></svg>