<svg width="48" height="48" viewBox="0 0 48 48" fill="none" xmlns="http://www.w3.org/2000/svg">
<path d="M20.8319 17.7366C17.3111 21.8782 15.8616 26.1238 15.6538 28.5058C15.2399 36.1678 20.9353 39.0669 23.1096 40.6207C21.4527 39.3782 20.3141 34.6494 22.2814 30.0931C24.2487 25.5371 28.2523 22.8454 28.9082 16.9084C29.5295 11.0063 25.8022 5.00002 25.8022 5.00002C26.6304 11.9377 24.3522 13.5946 20.8319 17.7366" fill="url(#paint0_linear_101_8204)"/>
<path d="M16.6898 19.0484C13.4261 21.9491 12.0646 25.744 12.272 28.2292C12.4785 33.8896 17.7943 37.6177 17.7943 37.6177C15.3784 34.7183 13.8596 30.3004 14.619 26.0203C15.3784 21.7405 20.0725 16.7702 22.2125 14.2158C21.4531 15.0445 20.4175 15.735 16.6898 19.0484Z" fill="url(#paint1_linear_101_8204)"/>
<path d="M28.5635 22.7065C27.1828 25.8826 24.2834 29.3341 23.4551 30.9213C21.0388 36.1678 24.3522 41 24.3522 41C33.4646 40.5857 35.1899 33.4757 35.5354 29.6795C34.8448 31.5426 33.0502 33.2683 31.8077 34.0286C35.7427 27.194 32.2912 18.3579 30.1512 15.3891C30.22 17.5985 29.9438 19.5308 28.5635 22.7065Z" fill="url(#paint2_linear_101_8204)"/>
<path d="M24.9735 32.7163C22.5886 36.464 24.6977 40.2402 24.6977 40.2402C28.218 39.6197 29.5299 37.7558 30.22 36.3059C29.1844 36.996 28.425 37.4108 27.1828 37.6177C30.1512 33.7519 30.2893 29.1955 30.0819 25.744C28.9082 29.0574 26.9062 29.6795 24.9735 32.7163" fill="url(#paint3_linear_101_8204)"/>
<path d="M19.4512 24.7089C15.2399 31.6811 21.2295 38.4729 21.2295 38.4729C19.2964 34.8144 19.9841 29.6315 22.9479 25.7783C27.4639 19.9076 26.9119 17.3231 26.9119 12.0546C26.0845 19.3552 22.3502 19.6693 19.4512 24.7089" fill="url(#paint4_linear_101_8204)"/>
<path d="M19.3257 24.0497C15.9748 30.6638 18.9782 36.2611 22.0842 39.4747C14.4255 30.236 21.6426 22.6637 25.2974 17.5695C30.332 10.5533 28.6519 5.66609 28.6519 5.66609C29.7963 14.1417 22.3788 18.0246 19.3257 24.0497" fill="url(#paint5_linear_101_8204)"/>
<defs>
<linearGradient id="paint0_linear_101_8204" x1="22.3054" y1="47.3934" x2="22.3054" y2="8.08377" gradientUnits="userSpaceOnUse">
<stop stop-color="white"/>
<stop offset="0.146913" stop-color="#FFE100"/>
<stop offset="0.24176" stop-color="#FFE100"/>
<stop offset="0.323955" stop-color="#FFE100"/>
<stop offset="0.62088" stop-color="#DE1119"/>
<stop offset="1" stop-color="#E20E18"/>
</linearGradient>
<linearGradient id="paint1_linear_101_8204" x1="17.2318" y1="41.6312" x2="17.2318" y2="11.8115" gradientUnits="userSpaceOnUse">
<stop stop-color="white"/>
<stop offset="0.146913" stop-color="#FFE100"/>
<stop offset="0.24176" stop-color="#FFE100"/>
<stop offset="0.323955" stop-color="#FFE100"/>
<stop offset="0.62088" stop-color="#DE1119"/>
<stop offset="1" stop-color="#E20E18"/>
</linearGradient>
<linearGradient id="paint2_linear_101_8204" x1="29.0542" y1="47.3934" x2="29.0542" y2="6.21995" gradientUnits="userSpaceOnUse">
<stop stop-color="white"/>
<stop offset="0.146913" stop-color="#FFE100"/>
<stop offset="0.24176" stop-color="#FFE100"/>
<stop offset="0.323955" stop-color="#FFE100"/>
<stop offset="0.62088" stop-color="#DE1119"/>
<stop offset="1" stop-color="#E20E18"/>
</linearGradient>
<linearGradient id="paint3_linear_101_8204" x1="27.0285" y1="40.0776" x2="27.0285" y2="21.7511" gradientUnits="userSpaceOnUse">
<stop stop-color="#FFFCED"/>
<stop offset="0.0104881" stop-color="#FFFCED"/>
<stop offset="0.752747" stop-color="#FFE300"/>
<stop offset="0.905581" stop-color="#FFE300"/>
<stop offset="1" stop-color="#EC7503"/>
</linearGradient>
<linearGradient id="paint4_linear_101_8204" x1="22.4419" y1="37.1371" x2="22.4419" y2="-3.27421" gradientUnits="userSpaceOnUse">
<stop stop-color="white"/>
<stop offset="0.146913" stop-color="#FFE300"/>
<stop offset="0.24176" stop-color="#FFE300"/>
<stop offset="0.323955" stop-color="#FFE300"/>
<stop offset="0.62088" stop-color="#DE1119"/>
<stop offset="1" stop-color="#E20E18"/>
</linearGradient>
<linearGradient id="paint5_linear_101_8204" x1="23.3883" y1="37.8679" x2="23.3883" y2="10.0718" gradientUnits="userSpaceOnUse">
<stop stop-color="#FFFCED"/>
<stop offset="0.009646" stop-color="#FFFCED"/>
<stop offset="0.692307" stop-color="#FFE300"/>
<stop offset="0.948581" stop-color="#F49800"/>
<stop offset="1" stop-color="#F49800"/>
</linearGradient>
</defs>
</svg>
