<svg xmlns="http://www.w3.org/2000/svg" xmlns:xlink="http://www.w3.org/1999/xlink" viewBox="0 0 48 48"><defs><linearGradient id="a" x1="16.16" y1="14.89" x2="16.16" y2="36.43" gradientUnits="userSpaceOnUse"><stop offset="0" stop-color="#13b7d3"/><stop offset="1" stop-color="#6ec04a"/></linearGradient><linearGradient id="b" x1="38.89" y1="14.89" x2="38.89" y2="36.43" xlink:href="#a"/></defs><title>financialedgenxt</title><path d="M3.18,5.1H8.27V17.65c.62-.27,1-.42,1.39-.62a12.69,12.69,0,0,1,14.27.91c4.69,3.38,5.9,8.37,4.86,13.8s-4.53,8.8-9.85,10.13c-6.47,1.62-11.65-.56-15.21-6.17a5.32,5.32,0,0,0-.55-.61ZM24.28,29a8.77,8.77,0,0,0-5.69-8.22,8.83,8.83,0,0,0-9.65,2.67,3.33,3.33,0,0,0-.61,1.86c-.07,2.4-.06,4.81,0,7.21a3.31,3.31,0,0,0,.51,1.73A8.53,8.53,0,0,0,18.39,37,8.67,8.67,0,0,0,24.28,29Z" style="fill:url(#a)"/><path d="M32.62,35.65c4.21-4.77,4.11-9.55,0-14.33l.59-.36,12,7.5L33.26,36.07Z" style="fill:url(#b)"/></svg>