<svg xmlns="http://www.w3.org/2000/svg" viewBox="0 0 48 48"><title>financialforce</title><path d="M43.07,18.74a26,26,0,0,0-2.2-5,16.83,16.83,0,0,0-2.41-3.07c-.11,0-.22-.11-.33-.11a10.9,10.9,0,0,0-5.26-.76,9.85,9.85,0,0,0-2.52.33,8.36,8.36,0,0,0-3.29,1.64c-2.42,2-4.06,5.81-4.61,10l-.11.66h-5c-.22,0-.33.11-.44.33l-.55,3.07h5.92a19.87,19.87,0,0,1-.66,3.51,17.74,17.74,0,0,1-1.31,3,5.25,5.25,0,0,1-1.43,1.64,7.17,7.17,0,0,1-4.38,1.43,4.77,4.77,0,0,1-3.84-1.76,16.58,16.58,0,0,1-3-9.54h0A16.42,16.42,0,0,1,24.21,7.66a17.07,17.07,0,0,1,5.26.88A14.49,14.49,0,0,1,33.53,8a18.23,18.23,0,0,1,2.63.22,20.68,20.68,0,0,0-11.74-4A19.78,19.78,0,0,0,4.25,23.78v.11A18.4,18.4,0,0,0,5,29.38a25.52,25.52,0,0,0,2.19,5,16.5,16.5,0,0,0,2.41,3.07c.11,0,.22.11.33.11a13.59,13.59,0,0,0,5.15.66,10,10,0,0,0,2.53-.33,8.51,8.51,0,0,0,3.29-1.65c2.41-2,4-5.81,4.6-10l.11-.65h5.05c.21,0,.32-.11.43-.33l.55-3.07H25.74a19.54,19.54,0,0,1,.66-3.51,17.84,17.84,0,0,1,1.31-3,5.18,5.18,0,0,1,1.43-1.65,7.26,7.26,0,0,1,4.39-1.42,4.77,4.77,0,0,1,3.83,1.75,16.48,16.48,0,0,1,3.07,9.65h0A16.5,16.5,0,0,1,18.61,39.46a14.42,14.42,0,0,1-4,.55,18.25,18.25,0,0,1-2.64-.22,19.57,19.57,0,0,0,11.63,4H24A19.89,19.89,0,0,0,43.72,24.22,16.16,16.16,0,0,0,43.07,18.74Z" style="fill:#e81a50"/></svg>