<svg id="Layer_1" data-name="Layer 1" xmlns="http://www.w3.org/2000/svg" viewBox="0 0 48 48">
  <title>formstack</title>
  <path id="Combined-Shape" d="M32.15,12.12a1.59,1.59,0,0,1,1.59,1.59V37.28a1.59,1.59,0,0,1-1.59,1.59H11.25a1.59,1.59,0,0,1-1.59-1.59V13.71a1.59,1.59,0,0,1,1.59-1.59ZM37,14.79a.8.8,0,0,1,.8.8v19.8a.8.8,0,0,1-.8.8H35.08V14.79Zm4,2.68a.8.8,0,0,1,.8.8V32.71a.8.8,0,0,1-.8.81H39.09V17.47Z" style="fill: #21b573"/>
  <path id="Combined-Shape-2" data-name="Combined-Shape" d="M19.24,31.47a.21.21,0,0,1,.05.15v2.72a.27.27,0,0,1-.26.27H15.27a.26.26,0,0,1-.26-.26v-.12a.27.27,0,0,1,.12-.22l3.74-2.61A.27.27,0,0,1,19.24,31.47Zm6.18-6.25a.27.27,0,0,1,.15.49l-10.14,7a.27.27,0,0,1-.42-.22V28.32a.3.3,0,0,1,.1-.22l3.6-2.82a.27.27,0,0,1,.17-.06Zm2.21-8.82a.26.26,0,0,1,.26.26.25.25,0,0,1-.1.21L15.45,26.75a.28.28,0,0,1-.38,0,.27.27,0,0,1-.06-.17V16.66a.27.27,0,0,1,.27-.26Z" style="fill: #fff"/>
</svg>
