<svg id="Layer_1" data-name="Layer 1" xmlns="http://www.w3.org/2000/svg" viewBox="0 0 48 48"><defs><style>.cls-1{fill:#e65778;}</style></defs><title>foursquare</title><path class="cls-1" d="M36.45,3.69c-7-.16-14.05-.1-21.08,0a4.46,4.46,0,0,0-4.2,3.18,1,1,0,0,0-.08.38V44.27A1.32,1.32,0,0,0,12,45.5a1.28,1.28,0,0,0,1.44-.35c1.88-2.09,7.74-8.63,10.84-12.29a4.27,4.27,0,0,1,3.71-1.66c7.36.08,7.37,0,8.8-7q1.59-7.83,3.11-15.68C40.44,5.44,39.41,3.76,36.45,3.69Zm-1.57,7.1c-1.34,5.54-.39,4.43-5.46,4.52H28l-.53,0h-1l-.49,0-.21,0-.43.07-.19,0-.25.07a3.48,3.48,0,0,0-1.78,1.67,3.3,3.3,0,0,0-.12.38s0,.1,0,.15a2,2,0,0,0,0,.42.86.86,0,0,0,0,.16,1.9,1.9,0,0,0,.09.36l.05.12a1.31,1.31,0,0,0,.26.4l.07.05a1.2,1.2,0,0,0,.33.25l.15.08a2,2,0,0,0,.37.13l.17.05a3.24,3.24,0,0,0,.64.06H31c1.46,0,1.94.61,1.7,2.15-.79,4.9-.74,5-5.61,4.89a6.39,6.39,0,0,0-6,3,66,66,0,0,1-4.47,5.74,5.86,5.86,0,0,1-.74.56,13.43,13.43,0,0,1,0-3c0-5.3,0-16.35-.12-22.26v0a4.1,4.1,0,0,1,0-.62.68.68,0,0,1,0-.14,2.28,2.28,0,0,1,.06-.39c0-.06,0-.11,0-.15a1.93,1.93,0,0,1,.13-.32.3.3,0,0,1,0-.1,1.57,1.57,0,0,1,.24-.32l.07-.06a1.44,1.44,0,0,1,.25-.18l.12-.06A1.75,1.75,0,0,1,17,8.42l.12,0,.51-.08h.11a4.38,4.38,0,0,1,.52,0h.08c4.85.12,9.71.1,14.56,0H33l.41,0h.19l.43.08.07,0a1.89,1.89,0,0,1,.38.16l.09.07a1.54,1.54,0,0,1,.19.17,1,1,0,0,0,.08.11,2,2,0,0,1,.1.21.78.78,0,0,1,.05.14,2,2,0,0,1,0,.26s0,.11,0,.16,0,.22,0,.34,0,.11,0,.16A4.86,4.86,0,0,1,34.88,10.79Z"/></svg>