<svg xmlns="http://www.w3.org/2000/svg" viewBox="0 0 48 48"><title>freee</title><path d="M17.75,26.57a7.66,7.66,0,0,0,.8-7.32c2.71.54,5.22,1,7.71,1.54a2.59,2.59,0,0,1,.86.47c1.05.74,1.92,1.64,1.73,3a3,3,0,0,1-2.35,2.43,6.51,6.51,0,0,1-2.4.46C22,27.08,20,26.8,17.75,26.57Z" style="fill:#fff"/><path d="M38.35,2.5a7,7,0,0,1-2.62,4.88c-3.17,2.56-6.2,5.3-9.28,8-1.75,1.53-1.58,3.37.47,4.46a6.88,6.88,0,0,0,5.11.84c2-.53,4.06-1.06,6.1-1.56a4.54,4.54,0,0,1,1.08-.29c0,.12.42.6.43.72-1.58,1-3.48,1.89-5,2.87l.06.59c1.35.32,2.94.58,4.29.91.05.08,0,.52,0,.6a5.47,5.47,0,0,1-1.3.31c-1.55.21-3.11.23-4.72.45a26.7,26.7,0,0,0-4.68,1.54c-1.2.4-1.68,1.05-3.74,1.16a1.34,1.34,0,0,0-1,1.83,11.33,11.33,0,0,0,1.05,2.6c1.48,2.52,3.26,4.91,4.64,7.48a10.17,10.17,0,0,1,1.07,4.66c-.12,0-.14-.05-.27,0-.14-.12-.57-.56-.7-.7Q22.69,37,16.12,30.09c-.74-.78-1.33-1.6-.79-2.72a26.33,26.33,0,0,0-4.17-2.28c-1.46-.47-2.06-1.74-2.77-2.54-.5-.57-2.18-.67-2.05-1.08.74-1.12,2.28-.76,2.66-1,.8-.45.08-.57.83-1.09a8.76,8.76,0,0,1,5.31-1.28A1.79,1.79,0,0,0,17,17,8.9,8.9,0,0,1,19.75,14C25.9,10.05,32.14,6.3,38.35,2.5ZM17.75,26.57c2.2.23,4.27.51,6.35.62a6.51,6.51,0,0,0,2.4-.46,3,3,0,0,0,2.35-2.43c.19-1.4-.68-2.3-1.73-3a2.59,2.59,0,0,0-.86-.47c-2.49-.52-5-1-7.71-1.54A7.66,7.66,0,0,1,17.75,26.57Z" style="fill:#011478"/><circle cx="12.18" cy="20.83" r="0.71" style="fill:#fff"/></svg>