<svg id="Layer_1" data-name="Layer 1" xmlns="http://www.w3.org/2000/svg" viewBox="0 0 48 48"><defs><style>.cls-1{fill:#73a5ff;}.cls-2{fill:#fff;}.cls-3{fill:#2864f0;}</style></defs><path class="cls-1" d="M13.14,10.64l-.19-1,1-.19-.29-1.51-1,.19h0l-10.06,2h0l-1,.19.29,1.51,1-.19.19,1c.62,3.18,2.7,4,4.6,4.85-1.43,1.53-3.06,3-2.45,6.22l.2,1-1,.2.3,1.51L16.79,24l-.3-1.51-1,.2-.2-1c-.61-3.17-2.69-4-4.59-4.85C12.13,15.33,13.76,13.81,13.14,10.64Z"/><path class="cls-2" d="M8.3,16.18l.76.31.58-.58c1.49-1.47,2.42-2.77,2.12-4.32L4.72,13C5,14.51,6.37,15.37,8.3,16.18Z"/><path class="cls-2" d="M10,21.42a4.47,4.47,0,0,0-3.08,2.95L14,23A4.48,4.48,0,0,0,10,21.42Z"/><path class="cls-3" d="M39,23.44a45.26,45.26,0,0,1-9-.9A24.46,24.46,0,0,0,43.19,6L24.76,20.19c-1,.79-1.3.52-2.28.52a5.93,5.93,0,0,0-4.09,1.64A1.71,1.71,0,0,1,17.3,23L16,23.32l2.45.54A4.55,4.55,0,0,1,21.94,26L35.8,44a20.36,20.36,0,0,0-4.86-14.78,13.19,13.19,0,0,0,4.29-.74A6.41,6.41,0,0,1,38.06,28h7.35c.09-.5-.09-.64-.82-.74l-5.68-.79c.25-.18.6-.49.86-.71a2.91,2.91,0,0,1,1.56-.8,42.09,42.09,0,0,0,4.43-1.33c.62-.21.52-.44.65-.82A42.66,42.66,0,0,1,39,23.44Z"/><path class="cls-2" d="M21.9,23.8a.92.92,0,1,1,.92-.92A.92.92,0,0,1,21.9,23.8Z"/><path class="cls-2" d="M30.81,28.11a12.15,12.15,0,0,1-8.33-3.29,19.92,19.92,0,0,1,7.77-.33,78.16,78.16,0,0,0,8.33.82A12.13,12.13,0,0,1,30.81,28.11Z"/></svg>