<svg id="Layer_1" data-name="Layer 1" xmlns="http://www.w3.org/2000/svg" viewBox="0 0 48 48">
  <title>freshworks</title>
  <g>
    <path d="M7.15,27.49A16.68,16.68,0,0,0,12,37l5.8-5.8a17.09,17.09,0,0,1,8.5-14.8Z" style="fill: #9b65c3"/>
    <path d="M17.75,31.19a16.94,16.94,0,0,1-8.5-2.3c-.7-.4-1.4-.9-2.1-1.4A16.68,16.68,0,0,0,12,37Z" style="fill: #9b65c3"/>
    <path d="M17.75,31.19,12,37a16.68,16.68,0,0,0,9.5,4.8l11-19.1A17,17,0,0,1,17.75,31.19Z" style="fill: #be63c5"/>
    <path d="M20.05,39.69a16.94,16.94,0,0,1-2.3-8.5L12,37a16.68,16.68,0,0,0,9.5,4.8C21,41.09,20.45,40.39,20.05,39.69Z" style="fill: #bf63c6"/>
    <path d="M39.45,8.79l-13.2,7.6a17.18,17.18,0,0,1-17,0A17.31,17.31,0,0,0,7,25a21.05,21.05,0,0,0,.2,2.5c.7.5,1.4,1,2.1,1.4a16.94,16.94,0,0,0,8.5,2.3l22-22A1.38,1.38,0,0,1,39.45,8.79Z" style="fill: #3278b1"/>
    <path d="M9.25,28.89a16.94,16.94,0,0,0,8.5,2.3,17.09,17.09,0,0,1,8.5-14.8l-19.1,11A13.66,13.66,0,0,0,9.25,28.89Z" style="fill: #3278b2"/>
    <path d="M9.25,16.39A17.31,17.31,0,0,0,7,25a21.05,21.05,0,0,0,.2,2.5l19.1-11.1A16.7,16.7,0,0,1,9.25,16.39Z" style="fill: #45a4ec"/>
    <path d="M39.75,9.19a5,5,0,0,0-.8-.7,3.94,3.94,0,0,0-2.1-.6H24a17,17,0,0,0-14.7,8.5,17.18,17.18,0,0,0,17,0,17,17,0,0,0-8.5,14.8,17.09,17.09,0,0,0,14.8-8.5l7.6-13.2A1.38,1.38,0,0,1,39.75,9.19Z" style="fill: #19bb7d"/>
    <path d="M26.25,16.39l13.2-7.6c-.2-.1-.3-.3-.5-.4l-29.7,8A16.7,16.7,0,0,0,26.25,16.39Z" style="fill: #08c7fb"/>
    <path d="M36.75,7.89H24a17,17,0,0,0-14.7,8.5l29.7-8A5.45,5.45,0,0,0,36.75,7.89Z" style="fill: #59f2f6"/>
    <path d="M32.55,22.69l7.6-13.2a1.38,1.38,0,0,1-.3-.4l-22,22a16.94,16.94,0,0,0,2.3,8.5c.4.7.9,1.4,1.4,2.1a19.42,19.42,0,0,0,2.4.2,16.94,16.94,0,0,0,8.5-2.3A16.75,16.75,0,0,1,32.55,22.69Z" style="fill: #da3757"/>
    <path d="M17.75,31.19a16.94,16.94,0,0,0,2.3,8.5c.4.7.9,1.4,1.4,2.1l11-19.1A17,17,0,0,1,17.75,31.19Z" style="fill: #d33c4e"/>
    <path d="M32.55,22.69l-11,19.1a19.48,19.48,0,0,0,2.5.2,16.94,16.94,0,0,0,8.5-2.3A16.7,16.7,0,0,1,32.55,22.69Z" style="fill: #ee5a24"/>
    <path d="M40.45,10a4,4,0,0,0-1-1.2l-13.2,7.6a17,17,0,0,0-8.5,14.8,17.09,17.09,0,0,0,14.8-8.5,17.18,17.18,0,0,0,0,17,17,17,0,0,0,8.5-14.6V12.19A4.28,4.28,0,0,0,40.45,10Z" style="fill: #8bdf55"/>
    <path d="M39.45,8.79l-13.2,7.6a17,17,0,0,0-8.5,14.8l22-22C39.65,9.09,39.55,8.89,39.45,8.79Z" style="fill: #25c16f"/>
    <path d="M17.75,31.19a17.09,17.09,0,0,0,14.8-8.5l7.6-13.2a1.38,1.38,0,0,1-.3-.4Z" style="fill: #8bdf55"/>
    <path d="M40.15,9.49l-7.6,13.2a17.18,17.18,0,0,0,0,17l8-29.7A1.76,1.76,0,0,1,40.15,9.49Z" style="fill: #fb0"/>
    <path d="M32.55,39.69A16.8,16.8,0,0,0,41.05,25V12.19a4.28,4.28,0,0,0-.6-2.2Z" style="fill: #ffa800"/>
  </g>
</svg>
