<svg id="ba4a8d17-9192-47c5-bb53-cff961aee441" data-name="Icons" xmlns="http://www.w3.org/2000/svg" viewBox="0 0 108 72">
  <defs>
    <style>
      .df9ce29c-33f9-4f39-8044-4c7e8925080d {
        fill: #4d4d4d;
      }

      .b6037586-236f-44bc-9cf3-8bc758aaad8c {
        fill: #08c7fb;
      }

      .dc30a46b-1e26-480e-8b8a-738ffa14c0a9 {
        fill: #fff;
      }
    </style>
  </defs>
  <title>freshservice</title>
  <g>
    <path class="df9ce29c-33f9-4f39-8044-4c7e8925080d" d="M27.14,27.57a2.81,2.81,0,0,0-3,3v.88h-.44a.63.63,0,0,0,0,1.25h.44v6.12a.66.66,0,0,0,.67.67.64.64,0,0,0,.67-.67V32.67h1.42a.62.62,0,0,0,0-1.24H25.46v-.89a1.58,1.58,0,0,1,1.73-1.77.6.6,0,0,0,.62-.58A.68.68,0,0,0,27.14,27.57Zm5.06,3.68A2.59,2.59,0,0,0,30,32.32V32a.65.65,0,0,0-.66-.66.66.66,0,0,0-.67.66V38.8a.66.66,0,0,0,.67.66A.62.62,0,0,0,30,38.8V35c0-1.59.85-2.53,2.22-2.53a.6.6,0,0,0,.62-.62A.64.64,0,0,0,32.2,31.25Zm7.85,3.37a4,4,0,0,0-.62-2.13,3.05,3.05,0,0,0-2.7-1.24c-2.27,0-3.55,1.51-3.55,4.13s1.28,4.17,3.72,4.17a3.85,3.85,0,0,0,2.71-1,.54.54,0,0,0,.22-.44.59.59,0,0,0-.57-.58.51.51,0,0,0-.36.14A3.11,3.11,0,0,1,37,38.4a2.35,2.35,0,0,1-2.44-2.53H39.3C40.05,35.78,40.05,35.07,40.05,34.62Zm-3.28-2.21c1.33,0,2,.75,2,2.21h-4.3A2.14,2.14,0,0,1,36.77,32.41Zm7.63,2.3c-1-.35-1.77-.62-1.77-1.33s.89-.89,1.37-.89a2.37,2.37,0,0,1,1.78.67.62.62,0,0,0,.84,0,.55.55,0,0,0,.18-.44.68.68,0,0,0-.13-.4,3.16,3.16,0,0,0-2.62-1.11c-1.64,0-2.66.84-2.66,2.13,0,1.6,1.42,2.08,2.66,2.53.93.31,1.77.57,1.77,1.28,0,.94-1.06,1.11-1.68,1.11a2.65,2.65,0,0,1-2-.8,1,1,0,0,0-.45-.22.59.59,0,0,0-.57.58.7.7,0,0,0,.13.4,3.78,3.78,0,0,0,2.93,1.33c1.86,0,3-.89,3-2.31C47,35.6,45.65,35.16,44.4,34.71Zm7.68-3.5a2.63,2.63,0,0,0-2.13.93V27.79a.66.66,0,0,0-.66-.67.63.63,0,0,0-.63.67v11a.65.65,0,1,0,1.29,0V34.67c0-1.51.71-2.26,2.13-2.26S54,33,54,34.54V38.8a.65.65,0,0,0,.66.66.62.62,0,0,0,.63-.66V34.31C55.28,32.27,54.21,31.21,52.08,31.21Zm7.9,3.5c-1-.35-1.78-.62-1.78-1.33s.89-.89,1.38-.89a2.35,2.35,0,0,1,1.77.67.6.6,0,0,0,.45.18.59.59,0,0,0,.58-.58.72.72,0,0,0-.14-.4,3.17,3.17,0,0,0-2.62-1.11c-1.64,0-2.66.84-2.66,2.13,0,1.6,1.42,2.09,2.66,2.53.94.31,1.78.58,1.78,1.29,0,.93-1.07,1.11-1.69,1.11a2.73,2.73,0,0,1-2-.8.8.8,0,0,0-.44-.22.59.59,0,0,0-.58.57.76.76,0,0,0,.13.4,3.75,3.75,0,0,0,3,1.25c1.86,0,3-.89,3-2.31C62.6,35.6,61.18,35.16,60,34.71Zm10.61-.09A4,4,0,0,0,70,32.49a3.05,3.05,0,0,0-2.7-1.24c-2.27,0-3.55,1.51-3.55,4.13s1.28,4.17,3.72,4.17a3.85,3.85,0,0,0,2.71-1,.54.54,0,0,0,.22-.44.59.59,0,0,0-.57-.58.51.51,0,0,0-.36.14,3.11,3.11,0,0,1-2,.71A2.35,2.35,0,0,1,65,35.87h4.79C70.59,35.78,70.59,35.07,70.59,34.62Zm-3.33-2.21c1.33,0,2,.75,2,2.21H65a2.16,2.16,0,0,1,2.27-2.21Zm8.29-1.16a2.58,2.58,0,0,0-2.21,1.07V32a.65.65,0,0,0-.67-.62.61.61,0,0,0-.62.62V38.8a.65.65,0,0,0,.67.62.61.61,0,0,0,.62-.62V35c0-1.59.84-2.53,2.21-2.53a.62.62,0,1,0,0-1.24Zm7.86.09a.69.69,0,0,0-.62.4l-2.27,5.55-2.26-5.55a.55.55,0,0,0-.62-.4A.61.61,0,0,0,77,32a.63.63,0,0,0,0,.27v0l2.84,6.79a.69.69,0,0,0,.85.36.59.59,0,0,0,.35-.36l2.84-6.79v0A.52.52,0,0,0,84,32,.56.56,0,0,0,83.41,31.34Zm2.4-2.88a.69.69,0,0,0-.76.57v.18a.74.74,0,0,0,1.47.13v-.13a.66.66,0,0,0-.58-.75Zm0,2.88a.61.61,0,0,0-.63.62V38.8a.65.65,0,0,0,1.29,0V32A.65.65,0,0,0,85.81,31.34Zm7.94,6.17a.7.7,0,0,0-.4.13,2.92,2.92,0,0,1-1.86.71c-1.51,0-2.27-1-2.27-3s.76-3,2.27-3a2,2,0,0,1,1.73.75.71.71,0,0,0,.48.22.58.58,0,0,0,.58-.58v0a.7.7,0,0,0-.13-.4,3.29,3.29,0,0,0-2.66-1.2c-2.36,0-3.55,1.42-3.55,4.13s1.24,4.17,3.55,4.17a4,4,0,0,0,2.61-.93.61.61,0,0,0,.27-.49.59.59,0,0,0-.62-.53Zm7.63,0a.48.48,0,0,0-.35.13,3.1,3.1,0,0,1-2,.71,2.36,2.36,0,0,1-2.44-2.53h4.8c.79,0,.79-.71.79-1.2a4,4,0,0,0-.62-2.13,3.05,3.05,0,0,0-2.7-1.24c-2.27,0-3.55,1.51-3.55,4.13s1.28,4.17,3.72,4.17a3.85,3.85,0,0,0,2.71-1,.54.54,0,0,0,.22-.44.6.6,0,0,0-.62-.62Zm-2.48-5.1c1.33,0,2,.75,2,2.21H96.63a2.16,2.16,0,0,1,2.27-2.21Z"/>
    <path class="b6037586-236f-44bc-9cf3-8bc758aaad8c" d="M13.12,29.74H18.8a1.9,1.9,0,0,1,1.91,1.91v5.68a7.54,7.54,0,0,1-7.55,7.55h0a7.57,7.57,0,0,1,0-15.14Z"/>
    <path class="dc30a46b-1e26-480e-8b8a-738ffa14c0a9" d="M13,41.06c.09.09.22,0,.31-.05l2.4-3.32.53-.76a.34.34,0,0,0,0-.4c-.05,0-.09,0-.18,0h-3.6l.89-2.66a.21.21,0,0,0-.09-.27.2.2,0,0,0-.26.09L10.59,37l-.58.71a.33.33,0,0,0,.05.4s.09,0,.18,0h3.59l-.89,2.66A.22.22,0,0,0,13,41.06Z"/>
  </g>
</svg>
