<svg id="Layer_1" data-name="Layer 1" xmlns="http://www.w3.org/2000/svg" viewBox="0 0 48 48">
  <title>freshcaller</title>
  <g>
    <path d="M24,7h12.8a4.27,4.27,0,0,1,4.3,4.3v12.8a17,17,0,0,1-17,17H24A17.05,17.05,0,0,1,24,7Z" style="fill: #cc4783"/>
    <path d="M30.35,26.65a6.92,6.92,0,0,1-2.8-.5.91.91,0,0,0-1.1.2L25,28a11.58,11.58,0,0,1-4.9-4.9l1.7-1.6a1.23,1.23,0,0,0,.2-1,8.68,8.68,0,0,1-.5-2.8,1.09,1.09,0,0,0-.9-1.1h-2.9a1.09,1.09,0,0,0-1.1.9v.1a13.85,13.85,0,0,0,13.9,13.8,1.09,1.09,0,0,0,1.1-.9v-2.8a1.09,1.09,0,0,0-.9-1.1C30.45,26.65,30.45,26.65,30.35,26.65Z" style="fill: #fff"/>
  </g>
</svg>
