<svg id="978b2403-3c52-429d-9275-91d59fc94b01" data-name="Icons" xmlns="http://www.w3.org/2000/svg" viewBox="0 0 108 72">
  <defs>
    <style>
      .\35 7ced4d9-50c6-4c3e-a615-50161f1f0bae {
        fill: #4d4d4d;
      }

      .\33 5c8df72-3071-4b45-b299-613babe9b6b5 {
        fill: #25c16f;
      }

      .bd1a2416-5680-47a0-ad23-ca00e4c1412a {
        fill: #fff;
      }
    </style>
  </defs>
  <title>Freshdesk</title>
  <g>
    <path class="57ced4d9-50c6-4c3e-a615-50161f1f0bae" d="M31.45,25.25A3.24,3.24,0,0,0,28,28.74v1h-.52a.7.7,0,0,0-.72.71.7.7,0,0,0,.72.72H28v7.08a.75.75,0,0,0,.77.77.72.72,0,0,0,.77-.77V31.15h1.64a.72.72,0,0,0,0-1.44H29.5v-1a1.83,1.83,0,0,1,2-2.05.7.7,0,0,0,.72-.67A.79.79,0,0,0,31.45,25.25Zm5.85,4.26a3,3,0,0,0-2.57,1.23v-.41a.77.77,0,0,0-1.54,0v7.9A.76.76,0,0,0,34,39a.73.73,0,0,0,.77-.77V33.87c0-1.85,1-2.92,2.57-2.92a.7.7,0,0,0,.71-.72A.73.73,0,0,0,37.3,29.51Zm9.08,3.9A4.59,4.59,0,0,0,45.66,31a3.54,3.54,0,0,0-3.13-1.44c-2.62,0-4.1,1.74-4.1,4.77s1.48,4.83,4.31,4.83A4.49,4.49,0,0,0,45.87,38a.65.65,0,0,0,.25-.52.67.67,0,0,0-.66-.66A.62.62,0,0,0,45,37a3.57,3.57,0,0,1-2.25.82A2.73,2.73,0,0,1,40,34.85h5.55C46.38,34.74,46.38,33.92,46.38,33.41Zm-3.8-2.57c1.54,0,2.31.88,2.36,2.57H40A2.5,2.5,0,0,1,42.58,30.84Zm8.83,2.67c-1.13-.41-2-.72-2-1.54s1-1,1.59-1a2.64,2.64,0,0,1,2,.77.72.72,0,0,0,1,0,.66.66,0,0,0,.21-.52.84.84,0,0,0-.15-.46,3.68,3.68,0,0,0-3-1.28c-1.9,0-3.08,1-3.08,2.46,0,1.85,1.64,2.41,3.08,2.93,1.08.36,2,.66,2,1.48,0,1.08-1.23,1.29-1.95,1.29a3.13,3.13,0,0,1-2.36-.93,1,1,0,0,0-.51-.25.67.67,0,0,0-.67.66.87.87,0,0,0,.15.47,4.43,4.43,0,0,0,3.39,1.54c2.16,0,3.44-1,3.44-2.67C54.44,34.54,52.85,34,51.41,33.51Zm8.88-4a3.08,3.08,0,0,0-2.47,1.08v-5a.76.76,0,0,0-.77-.77.71.71,0,0,0-.72.77V38.23a.75.75,0,0,0,.72.77.76.76,0,0,0,.77-.77V33.46c0-1.74.82-2.62,2.47-2.62s2.2.72,2.2,2.47v4.92a.76.76,0,0,0,.77.77.72.72,0,0,0,.72-.77V33.05C64,30.69,62.75,29.46,60.29,29.46Zm12.47-4.72a.7.7,0,0,0-.72.72v5a3.61,3.61,0,0,0-2.52-1q-4,0-4,4.77c0,3.18,1.44,4.82,4.11,4.82a3.64,3.64,0,0,0,4-3.95V25.51a.88.88,0,0,0-.82-.77Zm-3.19,13c-1.74,0-2.61-1.13-2.61-3.44s.87-3.44,2.61-3.44A3,3,0,0,1,72,32.43V35.1A2.34,2.34,0,0,1,69.57,37.72Zm13.6-4.31A4.51,4.51,0,0,0,82.45,31a3.52,3.52,0,0,0-3.13-1.44c-2.61,0-4.1,1.74-4.1,4.77s1.49,4.83,4.31,4.83A4.46,4.46,0,0,0,82.66,38a.66.66,0,0,0,.26-.52.67.67,0,0,0-.67-.66.59.59,0,0,0-.41.15,3.62,3.62,0,0,1-2.26.82,2.72,2.72,0,0,1-2.82-2.92H82.3C83.17,34.74,83.17,33.92,83.17,33.41Zm-3.85-2.57c1.54,0,2.31.88,2.37,2.57h-5a2.49,2.49,0,0,1,2.61-2.57Zm8.88,2.67c-1.13-.41-2-.72-2-1.54s1-1,1.59-1a2.64,2.64,0,0,1,2.05.77.68.68,0,0,0,.52.2.67.67,0,0,0,.66-.67.86.86,0,0,0-.15-.46,3.68,3.68,0,0,0-3-1.28c-1.9,0-3.08,1-3.08,2.46,0,1.85,1.65,2.41,3.08,2.93,1.08.36,2,.66,2,1.49,0,1.07-1.23,1.28-2,1.28a3.13,3.13,0,0,1-2.36-.93,1,1,0,0,0-.51-.25.68.68,0,0,0-.67.67.8.8,0,0,0,.16.46A4.3,4.3,0,0,0,88,39.05c2.15,0,3.43-1,3.43-2.66C91.23,34.54,89.64,34,88.2,33.51Zm12,4.26-3.39-4.36L99.9,31a.73.73,0,0,0,.31-.62.7.7,0,0,0-.72-.72.64.64,0,0,0-.51.21l-4.41,3.59v-7.9a.75.75,0,0,0-.77-.72.7.7,0,0,0-.72.72V38.23a.75.75,0,0,0,.77.72.7.7,0,0,0,.72-.72V35.15l1-.82L99,38.64a.85.85,0,0,0,.61.36.7.7,0,0,0,.72-.72A.61.61,0,0,0,100.21,37.77Z"/>
    <path class="35c8df72-3071-4b45-b299-613babe9b6b5" d="M15.23,27.76H21.8A2.19,2.19,0,0,1,24,30v6.57a8.71,8.71,0,0,1-8.72,8.72h0a8.71,8.71,0,0,1-8.72-8.72A8.8,8.8,0,0,1,15.23,27.76Z"/>
    <path class="bd1a2416-5680-47a0-ad23-ca00e4c1412a" d="M15.23,31.66a4,4,0,0,0-4,4v2.72a1.35,1.35,0,0,0,1.33,1.33h1.13V36.59H12.15v-.87a3.11,3.11,0,0,1,6.21,0v.87H16.82v3.13h1v.05A1.25,1.25,0,0,1,16.62,41H15.38a.18.18,0,0,0-.2.16.22.22,0,0,0,.2.2h1.24a1.6,1.6,0,0,0,1.59-1.59v-.1a1.31,1.31,0,0,0,1-1.28V35.72A4,4,0,0,0,15.23,31.66Z"/>
  </g>
</svg>
