<svg id="Layer_1" data-name="Layer 1" xmlns="http://www.w3.org/2000/svg" viewBox="0 0 48 48"><defs><style>.cls-1{fill:#f7991f;}.cls-2{fill:#f15823;}</style></defs><title>Ganalytics</title><path class="cls-1" d="M2.09,5V30.8l11.7-12L24.14,29.17,46,7.31v-2A3.35,3.35,0,0,0,42.64,2C34.39,2,13.16,2,5.18,2A3.06,3.06,0,0,0,2.09,5Z"/><polygon class="cls-1" points="18.96 23.91 13.7 29.26 18.96 34.61 18.96 23.91"/><path class="cls-2" d="M2,40.87v1.81a3.21,3.21,0,0,0,3.18,3.18H42.92A3.06,3.06,0,0,0,46,42.78V17.65L24.14,39.51,13.79,29.17S2.09,41,2,40.87Z"/></svg>