<svg id="bce87d4d-1e11-4833-9aab-b9f705619f18" data-name="Icons" xmlns="http://www.w3.org/2000/svg" viewBox="0 0 108 72">
  <defs>
    <style>
      .c4f5ea4b-f44e-4f13-8937-3600e17f7c2e {
        fill: #00baff;
      }

      .\39 f0bc2ff-f697-40af-9767-305672f4b103 {
        fill: #fff;
      }

      .\30 6268e9f-1cf3-457e-b45e-90d44081e9e2 {
        fill: #262626;
      }
    </style>
  </defs>
  <title>getresponse</title>
  <path class="c4f5ea4b-f44e-4f13-8937-3600e17f7c2e" d="M25.15,40.16a.76.76,0,0,1-.77.77H7.77A.75.75,0,0,1,7,40.16v-10a.78.78,0,0,1,.77-.77H24.36a.76.76,0,0,1,.77.77v10Z"/>
  <path class="9f0bc2ff-f697-40af-9767-305672f4b103" d="M25,29.68C22.83,33,19.49,36.08,16.05,36a6.4,6.4,0,0,1-3.93-1.39,6.27,6.27,0,0,1-2.18-3.56H9.57a.83.83,0,0,0-.83.95c0,.1,0,.23.06.35A7.4,7.4,0,0,0,11.62,37a7.55,7.55,0,0,0,4.45,1.51c3,0,6.26-1.92,9.08-6.87V30.16A.74.74,0,0,0,25,29.68Z"/>
  <g>
    <path class="06268e9f-1cf3-457e-b45e-90d44081e9e2" d="M96.87,33.18A2.57,2.57,0,0,1,99.5,36c0,.16,0,.56,0,.56h-4.1a1.71,1.71,0,0,0,1.78,1.59,2.79,2.79,0,0,0,1.68-.66l.62,1a3.64,3.64,0,0,1-2.41.9,3.07,3.07,0,0,1-3.21-3.13,3,3,0,0,1,3.05-3.11ZM98,35.52a1.16,1.16,0,0,0-1.12-1.2,1.39,1.39,0,0,0-1.45,1.2Z"/>
    <path class="06268e9f-1cf3-457e-b45e-90d44081e9e2" d="M40.85,33.18A2.57,2.57,0,0,1,43.48,36c0,.16,0,.56,0,.56h-4.1a1.71,1.71,0,0,0,1.78,1.59,2.79,2.79,0,0,0,1.68-.66l.62,1a3.62,3.62,0,0,1-2.4.9,3.07,3.07,0,0,1-3.21-3.13A3,3,0,0,1,40.85,33.18ZM42,35.52a1.16,1.16,0,0,0-1.12-1.2,1.4,1.4,0,0,0-1.45,1.2Z"/>
    <path class="06268e9f-1cf3-457e-b45e-90d44081e9e2" d="M58,33.18A2.58,2.58,0,0,1,60.64,36c0,.16,0,.56,0,.56h-4.1a1.71,1.71,0,0,0,1.78,1.59A2.75,2.75,0,0,0,60,37.49l.62,1a3.62,3.62,0,0,1-2.4.9A3.07,3.07,0,0,1,55,36.29a3,3,0,0,1,3-3.11Zm1.12,2.34A1.16,1.16,0,0,0,58,34.32a1.4,1.4,0,0,0-1.45,1.2Z"/>
    <path class="06268e9f-1cf3-457e-b45e-90d44081e9e2" d="M81.68,34.84c0-.17-.08-.25-.24-.25H81V33.32h1.37c.51,0,.78.25.78.67v.16a1.72,1.72,0,0,1,0,.25h0a2.28,2.28,0,0,1,2.12-1.24c1.32,0,2.07.68,2.07,2.26v2.32a.22.22,0,0,0,.25.25H88v1.24H86.61c-.56,0-.78-.23-.78-.79V35.75c0-.73-.19-1.22-.94-1.22a1.62,1.62,0,0,0-1.59,1.22,2.61,2.61,0,0,0-.12.79v2.73H81.7V34.84Z"/>
    <path class="06268e9f-1cf3-457e-b45e-90d44081e9e2" d="M77.31,33.18a3.13,3.13,0,1,1-3.25,3.13A3.13,3.13,0,0,1,77.31,33.18Zm0,5a1.77,1.77,0,0,0,1.78-1.86,1.77,1.77,0,1,0-3.54,0A1.77,1.77,0,0,0,77.31,38.15Z"/>
    <path class="06268e9f-1cf3-457e-b45e-90d44081e9e2" d="M73.36,36.29c0,1.84-1,3.13-2.64,3.13a2,2,0,0,1-1.78-.85h0s0,.2,0,.51v2.53H67.45V34.84a.23.23,0,0,0-.25-.25h-.47V33.32H68c.54,0,.77.23.77.52v.21h0a2.09,2.09,0,0,1,1.84-.87c1.58,0,2.7,1.22,2.7,3.11Zm-3,1.86c.87,0,1.49-.72,1.49-1.86s-.68-1.85-1.49-1.85c-1,0-1.49.91-1.49,1.85C68.88,37.59,69.61,38.15,70.39,38.15Z"/>
    <path class="06268e9f-1cf3-457e-b45e-90d44081e9e2" d="M62.11,37.39a2.68,2.68,0,0,0,1.78.87c.45,0,.81-.19.81-.58,0-.85-3.15-.83-3.15-2.76,0-1.2,1.07-1.74,2.32-1.74.81,0,2.09.27,2.09,1.24V35H64.65v-.29c0-.29-.41-.41-.74-.41-.52,0-.89.19-.89.54,0,.93,3.17.74,3.17,2.73,0,1.12-1,1.83-2.3,1.83a3.3,3.3,0,0,1-2.49-1.06Z"/>
    <path class="06268e9f-1cf3-457e-b45e-90d44081e9e2" d="M89.25,37.39a2.68,2.68,0,0,0,1.78.87c.45,0,.8-.19.8-.58,0-.85-3.14-.83-3.14-2.76,0-1.2,1.07-1.74,2.32-1.74.8,0,2.09.27,2.09,1.24V35H91.79v-.29c0-.29-.41-.41-.74-.41-.52,0-.89.19-.89.54,0,.93,3.17.74,3.17,2.73,0,1.12-1,1.83-2.28,1.83a3.3,3.3,0,0,1-2.49-1.06Z"/>
    <path class="06268e9f-1cf3-457e-b45e-90d44081e9e2" d="M47.4,38a1.06,1.06,0,0,1-1.18-1.12V34.48h1.34V34c0-.44-.18-.63-.62-.63h-.72V31.71H44.77v1.61H44v1.19h.77V37.1a2.18,2.18,0,0,0,2.48,2.23,2.46,2.46,0,0,0,.46,0V38S47.56,38,47.4,38Z"/>
    <path class="06268e9f-1cf3-457e-b45e-90d44081e9e2" d="M33.46,30.84a4.24,4.24,0,0,1,3,1.06L35.61,33a3.56,3.56,0,0,0-2.13-.74,2.7,2.7,0,0,0-2.68,2.81A2.73,2.73,0,0,0,33.52,38a3,3,0,0,0,2.11-.87v-.63a.22.22,0,0,0-.25-.24h-.5V34.94h1.35c.56,0,.79.23.79.79v3.54H35.71v-.39c0-.17,0-.36,0-.36h0a3.61,3.61,0,0,1-2.44.9,4.06,4.06,0,0,1-4-4.33A4.16,4.16,0,0,1,33.46,30.84Z"/>
    <path class="06268e9f-1cf3-457e-b45e-90d44081e9e2" d="M48.5,31h3a2.4,2.4,0,0,1,2.59,2.51,2.21,2.21,0,0,1-1.39,2.2v0a1,1,0,0,1,.41.41l.81,1.6a.56.56,0,0,0,.58.27h.15v1.3h-.79c-.62,0-.89-.1-1.16-.62L51.6,36.56c-.16-.33-.35-.4-.78-.4h-.77v3.11H48.52V31Zm2.75,3.9a1.16,1.16,0,0,0,1.22-1.31,1.14,1.14,0,0,0-1.2-1.28H50v2.59Z"/>
  </g>
</svg>
