<svg xmlns="http://www.w3.org/2000/svg" viewBox="0 0 48 48"><title>github</title><path d="M24.47,3.38a20.7,20.7,0,0,0-6.54,40.34c1,.19,1.41-.45,1.41-1s0-1.79,0-3.52c-5.75,1.25-7-2.77-7-2.77a5.49,5.49,0,0,0-2.3-3c-1.88-1.28.14-1.26.14-1.26a4.38,4.38,0,0,1,3.18,2.13c1.84,3.17,4.84,2.25,6,1.72a4.42,4.42,0,0,1,1.31-2.76c-4.59-.53-9.42-2.3-9.42-10.23a8,8,0,0,1,2.13-5.56A7.35,7.35,0,0,1,13.6,12s1.74-.56,5.69,2.12a19.52,19.52,0,0,1,10.36,0c4-2.68,5.69-2.12,5.69-2.12a7.43,7.43,0,0,1,.21,5.47A8,8,0,0,1,37.67,23c0,8-4.84,9.7-9.45,10.21A4.91,4.91,0,0,1,29.63,37c0,2.77,0,5,0,5.68s.38,1.2,1.43,1A20.7,20.7,0,0,0,24.47,3.38Z" style="fill:#181616;fill-rule:evenodd"/></svg>