<svg xmlns="http://www.w3.org/2000/svg" viewBox="0 0 48 48"><title>gmo make shop</title><rect x="2.54" y="2.38" width="43.24" height="43.24" style="fill:#0c61a1"/><polygon points="9.37 31.04 5.19 21.55 7.9 20.15 12.84 25.59 11.57 18.34 14.21 16.98 19.45 25.84 17.45 26.86 13.54 19.82 14.93 27.98 13.36 28.79 7.95 22.7 11.24 30.06 9.37 31.04" style="fill:#fff"/><path d="M18.46,20.14l-.95-1.08S20,16,22.2,16.74a3.94,3.94,0,0,1,2,1.88c.64,1.24,1.33,2.59,1.67,3.32a1.76,1.76,0,0,0,.36.44l-1.83.94s-.49-.48-.42-.51a3.08,3.08,0,0,1-1.52,1.67,2.24,2.24,0,0,1-3.19-.9c-.66-1.29-.38-2.88,2.63-4.43-.36-1-1.4-.58-1.77-.39A8.55,8.55,0,0,0,18.46,20.14Zm3.18,2.7c.4,0,1-.55,1.16-.9a2.21,2.21,0,0,0-.34-1.66A2.29,2.29,0,0,0,21,21.5C20.66,22.1,20.85,22.64,21.64,22.84Z" style="fill:#fff"/><polygon points="22.59 11.99 24.59 10.96 27.6 16.79 28.03 13.05 30.42 11.82 29.45 15.66 34.14 18.2 31.68 19.47 28.71 17.6 28.45 18.45 29.56 20.6 27.54 21.64 22.59 11.99" style="fill:#fff"/><path d="M39.26,12.24l-4.34,2.23s.91,2,4.26-.9l.94,1.23A7.19,7.19,0,0,1,38,16.36c-1.42.73-3.8,1.36-5.31-1.58a3.66,3.66,0,0,1,1.49-5.21C35.16,9.07,37.57,8.43,39.26,12.24ZM34.15,13l2.5-1.29s-.78-1.38-1.9-.8S34.15,13,34.15,13Zm5.11-.78-4.34,2.23" style="fill:#fff"/><path d="M16.83,30.71l.13,1a3,3,0,0,0-1.86.49c-1.23.63-1.4,1.59-1.09,2.18s1,1.22,3,.89a2.79,2.79,0,0,1,3.32,1.46c.45.87,1.08,2.73-1.68,4.15-1.75.9-2.57.64-2.57.64l-.23-1.07A4.07,4.07,0,0,0,18.2,40c1.29-.67,1.56-1.7,1.14-2.51s-1-1.09-2.2-1S13.92,37,13,35.15s.29-3.17,1.68-3.88A3.92,3.92,0,0,1,16.83,30.71Z" style="fill:#fff"/><path d="M18.2,29l1.12-.58,2.07,4A3.56,3.56,0,0,1,23,30.18c2-1,3.3,1.06,3.3,1.06l2.28,4.42-1.12.58L25.27,32A1.75,1.75,0,0,0,23,31.34C21.75,32,22,33.68,22,33.68l2.18,4.25-1.13.58Z" style="fill:#fff"/><path d="M34.63,28.27a3.54,3.54,0,1,1-6.28,3.24,3.54,3.54,0,1,1,6.28-3.24Zm-4.42-.84A2.58,2.58,0,0,0,29.52,31c.72,1.39,2.2,2.06,3.28,1.5a2.58,2.58,0,0,0,.69-3.55C32.77,27.53,31.31,26.86,30.21,27.43Z" style="fill:#fff"/><path d="M35.56,23.74l.58,1.13a2.81,2.81,0,0,1,1.7-2.42c.93-.47,3-.74,4.41,1.92s0,4.3-1.23,4.92a3.21,3.21,0,0,1-2.48.11l1.78,3.44-1.19.61-4.7-9.13ZM37.29,27c.88,1.71,2.14,2,3.22,1.5s1.35-2.11.64-3.49S39,23,37.94,23.52,36.41,25.3,37.29,27Z" style="fill:#fff"/><path d="M40.81,18.43l.52-.27a.49.49,0,0,1,.32-.06.27.27,0,0,1,.18.15.3.3,0,0,1,0,.18.37.37,0,0,1-.07.16.84.84,0,0,1-.22.14l-.47.25-.29-.56Zm.76,1.48-.38-.75.26-.13a.27.27,0,0,1,.13-.05h.12l.16.05.29.15.4.23.27-.14L42.3,19a1.63,1.63,0,0,0-.29-.12.44.44,0,0,0-.18,0,.7.7,0,0,0,.28-.33.53.53,0,0,0-.25-.57.42.42,0,0,0-.26-.08,1.47,1.47,0,0,0-.37.14l-.74.38L41.35,20Z" style="fill:#fff"/><path d="M40.23,19.51a1.53,1.53,0,1,0,.66-2.06A1.53,1.53,0,0,0,40.23,19.51Zm.21-.1A1.33,1.33,0,0,1,41,17.63a1.31,1.31,0,1,1-.57,1.78Z" style="fill:#fff"/></svg>