<svg xmlns="http://www.w3.org/2000/svg" viewBox="0 0 48 48">
  <title>icon-</title>
  <g id="googlecloudstorage">
    <g id="Solid_Blues" data-name="Solid Blues">
      <path d="M11.74,38.72,5.09,27.27a6.37,6.37,0,0,1,0-6.48L11.74,9.35A6.56,6.56,0,0,1,17.4,6H30.6a6.68,6.68,0,0,1,5.66,3.28l6.65,11.45a6.37,6.37,0,0,1,0,6.48L36.33,38.72A6.54,6.54,0,0,1,30.68,42H17.4A6.45,6.45,0,0,1,11.74,38.72Z" style="fill: #4387fc"/>
      <path d="M40.63,30.88,30.84,19.52,17,23l4.4,5.29s-4.05.08-4.05,0l13.5,13.57.18.19h1.46a3.26,3.26,0,0,0,2.73-1.55Z" style="fill: #407bde"/>
      <path d="M30.66,19.52H17.34a.38.38,0,0,0-.38.39h0v2.74a.38.38,0,0,0,.38.39H30.66a.38.38,0,0,0,.38-.39h0V19.91a.38.38,0,0,0-.38-.39Zm-2.11,2.7a.88.88,0,1,1,.88-.88A.88.88,0,0,1,28.55,22.22Z" style="fill: #f7f7f7"/>
      <path d="M30.66,24.8H17.34a.38.38,0,0,0-.38.39h0v2.75a.38.38,0,0,0,.38.38H30.66a.38.38,0,0,0,.38-.38h0V25.19a.38.38,0,0,0-.38-.39Zm-2.11,2.7a.88.88,0,1,1,.88-.88A.88.88,0,0,1,28.55,27.5Z" style="fill: #f7f7f7"/>
    </g>
  </g>
</svg>
