<svg width="48" height="48" viewBox="0 0 48 48" fill="none" xmlns="http://www.w3.org/2000/svg">
<g clip-path="url(#clip0_1691_6843)">
<path d="M40.9952 25.3154L26.3154 39.9952C24.9762 41.3344 22.8038 41.3344 21.4646 39.9952C20.1239 38.656 20.1254 36.4837 21.4646 35.1445L36.1459 20.4631C37.4851 19.1239 39.6575 19.1239 40.9967 20.4631C42.3359 21.8038 42.3359 23.9747 40.9952 25.3154Z" fill="#FBBC04"/>
<path d="M26.3151 39.9963C27.655 38.6565 27.655 36.4842 26.3151 35.1444C24.9753 33.8046 22.803 33.8046 21.4632 35.1444C20.1234 36.4842 20.1234 38.6565 21.4632 39.9963C22.803 41.3362 24.9753 41.3362 26.3151 39.9963Z" fill="#34A853"/>
<path d="M28.916 13.2347L21.5746 20.5746L26.4254 25.4254L33.7668 18.0854C35.106 16.7462 35.106 14.5739 33.7668 13.2347C32.4261 11.894 30.2552 11.894 28.916 13.2347Z" fill="#FBBC04"/>
<path d="M19.0854 32.7668L26.4254 25.4268L21.5746 20.5761L14.2347 27.916C12.8955 29.2552 12.8955 31.4276 14.2347 32.7668C15.5739 34.106 17.7462 34.106 19.0854 32.7668Z" fill="#3B80EF"/>
<path d="M26.4425 25.4101C27.7824 24.0703 27.7824 21.898 26.4425 20.5582C25.1027 19.2183 22.9304 19.2183 21.5906 20.5582C20.2508 21.898 20.2508 24.0703 21.5906 25.4101C22.9304 26.7499 25.1027 26.7499 26.4425 25.4101Z" fill="#34A853"/>
<path d="M26.537 10.8556L11.8556 25.537C10.5164 26.8762 8.34409 26.8762 7.00489 25.537C5.66569 24.1978 5.66569 22.0254 7.00489 20.6862L21.6862 6.00489C23.0254 4.66569 25.1978 4.66569 26.537 6.00489C27.8762 7.34409 27.8762 9.51644 26.537 10.8556Z" fill="#3B80EF"/>
<path d="M24.1107 11.8618C26.0056 11.8618 27.5416 10.3257 27.5416 8.43088C27.5416 6.53606 26.0056 5 24.1107 5C22.2159 5 20.6799 6.53606 20.6799 8.43088C20.6799 10.3257 22.2159 11.8618 24.1107 11.8618Z" fill="#34A853"/>
</g>
<defs>
<clipPath id="clip0_1691_6843">
<rect width="36" height="36" fill="white" transform="translate(6 5)"/>
</clipPath>
</defs>
</svg>
