<svg xmlns="http://www.w3.org/2000/svg" viewBox="0 0 48 48"><title>googlesearch</title><path d="M44,24.37a16.66,16.66,0,0,0-.42-4H25v7.33H35.9a9.64,9.64,0,0,1-4,6.41l0,.24,5.86,4.54.41,0C41.83,35.45,44,30.38,44,24.37" style="fill:#4285f4"/><path d="M25,43.68A18.83,18.83,0,0,0,38.1,38.89l-6.23-4.82A11.73,11.73,0,0,1,25,36a11.88,11.88,0,0,1-11.23-8.2h-.24L7.46,32.57l-.08.22A19.73,19.73,0,0,0,25,43.68" style="fill:#34a853"/><path d="M13.79,27.84a12.11,12.11,0,0,1-.66-3.91A13,13,0,0,1,13.76,20v-.26L7.58,15l-.2.09a19.68,19.68,0,0,0,0,17.73l6.41-4.95" style="fill:#fbbc05"/><path d="M25,11.82a11,11,0,0,1,7.64,2.94l5.57-5.44A18.94,18.94,0,0,0,25,4.18,19.74,19.74,0,0,0,7.38,15.06l6.38,5A12,12,0,0,1,25,11.82" style="fill:#eb4335"/></svg>