<svg xmlns="http://www.w3.org/2000/svg" viewBox="0 0 48 48"><defs><style>.cls-1{fill:#4388ef;}.cls-2{fill:#3f7ed4;}.cls-3{fill:#fefefe;}.cls-4{fill:none;stroke:#fefefe;stroke-miterlimit:10;stroke-width:2px;}</style></defs><title>icon-</title><g id="googledatacatalo"><path class="cls-1" d="M11.61,41.92,2.26,25.72a3.48,3.48,0,0,1,0-3.5L11.61,6a3.51,3.51,0,0,1,3-1.75H33.36a3.51,3.51,0,0,1,3,1.75l9.35,16.21a3.48,3.48,0,0,1,0,3.5l-9.35,16.2a3.49,3.49,0,0,1-3,1.75H14.64A3.49,3.49,0,0,1,11.61,41.92Z"/><path class="cls-2" d="M42.94,30.26,31,17.84c-3-.17-11.36-.17-11.36-.17L17,20.33l-1.89,9.93L28.77,43.53c.07.07,2.89.14,3,.21h1.56a3.48,3.48,0,0,0,3-1.75Z"/><polygon class="cls-3" points="26.87 17.3 23.88 15.54 20.87 17.25 20.84 20.71 23.83 22.47 26.84 20.76 26.87 17.3"/><polygon class="cls-3" points="21.2 26.71 18.22 24.96 15.2 26.66 15.17 30.13 18.16 31.89 21.18 30.18 21.2 26.71"/><polygon class="cls-3" points="32.54 26.55 29.55 24.79 26.53 26.5 26.51 29.96 29.49 31.72 32.51 30.01 32.54 26.55"/><polyline class="cls-4" points="16.52 24.66 14.94 22.01 17.52 18.76 20.11 18.76"/><polyline class="cls-4" points="20.61 31.59 21.94 33.76 25.86 33.76 27.52 31.59"/><polyline class="cls-4" points="31.42 24.71 32.94 22.26 30.52 18.76 27.69 18.76"/></g></svg>