<svg xmlns="http://www.w3.org/2000/svg" viewBox="0 0 48 48"><title>googlemaps</title><path d="M5,40.79V9.59A3.28,3.28,0,0,1,8.32,6.31h31.2Z" style="fill:#0eab69;fill-rule:evenodd"/><path d="M5,41.45v-.66L39.52,6.31h.65a3.28,3.28,0,0,1,3.29,3.28v.66L9,44.73H8.32A3.28,3.28,0,0,1,5,41.45Z" style="fill:#ffe13f;fill-rule:evenodd"/><polygon points="8.97 44.73 24.25 29.46 39.52 44.73 8.97 44.73" style="fill:#5c84c3;fill-rule:evenodd"/><path d="M39.52,44.73,24,29.23,28,25.29l15.51,15.5v.66a3.28,3.28,0,0,1-3.29,3.28Z" style="fill:#fff;fill-rule:evenodd"/><polygon points="43.46 40.79 28.19 25.52 43.46 10.25 43.46 40.79" style="fill:#d2d2d2;fill-rule:evenodd"/><path d="M19.77,14.61H14.62v1.78h3.05a3.22,3.22,0,1,1-3.05-4.25,3.17,3.17,0,0,1,2.1.79l1.43-1.39a5.2,5.2,0,1,0,1.57,4.85,5,5,0,0,0,.1-1A4.57,4.57,0,0,0,19.77,14.61Z" style="fill:#f0f0f0"/><path d="M36.57,33.7h0a.57.57,0,0,1-.57-.54,22.82,22.82,0,0,0-3.78-10.59c-2.26-3.75-6-7.89-6-12,0-5.18,4.24-9.74,10.32-9.74h0c6.08,0,10.32,4.56,10.32,9.74,0,4.12-3.72,8.26-6,12a22.92,22.92,0,0,0-3.79,10.59A.57.57,0,0,1,36.57,33.7Z" style="fill:#e14e3c;fill-rule:evenodd"/><circle cx="36.56" cy="10.69" r="3.56" style="fill:#883129"/></svg>