<svg width="48" height="48" viewBox="0 0 48 48" fill="none" xmlns="http://www.w3.org/2000/svg">
<g clip-path="url(#clip0_1643_11822)">
<path d="M8.72165 34.6746L10.3093 37.4169C10.6392 37.9942 11.1134 38.4478 11.6701 38.7777L17.3402 28.9633H6C6 29.6025 6.16495 30.2417 6.49485 30.819L8.72165 34.6746Z" fill="#0066DA"/>
<path d="M24 17.4169L18.3299 7.60248C17.7732 7.93237 17.299 8.38598 16.9691 8.9633L6.49485 27.1076C6.17102 27.6725 6.00043 28.3122 6 28.9633H17.3402L24 17.4169Z" fill="#00AC47"/>
<path d="M36.3299 38.7777C36.8866 38.4478 37.3608 37.9942 37.6907 37.4169L38.3505 36.2829L41.5052 30.819C41.835 30.2417 42 29.6025 42 28.9633H30.659L33.0722 33.7056L36.3299 38.7777Z" fill="#EA4335"/>
<path d="M24 17.4169L29.6701 7.60248C29.1134 7.27258 28.4742 7.10764 27.8144 7.10764H20.1856C19.5258 7.10764 18.8866 7.2932 18.3299 7.60248L24 17.4169Z" fill="#00832D"/>
<path d="M30.6598 28.9633H17.3402L11.6701 38.7777C12.2268 39.1076 12.866 39.2726 13.5258 39.2726H34.4742C35.134 39.2726 35.7732 39.087 36.3299 38.7777L30.6598 28.9633Z" fill="#2684FC"/>
<path d="M36.268 18.0355L31.0309 8.9633C30.701 8.38598 30.2268 7.93237 29.6701 7.60248L24 17.4169L30.6598 28.9633H41.9794C41.9794 28.3241 41.8144 27.685 41.4845 27.1076L36.268 18.0355Z" fill="#FFBA00"/>
</g>
<defs>
<clipPath id="clip0_1643_11822">
<rect width="36" height="32.1649" fill="white" transform="translate(6 7.10764)"/>
</clipPath>
</defs>
</svg>
