<svg width="48" height="48" viewBox="0 0 48 48" fill="none" xmlns="http://www.w3.org/2000/svg">
<g clip-path="url(#clip0_1648_1078)">
<path d="M27.8252 14.176H36.9672L27.8252 5.06763V14.176Z" fill="#188038"/>
<path d="M27.8252 14.176V5.06763H12.5185C11.3999 5.06763 10.5 5.96422 10.5 7.07867V38.9202C10.5 40.0347 11.3999 40.9313 12.5185 40.9313H34.9487C36.0673 40.9313 36.9672 40.0347 36.9672 38.9202V14.176H27.8252Z" fill="#34A853"/>
<path d="M15.5462 19.1366V31.4626H31.921V19.1366H15.5462ZM22.7202 29.4515H17.5646V26.3009H22.7202V29.4515ZM22.7202 24.2982H17.5646V21.1476H22.7202V24.2982ZM29.9025 29.4515H24.747V26.3009H29.9025V29.4515ZM29.9025 24.2982H24.747V21.1476H29.9025V24.2982Z" fill="white"/>
</g>
<defs>
<clipPath id="clip0_1648_1078">
<rect width="26.4672" height="35.8675" fill="white" transform="translate(10.5 5.06567)"/>
</clipPath>
</defs>
</svg>
