<svg width="48" height="48" viewBox="0 0 48 48" fill="none" xmlns="http://www.w3.org/2000/svg">
<g clip-path="url(#clip0_1690_4506)">
<path d="M19.9615 22.5385C13.5831 22.5385 8.4231 27.6984 8.4231 34.0769V38.9231C8.4231 40.07 9.35312 41 10.5 41H16.0385L21.5769 22.5385H19.9615Z" fill="#86A9FF"/>
<path d="M38.8846 30.1539C38.8846 25.9446 35.4785 22.5385 31.2693 22.5385H25.7308V41H31.2693C35.4785 41 38.8846 37.5938 38.8846 33.3846" fill="#578CFF"/>
<path d="M13.9615 30.1539C13.9615 25.9446 17.3677 22.5385 21.5769 22.5385H25.7307C29.94 22.5385 33.3461 25.9447 33.3461 30.1539V33.3846C33.3461 37.5939 29.9399 41 25.7307 41H16.0385C14.8916 41 13.9615 40.07 13.9615 38.9231V30.1539Z" fill="#0057CC"/>
<path d="M23.6538 19.3077C27.6048 19.3077 30.8077 16.1048 30.8077 12.1538C30.8077 8.20289 27.6048 5 23.6538 5C19.7029 5 16.5 8.20289 16.5 12.1538C16.5 16.1048 19.7029 19.3077 23.6538 19.3077Z" fill="#0057CC"/>
</g>
<defs>
<clipPath id="clip0_1690_4506">
<rect width="30.4615" height="36" fill="white" transform="translate(8.4231 5)"/>
</clipPath>
</defs>
</svg>
