<svg xmlns="http://www.w3.org/2000/svg" viewBox="0 0 48 48"><title>googlecloudsql</title><path d="M10.48,40.22,3.2,27.6a7.18,7.18,0,0,1,0-7.2L10.48,7.78a7.22,7.22,0,0,1,6.24-3.6H31.28a7.22,7.22,0,0,1,6.24,3.6L44.8,20.4a7.18,7.18,0,0,1,0,7.2L37.52,40.22a7.22,7.22,0,0,1-6.24,3.6H16.72A7.22,7.22,0,0,1,10.48,40.22Z" style="fill:#4486f9"/><path d="M12.68,28.88,27.41,43.82H33.8a2.86,2.86,0,0,0,2.46-1.42l6.23-10.8-12-12.19-1.31,4.27-4-3.92-3.63.92.18,1.94-3.06-3.21H14.79a2.12,2.12,0,0,0-2.11,2.11L13,24.58l4.24,3.72-4-1.17Z" style="fill:#407bde"/><path d="M18.62,19.41H14.83a2.15,2.15,0,0,0-2.15,2.15v1.65a2,2,0,0,0,2,2h1.89v1.9H13.26l-.44,1.93h3.87a2,2,0,0,0,2-2V25.37a2.1,2.1,0,0,0-2.1-2.1H14.75l0-1.91h3.38Z" style="fill:#fff"/><polygon points="30.45 19.41 28.36 19.41 28.36 29.07 34.25 29.07 34.25 27.09 30.45 27.08 30.45 19.41" style="fill:#fff"/><path d="M26,27.09V21.44a2,2,0,0,0-2-2h-2a1.83,1.83,0,0,0-1.83,1.84v5.86a2,2,0,0,0,2,2h4.81v-2ZM24,27H22.09V21.38H24Z" style="fill:#fff"/></svg>