<svg xmlns="http://www.w3.org/2000/svg" xmlns:xlink="http://www.w3.org/1999/xlink" viewBox="0 0 48 48"><defs><filter id="b" filterUnits="userSpaceOnUse" color-interpolation-filters="sRGB"><feColorMatrix values="-1 0 0 0 1 0 -1 0 0 1 0 0 -1 0 1 0 0 0 1 0"/></filter><mask id="a" x="18.83" y="19.41" width="8.97" height="8.97" maskUnits="userSpaceOnUse"><circle cx="23.32" cy="23.89" r="4.48" style="fill:#231f20;filter:url(#b)"/></mask></defs><title>googlebigquery</title><path d="M10.37,39.93,3.12,27.37a7.12,7.12,0,0,1,0-7.14L10.37,7.66a7.16,7.16,0,0,1,6.19-3.57H31.07a7.14,7.14,0,0,1,6.18,3.57L44.5,20.23a7.12,7.12,0,0,1,0,7.14L37.25,39.93a7.14,7.14,0,0,1-6.18,3.57H16.56A7.16,7.16,0,0,1,10.37,39.93Z" style="fill:#4388ef"/><path d="M42.11,31.44l-13.94-14a6.14,6.14,0,0,0-8.69,0l-2.67,2.66a6.16,6.16,0,0,0,0,8.7L31.32,43.36l.22.2H33.1a3.5,3.5,0,0,0,3-1.74Z" style="fill:#3f7ed4"/><g style="mask:url(#a)"><rect x="19.47" y="23.62" width="1.69" height="4.57" style="fill:#fff"/><rect x="25.47" y="24.63" width="1.69" height="3.57" style="fill:#fff"/><rect x="22.47" y="21.33" width="1.69" height="6.86" style="fill:#fff"/></g><path d="M32.82,31.84l-3.1-3.1a8,8,0,0,0-6.4-12.89,8,8,0,0,0,0,16.08,7.93,7.93,0,0,0,4.95-1.72l3.09,3.09a.45.45,0,0,0,.64,0l.82-.82A.45.45,0,0,0,32.82,31.84ZM17.26,23.89a6.06,6.06,0,1,1,6.06,6.05A6.05,6.05,0,0,1,17.26,23.89Z" style="fill:#fff"/></svg>