<svg id="CURRENT" xmlns="http://www.w3.org/2000/svg" viewBox="0 0 48 48">
  <title>gorgias</title>
  <path d="M6.06,9.82c.13-.35.22-.71.38-1a4.12,4.12,0,0,1,4-2.57c3.09,0,6.18,0,9.28,0h8.77A4.16,4.16,0,0,1,32.5,9a5.86,5.86,0,0,1,.3,1.72c0,.81,0,1.63,0,2.45,0,.48,0,.48.46.48h3.11a4.17,4.17,0,0,1,4.21,3,4,4,0,0,1,.2,1.3c0,8,0,15.91,0,23.87a1,1,0,0,1-.51.94s-.06.07-.1.12H37.41l-.4-.29c-1.56-1.1-3.12-2.19-4.67-3.3a2,2,0,0,0-1.26-.4H17.67c-2.4,0-4.81,0-7.21,0a4.16,4.16,0,0,1-4.05-2.61c-.15-.33-.23-.68-.35-1Zm3.5,12.79c0,3.95,0,7.91,0,11.86a1,1,0,0,0,.57,1,1.74,1.74,0,0,0,.64.09q10.86,0,21.7,0a1.53,1.53,0,0,1,.93.29c1,.75,2.09,1.48,3.13,2.22a.62.62,0,0,0,1.07-.54V18.14a1,1,0,0,0-1.07-1.06H33.41c-.46,0-.46,0-.46.45V30.29c0,.93-.3,1.23-1.22,1.23H15a.87.87,0,0,1-.77-.62,2.88,2.88,0,0,1-.06-.59q0-7.68,0-15.37a2.09,2.09,0,0,1,.06-.56.86.86,0,0,1,.79-.64H29.16c.42,0,.43,0,.43-.42,0-.83,0-1.66,0-2.49s-.37-1.12-1.14-1.12c-5.91,0-11.82,0-17.73,0a1.08,1.08,0,0,0-1.17,1.17C9.57,14.77,9.56,18.69,9.56,22.61Zm14-5.65H18c-.5,0-.65.15-.65.65v9.77c0,.48.16.64.63.64H28.86c.5,0,.65-.16.65-.66,0-3.34,0-6.69,0-10,0-.29-.07-.38-.37-.38C27.29,17,25.44,17,23.59,17Z" style="fill: #162165"/>
</svg>
