<svg id="CURRENT" xmlns="http://www.w3.org/2000/svg" viewBox="0 0 48 48">
  <title>graphql</title>
  <path d="M40.19,29.19a3.6,3.6,0,0,0-.95-.37V19.18a3.66,3.66,0,0,0,1-.37,3.6,3.6,0,1,0-3.61-6.24,3.4,3.4,0,0,0-.8.65L27.44,8.4a3.4,3.4,0,0,0,.16-1,3.6,3.6,0,0,0-7.2,0,3.45,3.45,0,0,0,.16,1l-8.35,4.82a3.35,3.35,0,0,0-.8-.65A3.6,3.6,0,1,0,7.8,18.81a3.66,3.66,0,0,0,1,.37v9.64a3.6,3.6,0,1,0,2.66,6.61,3.52,3.52,0,0,0,.79-.64l8.35,4.82a3.39,3.39,0,0,0-.16,1,3.6,3.6,0,1,0,7.2,0,3.53,3.53,0,0,0-.19-1.13L35.7,34.7a3.46,3.46,0,0,0,.88.73,3.6,3.6,0,1,0,3.61-6.24ZM13.1,31.46a3.32,3.32,0,0,0-.36-.95,3.57,3.57,0,0,0-.64-.79L23,10.83a3.41,3.41,0,0,0,2,0L35.9,29.71a3.57,3.57,0,0,0-.64.8,3.32,3.32,0,0,0-.36.95ZM34.93,14.71a3.55,3.55,0,0,0,.34,2.78,3.59,3.59,0,0,0,2.25,1.69v9.64l-.14,0L26.49,10l.1-.09ZM21.41,9.88l.1.1L10.62,28.85l-.14,0V19.18a3.59,3.59,0,0,0,2.59-4.48ZM26.66,38.2a3.59,3.59,0,0,0-5.25-.08l-8.34-4.81a.74.74,0,0,0,0-.14H34.89c0,.08,0,.16.07.23Z" style="fill: #e10098"/>
</svg>
