<svg id="Layer_1" data-name="Layer 1" xmlns="http://www.w3.org/2000/svg" viewBox="0 0 48 48"><title>groove</title><path id="Fill-29" d="M22.52,36.88a16.86,16.86,0,0,1-8.21-2.12l-2.55,4.46a22.23,22.23,0,0,0,21.53,0l-2.55-4.46a16.87,16.87,0,0,1-8.22,2.12" style="fill:#0ba0be"/><path id="Fill-30" d="M22.49,25.1a6.87,6.87,0,0,1-6.81-7,6.79,6.79,0,1,1,13.57,0A6.8,6.8,0,0,1,22.49,25.1Zm15-13.67V6a10.34,10.34,0,0,0-3.9.42,4,4,0,0,0-1.1.69,18.69,18.69,0,0,0-2,1.94,12,12,0,0,0-8.08-3,11.84,11.84,0,0,0-12,12.07,12,12,0,1,0,24,0,12.21,12.21,0,0,0-1.9-6.64h4.93Z"/></svg>