<svg id="50598f5d-52f8-4d98-8987-8c0e57d498f9" data-name="Icons" xmlns="http://www.w3.org/2000/svg" xmlns:xlink="http://www.w3.org/1999/xlink" viewBox="0 0 108 72">
  <defs>
    <style>
      .\31 a081719-22fe-402e-a76e-965cc1448912 {
        fill: url(#1ef24541-98b8-4ada-aa8e-562be4624601);
      }

      .\37 89bcc3a-f47e-4f99-983b-0a084ebbd846 {
        fill: #fff;
      }
    </style>
    <linearGradient id="1ef24541-98b8-4ada-aa8e-562be4624601" x1="53" y1="-1998.56" x2="53" y2="-2027.44" gradientTransform="matrix(1, 0, 0, -1, 0, -1978)" gradientUnits="userSpaceOnUse">
      <stop offset="0" stop-color="#f99916"/>
      <stop offset="1" stop-color="#f86606"/>
    </linearGradient>
  </defs>
  <title>harvest</title>
  <g>
    <path class="1a081719-22fe-402e-a76e-965cc1448912" d="M94.41,49.44H11.59a1.92,1.92,0,0,1-1.92-1.92v-25a1.92,1.92,0,0,1,1.92-1.92H94.41a1.92,1.92,0,0,1,1.92,1.92v25A1.92,1.92,0,0,1,94.41,49.44Z"/>
    <path class="789bcc3a-f47e-4f99-983b-0a084ebbd846" d="M16.74,41.55V28.45H19.2V33.7h3.51V28.45h2.46V41.5H22.71V35.91H19.2v5.64Zm10.79,0,3.23-13h3.17l3.13,13H34.7l-.62-2.75H30.66l-.72,2.75Zm3.61-5H33.6l-1.21-5.3h0Zm14,5L43,36.2H41.78v5.35H39.33V28.45h3.56c3,0,4.38,1.45,4.38,3.9,0,1.59-.53,2.79-2,3.32l2.45,5.83S45.15,41.55,45.15,41.55Zm-3.37-7.42H43a1.59,1.59,0,0,0,1.78-1.83A1.61,1.61,0,0,0,43,30.47H41.78Zm7.51-5.68h2.46L54,37.79h.05l2.26-9.34h2.41L55.41,41.5h-2.8S49.29,28.45,49.29,28.45ZM61,41.55V28.45h6.79v2.22H63.5v3h3.27v2.21H63.5v3.42H68v2.22Zm15.31-9.39c-.38-1.2-1-1.78-1.83-1.78a1.26,1.26,0,0,0-1.35,1.39c0,2,5.54,2.12,5.54,6.12,0,2.21-1.49,3.71-4.14,3.71-2,0-3.56-1.11-4.24-3.61l2.46-.49c.29,1.54,1.2,2.12,1.92,2.12a1.41,1.41,0,0,0,1.5-1.54c0-2.45-5.54-2.45-5.54-6.07,0-2.21,1.3-3.61,3.85-3.61a3.76,3.76,0,0,1,4,3.13C78.57,31.49,76.35,32.16,76.35,32.16Zm12.91-3.71v2.22H86.41V41.5H84V30.67H81.12V28.45Z"/>
  </g>
</svg>
