<svg xmlns="http://www.w3.org/2000/svg" xmlns:xlink="http://www.w3.org/1999/xlink" viewBox="0 0 48 48"><defs><style>.cls-1{fill:#1c1c1c;}.cls-2{fill:url(#linear-gradient);}.cls-3{fill:#8d8d8d;}.cls-4{fill:url(#linear-gradient-2);}</style><linearGradient id="linear-gradient" x1="6.5" y1="1750.98" x2="41.5" y2="1750.98" gradientTransform="matrix(1, 0, 0, -1, 0, 1774.98)" gradientUnits="userSpaceOnUse"><stop offset="0" stop-color="#bed630"/><stop offset="0.01" stop-color="#bfd52f"/><stop offset="0.25" stop-color="#dac823"/><stop offset="0.49" stop-color="#edbf1a"/><stop offset="0.74" stop-color="#f8ba15"/><stop offset="1" stop-color="#fcb813"/></linearGradient><linearGradient id="linear-gradient-2" x1="-442.68" y1="1792.48" x2="-435.09" y2="1792.48" gradientTransform="matrix(1.06, 0.13, 0.11, -0.99, 284.2, 1853.24)" gradientUnits="userSpaceOnUse"><stop offset="0" stop-color="#bed630"/><stop offset="1" stop-color="#fcb813"/></linearGradient></defs><title>hcldomino</title><g id="hcldomino"><rect id="rect44" class="cls-1" x="7.83" y="7.83" width="32.34" height="32.34"/><path id="path46" class="cls-2" d="M40.17,7.83V40.17H7.83V7.83H40.17m0-1.33H7.83A1.34,1.34,0,0,0,6.5,7.83h0V40.17A1.34,1.34,0,0,0,7.83,41.5H40.17a1.34,1.34,0,0,0,1.33-1.33V7.83A1.34,1.34,0,0,0,40.17,6.5Z"/><polygon id="polygon48" class="cls-3" points="27.35 20.33 22.8 30.4 17.18 30.43 24.17 14.9 27.35 20.33"/><polygon id="polygon50" class="cls-3" points="36.49 21.27 31.47 32.44 23.57 33.09 32.07 14.23 36.49 21.27"/><polygon id="polygon52" class="cls-4" points="19.95 19.53 16.21 27.84 10.97 27.36 16.4 15.29 19.95 19.53"/></g></svg>