<svg id="66fb5b47-a69d-486d-a2fc-05c07372ce55" data-name="Icons" xmlns="http://www.w3.org/2000/svg" viewBox="0 0 108 72"><title>hellosign</title><path d="M11.44,39.33,4,28.33h15.6ZM8.56,30.77l3,4.35,3.23-4.35Z" style="fill:#00b1e5"/><rect x="6.36" y="40.62" width="10.9" height="2.43" style="fill:#00b1e5"/><path d="M29,40.62V36.67H25.23v3.95H22.94V30.78h2.29v3.84H29V30.78h2.28v9.84Z" style="fill:#414141"/><path d="M34.11,40.62V30.78h6.22v2.1H36.39v1.74H40v2h-3.6v1.92h3.94v2.08Z" style="fill:#414141"/><path d="M43,40.62V30.78H45.3v7.76h3.94v2.08Z" style="fill:#414141"/><path d="M51.23,40.62V30.78h2.28v7.76h3.94v2.08Z" style="fill:#414141"/><path d="M63.76,40.78a4.81,4.81,0,0,1-5-5.07,4.91,4.91,0,0,1,5.09-5.1,4.81,4.81,0,0,1,5,5.09,4.89,4.89,0,0,1-4.7,5.08Zm0-8.12c-1.56,0-2.6,1.28-2.6,3.05s1,3,2.6,3,2.61-1.28,2.61-3-1-3.05-2.61-3.05Z" style="fill:#414141"/><path d="M73.77,40.78a6.58,6.58,0,0,1-3.31-1l.63-2.07a4.88,4.88,0,0,0,2.75.95c.8,0,1.12-.37,1.12-.86s-.26-.86-1.76-1.46c-1.74-.7-2.34-1.71-2.34-2.89,0-1.43,1.17-2.83,3.46-2.83a5.48,5.48,0,0,1,2.76.76l-.58,2a4.36,4.36,0,0,0-2.18-.8c-.83,0-1.17.4-1.17.8,0,.64.5.86,1.73,1.38,1.84.78,2.4,1.66,2.4,2.92C77.27,39.29,76.13,40.78,73.77,40.78Z" style="fill:#414141"/><path d="M79.6,40.62V30.78h2.29v9.84Z" style="fill:#414141"/><path d="M93.07,35.09v4.7a7.1,7.1,0,0,1-3.73,1,5,5,0,0,1-5.17-5.07,5,5,0,0,1,5.28-5.1,6.85,6.85,0,0,1,3.31.85l-1,1.84a4.82,4.82,0,0,0-2.2-.56,2.75,2.75,0,0,0-3,3,2.83,2.83,0,0,0,2.87,3,2.79,2.79,0,0,0,1.45-.27V37H89V35.09Z" style="fill:#414141"/><path d="M103.79,40.81l-5.94-5.33v5.14H95.59v-10l.31-.06,5.85,5.29v-5.1H104v10Z" style="fill:#414141"/></svg>