<svg id="3ecb6852-a352-47be-b637-d3402208b236" data-name="Icons" xmlns="http://www.w3.org/2000/svg" viewBox="0 0 108 72">
  <defs>
    <style>
      .\31 52feb92-585b-4fd2-8969-1f172b0f67d2 {
        fill: #2a3b47;
      }

      .f0d2256e-e8b8-450c-aaaa-48922447b12e {
        fill: #1292ee;
      }
    </style>
  </defs>
  <title>helpscout</title>
  <path class="152feb92-585b-4fd2-8969-1f172b0f67d2" d="M33.31,30.14l0,0v5.07H28.47V30.16l0,0a5.4,5.4,0,0,0-2.12,0l0,0V41.82h0a5.35,5.35,0,0,0,1.05.11,4.86,4.86,0,0,0,1.07-.11h0V37.09h4.81v4.73h0a5.05,5.05,0,0,0,2.12,0h0V30.16l0,0a5.81,5.81,0,0,0-2.12,0Zm7.46,3.28c-2.52,0-4,1.59-4,4.26a5,5,0,0,0,1,3.24,3.81,3.81,0,0,0,3.1,1.25c2.33,0,3.52-1.38,3.67-2.76v0h0a3.8,3.8,0,0,0-1.78-.15h0v0a1.64,1.64,0,0,1-1.81,1.31c-1.38,0-2.06-.76-2.09-2.33h5.86v0a4.59,4.59,0,0,0-.89-3.64,3.91,3.91,0,0,0-2.93-1.13Zm0,1.51a1.84,1.84,0,0,1,1.4.54A2.07,2.07,0,0,1,42.62,37H38.73A1.91,1.91,0,0,1,40.74,34.93ZM46,30.14l0,0V41.82h0a4.79,4.79,0,0,0,1,.11,4.26,4.26,0,0,0,1-.11h0V30.16l0,0a5,5,0,0,0-2,0Zm7.77,3.28a4.56,4.56,0,0,0-2.67,1L51,33.8h0a2.23,2.23,0,0,0-1.4,0h0V45.41h0a4.79,4.79,0,0,0,1,.11,4.2,4.2,0,0,0,1-.11h0V41.53a4.09,4.09,0,0,0,2.26.64c2.29,0,3.67-1.62,3.67-4.36s-1.38-4.39-3.76-4.39Zm-2.2,2.31a3.08,3.08,0,0,1,1.79-.62c1.4,0,2.16,1,2.16,2.74s-.75,2.65-2.18,2.65a3,3,0,0,1-1.77-.6V35.73Zm14.71-.18-1-.36c-1.59-.56-2.54-.9-2.56-1.77a1.35,1.35,0,0,1,.38-1A2.6,2.6,0,0,1,65,31.78a2.43,2.43,0,0,1,1.81.61,1.8,1.8,0,0,1,.42,1.38v0h0a4.85,4.85,0,0,0,2.14,0h0v0a3.23,3.23,0,0,0-.85-2.46A4.66,4.66,0,0,0,65.12,30h-.05c-2.82,0-4.53,1.26-4.55,3.37s1.92,2.8,3.08,3.21l.17.07,1.06.38c1.57.54,2.51.87,2.54,1.7a1.36,1.36,0,0,1-.37,1,2.56,2.56,0,0,1-1.91.57,2.86,2.86,0,0,1-2.12-.7,1.64,1.64,0,0,1-.38-1.3v0h0a5.05,5.05,0,0,0-2.12,0h0v0a3.13,3.13,0,0,0,.84,2.43,5.11,5.11,0,0,0,3.88,1.31c1.69,0,4.47-.45,4.49-3.4,0-2-1.71-2.6-3.33-3.22Zm8.4-.44a1.6,1.6,0,0,1,1.8,1.44v0h0a4.24,4.24,0,0,0,1.85-.11l0,0v0a3.08,3.08,0,0,0-1-2.09,4,4,0,0,0-2.71-.93c-2.66,0-4.12,1.56-4.12,4.38s1.45,4.37,4.08,4.37a4,4,0,0,0,2.76-.95,3.13,3.13,0,0,0,1-2v0h0a3.64,3.64,0,0,0-1.84-.12h0v0a1.66,1.66,0,0,1-1.79,1.36c-1.43,0-2.1-.85-2.1-2.68s.65-2.66,2.08-2.66Zm8.74-1.69c-2.61,0-4.05,1.56-4.05,4.38s1.44,4.37,4.05,4.37,4-1.55,4-4.37S86,33.42,83.43,33.42Zm2.08,4.39c0,1.81-.68,2.68-2.08,2.68s-2.08-.87-2.08-2.68.66-2.7,2.08-2.7S85.51,36,85.51,37.81Zm8.51-4h0v5.81a2.85,2.85,0,0,1-2,.82c-1,0-1.39-.56-1.39-1.88V33.8h0a4.19,4.19,0,0,0-2,0h0V39c0,2,1.07,3.13,2.94,3.13a4,4,0,0,0,2.81-1.25l.2.91h0a2.74,2.74,0,0,0,1.45,0h0v-8h0a4,4,0,0,0-2,0Zm8.29,6.47v0h0c-.8.18-1.26.17-1.53,0a1.19,1.19,0,0,1-.33-1V35.48H102v0a4.17,4.17,0,0,0,0-1.65v0h-1.61v-2.2h0a4.41,4.41,0,0,0-2,0h0v2.2h-1v0a3.83,3.83,0,0,0,0,1.65v0h1l0,3.57a3.24,3.24,0,0,0,.74,2.59,2.57,2.57,0,0,0,1.63.46,7.48,7.48,0,0,0,1.51-.17h0v0a3,3,0,0,0,0-1.64Z"/>
  <path class="f0d2256e-e8b8-450c-aaaa-48922447b12e" d="M8.22,37.6l5.52-5.52a3.91,3.91,0,0,0,0-5.51L8.26,32.08a3.91,3.91,0,0,0,0,5.52Zm13.36-3.22-5.52,5.51a3.89,3.89,0,0,0-1.15,2.77A3.94,3.94,0,0,0,16,45.41l5.51-5.52a3.9,3.9,0,0,0,0-5.51Zm0-2.28a3.91,3.91,0,0,0,0-5.52L8.26,39.89a3.92,3.92,0,0,0,0,5.53Z"/>
</svg>
