<svg id="Layer_1" data-name="Layer 1" xmlns="http://www.w3.org/2000/svg" viewBox="0 0 48 48"><defs><style>.cls-1{fill:#72c7e6;}.cls-2{fill:#fff;}.cls-3{fill:#002c77;}</style></defs><title>IBM Cloudant</title><path class="cls-1" d="M44.56,24.45c0,10.65-8.9,19.28-19.88,19.28S4.81,35.1,4.81,24.45,13.71,5.16,24.68,5.16,44.56,13.8,44.56,24.45"/><path class="cls-2" d="M11.89,22.48s-.81-4,7.3-4.91c.34-5.34,19.18-5.46,14.48,1.34,3.48,1.21,2.92,3.63,2.92,3.63a3.54,3.54,0,0,1-1.07,2.62c-1.21,1.25-2.51,2-6.55,2A14.6,14.6,0,0,1,22.34,26c-3.65.76-7.61,0-8.81-.91-2-1.53-1.64-2.64-1.64-2.64"/><path class="cls-3" d="M11.89,22.48v6.19s.41,5.6,10.59,3.4c4.05,3,13.39,1.07,14.11-2.45V22.54c.06,1.73-8,6.43-14.05,2.38-9,2-10.65-2.44-10.65-2.44"/></svg>