<svg id="74a41a29-50f3-46dd-b980-f2f9ec69b683"   xmlns="http://www.w3.org/2000/svg" viewBox="0 0 48 48">
  <defs>
    <style>
      .eda291b4-ee5c-464e-8a66-8fe5a5377827 {
        fill: #1d364d;
      }
    </style>
  </defs>
  <title>ibm cloud sql query</title>
  <g id="367e2f16-909c-41e1-b5fe-12fbfae0a908" data-name="TTT4tC">
    <g>
      <path class="eda291b4-ee5c-464e-8a66-8fe5a5377827" d="M11.92,36.79a23,23,0,0,1-3.74-.46A6.76,6.76,0,0,1,5.36,25a2.08,2.08,0,0,0,.7-1.67,8.16,8.16,0,0,1,7-8.48,1.55,1.55,0,0,0,.83-.56c5.34-6.8,14.84-6.67,20,.27A2.61,2.61,0,0,0,35,15.3a8.25,8.25,0,0,1,4.41,4.07,1.37,1.37,0,0,1-.46,2c-.72.38-1.44.12-1.91-.79a5.54,5.54,0,0,0-3.92-3.05,1.61,1.61,0,0,1-.88-.63c-4.22-6.56-12.66-6.58-16.81,0a1.44,1.44,0,0,1-1.06.55,5.58,5.58,0,0,0-5.66,5.7,8.61,8.61,0,0,0,0,.88,2.54,2.54,0,0,1-1.26,2.79,3.68,3.68,0,0,0-1.27,4.35A4.12,4.12,0,0,0,9.92,34c1.37.06,2.73,0,4.1,0,1,0,1.55.5,1.55,1.34s-.54,1.29-1.49,1.32c-.71,0-1.43,0-2.14,0Z"/>
      <path class="eda291b4-ee5c-464e-8a66-8fe5a5377827" d="M24.88,32.26H27.2v1.51c-.88,0-1.75.06-2.6,0A1.63,1.63,0,0,1,23,31.92a1,1,0,0,0-.84-1.17,3.11,3.11,0,0,1-1.89-2.1,9.16,9.16,0,0,1,0-5.83,3.42,3.42,0,0,1,3.71-2.51,3.39,3.39,0,0,1,3.57,2.57,9.45,9.45,0,0,1,0,5.74,3.12,3.12,0,0,1-1.93,2.18C24.77,31.06,24.64,31.47,24.88,32.26ZM22.1,25.65h.08v1.76a2.34,2.34,0,0,0,0,.38c.19,1.05.76,1.58,1.67,1.57a1.51,1.51,0,0,0,1.6-1.51,33.7,33.7,0,0,0,0-4.38A1.55,1.55,0,0,0,23.84,22a1.61,1.61,0,0,0-1.61,1.53C22.13,24.22,22.14,24.94,22.1,25.65Z"/>
      <path class="eda291b4-ee5c-464e-8a66-8fe5a5377827" d="M18.24,21.64l-1,1.11a28.36,28.36,0,0,0-2.82-.65,1.08,1.08,0,0,0-1.26,1.07,1.07,1.07,0,0,0,1,1.31c.54.11,1.07.26,1.62.33A2.73,2.73,0,0,1,18.25,27,3.19,3.19,0,0,1,17,30.39a5.23,5.23,0,0,1-6.45-.94l1.08-1.14a17,17,0,0,0,2.63,1A1.44,1.44,0,0,0,16.16,28a1,1,0,0,0-.83-1.24c-.53-.13-1.07-.24-1.61-.34-1.79-.3-2.73-1.25-2.77-2.82a2.91,2.91,0,0,1,2.54-3.18A5,5,0,0,1,18.24,21.64Z"/>
      <path class="eda291b4-ee5c-464e-8a66-8fe5a5377827" d="M29.47,20.51h2.09V29.1h4.55v1.71H29.47Z"/>
      <path class="eda291b4-ee5c-464e-8a66-8fe5a5377827" d="M44.41,30.13a6.9,6.9,0,0,1-6.62,6.53,1.36,1.36,0,0,1-1.54-1.27c0-.79.48-1.3,1.4-1.39A4.15,4.15,0,0,0,41.71,30c.09-1,.63-1.49,1.48-1.41A1.39,1.39,0,0,1,44.41,30.13Z"/>
      <path class="eda291b4-ee5c-464e-8a66-8fe5a5377827" d="M44.35,24.08l-1.68.65,1.11,1.61-1,.69-1.14-1.54L40.55,27l-1-.64,1.11-1.62L39,24.06l.32-1.1,1.72.54.08-1.75h1.12v1.8L44,22.93Z"/>
    </g>
  </g>
</svg>
