<?xml version="1.0" encoding="utf-8"?>
<!-- Generator: Adobe Illustrator 22.1.0, SVG Export Plug-In . SVG Version: 6.00 Build 0)  -->
<svg version="1.1" id="Layer_1" xmlns="http://www.w3.org/2000/svg" xmlns:xlink="http://www.w3.org/1999/xlink" x="0px" y="0px"
	 viewBox="0 0 48 48" enable-background="new 0 0 48 48" xml:space="preserve">
<polygon fill="#AC78FE" points="28.78,38.58 28.76,38.6 28.76,38.59 28.77,38.58 28.76,38.57 28.76,38.56 28.74,38.57 24.65,36.15 
	20.54,38.58 20.97,38.83 20.51,38.56 20.49,43.4 20.52,43.41 20.52,43.42 24.65,45.86 28.79,43.42 "/>
<polygon fill="#AC78FE" points="19.16,22.14 19.13,22.16 19.13,22.15 19.14,22.14 19.13,22.14 19.13,22.12 19.12,22.13 15.02,19.71 
	10.92,22.14 11.34,22.39 10.88,22.12 10.87,26.96 10.89,26.97 10.89,26.98 15.02,29.42 19.17,26.98 "/>
<polygon fill="#8B51FC" points="14.95,29.3 14.95,24.57 19.08,22.19 19.1,26.92 "/>
<title>Artboard 1</title>
<g>
	<path fill="#1F9F9A" d="M17.08,4.47c0,0,1.33,5.26,3.55,6.33c1.29,0.64,2.81,0.59,4.05-0.15c2.44,0.37,4.94-0.17,7-1.53
		c2.3-1.53,2.95-6.62,2.95-6.62c-0.5,0.48-1.14,0.8-1.83,0.91c-1.33,0.25-3.35,0.1-4.71,0.7c-1.5,0.61-2.69,1.82-3.28,3.33
		c0,0-0.28-1.61-0.61-2.76c-0.26-0.85-0.59-1.67-1-2.46c-0.27-0.13-0.58-0.13-0.85,0c-0.57,0.18-0.51,0.63-0.51,0.63s3,2.68,2.46,5
		c-0.5-1.01-1.44-1.75-2.54-2c-1.13-0.39-1.92,0.15-2.9-0.37C18.24,5.18,17.65,4.84,17.08,4.47z"/>
</g>
<g>
	<polygon fill="#8B51FC" points="29.53,37.67 29.53,32.83 33.67,30.39 33.69,35.24 	"/>
	<polygon fill="#AC78FE" points="25.41,35.24 25.42,30.39 29.53,32.83 29.53,37.67 	"/>
	<polygon fill="#8B51FC" points="19.9,37.68 19.9,32.84 24.02,30.41 24.03,35.25 	"/>
	<polygon fill="#AC78FE" points="15.76,35.25 15.77,30.41 19.9,32.84 19.9,37.68 	"/>
	<polygon fill="#8B51FC" points="24.7,29.3 24.7,24.57 28.83,22.19 28.85,26.92 	"/>
	<polygon fill="#8B51FC" points="24.7,45.8 24.7,41.07 28.83,38.69 28.85,43.42 	"/>
	<polygon fill="#AC78FE" points="20.58,26.92 20.58,22.19 24.7,24.57 24.7,29.3 	"/>
	<polygon fill="#AC78FE" points="19.9,20.94 19.9,16.09 24.02,13.66 24.03,18.5 	"/>
	<polygon fill="#AC78FE" points="15.76,18.5 15.77,13.66 19.9,16.09 19.9,20.94 	"/>
	<polygon fill="#AC78FE" points="29.57,20.95 29.57,16.11 33.71,13.67 33.72,18.52 	"/>
	<polygon fill="#AC78FE" points="25.43,18.52 25.44,13.67 29.57,16.11 29.57,20.95 	"/>
	<g>
		<g>
			<defs>
				<polygon id="SVGID_1_" points="25.43,30.39 29.53,27.96 33.65,30.39 29.53,32.83 				"/>
			</defs>
			<use xlink:href="#SVGID_1_"  overflow="visible" fill="#AC78FE"/>
			<clipPath id="SVGID_2_">
				<use xlink:href="#SVGID_1_"  overflow="visible"/>
			</clipPath>
			<polygon clip-path="url(#SVGID_2_)" fill="#AC78FE" points="33.66,30.39 33.65,30.38 33.65,30.37 33.63,30.38 29.53,27.96 
				25.43,30.39 25.86,30.64 25.4,30.37 25.39,35.21 29.53,37.64 33.66,35.21 33.65,30.4 			"/>
		</g>
		<g>
			<defs>
				<polygon id="SVGID_3_" points="15.78,30.41 19.89,27.97 24.01,30.41 19.9,32.84 				"/>
			</defs>
			<use xlink:href="#SVGID_3_"  overflow="visible" fill="#AC78FE"/>
			<clipPath id="SVGID_4_">
				<use xlink:href="#SVGID_3_"  overflow="visible"/>
			</clipPath>
			<polygon clip-path="url(#SVGID_4_)" fill="#AC78FE" points="24.02,30.41 24,30.4 23.99,30.38 23.98,30.39 19.89,27.97 
				15.79,30.41 15.74,30.38 15.73,35.22 19.9,37.65 24.02,35.22 24,30.42 			"/>
		</g>
		<g>
			<defs>
				<polygon id="SVGID_5_" points="20.6,22.19 24.69,19.81 28.83,22.19 24.7,24.57 				"/>
			</defs>
			<use xlink:href="#SVGID_5_"  overflow="visible" fill="#AC78FE"/>
			<clipPath id="SVGID_6_">
				<use xlink:href="#SVGID_5_"  overflow="visible"/>
			</clipPath>
		</g>
		<g>
			<defs>
				<polygon id="SVGID_7_" points="15.78,13.66 19.89,11.23 24.01,13.66 19.9,16.09 				"/>
			</defs>
			<use xlink:href="#SVGID_7_"  overflow="visible" fill="#AC78FE"/>
			<clipPath id="SVGID_8_">
				<use xlink:href="#SVGID_7_"  overflow="visible"/>
			</clipPath>
			<polygon clip-path="url(#SVGID_8_)" fill="#AC78FE" points="24.02,13.66 24,13.65 23.99,13.63 23.98,13.64 19.89,11.23 
				15.79,13.66 15.74,13.63 15.73,18.48 19.9,20.91 24.02,18.48 24,13.67 			"/>
		</g>
		<polygon fill="#AC78FE" points="38.24,22.03 38.23,22.04 38.23,22.04 38.23,22.03 38.23,22.02 38.22,22 38.2,22.01 34.1,19.6 
			30.02,22.03 29.97,22 29.96,26.84 29.98,26.86 29.98,26.87 34.11,29.3 38.27,26.87 		"/>
		<polygon fill="#AC78FE" points="33.68,13.67 33.67,13.66 33.67,13.65 33.66,13.66 29.57,11.24 25.47,13.67 25.9,13.93 
			25.42,13.65 25.41,18.49 29.57,20.92 33.68,18.49 33.68,13.68 		"/>
	</g>
	<polygon fill="#8B51FC" points="34.14,29.3 34.14,24.57 38.27,22.19 38.29,26.92 	"/>
	<polygon fill="#8B51FC" points="29.64,20.86 29.64,16.13 33.77,13.75 33.79,18.48 	"/>
	<polygon fill="#8B51FC" points="19.89,20.92 19.89,16.19 24.02,13.82 24.04,18.55 	"/>
</g>
</svg>
