<svg xmlns="http://www.w3.org/2000/svg" viewBox="0 0 48 48">
  <title>ibminformix</title>
  <g id="Salesforce_Pardot" data-name="Salesforce Pardot">
    <g>
      <path d="M6,23.1H4.52V15.89H6Z" style="fill: #00a43e"/>
      <path d="M11.62,18.07a1.77,1.77,0,0,1,.52,1.44V23.1H10.71V19.86a1.41,1.41,0,0,0-.11-.65.78.78,0,0,0-.78-.41,1,1,0,0,0-1,.6,2.07,2.07,0,0,0-.14.81V23.1H7.33V17.77H8.68v.78a2.66,2.66,0,0,1,.5-.59,1.81,1.81,0,0,1,1.09-.32A2,2,0,0,1,11.62,18.07Z" style="fill: #00a43e"/>
      <path d="M15.65,15.82l.29,0V17l-.39,0a.42.42,0,0,0-.38.12.43.43,0,0,0-.11.28v.45H16v1h-.92v4.3H13.68V18.8h-.79v-1h.77v-.34A1.77,1.77,0,0,1,14,16.29c.2-.32.69-.48,1.46-.48Z" style="fill: #00a43e"/>
      <path d="M21.23,22.45a2.49,2.49,0,0,1-2.05.83,2.49,2.49,0,0,1-2.05-.83,3.3,3.3,0,0,1,0-4,2.47,2.47,0,0,1,2.05-.85,2.47,2.47,0,0,1,2.05.85,3.3,3.3,0,0,1,0,4Zm-1.12-.77a2,2,0,0,0,.33-1.24,2,2,0,0,0-.33-1.23,1.11,1.11,0,0,0-.94-.44,1.12,1.12,0,0,0-.94.44,2,2,0,0,0-.33,1.23,2,2,0,0,0,.33,1.24,1.11,1.11,0,0,0,.94.43A1.1,1.1,0,0,0,20.11,21.68Z" style="fill: #00a43e"/>
      <path d="M25.87,17.64H26v1.43l-.24,0h-.16a1.16,1.16,0,0,0-1.13.55,2.09,2.09,0,0,0-.17.95V23.1h-1.4V17.77h1.33v.93a3,3,0,0,1,.56-.73,1.53,1.53,0,0,1,1-.33Z" style="fill: #00a43e"/>
      <path d="M33.46,17.78a1.65,1.65,0,0,1,.62.48,1.46,1.46,0,0,1,.31.69,5,5,0,0,1,0,.79V23.1H33V19.7a1.09,1.09,0,0,0-.1-.5.7.7,0,0,0-.69-.37.79.79,0,0,0-.79.48,1.44,1.44,0,0,0-.12.61V23.1H29.9V19.92a1.73,1.73,0,0,0-.1-.69.69.69,0,0,0-.69-.38.83.83,0,0,0-.8.38,1.46,1.46,0,0,0-.11.66V23.1H26.78V17.77h1.36v.78a2.21,2.21,0,0,1,.49-.59,1.94,1.94,0,0,1,2,0,1.6,1.6,0,0,1,.46.64,1.67,1.67,0,0,1,.68-.69,2.05,2.05,0,0,1,1-.22A1.87,1.87,0,0,1,33.46,17.78Z" style="fill: #00a43e"/>
      <path d="M37.15,17.13H35.74V15.84h1.41Zm-1.41.64h1.41V23.1H35.74Z" style="fill: #00a43e"/>
      <path d="M38,23.1l1.82-2.7-1.74-2.63h1.71l.89,1.55.87-1.55h1.66l-1.75,2.6,1.82,2.73H41.51l-.91-1.6-.93,1.6Z" style="fill: #00a43e"/>
      <path d="M5,30.4a1.48,1.48,0,0,0,.51,1,1.71,1.71,0,0,0,1.06.28,2,2,0,0,0,.58-.08,1.18,1.18,0,0,0,.4-.22A1,1,0,0,0,7.76,31a.9.9,0,0,0,.08-.36.7.7,0,0,0-.25-.58A2,2,0,0,0,7,29.8a8.14,8.14,0,0,0-.81-.18,4,4,0,0,1-.81-.23A1.56,1.56,0,0,1,4.72,29a1.16,1.16,0,0,1-.25-.8A1.37,1.37,0,0,1,5,27.07a2,2,0,0,1,1.37-.42A2.35,2.35,0,0,1,7.7,27a1.7,1.7,0,0,1,.64,1.27H7.73a1.13,1.13,0,0,0-.47-.85,1.67,1.67,0,0,0-1-.25,1.36,1.36,0,0,0-.88.25.79.79,0,0,0-.3.65.61.61,0,0,0,.25.54A1.89,1.89,0,0,0,6,29c.25.07.52.14.81.2a4.8,4.8,0,0,1,.81.26,2,2,0,0,1,.63.45,1.21,1.21,0,0,1,.25.8,1.3,1.3,0,0,1-.17.66,1.34,1.34,0,0,1-.44.48,2,2,0,0,1-.68.29,3.25,3.25,0,0,1-.85.1,2.33,2.33,0,0,1-.83-.14,1.85,1.85,0,0,1-.62-.38,1.75,1.75,0,0,1-.39-.57,1.8,1.8,0,0,1-.16-.7Z"/>
      <path d="M12.3,32.19a2.92,2.92,0,0,1-1-.18,2.23,2.23,0,0,1-.77-.52,2.39,2.39,0,0,1-.52-.86,3.45,3.45,0,0,1-.2-1.21A3.4,3.4,0,0,1,10,28.34a2.53,2.53,0,0,1,.45-.88,2.2,2.2,0,0,1,.76-.59,2.41,2.41,0,0,1,1.07-.22,2.38,2.38,0,0,1,1.07.22,2.15,2.15,0,0,1,.77.59,2.4,2.4,0,0,1,.45.87,3.83,3.83,0,0,1,.14,1.09,3.31,3.31,0,0,1-.17,1.13,2.6,2.6,0,0,1-.49.88,2.16,2.16,0,0,1-.77.56A2.51,2.51,0,0,1,12.3,32.19Zm1.78-2.77a3.46,3.46,0,0,0-.1-.87,2,2,0,0,0-.31-.71,1.47,1.47,0,0,0-.55-.47,1.72,1.72,0,0,0-.82-.17,1.74,1.74,0,0,0-.82.18,1.65,1.65,0,0,0-.55.5,2.3,2.3,0,0,0-.32.71,3.77,3.77,0,0,0-.1.83,3.26,3.26,0,0,0,.12.9A2.08,2.08,0,0,0,11,31a1.48,1.48,0,0,0,.56.46,1.71,1.71,0,0,0,.77.16,1.63,1.63,0,0,0,.82-.19,1.55,1.55,0,0,0,.55-.5,2.16,2.16,0,0,0,.31-.71A3.18,3.18,0,0,0,14.08,29.42Z"/>
      <path d="M15.75,27.3v-.51h.79V26a1.74,1.74,0,0,1,.25-1,1,1,0,0,1,.86-.36h.27l.24,0v.56a1.3,1.3,0,0,0-.37-.05.74.74,0,0,0-.36.08.53.53,0,0,0-.19.23,1.07,1.07,0,0,0-.08.32c0,.12,0,.24,0,.36v.65h1v.51h-1v4.75h-.6V27.3Z"/>
      <path d="M21.73,32.07a1.67,1.67,0,0,0-.29.07,1.7,1.7,0,0,1-.41,0,1,1,0,0,1-.69-.23,1.1,1.1,0,0,1-.24-.82V27.3h-.74v-.51h.74V25.33h.61v1.46h1v.51h-1v3.6a3.22,3.22,0,0,0,0,.33.7.7,0,0,0,.06.24.3.3,0,0,0,.16.13.8.8,0,0,0,.3,0l.24,0,.25-.05Z"/>
      <path d="M27.32,31.23l1.38-4.44h.61l-1.7,5.26H27l-1.15-4.42h0l-1.16,4.42H23.9l-1.61-5.26h.61l1.36,4.49,1.22-4.49h.68Z"/>
      <path d="M32.58,29l.41-.06a1.76,1.76,0,0,0,.4-.11.32.32,0,0,0,.18-.24,1.15,1.15,0,0,0,0-.31,1,1,0,0,0-.3-.76,1.4,1.4,0,0,0-1-.3,2.67,2.67,0,0,0-.58.05,1.19,1.19,0,0,0-.46.2,1,1,0,0,0-.32.36,1.32,1.32,0,0,0-.17.57h-.62a1.88,1.88,0,0,1,.21-.79,1.64,1.64,0,0,1,.47-.54,2.16,2.16,0,0,1,.67-.31,3.59,3.59,0,0,1,.81-.09,3.67,3.67,0,0,1,.75.08,1.66,1.66,0,0,1,.6.28,1.19,1.19,0,0,1,.41.5,1.79,1.79,0,0,1,.15.77v2.86q0,.36.12.45c.09.07.26.05.52,0V32l-.21.06a1.26,1.26,0,0,1-.27,0,1.12,1.12,0,0,1-.27,0,.52.52,0,0,1-.25-.1.49.49,0,0,1-.14-.18.62.62,0,0,1-.08-.24,2.11,2.11,0,0,1,0-.26,2.54,2.54,0,0,1-2,.87A2.39,2.39,0,0,1,31,32.1a1.54,1.54,0,0,1-.57-.29,1.34,1.34,0,0,1-.38-.47,1.37,1.37,0,0,1-.14-.66c0-.9.61-1.42,1.83-1.59Zm1,.31a3.23,3.23,0,0,1-.78.21l-.79.08A2.13,2.13,0,0,0,31,29.9a.88.88,0,0,0-.4.8.93.93,0,0,0,.1.42,1,1,0,0,0,.25.29,1,1,0,0,0,.37.17,1.52,1.52,0,0,0,.42.06,2.82,2.82,0,0,0,.71-.09,1.84,1.84,0,0,0,.62-.28,1.43,1.43,0,0,0,.43-.48,1.45,1.45,0,0,0,.16-.68Z"/>
      <path d="M36.55,32.05h-.61V26.79h.61v1h0a1.8,1.8,0,0,1,.65-.87,2,2,0,0,1,1.06-.25v.66a1.79,1.79,0,0,0-.85.16,1.42,1.42,0,0,0-.53.47,2,2,0,0,0-.28.69,4.61,4.61,0,0,0-.07.84Z"/>
      <path d="M39.57,29.56a2.74,2.74,0,0,0,.12.81A1.86,1.86,0,0,0,40,31a1.51,1.51,0,0,0,.55.44,1.71,1.71,0,0,0,.77.17,1.65,1.65,0,0,0,1-.31,1.47,1.47,0,0,0,.57-.9h.68a3.12,3.12,0,0,1-.29.7,2.26,2.26,0,0,1-.46.56,2,2,0,0,1-.65.37,2.84,2.84,0,0,1-.87.13A2.62,2.62,0,0,1,40.25,32a2.19,2.19,0,0,1-.75-.59,2.45,2.45,0,0,1-.43-.87,3.81,3.81,0,0,1-.15-1.08,3.51,3.51,0,0,1,.17-1.09,2.58,2.58,0,0,1,.48-.88,2.17,2.17,0,0,1,.75-.6,2.25,2.25,0,0,1,1-.22,2.1,2.1,0,0,1,1.7.74,3.23,3.23,0,0,1,.61,2.17ZM43,29.05a2.41,2.41,0,0,0-.1-.72,1.6,1.6,0,0,0-.32-.59,1.48,1.48,0,0,0-.52-.4,1.81,1.81,0,0,0-.72-.14,1.66,1.66,0,0,0-.72.15,1.72,1.72,0,0,0-.52.4,1.85,1.85,0,0,0-.35.59,2.85,2.85,0,0,0-.18.71Z"/>
    </g>
  </g>
</svg>
