<svg xmlns="http://www.w3.org/2000/svg" xmlns:xlink="http://www.w3.org/1999/xlink" viewBox="0 0 48 48">
  <defs>
    <linearGradient id="linear-gradient" x1="23.08" y1="5.4" x2="24.42" y2="43.07" gradientUnits="userSpaceOnUse">
      <stop offset="0" stop-color="#b2a08f"/>
      <stop offset="1" stop-color="#ddd5c2"/>
    </linearGradient>
    <filter id="luminosity-noclip" x="6.53" y="13.01" width="34.44" height="22.49" filterUnits="userSpaceOnUse" color-interpolation-filters="sRGB">
      <feFlood flood-color="#fff" result="bg"/>
      <feBlend in="SourceGraphic" in2="bg"/>
    </filter>
    <mask id="mask" x="6.53" y="13.01" width="34.44" height="22.49" maskUnits="userSpaceOnUse">
      <g style="filter: url(#luminosity-noclip)">
        <path d="M21.49,26.6a4.81,4.81,0,0,1-.59,1.78A5.88,5.88,0,0,1,18.43,30" style="fill: #231f20"/>
        <path d="M23,26.32a3,3,0,0,1-.23,2.09,11.54,11.54,0,0,1-2.59,2.34" style="fill: #231f20"/>
        <path d="M25.85,26.6a4.55,4.55,0,0,0,.56,1.71,5.55,5.55,0,0,0,2.34,1.56" style="fill: #231f20"/>
        <path d="M24.21,26.38a3.51,3.51,0,0,0,.28,2.12,11.47,11.47,0,0,0,2.58,2.43" style="fill: #231f20"/>
      </g>
    </mask>
    <radialGradient id="radial-gradient" cx="23.99" cy="33.57" r="7.08" gradientTransform="translate(0 -11.39) scale(1 1.34)" gradientUnits="userSpaceOnUse">
      <stop offset="0" stop-color="#fff"/>
      <stop offset="1" stop-color="#fff" stop-opacity="0.5"/>
    </radialGradient>
  </defs>
  <title>ieyasu</title>
  <g id="Layer_3" data-name="Layer 3">
    <rect x="3.67" y="4.17" width="40.17" height="40.17" rx="3.33" ry="3.33" style="fill: url(#linear-gradient)"/>
    <g style="mask: url(#mask)">
      <g>
        <path d="M40.66,23.63l-1.85-1a.59.59,0,0,1-.3-.43l-.3-1.95a.55.55,0,0,0-.39-.46l-1.55-.52a.62.62,0,0,1-.37-.37l-.54-1.7a.56.56,0,0,0-.55-.4H33.27a.57.57,0,0,1-.5-.31l-.7-1.29a.57.57,0,0,0-.58-.3l-2.2.27a.6.6,0,0,1-.53-.22l-1-1.28a.58.58,0,0,0-.71-.16L26,14.09a.56.56,0,0,1-.56,0l-1.52-1a.59.59,0,0,0-.66,0L22.1,14a.56.56,0,0,1-.53.09l-1.71-.59a.58.58,0,0,0-.67.22l-.8,1.16a.59.59,0,0,1-.47.25l-2.1,0a.57.57,0,0,0-.5.31l-.7,1.35a.59.59,0,0,1-.48.31l-1.89.13a.57.57,0,0,0-.52.44l-.41,1.64a.59.59,0,0,1-.51.44l-1.6.13a.58.58,0,0,0-.53.6l.07,2a.58.58,0,0,1-.49.59L7,23.22a.57.57,0,0,0-.49.57v1.63A.59.59,0,0,0,6.9,26L17,29.87a7.48,7.48,0,0,1,13.33-.18c4-1.5,8.81-3.26,10.21-3.74A.58.58,0,0,0,41,25.4V24.14A.58.58,0,0,0,40.66,23.63Z" style="fill: #fff;opacity: 0.6"/>
        <path d="M23.75,25.69a7.42,7.42,0,0,1,4.48,1.49,5.52,5.52,0,1,0-9.16.17A7.38,7.38,0,0,1,23.75,25.69Z" style="fill: #d6a878"/>
        <path d="M23.75,25.69A7.46,7.46,0,0,0,17,29.87L22.39,32c0,1.12-1.47.87-1.43,1.59,0,.9.94,1.92,2.63,1.92a2.32,2.32,0,0,0,2.52-1.82c-.06-.77-1.29-.58-1.33-1.66.69-.3,2.33-1.09,5.59-2.32A7.46,7.46,0,0,0,23.75,25.69Z" style="opacity: 0.8;fill: url(#radial-gradient)"/>
      </g>
    </g>
  </g>
</svg>
