<svg id="4830e2e9-bb77-49a6-ac08-13e0b5cc97bc" data-name="Icons" xmlns="http://www.w3.org/2000/svg" viewBox="0 0 108 72">
  <defs>
    <style>
      .\33 d055f00-4b22-4aca-941d-231537ab33bb {
        fill: #ff5621;
      }
    </style>
  </defs>
  <title>insightly</title>
  <path class="3d055f00-4b22-4aca-941d-231537ab33bb" d="M96.05,39.56c0-.63-.36-1-.69-1-.78,0-.75,1.34-2.44,2.7a36.34,36.34,0,0,1-.39-4.88,52,52,0,0,1,.67-6,1.06,1.06,0,0,0-1-1.14h-.07a4,4,0,0,0-2.89,2c-.48.91-.78,4.83-.78,7.07,0,.94-.21,2-1,2s-1.18-.91-1.18-3.83a50.54,50.54,0,0,1,.69-6,1.08,1.08,0,0,0-1-1.14h-.07a4.11,4.11,0,0,0-2.89,2c-.42.91-.72,4.83-.72,7.07a9.67,9.67,0,0,0,.08,1.2.19.19,0,0,0,0,.08.68.68,0,0,1-.72.68c-.69,0-1-.91-1-3.83S82.39,23,82.39,22a1.09,1.09,0,0,0-1-1.13h0a4.08,4.08,0,0,0-2.89,1.93C78,23.74,76.64,36,76.64,38.28c0,.14,0,.27,0,.41a1.72,1.72,0,0,1-1.84,1.55c-.76,0-1.36-.91-1.36-3.83,0-1.2.24-3.41.51-5.63a4.62,4.62,0,0,0,2.53-.9,4.64,4.64,0,0,0,.75-2.25c0-.28-.09-.62-.42-.62a14.73,14.73,0,0,0-2.47.79c.28-1.87.49-3.38.49-3.74a1.08,1.08,0,0,0-1-1.14h-.07a4.18,4.18,0,0,0-2.89,1.93,25.51,25.51,0,0,0-.66,4.26c-1.08.43-1.87.85-1.87,1.16,0,.69.79.83,1.66.86-.33,3-.54,6.07-.54,7.18v.14h0c0,1,0,1.78-.63,1.78s-1.06-.65-1.06-2.67c0-1.82.33-3.24.33-4.71,0-1.93-.51-3.61-2.83-3.61a4.61,4.61,0,0,0-3.52,2c.42-4,1.18-8.66,1.18-9.26a1.06,1.06,0,0,0-1-1.13h0A4.1,4.1,0,0,0,59,22.81c-.47.91-1.5,12.58-1.56,17.1,0,.91-.49,1.08-1,1.38a34.78,34.78,0,0,1-.4-4.88,47.89,47.89,0,0,1,.73-6,1.1,1.1,0,0,0-1.05-1.14h0a3.87,3.87,0,0,0-2.16,1.05c-.28-.54-.88-1.05-2.32-1.05-2.29,0-5.75,2-5.75,7.87a9.13,9.13,0,0,0,.35,2.49c-.2.34-.42.63-.83.63-.69,0-1-.91-1-3.83a50.54,50.54,0,0,1,.69-6,1.08,1.08,0,0,0-1-1.14h-.07a4.07,4.07,0,0,0-2.86,2c-.45.91-.75,4.83-.75,7.1,0,2.61,1,4.71,3.79,4.71a3.56,3.56,0,0,0,3-1.51A3.49,3.49,0,0,0,49.64,43a4.45,4.45,0,0,0,3-1.16c.09.37.21.79.27,1.19C49.46,44.27,46,45.12,46,47.94c0,1.56,1.45,3.29,4.7,3.29,5.38,0,6.29-3.41,6.29-5.2a21.67,21.67,0,0,0-.3-2.78,10.39,10.39,0,0,0,1-.65.57.57,0,0,0,.55.42c2.83,0,3.37-1.22,3.37-2,0-1,0-1.6,0-2.11,0-2.72.24-6.87,2.08-6.87.54,0,.69.51.69,1.28,0,1.36-.51,3.52-.51,5,0,2.61,1,4.71,3.76,4.71a3.58,3.58,0,0,0,2.87-1.35A3.78,3.78,0,0,0,73.6,43a4.23,4.23,0,0,0,3.54-2,3.3,3.3,0,0,0,3.29,2,3.49,3.49,0,0,0,2.78-1.3A3.35,3.35,0,0,0,86.09,43a3.48,3.48,0,0,0,3-1.53l.36,1.56c-3.46,1.22-6.92,2.07-6.92,4.89,0,1.56,1.45,3.29,4.69,3.29,5.39,0,6.3-3.41,6.3-5.2a20,20,0,0,0-.31-2.78c2.44-1.42,2.89-2.9,2.89-3.69ZM52.61,36.82a4.45,4.45,0,0,1-.64,2,2.08,2.08,0,0,1-1.54,1c-.47.05-1.73.08-1.73-3.43a4.73,4.73,0,0,1,1.87-4h0c2.77-1.75,2.17,3.18,2,4.47Zm-1.34,12a1.5,1.5,0,0,1-1.59-1.4.66.66,0,0,1,0-.14c0-1.08,1.9-1.87,3.58-2.5a9.89,9.89,0,0,1,.12,1.54A2.36,2.36,0,0,1,51.27,48.82Zm36.48,0a1.51,1.51,0,0,1-1.6-1.4v-.14c0-1.08,1.9-1.87,3.58-2.5a9.89,9.89,0,0,1,.12,1.54A2.36,2.36,0,0,1,87.75,48.82ZM43.14,28.44c-.87,0-1.74-.33-1.74-2.31a2.79,2.79,0,0,1,2.82-2.58c1,0,1.8.42,1.8,1.53A3.15,3.15,0,0,1,43.14,28.44Zm-30-2.31a2.79,2.79,0,0,1,2.82-2.58c1,0,1.8.42,1.8,1.53a3.15,3.15,0,0,1-2.88,3.36C14,28.44,13.1,28.11,13.1,26.13ZM39.34,39.5c0,2.52-2.08,3.77-5.11,3.77a6.48,6.48,0,0,1-3.81-1.18,3.58,3.58,0,0,1-2.48.93c-2.4,0-3.73-1.56-3.73-4.11,0-1.45.46-3.4.46-4.68,0-.74-.18-1.25-.7-1.25-1.2,0-2.25,3.52-2.25,8.06,0,.76-.54,2-3.37,2-.4,0-.58-.28-.65-.76a3.51,3.51,0,0,1-2.24.76c-2.82,0-3.79-2.1-3.79-4.71,0-2.27.3-6.19.75-7.1a4.14,4.14,0,0,1,2.86-2,1.08,1.08,0,0,1,1.09,1.07v.07a50.82,50.82,0,0,0-.69,6c0,2.92.33,3.83,1,3.83a1,1,0,0,0,1.13-.83c.08-.74.15-1.54.16-2.34,0-4.65.12-5.16.3-5.81.27-1.34,2.44-2.25,3.4-2.25a.9.9,0,0,1,1,.77.76.76,0,0,1,0,.26c0,.59-.42,1.41-.6,2.58.69-1.48,2.5-3.35,4.15-3.35,1.86,0,2.34,1.33,2.34,3s-.48,3.57-.48,5.53c0,1.71.34,2.34.95,2.42a2.65,2.65,0,0,1-.07-.48,3.36,3.36,0,0,1,2.59-3c.56,0,.73.47.79,1.24,0,.12,0,.25,0,.38.17,1.16.76,2.61,2.1,2.61a1.12,1.12,0,0,0,1.29-1,1.48,1.48,0,0,0,0-.21A2.52,2.52,0,0,0,35,38.23a32,32,0,0,0-3.3-2.74,3.82,3.82,0,0,1-1.63-3A3.31,3.31,0,0,1,30.36,31c.64-1.33,2.24-2,4.34-2a6,6,0,0,1,1.93.32A4.7,4.7,0,0,1,39,31a2.24,2.24,0,0,1,.44,1.27A3,3,0,0,1,37.07,35c-.51,0-.66-.43-.71-1.14a5.32,5.32,0,0,0-.12-.8c-.22-.95-.75-1.93-1.8-1.94a1,1,0,0,0-1.17.86,1.21,1.21,0,0,0,0,.19,2,2,0,0,0,.39,1.05,6.14,6.14,0,0,0,1.67,1.66c1.77,1.2,4,2.45,4,4.64Z"/>
</svg>
