<svg id="7c6d1422-6e0b-4f5f-892a-f297338b4c9f" data-name="Icons" xmlns="http://www.w3.org/2000/svg" viewBox="0 0 108 72">
  <title>intercom</title>
  <path d="M31.55,26H16.34a2.52,2.52,0,0,0-2.54,2.51V43.53A2.52,2.52,0,0,0,16.34,46H31.55a2.52,2.52,0,0,0,2.54-2.51V28.47A2.52,2.52,0,0,0,31.55,26Zm-4.9,3.68a.68.68,0,0,1,1.35,0v8.94a.68.68,0,0,1-1.35,0Zm-3.38-.34a.68.68,0,0,1,1.35,0V39a.68.68,0,0,1-1.35,0Zm-3.38.34a.68.68,0,0,1,1.35,0v8.94a.68.68,0,0,1-1.35,0ZM16.51,31a.68.68,0,0,1,1.35,0v6a.68.68,0,0,1-1.35,0ZM31.15,41.19A11.57,11.57,0,0,1,24,43.36a11.58,11.58,0,0,1-7.21-2.17.67.67,0,0,1-.07-.94.68.68,0,0,1,.95-.08A10.48,10.48,0,0,0,24,42a10.3,10.3,0,0,0,6.32-1.85.68.68,0,0,1,.95.08A.67.67,0,0,1,31.15,41.19ZM31.38,37A.68.68,0,0,1,30,37V31a.68.68,0,0,1,1.35,0Z"/>
  <path d="M42,38.9a.6.6,0,0,1-.62.61.59.59,0,0,1-.61-.61V33.08a.62.62,0,0,1,1.23,0Z"/>
  <path d="M49.9,33.08V38.4c0,.72-.38,1.12-1,1.12h0a1.16,1.16,0,0,1-1.1-.82l-1.24-2.42-1.11-2.49,0,2.41v2.69a.62.62,0,0,1-1.23,0V33.57a1,1,0,0,1,1.06-1.12h0c.62,0,.87.34,1.12.83l1.22,2.39,1,2.33,0-2.23V33.08a.61.61,0,0,1,.62-.61A.6.6,0,0,1,49.9,33.08Z"/>
  <path d="M54.84,38.89a.6.6,0,0,1-.62.61.59.59,0,0,1-.61-.61V33.62H52.08a.58.58,0,0,1,0-1.15h4.29a.57.57,0,0,1,.57.58.56.56,0,0,1-.57.57H54.84Z"/>
  <path d="M58.54,38.7V33.23a.71.71,0,0,1,.81-.78h3.54a.57.57,0,0,1,.58.58.56.56,0,0,1-.58.57H59.76v1.7h2.77a.53.53,0,0,1,.55.55.54.54,0,0,1-.55.55H59.76v2h3.13a.57.57,0,0,1,.58.58.57.57,0,0,1-.58.57H59.32A.7.7,0,0,1,58.54,38.7Z"/>
  <path d="M70.46,38.71a.58.58,0,0,1-.29.82.64.64,0,0,1-.86-.24l-1.37-2.53h-1.3V38.9a.6.6,0,0,1-.62.61.59.59,0,0,1-.61-.61V33.23a.7.7,0,0,1,.8-.78h2.34a2,2,0,0,1,2.27,2.11,1.89,1.89,0,0,1-1.6,2Zm-3.82-3.07h2a1,1,0,0,0,0-2H66.64v2Z"/>
  <path d="M73.37,39a3.83,3.83,0,0,1-1.07-3,3.83,3.83,0,0,1,1-3,2.87,2.87,0,0,1,2-.66,2.77,2.77,0,0,1,1.84.56A2.58,2.58,0,0,1,78,34.28a.59.59,0,0,1-.51.72.67.67,0,0,1-.75-.49,1.68,1.68,0,0,0-.46-.7,1.44,1.44,0,0,0-1-.32,1.54,1.54,0,0,0-1.11.41A3,3,0,0,0,73.57,36a2.89,2.89,0,0,0,.6,2.08,1.51,1.51,0,0,0,1.09.41,1.53,1.53,0,0,0,1.09-.38,1.71,1.71,0,0,0,.36-.53.66.66,0,0,1,.74-.45.59.59,0,0,1,.45.74A2.42,2.42,0,0,1,77,39.13a2.86,2.86,0,0,1-1.73.49A2.78,2.78,0,0,1,73.37,39Z"/>
  <path d="M79.37,36c0-2.21.91-3.65,3-3.65s3,1.4,3,3.65-.93,3.64-3,3.64S79.37,38.26,79.37,36Zm4.82,0c0-1.68-.61-2.49-1.79-2.49s-1.76.81-1.76,2.49.59,2.49,1.76,2.49S84.19,37.66,84.19,36Z"/>
  <path d="M95,38.89a.62.62,0,0,1-1.23,0V36.25l0-2.57-.86,2.61-.86,2.57a.82.82,0,0,1-.84.63.83.83,0,0,1-.86-.64l-.89-2.56-.81-2.57,0,2.53v2.64a.6.6,0,0,1-.62.61.59.59,0,0,1-.61-.61V33.62a1,1,0,0,1,1.08-1.15,1.21,1.21,0,0,1,1.22,1l.91,2.68L91.24,38l.56-1.84.9-2.68a1.2,1.2,0,0,1,1.21-1A1,1,0,0,1,95,33.62Z"/>
</svg>
