<svg xmlns="http://www.w3.org/2000/svg" xmlns:xlink="http://www.w3.org/1999/xlink" viewBox="0 0 48 48"><defs><linearGradient id="a" x1="34.94" y1="103.31" x2="26.12" y2="94.21" gradientTransform="matrix(1, 0, 0, -1, 0, 116)" gradientUnits="userSpaceOnUse"><stop offset="0.18" stop-color="#0052cc"/><stop offset="1" stop-color="#2684ff"/></linearGradient><linearGradient id="b" x1="25.26" y1="92.92" x2="15.07" y2="83.01" xlink:href="#a"/></defs><title>jira</title><path d="M43.84,2.32H23.11a9.36,9.36,0,0,0,9.35,9.36h3.82v3.69a9.36,9.36,0,0,0,9.36,9.35V4.12A1.81,1.81,0,0,0,43.84,2.32Z" style="fill:#2684ff"/><path d="M33.58,12.65H12.85A9.36,9.36,0,0,0,22.2,22H26V25.7a9.36,9.36,0,0,0,9.36,9.35V14.45A1.81,1.81,0,0,0,33.58,12.65Z" style="fill:url(#a)"/><path d="M23.32,23H2.59a9.36,9.36,0,0,0,9.35,9.36h3.83V36a9.37,9.37,0,0,0,9.34,9.35V24.78A1.79,1.79,0,0,0,23.32,23Z" style="fill:url(#b)"/></svg>