<svg xmlns="http://www.w3.org/2000/svg" viewBox="0 0 48 48">
  <title>icon-JMAXML</title>
  <g id="Layer_3" data-name="Layer 3">
    <ellipse cx="21.49" cy="29.37" rx="11.88" ry="10.63" style="fill: none;stroke: #31498c;stroke-miterlimit: 10;stroke-width: 0.5px"/>
    <path d="M24.9,8.12a20.84,20.84,0,0,0-4.65.54c9.74.05,17.61,7,17.61,15.62S30,39.85,20.25,39.9a20.27,20.27,0,0,0,4.65.55c10.12,0,18.32-7.24,18.32-16.17S35,8.12,24.9,8.12Z" style="fill: #31498c"/>
    <g>
      <path d="M14.54,32.54a16.53,16.53,0,0,0,.05-2.37c0-.63-.05-1.53-.05-3.26,0-2.32,1.43-3.14,2.66-3.14a3.16,3.16,0,0,1,3.17,3.14v5.66a1.39,1.39,0,0,0,2.26,1.2A1.78,1.78,0,0,0,23,32.51v-6.1a2.79,2.79,0,0,1,2.84-2.8,2.61,2.61,0,0,1,1.84.74,3.06,3.06,0,0,1,.82,2.22v6.18a.85.85,0,0,0,.66,1,7.34,7.34,0,0,0,1.23-4.05c0-4.42-4-8-8.94-8s-8.95,3.59-8.95,8a7.33,7.33,0,0,0,1.15,3.92.5.5,0,0,1,.2-.08C14.25,33.5,14.49,33.12,14.54,32.54Z" style="fill: #31498c"/>
      <path d="M27.54,32.73V26.57A2,2,0,0,0,27,25.06a1.81,1.81,0,0,0-3,1.35v6.1a2.8,2.8,0,0,1-.68,2,2.17,2.17,0,0,1-1.57.66,2.46,2.46,0,0,1-2.42-2.55V26.91a2.19,2.19,0,0,0-2.17-2.14c-1,0-1.66.8-1.66,2.14,0,1.71,0,2.6.05,3.22a18.11,18.11,0,0,1-.05,2.48,1.94,1.94,0,0,1-1.23,1.86,9.3,9.3,0,0,0,7.18,3.24,9.3,9.3,0,0,0,7.09-3.15A1.81,1.81,0,0,1,27.54,32.73Z" style="fill: #31498c"/>
      <path d="M28.54,32.75V26.57a3.06,3.06,0,0,0-.82-2.22,2.61,2.61,0,0,0-1.84-.74A2.79,2.79,0,0,0,23,26.41v6.1a1.78,1.78,0,0,1-.41,1.26,1.39,1.39,0,0,1-2.26-1.2V26.91a3.16,3.16,0,0,0-3.17-3.14c-1.23,0-2.66.82-2.66,3.14,0,1.73,0,2.63.05,3.26a16.53,16.53,0,0,1-.05,2.37c0,.58-.29,1-.65,1a.5.5,0,0,0-.2.08,8,8,0,0,0,.62.85,1.94,1.94,0,0,0,1.23-1.86,18.11,18.11,0,0,0,.05-2.48c0-.62-.05-1.51-.05-3.22,0-1.34.62-2.14,1.66-2.14a2.19,2.19,0,0,1,2.17,2.14v5.66a2.46,2.46,0,0,0,2.42,2.55,2.17,2.17,0,0,0,1.57-.66,2.8,2.8,0,0,0,.68-2v-6.1a1.81,1.81,0,0,1,3-1.35,2,2,0,0,1,.53,1.51v6.16a1.81,1.81,0,0,0,1,1.83,7.9,7.9,0,0,0,.62-.81A.85.85,0,0,1,28.54,32.75Z" style="fill: #fff"/>
    </g>
  </g>
</svg>
