<svg id="Layer_1" data-name="Layer 1" xmlns="http://www.w3.org/2000/svg" viewBox="0 0 48 48"><defs><style>.cls-1{fill:#fff;}</style></defs><title>JSON</title><rect x="5.49" y="3.05" width="37.01" height="15.1" transform="translate(-0.03 0.07) rotate(-0.16)"/><path class="cls-1" d="M11.38,6.15h2l0,5.67c0,2.55-1.21,3.45-3.18,3.45a5.32,5.32,0,0,1-1.48-.21L9,13.42a3.27,3.27,0,0,0,1,.16c.85,0,1.38-.39,1.38-1.79Z"/><path class="cls-1" d="M15.18,13a5.19,5.19,0,0,0,2.25.55c.93,0,1.42-.39,1.42-1s-.43-.88-1.51-1.26c-1.49-.51-2.46-1.34-2.47-2.64,0-1.53,1.27-2.7,3.38-2.71a5.46,5.46,0,0,1,2.29.44L20.1,8.07a4.26,4.26,0,0,0-1.87-.42c-.88,0-1.3.4-1.3.87s.51.82,1.67,1.26c1.58.58,2.33,1.4,2.33,2.67,0,1.5-1.15,2.78-3.61,2.79a5.89,5.89,0,0,1-2.54-.54Z"/><path class="cls-1" d="M30.5,10.49c0,2.94-1.77,4.73-4.39,4.73s-4.22-2-4.23-4.55S23.58,6,26.23,6,30.49,8,30.5,10.49ZM24,10.63c0,1.75.83,3,2.19,3s2.15-1.31,2.15-3.05-.78-3-2.18-3S24,8.88,24,10.63Z"/><path class="cls-1" d="M31.85,15.06l0-9h2.37l1.87,3.28a26.08,26.08,0,0,1,1.47,3.07h0a33.39,33.39,0,0,1-.18-3.74V6.08h1.86l0,9H37.14l-1.92-3.45a33.51,33.51,0,0,1-1.56-3.16h0c.06,1.18.09,2.45.09,3.91v2.7Z"/><path d="M11.53,34.71V31.77a3.64,3.64,0,0,0,1.35-.27,2,2,0,0,0,.78-.75,3.41,3.41,0,0,0,.45-1.31,14.45,14.45,0,0,0,.09-2,16.79,16.79,0,0,1,.21-3.32,3,3,0,0,1,.79-1.51,4,4,0,0,1,1.68-.91,9.07,9.07,0,0,1,2.35-.23h.65v2.93a6,6,0,0,0-1.75.16,1.13,1.13,0,0,0-.57.47,2.23,2.23,0,0,0-.18,1.07q0,.77-.1,2.93A7.35,7.35,0,0,1,17,31a4,4,0,0,1-.65,1.25,5.27,5.27,0,0,1-1.22,1,4.22,4.22,0,0,1,1.19,1A3.93,3.93,0,0,1,17,35.55a9.25,9.25,0,0,1,.32,2.13q.09,2,.09,2.6a2.3,2.3,0,0,0,.2,1.13,1.21,1.21,0,0,0,.59.48,5.6,5.6,0,0,0,1.72.16V45h-.65a9.24,9.24,0,0,1-2.54-.26,3.41,3.41,0,0,1-1.49-.87,3.1,3.1,0,0,1-.82-1.51,13.93,13.93,0,0,1-.22-2.84,13.3,13.3,0,0,0-.2-2.93,2.58,2.58,0,0,0-.82-1.4A3,3,0,0,0,11.53,34.71Z"/><path d="M36.48,34.64a3.63,3.63,0,0,0-1.35.27,1.92,1.92,0,0,0-.78.74A3.61,3.61,0,0,0,33.9,37a14.23,14.23,0,0,0-.09,2,17.25,17.25,0,0,1-.21,3.32,3,3,0,0,1-.79,1.52,4,4,0,0,1-1.69.91,9.29,9.29,0,0,1-2.35.23h-.65V42a5.56,5.56,0,0,0,1.72-.17,1.2,1.2,0,0,0,.59-.48,2.22,2.22,0,0,0,.19-1.06c0-.5,0-1.45.1-2.86a7.51,7.51,0,0,1,.32-2,4.19,4.19,0,0,1,.71-1.3,4.28,4.28,0,0,1,1.14-.94A5,5,0,0,1,31.57,32,4.91,4.91,0,0,1,30.78,30a37.05,37.05,0,0,1-.21-3.77A3.31,3.31,0,0,0,30.4,25a1,1,0,0,0-.55-.47,5.91,5.91,0,0,0-1.78-.16V21.41h.65a9.59,9.59,0,0,1,2.54.25,3.35,3.35,0,0,1,1.49.87,3.19,3.19,0,0,1,.82,1.52,13.48,13.48,0,0,1,.22,2.84A14.26,14.26,0,0,0,34,29.82a2.55,2.55,0,0,0,.83,1.4,3,3,0,0,0,1.68.48Z"/></svg>