<svg xmlns="http://www.w3.org/2000/svg" viewBox="0 0 48 48">
  <title>kingoftime</title>
  <g id="Layer_3" data-name="Layer 3">
    <g>
      <path d="M38.42,27.68A14.45,14.45,0,1,1,24,13.23,14.46,14.46,0,0,1,38.42,27.68Z" style="fill: #fff"/>
      <path d="M26.7,4.59a.51.51,0,0,1-.75,0L24.38,2.84a.5.5,0,0,0-.76,0L22.05,4.59a.51.51,0,0,1-.75,0L19.72,2.84c-.2-.23-.38-.18-.38.12V8.52a.58.58,0,0,0,.58.55h8.16a.58.58,0,0,0,.6-.55V3c0-.3-.17-.35-.37-.12Z" style="fill: #f18800"/>
      <path d="M6.34,27.68A17.66,17.66,0,1,0,24,10,17.69,17.69,0,0,0,6.34,27.68Zm3.21,0A14.45,14.45,0,1,1,24,42.13,14.47,14.47,0,0,1,9.55,27.68Z" style="fill: #1d9e48"/>
      <path d="M27.06,20.64c0,1.3.72,2.36,1.62,2.36s1.63-1.06,1.63-2.36-.73-2.35-1.63-2.35S27.06,19.34,27.06,20.64Z" style="fill: #1d9e48"/>
      <path d="M20.94,20.64c0,1.3-.72,2.36-1.62,2.36s-1.63-1.06-1.63-2.36.73-2.35,1.63-2.35S20.94,19.34,20.94,20.64Z" style="fill: #1d9e48"/>
      <g>
        <path d="M17.69,28.7l-3.23-3.23L15.89,24H10.8v5.09l1.43-1.46,5.46,5.46,5.46-5.46-2.21-2.2S18.92,27.48,17.69,28.7Z" style="fill: #f18800"/>
        <path d="M37.17,24H32.09l1.45,1.45L30.31,28.7l-3.23-3.23-2.2,2.21,5.46,5.46,5.46-5.46,1.45,1.45V24Z" style="fill: #f18800"/>
      </g>
    </g>
  </g>
</svg>
