<svg id="78c26d3c-ca6d-4ffc-8bf0-752ea232bd12" data-name="Icons" xmlns="http://www.w3.org/2000/svg" xmlns:xlink="http://www.w3.org/1999/xlink" viewBox="0 0 108 72">
  <defs>
    <style>
      .f5e1fb33-fc82-4a26-9a50-0d8b10a54320 {
        fill: url(#3c359bd8-95bf-4e61-ad0f-27138a0ae92b);
      }

      .\30 a9be479-532f-4192-8dd6-324dced36f40 {
        fill: #171a1d;
      }
    </style>
    <linearGradient id="3c359bd8-95bf-4e61-ad0f-27138a0ae92b" x1="607.1" y1="-3301.28" x2="607.1" y2="-3270.66" gradientTransform="matrix(0.71, 0, 0, -0.71, -406.43, -2287.18)" gradientUnits="userSpaceOnUse">
      <stop offset="0" stop-color="#efc119"/>
      <stop offset="0.33" stop-color="#92c84e"/>
      <stop offset="0.49" stop-color="#71bf5b"/>
      <stop offset="0.75" stop-color="#15b158"/>
      <stop offset="0.9" stop-color="#23ac69"/>
      <stop offset="1" stop-color="#23ac69"/>
    </linearGradient>
  </defs>
  <title>klaviyo</title>
  <path class="f5e1fb33-fc82-4a26-9a50-0d8b10a54320" d="M7.45,35.31l14.39-9.54a2,2,0,0,1,2,0l14.39,9.54a1.14,1.14,0,0,1,0,2.06l-1.93,1.27a16,16,0,0,0-27,0L7.43,37.37a1.15,1.15,0,0,1,0-2.06Zm15.39-.12a12,12,0,0,0-10.16,5.63L16,43a8,8,0,0,1,13.66,0L33,40.82A11.9,11.9,0,0,0,22.84,35.19Zm0,8a4.1,4.1,0,0,0-3.52,2.06l2.23,1.46a2,2,0,0,0,1.29.47,1.93,1.93,0,0,0,1.3-.47l2.22-1.46A4,4,0,0,0,22.84,43.16Z"/>
  <path class="0a9be479-532f-4192-8dd6-324dced36f40" d="M47.83,36.28l3.61,5.18H48.9l-2.73-4v4H44.11V31.2h2.06v4.08l2.59-4.08h2.38ZM55,31.22H52.94V41.48h5.28V39.41H55l0-8.19Zm9.33-.36,4.31,10.62H66.33l-.41-1.11H62.51l-.4,1.11H59.77l4.31-10.62Zm.84,7.58-.93-2.66-.95,2.66Zm6.38-1.52-2.11-5.7H67.12l4.31,10.62h.21L76,31.22H73.61Zm6,4.56h2.06V31.22H77.52ZM87.77,31.22l-2.08,3.54L83.6,31.22H81.1l3.56,5.63v4.63h2V36.85l3.58-5.63Zm13.12,5a5.31,5.31,0,1,1-5.31-5.31,5.31,5.31,0,0,1,5.31,5.31Zm-2,0a3.32,3.32,0,1,0-3.32,3.31,3.32,3.32,0,0,0,3.32-3.31Z"/>
</svg>
