<svg xmlns="http://www.w3.org/2000/svg" viewBox="0 0 48 48"><title>ladap</title><g id="Warstwa_1" data-name="Warstwa 1"><ellipse id="path3339" cx="24" cy="24" rx="18.62" ry="18.61" style="fill:none;stroke:#009ada;stroke-miterlimit:10;stroke-width:0.7951319207331015px"/><g id="g4220"><path id="path4212" d="M26.31,21.67c-.46-.07-.47-1.34-.47-1.34a6.34,6.34,0,0,0,1.65-3.14c.8,0,1.29-1.92.49-2.59C28,13.9,29,9,24,9s-4,4.86-4,5.57c-.8.68-.3,2.59.49,2.59a6.34,6.34,0,0,0,1.65,3.14s0,1.27-.47,1.34c-1.49.24-7,2.68-7,5.36H33.33c0-2.68-5.5-5.12-7-5.36Z" style="fill:#b2bfcf"/></g><g id="flowRoot4216"><path id="path4225" d="M13.62,35.77V30.09h1.15v4.69h2.88v1h-4Z" style="fill:#009ada"/><path id="path4227" d="M18.44,30.05h2.12a3.64,3.64,0,0,1,1.09.11,1.84,1.84,0,0,1,.86.53,2.37,2.37,0,0,1,.55.91A4.16,4.16,0,0,1,23.25,33a3.61,3.61,0,0,1-.18,1.22,2.5,2.5,0,0,1-.61,1,2.08,2.08,0,0,1-.82.46,3.52,3.52,0,0,1-1,.12H18.44Zm1.16,1v3.76h.86a4.14,4.14,0,0,0,.7-.06,1,1,0,0,0,.46-.24,1.16,1.16,0,0,0,.31-.55,4.07,4.07,0,0,0,.12-1,3.45,3.45,0,0,0-.12-1,1.27,1.27,0,0,0-.33-.56,1.11,1.11,0,0,0-.54-.27,5.56,5.56,0,0,0-.91-.05h-.53Z" style="fill:#009ada"/><path id="path4229" d="M29.39,35.77H28.13l-.5-1.3H25.34l-.48,1.3H23.64l2.23-5.72H27.1Zm-2.13-2.26-.8-2.13-.77,2.13h1.57Z" style="fill:#009ada"/><path id="path4231" d="M30,35.77V30.05h1.84a6.27,6.27,0,0,1,1.37.08,1.49,1.49,0,0,1,.83.56,1.75,1.75,0,0,1,.33,1.11,1.8,1.8,0,0,1-.19.91,1.59,1.59,0,0,1-.49.57,1.63,1.63,0,0,1-.6.27,6.79,6.79,0,0,1-1.2.08h-.75v2.16H30ZM31.17,31v1.62h.63a2.85,2.85,0,0,0,.92-.09.85.85,0,0,0,.36-.29.78.78,0,0,0,.13-.44A.76.76,0,0,0,33,31.3a.78.78,0,0,0-.47-.25,3.84,3.84,0,0,0-.83,0h-.56Z" style="fill:#009ada"/></g></g></svg>