<svg xmlns="http://www.w3.org/2000/svg" viewBox="0 0 48 48"><title>linkedin</title><path d="M41.79,4.06H7.42A3,3,0,0,0,4.44,7V41.48a3,3,0,0,0,3,2.91H41.79a3,3,0,0,0,3-2.91V7A3,3,0,0,0,41.79,4.06Z" style="fill:#007bb5"/><path d="M10.41,19.18h6V38.43h-6Zm3-9.57a3.47,3.47,0,1,1-3.47,3.47,3.48,3.48,0,0,1,3.47-3.47" style="fill:#fff"/><path d="M20.16,19.18H25.9v2.63H26a6.29,6.29,0,0,1,5.66-3.11c6.06,0,7.18,4,7.18,9.17V38.43h-6V29.07c0-2.23,0-5.1-3.11-5.1s-3.59,2.43-3.59,4.94v9.52h-6Z" style="fill:#fff"/></svg>