<svg xmlns="http://www.w3.org/2000/svg" viewBox="0 0 48 48">
  <title>logikura</title>
  <g id="Layer_3" data-name="Layer 3">
    <g>
      <line x1="20.17" y1="21.76" x2="12.98" y2="21.76" style="fill: none;stroke: #28526c;stroke-miterlimit: 10;stroke-width: 1.2778827972687137px"/>
      <line x1="13.62" y1="28.31" x2="13.62" y2="21.12" style="fill: none;stroke: #28526c;stroke-miterlimit: 10;stroke-width: 1.2778827972687137px"/>
      <line x1="20.17" y1="27.67" x2="12.98" y2="27.67" style="fill: none;stroke: #28526c;stroke-miterlimit: 10;stroke-width: 1.2778827972687137px"/>
      <line x1="19.53" y1="28.31" x2="19.53" y2="21.12" style="fill: none;stroke: #28526c;stroke-miterlimit: 10;stroke-width: 1.2778827972687137px"/>
      <line x1="28.79" y1="27.67" x2="21.6" y2="27.67" style="fill: none;stroke: #28526c;stroke-miterlimit: 10;stroke-width: 1.2778827972687137px"/>
      <line x1="25.2" y1="21.76" x2="21.6" y2="21.76" style="fill: none;stroke: #28526c;stroke-miterlimit: 10;stroke-width: 1.2778827972687137px"/>
      <line x1="25.2" y1="23.48" x2="21.6" y2="23.48" style="fill: none;stroke: #28526c;stroke-miterlimit: 10;stroke-width: 1.2778827972687137px"/>
      <line x1="37.42" y1="21.76" x2="30.23" y2="21.76" style="fill: none;stroke: #28526c;stroke-miterlimit: 10;stroke-width: 1.2778827972687137px"/>
      <line x1="30.87" y1="25.08" x2="30.87" y2="21.12" style="fill: none;stroke: #28526c;stroke-miterlimit: 10;stroke-width: 1.2778827972687137px"/>
      <line x1="37.42" y1="27.67" x2="31.55" y2="27.67" style="fill: none;stroke: #28526c;stroke-miterlimit: 10;stroke-width: 1.2778827972687137px"/>
      <line x1="36.78" y1="28.31" x2="36.78" y2="21.12" style="fill: none;stroke: #28526c;stroke-miterlimit: 10;stroke-width: 1.2778827972687137px"/>
      <line x1="46.04" y1="21.76" x2="38.86" y2="21.76" style="fill: none;stroke: #28526c;stroke-miterlimit: 10;stroke-width: 1.2778827972687137px"/>
      <line x1="46.04" y1="27.67" x2="38.86" y2="27.67" style="fill: none;stroke: #28526c;stroke-miterlimit: 10;stroke-width: 1.2778827972687137px"/>
      <line x1="45.4" y1="28.31" x2="45.4" y2="22.84" style="fill: none;stroke: #28526c;stroke-miterlimit: 10;stroke-width: 1.2778827972687137px"/>
      <line x1="46.04" y1="23.48" x2="38.86" y2="23.48" style="fill: none;stroke: #28526c;stroke-miterlimit: 10;stroke-width: 1.2778827972687137px"/>
      <rect x="28.79" y="19.69" width="1.44" height="1.44" style="fill: #28526c"/>
      <rect x="27.35" y="21.12" width="1.44" height="1.44" style="fill: #28526c"/>
      <path id="cloud-2" d="M6.75,21.92A2.28,2.28,0,0,1,9,24.63a1.55,1.55,0,0,1,1.77,1.49,1.39,1.39,0,0,1-1.4,1.39H4.15a1.39,1.39,0,0,1-1.39-1.39,1.54,1.54,0,0,1,1.76-1.49C4.46,23,5.41,21.92,6.75,21.92Zm0-.8a3,3,0,0,0-3,2.84,2.19,2.19,0,0,0,.39,4.35H9.34A2.19,2.19,0,0,0,9.74,24,3,3,0,0,0,6.75,21.12Z" style="fill: #28536c"/>
    </g>
  </g>
</svg>
