<svg xmlns="http://www.w3.org/2000/svg" viewBox="0 0 48 48"><title>lohaco</title><path d="M23.05,22.24c0,1.05,0,2.11,0,3.17,0,1.23.08,2.46.08,3.69s-.05,2.75-.08,4.13c0,.38,0,.76,0,1.14,0,.81-.76,1.27-1.66,1a8.13,8.13,0,0,1-2.14-1,17.47,17.47,0,0,0-1.75-.82c-.41-.2-.81-.43-1.23-.64l-5-2.51c-.22-.11-.46-.18-.68-.29a1.44,1.44,0,0,1-.89-1.62c0-1,0-2,0-2.95,0-.67,0-1.35,0-2,0-1.65-.07-3.29-.08-4.93a20.17,20.17,0,0,1,0-2.06,1.32,1.32,0,0,1,1.74-1.05,10.3,10.3,0,0,1,1.17.54c1.18.6,2.34,1.23,3.52,1.81.74.36,1.52.65,2.28,1,1.28.58,2.58,1.15,3.84,1.79A1.53,1.53,0,0,1,23.05,22.24Zm-2.23,1.4.09,0a3.92,3.92,0,0,0-.31-1,1.68,1.68,0,0,0-.7-.51l-4.25-2c-.93-.44-1.85-.9-2.8-1.31-.66-.28-.82-.14-.82.57,0,1,0,2,0,3,0,.7-.08,1.41-.07,2.12,0,1.15.11,2.31.12,3.47a.55.55,0,0,0,.33.58l3,1.52,4.4,2.17c.58.29.9.11.94-.54,0-.44,0-.88,0-1.32,0-1.33.06-2.66.08-4C20.83,25.41,20.82,24.53,20.82,23.64Z"/><path d="M36.76,24.4V19.85a11.13,11.13,0,0,1,.09-1.15c0-.37-.12-.51-.44-.42a11.36,11.36,0,0,0-1.39.47c-1.47.62-2.91,1.3-4.39,1.89-1.68.68-3.39,1.28-5.07,1.95-.55.22-1.21-.31-1.41-.82a1,1,0,0,1,.54-1.18c.76-.37,1.55-.68,2.33-1l3.32-1.37,1.84-.7c.63-.24,1.26-.49,1.88-.76l3.59-1.55a1.22,1.22,0,0,1,1.44.76,3.4,3.4,0,0,1,.09.9c0,.92,0,1.84,0,2.77s0,2.06,0,3.09,0,1.8,0,2.7a8.62,8.62,0,0,1,0,1.61,1.91,1.91,0,0,1-.6.9,8.38,8.38,0,0,1-1.33,1c-1.25.72-2.52,1.41-3.79,2.11s-2.83,1.55-4.23,2.35c-1,.57-2,1.15-3,1.76a1.44,1.44,0,0,1-2.1-.49.52.52,0,0,1,.09-.62,6.4,6.4,0,0,1,2.13-1.52c1.24-.71,2.5-1.38,3.74-2.07.84-.48,1.66-1,2.5-1.46,1.14-.64,2.29-1.26,3.43-1.89.53-.3,1-.63.89-1.35a9.87,9.87,0,0,1,.06-1.33Z"/><path d="M23,20.32a1.45,1.45,0,0,1-1-.92c-.49-1.08-.93-2.19-1.39-3.28q-1.16-2.75-2.32-5.49a16.48,16.48,0,0,1-.91-2,1.62,1.62,0,0,1,.3-1.13.8.8,0,0,1,1.05-.36,2.14,2.14,0,0,1,.91.85c.47,1,.85,2,1.26,3,.25.62.48,1.24.74,1.85.54,1.27,1.1,2.54,1.65,3.81.35.82.7,1.64,1,2.47C24.53,19.59,23.83,20.32,23,20.32Z"/><path d="M38.8,13.32a1.49,1.49,0,0,1-.7,1.18c-.29.23-.76.14-1.14-.31-.51-.61-.94-1.27-1.39-1.93s-.82-1.26-1.22-1.89c-.68-1.1-1.35-2.2-2.05-3.28-.39-.61-.85-1.17-1.25-1.77a3.09,3.09,0,0,1-.43-.85A.91.91,0,0,1,31,3.28a1,1,0,0,1,1.42.18c.49.6.93,1.25,1.37,1.9.65,1,1.28,1.94,1.91,2.93.42.66.8,1.34,1.23,2,.52.81,1.08,1.6,1.61,2.41A3.45,3.45,0,0,1,38.8,13.32Z"/><path d="M20.31,41.91c.21,0,.35,0,.49,0l1.26-.11c.05-.32.12-.63.16-.95s.24-.56.62-.51.4.36.38.67c0,.75-.06,1.5-.08,2.25,0,.2.1.4.09.59s-.12.44-.21.45-.47-.07-.52-.19A13.51,13.51,0,0,1,22,42.63c-.52,0-1.08.08-1.64.16-.07,0-.18.21-.17.31s.15.47.16.71a2.51,2.51,0,0,1-.1.66c-.24-.07-.59-.07-.69-.23a2.31,2.31,0,0,1-.33-1.08c0-.77.06-1.54.09-2.31,0-.38.21-.58.58-.55s.52.27.48.64S20.34,41.55,20.31,41.91Z"/><path d="M39.25,42.16a2.47,2.47,0,0,1-.7,1.8A1.64,1.64,0,0,1,36,43.6a2.11,2.11,0,0,1,.12-2.43,2.22,2.22,0,0,1,2-.83c.65.11,1,.6,1.11,1.5C39.26,41.94,39.25,42.05,39.25,42.16Zm-.92.06c0-.6-.31-.92-.72-.82a1.49,1.49,0,0,0-.92,1.06.81.81,0,0,0,.5.9.79.79,0,0,0,.93-.44A3.8,3.8,0,0,0,38.33,42.22Z"/><path d="M25,43.94a10.46,10.46,0,0,1,.41-1.27c.34-.73.72-1.44,1.12-2.13a.64.64,0,0,1,1.11,0c.57,1,1.09,2.1,1.6,3.17a.56.56,0,0,1-.16.53c-.13.07-.37-.06-.57-.12a.19.19,0,0,1-.1-.14c-.27-.89-1-.78-1.64-.7s-.77.13-.81.77c0,.32-.08.57-.45.54S25,44.3,25,43.94Zm2.72-1.36-.62-1.26-.57,1.22c.21,0,.33,0,.46,0Z"/><path d="M17.48,42.14a2.25,2.25,0,0,1-1.75,2.21,1.19,1.19,0,0,1-1.25-.41,2.21,2.21,0,0,1,.74-3.35A1.56,1.56,0,0,1,17.48,42.14Zm-2.5.34c0,.51.26.87.62.88s.89-.58.89-1.22c0-.44-.21-.67-.58-.67A1,1,0,0,0,15,42.48Z"/><path d="M32.85,40.29a2.18,2.18,0,0,1,.7.17.66.66,0,0,1,.27.52c0,.12-.26.23-.42.33s-.18,0-.27,0A1.24,1.24,0,0,0,31.91,43a.55.55,0,0,0,.86.38,5.79,5.79,0,0,1,.64-.36,2.3,2.3,0,0,1,.64,0c0,.22.06.49,0,.67a2.2,2.2,0,0,1-2,.66,1.52,1.52,0,0,1-1.15-1.35,2.54,2.54,0,0,1,.42-1.93A1.74,1.74,0,0,1,32.85,40.29Z"/><path d="M9.5,42.1c0-.41.06-.92.08-1.43a.45.45,0,0,1,.47-.46c.31,0,.41.2.42.45,0,.62,0,1.23,0,1.85v.27c0,.69.11.78.78.79.38,0,.77,0,1.15,0s.55,0,.57.38-.2.51-.52.51c-.66,0-1.32,0-2,0s-.77-.23-.84-.83S9.53,42.66,9.5,42.1Z"/></svg>