<svg xmlns="http://www.w3.org/2000/svg" viewBox="0 0 48 48"><title>mariadb</title><path d="M38.13,8.69h-.06c-.48,0-.56.28-1.6.54s-2.06,0-3.19.48c-3.38,1.42-4,6.1-7,7.83-2.29,1.3-4.62,1.59-6.7,2.25A11.9,11.9,0,0,0,15.38,22c-1,.83-1.06,1.76-2.06,2.8s-4.2,0-5.73,1.42a.31.31,0,0,0,0,.46c.33.29,1,.11,1.58.32-.19.37-1.33.51-1.11,1s2.69.8,5.16-.69a10.19,10.19,0,0,1,4.16-1.77c2.32-.31,5,.33,7.64.72a11.87,11.87,0,0,1-1.84,2.92c-.19.21.4.24,1.08.11a10.9,10.9,0,0,0,3-1.08c1.13-.66,1.49-2,2.4-2.78a3.54,3.54,0,0,0,3.93.89c.07,0,.25-.16.32-.2s.14-.16,0-.27-.28-.12-.32-.17a4.22,4.22,0,0,1-.57-3.52c.37-1,.73-2.66,1.1-4s.53-3.53,1-4.27a7.88,7.88,0,0,1,2-1.95,3,3,0,0,0,1.3-2.61c0-.44,0-.65-.4-.66" style="fill:#c0765a"/><path d="M34.54,10.3a1.11,1.11,0,0,0-1.21.87.93.93,0,0,0,.64.21.86.86,0,0,0,.87-1.07h-.3" style="fill:#1f305f"/><path d="M38.13,8.69h-.06c-.48,0-.56.28-1.6.54s-2.06,0-3.19.48c-3.38,1.42-4,6.1-7,7.83-2.29,1.3-4.62,1.59-6.7,2.25A11.9,11.9,0,0,0,15.38,22c-1,.83-1.06,1.76-2.06,2.8s-4.2,0-5.73,1.42a.31.31,0,0,0,0,.46c.33.29,1,.11,1.58.32-.19.37-1.33.51-1.11,1s2.69.8,5.16-.69a10.19,10.19,0,0,1,4.16-1.77c2.32-.31,5,.33,7.64.72a11.87,11.87,0,0,1-1.84,2.92c-.19.21.4.24,1.08.11a10.9,10.9,0,0,0,3-1.08c1.13-.66,1.49-2,2.4-2.78a3.54,3.54,0,0,0,3.93.89c.07,0,.25-.16.32-.2s.14-.16,0-.27-.28-.12-.32-.17a4.22,4.22,0,0,1-.57-3.52c.37-1,.73-2.66,1.1-4s.53-3.53,1-4.27a7.88,7.88,0,0,1,2-1.95,3,3,0,0,0,1.3-2.61c0-.44,0-.65-.4-.66m0,1.68A3.18,3.18,0,0,1,36.61,12a6.47,6.47,0,0,0-1.87,1.67A29.71,29.71,0,0,0,32.81,19c-.61,2.36-2,4.35-3,4.93a3,3,0,0,1,.1-1.09,22.14,22.14,0,0,1-1,2.07,7.59,7.59,0,0,1-4.78,3.8c-.18,0-.32.09-.22-.05a11.83,11.83,0,0,0,2.38-5.84c0-.19-.18.11-.3.26-.47.57-.35,1.26-1,1.68a9.81,9.81,0,0,1-1.61-.1,18.09,18.09,0,0,0-7,.26c-1.42.46-2.92,1.9-4.12,2.43a6.62,6.62,0,0,1-3.65.53c-.19-.25.81-.39,1.12-.85.1-.14-.11-.3-.31-.39-.48-.22-1.21,0-1.72-.24A2.46,2.46,0,0,1,8.3,26c1.17-.68,3.93,0,4.77-.8A12.27,12.27,0,0,0,14.4,23.5a7,7,0,0,1,1.37-1.6c.19-.16.45-.34.68-.5a12,12,0,0,1,2.85-1.35c1.5-.55,3.31-.79,4.92-1.4a11.46,11.46,0,0,0,2.87-1.42,9,9,0,0,0,.71-.67c1.54-1.51,2.26-3.68,3.54-5.11a5.21,5.21,0,0,1,3.4-1.9c.48-.05.94,0,1.3,0a1.91,1.91,0,0,0,1-.3,1,1,0,0,0,1.09.69A3,3,0,0,1,38.09,10.37Z" style="fill:#1f305f"/><path d="M29,33.77a2.67,2.67,0,0,0-2.25-1.18,2.8,2.8,0,0,0-2.08.88,3.06,3.06,0,0,0,0,4.24A2.82,2.82,0,0,0,29,37.43v1h.72V32.74H29Zm-.62,3.49a2.14,2.14,0,0,1-1.59.67,2.12,2.12,0,0,1-1.58-.69,2.27,2.27,0,0,1-.66-1.63A2.23,2.23,0,0,1,25.2,34a2.07,2.07,0,0,1,1.59-.7,2.17,2.17,0,0,1,1.6.67,2.41,2.41,0,0,1,0,3.3" style="fill:#444b5e"/><path d="M22,32.74h.74v5.67H22Z" style="fill:#444b5e"/><path d="M2.61,38.41h.72l.72-5.35L6.7,38.41h.19L9.51,33.1l.72,5.31H11L9.9,31H9.79l-3,6.09L3.78,31H3.67Z" style="fill:#444b5e"/><path d="M16.67,33.77a2.64,2.64,0,0,0-2.25-1.18,2.8,2.8,0,0,0-2.07.88,2.91,2.91,0,0,0-.87,2.12,3,3,0,0,0,.86,2.12,2.81,2.81,0,0,0,4.33-.28v1h.72V32.74h-.72Zm-.62,3.49a2.14,2.14,0,0,1-1.59.67,2.12,2.12,0,0,1-1.58-.69,2.34,2.34,0,0,1,0-3.25,2.1,2.1,0,0,1,1.59-.7,2.15,2.15,0,0,1,1.6.67,2.38,2.38,0,0,1,0,3.3" style="fill:#444b5e"/><path d="M36.06,31.74A3.34,3.34,0,0,0,34.74,31a8.68,8.68,0,0,0-2.39-.24h-1.6v7.67H33.2A4.71,4.71,0,0,0,35.49,38a3.18,3.18,0,0,0,1.26-1.33,4,4,0,0,0,.47-1.88,4.68,4.68,0,0,0-.3-1.75,3.41,3.41,0,0,0-.86-1.26M36.2,36a2.68,2.68,0,0,1-.72,1,2.44,2.44,0,0,1-1.09.54,10.53,10.53,0,0,1-2,.14h-.89V31.49H32a10.84,10.84,0,0,1,2.09.15,2.8,2.8,0,0,1,1.24.55,2.74,2.74,0,0,1,.8,1.06,3.4,3.4,0,0,1,.29,1.4A3.52,3.52,0,0,1,36.2,36" style="fill:#444b5e"/><path d="M40.73,34.24a1.78,1.78,0,0,0,1-1.6,1.64,1.64,0,0,0-.63-1.39,2.91,2.91,0,0,0-1.83-.49H37.74v7.67h2.12a2.6,2.6,0,0,0,1.79-.62,2,2,0,0,0,.7-1.58A1.86,1.86,0,0,0,41.93,35a2.43,2.43,0,0,0-1.2-.77M38.5,31.51h.89c1,0,1.54.37,1.54,1.13a1.12,1.12,0,0,1-.49,1,2.84,2.84,0,0,1-1.5.32H38.5V31.51ZM41.3,37a1.55,1.55,0,0,1-.64.52,3.54,3.54,0,0,1-1.21.16h-1v-3h.43a6.09,6.09,0,0,1,1.41.11,1.8,1.8,0,0,1,.65.32,1.39,1.39,0,0,1,.42.49,1.44,1.44,0,0,1,.14.64,1.25,1.25,0,0,1-.25.71" style="fill:#444b5e"/><path d="M22.4,30.74a.51.51,0,0,0-.38.16.51.51,0,0,0-.15.37.53.53,0,0,0,.15.37.51.51,0,0,0,.38.16.5.5,0,0,0,.37-.15.51.51,0,0,0,.16-.38.55.55,0,0,0-.53-.53" style="fill:#444b5e"/><path d="M20.34,32.7c-.51,0-.71.31-1.11.73l-.08.09v-.77h-.7v5.66h.74V35.05a2.09,2.09,0,0,1,.33-1c.31-.49.7-.72,1.13-.54l.4-.57A1,1,0,0,0,20.34,32.7Z" style="fill:#444b5e"/><path d="M35.52,11.5a4.15,4.15,0,0,1,1.3-1.91" style="fill:none;stroke:#1f305f;stroke-miterlimit:10;stroke-width:0.075986841640878px"/><path d="M35.92,11.66a3.66,3.66,0,0,1,1-1.94" style="fill:none;stroke:#1f305f;stroke-miterlimit:10;stroke-width:0.075986841640878px"/><path d="M36.35,11.7a4.09,4.09,0,0,1,.74-1.84" style="fill:none;stroke:#1f305f;stroke-miterlimit:10;stroke-width:0.075986841640878px"/><path d="M36.76,11.73A3.25,3.25,0,0,1,37.2,10" style="fill:none;stroke:#1f305f;stroke-miterlimit:10;stroke-width:0.075986841640878px"/></svg>