<svg xmlns="http://www.w3.org/2000/svg" viewBox="0 0 48 48">
  <title>mendix</title>
  <g id="Layer_3" data-name="Layer 3">
    <path d="M38,43.09H10A5.1,5.1,0,0,1,4.91,38V10A5.1,5.1,0,0,1,10,4.91H38A5.1,5.1,0,0,1,43.09,10V38A5.08,5.08,0,0,1,38,43.09Zm1-26H34.94l-1.53,3.12-1.56-3.12h-4.1L31.25,24l-3.17,6.25v-10a3.52,3.52,0,0,0-.38-1.46,3.17,3.17,0,0,0-.81-.9,3.89,3.89,0,0,0-1.15-.58,5.58,5.58,0,0,0-1.4-.21,5.28,5.28,0,0,0-2.19.42,4.62,4.62,0,0,0-1.63,1.27,3.45,3.45,0,0,0-1.34-1.23,3.88,3.88,0,0,0-1.94-.46,5.4,5.4,0,0,0-2,.35,3.3,3.3,0,0,0-1.39,1.25h-.06V17.09H9.69V30.91h4.1V21a1.54,1.54,0,0,1,1.66-1.42A1.56,1.56,0,0,1,16.88,21v9.94H21V21a1.55,1.55,0,0,1,3.1,0h0v9.92h7.79l1.56-3.12,1.53,3.12h4.11L35.55,24Z" style="fill: #0291d5"/>
  </g>
</svg>
