<svg width="48" height="48" viewBox="0 0 48 48" fill="none" xmlns="http://www.w3.org/2000/svg">
<g clip-path="url(#clip0_1685_3591)">
<g clip-path="url(#clip1_1685_3591)">
<path d="M40.7522 38.7599H20.2873C19.4274 38.7599 18.7395 38.0745 18.7395 37.2178V28.308L26.593 24.4243L36.3956 28.308H40.7522C41.6121 28.308 42.3 28.9934 42.3 29.8501V37.2178C42.3 38.0745 41.6121 38.7599 40.7522 38.7599Z" fill="#185C37"/>
<path d="M30.4911 17.9133L21.3191 21.1688L10.886 17.9133V9.00353C10.886 8.14682 11.5739 7.46146 12.4338 7.46146H29.0006C29.8605 7.46146 30.5484 8.14682 30.5484 9.00353L30.4911 17.9133Z" fill="#33C481"/>
<path d="M10.886 17.9133H34.8478C35.7076 17.9133 36.3955 18.5987 36.3955 19.4554V28.3651H12.4338C11.5739 28.3651 10.886 27.6798 10.886 26.8231V17.9133Z" fill="#21A366"/>
<path opacity="0.1" d="M18.7395 34.1908H23.7268C24.472 34.1908 25.1025 33.6767 25.2172 32.9343V15.5145C25.2172 14.6578 24.5293 13.9724 23.7268 13.9724H10.886V26.766C10.886 27.6227 11.5739 28.308 12.4338 28.308H18.7395V34.1908Z" fill="black"/>
<path opacity="0.2" d="M23.7268 33.5625C24.9306 33.5625 25.9051 32.5916 25.9051 31.3922V15.5145C25.9051 14.3151 24.9306 13.3442 23.7268 13.3442H10.886V26.8231C10.886 27.6798 11.5739 28.3652 12.4338 28.3652H18.7395V33.5625H23.7268Z" fill="black"/>
<path opacity="0.2" d="M23.7268 32.8772C24.5866 32.8772 25.2745 32.1918 25.2745 31.3922V15.5145C25.2745 14.6578 24.5866 13.9724 23.7841 13.9724H10.886V26.766C10.886 27.6227 11.5739 28.308 12.4338 28.308H18.7395V32.8772H23.7268Z" fill="black"/>
<path opacity="0.1" d="M23.0962 32.8772C23.956 32.8772 24.6439 32.1918 24.6439 31.3922V15.5145C24.6439 14.6578 23.956 13.9724 23.1535 13.9724H10.886V26.766C10.886 27.6227 11.5739 28.308 12.4338 28.308H18.7395V32.8772H23.0962Z" fill="black"/>
<path d="M7.84777 13.9724H23.0962C23.9561 13.9724 24.644 14.6578 24.644 15.5145V30.7068C24.644 31.5635 23.9561 32.2489 23.0962 32.2489H7.84777C6.9879 32.2489 6.3 31.5635 6.3 30.7068V15.5145C6.3 14.6578 6.9879 13.9724 7.84777 13.9724Z" fill="url(#paint0_linear_1685_3591)"/>
<path d="M15.7586 18.0275C16.7331 17.9704 17.7076 18.256 18.4529 18.8271C19.0834 19.4554 19.4274 20.3121 19.3701 21.1688C19.3701 21.797 19.1981 22.3682 18.9115 22.9393C18.5675 23.4534 18.1089 23.8531 17.593 24.1387C16.9624 24.4243 16.2745 24.5956 15.5866 24.5385H13.6949V28.1367H11.7459V18.0275H15.7586ZM13.7522 22.9964H15.4147C15.9306 23.0536 16.4465 22.8822 16.9051 22.5395C17.249 22.1968 17.421 21.7399 17.421 21.2259C17.421 20.0836 16.7905 19.5696 15.5293 19.5696H13.8096L13.7522 22.9964Z" fill="white"/>
</g>
</g>
<defs>
<linearGradient id="paint0_linear_1685_3591" x1="9.48973" y1="12.7868" x2="21.3697" y2="33.4405" gradientUnits="userSpaceOnUse">
<stop stop-color="#18884F"/>
<stop offset="0.5" stop-color="#117E43"/>
<stop offset="1" stop-color="#0B6631"/>
</linearGradient>
<clipPath id="clip0_1685_3591">
<rect width="36" height="36" fill="white" transform="translate(6 5)"/>
</clipPath>
<clipPath id="clip1_1685_3591">
<rect width="36" height="31.2984" fill="white" transform="translate(6.3 7.46146)"/>
</clipPath>
</defs>
</svg>
