<svg id="f5ae02c2-5923-4d2f-96da-2ae94a3a444e" data-name="Icons" xmlns="http://www.w3.org/2000/svg" viewBox="0 0 108 72">
  <defs>
    <style>
      .\36 19e9348-dece-4c19-96b7-366dd2feb7bb {
        fill: #f62b54;
      }

      .\38 cc8d3b2-ecbb-464c-8a79-36b46f2e2b04 {
        fill: #fc0;
      }

      .\38 06d76f9-669a-431c-9d8c-5df76b18708f {
        fill: #00ca72;
      }

      .\37 831178f-b0f0-4a2f-b4e7-44461fc8eb9f {
        fill: #333;
      }
    </style>
  </defs>
  <title>monday</title>
  <g>
    <g>
      <path class="619e9348-dece-4c19-96b7-366dd2feb7bb" d="M7.13,40.08a2,2,0,0,1-1.75-1,1.92,1.92,0,0,1,.06-2L9,31.44a2,2,0,0,1,3.48.09,1.92,1.92,0,0,1-.1,2L8.82,39.16A2,2,0,0,1,7.13,40.08Z"/>
      <path class="8cc8d3b2-ecbb-464c-8a79-36b46f2e2b04" d="M13.28,40.08a2,2,0,0,1-1.74-1,1.92,1.92,0,0,1,.06-2l3.58-5.62a2,2,0,0,1,3.5.08,1.94,1.94,0,0,1-.13,2L15,39.16A2,2,0,0,1,13.28,40.08Z"/>
      <ellipse class="806d76f9-669a-431c-9d8c-5df76b18708f" cx="19.3" cy="38.32" rx="1.85" ry="1.81"/>
    </g>
    <path class="7831178f-b0f0-4a2f-b4e7-44461fc8eb9f" d="M99.58,36.61c.56,0,.9.4.9,1v2.23h.75V37.61c0-1.11-.52-1.75-1.5-1.75a1.44,1.44,0,0,0-1.35.81,1.25,1.25,0,0,0-1-.77,2,2,0,0,0-.42,0,1.37,1.37,0,0,0-1.08.66V36H95.1v3.94h.76V37.76A1,1,0,0,1,97,36.61c.5,0,.84.39.84,1v2.24h.75V37.76A1,1,0,0,1,99.58,36.61Zm-7.26,2.62a1.22,1.22,0,0,0,.92-.38,1.3,1.3,0,0,0,.36-.94,1.29,1.29,0,1,0-2.57,0,1.32,1.32,0,0,0,.36.94,1.24,1.24,0,0,0,.92.38Zm0,.74a2,2,0,0,1-2-2.07,2,2,0,0,1,4.08,0,2,2,0,0,1-2,2.07ZM86.38,37.9h0a2,2,0,0,1,2.07-2,2,2,0,0,1,1.5.63l-.58.49a1.32,1.32,0,0,0-2.23.92,1.31,1.31,0,0,0,.81,1.22,1.27,1.27,0,0,0,1.42-.28l.59.49a2.07,2.07,0,0,1-3.57-1.43ZM84,39.13a.52.52,0,0,1,.52-.53h0a.52.52,0,0,1,.52.53h0a.53.53,0,0,1-.52.5A.52.52,0,0,1,84,39.13Z"/>
    <path class="7831178f-b0f0-4a2f-b4e7-44461fc8eb9f" d="M86,30.94h-2.7l-1.89,4.88-1.88-4.88h-2.7l3.28,7.71-2,5.1h2.68ZM69.6,35.23a2.1,2.1,0,0,0,2.14,2,2,2,0,1,0,0-4.09,2.1,2.1,0,0,0-2.14,2Zm4.2,4.3v-1a3.29,3.29,0,0,1-2.48,1.14,4.48,4.48,0,0,1,0-9,3.12,3.12,0,0,1,2.48,1.14v-.95h2.51v8.59Zm-7.54,0H63.74V38.46a2.81,2.81,0,0,1-2.5,1.26,4.2,4.2,0,0,1-4.12-4.46,4.22,4.22,0,0,1,4.12-4.51A2.79,2.79,0,0,1,63.74,32V26.25h2.52Zm-2.57-4.32a2,2,0,1,0-2,2.07A2,2,0,0,0,63.69,35.21ZM50.89,35c0-1.3.68-1.75,1.57-1.75s1.48.58,1.48,1.72v4.58h2.54V34.39c0-2.44-1.21-3.64-3.12-3.64a2.84,2.84,0,0,0-2.47,1.44V30.94H48.36v8.59h2.53Zm-7.68,4.7a4.47,4.47,0,1,1,4.43-4.48,4.32,4.32,0,0,1-4.43,4.48Zm0-2.5a2,2,0,0,0,0-3.93,1.91,1.91,0,0,0-1.37.57,2,2,0,0,0,1.37,3.36Zm-9-3.94c.75,0,1.4.59,1.4,1.71v4.58h2.52V34.65c0-2.59-1.26-3.9-3.28-3.9a2.91,2.91,0,0,0-2.56,1.53,2.73,2.73,0,0,0-2.73-1.51,2.44,2.44,0,0,0-2.23,1.41V30.94H24.84v8.59h2.53V35c0-1.3.71-1.75,1.48-1.75a1.48,1.48,0,0,1,1.4,1.66v4.64h2.54V35c0-1.25.66-1.74,1.46-1.74Z"/>
  </g>
</svg>
