<svg xmlns="http://www.w3.org/2000/svg" xmlns:xlink="http://www.w3.org/1999/xlink" viewBox="0 0 48 48"><defs><linearGradient id="a" x1="-604.67" y1="-1011.49" x2="-618.18" y2="-1011.58" gradientTransform="matrix(-0.98, -0.32, 0.29, -0.88, -280.03, -1058.26)" gradientUnits="userSpaceOnUse"><stop offset="0.23" stop-color="#9b9a75"/><stop offset="0.56" stop-color="#9c9b77"/><stop offset="0.68" stop-color="#a2a17e"/><stop offset="0.77" stop-color="#abaa89"/><stop offset="0.84" stop-color="#b8b79a"/><stop offset="0.9" stop-color="#cac8b0"/><stop offset="0.95" stop-color="#dfddcb"/><stop offset="0.99" stop-color="#f8f6eb"/><stop offset="1" stop-color="#fbf9ef"/></linearGradient><linearGradient id="b" x1="-602.59" y1="-987.84" x2="-622.03" y2="-1021.51" gradientTransform="matrix(-0.98, -0.32, 0.29, -0.88, -280.03, -1058.26)" gradientUnits="userSpaceOnUse"><stop offset="0" stop-color="#599e4c"/><stop offset="1" stop-color="#498e41"/></linearGradient><linearGradient id="c" x1="-600.81" y1="-1012.05" x2="-614.59" y2="-1002.79" gradientTransform="matrix(-0.98, -0.32, 0.29, -0.88, -280.03, -1058.26)" gradientUnits="userSpaceOnUse"><stop offset="0" stop-color="#4fa346"/><stop offset="0.24" stop-color="#59a84f"/><stop offset="0.65" stop-color="#75b667"/><stop offset="1" stop-color="#91c47f"/></linearGradient></defs><title>mongodb</title><path d="M24.94,45.37,23.79,45s.15-5.8-1.94-6.21c-1.38-1.6.21-68.29,5.22-.23a4.15,4.15,0,0,0-2,2.33A21.8,21.8,0,0,0,24.94,45.37Z" style="fill:url(#a)"/><path d="M25.56,39.76s10-6.56,7.62-20.18c-2.24-9.9-7.55-13.15-8.12-14.39A14.77,14.77,0,0,1,23.8,2.75l.43,27.58S23.35,38.75,25.56,39.76Z" style="fill:url(#b)"/><path d="M23.21,40.13s-9.34-6.37-8.81-17.62S21.54,5.74,22.83,4.73a2.64,2.64,0,0,0,.93-2.1c.58,1.25.48,18.69.54,20.73C24.54,31.29,23.86,38.63,23.21,40.13Z" style="fill:url(#c)"/></svg>