<svg id="CURRENT" xmlns="http://www.w3.org/2000/svg" viewBox="0 0 48 48">
  <title>msplanner</title>
  <g>
    <path d="M19.64,34.05l-.35-.31a7.3,7.3,0,0,1-2.61-4.92c-.05-.49,0-1-.1-1.49a4.66,4.66,0,0,0-1.17-2.48,4.49,4.49,0,0,0-1.9-1.34,4.86,4.86,0,0,0-4.83.68A4.81,4.81,0,0,0,6.74,27.9c0,.12,0,.21-.17.2H4.44l-.11,0a7.52,7.52,0,0,1,3.82-6.39c-.17-.24-.35-.46-.5-.7a4.86,4.86,0,0,1,6.61-6.84,4.85,4.85,0,0,1,1.31,7.09,2.76,2.76,0,0,1-.21.25c-.12.13-.12.23,0,.31A7.07,7.07,0,0,1,17.74,24l.11.13.48-.6a7.17,7.17,0,0,1,6.27-2.69,6.81,6.81,0,0,1,4.12,1.73A15.27,15.27,0,0,1,30,23.93c.13.14.19.15.29,0a7.3,7.3,0,0,1,2.32-2.14l.16-.12a4.93,4.93,0,0,1-1.31-4,4.88,4.88,0,0,1,9.7.12,4.86,4.86,0,0,1-1.33,3.87,7.59,7.59,0,0,1,3.84,6.42H41.28c0-.25-.05-.51-.09-.77a4.89,4.89,0,0,0-3.88-4,4.79,4.79,0,0,0-4.66,1.51,4.89,4.89,0,0,0-1.31,3.39,7.15,7.15,0,0,1-1.65,4.58,12.58,12.58,0,0,1-1.1,1.09l-.24.23.21.15a9.82,9.82,0,0,1,4.36,4.64,9.27,9.27,0,0,1,.88,3.73c0,.2,0,.28-.25.27H31.63c-.17,0-.22,0-.23-.23a7.36,7.36,0,0,0-6.56-7.1,7.19,7.19,0,0,0-5.5,1.58,7.32,7.32,0,0,0-2.72,5q0,.3,0,.6c0,.13-.07.17-.19.17h-2c-.19,0-.2-.1-.2-.25a9.74,9.74,0,0,1,.4-2.51,9.85,9.85,0,0,1,4.62-5.77l.38-.22S19.62,34.09,19.64,34.05ZM29,28.12a5,5,0,1,0-4.94,5A4.93,4.93,0,0,0,29,28.12Zm4.85-9.81a2.5,2.5,0,1,0,2.47-2.53A2.49,2.49,0,0,0,33.8,18.31Zm-19.62,0a2.49,2.49,0,1,0-5,0,2.49,2.49,0,1,0,5,0Z" style="fill: #347532"/>
    <path d="M18.09,11.56l1.69-1.7L20,10l3.79,3.84c.17.17.26.16.42,0l8.46-8.47c.06-.06.12-.14.21-.25l1.6,1.78L24,17.31Z" style="fill: #347532"/>
  </g>
</svg>
