<svg id="CURRENT" xmlns="http://www.w3.org/2000/svg" xmlns:xlink="http://www.w3.org/1999/xlink" viewBox="0 0 48 48">
  <defs>
    <linearGradient id="linear-gradient" x1="4.33" y1="-119.23" x2="43" y2="-119.23" gradientTransform="matrix(1, 0, 0, -1, 0, -94)" gradientUnits="userSpaceOnUse">
      <stop offset="0.36" stop-color="#6100a5"/>
      <stop offset="0.46" stop-color="#7001a0"/>
      <stop offset="0.64" stop-color="#980293"/>
      <stop offset="0.89" stop-color="#d9057e"/>
      <stop offset="0.97" stop-color="#ed0677"/>
    </linearGradient>
  </defs>
  <title>myobaccountingright </title>
  <path d="M24.35,15.05a11.08,11.08,0,0,0-8.76-3.88C8.1,11.12,3.22,16.45,3.22,23.4V39.33h2.3c1.58-.09,4.65-.86,4.74-5.41V23.26A5,5,0,0,1,15.59,18c4.65,0,5.14,3.7,5.14,5.23V39.33H23c1.53-.09,4.6-.86,4.74-5.37V23.26A5.06,5.06,0,0,1,33.1,18c4.65,0,5.19,3.7,5.19,5.23V39.33h2.3c1.58-.09,4.7-.86,4.74-5.5V23.4c0-7.22-4.56-12.28-12.23-12.28a11.5,11.5,0,0,0-8.75,3.93" style="fill: url(#linear-gradient)"/>
</svg>
