<svg xmlns="http://www.w3.org/2000/svg" viewBox="0 0 48 48"><title>netsuite</title><path d="M3.68,3.76H29.52v22c-.08,0-.21-.16-.31-.28-3-3.88-6.09-7.65-9.18-11.61-.21-.27-.47-.7-.66-.76a9.22,9.22,0,0,0-2,0H3.64V3.86S3.64,3.76,3.68,3.76Z" style="fill:#194072;fill-rule:evenodd"/><path d="M45.18,34.1v9.39c-8.59,0-17.27,0-25.81,0V21.6c0-.06,0-.07,0,0,3.17,3.81,6.13,7.83,9.28,11.82a3.43,3.43,0,0,0,.66.72,9,9,0,0,0,2,0Z" style="fill:#194072;fill-rule:evenodd"/><polygon points="31.34 5.69 31.34 13.22 35.39 13.22 35.39 32.55 43.4 32.55 43.4 13.22 43.4 6.46 43.4 5.69 31.34 5.69" style="fill:#aebdcc"/><polygon points="17.57 41.63 17.57 34.09 13.52 34.09 13.52 14.76 5.51 14.76 5.51 34.09 5.51 40.85 5.51 41.63 17.57 41.63" style="fill:#aebdcc"/></svg>