<svg xmlns="http://www.w3.org/2000/svg" viewBox="0 0 48 48"><title>ofx</title><path d="M19.57,24.1a8.4,8.4,0,0,1-8.49,8.79,8.4,8.4,0,0,1-8.57-8.71A8.38,8.38,0,0,1,11,15.42,8.37,8.37,0,0,1,19.57,24.1Zm-3.6,0c0-4-2.14-6-5-6s-4.91,2.08-4.9,6.06,2.14,6.06,5,6.05S16,28.1,16,24.12Z" style="fill:#2c8727"/><path d="M20.93,32.6l-.08-17,9.69,0v2.68l-6.4,0,0,4.47,5.56,0v2.68l-5.56,0,0,7.17Z" style="fill:#2c8727"/><path d="M40.27,23.71l5.19,8.77-3.88,0-3.14-5.88h0l-3.07,5.91-3.62,0,5-8.63-4.94-8.37,3.88,0L38.49,21h0l2.85-5.48H45Z" style="fill:#2c8727"/></svg>