<svg width="48" height="48" viewBox="0 0 48 48" fill="none" xmlns="http://www.w3.org/2000/svg">
<g clip-path="url(#clip0_1675_11665)">
<path d="M33.6279 39.9884H15.905C15.0584 39.9884 14.3721 39.3021 14.3721 38.4554V8.03293C14.3721 7.18631 15.0584 6.5 15.905 6.5H40.4671C41.3137 6.5 42 7.18631 42 8.03293V14.8721L33.6279 39.9884Z" fill="#CA64EA"/>
<path d="M42 23.2442L37.814 25.7558L33.6279 23.2442V14.8721H42L42 23.2442Z" fill="#AE4BD5"/>
<path d="M42 31.6163L37.814 34.1279L33.6279 31.6163V23.2442H42V31.6163Z" fill="#9332BF"/>
<path d="M33.6279 31.6163H42V38.4186C42 39.2856 41.2972 39.9884 40.4302 39.9884H33.6279V31.6163Z" fill="#7719AA"/>
<path opacity="0.2" d="M24.5584 13.1977H14.3721V34.1279H24.5584C25.4048 34.1252 26.0903 33.4397 26.093 32.5933V14.7323C26.0903 13.8859 25.4048 13.2004 24.5584 13.1977Z" fill="black"/>
<path opacity="0.2" d="M23.7212 14.0349H14.3721V34.9651H23.7212C24.5676 34.9624 25.253 34.2769 25.2558 33.4305V15.5695C25.2531 14.7231 24.5676 14.0376 23.7212 14.0349Z" fill="black"/>
<path opacity="0.5" d="M23.7212 14.0349H14.3721V33.2907H23.7212C24.5676 33.2879 25.253 32.6025 25.2558 31.7561V15.5695C25.2531 14.7231 24.5676 14.0376 23.7212 14.0349Z" fill="black"/>
<path opacity="0.5" d="M22.884 14.0349H14.3721V33.2907H22.884C23.7304 33.2879 24.4158 32.6025 24.4186 31.7561V15.5695C24.4158 14.7231 23.7304 14.0376 22.884 14.0349Z" fill="black"/>
<path d="M7.53461 14.0349H22.884C23.7315 14.0349 24.4186 14.722 24.4186 15.5695V30.9189C24.4186 31.7664 23.7315 32.4535 22.884 32.4535H7.53461C6.68707 32.4535 6 31.7664 6 30.9189V15.5695C6 14.722 6.68707 14.0349 7.53461 14.0349Z" fill="url(#paint0_linear_1675_11665)"/>
<path d="M11.045 18.2561H13.1255L17.2136 24.8701C17.3994 25.1664 17.539 25.405 17.6322 25.5859H17.659C17.6084 25.1356 17.5883 24.6825 17.5987 24.2296V18.2561H19.3736V28.2323H17.4262L13.1849 21.435C13.0413 21.2107 12.9148 20.9759 12.8065 20.7326H12.773C12.8158 21.2276 12.8334 21.7244 12.8258 22.2211V28.2323H11.045V18.2561Z" fill="white"/>
</g>
<defs>
<linearGradient id="paint0_linear_1675_11665" x1="9.19968" y1="12.8358" x2="21.2189" y2="33.6526" gradientUnits="userSpaceOnUse">
<stop stop-color="#8324B3"/>
<stop offset="0.5" stop-color="#7A1BAC"/>
<stop offset="1" stop-color="#621197"/>
</linearGradient>
<clipPath id="clip0_1675_11665">
<rect width="36" height="33.4884" fill="white" transform="translate(6 6.5)"/>
</clipPath>
</defs>
</svg>
