<svg id="Layer_1" data-name="Layer 1" xmlns="http://www.w3.org/2000/svg" viewBox="0 0 48 48">
  <title>onepointprojects</title>
  <g>
    <rect x="4.76" y="4.76" width="39.99" height="39.99" style="fill: #3f94cd"/>
    <g>
      <path d="M8.23,24.75l3.37-1.56,3.55,1.56A8.59,8.59,0,0,1,17.65,18c2.55-2.51,4.19-2.87,7.06-3.05l1.73-3.19L24.62,8.17c-5.92,0-8.65,2-11.11,4.46A17.84,17.84,0,0,0,8.23,24.75Z" style="fill: #94cef1"/>
      <path d="M24.82,41.13c-1.57-3.37-1.57-3.33-1.57-3.33l1.37-3.23A8.42,8.42,0,0,1,18,31.84C15.06,29,15.18,26.6,15.18,26.6l-3.4-1.85L8.23,26.58c0,1.71,2,7,4.46,9.45A16.64,16.64,0,0,0,24.82,41.13Z" style="fill: #a9dbf6"/>
      <path d="M41.19,24.65c-3.37,1.56-3.33,1.56-3.33,1.56l-3.23-1.36a8.4,8.4,0,0,1-2.73,6.64c-2.82,2.92-5.24,2.79-5.24,2.79l-1.84,3.4,1.82,3.55c1.71,0,7-2,9.45-4.46A16.62,16.62,0,0,0,41.19,24.65Z" style="fill: #c2e2f7"/>
      <path d="M28.17,11.58,26.44,15a18.36,18.36,0,0,1,5,2.58c2.91,2.82,2.79,5.24,2.79,5.24l3.4,1.85,3.55-1.82c0-1.72-2-7-4.46-9.46a15.64,15.64,0,0,0-10.29-4.9Z" style="fill: #fff"/>
      <g>
        <path d="M24.75,20.16A4.56,4.56,0,0,0,20.54,23l6-2.45A4.51,4.51,0,0,0,24.75,20.16Z" style="fill: #94cef3"/>
        <path d="M28.74,22.52,20.36,26a4.89,4.89,0,0,0,.41,1l8.38-3.43A4.58,4.58,0,0,0,28.74,22.52Z" style="fill: #94cef3"/>
        <path d="M27.42,21,20.26,24a3.84,3.84,0,0,0-.07.76c0,.14,0,.28,0,.42l8.07-3.3A4.4,4.4,0,0,0,27.42,21Z" style="fill: #94cef3"/>
        <path d="M23.12,29a4.67,4.67,0,0,0,1.63.3,4.56,4.56,0,0,0,4.15-2.67Z" style="fill: #94cef3"/>
        <path d="M29.31,24.72c0-.13,0-.25,0-.38l-8,3.3a4.76,4.76,0,0,0,.94.85l7-2.88A4.33,4.33,0,0,0,29.31,24.72Z" style="fill: #94cef3"/>
      </g>
    </g>
  </g>
</svg>
