<?xml version="1.0" encoding="utf-8"?>
<!-- Generator: Adobe Illustrator 22.1.0, SVG Export Plug-In . SVG Version: 6.00 Build 0)  -->
<svg version="1.1" id="Layer_1" xmlns="http://www.w3.org/2000/svg" xmlns:xlink="http://www.w3.org/1999/xlink" x="0px" y="0px"
	 viewBox="0 0 48 48" style="enable-background:new 0 0 48 48;" xml:space="preserve">
<path d="M10,38.7c0,0,0.4-1,0.8-1.2c0.4-0.1,1.1,0.1,0.9-0.8s0.9-1.4,0.6-1.8c-0.3-0.4-1.1-0.8-1.8-0.9c-0.7-0.1-1.6,0-1.6-0.7
	c0-0.7-0.6-0.2-0.9-1.2c-0.3-0.9-1.2-1.7-1.6-2s-1.2-2-2.2-1.7S5.1,34.8,10,38.7z"/>
<path d="M3.3,20.3c0,0,0.4-4.6,3.5-8.8c0,0,2.2,0.8,2.4,1.7s-1.3,0.7-1.7,2s-0.9,3.2-1.4,3.9c-0.5,0.7-2.4,2.2-2.7,1.4"/>
<path d="M15.1,4.4c0,0-4.8,2.9-5.1,3.4s-0.1,2.9,1.3,2.3c1.4-0.6,1.6-1.3,2.4-2c0.8-0.7,1.3-1.8,2-2.4C16.5,5.2,17.9,4.1,15.1,4.4z"
	/>
<path d="M20.5,6.6c0,0,0.4,1.4-0.1,1.5c-0.5,0.1-1.9,0.4-1.6,1s1.6,0.5,2.4,0.4C22,9.3,23,8.8,22.8,8.3c-0.2-0.5-1.1-0.7-1.2-1
	S20.9,6.2,20.5,6.6z"/>
<path d="M21.9,11.7c-0.5,0-0.9,0.9-1.2,0.8c-0.4-0.1-0.9-0.9-1.1-0.1s-0.6,1.5,0.3,2s2.2,0.8,2.3-0.1s0.7-1.6,1.6-1.8
	c0.9-0.2,2.1-0.9,2.3-0.6c0.2,0.4,1.2,1.6,1.2,1.6l0.9,0.2c0,0-1.2-1-1-1.7c0.2-0.7,1.8,0.4,2.3,1.2s1.4,0.9,2.1,0.4
	c0.7-0.5,0.7-1.9,1.7-2.2c1-0.4,2-0.9,2.2-0.5s-0.7,1.1,0,1.2s2,1.2,1.2,1.4s-1.6,0-2.7,0s-1.7,0.5-1.2,1.2c0.4,0.7,0.2,1.5,1,1.4
	c0.8-0.1,0.5-1,0.9-0.6c0.4,0.4,0.1,1.7,0.1,1.7c0.1,1.3,1.4,2.2,2,3.1c0.6,0.9,1.7,2.2,1.6,2.8c-0.1,0.6,0.6,0.9,1.1,0.7
	c0.5-0.3,1.3-0.8,2-1.3c0.7-0.5,1.9-1.2,0.9-1.5c-1-0.3-3.1-0.9-3.2-1.6c-0.1-0.7,0.4-3,1.4-1.4c1,1.6,2.1,2.2,2.4,2.2
	c0.3,0,0.6,0.2,1.7,1.2c1.1,0.9,0.4,2.6,1.1,2.5c0.7-0.1-0.6-12.1-9.4-18.4c0,0,0,0.6-1.5,0.1c-1.5-0.5-1.2-1.4-1.9-1.3
	c-0.7,0.1-1.3,0.2-2.5,0.1c-1.2-0.1-1.9,0-3.6,0.3s-2,0.8-1.8,1.3c0.2,0.5,1.2,0.5,1.4,0.9c0.2,0.4,0.5,1.8,1.2,1.3s1.1-1.4,1.6-0.8
	c0.5,0.6-2.4,1.4-2.5,1.1s-0.3,0.1-0.8-0.2c-0.5-0.3-0.6-0.3-1.3,0.6S22.1,9,22,10.1S21.9,11.7,21.9,11.7z"/>
<path d="M39.5,32.8c0,0-0.3,2.4-0.7,2.7c-0.4,0.4,0.1,0.9-0.7,1.3s-1.5-0.1-1.5-0.7s0.4-0.8,0.5-1.3c0.1-0.5,0.8-0.9,1.1-1.4
	C38.4,32.9,39.5,32.8,39.5,32.8z"/>
<path d="M39,26.4l-2.7,3.2c-0.1,0.1-0.1,0.2-0.1,0.3L36,31.5c0,0.2,0,0.3,0.2,0.4l0.2,0.2c0.1,0.1,0.2,0.4,0.1,0.6L36,34.1
	c0,0.1-0.1,0.2-0.2,0.3l-1.2,0.9c-0.1,0.1-0.2,0.2-0.2,0.3l-0.5,2c0,0.2-0.2,0.3-0.4,0.4l-0.9,0.2c-0.2,0.1-0.4,0.3-0.4,0.5V39
	c0,0.2-0.1,0.4-0.3,0.5L30.6,40c0,0-0.1,0-0.1,0L29,40.2c-0.3,0-0.5-0.2-0.6-0.4L28.1,38c0,0,0-0.1,0-0.1l-0.6-1.5
	c0,0,0-0.1-0.1-0.1l-0.9-1.1c-0.2-0.2-0.2-0.5,0-0.7l1-1c0.1-0.1,0.2-0.3,0.2-0.4l-0.1-0.8h-0.5l0.1-1.4c0-0.2-0.1-0.5-0.4-0.5
	L26,30.1c-0.3-0.1-0.4-0.3-0.4-0.6l0.2-1.6c0.1-0.4-0.2-0.7-0.6-0.6l-0.9,0.1c-0.3,0-0.6-0.2-0.6-0.4v0c-0.1-0.4-0.5-0.6-0.8-0.4
	l-1.8,0.9c-0.1,0-0.2,0.1-0.2,0.1h-1.4c-0.2,0-0.3-0.1-0.4-0.2l-3-3.6c-0.1-0.1-0.1-0.2-0.1-0.4l0.1-3c0-0.2,0.1-0.3,0.2-0.4
	l2.7-2.3c0.1-0.1,0.1-0.1,0.2-0.2l0.4-1.2c0.1-0.2,0.2-0.3,0.4-0.4l2.1-0.2c0.1,0,0.3-0.1,0.3-0.2l0.3-0.4c0.1-0.1,0.3-0.2,0.4-0.2
	l2.3,0.2c0.3,0,0.5,0.3,0.5,0.6l0,0.6c0,0.1,0,0.3,0.1,0.4l0.8,0.9c0.1,0.1,0.3,0.2,0.5,0.2l2.2-0.4c0,0,0.1,0,0.1,0l2.4,0.1
	c0.1,0,0.1,0,0.2,0.1l1.4,0.7c0.1,0,0.2,0.1,0.2,0.2l1.3,2.4c0,0,0,0.1,0.1,0.1l0.6,2.6c0,0.1,0.1,0.3,0.3,0.3l2.6,1.5
	C39.2,25.7,39.3,26.1,39,26.4z"/>
</svg>
