<svg width="48" height="48" viewBox="0 0 48 48" fill="none" xmlns="http://www.w3.org/2000/svg">
<g clip-path="url(#clip0_104_8839)">
<path d="M41.1051 14.203C41.1051 13.9853 41.28 13.8104 41.4977 13.8104C41.7189 13.8104 41.8937 13.9853 41.8937 14.203C41.8937 14.4241 41.7189 14.599 41.4977 14.599C41.28 14.599 41.1051 14.4241 41.1051 14.203ZM20.9863 16.6218H23.28L22.068 14.671L19.8429 18.199H18.8297L21.5366 13.9613C21.6549 13.7898 21.8503 13.687 22.068 13.687C22.2789 13.687 22.4743 13.7864 22.5891 13.9544L25.308 18.199H24.2949L23.8166 17.4104H21.4937L20.988 16.6218H20.9863ZM31.5103 17.4104V13.7298H30.6514V17.7721C30.6514 17.8836 30.6943 17.9898 30.7766 18.0721C30.8589 18.1544 30.9686 18.2007 31.0903 18.2007H35.0109L35.5166 17.4121H31.5103V17.4104ZM17.2886 16.7504C18.1234 16.7504 18.8006 16.0767 18.8006 15.2418C18.8006 14.407 18.1234 13.7298 17.2886 13.7298H13.5274V18.199H14.3863V14.5184H17.2303C17.6297 14.5184 17.9503 14.8424 17.9503 15.2418C17.9503 15.6413 17.6297 15.9653 17.2303 15.9653L14.8063 15.9618L17.3726 18.199H18.6206L16.8943 16.7504H17.2869H17.2886ZM8.23714 18.199C7.00285 18.199 6.00171 17.1996 6.00171 15.9653C6.00171 14.731 7.00285 13.7281 8.23714 13.7281H10.836C12.0703 13.7281 13.0714 14.731 13.0714 15.9653C13.0714 17.1996 12.0703 18.199 10.836 18.199H8.23714ZM10.7777 17.4104C11.5766 17.4104 12.2246 16.7641 12.2246 15.9653C12.2246 15.1664 11.5766 14.5167 10.7777 14.5167H8.29542C7.49657 14.5167 6.84857 15.1664 6.84857 15.9653C6.84857 16.7641 7.49657 17.4104 8.29542 17.4104H10.7777ZM27.1029 18.199C25.8686 18.199 24.8657 17.1996 24.8657 15.9653C24.8657 14.731 25.8686 13.7281 27.1029 13.7281H30.1886L29.6863 14.5167H27.1611C26.3623 14.5167 25.7126 15.1664 25.7126 15.9653C25.7126 16.7641 26.3623 17.4104 27.1611 17.4104H30.2606L29.7549 18.199H27.1046H27.1029ZM37.6149 17.4104C36.9549 17.4104 36.3943 16.9681 36.2229 16.3578H39.8966L40.4023 15.5693H36.2211C36.3926 14.9624 36.9531 14.5167 37.6131 14.5167H40.1349L40.6457 13.7281H37.5566C36.3223 13.7281 35.3194 14.731 35.3194 15.9653C35.3194 17.1996 36.3223 18.199 37.5566 18.199H40.2069L40.7126 17.4104H37.6131H37.6149ZM41.4994 14.7104C41.7771 14.7104 42.0017 14.4858 42.0017 14.2081C42.0017 13.9304 41.7771 13.7058 41.4994 13.7058C41.2251 13.7058 41.0006 13.9304 41.0006 14.2081C41.0006 14.4858 41.2251 14.7104 41.4994 14.7104ZM41.4531 13.9081C41.532 13.9081 41.5646 13.9116 41.5989 13.9253C41.6983 13.9578 41.7103 14.047 41.7103 14.083C41.7103 14.0898 41.7103 14.1087 41.7034 14.1293C41.7 14.1498 41.6863 14.1927 41.6349 14.2253C41.628 14.2287 41.6246 14.2321 41.6091 14.239L41.7377 14.4704H41.6126L41.4977 14.2561H41.4189V14.4704H41.3074V13.9064H41.4497L41.4531 13.9081ZM41.4926 14.1653C41.5286 14.1618 41.5646 14.1618 41.5851 14.1293C41.5954 14.1156 41.5989 14.1001 41.5989 14.0796C41.5989 14.0504 41.5817 14.0264 41.556 14.011C41.5303 14.0007 41.5063 14.0007 41.4531 14.0007H41.4206V14.1653H41.4926Z" fill="#C74634"/>
</g>
<path fill-rule="evenodd" clip-rule="evenodd" d="M41.8707 20.0118H6.12929V19.7868H41.8707V20.0118Z" fill="black"/>
<path d="M10.7896 23.7421C10.7896 23.1171 10.3198 22.7895 9.7164 22.7895C9.0785 22.7895 8.42336 23.1042 8.42336 23.8153C8.42336 24.367 9.01816 24.5653 9.45348 24.673C9.72071 24.742 10.1647 24.7679 10.1647 25.1342C10.1647 25.4661 9.81122 25.548 9.54399 25.548C9.19487 25.548 8.99661 25.3153 9.02247 24.9704H8.34147C8.31992 25.7549 8.8242 26.0307 9.53537 26.0307C10.2034 26.0307 10.8758 25.7635 10.8758 24.992C10.8758 24.367 10.1776 24.2334 9.70347 24.1127C9.43624 24.0481 9.13453 24.0093 9.13453 23.6731C9.13453 23.4016 9.38452 23.2723 9.63019 23.2723C9.95345 23.2723 10.1215 23.4274 10.1474 23.7421H10.7896Z" fill="black"/>
<path d="M13.4231 22.8542V24.5437C13.4231 25.0696 13.3972 25.548 12.7421 25.548C12.0869 25.548 12.0611 25.0696 12.0611 24.5437V22.8542H11.393V24.8023C11.393 25.6299 11.9878 26.0307 12.7421 26.0307C13.4963 26.0307 14.0911 25.6299 14.0911 24.8023V22.8542H13.4231Z" fill="black"/>
<path d="M15.3683 25.9661V24.7679H15.8554C16.5493 24.7463 16.9329 24.3756 16.9329 23.811C16.9329 23.0223 16.351 22.8585 15.6614 22.8542H14.7002V25.9661H15.3683ZM15.3683 23.3714C15.739 23.3886 16.2217 23.2593 16.2217 23.811C16.2217 24.3627 15.739 24.2334 15.3683 24.2507V23.3714Z" fill="black"/>
<path d="M18.0032 25.9661V24.7679H18.4903C19.1842 24.7463 19.5678 24.3756 19.5678 23.811C19.5678 23.0223 18.9859 22.8585 18.2963 22.8542H17.3351V25.9661H18.0032ZM18.0032 23.3714C18.3739 23.3886 18.8566 23.2593 18.8566 23.811C18.8566 24.3627 18.3739 24.2334 18.0032 24.2507V23.3714Z" fill="black"/>
<path d="M22.0044 25.9661V25.4489H20.6554V22.8542H19.9873V25.9661H22.0044Z" fill="black"/>
<path d="M23.1883 25.9661H23.8563V24.9489L24.9037 22.8542H24.2184L23.5632 24.2808L22.921 22.8542H22.1409L23.1883 24.9489V25.9661Z" fill="black"/>
<path d="M28.9178 23.8627C28.8876 23.0826 28.3273 22.7895 27.6118 22.7895C26.711 22.7895 26.3058 23.5007 26.3058 24.4101C26.3058 25.3196 26.711 26.0307 27.6118 26.0307C28.3273 26.0307 28.8876 25.7376 28.9178 24.9575H28.2066C28.2109 25.2851 28.0126 25.548 27.6118 25.548C27.1377 25.548 27.017 24.8454 27.017 24.4101C27.017 23.9748 27.1377 23.2723 27.6118 23.2723C28.0126 23.2723 28.2109 23.5352 28.2066 23.8627H28.9178Z" fill="black"/>
<path d="M29.9996 25.9661V24.5998H31.1848V25.9661H31.8529V22.8542H31.1762V24.0826H29.9996V22.8542H29.3315V25.9661H29.9996Z" fill="black"/>
<path d="M32.8385 25.9661L33.0713 25.3066H34.304L34.5281 25.9661H35.2005L34.1187 22.8542H33.3256L32.2006 25.9661H32.8385ZM33.2437 24.7894L33.7006 23.4619H33.7092L34.1359 24.7894H33.2437Z" fill="black"/>
<path d="M36.1904 22.8542H35.5224V25.9661H36.1904V22.8542Z" fill="black"/>
<path d="M39.5494 25.9661V22.8542H38.9244V25.2937L38.9158 25.3023L37.7305 22.8542H36.7392V25.9661H37.3642V23.3886L37.3728 23.38L38.6012 25.9661H39.5494Z" fill="black"/>
<path d="M10.977 28.5138L10.9856 28.5224V31.1861H11.6106V28.0742H10.5546L9.84777 30.337H9.83915L9.18832 28.0742H8.09355V31.1861H8.71852V28.5224L8.72714 28.5138L9.55037 31.1861H10.1064L10.977 28.5138Z" fill="black"/>
<path d="M12.5991 31.1861L12.8318 30.5266H14.0645L14.2886 31.1861H14.961L13.8792 28.0742H13.0861L11.9612 31.1861H12.5991ZM13.0042 30.0094L13.4611 28.6819H13.4697L13.8964 30.0094H13.0042Z" fill="black"/>
<path d="M18.1103 31.1861V28.0742H17.4854V30.5137L17.4768 30.5223L16.2915 28.0742H15.3001V31.1861H15.9251V28.6086L15.9337 28.6L17.1621 31.1861H18.1103Z" fill="black"/>
<path d="M19.0643 31.1861L19.297 30.5266H20.5297L20.7538 31.1861H21.4262L20.3444 28.0742H19.5513L18.4264 31.1861H19.0643ZM19.4694 30.0094L19.9263 28.6819H19.9349L20.3616 30.0094H19.4694Z" fill="black"/>
<path d="M23.8514 30.0439V30.699C23.6747 30.7335 23.498 30.768 23.2308 30.768C22.6403 30.768 22.3558 30.3327 22.3558 29.6301C22.3558 28.9276 22.6403 28.4923 23.2308 28.4923C23.5971 28.4923 23.8557 28.6259 23.8557 29.0224H24.5669C24.5626 28.2811 24.0066 28.0095 23.1058 28.0095C22.4894 28.0095 21.6446 28.3931 21.6446 29.6301C21.6446 30.8671 22.4894 31.2507 23.1058 31.2507C23.5152 31.2507 23.6704 31.2335 23.8213 31.2206C24.0626 31.199 24.2911 31.1559 24.5195 31.0826V29.5267H23.2437V30.0439H23.8514Z" fill="black"/>
<path d="M25.0855 31.1861H27.219V30.6689H25.7536V29.837H27.0811V29.3198H25.7536V28.5914H27.1716V28.0742H25.0855V31.1861Z" fill="black"/>
<path d="M30.6125 28.5138L30.6211 28.5224V31.1861H31.2461V28.0742H30.1901L29.4832 30.337H29.4746L28.8238 28.0742H27.729V31.1861H28.354V28.5224L28.3626 28.5138L29.1858 31.1861H29.7418L30.6125 28.5138Z" fill="black"/>
<path d="M31.7906 31.1861H33.9241V30.6689H32.4587V29.837H33.7862V29.3198H32.4587V28.5914H33.8767V28.0742H31.7906V31.1861Z" fill="black"/>
<path d="M37.2702 31.1861V28.0742H36.6452V30.5137L36.6366 30.5223L35.4513 28.0742H34.46V31.1861H35.0849V28.6086L35.0936 28.6L36.322 31.1861H37.2702Z" fill="black"/>
<path d="M37.5862 28.5914H38.5129V31.1861H39.1809V28.5914H40.1076V28.0742H37.5862V28.5914Z" fill="black"/>
<defs>
<clipPath id="clip0_104_8839">
<rect width="36" height="4.51251" fill="white" transform="translate(6 13.685)"/>
</clipPath>
</defs>
</svg>
