<svg id="Layer_1" data-name="Layer 1" xmlns="http://www.w3.org/2000/svg" viewBox="0 0 48 48"><defs><style>.cls-1{fill:#ec1c2e;}</style></defs><title>oraclefinancialscloud</title><path class="cls-1" d="M36.51,31.83a1.38,1.38,0,1,1,0-2.76c3.35,0,4.87-3,4.88-5.72a5.35,5.35,0,0,0-2-4.11,6.1,6.1,0,0,0-4.77-1.43l-1.24.2-.32-1.22a5.18,5.18,0,0,0-2.62-3.25,5.58,5.58,0,0,0-4.31-.29l-1.09.31-.51-1A5.42,5.42,0,0,0,21.35,10a5.18,5.18,0,0,0-4,.26,5.77,5.77,0,0,0-2.94,6.28l.21,1.57H13c-1.54,0-5.31,1.9-5.31,5.42a5.66,5.66,0,0,0,5.85,5.58,1.38,1.38,0,1,1,0,2.76A8.46,8.46,0,0,1,5,23.49c0-4.46,3.78-7.21,6.61-8A8.3,8.3,0,0,1,16,7.79a8,8,0,0,1,6.15-.46,8.36,8.36,0,0,1,4.29,3,7.77,7.77,0,0,1,5.37.77A8.18,8.18,0,0,1,35.4,15a8.93,8.93,0,0,1,5.83,2.16,8.09,8.09,0,0,1,2.92,6.21C44.14,28.26,40.93,31.83,36.51,31.83Z"/><path class="cls-1" d="M30.31,21.27H20.65a1.19,1.19,0,0,0-1.19,1.19V37.68a1.19,1.19,0,0,0,1.19,1.2h9.66a1.2,1.2,0,0,0,1.2-1.2V22.46A1.2,1.2,0,0,0,30.31,21.27Zm-10,1.86a.91.91,0,0,1,.95-.87H29.6a.9.9,0,0,1,.94.87v2.72a.91.91,0,0,1-.94.87H21.23a.92.92,0,0,1-.95-.87Zm1.56,7.13H20.28V28.71h1.56Zm2.16,0H22.45V28.71H24Zm2.16,0H24.61V28.71h1.55Zm2.17,0H26.78V28.71h1.55Zm2.16,0H28.94V28.71h1.55Zm-8.65,2.37H20.28V31.07h1.56Zm2.16,0H22.45V31.07H24Zm2.16,0H24.61V31.07h1.55Zm2.17,0H26.78V31.07h1.55Zm2.16,0H28.94V31.07h1.55ZM21.84,35H20.28V33.44h1.56ZM24,35H22.45V33.44H24Zm2.16,0H24.61V33.44h1.55Zm2.17,0H26.78V33.44h1.55Zm2.16,2.37H28.94V33.44h1.55Zm-8.65,0H20.28V35.81h1.56Zm2.16,0H22.45V35.81H24Zm2.16,0H24.61V35.81h1.55Zm2.17,0H26.78V35.81h1.55Z"/></svg>