<svg id="CURRENT" xmlns="http://www.w3.org/2000/svg" viewBox="0 0 48 48">
  <title>parquet</title>
  <path d="M21.92,39.52c-1.66-1.78-1.71-1.85-1.41-2.19.47-.53,20.67-19,21-19.18a9.11,9.11,0,0,1,3.26,1.57c.21.21-1.4,1.93-10.18,10.89C28.82,36.46,24,41.27,23.88,41.3a9.28,9.28,0,0,1-2-1.78Z" style="fill: #50abf1"/>
  <path d="M17.33,34.06c-.89-.9-1.46-1.61-1.4-1.76s11.71-9.65,11.93-9.64a15.48,15.48,0,0,1,3,2.28c0,.2-11.67,10.63-11.9,10.63A15.28,15.28,0,0,1,17.33,34.06Z" style="fill: #50abf1"/>
  <path d="M13.09,29.73C12.39,29,12,28.31,12,28.23c.49-.46,5.54-4,5.71-4a12.17,12.17,0,0,1,2.71,2.32,40.5,40.5,0,0,1-5.84,4.49,5.62,5.62,0,0,1-1.53-1.35Z" style="fill: #50abf1"/>
  <path d="M9.61,26.16c-1-1-1.12-1.21-.89-1.42S25.09,14.08,25.42,14a6.66,6.66,0,0,1,2.48,1.5c0,.18-16.45,11.7-16.85,11.8C10.89,27.3,10.29,26.84,9.61,26.16Z" style="fill: #50abf1"/>
  <path d="M20.32,24.52a4.78,4.78,0,0,1-1.2-1.21,5.18,5.18,0,0,1,1.3-1.12c.71-.49,3.9-2.77,7.08-5.06S33.42,13,33.58,13a6.62,6.62,0,0,1,2.53,1.46c-.1.3-14,11.09-14.31,11.09A5.53,5.53,0,0,1,20.32,24.52Z" style="fill: #50abf1"/>
  <path d="M6.38,22.91c-.79-.84-.9-1-.7-1.23S15.8,15.65,17,15a6.42,6.42,0,0,1,2.24,1.62c-.08.26-11.29,7.3-11.62,7.3A3.87,3.87,0,0,1,6.38,22.91Z" style="fill: #50abf1"/>
  <path d="M30.42,23A9.12,9.12,0,0,1,29,21.84c-.05-.15,6.55-5.63,8-6.68.29-.21.52-.14,1.77.52a4.75,4.75,0,0,1,1.43,1,101.31,101.31,0,0,1-8.22,7.23A4.82,4.82,0,0,1,30.42,23Z" style="fill: #50abf1"/>
  <path d="M3.71,20.07l-1-1,.42-.27c.24-.15,5-2.74,10.54-5.75l10.1-5.47,1,.48c.53.26,1,.56,1,.67S5,21,4.71,21C4.69,21,4.23,20.6,3.71,20.07Z" style="fill: #50abf1"/>
  <path d="M19.25,15.19c-.47-.35-.86-.73-.85-.85a37.05,37.05,0,0,1,4.2-2.68l4.21-2.48,1.08.57a3.69,3.69,0,0,1,1.08.72,94.45,94.45,0,0,1-8.58,5.36,3.41,3.41,0,0,1-1.14-.64Z" style="fill: #50abf1"/>
  <path d="M27.67,14.12c-.56-.35-1-.73-1-.85A16.42,16.42,0,0,1,30,11a7.65,7.65,0,0,1,2.3,1.22c0,.07-.06.26-.23.41a21.81,21.81,0,0,1-3.16,2.1,5.93,5.93,0,0,1-1.23-.64Z" style="fill: #50abf1"/>
</svg>
