<svg id="Layer_1" data-name="Layer 1" xmlns="http://www.w3.org/2000/svg" xmlns:xlink="http://www.w3.org/1999/xlink" viewBox="0 0 48 48"><defs><style>.cls-1{fill:url(#linear-gradient);}.cls-2{fill:url(#linear-gradient-3);}.cls-3{fill:url(#linear-gradient-4);}.cls-4{fill:url(#linear-gradient-6);}</style><linearGradient id="linear-gradient" x1="5.14" y1="40.65" x2="43.83" y2="40.65" gradientTransform="translate(0 -27.37)" gradientUnits="userSpaceOnUse"><stop offset="0.05" stop-color="#f97909"/><stop offset="1" stop-color="#e0001a"/></linearGradient><linearGradient id="linear-gradient-3" x1="140.98" y1="-643.89" x2="183.86" y2="-643.89" gradientTransform="translate(-137.56 657.39)" xlink:href="#linear-gradient"/><linearGradient id="linear-gradient-4" x1="957.14" y1="91.7" x2="995.83" y2="91.7" gradientTransform="translate(999.69 124.02) rotate(180)" xlink:href="#linear-gradient"/><linearGradient id="linear-gradient-6" x1="1092.98" y1="-592.83" x2="1135.86" y2="-592.83" gradientTransform="translate(1137.25 -560.74) rotate(180)" xlink:href="#linear-gradient"/></defs><title>paylocity</title><path class="cls-1" d="M18.43,18.94c0-6.8,4.58-14.17,10-14.17,10.88,0,14.89,12.45,14.89,17h-13S27.17-2.18,18.43,18.94Z"/><path class="cls-1" d="M18.43,18.94c0-6.8,4.58-14.17,10-14.17,10.88,0,14.89,12.45,14.89,17h-13S27.17-2.18,18.43,18.94Z"/><path class="cls-2" d="M4.35,22.11H16S15.66,9.57,23.68,4.89C5,4.89,4.35,18.43,4.35,22.11Z"/><path class="cls-3" d="M29.26,26.66c0,6.8-4.58,14.17-10,14.17-10.88,0-14.89-12.45-14.89-17h13S20.53,47.78,29.26,26.66Z"/><path class="cls-3" d="M29.26,26.66c0,6.8-4.58,14.17-10,14.17-10.88,0-14.89-12.45-14.89-17h13S20.53,47.78,29.26,26.66Z"/><path class="cls-4" d="M43.35,23.49H31.75S32,36,24,40.71C42.73,40.71,43.35,27.17,43.35,23.49Z"/></svg>