<svg id="Layer_1" data-name="Layer 1" xmlns="http://www.w3.org/2000/svg" viewBox="0 0 48 48">
  <title>paymo</title>
  <circle cx="24" cy="24" r="19.33" style="fill: #00cbb5"/>
  <g>
    <path d="M25.31,13.07a.69.69,0,0,1,.23-.5.65.65,0,0,1,.52-.16,9.34,9.34,0,1,1-5.75,17.43V34.5a1.16,1.16,0,0,1-1.16,1.17h-2.5a1.16,1.16,0,0,1-1.17-1.17V20.91a.34.34,0,0,1,.18-.3.36.36,0,0,1,.35,0l6.2,4.69a4.41,4.41,0,0,0,2.6.84,4.51,4.51,0,0,0,1-8.89.65.65,0,0,1-.52-.64V13.07Z" style="fill: #fff"/>
    <path d="M17.61,15.36a.69.69,0,0,0,.5.12.74.74,0,0,0,.44-.28,7.76,7.76,0,0,1,5-2.86.62.62,0,0,1,.52.16.63.63,0,0,1,.23.5v3.64a.66.66,0,0,1-.52.65,4.48,4.48,0,0,0-3.48,4.37h0a.5.5,0,0,1-.27.44.51.51,0,0,1-.52-.05l-3.78-2.85a.67.67,0,0,1-.26-.53v-4.2a.34.34,0,0,1,.18-.3.37.37,0,0,1,.35,0Z" style="fill: #abfe8a"/>
  </g>
</svg>
