<svg xmlns="http://www.w3.org/2000/svg" viewBox="0 0 48 48"><title>paypal</title><path d="M38.29,14.1c.51-3.27,0-5.49-1.77-7.51-2-2.21-5.46-3.16-10-3.16h-13A1.88,1.88,0,0,0,11.66,5L6.23,39.47a1.12,1.12,0,0,0,1.11,1.3h8.05l-.55,3.52a1,1,0,0,0,1,1.14H22.6a1.63,1.63,0,0,0,1.61-1.38l.07-.35,1.28-8.11.08-.45a1.64,1.64,0,0,1,1.61-1.38h1c6.58,0,11.73-2.67,13.24-10.4.63-3.23.3-5.93-1.36-7.83a6.36,6.36,0,0,0-1.86-1.43h0" style="fill:#009ade"/><path d="M38.29,14.1c.51-3.27,0-5.49-1.77-7.51-2-2.21-5.46-3.16-10-3.16h-13A1.88,1.88,0,0,0,11.66,5L6.23,39.47a1.12,1.12,0,0,0,1.11,1.3h8.05l2-12.84-.06.4a1.85,1.85,0,0,1,1.83-1.57H23c7.53,0,13.42-3.06,15.14-11.9.05-.26.09-.51.13-.76" style="fill:#002169"/><path d="M19.59,14.14a1.67,1.67,0,0,1,.91-1.22,1.71,1.71,0,0,1,.71-.16H31.44a20.82,20.82,0,0,1,3.37.25l.87.16q.42.09.81.21l.39.12a9.49,9.49,0,0,1,1.41.6c.51-3.27,0-5.49-1.77-7.51-2-2.21-5.46-3.16-10-3.16h-13A1.88,1.88,0,0,0,11.66,5L6.23,39.47a1.12,1.12,0,0,0,1.11,1.3h8.05l2-12.84Z" style="fill:#002f87"/></svg>