<svg xmlns="http://www.w3.org/2000/svg" viewBox="0 0 108 72">
  <defs>
    <style>
      .f2fba6fd-60aa-4259-b057-996288a27655 {
        fill: #00ae01;
      }

      .\34 3b45b39-a70d-4100-a5be-fca8630f1277 {
        fill: #333a40;
      }
    </style>
  </defs>
  <title>payrun.io</title>
  <g id="819dd2b6-56f4-44f9-bd93-b8ecf44fc1d1" data-name="NEED VECTOR">
    <g>
      <path class="f2fba6fd-60aa-4259-b057-996288a27655" d="M17.78,30.41c-1.72-1-8.43-.58-8.43-.58l-2.69,15H10.1l1-5.13a22.4,22.4,0,0,0,3.32-.15c1-.2,4.24-1.17,4.87-3.93S19.5,31.41,17.78,30.41Zm-1.86,3.84c-.14,1.43-.63,3.21-4.5,3l.69-4.76h2.17A1.63,1.63,0,0,1,15.92,34.25Z"/>
      <path class="f2fba6fd-60aa-4259-b057-996288a27655" d="M28.19,36.18c0-.51-.13-1.5-2.49-2.15s-5.64.69-5.64.69l-.3,2.54a7.6,7.6,0,0,1,4.09-1.12,1.11,1.11,0,0,1,1,1.63c-.26.39-2,.16-4.13.74a4.27,4.27,0,0,0-3.05,3.91,2.58,2.58,0,0,0,2.71,2.79,4.25,4.25,0,0,0,3.69-1.72l-.17,1.42h3.18S28.23,36.7,28.19,36.18Zm-5.85,6.63c-2.32,0-1.42-1.94-.95-2.15a5.7,5.7,0,0,1,3.23-.78S24.66,42.76,22.34,42.81Z"/>
      <path class="f2fba6fd-60aa-4259-b057-996288a27655" d="M28.23,34.25s3.14,10.41,2.28,11.44-1.46,1.67-2.32,1.72a2.67,2.67,0,0,1-1.46-.35l-.39,2.5a4.08,4.08,0,0,0,2.54.43c1.5-.22,3.22-1,5.42-5.38S46.08,26.85,62,26.38c0,0,9-.95,21.63,3.31A49.49,49.49,0,0,0,62.42,25C50.55,25.13,42,29.86,33.14,41.9l-1.08-7.74Z"/>
      <path class="43b45b39-a70d-4100-a5be-fca8630f1277" d="M45.2,33.07c-3.71,3-3.85,3.2-3.85,3.2l-1.46,8.56h3.22l1.16-5.68a1.69,1.69,0,0,1,2.15,1c.73,1.5,2.11,4.68,2.11,4.68l4,0-2.45-5.12s-.69-1.46-1.5-1.46c0,0,3.61-1.25,3.91-4.26s-1.42-3.53-1.42-3.53a34.35,34.35,0,0,1,10.15-3.09c-4.09.34-10.44,1.23-15.17,5,0,0,3-.28,3,1.54,0,1.51-.57,2.6-4.26,2.6Z"/>
      <path class="43b45b39-a70d-4100-a5be-fca8630f1277" d="M101.35,37.51a3.44,3.44,0,0,0-2.07-2.83,6.83,6.83,0,0,0-9.61,5c-.63,3.59,1.2,5.74,4.84,5.69A6.68,6.68,0,0,0,101.35,37.51Zm-3.63,3.43c-.84,1.6-2.5,2.38-3.73,1.74s-1.53-2.45-.7-4S95.8,36.25,97,36.89,98.56,39.34,97.72,40.94Z"/>
      <path class="43b45b39-a70d-4100-a5be-fca8630f1277" d="M53.94,34.25s-1.84,8-.92,9.57,1.83,1.37,3,1.38c1.77,0,3.08-1.74,3.23-1.74,0,.59,0,1.42,0,1.42l3.29,0,1.6-10.72-3.21-.11s-.86,5.21-.92,5.85-.46,2.46-2.18,2.63-1.72-1.37-1.6-2.29.92-6,.92-6Z"/>
      <path class="43b45b39-a70d-4100-a5be-fca8630f1277" d="M74.18,44.78s1.83-8,.91-9.57-1.83-1.36-3-1.38c-1.77,0-3.33,1.87-3.33,1.87l.14-1.54-3.29,0L64,44.84l3.21.12s.86-5.22.92-5.85.46-2.47,2.18-2.64,1.72,1.38,1.6,2.29-.92,6-.92,6Z"/>
      <ellipse class="f2fba6fd-60aa-4259-b057-996288a27655" cx="87.27" cy="30.75" rx="1.66" ry="1.36" transform="translate(6.28 75.5) rotate(-48.33)"/>
      <path class="43b45b39-a70d-4100-a5be-fca8630f1277" d="M88.78,44.74l-2.37.45a2.53,2.53,0,0,1-3-2.94L85,34h3.09l-1,7.23a1.31,1.31,0,0,0,1.6,1.44l.42-.11Z"/>
      <path class="43b45b39-a70d-4100-a5be-fca8630f1277" d="M79.17,45.22a1.52,1.52,0,0,1-1.71-1.47,2.25,2.25,0,0,1,2.29-2c1,0,1.72.63,1.7,1.49A2.14,2.14,0,0,1,79.17,45.22Z"/>
    </g>
  </g>
</svg>
