<svg xmlns="http://www.w3.org/2000/svg" xmlns:xlink="http://www.w3.org/1999/xlink" viewBox="0 0 48 48">
  <defs>
    <style>
      .\35 faff0a7-ddf4-4d03-895a-fb89b307f736 {
        filter: url(#9a6b3773-8092-454d-a6a4-db057893e17d);
      }

      .\36 e11209b-4afc-4ae0-a9af-a32a4e600269 {
        fill: #fff;
      }

      .ccd0e05c-8b67-49b5-8d28-f895b1a44720 {
        mask: url(#cc355e9b-82b4-4a35-9db9-eacb68d2d568);
      }

      .\37 ac00fc8-cfdd-48e6-b1f7-019daed2d48b {
        fill: #4684b8;
      }

      .\32 94282c3-112f-45bd-a93a-0fc47d29a696 {
        fill: #f0821e;
      }
    </style>
    <filter id="9a6b3773-8092-454d-a6a4-db057893e17d" filterUnits="userSpaceOnUse" color-interpolation-filters="sRGB">
      <feColorMatrix values="-1 0 0 0 1 0 -1 0 0 1 0 0 -1 0 1 0 0 0 1 0"/>
    </filter>
    <mask id="cc355e9b-82b4-4a35-9db9-eacb68d2d568" x="5.19" y="6.97" width="37.94" height="34" maskUnits="userSpaceOnUse">
      <g class="5faff0a7-ddf4-4d03-895a-fb89b307f736">
        <path d="M43.13,40.87v.05H5.27V7.09H43.1V40.55C43.1,40.65,43.12,40.76,43.13,40.87Zm-37-.81H41.88c.36,0,.36,0,.36-.35V8.41c0-.54,0-.47-.46-.47H6.13Z"/>
        <path class="6e11209b-4afc-4ae0-a9af-a32a4e600269" d="M43.13,40.87c0-.11,0-.22,0-.32V7.09H5.27V40.93H43.13s0,0,0,0H5.19V7H43.13Z"/>
        <path d="M6.6,30.08v-.41c0-2.6,0-5.2,0-7.8a1,1,0,0,1,.25-.74c.14-.16.27-.35.45-.59v8.82h4.36a4.49,4.49,0,0,0,2.27-.5,4,4,0,0,0,2-2.78,4.89,4.89,0,0,0-.63-3.73,4,4,0,0,0-2.84-1.83h4.39a.38.38,0,0,1,.38.22c.5.9,1,1.8,1.56,2.73l1-1.72c.2-.35.39-.71.6-1a.41.41,0,0,1,.26-.17h2.92l.11,0-.56.88c-.75,1.18-1.5,2.35-2.26,3.52a.31.31,0,0,0,0,.42q1.52,2.28,3,4.56l.07.12-.21,0H20.82a.36.36,0,0,1-.36-.2l-1.65-2.69L18.7,27l-1.29,2.1-.09.14c-.17.26-.28.63-.52.76a2.2,2.2,0,0,1-.93,0H6.6Z"/>
        <path d="M36.6,23.45c.41-.73.8-1.42,1.18-2.11A2,2,0,0,0,38,21c.13-.39.38-.47.76-.46.88,0,1.76,0,2.7,0l-.17.3-2.66,4.12a.33.33,0,0,0,0,.43l3,4.54.09.16H38.64a.38.38,0,0,1-.36-.22l-1.56-2.55L36.53,27,36,27.9c-.42.68-.82,1.36-1.25,2a.38.38,0,0,1-.27.16h-10c0-.09,0-.15,0-.22q0-4.07,0-8.13a1,1,0,0,1,.16-.48,2.53,2.53,0,0,1,.5-.59v8.71h4.57a3.89,3.89,0,0,0,3.18-1.43,4.6,4.6,0,0,0,1-3.54,4.53,4.53,0,0,0-1.08-2.54,3.68,3.68,0,0,0-2.13-1.23.47.47,0,0,1-.2-.1H31c1.17,0,2.34,0,3.51,0a.52.52,0,0,1,.53.3c.45.82.92,1.62,1.39,2.43A2.12,2.12,0,0,0,36.6,23.45Z"/>
        <path d="M28.32,15c-.09-.52-.15-.56-.6-.56h-.43c-.42,0-.43,0-.35-.49H29.1l0-.44h.6l0,.44h2c.21,0,.24.08.24.26s0,.24-.23.23h-.46c-.51,0-.51,0-.73.54h1.08v3c0,.39-.13.53-.52.55a2.08,2.08,0,0,0-.25,0c-.23,0-.38,0-.38-.3s-.1-.21-.26-.21h-1c-.16,0-.35-.09-.45.17,0,.06-.27,0-.47,0,0-.52,0-1,0-1.48a.18.18,0,0,1,.12-.13l2.08,0,0,0V18c.42.15.52.08.52-.33V16.31a1.74,1.74,0,0,1-1.32.09c-.07,0-.15-.17-.17-.27s0-.27,0-.4-.08-.2-.14-.22-.21,0-.27.18a3.09,3.09,0,0,1-.48.75c-.31.31-.45.27-.73-.1.36-.16.68-.35.73-.82h-.84v3.07h-.58V15Zm.47-.54c.1.55.12.56,1,.54.23,0,.34-.16.37-.54ZM30,17.14h-1.2a2.07,2.07,0,0,0,0,.36c0,.06.09.15.14.15.34,0,.69,0,1.05,0Zm1-1.31c.09-.27,0-.35-.25-.33s-.39,0-.59,0a.27.27,0,0,0-.16.17c0,.12.05.31.13.35a.36.36,0,0,0,.52-.23Z"/>
        <path d="M10.47,16.68,10,16.37c.57-.27.7-.41.8-.84H10v2.75c0,.34,0,.34-.35.34l-.23,0V15h1c0-.44-.14-.56-.54-.55H9.07V14h2.18l0-.47h.59l0,.46h2.24v.5h-.69c-.51,0-.51,0-.7.53h1.06c0,.1,0,.18,0,.25V18c0,.44-.12.57-.57.6h-.19c-.24,0-.4,0-.4-.32,0-.06,0-.12-.06-.2H11.13c-.05,0-.12,0-.13,0-.08.32-.33.12-.53.18V16.68h2.25v1.38c.46,0,.49,0,.5-.18V16.31c-.35.26-.72.15-1.08.16s-.41-.13-.42-.42a4.69,4.69,0,0,1,0-.53h-.37A1.48,1.48,0,0,1,10.47,16.68Zm1.7,1v-.5H11v.5Zm-1.25-3.16c.16.56.16.55,1,.53.35,0,.27-.34.44-.53Zm1.22,1c.06.19.06.42.17.51s.44,0,.54-.22l.35,0v-.32Z"/>
        <path d="M31.11,25.7h-.7v1.16H28.05v-4a14.14,14.14,0,0,1,1.48.1,1.24,1.24,0,0,1,1,.83C30.74,24.4,30.91,25,31.11,25.7Z"/>
        <path d="M10.22,26.87v-4a15.3,15.3,0,0,1,1.53.11,1.25,1.25,0,0,1,1,.88c.21.59.37,1.19.56,1.84h-.69v1.18Z"/>
        <path d="M20.47,16.34l.42.08-.21.8.29,0-.1-.34.32-.13.3.8c-.17,0-.26.16-.45,0s-.35.05-.52.06a1.61,1.61,0,0,1-.31,0c0,.12-.12.34.16.4s.54,0,.65-.3l.46.08c0,.15,0,.28-.06.41a.36.36,0,0,1-.37.32H20.1a.37.37,0,0,1-.4-.38c0-.39,0-.79-.05-1.18v-.7H18.54V14.09h.61a.25.25,0,0,0,.3-.19c.18-.48.2-.48.75-.27l-.21.45h1.3v2.17H20.22v1l.05,0Zm-.3-.58h.54V15.4h-.54Zm-1.08-.37v.38h.52v-.38Zm1.63-.8h-.55V15h.55ZM19.08,15h.53v-.36h-.53Z"/>
        <path d="M38.6,17.11v1.47c-.22,0-.46.13-.66-.1,0,0-.12,0-.18,0H36.49a1.86,1.86,0,0,0-.9.12,1.14,1.14,0,0,1-.42,0v-3h3c0,.37,0,.73,0,1.1,0,.05-.14.13-.22.14H36c-.08,0-.21,0-.23.07s0,.23.2.23H38.6Zm-2.81.9H38v-.48H36.16C35.71,17.53,35.71,17.54,35.79,18Zm0-1.63h1.56c.15,0,.24,0,.25-.21s-.08-.23-.25-.22H36.07C35.73,16,35.72,16,35.8,16.38Z"/>
        <path d="M36.34,14.73l.3-.36c.24-.27.47-.55.72-.85.11.09.41-.08.46.25a.6.6,0,0,0,.23,0h1.2c0,.17.13.37-.13.42a2.49,2.49,0,0,1-.48,0l.09.28-.24.09-.25.08c-.47-.67-.58-.66-1.25.09h2.14c0,.33,0,.64,0,.94a.22.22,0,0,1-.15.13,2.67,2.67,0,0,1-.4,0l0-.09c0-.49,0-.5-.5-.5h-2.8c-.37,0-.37,0-.38.36,0,.06,0,.12,0,.18s0,0-.06,0c-.47.07-.48.06-.49-.4V14.8h2.05Z"/>
        <path d="M16.89,15.66h-.57v-.48h2.07v.48h-.74c-.16,0-.23,0-.27.2-.08.41-.18.82-.29,1.27l.78-.16-.3-.74.46-.18.6,1.52-.53.18-.1-.31-1.56.41-.17-.55c.27,0,.32-.16.36-.36C16.7,16.53,16.8,16.12,16.89,15.66Z"/>
        <path d="M36.7,13.81v.42h-.6l.09.31-.49.15c0-.09-.08-.19-.13-.28a.31.31,0,0,0-.52-.08l-.12.12c-.32.32-.32.32-.74,0,.15-.16.31-.29.45-.46A5.85,5.85,0,0,0,35,13.5c.16.1.44,0,.5.28,0,0,.13,0,.2,0Z"/>
        <path d="M17.89,18.25c.74-.47.74-.47,1.05-1.83h.5a2.38,2.38,0,0,1-.77,1.95C18.27,18.67,18.25,18.67,17.89,18.25Z"/>
        <path d="M18.25,14v.47H16.53V14Z"/>
        <path class="6e11209b-4afc-4ae0-a9af-a32a4e600269" d="M28.79,14.47h1.35c0,.38-.14.53-.37.54C28.91,15,28.89,15,28.79,14.47Z"/>
        <path class="6e11209b-4afc-4ae0-a9af-a32a4e600269" d="M30,17.14v.51c-.36,0-.71,0-1.05,0-.05,0-.13-.09-.14-.15a2.07,2.07,0,0,1,0-.36Z"/>
        <path class="6e11209b-4afc-4ae0-a9af-a32a4e600269" d="M31,15.83l-.35,0a.36.36,0,0,1-.52.23c-.08,0-.11-.23-.13-.35a.27.27,0,0,1,.16-.17c.2,0,.4,0,.59,0S31.13,15.56,31,15.83Z"/>
        <path class="6e11209b-4afc-4ae0-a9af-a32a4e600269" d="M10.47,16.68a1.48,1.48,0,0,0,.87-1.16h.37a4.69,4.69,0,0,0,0,.53c0,.29.13.42.42.42s.73.1,1.08-.16v1.57c0,.21,0,.22-.5.18V16.68Z"/>
        <path class="6e11209b-4afc-4ae0-a9af-a32a4e600269" d="M12.17,17.64H11v-.5h1.18Z"/>
        <path class="6e11209b-4afc-4ae0-a9af-a32a4e600269" d="M10.92,14.48h1.45c-.17.19-.09.51-.44.53C11.08,15,11.08,15,10.92,14.48Z"/>
        <path class="6e11209b-4afc-4ae0-a9af-a32a4e600269" d="M12.14,15.52H13.2v.32l-.35,0c-.1.21-.36.35-.54.22S12.2,15.71,12.14,15.52Z"/>
        <path class="6e11209b-4afc-4ae0-a9af-a32a4e600269" d="M20.17,15.76V15.4h.54v.36Z"/>
        <path class="6e11209b-4afc-4ae0-a9af-a32a4e600269" d="M19.09,15.39h.52v.38h-.52Z"/>
        <path class="6e11209b-4afc-4ae0-a9af-a32a4e600269" d="M20.72,14.59V15h-.55v-.36Z"/>
        <path class="6e11209b-4afc-4ae0-a9af-a32a4e600269" d="M19.08,15v-.36h.53V15Z"/>
        <path class="6e11209b-4afc-4ae0-a9af-a32a4e600269" d="M35.79,18c-.08-.47-.08-.48.37-.48H38V18Z"/>
        <path class="6e11209b-4afc-4ae0-a9af-a32a4e600269" d="M35.8,16.38c-.08-.4-.07-.42.27-.42h1.29c.17,0,.25.05.25.22s-.1.21-.25.21Z"/>
      </g>
    </mask>
  </defs>
  <title>icon-</title>
  <g id="234d1548-bb7a-409c-95a3-31bca1fdc593" data-name="pca sales copy">
    <g>
      <rect class="6e11209b-4afc-4ae0-a9af-a32a4e600269" x="5.63" y="7.46" width="36.78" height="32.93"/>
      <g>
        <g class="ccd0e05c-8b67-49b5-8d28-f895b1a44720">
          <g>
            <rect class="7ac00fc8-cfdd-48e6-b1f7-019daed2d48b" x="5.29" y="7.07" width="18.73" height="33.85"/>
            <rect class="294282c3-112f-45bd-a93a-0fc47d29a696" x="24.08" y="7.07" width="18.96" height="33.85"/>
          </g>
        </g>
        <circle class="294282c3-112f-45bd-a93a-0fc47d29a696" cx="38.55" cy="37.75" r="5.33"/>
        <circle class="7ac00fc8-cfdd-48e6-b1f7-019daed2d48b" cx="20.49" cy="37.75" r="5.33"/>
        <path class="6e11209b-4afc-4ae0-a9af-a32a4e600269" d="M37.77,40a2,2,0,0,1,.16-.24,1.29,1.29,0,0,1,.74-.44.25.25,0,0,0,.14-.08,2.09,2.09,0,0,1,1.57-.86,2.15,2.15,0,0,1,2,1s0,.05,0,.07l-.07,0a1.87,1.87,0,0,0-.93-.56,1.76,1.76,0,0,0-1.35.12,1.39,1.39,0,0,0-.41.35c0,.06,0,.09,0,.12l.15.09v0h-1.2c-.17,0-.26.08-.25.25a.34.34,0,0,1-.12.3,2.12,2.12,0,0,0-.3.36s-.06.08-.13,0a2.09,2.09,0,0,0-1.73-.07,2.46,2.46,0,0,0-.64.38l-.07,0a.19.19,0,0,1,0-.08,1.85,1.85,0,0,1,1.33-1,2.69,2.69,0,0,1,.49,0c.11,0,.13,0,.14-.11s0-.27,0-.4c0-1.31,0-2.62,0-3.94a1.35,1.35,0,0,0-.08-.52.65.65,0,0,0-.38-.38c-.14,0-.29-.08-.43-.12s0,0-.07,0,.05,0,.07,0c.37,0,.73-.09,1.09-.1s1,0,1.49,0a3.69,3.69,0,0,1,1.49.38A1.65,1.65,0,0,1,41.46,36a1.49,1.49,0,0,1-.7,1.4,2.54,2.54,0,0,1-1.06.4c-.3,0-.6.05-.89.08h-.07a0,0,0,0,1,0,0l0,0h.07a3.59,3.59,0,0,0,.85-.24,1.3,1.3,0,0,0,.78-1,2.12,2.12,0,0,0-.06-1,1.35,1.35,0,0,0-.91-.89,2,2,0,0,0-.81-.09l-.15,0a.28.28,0,0,0-.21.25V39a.21.21,0,0,1-.1.19,1,1,0,0,0-.43.71v0Z"/>
        <path class="6e11209b-4afc-4ae0-a9af-a32a4e600269" d="M19.52,40c.06-.08.1-.17.16-.24a1.35,1.35,0,0,1,.75-.44.25.25,0,0,0,.14-.08,2.06,2.06,0,0,1,1.57-.86,2.16,2.16,0,0,1,2,1,.17.17,0,0,1,0,.07l-.08,0a1.8,1.8,0,0,0-.92-.56,1.76,1.76,0,0,0-1.35.12,1.43,1.43,0,0,0-.42.35c0,.06,0,.09,0,.12l.15.09v0h-1.2c-.18,0-.26.08-.25.25a.35.35,0,0,1-.13.3,2.08,2.08,0,0,0-.29.36s-.07.08-.13,0a2.09,2.09,0,0,0-1.73-.07,2.17,2.17,0,0,0-.64.38.2.2,0,0,1-.08,0s0-.06,0-.08a1.82,1.82,0,0,1,1.33-1,2.69,2.69,0,0,1,.49,0c.11,0,.13,0,.14-.11s0-.27,0-.4V35.34a1.55,1.55,0,0,0-.07-.52.64.64,0,0,0-.39-.38l-.42-.12s0,0-.08,0,.05,0,.08,0c.36,0,.72-.09,1.09-.1s1,0,1.48,0a3.65,3.65,0,0,1,1.49.38A1.63,1.63,0,0,1,23.21,36a1.49,1.49,0,0,1-.7,1.4,2.54,2.54,0,0,1-1.06.4c-.29,0-.59.05-.89.08h-.07s0,0,0,0l0,0h.07a3.51,3.51,0,0,0,.84-.24,1.3,1.3,0,0,0,.78-1,2.12,2.12,0,0,0-.05-1,1.35,1.35,0,0,0-.91-.89,2.07,2.07,0,0,0-.82-.09l-.14,0a.27.27,0,0,0-.21.25A1.09,1.09,0,0,0,20,35c0,1.36,0,2.71,0,4.07a.2.2,0,0,1-.11.19,1,1,0,0,0-.43.71v0Z"/>
      </g>
    </g>
  </g>
</svg>
