<svg id="38c8ccaa-725c-4512-8ce4-165ba75fdbeb" data-name="Icons" xmlns="http://www.w3.org/2000/svg" viewBox="0 0 108 72">
  <defs>
    <style>
      .\36 8a7f57e-d2cb-4ec8-95cd-0bd627998297 {
        fill: #cb2027;
      }
    </style>
  </defs>
  <title>pinterest</title>
  <path class="68a7f57e-d2cb-4ec8-95cd-0bd627998297" d="M30.87,30.84a2.13,2.13,0,0,0,2-1.75,1.39,1.39,0,0,0-1.4-1.73,2.14,2.14,0,0,0-2,1.73A1.39,1.39,0,0,0,30.87,30.84Zm64,2.81H97a.46.46,0,0,0,.52-.39c.1-.42.21-.84.31-1.25a.32.32,0,0,0-.34-.43H95.39a17.93,17.93,0,0,0,.74-3.8A4.86,4.86,0,0,0,91,23.12a5.33,5.33,0,0,0-5.67,5.54,5.6,5.6,0,0,0,.79,2.73h-.56c-2.61,0-4.25,1.41-4.25,3.47s1.52,2.68,2.95,3.18,2.45.65,2.45,1.65c0,.67-.65,1.06-1.91,1.06a3.3,3.3,0,0,1-2.53-1,1,1,0,0,0,.35-.82,1.12,1.12,0,0,0-1.24-1.13,1.51,1.51,0,0,0-1.4,1.29,6,6,0,0,1-4,1.48c-1.67,0-2.54-.87-2.54-2.72a9.49,9.49,0,0,0,2.09.26c2.83,0,4.76-1.28,4.76-3.86,0-1.38-1.22-2.84-3.62-2.84h0a5.84,5.84,0,0,0-5.71,4.21l-.65-.15a5.14,5.14,0,0,0,.3-1.69,2.29,2.29,0,0,0-2.48-2.37,4.14,4.14,0,0,0-3.28,2.06c.21-.81.34-1.34.35-1.38a.33.33,0,0,0-.36-.44H62.93a.47.47,0,0,0-.53.39l-1.31,5.13a5.27,5.27,0,0,1-4.94,3.4c-1.68,0-2.54-.92-2.54-2.78a6.89,6.89,0,0,0,2.08.32c3,0,4.77-1.28,4.77-3.86,0-1.38-1.22-2.84-3.63-2.84h0c-3.57,0-5.75,2.77-6.12,5.91-.15,1.3-1.25,3.09-2.45,3.09a.86.86,0,0,1-.9-1A24.1,24.1,0,0,1,48.15,36c.13-.55.34-1.39.58-2.31h1.94a.48.48,0,0,0,.52-.39c.09-.39.26-1.07.31-1.25a.33.33,0,0,0-.35-.43h-1.9L50.14,28a.4.4,0,0,0-.52-.49l-1.75.34a.72.72,0,0,0-.58.6l-.78,3.14H45a.48.48,0,0,0-.53.39c-.1.42-.2.83-.31,1.25a.33.33,0,0,0,.35.43H46s-.54,2.06-1,3.87c-.2.87-.88,2.91-2,2.91-.66,0-.94-.34-.94-1,0-1.13,1.11-4,1.11-5.24a2.47,2.47,0,0,0-2.8-2.71,4.14,4.14,0,0,0-2.94,1.44s.16-.55.21-.76a.33.33,0,0,0-.36-.44H35.47a.5.5,0,0,0-.56.43c0,.1-.68,2.7-1.32,5.2C33.16,39,32.1,40.45,31,40.45c-.59,0-.85-.37-.85-1a24.37,24.37,0,0,1,.76-3.5c.51-2,.95-3.64,1-3.83a.34.34,0,0,0-.37-.46H29.66a.49.49,0,0,0-.53.42s-.52,2-1.07,4.17a24.22,24.22,0,0,0-.84,4,2.1,2.1,0,0,0,2.29,2.39,4.24,4.24,0,0,0,3.11-1.5c-.12.45-.19.74-.2.77-.07.26,0,.49.32.49h1.9a.46.46,0,0,0,.52-.42l1.48-5.84c.38-1.5,1.3-2.49,2.6-2.49a1,1,0,0,1,1.09,1.2c-.06.88-1.12,4-1.12,5.39a2.14,2.14,0,0,0,2.35,2.4,3.91,3.91,0,0,0,3-1.47,2.07,2.07,0,0,0,2.23,1.47A4.71,4.71,0,0,0,51,40.11a4.32,4.32,0,0,0,4.22,2.52,6.83,6.83,0,0,0,5.06-2.17l-.37,1.46a.34.34,0,0,0,.35.47h1.88a.49.49,0,0,0,.51-.4c0-.13.3-1.18.68-2.67.74-2.85,1.91-5.8,3.68-5.8a.79.79,0,0,1,.88.9,1.39,1.39,0,0,1-.14.6,1.17,1.17,0,0,0-1.55,1.17,1.35,1.35,0,0,0,1.48,1.14,2.83,2.83,0,0,0,1.61-.45l1.25.27a10.53,10.53,0,0,0-.1,1.25A4.19,4.19,0,0,0,75,42.63a8,8,0,0,0,5.23-1.92,5.18,5.18,0,0,0,4.46,1.93c3,0,4.65-1.54,4.65-3.58,0-1.84-1.52-2.52-3.08-3.08-1.27-.46-2.32-.71-2.32-1.61,0-.73.57-1.07,1.57-1.07a5,5,0,0,1,1.38.21,1.9,1.9,0,0,0,1.69,1.35,1.09,1.09,0,0,0,1.11-1.16C89.67,32.11,87,32,87,28.55c0-2.12,1.19-3.86,3.67-3.86a2.66,2.66,0,0,1,2.85,2.85,17.31,17.31,0,0,1-.88,4h-1.5a.46.46,0,0,0-.52.39l-.32,1.25a.33.33,0,0,0,.35.43h1.47a65.74,65.74,0,0,0-1.52,6.59,2.22,2.22,0,0,0,2.45,2.39c2.38,0,3.87-1.55,4.51-3.8a.23.23,0,0,0-.22-.31h-.91a.32.32,0,0,0-.33.28c-.21.79-.71,1.63-1.71,1.63a.86.86,0,0,1-.91-1A23.07,23.07,0,0,1,94.3,36c.21-.81.58-2.31.58-2.31Zm-18.75-.1a1.15,1.15,0,0,1,1.24,1.23c0,1.13-.88,1.81-2.25,1.81a5.55,5.55,0,0,1-1.57-.25C73.71,35.31,74.47,33.55,76.13,33.55Zm-19.79,0a1.11,1.11,0,0,1,1.24,1.23c0,1.13-.87,1.81-2.24,1.81a5.62,5.62,0,0,1-1.58-.25C53.93,35.31,54.6,33.55,56.34,33.55ZM19.94,23.09c-6,0-9,4.31-9,7.89,0,2.18.82,4.11,2.58,4.83a.44.44,0,0,0,.64-.32c0-.22.19-.78.25-1a.6.6,0,0,0-.18-.71,3.62,3.62,0,0,1-.83-2.47,6,6,0,0,1,6.22-6.05c3.39,0,5.25,2.07,5.25,4.84,0,3.64-1.61,6.71-4,6.71a2,2,0,0,1-2-2.43C19.23,32.77,20,31,20,29.89a1.69,1.69,0,0,0-1.7-1.9c-1.35,0-2.44,1.4-2.44,3.27a4.91,4.91,0,0,0,.4,2l-1.62,6.88a14.39,14.39,0,0,0,0,4.8.17.17,0,0,0,.3.08,13.52,13.52,0,0,0,2.28-4.14c.16-.56.89-3.47.89-3.47A3.62,3.62,0,0,0,21.13,39c4.06,0,6.81-3.71,6.81-8.66C27.94,26.58,24.77,23.09,19.94,23.09Z"/>
</svg>
