<svg id="eecee7fb-86ca-4cc6-a589-6375227ae001" data-name="Icons" xmlns="http://www.w3.org/2000/svg" viewBox="0 0 108 72">
  <defs>
    <style>
      .\34 f8bf1d8-c4b0-4305-9df7-a129263a0cd4 {
        fill: #f26648;
      }

      .\34 ce513ed-6c60-43fe-a811-b26056e8c840 {
        fill: #005895;
      }
    </style>
  </defs>
  <title>pipeliner</title>
  <g id="af1ef51c-6c6d-454e-9945-0558901ec71a" data-name="Logo">
    <g id="5af8709a-35d6-45a8-abd7-a3508d9e765c" data-name="Symbol">
      <path class="4f8bf1d8-c4b0-4305-9df7-a129263a0cd4" d="M16.21,38.09A13.07,13.07,0,0,1,17.26,33a10.06,10.06,0,0,0-2.06,2.22,10.58,10.58,0,0,0-1.47,3.32,9.7,9.7,0,0,0,1.57,8.68l.11.14a18.51,18.51,0,0,0,3.78-1A12.87,12.87,0,0,1,16.21,38.09Z"/>
      <path class="4ce513ed-6c60-43fe-a811-b26056e8c840" d="M22.85,31.68c.38,1.15-.42,4.06-5.33,6.51a13.19,13.19,0,0,0,3.85-1.31c4-2,7.06-5.42,6.89-7.62s-3.53-2.39-7.5-.38a28.65,28.65,0,0,0-6.29,4.28c-3.82,3.39-6.28,7.36-6,10.39.19,2.4,2,3.72,4.78,3.88a11.21,11.21,0,0,1-.44-10.13A12.7,12.7,0,0,1,15,33.82a11.77,11.77,0,0,1,2.86-2.28C20.31,30.23,22.42,30.33,22.85,31.68Z"/>
      <path class="4ce513ed-6c60-43fe-a811-b26056e8c840" d="M34.55,30.4c-.22-2.81-2.7-4.15-6.29-3.86,1.76.26,2.9,1.23,3,2.88.27,3.4-3.93,8.36-9.37,11.1a17.76,17.76,0,0,1-3.47,1.33,13.2,13.2,0,0,0,2.46,3.84c.39-.18.8-.37,1.2-.57C29.33,41.5,34.9,34.91,34.55,30.4Z"/>
    </g>
    <g id="c72e44f8-09f5-4099-ae41-81910afecd15" data-name="Logotype">
      <g>
        <path class="4ce513ed-6c60-43fe-a811-b26056e8c840" d="M41.42,38.29v4.06H39.65V31.6h4.17a4,4,0,0,1,2.8.9,3.4,3.4,0,0,1,0,4.86,4,4,0,0,1-2.8.93Zm0-1.51h2.4a2,2,0,0,0,1.51-.52,1.9,1.9,0,0,0,.51-1.35,2,2,0,0,0-.51-1.38A1.93,1.93,0,0,0,43.82,33h-2.4v3.8Z"/>
        <path class="4ce513ed-6c60-43fe-a811-b26056e8c840" d="M60.6,38.6a4.52,4.52,0,0,1-.83,2.82,2.73,2.73,0,0,1-2.29,1.07,2.93,2.93,0,0,1-1.2-.25,2.58,2.58,0,0,1-.88-.71V45.4H53.49v-11h1.57l.18,1a2.65,2.65,0,0,1,.93-.87,2.55,2.55,0,0,1,1.26-.3,2.67,2.67,0,0,1,2.31,1.17,5.31,5.31,0,0,1,.83,3.1v.13Zm-1.77-.16a4,4,0,0,0-.48-2,1.52,1.52,0,0,0-1.4-.78,1.69,1.69,0,0,0-.93.25,1.5,1.5,0,0,0-.61.66v3.62a1.55,1.55,0,0,0,.61.66,2,2,0,0,0,1,.23,1.54,1.54,0,0,0,1.38-.69,3.06,3.06,0,0,0,.47-1.77v-.17Z"/>
        <path class="4ce513ed-6c60-43fe-a811-b26056e8c840" d="M66,42.51a3.48,3.48,0,0,1-2.71-1.12,4.12,4.12,0,0,1-1-2.86v-.3a4.26,4.26,0,0,1,1-2.9,3.2,3.2,0,0,1,2.52-1.15,3.08,3.08,0,0,1,2.45,1,3.78,3.78,0,0,1,.84,2.63v1h-5l0,.06a2.52,2.52,0,0,0,.57,1.57,1.75,1.75,0,0,0,1.42.61,3.84,3.84,0,0,0,1.25-.18,4.13,4.13,0,0,0,1-.5L69,41.53a4.05,4.05,0,0,1-1.21.69A5,5,0,0,1,66,42.51Zm-.2-6.89a1.32,1.32,0,0,0-1.09.52,2.66,2.66,0,0,0-.54,1.35l0,0h3.14v-.19A1.92,1.92,0,0,0,67,36.1,1.36,1.36,0,0,0,65.83,35.62Z"/>
        <path class="4ce513ed-6c60-43fe-a811-b26056e8c840" d="M72.82,42.35H71.05V30.84h1.77Z"/>
        <g>
          <rect class="4ce513ed-6c60-43fe-a811-b26056e8c840" x="49.62" y="34.38" width="1.77" height="7.96"/>
          <circle class="4ce513ed-6c60-43fe-a811-b26056e8c840" cx="50.5" cy="31.6" r="1.02"/>
        </g>
        <g>
          <rect class="4ce513ed-6c60-43fe-a811-b26056e8c840" x="75.1" y="34.38" width="1.77" height="7.96"/>
          <circle class="4ce513ed-6c60-43fe-a811-b26056e8c840" cx="75.99" cy="31.6" r="1.02"/>
        </g>
        <path class="4ce513ed-6c60-43fe-a811-b26056e8c840" d="M80.79,34.38l.11,1.14a3.06,3.06,0,0,1,1-1,2.67,2.67,0,0,1,1.36-.34,2.48,2.48,0,0,1,1.93.75,3.44,3.44,0,0,1,.68,2.37v5H84.08v-5A1.78,1.78,0,0,0,83.71,36a1.47,1.47,0,0,0-1.13-.38,1.93,1.93,0,0,0-1,.24,2.88,2.88,0,0,0-.69.63v5.82H79.15v-8Z"/>
        <path class="4ce513ed-6c60-43fe-a811-b26056e8c840" d="M91.31,42.51a3.53,3.53,0,0,1-2.73-1.12,4.12,4.12,0,0,1-1-2.86v-.3a4.27,4.27,0,0,1,1-2.9,3.51,3.51,0,0,1,5-.16,3.8,3.8,0,0,1,.88,2.63v1h-5l0,.06A2.52,2.52,0,0,0,90,40.43a1.75,1.75,0,0,0,1.42.61,3.84,3.84,0,0,0,1.25-.18,4.13,4.13,0,0,0,1-.5l.58,1.17a4.05,4.05,0,0,1-1.21.69A5,5,0,0,1,91.31,42.51Zm-.2-6.89a1.32,1.32,0,0,0-1.09.52,2.66,2.66,0,0,0-.54,1.35l0,0h3.12v-.19a1.91,1.91,0,0,0-.36-1.25A1.38,1.38,0,0,0,91.11,35.62Z"/>
        <path class="4ce513ed-6c60-43fe-a811-b26056e8c840" d="M100.45,36l-.77,0a1.54,1.54,0,0,0-.84.22,1.44,1.44,0,0,0-.51.63v5.58h-1.9v-8h1.68l.12,1.14a2.65,2.65,0,0,1,.78-1,1.85,1.85,0,0,1,1.11-.34,1.51,1.51,0,0,1,.3,0l.26.06Z"/>
      </g>
    </g>
  </g>
</svg>
