<svg id="07d57235-fc76-4270-a397-360fe9e0975d" data-name="Icons" xmlns="http://www.w3.org/2000/svg" viewBox="0 0 108 72">
  <defs>
    <style>
      .fa63df8a-f841-4b99-9019-5548b4c247bc {
        fill: #203232;
      }
    </style>
  </defs>
  <title>pipedrive</title>
  <g>
    <path class="fa63df8a-f841-4b99-9019-5548b4c247bc" d="M17.06,30.25a3.89,3.89,0,0,0-3.16,1.33c-.06-.44-.38-1.08-1.52-1.08H9.79v2.66h1.08c.19,0,.25.06.25.25V45.67h3V40.74A4.15,4.15,0,0,0,17,41.81c3,0,5.06-2.34,5.06-5.75s-2-5.81-5-5.81m-.63,8.85c-1.65,0-2.41-1.58-2.41-3C14,33.79,15.29,33,16.49,33c1.45,0,2.4,1.26,2.4,3.09,0,2.09-1.26,3-2.46,3"/>
    <path class="fa63df8a-f841-4b99-9019-5548b4c247bc" d="M26.09,38.59V32.15a1.44,1.44,0,0,0-1.64-1.65H21.73v2.66h1.08c.19,0,.25.06.25.25v6.44c0,1.14.51,1.65,1.58,1.65h2.72V38.84H26.28c-.12,0-.19-.06-.19-.25"/>
    <path class="fa63df8a-f841-4b99-9019-5548b4c247bc" d="M34.05,30.25a4.17,4.17,0,0,0-3.22,1.33c-.06-.44-.38-1.08-1.52-1.08H26.72v2.66H27.8c.19,0,.25.06.25.25V45.67h3V40.74a4.16,4.16,0,0,0,2.85,1.07c3,0,5-2.34,5-5.75s-2-5.81-4.93-5.81m-.63,8.85c-1.64,0-2.4-1.58-2.4-3C31,33.79,32.28,33,33.48,33c1.46,0,2.41,1.26,2.41,3.09,0,2.09-1.2,3-2.47,3"/>
    <path class="fa63df8a-f841-4b99-9019-5548b4c247bc" d="M44.73,30.25A5.48,5.48,0,0,0,39.11,36a5.62,5.62,0,0,0,5.94,5.75,6.66,6.66,0,0,0,4.42-1.64L49.6,40l-1.33-2.21-.19.19a4.55,4.55,0,0,1-2.84,1.14,2.82,2.82,0,0,1-2.91-2.41H49.6v-.18s.06-.7.06-1c0-3.15-2-5.24-4.93-5.24m-2.27,4.17a2.24,2.24,0,0,1,2.27-1.71,1.8,1.8,0,0,1,1.77,1.71Z"/>
    <path class="fa63df8a-f841-4b99-9019-5548b4c247bc" d="M60.78,38.59V28a1.45,1.45,0,0,0-1.64-1.65H56.42v2.72h1.07c.19,0,.26.06.26.25v1.9a4.23,4.23,0,0,0-2.85-.95c-3,0-5,2.4-5,5.75s2,5.75,4.93,5.75a4,4,0,0,0,3.16-1.33c.06.51.37,1.08,1.51,1.08h2.66V38.84h-1c-.25,0-.31-.06-.31-.25m-5.43.51c-1.46,0-2.41-1.2-2.41-3.1s1-3,2.47-3,2.4,1.51,2.4,3c-.06,2.27-1.33,3.1-2.46,3.1"/>
    <path class="fa63df8a-f841-4b99-9019-5548b4c247bc" d="M68.87,30.31a3.79,3.79,0,0,0-3.16,1.9V32c0-1-.57-1.52-1.65-1.52H61.41v2.65h1.07c.19,0,.26.07.26.26v8.08h3V37A6.64,6.64,0,0,1,66,35.37a2.78,2.78,0,0,1,2.65-2.09,2.57,2.57,0,0,1,.63.07l.26.06v-3h-.19a1,1,0,0,0-.44-.07"/>
    <path class="fa63df8a-f841-4b99-9019-5548b4c247bc" d="M73.92,38.59V32.15c0-1.08-.51-1.65-1.58-1.65H69.81v2.66h.82c.19,0,.26.06.26.25v6.44c0,1.14.5,1.65,1.64,1.65h2.72V38.84H74.17c-.19,0-.25-.06-.25-.25"/>
    <path class="fa63df8a-f841-4b99-9019-5548b4c247bc" d="M85.42,30.5H83.78A1.62,1.62,0,0,0,82,31.64L80,37.2c-.07.19-.13.44-.19.63-.07-.25-.13-.44-.19-.69l-2-5.56a1.61,1.61,0,0,0-1.76-1.14H74.11v2.65h.44c.25,0,.32.07.38.26L78,41.43h3.41l3.09-8.08a.37.37,0,0,1,.38-.26h.45V30.5Z"/>
    <path class="fa63df8a-f841-4b99-9019-5548b4c247bc" d="M90.73,30.25A5.48,5.48,0,0,0,85.1,36,5.61,5.61,0,0,0,91,41.75a6.63,6.63,0,0,0,4.42-1.64l.13-.13L94.2,37.77,94,38a4.55,4.55,0,0,1-2.84,1.14,2.83,2.83,0,0,1-2.91-2.41h7.27v-.18s.06-.7.06-1c0-3.15-2-5.24-4.86-5.24m-2.34,4.17a2.25,2.25,0,0,1,2.27-1.71,1.79,1.79,0,0,1,1.77,1.71Z"/>
    <rect class="fa63df8a-f841-4b99-9019-5548b4c247bc" x="23.12" y="26.33" width="2.72" height="2.84"/>
    <rect class="fa63df8a-f841-4b99-9019-5548b4c247bc" x="70.95" y="26.33" width="2.72" height="2.84"/>
    <polygon class="fa63df8a-f841-4b99-9019-5548b4c247bc" points="95.53 30.5 95.97 30.5 95.97 31.58 96.29 31.58 96.29 30.5 96.67 30.5 96.67 30.25 95.53 30.25 95.53 30.5"/>
    <polygon class="fa63df8a-f841-4b99-9019-5548b4c247bc" points="97.87 30.25 97.55 31.2 97.55 31.2 97.23 30.25 96.79 30.25 96.79 31.58 97.11 31.58 97.11 30.63 97.11 30.63 97.42 31.58 97.68 31.58 97.99 30.63 97.99 30.63 97.99 31.58 98.31 31.58 98.31 30.25 97.87 30.25"/>
  </g>
</svg>
