<?xml version="1.0" encoding="utf-8"?>
<!-- Generator: Adobe Illustrator 22.1.0, SVG Export Plug-In . SVG Version: 6.00 Build 0)  -->
<svg version="1.1" id="aa88f54e-66b3-4db5-9f25-d0cd4c6ea36b"
	 xmlns="http://www.w3.org/2000/svg" xmlns:xlink="http://www.w3.org/1999/xlink" x="0px" y="0px" viewBox="0 0 108 72"
	 style="enable-background:new 0 0 108 72;" xml:space="preserve">
<style type="text/css">
	.st0{fill:#0076BC;}
</style>
<title>pipelinedeals</title>
<g>
	<g>
		<path class="st0" d="M4.8,40.8c1.7,1.3,4.5,2,6.4,0.9c1.7-1,2.6-3.1,1.9-5c-0.7-1.9-2.7-3-4.7-2.7c-2.4,0.3-3.3,2.2-3.7,4.3
			c-0.5-2.4,1.1-4.8,3.5-5.1c2.3-0.4,4.6,0.7,5.4,2.9c0.8,2.2,0.1,4.7-1.8,6C9.7,43.5,6.3,43,4.8,40.8z"/>
		<path class="st0" d="M14.8,38.1c1.5-3.5-2.2-6.6-5.6-6c1.8-0.9,4-0.6,5.4,0.8C16.1,34.3,16.2,36.7,14.8,38.1z"/>
		<path class="st0" d="M16.3,35.2c0.2-3-1-4.2-4.3-4.3C14.6,29.7,18.5,32.5,16.3,35.2z"/>
		<path class="st0" d="M11.6,39.7c-2,1.5-5.2,0.3-5.5-1.5C7.4,39.7,9.6,40.3,11.6,39.7z"/>
	</g>
	<g>
		<path class="st0" d="M29.6,35.9c-1.3,1-3.1,0.7-4.6,0.7v3.6h-2v-10c1.4,0,2.8,0,4.1,0c1.2,0,2.4,0.3,3,1.5
			C30.9,33,30.7,34.9,29.6,35.9z M28,32.3c-0.8-0.6-2.1-0.3-3-0.3v2.9c0.6,0,1.2,0,1.8,0c0.5,0,1-0.1,1.4-0.6
			C28.6,33.8,28.5,32.8,28,32.3z"/>
		<path class="st0" d="M33.9,32h-2v-1.8h2V32z M31.9,32.9h2v7.4h-2V32.9z"/>
		<path class="st0" d="M41.1,33.7c0.7,0.8,1,1.8,0.9,2.8c0.1,1.1-0.2,2.1-0.9,3c-0.6,0.7-1.4,1-2.3,1c-0.5,0-1-0.2-1.5-0.5
			c-0.2-0.2-0.5-0.4-0.6-0.7v3.8h-1.9V32.9h1.8V34c0.2-0.3,0.4-0.5,0.7-0.8c0.4-0.3,1-0.5,1.5-0.5C39.7,32.7,40.5,33.1,41.1,33.7z
			 M39.6,35c-0.3-0.4-0.8-0.7-1.3-0.7c-0.7,0-1.3,0.4-1.5,1c-0.1,0.4-0.2,0.9-0.2,1.3c-0.1,0.7,0.2,1.4,0.7,1.8
			c0.3,0.2,0.6,0.3,1,0.3c0.5,0,1-0.2,1.2-0.6c0.3-0.5,0.4-1.1,0.4-1.7C40,36,39.9,35.5,39.6,35z"/>
		<path class="st0" d="M47.5,33c0.5,0.2,1,0.6,1.3,1.1c0.3,0.5,0.5,1,0.6,1.5c0.1,0.5,0.1,1,0.1,1.5H44c0,0.6,0.3,1.2,0.8,1.6
			c0.3,0.2,0.7,0.3,1.1,0.3c0.4,0,0.8-0.1,1.1-0.3c0.2-0.1,0.3-0.3,0.4-0.5h2c-0.1,0.5-0.3,1-0.7,1.3c-0.7,0.8-1.8,1.2-2.8,1.1
			c-0.9,0-1.9-0.3-2.6-0.9c-0.8-0.8-1.2-1.9-1.1-3c-0.1-1.1,0.3-2.1,1-2.9c0.7-0.7,1.7-1,2.6-1C46.3,32.6,46.9,32.8,47.5,33z
			 M44.6,34.7c-0.3,0.3-0.5,0.7-0.5,1.1h3.3c0-0.4-0.2-0.9-0.5-1.2c-0.3-0.3-0.7-0.4-1.1-0.4C45.3,34.2,44.9,34.4,44.6,34.7
			L44.6,34.7z"/>
		<path class="st0" d="M52.1,40.2h-1.9v-10h1.9V40.2z"/>
		<path class="st0" d="M54.8,32h-2v-1.8h2V32z M52.8,32.9h2v7.4h-2V32.9z"/>
		<path class="st0" d="M61.7,33.3c0.5,0.5,0.8,1.3,0.7,2v5h-2v-4.5c0-0.3,0-0.6-0.2-0.9c-0.2-0.4-0.6-0.6-1.1-0.6
			c-0.6,0-1.1,0.3-1.3,0.8c-0.1,0.4-0.2,0.7-0.2,1.1v4h-1.9v-7.4h1.9V34c0.2-0.3,0.4-0.6,0.7-0.8c0.4-0.3,1-0.5,1.5-0.4
			C60.5,32.7,61.1,32.9,61.7,33.3z"/>
		<path class="st0" d="M68.3,33c0.5,0.2,1,0.6,1.3,1.1c0.3,0.5,0.5,1,0.6,1.5c0.1,0.5,0.1,1,0.1,1.5h-5.4c0,0.6,0.3,1.2,0.8,1.6
			c0.3,0.2,0.7,0.3,1.1,0.3c0.6,0,1.2-0.3,1.5-0.8h2c-0.1,0.5-0.3,1-0.7,1.3c-0.7,0.7-1.7,1.1-2.8,1.1c-0.9,0-1.9-0.3-2.6-0.9
			c-0.8-0.8-1.2-1.9-1.1-3c-0.1-1.1,0.3-2.1,1-2.9c0.7-0.7,1.7-1,2.6-1C67.2,32.6,67.7,32.8,68.3,33z M65.4,34.7
			c-0.3,0.3-0.5,0.7-0.5,1.1h3.3c0-0.4-0.2-0.9-0.5-1.2c-0.3-0.3-0.7-0.4-1.1-0.4C66.1,34.2,65.7,34.4,65.4,34.7L65.4,34.7z"/>
		<path class="st0" d="M77.5,30.5c3.8,1.2,3.4,8.4-0.3,9.6c-0.9,0.3-2,0.2-3,0.2c-0.9,0-1.8,0-2.6,0v-10
			C73.5,30.2,75.7,29.9,77.5,30.5z M73.7,32v6.5c0.6,0,1.3,0,1.9,0c1.8-0.1,2.3-1.6,2.4-3.2c0.1-1.6-0.4-3.3-2.2-3.3
			C75,32,74.3,32,73.7,32z"/>
		<path class="st0" d="M85.6,33c0.5,0.2,1,0.6,1.3,1.1c0.3,0.5,0.5,1,0.6,1.5c0.1,0.5,0.1,1,0.1,1.5h-5.4c0,0.6,0.3,1.2,0.8,1.6
			c0.3,0.2,0.7,0.3,1.1,0.3c0.4,0,0.8-0.1,1.1-0.3c0.2-0.1,0.3-0.3,0.4-0.5h2c-0.1,0.5-0.3,1-0.7,1.3c-0.7,0.7-1.7,1.1-2.8,1.1
			c-0.9,0-1.9-0.3-2.6-0.9c-0.8-0.8-1.2-1.9-1.1-3c-0.1-1.1,0.3-2.1,1-2.9c0.7-0.7,1.7-1,2.6-1C84.5,32.6,85,32.8,85.6,33z
			 M82.7,34.7c-0.3,0.3-0.5,0.7-0.5,1.1h3.3c0-0.4-0.2-0.9-0.5-1.2c-0.3-0.3-0.7-0.4-1.2-0.4C83.4,34.2,83,34.4,82.7,34.7z"/>
		<path class="st0" d="M91.1,35.8c0.3,0,0.5-0.1,0.8-0.2c0.2-0.1,0.4-0.3,0.4-0.5c0-0.3-0.1-0.5-0.3-0.6c-0.3-0.1-0.6-0.2-0.9-0.2
			c-0.4,0-0.7,0.1-1,0.3c-0.2,0.2-0.2,0.4-0.3,0.7H88c0-0.6,0.2-1.1,0.5-1.6c0.7-0.7,1.7-1.1,2.6-1c0.7,0,1.5,0.2,2.2,0.5
			c0.6,0.4,1,1.1,0.9,1.9v3.4c0,0.2,0,0.5,0,0.9c0,0.2,0,0.4,0.1,0.5c0.1,0.1,0.2,0.2,0.3,0.2v0.3h-2.1c-0.1-0.1-0.1-0.3-0.1-0.4
			c0-0.1,0-0.3-0.1-0.5c-0.3,0.3-0.6,0.5-0.9,0.7c-0.4,0.2-0.9,0.4-1.4,0.4c-0.6,0-1.2-0.2-1.7-0.6c-0.5-0.4-0.7-1-0.7-1.6
			c-0.1-0.8,0.3-1.6,1.1-2c0.5-0.3,1.1-0.4,1.7-0.5L91.1,35.8z M92.3,36.7c-0.1,0.1-0.2,0.1-0.4,0.2c-0.2,0.1-0.3,0.1-0.5,0.1
			L91,37.1c-0.3,0-0.6,0.1-0.9,0.3c-0.5,0.3-0.6,0.9-0.3,1.4c0,0.1,0.1,0.1,0.1,0.1c0.2,0.1,0.4,0.2,0.7,0.2c0.4,0,0.8-0.1,1.2-0.4
			c0.4-0.3,0.6-0.8,0.6-1.3V36.7z"/>
		<path class="st0" d="M97.2,40.2h-1.9v-10h1.9V40.2z"/>
		<path class="st0" d="M99.9,37.9c0,0.9,0.8,1.1,1.6,1.1c0.6,0,1.8-0.4,1-1.2c-0.6-0.5-1.9-0.5-2.6-0.7c-0.8-0.3-1.4-0.7-1.6-1.5
			c-0.8-3.6,6.3-4.1,6.3-0.5h-1.9c-0.1-0.9-1.2-1.2-1.9-0.9c-1.1,0.4-0.3,1.1,0.4,1.3c1.4,0.4,3.6,0.6,3.6,2.5
			c0,3.4-6.8,3.4-6.8-0.1L99.9,37.9z"/>
	</g>
</g>
</svg>
