<svg id="3c19d5a6-5a65-47f7-a5bd-0781b045308f" data-name="CURRENT" xmlns="http://www.w3.org/2000/svg" viewBox="0 0 48 48"><title>piplinedeals</title><path d="M7.39,35.11a18.9,18.9,0,0,0,11.49,3.78A11.48,11.48,0,0,0,30.29,28.68,11.39,11.39,0,0,0,7.71,25.86c-.12.68-.24,1.36-.42,2.42C5.61,22.9,9.51,14.46,18.35,14c7-.4,13,3.74,14.07,10.67,1.49,9.19-5,16.46-14.36,16.08C13.59,40.52,9.94,38.86,7.39,35.11Z"/><path d="M35,27.67c1.77-5.23.7-9.38-2.86-12.84s-7.71-4.15-12.67-3.58C24.09,8.48,31.51,9.93,35,14.12S38.53,23.28,35,27.67Z"/><path d="M39,19.58c.56-8.23-2.64-11.49-11.75-12,3.18-2,8.94-.46,11.22,2.2C41.11,12.86,41.36,16.56,39,19.58Z"/><path d="M25.92,32c-5.49,4.25-14.31.8-15.06-4.19C15.45,32.22,19.51,33.4,25.92,32Z"/></svg>