<svg id="Layer_1" data-name="Layer 1" xmlns="http://www.w3.org/2000/svg" xmlns:xlink="http://www.w3.org/1999/xlink" viewBox="0 0 48 48"><defs><style>.cls-1{fill:#fff;}.cls-2{mask:url(#mask);}.cls-3{fill:#4e9ab2;}</style><mask id="mask" x="2.85" y="-6.26" width="245.39" height="60.49" maskUnits="userSpaceOnUse"><g id="b"><path id="a" class="cls-1" d="M2.85-6.26H248.24V54.23H2.85"/></g></mask></defs><title>planio0</title><g class="cls-2"><path class="cls-3" d="M40.61,26.58a15.4,15.4,0,0,1-6,10.33l-6.92-6.69L30,39.48a16.93,16.93,0,0,1-12.06,0l2.36-9.31-7,6.74A15.54,15.54,0,0,1,7.39,26.58L16.67,24,7.39,21.42a16.2,16.2,0,0,1,5.89-10.33l7,6.79L18,8.52a15.2,15.2,0,0,1,6-1.11A15.4,15.4,0,0,1,30,8.52l-2.31,9.36,6.93-6.79a16,16,0,0,1,6,10.33L31.26,24l9.35,2.59"/></g></svg>