<svg xmlns="http://www.w3.org/2000/svg" viewBox="0 0 48 48"><title>ponparemail</title><path d="M24.3,9.59A13.87,13.87,0,1,1,10.43,23.46,13.88,13.88,0,0,1,24.3,9.59m0-3.66A17.53,17.53,0,1,0,41.83,23.46,17.53,17.53,0,0,0,24.3,5.93Z" style="fill:#e5002d"/><path d="M4.9,27H27a5.8,5.8,0,0,0,5.8-5.8h0a5.65,5.65,0,0,0-5.65-5.65H21.71" style="fill:none;stroke:#e5002d;stroke-linecap:round;stroke-linejoin:round;stroke-width:3.65382329455559px"/><path d="M16.47,31.8v5.61a4.13,4.13,0,0,1-4.13,4.13h-1.6" style="fill:none;stroke:#f08300;stroke-linecap:round;stroke-linejoin:round;stroke-width:3.65382329455559px"/><line x1="16.47" y1="21.69" x2="16.47" y2="32.17" style="fill:none;stroke:#00afcc;stroke-miterlimit:10;stroke-width:3.65382329455559px"/><path d="M22,15.56H19.41a2.93,2.93,0,0,0-2.94,2.93v3.77" style="fill:none;stroke:#ec7aa6;stroke-linejoin:round;stroke-width:3.65382329455559px"/></svg>