<svg xmlns="http://www.w3.org/2000/svg" viewBox="0 0 48 48"><title>presto</title><path d="M34.31,35a2.45,2.45,0,0,1-2.38,2.41A2.53,2.53,0,0,1,29.49,35a2.43,2.43,0,0,1,2.45-2.4A2.35,2.35,0,0,1,34.31,35Z" style="fill:#0b4a69"/><path d="M28.69,29.65a2.14,2.14,0,1,1-4.28,0,2.14,2.14,0,1,1,4.28,0Z" style="fill:#0b4a69"/><path d="M23.08,24.27a1.84,1.84,0,0,1-1.89,1.93,2,2,0,0,1-1.93-1.95,2.06,2.06,0,0,1,2-1.92A1.88,1.88,0,0,1,23.08,24.27Z" style="fill:#0b4a69"/><path d="M14,18.89a1.81,1.81,0,0,1,1.87-1.81A1.88,1.88,0,0,1,17.75,19a2,2,0,0,1-1.91,1.83A1.86,1.86,0,0,1,14,18.89Z" style="fill:#0b4a69"/><path d="M9,13.59a1.55,1.55,0,1,1,1.56,1.58A1.54,1.54,0,0,1,9,13.59Z" style="fill:#0b4a69"/><path d="M5.13,6.71A1.55,1.55,0,0,1,6.75,8.25,1.62,1.62,0,0,1,5.17,9.79,1.52,1.52,0,0,1,3.58,8.23,1.47,1.47,0,0,1,5.13,6.71Z" style="fill:#0b4a69"/><path d="M39.27,29.63a2.46,2.46,0,0,1-2.38,2.42,2.56,2.56,0,0,1-2.45-2.45,2.45,2.45,0,0,1,2.45-2.41A2.36,2.36,0,0,1,39.27,29.63Z" style="fill:#1990b1"/><path d="M33.64,24.26a2.14,2.14,0,1,1-4.27,0,2.12,2.12,0,0,1,2.16-2.14A2.09,2.09,0,0,1,33.64,24.26Z" style="fill:#1990b1"/><path d="M28,18.88a1.82,1.82,0,0,1-1.88,1.92,2,2,0,0,1-1.93-1.94,2,2,0,0,1,2-1.92A1.86,1.86,0,0,1,28,18.88Z" style="fill:#1990b1"/><path d="M18.94,13.5a1.83,1.83,0,0,1,1.88-1.82,1.88,1.88,0,0,1,1.89,1.9,2,2,0,0,1-1.91,1.83A1.87,1.87,0,0,1,18.94,13.5Z" style="fill:#1990b1"/><path d="M13.91,8.19A1.52,1.52,0,0,1,15.46,6.6,1.54,1.54,0,0,1,17,8.15a1.56,1.56,0,0,1-1.53,1.63A1.54,1.54,0,0,1,13.91,8.19Z" style="fill:#1990b1"/><path d="M44.73,24.23a2.45,2.45,0,0,1-2.38,2.42,2.55,2.55,0,0,1-2.44-2.45,2.43,2.43,0,0,1,2.45-2.4A2.34,2.34,0,0,1,44.73,24.23Z" style="fill:#82d3f0"/><path d="M39.11,18.86a2.14,2.14,0,1,1-4.28,0,2.14,2.14,0,1,1,4.28,0Z" style="fill:#82d3f0"/><path d="M33.5,13.48a1.84,1.84,0,0,1-1.89,1.93,2,2,0,0,1-1.92-1.95,2,2,0,0,1,2-1.92A1.88,1.88,0,0,1,33.5,13.48Z" style="fill:#82d3f0"/><path d="M24.41,8.1a1.8,1.8,0,0,1,1.87-1.81,1.88,1.88,0,0,1,1.9,1.89A2,2,0,0,1,26.26,10,1.86,1.86,0,0,1,24.41,8.1Z" style="fill:#82d3f0"/><path d="M4.79,38.93a1.58,1.58,0,0,1,1.63,1.55A1.63,1.63,0,0,1,4.83,42a1.52,1.52,0,0,1-1.58-1.57A1.48,1.48,0,0,1,4.79,38.93Z" style="fill:#82d3f0"/><path d="M15.55,38.93a1.57,1.57,0,0,1,1.62,1.55A1.61,1.61,0,0,1,15.59,42,1.53,1.53,0,0,1,14,40.45,1.49,1.49,0,0,1,15.55,38.93Z" style="fill:#82d3f0"/><path d="M26.26,38.93a1.57,1.57,0,0,1,1.62,1.55A1.62,1.62,0,0,1,26.3,42a1.52,1.52,0,0,1-1.59-1.57A1.48,1.48,0,0,1,26.26,38.93Z" style="fill:#82d3f0"/><path d="M20.79,33.52a1.55,1.55,0,0,1,1.62,1.54,1.61,1.61,0,0,1-1.58,1.54A1.52,1.52,0,0,1,19.24,35,1.48,1.48,0,0,1,20.79,33.52Z" style="fill:#82d3f0"/><path d="M10.09,33.52a1.56,1.56,0,0,1,1.62,1.54,1.62,1.62,0,0,1-1.58,1.54A1.52,1.52,0,0,1,8.54,35,1.47,1.47,0,0,1,10.09,33.52Z" style="fill:#82d3f0"/><path d="M15.55,28.08a1.55,1.55,0,0,1,1.62,1.54,1.61,1.61,0,0,1-1.58,1.54A1.53,1.53,0,0,1,14,29.6,1.48,1.48,0,0,1,15.55,28.08Z" style="fill:#82d3f0"/></svg>