<svg id="Layer_1" data-name="Layer 1" xmlns="http://www.w3.org/2000/svg" viewBox="0 0 48 48">
  <title>printify</title>
  <path d="M19.93,16.54c.29-1.53.48-2.46.58-2.94.63-3.24,0-5.45-1.62-5.74C18,7.7,17.42,8.23,17,9.73c-.82,3.11-3.25,12.43-3.25,12.43l2.91-3.91a4.24,4.24,0,0,1,3.23-1.71Z" style="fill: #39b75d"/>
  <path d="M17.85,20.92a3.31,3.31,0,0,1,2.66-1.33,3.23,3.23,0,0,1,1.68.47c.1,0,2.27,1.63,3.58,2.61h2.49a10,10,0,0,0,4.43-1,3.77,3.77,0,0,0,1.46-1.45,1.68,1.68,0,0,0,.07-1.13,1,1,0,0,0-.24-.4,1.05,1.05,0,0,0-.39-.27,2.64,2.64,0,0,0-1.14-.22H20a2.89,2.89,0,0,0-1.15.3,2.78,2.78,0,0,0-.9.77l-5,6.82a3.66,3.66,0,0,0-.18.46,1.47,1.47,0,0,0,0,.59,1.18,1.18,0,0,0,.23.54Z" style="fill: #39b75d"/>
  <path d="M17.13,26.24a3.16,3.16,0,0,1,.95-.87A3.27,3.27,0,0,1,20.57,25a3.59,3.59,0,0,1,1.17.55l4.16,3.07A4.13,4.13,0,0,1,27.16,30a2.67,2.67,0,0,1,.3.86,7.47,7.47,0,0,0,1.24.3,3.67,3.67,0,0,0,2-.26,1.7,1.7,0,0,0,.81-.94,1.06,1.06,0,0,0,0-.47,1.1,1.1,0,0,0-.15-.44,2.6,2.6,0,0,0-.8-.85l-9.08-6.67-.16-.1a1.68,1.68,0,0,0-.87-.24,1.7,1.7,0,0,0-.67.13,1.73,1.73,0,0,0-.57.38l-.15.18L12.86,30.4a1.46,1.46,0,0,0-.2.79,1.41,1.41,0,0,0,.28.76Z" style="fill: #39b75d"/>
  <path d="M25.14,16.54h5.32a7.09,7.09,0,0,0-.38-.72,11.1,11.1,0,0,0-2.16-2.62,2.57,2.57,0,0,0-2.86-.59A1.75,1.75,0,0,0,24.47,15Z" style="fill: #39b75d"/>
  <path d="M33.24,23.11a10.48,10.48,0,0,1-1.14.47,11.55,11.55,0,0,1-3.09.63H27.88l2.27,1.7,1.33,1a4.53,4.53,0,0,1,1.26,1.39,2.71,2.71,0,0,1,.34,1A2.85,2.85,0,0,1,33,30.4a3.23,3.23,0,0,1-1.59,1.85,5.33,5.33,0,0,1-3.34.34l-.81-.17a3.21,3.21,0,0,1-1.46,1.52,5,5,0,0,1-2.91.46A10.74,10.74,0,0,1,20,33.51a.86.86,0,0,1-.26-.2.83.83,0,0,1-.16-.29.74.74,0,0,1,0-.33.68.68,0,0,1,.11-.31.81.81,0,0,1,.41-.32.84.84,0,0,1,.52,0,8.42,8.42,0,0,0,2.44.75,3.7,3.7,0,0,0,2-.26,1.63,1.63,0,0,0,.8-.93,1.23,1.23,0,0,0,0-.47,1.21,1.21,0,0,0-.16-.45,2,2,0,0,0-.57-.66l-4.36-3.25a1.67,1.67,0,0,0-1.17-.32,1.73,1.73,0,0,0-1.1.54l-.11.12L13,34.56a1.62,1.62,0,0,0-.31.93,1.66,1.66,0,0,0,.15.62,1.39,1.39,0,0,0,.39.51A75.8,75.8,0,0,0,21,42.16c.2.14.81.48.86.51a10.22,10.22,0,0,0,15-9.08,10.6,10.6,0,0,0-.91-4.22C35.62,28.72,33.25,23.11,33.24,23.11Z" style="fill: #39b75d"/>
  <path d="M25.79,3.16a.85.85,0,0,0-.38.09.79.79,0,0,0-.31.23,1.15,1.15,0,0,0-.21.33,1,1,0,0,0-.05.39c0,.93.12,2.79.16,3.72a.81.81,0,0,0,.25.55.82.82,0,0,0,1.15,0,.87.87,0,0,0,.28-.58c0-.93.17-2.88.15-3.81a.85.85,0,0,0-.09-.38.9.9,0,0,0-.23-.32.86.86,0,0,0-.33-.2A1,1,0,0,0,25.79,3.16Z" style="fill: #39b75d"/>
  <path d="M34.22,5.79a1,1,0,0,0-1.38.31l-2,3.13a.82.82,0,0,0-.12.61.83.83,0,0,0,.95.67.78.78,0,0,0,.54-.32c.57-.73,1.79-2.27,2.27-3a.86.86,0,0,0,.16-.35,1,1,0,0,0,0-.38.93.93,0,0,0-.14-.36A.9.9,0,0,0,34.22,5.79Z" style="fill: #39b75d"/>
  <path d="M39.62,12.77a1,1,0,0,0-.55-.53,1,1,0,0,0-.76,0l-3.4,1.43a.79.79,0,0,0-.44.42.88.88,0,0,0,.11.9.86.86,0,0,0,.26.2.8.8,0,0,0,.31.09.85.85,0,0,0,.32,0c.89-.29,2.76-.83,3.64-1.14a1.19,1.19,0,0,0,.33-.22.92.92,0,0,0,.21-.34,1,1,0,0,0,.07-.39A1,1,0,0,0,39.62,12.77Z" style="fill: #39b75d"/>
</svg>
