<svg id="Layer_1" data-name="Layer 1" xmlns="http://www.w3.org/2000/svg" viewBox="0 0 48 48"><title>pubnub</title><path d="M19.06,28.74l-.38,0a7.73,7.73,0,0,1-2-.44.16.16,0,0,1-.11-.17V19.68h1.28v2.84l.2-.07A4.91,4.91,0,0,1,20,22.14a2.37,2.37,0,0,1,2.22,1.6,4.23,4.23,0,0,1,.25,1.41,6,6,0,0,1-.2,1.73,2.32,2.32,0,0,1-2,1.78c-.15,0-.31,0-.47.06l-.07,0Zm-1.17-3.3v2a.13.13,0,0,0,.11.14,4.36,4.36,0,0,0,1.19.26,2.44,2.44,0,0,0,.85-.06,1.34,1.34,0,0,0,1-1,5.11,5.11,0,0,0,.11-2.3,1.68,1.68,0,0,0-.39-.88,1.59,1.59,0,0,0-1.22-.5,4.31,4.31,0,0,0-1.55.29.13.13,0,0,0-.1.14c0,.66,0,1.31,0,2" style="fill:#d02129"/><path d="M40.67,28.74l-.38,0a8.21,8.21,0,0,1-2-.45.16.16,0,0,1-.11-.17V19.68h1.27v2.84l.23-.08a5,5,0,0,1,1.91-.3,2.38,2.38,0,0,1,2.24,1.63,4.45,4.45,0,0,1,.23,1.73A5.19,5.19,0,0,1,43.86,27,2.29,2.29,0,0,1,42,28.64l-.57.09-.09,0Zm-1.17-3.3v2c0,.06,0,.1.07.12a4.18,4.18,0,0,0,1.71.27,1.52,1.52,0,0,0,.93-.34,1.54,1.54,0,0,0,.46-.81,5.39,5.39,0,0,0,.1-2.19,1.9,1.9,0,0,0-.36-.88,1.55,1.55,0,0,0-1.25-.53,4,4,0,0,0-1.57.29.11.11,0,0,0-.09.13v2" style="fill:#d02129"/><path d="M3.67,20.2h3a4.53,4.53,0,0,1,1.32.19A1.78,1.78,0,0,1,9.26,22a3.74,3.74,0,0,1,0,1.25A1.88,1.88,0,0,1,7.9,24.7a3.93,3.93,0,0,1-1.22.19H5v3.7H3.67ZM5,24H6.48a2.57,2.57,0,0,0,.62-.08,1,1,0,0,0,.84-.75,2.62,2.62,0,0,0,0-1.08,1,1,0,0,0-.75-.81,4.19,4.19,0,0,0-.78-.11c-.46,0-.93,0-1.4,0H5Z" style="fill:#d02129"/><path d="M12.37,28.74c-.15,0-.31,0-.46-.06a2.79,2.79,0,0,1-1.05-.36A1.67,1.67,0,0,1,10.05,27a4.18,4.18,0,0,1,0-.5v-4.2H11.3v3.79a3.42,3.42,0,0,0,.12.9,1.1,1.1,0,0,0,1,.82,4.71,4.71,0,0,0,1.79-.16.13.13,0,0,0,.11-.15h0v-5.2h1.28v5.9a.12.12,0,0,1-.11.15h0a12.49,12.49,0,0,1-2.28.39h-.81Z" style="fill:#d02129"/><path d="M34,28.74c-.16,0-.32,0-.47-.06a2.8,2.8,0,0,1-1-.35A1.66,1.66,0,0,1,31.66,27a3.54,3.54,0,0,1,0-.46V22.28h1.28v3.86A2.52,2.52,0,0,0,33,27a1.1,1.1,0,0,0,1,.79,4.77,4.77,0,0,0,1.76-.15.17.17,0,0,0,.14-.18h0q0-2.52,0-5v-.13h1.27v5.91a.12.12,0,0,1-.09.14h0a11.68,11.68,0,0,1-2.29.4H34Z" style="fill:#d02129"/><path d="M30.4,28.59H28.55a.13.13,0,0,1-.15-.09c-.52-1-1-2-1.57-3L24.7,21.37a.12.12,0,0,0-.06-.06v7.27H23.52V20.21h1.84a.15.15,0,0,1,.14.08l3.72,7.17a.19.19,0,0,0,.06.07V20.21h1.13Z" style="fill:#d02129"/></svg>