<svg xmlns="http://www.w3.org/2000/svg" viewBox="0 0 48 48"><defs><style>.cls-1{fill:#55c500;}</style></defs><title>j-qiita</title><g id="Layer_3" data-name="Layer 3"><path class="cls-1" d="M40.62,32.24a20.54,20.54,0,0,0-2.54-.1,2.32,2.32,0,0,1-2.4-3,15.71,15.71,0,0,0,.55-4,12.94,12.94,0,0,0-3.17-8.28,2,2,0,0,1-.53-1.38c0-.9-.06-1.8-.11-2.7s-.55-1.13-1.31-.69-1.26.8-1.93,1.14a1.37,1.37,0,0,1-1,.1A10.71,10.71,0,0,0,18,14.77a1.74,1.74,0,0,1-1.11.21c-.66-.09-1.3-.31-2-.45s-1.27.3-1,1A6.8,6.8,0,0,1,13.63,21a12.27,12.27,0,0,0-.4,7.83,9.69,9.69,0,0,0,8.91,7.47,20.35,20.35,0,0,0,6.6-.51,9.43,9.43,0,0,0,4.59-2.51,7.87,7.87,0,0,0,4.18,3.19,17.83,17.83,0,1,1,3.11-4.24Z"/><path class="cls-1" d="M16.57,22.69l-1.38.59c0-1,1.64-.43,1.38-1.62l-1.49.08,0-.26a10.82,10.82,0,0,0,1.14-.18,1.91,1.91,0,0,0,.56-.34,2.25,2.25,0,0,0-.53-.28c-.44-.12-1,0-1.33-.32l.06-.25,1.9.26c1.09-3.24,3.25-5.32,6.69-5.71s6,1.09,7.71,4.14l2-.6.11.3-1.87.71c.41,1.11,1.37,0,2,.62l-1.69.32c.12,1.07,1.31.45,1.85,1.22l-1.57-.21c0,3.85-1.25,5.39-4.93,6.26a16.4,16.4,0,0,1-5.76.38,4.82,4.82,0,0,1-4.71-4.49C16.64,23.13,16.61,23,16.57,22.69Z"/></g></svg>