<svg xmlns="http://www.w3.org/2000/svg" viewBox="0 0 48 48"><title>qoo10</title><path d="M9.52,18.63a4.06,4.06,0,1,1-4.07,4.06,4.06,4.06,0,0,1,4.07-4.06m0-3.08a7.15,7.15,0,1,0,7.14,7.14,7.15,7.15,0,0,0-7.14-7.14Z" style="fill:#ec2e3c"/><path d="M20.27,23.76a1.74,1.74,0,1,1-1.75,1.74,1.75,1.75,0,0,1,1.75-1.74m0-1.54a3.28,3.28,0,1,0,3.28,3.28,3.28,3.28,0,0,0-3.28-3.28Z" style="fill:#0d5fac"/><path d="M27.26,23.76a1.74,1.74,0,1,1-1.74,1.74,1.74,1.74,0,0,1,1.74-1.74m0-1.54a3.28,3.28,0,1,0,3.28,3.28,3.28,3.28,0,0,0-3.28-3.28Z" style="fill:#0d5fac"/><path d="M38.74,22.81a2.1,2.1,0,1,1-2.09,2.1,2.1,2.1,0,0,1,2.09-2.1m0-1.8a3.9,3.9,0,1,0,3.91,3.9A3.9,3.9,0,0,0,38.74,21Z" style="fill:#0d5fac"/><line x1="11.13" y1="24.74" x2="14.72" y2="28.36" style="fill:none;stroke:#ec2e3c;stroke-linecap:round;stroke-miterlimit:10;stroke-width:3.08449273514721px"/><polyline points="31.59 21.64 32.93 21.64 32.93 28.14" style="fill:none;stroke:#0d5fac;stroke-linecap:round;stroke-linejoin:round;stroke-width:1.54224636757361px"/></svg>