<svg xmlns="http://www.w3.org/2000/svg" viewBox="0 0 48 48"><title>quandl</title><path d="M32.67,37.88a1.8,1.8,0,0,0-1.81-.39,22.5,22.5,0,0,1-6.69,1.56c-8.59,0-15.56-6.69-15.56-14.94s7-14.94,15.56-14.94,15.56,6.69,15.56,14.94c0,3.17-2.28,7.54-2.28,7.54a1.61,1.61,0,0,0,.29,1.76l7,6.77c.44.43.86.28.86-.31V4.71a1.3,1.3,0,0,0-1.25-1.18H4A1.12,1.12,0,0,0,3,4.71v38.8a1,1,0,0,0,1,1h34c.62,0,.79-.31.37-.75Z" style="fill:#f37321"/><path d="M15.45,24.11a8.55,8.55,0,0,0,8.72,8.38,8.56,8.56,0,0,0,8.73-8.38,8.56,8.56,0,0,0-8.73-8.38A8.55,8.55,0,0,0,15.45,24.11Z" style="fill:#f37321"/></svg>