<svg xmlns="http://www.w3.org/2000/svg" viewBox="0 0 48 48"><title>reckon</title><path d="M3.82,44.51V13.61A9.71,9.71,0,0,1,13.53,3.9H34.72a9.72,9.72,0,0,1,9.71,9.71V34.8a9.72,9.72,0,0,1-9.71,9.71Z" style="fill:#de2435"/><path d="M34.93,5.16a8.47,8.47,0,0,1,8.44,8.45V34.8a8.47,8.47,0,0,1-8.44,8.45H5.29V13.61a8.47,8.47,0,0,1,8.45-8.45H34.93m0-2.53H13.74a11,11,0,0,0-11,11V45.77H34.93a11,11,0,0,0,11-11V13.61a11,11,0,0,0-11-11" style="fill:#fff"/><path d="M34.93,5.16a8.47,8.47,0,0,1,8.44,8.45V34.8a8.47,8.47,0,0,1-8.44,8.45H5.29V13.61a8.47,8.47,0,0,1,8.45-8.45H34.93m0-2.53H13.74a11,11,0,0,0-11,11V45.77H34.93a11,11,0,0,0,11-11V13.61a11,11,0,0,0-11-11" style="fill:#bf1d2a"/><path d="M15.91,13.36h9.67a8.73,8.73,0,0,1,6.25,2.17,6.55,6.55,0,0,1,1.8,4.68v.06c0,3.56-2.14,5.7-5.14,6.57L34.34,35H29.82l-5.33-7.55H19.72V35H15.91ZM25.3,24.11c2.72,0,4.46-1.42,4.46-3.62v-.06c0-2.33-1.68-3.6-4.49-3.6H19.72v7.28Z" style="fill:#fff"/></svg>