<svg id="ce1bfb32-1d27-498d-8cc9-c7f1072cf317" data-name="Icons" xmlns="http://www.w3.org/2000/svg" viewBox="0 0 108 72">
  <defs>
    <style>
      .ed989a20-34aa-42b0-b467-cc2acf766e6a {
        fill: #723080;
      }
    </style>
  </defs>
  <title>recurly</title>
  <g id="f462dbb5-216c-4624-a741-4b687471e8af" data-name="Layer 1">
    <g>
      <path class="ed989a20-34aa-42b0-b467-cc2acf766e6a" d="M22,37.63a16.13,16.13,0,0,0-2.2-3,6.41,6.41,0,0,0,5.08-6.26c0-4.26-2.95-6.32-7.56-6.32h0c-4.06,0-6.46,1.92-7,5.29H8.23l4,3.44,4.26-3.44H14.21s0-2.41,3-2.41a3.26,3.26,0,0,1,3.44,3.44c0,2.27-1.24,4.06-4.13,4.06H10.15V43.62h4.06V35.23h0c.89,0,1.72.34,3.23,2.54l3.64,5.85h4.54Z"/>
      <path class="ed989a20-34aa-42b0-b467-cc2acf766e6a" d="M79.8,43.62V23.33h3.78V43.55l-3.78.07Z"/>
      <path class="ed989a20-34aa-42b0-b467-cc2acf766e6a" d="M33.25,41a7.38,7.38,0,0,0,3.65-1l1.23,2.41A9.61,9.61,0,0,1,33,43.75c-4.61,0-7.22-3-7.22-7.28s3-7.15,6.8-7.15c4.34,0,6.4,3.09,6,8.18H29.68C29.88,39.63,30.91,41,33.25,41Zm1.58-6.12c0-1.58-.62-2.81-2.33-2.81S30,33,29.75,34.88Z"/>
      <path class="ed989a20-34aa-42b0-b467-cc2acf766e6a" d="M47.28,43.82c-4.4,0-7.15-3-7.15-7.22,0-4.67,3.09-7.22,7.22-7.22a7.83,7.83,0,0,1,4.26,1.1L50.37,33a5,5,0,0,0-2.89-.83c-2.2,0-3.37,1.86-3.37,4.4s1.11,4.54,3.44,4.54a4.85,4.85,0,0,0,2.89-.89l1.17,2.4A7.35,7.35,0,0,1,47.28,43.82Z"/>
      <path class="ed989a20-34aa-42b0-b467-cc2acf766e6a" d="M57.45,29.8v8.52c0,1.38.48,2.13,1.86,2.13a4.07,4.07,0,0,0,2.82-1.72V29.8h3.78v9.83a25.4,25.4,0,0,0,.34,4H62.54a7,7,0,0,1-.27-1.86A5.51,5.51,0,0,1,57.8,44c-3,0-4.13-1.93-4.13-4.47V29.8Z"/>
      <path class="ed989a20-34aa-42b0-b467-cc2acf766e6a" d="M76.84,33.1a2.44,2.44,0,0,0-1.44-.35,3.83,3.83,0,0,0-3,2.13v8.67H68.59V29.8h3.78v1.85a4.09,4.09,0,0,1,3.51-2.2,4,4,0,0,1,1.86.35Z"/>
      <path class="ed989a20-34aa-42b0-b467-cc2acf766e6a" d="M95.61,29.8l-2.68,9.07L89.77,29.8H85.64l5.3,12.72C90,46,89.15,47,87.16,47a4.68,4.68,0,0,1-1.52-.21l-.48,2.68a8.07,8.07,0,0,0,2.27.34c3.85,0,5.57-2.54,6.81-5.91L98.5,33.23l1.38-3.5Z"/>
    </g>
  </g>
</svg>
