<svg xmlns="http://www.w3.org/2000/svg" viewBox="0 0 48 48"><title>redis</title><path d="M43.22,33.88C41,35,29.62,39.73,27.2,41s-3.78,1.26-5.7.34S7.44,35.51,5.26,34.46c-1.09-.53-1.67-1-1.67-1.38V28.91s15.8-3.44,18.35-4.36,3.44-.95,5.6-.15,15.15,3.13,17.28,3.93v4.12C44.82,32.86,44.34,33.3,43.22,33.88Z" style="fill:#a41e11"/><path d="M43.22,29.71c-2.2,1.14-13.6,5.85-16,7.11s-3.78,1.26-5.7.34S7.44,31.34,5.26,30.29,3,28.52,5.19,27.7s14.2-5.58,16.75-6.5,3.44-.94,5.6-.14S41,26.37,43.18,27.14,45.43,28.57,43.22,29.71Z" style="fill:#d82c20"/><path d="M43.22,27.09c-2.2,1.14-13.6,5.85-16,7.11s-3.78,1.26-5.7.34S7.44,28.72,5.26,27.68c-1.09-.54-1.67-1-1.67-1.39V22.12s15.8-3.44,18.35-4.36,3.44-1,5.6-.15,15.15,3.13,17.28,3.93v4.12C44.82,26.05,44.34,26.51,43.22,27.09Z" style="fill:#a41e11"/><path d="M43.22,22.92c-2.2,1.14-13.6,5.85-16,7.11s-3.78,1.26-5.7.34S7.44,24.55,5.26,23.51,3,21.74,5.19,20.91s14.2-5.57,16.75-6.5,3.44-.94,5.6-.14S41,19.58,43.18,20.35,45.43,21.78,43.22,22.92Z" style="fill:#d82c20"/><path d="M43.22,20c-2.2,1.14-13.6,5.84-16,7.1s-3.78,1.26-5.7.34S7.44,21.66,5.26,20.62c-1.09-.53-1.67-1-1.67-1.38V15.07s15.8-3.44,18.35-4.36,3.44-1,5.6-.15,15.15,3.13,17.28,3.93v4.12C44.82,19,44.34,19.46,43.22,20Z" style="fill:#a41e11"/><path d="M43.22,15.87C41,17,29.62,21.71,27.2,23s-3.78,1.26-5.7.34S7.44,17.49,5.26,16.45,3,14.68,5.19,13.86s14.2-5.58,16.75-6.5,3.44-1,5.6-.15S41,12.52,43.18,13.3,45.43,14.73,43.22,15.87Z" style="fill:#d82c20"/><polygon points="24.87 9.95 27.59 9.06 26.84 10.83 29.62 11.87 26.04 12.23 25.23 14.15 23.95 12.01 19.83 11.63 22.91 10.54 21.99 8.81 24.87 9.95" style="fill:#fff"/><polygon points="25.04 21.2 18.35 18.44 27.93 16.96 25.04 21.2" style="fill:#fff"/><ellipse cx="15.78" cy="14.9" rx="5.12" ry="1.99" style="fill:#fff"/><polygon points="33.84 12.38 39.49 14.63 33.84 16.86 33.84 12.38" style="fill:#7a0c00"/><polygon points="33.84 12.38 33.84 16.86 33.24 17.11 27.59 14.85 33.84 12.38" style="fill:#ad2115"/></svg>