<svg xmlns="http://www.w3.org/2000/svg" viewBox="0 0 48 48"><title>redshift</title><polygon points="40.24 8.53 43.44 10.03 43.44 37.03 40.24 38.63 35.24 23.63 40.24 8.53" style="fill:#5294cf"/><polygon points="8.44 8.53 5.24 10.03 5.24 37.03 8.44 38.63 16.34 23.63 8.44 8.53" style="fill:#205b99"/><polygon points="24.34 34.73 40.24 38.63 40.24 8.53 24.34 12.43 24.34 34.73" style="fill:#205b99"/><polygon points="24.34 34.73 8.44 38.63 8.44 8.53 24.34 12.43 24.34 34.73" style="fill:#5294cf"/><polygon points="28.14 44.63 34.24 41.53 34.24 5.73 28.14 2.63 22.14 22.63 28.14 44.63" style="fill:#5294cf"/><polygon points="20.54 44.63 14.44 41.53 14.44 5.73 20.54 2.63 25.94 23.63 20.54 44.63" style="fill:#205b99"/><rect x="20.54" y="2.63" width="7.6" height="42" style="fill:#2e73b8"/></svg>