<svg xmlns="http://www.w3.org/2000/svg" viewBox="0 0 48 48"><title>rest</title><circle cx="24.61" cy="24.07" r="19.52" style="fill:#0272c5"/><path d="M19.14,36.32a3.79,3.79,0,0,1-2.67-1,4.29,4.29,0,0,1-.9-3V28.13c0-2.2-.72-3.4-2.17-3.62v-.89c1.45-.2,2.17-1.33,2.17-3.38V15.87a4.29,4.29,0,0,1,.9-3,3.79,3.79,0,0,1,2.67-1V13a2.12,2.12,0,0,0-1.73.8,4.6,4.6,0,0,0-.5,2.49v4.08c0,2.06-.67,3.3-2,3.7v.06c1.35.43,2,1.73,2,3.91v3.85a4.64,4.64,0,0,0,.5,2.49,2.12,2.12,0,0,0,1.73.79Z" style="fill:#fff"/><path d="M35.82,24.51c-1.44.22-2.16,1.42-2.16,3.62v4.14a4.3,4.3,0,0,1-.9,3.06,3.83,3.83,0,0,1-2.67,1V35.15a2.22,2.22,0,0,0,1.68-.74,4.24,4.24,0,0,0,.54-2.54V28c0-2.18.67-3.48,2-3.91v-.06c-1.36-.41-2-1.65-2-3.7V16.27a4.3,4.3,0,0,0-.54-2.55A2.25,2.25,0,0,0,30.09,13V11.81a3.79,3.79,0,0,1,2.67,1,4.3,4.3,0,0,1,.9,3.06v4.37c0,2.05.72,3.18,2.16,3.38Z" style="fill:#fff"/></svg>