<svg id="Layer_1" data-name="Layer 1" xmlns="http://www.w3.org/2000/svg" viewBox="0 0 48 48"><defs><style>.cls-1{fill:#1f2832;}</style></defs><title>retently</title><path id="Shape" class="cls-1" d="M39.48,9.58a9.09,9.09,0,0,0-4.39,1.74A17.64,17.64,0,0,0,21.46,4.75c-10,0-18.13,8.62-18.13,19.25,0,.64,0,1.28.09,1.91-.62,1.86-.56,3.66.22,4.09a.83.83,0,0,0,.62.07c2.39,7.66,9.18,13.18,17.2,13.18,10,0,18.12-8.62,18.12-19.25,0-.46,0-.91,0-1.36A10.82,10.82,0,0,0,44.6,16.7C46,12.34,43.44,9.19,39.48,9.58ZM21.33,6.94a15.53,15.53,0,0,1,12.06,5.87,10.42,10.42,0,0,0-2.26,3.67,7.25,7.25,0,0,0-.41,2.92l-9.27,7.36a2.85,2.85,0,0,0-1-.87,25.16,25.16,0,0,0,.24-2.95c0-3.26-.72-6.33-3-7.55.53-2.15-.08-3.69-1.43-3.55s-2.79,1.66-3.69,3.59c-2.44,1.08-4.21,3.42-5.33,5.2-.39.61-.74,1.23-1,1.82a1.43,1.43,0,0,0-.76.31C6,13.93,12.88,6.94,21.33,6.94Zm-1.65,25c-.53,1.49-1.72,2.36-2.62,1.94s-1.13-1.84-.64-3.22,1.58-2.26,2.48-2S20.2,30.44,19.68,31.93ZM15.9,16.22c-.42,1.16-1.32,2.06-2,2s-.81-1-.42-2.06,1.24-2,1.9-2S16.32,15.06,15.9,16.22ZM4.4,28c-.4-.19-.43-1.1-.08-2s1-1.59,1.38-1.46.49,1.06.12,2.05S4.81,28.16,4.4,28ZM21.33,40.78A16.1,16.1,0,0,1,6,28.48a9.41,9.41,0,0,0,.77-1.59,5.85,5.85,0,0,0,.33-3.76c.22-.41.47-.84.74-1.25a9.74,9.74,0,0,1,4-3.89c-.13,1.42.3,2.48,1.23,2.61s2.31-.8,3.32-2.29c1.23.93,1.93,2.73,1.84,5.64a18.59,18.59,0,0,1-.17,2A7.1,7.1,0,0,0,14.75,30c-1,2.84-.53,5.9,1.24,6.89,1.94,1.09,4.65-.73,5.84-4.12a8.58,8.58,0,0,0,.51-2.93l9.84-7.29a4.6,4.6,0,0,0,2.52,1.14,7,7,0,0,0,2.55-.16c0,.11,0,.22,0,.33C37.26,33.21,30.12,40.78,21.33,40.78Zm19-24.15A4.72,4.72,0,0,1,36,19.86c-1.63-.12-2.41-1.61-1.82-3.33a4.86,4.86,0,0,1,4-3.21C40,13.25,41,14.73,40.36,16.63Z"/></svg>