<svg xmlns="http://www.w3.org/2000/svg" viewBox="0 0 48 48"><defs><style>.cls-1{fill:#0c0;}</style></defs><title>SageUS</title><g id="NEED_VECTOR" data-name="NEED VECTOR"><path class="cls-1" d="M39.11,18c-3.24,0-5.36,2.22-5.36,5.89,0,4.57,3.24,5.87,5.57,5.87a6.35,6.35,0,0,0,4.61-2l-1.5-1.5a4.29,4.29,0,0,1-3.08,1.15c-1.81,0-3-1.06-3-2.51h8.06S45.78,18,39.11,18M36.33,23a2.82,2.82,0,0,1,3.06-2.89,2.81,2.81,0,0,1,3,2.89Z"/><path class="cls-1" d="M9.44,22.78c-1-.13-4,0-4-1.37,0-.8,1.26-1.25,2.4-1.25a6.19,6.19,0,0,1,3.41,1l1.55-1.54a8,8,0,0,0-5-1.57C5.27,18,3,19.36,3,21.49c0,3.28,4,3.28,5.6,3.44,1,.11,1.91.17,1.91,1.14S9.09,27.5,8,27.5A5.21,5.21,0,0,1,4.16,26L2.5,27.66a7.64,7.64,0,0,0,5.38,2.13c3,0,5.11-1.3,5.11-3.92,0-1.74-1.17-2.77-3.55-3.09"/><path class="cls-1" d="M17.94,18a7.24,7.24,0,0,0-4.55,1.57L15,21.15a4.85,4.85,0,0,1,3-1c2,0,2.57.78,2.57,1.67V23H17c-1.31,0-3.86.33-3.86,3.19,0,2.1,1.2,3.64,4.08,3.64a4.06,4.06,0,0,0,3.29-1.36v1.14h2.55V22c0-2.64-1.62-4-5.13-4m2.59,7.42c0,2.18-1.55,2.06-2.93,2.06s-2.3-.37-2.3-1.35S16,25,17.54,25h3v.5Z"/><path class="cls-1" d="M30.93,18.26v1.26A4.14,4.14,0,0,0,27.61,18a3.9,3.9,0,0,0-4.07,2.8,13.15,13.15,0,0,0-.21,3.07,8.65,8.65,0,0,0,.51,3.71,4.33,4.33,0,0,0,3.77,2.18,4.28,4.28,0,0,0,3.32-1.45v.71a2.14,2.14,0,0,1-.81,1.81,3.22,3.22,0,0,1-2.13.7,3.85,3.85,0,0,1-2.11-.79l-1.72,1.72A6.25,6.25,0,0,0,28,34a5.85,5.85,0,0,0,3.81-1.28,5.08,5.08,0,0,0,1.67-3.93V18.26Zm0,5.64a10.49,10.49,0,0,1-.09,1.86,2.43,2.43,0,0,1-2.5,1.69c-.38,0-2.31-.22-2.53-1.9a13,13,0,0,1-.08-1.65,10.5,10.5,0,0,1,.12-2,2.45,2.45,0,0,1,2.49-1.63A2.34,2.34,0,0,1,30.84,22a12.62,12.62,0,0,1,.09,1.95"/></g></svg>