<svg id="CURRENT" xmlns="http://www.w3.org/2000/svg" viewBox="0 0 48 48">
  <title>salesforcesalescloud</title>
  <g>
    <g>
      <path d="M11.28,35.3l-.23.33a1.37,1.37,0,0,0-.79-.25.91.91,0,0,0-.47.11.38.38,0,0,0-.16.33.41.41,0,0,0,.07.25.58.58,0,0,0,.22.17l.47.14a1.52,1.52,0,0,1,.71.34.77.77,0,0,1,.23.59A.85.85,0,0,1,11,38a1.38,1.38,0,0,1-.85.25A1.76,1.76,0,0,1,9,37.92l.24-.33a1.6,1.6,0,0,0,.41.21,1.31,1.31,0,0,0,.46.07.82.82,0,0,0,.5-.14.46.46,0,0,0,.18-.39.4.4,0,0,0-.07-.26.44.44,0,0,0-.22-.17,2.77,2.77,0,0,0-.48-.15,1.52,1.52,0,0,1-.7-.33.82.82,0,0,1,.09-1.22,1.29,1.29,0,0,1,.82-.24A1.68,1.68,0,0,1,11.28,35.3Z" style="fill: #6b6b6b"/>
      <path d="M11.83,37.34a.89.89,0,0,1,.44-.85,2.9,2.9,0,0,1,1.33-.24h.33v-.18a.65.65,0,0,0-.19-.52.83.83,0,0,0-.59-.18,1.79,1.79,0,0,0-.94.27L12,35.3A2.11,2.11,0,0,1,13.18,35a1.36,1.36,0,0,1,1,.31,1.31,1.31,0,0,1,.3.94V37.5a5.47,5.47,0,0,0,.05.69H14a2.87,2.87,0,0,1,0-.42h0a1,1,0,0,1-.43.38,1.48,1.48,0,0,1-.67.13,1.1,1.1,0,0,1-.74-.24A.9.9,0,0,1,11.83,37.34Zm2.1-.3v-.41h-.28a3.49,3.49,0,0,0-.73.06.88.88,0,0,0-.41.21.6.6,0,0,0-.13.42.5.5,0,0,0,.16.41.6.6,0,0,0,.44.15.92.92,0,0,0,.51-.13.85.85,0,0,0,.33-.32A.76.76,0,0,0,13.93,37Z" style="fill: #6b6b6b"/>
      <path d="M15.89,33.83v4.36h-.53V33.83Z" style="fill: #6b6b6b"/>
      <path d="M19.51,36.81H17.18a1.24,1.24,0,0,0,.29.77.94.94,0,0,0,.74.28,1.66,1.66,0,0,0,.51-.07,2.2,2.2,0,0,0,.45-.24l.23.34a1.76,1.76,0,0,1-.56.29,2,2,0,0,1-.66.1,1.45,1.45,0,0,1-1.13-.45,1.78,1.78,0,0,1-.4-1.22,2.13,2.13,0,0,1,.17-.86,1.38,1.38,0,0,1,.5-.57,1.46,1.46,0,0,1,.79-.21,1.27,1.27,0,0,1,1.05.45,1.78,1.78,0,0,1,.36,1.17A1.28,1.28,0,0,1,19.51,36.81Zm-.5-.4a1.22,1.22,0,0,0-.24-.75.79.79,0,0,0-.66-.29.83.83,0,0,0-.68.3,1.18,1.18,0,0,0-.26.74Z" style="fill: #6b6b6b"/>
      <path d="M22.21,35.3l-.23.33a1.35,1.35,0,0,0-.79-.25.84.84,0,0,0-.46.11.39.39,0,0,0-.17.33.41.41,0,0,0,.07.25.55.55,0,0,0,.23.17,3.58,3.58,0,0,0,.47.14,1.57,1.57,0,0,1,.71.34.81.81,0,0,1,.23.59.86.86,0,0,1-.35.72,1.38,1.38,0,0,1-.85.25,1.76,1.76,0,0,1-1.13-.36l.24-.33a1.77,1.77,0,0,0,.41.21,1.37,1.37,0,0,0,.47.07.81.81,0,0,0,.49-.14.46.46,0,0,0,.18-.39.4.4,0,0,0-.07-.26.44.44,0,0,0-.22-.17,2.37,2.37,0,0,0-.47-.15,1.57,1.57,0,0,1-.71-.33.84.84,0,0,1,.09-1.22,1.31,1.31,0,0,1,.82-.24A1.68,1.68,0,0,1,22.21,35.3Z" style="fill: #6b6b6b"/>
      <path d="M25.51,35a1.79,1.79,0,0,1,.57.09,1.57,1.57,0,0,1,.48.25l-.21.36a1.42,1.42,0,0,0-.84-.26.91.91,0,0,0-.76.33,1.62,1.62,0,0,0,0,1.76.89.89,0,0,0,.76.34,1.54,1.54,0,0,0,.84-.27l.19.37a1.75,1.75,0,0,1-1.07.34A1.49,1.49,0,0,1,24.6,38a1.34,1.34,0,0,1-.49-.61,2.16,2.16,0,0,1-.15-.81,1.73,1.73,0,0,1,.41-1.2A1.48,1.48,0,0,1,25.51,35Z" style="fill: #6b6b6b"/>
      <path d="M27.71,33.83v4.36h-.53V33.83Z" style="fill: #6b6b6b"/>
      <path d="M31.62,36.62a2,2,0,0,1-.19.86,1.41,1.41,0,0,1-.54.59,1.65,1.65,0,0,1-.85.21,1.61,1.61,0,0,1-.84-.21,1.42,1.42,0,0,1-.55-.59,2,2,0,0,1-.18-.86,1.73,1.73,0,0,1,.41-1.2A1.5,1.5,0,0,1,30,35a1.62,1.62,0,0,1,.85.21,1.35,1.35,0,0,1,.54.57A1.86,1.86,0,0,1,31.62,36.62Zm-2.61,0a1.48,1.48,0,0,0,.26.9.88.88,0,0,0,.77.34.9.9,0,0,0,.78-.34,1.48,1.48,0,0,0,.26-.9,1.46,1.46,0,0,0-.26-.9,1.09,1.09,0,0,0-1.56,0A1.52,1.52,0,0,0,29,36.62Z" style="fill: #6b6b6b"/>
      <path d="M32.32,37V35.06h.53v1.85a1.2,1.2,0,0,0,.19.69.68.68,0,0,0,.58.26.85.85,0,0,0,.69-.32,1.23,1.23,0,0,0,.26-.81V35.06h.53V37.5a5.43,5.43,0,0,0,0,.69h-.5a3.11,3.11,0,0,1,0-.49h0a1.14,1.14,0,0,1-1.08.58,1.08,1.08,0,0,1-.88-.36A1.41,1.41,0,0,1,32.32,37Z" style="fill: #6b6b6b"/>
      <path d="M38.89,38.19H38.4a2.77,2.77,0,0,1,0-.46h0a1.23,1.23,0,0,1-1.12.55,1.21,1.21,0,0,1-1-.45,1.89,1.89,0,0,1-.36-1.19,1.93,1.93,0,0,1,.18-.85,1.47,1.47,0,0,1,.5-.6A1.32,1.32,0,0,1,37.3,35a1.36,1.36,0,0,1,1,.41V33.83h.53V37.5A5.43,5.43,0,0,0,38.89,38.19Zm-.57-1.35v-1a1.22,1.22,0,0,0-.41-.35,1.3,1.3,0,0,0-.54-.11.83.83,0,0,0-.71.34,1.7,1.7,0,0,0,0,1.79.83.83,0,0,0,.69.33.94.94,0,0,0,.72-.28A1.09,1.09,0,0,0,38.32,36.84Z" style="fill: #6b6b6b"/>
    </g>
    <g>
      <path d="M21.12,10.78a6,6,0,0,1,9.65,1.27,7.46,7.46,0,1,1,3,14.31,7,7,0,0,1-1.46-.15,5.39,5.39,0,0,1-7.09,2.23,6.17,6.17,0,0,1-11.48-.28,5.71,5.71,0,0,1-6.92-5.67,5.83,5.83,0,0,1,2.87-5,6.67,6.67,0,0,1,11.43-6.69" style="fill: #0f9bd7"/>
      <path d="M11.8,20.63a.07.07,0,0,0,0,.08l.2.12a2.16,2.16,0,0,0,1,.24c.7,0,1.14-.38,1.14-1h0c0-.56-.49-.76-1-.91l-.06,0c-.35-.11-.65-.21-.65-.44h0c0-.2.18-.34.45-.34a2.21,2.21,0,0,1,.9.22s.06.05.09,0l.14-.38a.06.06,0,0,0,0-.08,2,2,0,0,0-1-.27H13a1,1,0,0,0-1.1.94v0c0,.58.5.78,1,.91l.08,0c.34.11.63.2.63.43v0c0,.21-.19.38-.5.38a1.75,1.75,0,0,1-.9-.26L12,20.21s-.07,0-.09,0Z" style="fill: #fff"/>
      <path d="M22.12,20.63c0,.06,0,.07,0,.08l.2.12a2.15,2.15,0,0,0,1,.24c.71,0,1.15-.38,1.15-1h0c0-.56-.5-.76-1-.91l-.06,0c-.35-.11-.65-.21-.65-.44h0c0-.2.17-.34.45-.34a2.12,2.12,0,0,1,.89.22s.07.05.09,0,.14-.35.15-.38a.06.06,0,0,0,0-.08,2,2,0,0,0-1-.27h-.07a1,1,0,0,0-1.09.94v0c0,.58.5.78,1,.91l.08,0c.33.11.63.2.63.43v0c0,.21-.19.38-.5.38a1.75,1.75,0,0,1-.91-.26l-.11-.08s-.08,0-.1,0Z" style="fill: #fff"/>
      <path d="M29.75,18.82a1.38,1.38,0,0,0-.27-.51A1.3,1.3,0,0,0,29,18a1.57,1.57,0,0,0-.63-.13,1.5,1.5,0,0,0-.63.13,1.34,1.34,0,0,0-.46.35,1.23,1.23,0,0,0-.26.51,2.08,2.08,0,0,0-.09.63,2.13,2.13,0,0,0,.09.63,1.23,1.23,0,0,0,.26.51,1.2,1.2,0,0,0,.46.34,1.54,1.54,0,0,0,.63.13,1.57,1.57,0,0,0,.63-.13,1.17,1.17,0,0,0,.45-.34,1.38,1.38,0,0,0,.27-.51,2.53,2.53,0,0,0,.08-.63,2.47,2.47,0,0,0-.08-.63m-.59.63a1.5,1.5,0,0,1-.19.8.63.63,0,0,1-.57.28.61.61,0,0,1-.57-.28,1.78,1.78,0,0,1,0-1.6.62.62,0,0,1,.57-.27.65.65,0,0,1,.57.27,1.5,1.5,0,0,1,.19.8" style="fill: #fff"/>
      <path d="M34.58,20.44a.06.06,0,0,0-.08,0l-.27.08-.32,0a.89.89,0,0,1-.68-.25,1.14,1.14,0,0,1-.25-.8,1.21,1.21,0,0,1,.23-.78.76.76,0,0,1,.65-.29,2,2,0,0,1,.62.09.05.05,0,0,0,.07,0c.05-.14.09-.24.14-.4s0-.06,0-.07a2.32,2.32,0,0,0-.4-.1,2.76,2.76,0,0,0-.44,0,1.51,1.51,0,0,0-.65.13,1.39,1.39,0,0,0-.48.34,1.58,1.58,0,0,0-.28.51,1.91,1.91,0,0,0-.1.64,1.7,1.7,0,0,0,.39,1.17,1.48,1.48,0,0,0,1.16.43,2.63,2.63,0,0,0,.84-.14.07.07,0,0,0,0-.08Z" style="fill: #fff;fill-rule: evenodd"/>
      <path d="M37.59,18.71a1.29,1.29,0,0,0-.26-.47A1.07,1.07,0,0,0,37,18a1.41,1.41,0,0,0-.57-.11,1.69,1.69,0,0,0-.66.12,1.43,1.43,0,0,0-.45.35,1.36,1.36,0,0,0-.27.52,2.2,2.2,0,0,0-.09.64,2.13,2.13,0,0,0,.09.63,1.28,1.28,0,0,0,.29.51,1.37,1.37,0,0,0,.5.33,1.94,1.94,0,0,0,.72.12,2.12,2.12,0,0,0,1-.2s.05,0,0-.1l-.13-.36a.05.05,0,0,0-.07,0,1.86,1.86,0,0,1-.82.15.9.9,0,0,1-.68-.24.89.89,0,0,1-.23-.66h2a0,0,0,0,0,0-.05,2,2,0,0,0,0-.85m-2,.41a1,1,0,0,1,.16-.47.64.64,0,0,1,.57-.29.61.61,0,0,1,.55.29,1,1,0,0,1,.14.47Z" style="fill: #fff;fill-rule: evenodd"/>
      <path d="M21.64,18.71a1.16,1.16,0,0,0-.26-.47A1,1,0,0,0,21,18a1.48,1.48,0,0,0-.57-.11,1.66,1.66,0,0,0-.66.12,1.48,1.48,0,0,0-.46.35,1.51,1.51,0,0,0-.27.52,2.2,2.2,0,0,0-.09.64,2.13,2.13,0,0,0,.09.63,1.28,1.28,0,0,0,.29.51,1.37,1.37,0,0,0,.5.33,2,2,0,0,0,.73.12,2.19,2.19,0,0,0,1-.2.08.08,0,0,0,0-.1l-.14-.36a.05.05,0,0,0-.07,0,1.79,1.79,0,0,1-.82.15.9.9,0,0,1-.68-.24.89.89,0,0,1-.23-.66h2a.06.06,0,0,0,.06-.05,2.1,2.1,0,0,0-.06-.85m-2,.41a1.18,1.18,0,0,1,.16-.47.7.7,0,0,1,1.13,0,1.08,1.08,0,0,1,.13.47Z" style="fill: #fff;fill-rule: evenodd"/>
      <path d="M16.15,19h-.31a1.93,1.93,0,0,0-.49.06,1.35,1.35,0,0,0-.42.19,1,1,0,0,0-.29.33,1,1,0,0,0-.11.46,1,1,0,0,0,.1.45.74.74,0,0,0,.26.32,1,1,0,0,0,.4.17,2.2,2.2,0,0,0,.53.06,3.94,3.94,0,0,0,.6,0l.51-.1.13,0a.06.06,0,0,0,.05-.06V19a1.11,1.11,0,0,0-.32-.88,1.31,1.31,0,0,0-.91-.28,3.29,3.29,0,0,0-.54.05,2,2,0,0,0-.61.23s0,0,0,.08l.14.37a.06.06,0,0,0,.07,0l0,0a2,2,0,0,1,.87-.2.77.77,0,0,1,.49.13c.11.08.17.21.17.47v.09l-.33,0m-.8,1.4-.11-.12a.48.48,0,0,1-.06-.26.45.45,0,0,1,.18-.39.87.87,0,0,1,.58-.14,4,4,0,0,1,.54,0v.91a5.21,5.21,0,0,1-.54.07,1,1,0,0,1-.59-.11" style="fill: #fff"/>
      <path d="M32.21,18a.06.06,0,0,0,0-.07,2.45,2.45,0,0,0-.34-.06,1.1,1.1,0,0,0-.51.08,1.07,1.07,0,0,0-.34.25V18a.06.06,0,0,0,0-.06h-.51a.06.06,0,0,0-.06.06v3a.06.06,0,0,0,.06.06H31a.06.06,0,0,0,.06-.06V19.45a1.62,1.62,0,0,1,.07-.53.74.74,0,0,1,.17-.29.73.73,0,0,1,.25-.15.88.88,0,0,1,.27,0,.93.93,0,0,1,.21,0s.06,0,.08,0l.15-.42" style="fill: #fff;fill-rule: evenodd"/>
      <path d="M27.3,16.62l-.2,0a1.41,1.41,0,0,0-1.11.28,1.57,1.57,0,0,0-.4.9l0,.14h-.45A.06.06,0,0,0,25,18l-.07.42s0,.06.06.06h.44L25,20.92a4.66,4.66,0,0,1-.12.5,1.45,1.45,0,0,1-.14.28.42.42,0,0,1-.18.14.88.88,0,0,1-.24,0h-.16l-.1,0s-.06,0-.08,0-.13.37-.14.41a.05.05,0,0,0,0,.08l.18.05a1,1,0,0,0,.29,0,1.48,1.48,0,0,0,.49-.08,1,1,0,0,0,.37-.25,1.52,1.52,0,0,0,.26-.45,5.39,5.39,0,0,0,.17-.67l.45-2.54h.65a.07.07,0,0,0,.07-.06l.08-.41s0-.06-.07-.06H26.2s0-.24.11-.45a.55.55,0,0,1,.14-.21.39.39,0,0,1,.17-.11.66.66,0,0,1,.21,0l.16,0,.1,0c.07,0,.08,0,.09,0l.15-.42s0-.06,0-.07" style="fill: #fff;fill-rule: evenodd"/>
      <rect x="17.76" y="16.62" width="0.64" height="4.37" rx="0.06" ry="0.06" style="fill: #fff"/>
    </g>
  </g>
</svg>
