<svg xmlns="http://www.w3.org/2000/svg" viewBox="0 0 48 48">
  <title>salestaxiapi</title>
  <g id="Layer_3" data-name="Layer 3">
    <g id="OxBIDX.tif">
      <path d="M24.09,32.4s.13-2.48.19-3.71a.78.78,0,0,0-.74-.86,2.72,2.72,0,0,0-.63.08L16.83,29l-.75.14.16-.45c.26-.72.52-1.44.79-2.16a.6.6,0,0,0-.22-.78L9.06,19.44l-.12-.1.16-.07,1.54-.73a.56.56,0,0,0,.35-.78c-.5-1.52-1-3.05-1.49-4.57,0-.06,0-.11-.05-.19l1.1.24L14,14a.55.55,0,0,0,.69-.36c.27-.63.54-1.26.8-1.89l.08-.17a.56.56,0,0,0,.1.14L19,15.34a.61.61,0,0,0,.59.22.53.53,0,0,0,.41-.62c-.16-.9-.34-1.8-.51-2.7Q19,9.43,18.44,6.63c0-.19-.07-.39-.12-.6l.73.41,2,1.14a.57.57,0,0,0,.88-.26L24.58,2a1.15,1.15,0,0,1,.08-.15l.08.16,2.67,5.23a.58.58,0,0,0,.94.28l2.5-1.45L31,6c0,.23-.08.44-.12.65-.5,2.59-1,5.19-1.51,7.78,0,.15-.06.31-.08.46a.54.54,0,0,0,.28.59.55.55,0,0,0,.66-.11l.87-.93,2.61-2.8a1.05,1.05,0,0,0,.08-.13c.19.45.37.86.54,1.27l.33.78a.57.57,0,0,0,.71.37L39.8,13h.07l-.06.19c-.49,1.52-1,3-1.48,4.56a.56.56,0,0,0,.34.78l1.58.74.13.06-.2.16q-3.84,3.12-7.69,6.23a.57.57,0,0,0-.2.75c.29.82.59,1.64.89,2.46,0,0,0,.09,0,.16L32.41,29l-4.63-.81L26,27.83a.8.8,0,0,0-.94.8c0,.46,0,.92.06,1.39,0,.78.13,2.33.13,2.33Z" style="fill: #e44333"/>
    </g>
    <path d="M27.27,21.52a1,1,0,0,0,1,1,1.48,1.48,0,0,0,1.45-1,1.07,1.07,0,0,0,.06-.35v-1C28.62,20.14,27.27,20.36,27.27,21.52Z" style="fill: none"/>
    <g>
      <path d="M5.83,41.71V40.37H7.4v.92c0,.81.3,1.22.91,1.22s1-.43,1-1.3A2.59,2.59,0,0,0,9.11,40a8.59,8.59,0,0,0-1.44-1.69,9,9,0,0,1-1.3-1.52,3.62,3.62,0,0,1-.54-1.92c0-1.76.86-2.65,2.57-2.65a2.58,2.58,0,0,1,1.83.63,1.87,1.87,0,0,1,.46,1.44v1.06H9.22v-.89c0-.68-.3-1-.88-1s-.94.41-.94,1.23a2.29,2.29,0,0,0,.25,1.1A10,10,0,0,0,9,37.44a9.88,9.88,0,0,1,1.48,1.85A3.63,3.63,0,0,1,10.81,41c0,1.85-.85,2.78-2.55,2.78S5.83,43.06,5.83,41.71Z" style="fill: #5e5e5e"/>
      <path d="M11.73,38.1v-.71c0-1.13.7-1.7,2.1-1.7s2.08.63,2.08,1.91v6H14.54v-.82a2.11,2.11,0,0,0-.22.26,2.75,2.75,0,0,1-.21.23,1.42,1.42,0,0,1-1,.42,1.26,1.26,0,0,1-1-.37,2.91,2.91,0,0,1-.4-1.77,10.34,10.34,0,0,1,.05-1.25,2,2,0,0,1,.49-1.12,1.23,1.23,0,0,1,.64-.37,8.22,8.22,0,0,1,1.64-.11V37.47c0-.5-.2-.75-.61-.75s-.62.22-.62.66v.72Zm2.71,1.67H14a.7.7,0,0,0-.69.34,3,3,0,0,0-.18,1.28c0,.79.11,1.22.33,1.28a.78.78,0,0,0,.24,0c.52,0,.77-.3.77-.91Z" style="fill: #5e5e5e"/>
      <path d="M17,43.64V32.34h1.47v11.3Z" style="fill: #5e5e5e"/>
      <path d="M19.53,41.78v-4a2.07,2.07,0,0,1,.56-1.56,2.12,2.12,0,0,1,1.57-.55c1.43,0,2.14.65,2.14,2v2.54H21v1.67c0,.63.24.94.72.94s.7-.34.7-1v-.72H23.8v1.11a1.34,1.34,0,0,1-.48,1.08,2.6,2.6,0,0,1-1.71.48C20.22,43.73,19.53,43.08,19.53,41.78ZM21,37.49v1.66h1.42V37.61c0-.65-.23-1-.7-1S21,36.91,21,37.49Z" style="fill: #5e5e5e"/>
      <path d="M28.45,38.32H27.13v-.75c0-.57-.17-.85-.52-.85a.45.45,0,0,0-.43.2,1.24,1.24,0,0,0-.08.52,1.56,1.56,0,0,0,.15.81,5.87,5.87,0,0,0,.9.9,5.77,5.77,0,0,1,1.12,1.19,2.72,2.72,0,0,1,.24,1.28A2.28,2.28,0,0,1,28,43.25a2.22,2.22,0,0,1-1.63.48c-1.16,0-1.75-.53-1.75-1.61V41H26v1.08c0,.41.18.61.55.61s.37-.06.44-.19a1.55,1.55,0,0,0,.1-.69,2.15,2.15,0,0,0-.13-.9,3.56,3.56,0,0,0-.76-.79l-.33-.28a4.79,4.79,0,0,1-1-1.08,2.79,2.79,0,0,1-.16-1.13,1.89,1.89,0,0,1,.54-1.53,2.23,2.23,0,0,1,1.51-.42c1.12,0,1.68.47,1.68,1.42Z" style="fill: #5e5e5e"/>
      <path d="M29,33.65V32.34h5.32v1.31H32.44v10H30.88v-10Z" style="fill: #5e5e5e"/>
      <path d="M33.68,38.1v-.71c0-1.13.7-1.7,2.09-1.7s2.09.63,2.09,1.91v6H36.48v-.82c-.06.07-.14.15-.22.26l-.2.23a1.44,1.44,0,0,1-1.05.42,1.3,1.3,0,0,1-1-.37,2.92,2.92,0,0,1-.39-1.77,11.14,11.14,0,0,1,0-1.25,2,2,0,0,1,.49-1.12,1.27,1.27,0,0,1,.64-.37,8.22,8.22,0,0,1,1.64-.11V37.47c0-.5-.2-.75-.61-.75s-.62.22-.62.66v.72Zm2.7,1.67h-.46a.71.71,0,0,0-.7.34A3,3,0,0,0,35,41.39c0,.79.11,1.22.33,1.28a.81.81,0,0,0,.25,0c.51,0,.76-.3.76-.91Z" style="fill: #5e5e5e"/>
      <path d="M38.34,43.64,40,39.49l-1.52-3.71h1.63l.77,2.41h0l.89-2.41h1.38l-1.55,3.9,1.67,4H41.72l-.94-2.77h0l-.94,2.77Z" style="fill: #5e5e5e"/>
    </g>
  </g>
</svg>
