<svg xmlns="http://www.w3.org/2000/svg" viewBox="0 0 48 48"><title>salesforce</title><path d="M20.89,11.42A7.78,7.78,0,0,1,26.52,9a7.87,7.87,0,0,1,6.84,4.06,9.41,9.41,0,0,1,3.86-.82,9.64,9.64,0,0,1,0,19.28,9,9,0,0,1-1.88-.19,7,7,0,0,1-9.16,2.88,8,8,0,0,1-14.82-.36A7.61,7.61,0,0,1,9.84,34a7.5,7.5,0,0,1-3.7-14,8.61,8.61,0,0,1,14.75-8.63" style="fill:#0f9bd7"/><path d="M8.86,24.13a.09.09,0,0,0,0,.1l.26.15a2.69,2.69,0,0,0,1.32.31c.91,0,1.48-.48,1.48-1.26v0c0-.72-.64-1-1.24-1.17l-.08,0c-.45-.15-.84-.28-.84-.57v0c0-.25.23-.44.58-.44a2.59,2.59,0,0,1,1.16.3s.09.05.12,0,.17-.46.18-.5a.08.08,0,0,0,0-.1,2.57,2.57,0,0,0-1.3-.35h-.09A1.27,1.27,0,0,0,9,21.73v0c0,.76.64,1,1.24,1.17l.1,0c.44.14.82.25.82.56v0c0,.28-.25.49-.65.49a2.11,2.11,0,0,1-1.17-.34l-.15-.09s-.09-.05-.12,0Z" style="fill:#fff"/><path d="M22.18,24.13c0,.07,0,.08,0,.1a2.07,2.07,0,0,0,.25.15,2.7,2.7,0,0,0,1.33.31c.91,0,1.47-.48,1.47-1.26v0c0-.72-.64-1-1.23-1.17l-.08,0c-.45-.15-.84-.28-.84-.57v0c0-.25.22-.44.58-.44a2.55,2.55,0,0,1,1.15.3s.09.05.12,0,.17-.46.19-.5,0-.08-.05-.1a2.54,2.54,0,0,0-1.3-.35H23.7a1.27,1.27,0,0,0-1.41,1.22v0c0,.76.64,1,1.24,1.17l.09,0c.44.14.82.25.82.56v0c0,.28-.25.49-.64.49a2.11,2.11,0,0,1-1.17-.34l-.15-.09s-.1,0-.12,0Z" style="fill:#fff"/><path d="M32,21.79a1.74,1.74,0,0,0-.35-.66,1.62,1.62,0,0,0-.58-.45,2.16,2.16,0,0,0-1.63,0,1.62,1.62,0,0,0-.58.45,1.74,1.74,0,0,0-.35.66,3,3,0,0,0-.11.81,3.07,3.07,0,0,0,.11.82,1.9,1.9,0,0,0,.35.66,1.72,1.72,0,0,0,.58.44,2.16,2.16,0,0,0,1.63,0,1.72,1.72,0,0,0,.58-.44,1.9,1.9,0,0,0,.35-.66,3.07,3.07,0,0,0,.11-.82,3,3,0,0,0-.11-.81m-.76.81a1.78,1.78,0,0,1-.25,1,.93.93,0,0,1-1.47,0,1.87,1.87,0,0,1-.24-1,1.89,1.89,0,0,1,.24-1,.95.95,0,0,1,1.47,0,1.8,1.8,0,0,1,.25,1" style="fill:#fff"/><path d="M38.26,23.88a.07.07,0,0,0-.1-.05,1.79,1.79,0,0,1-.35.1,2.63,2.63,0,0,1-.41,0,1.18,1.18,0,0,1-.87-.32,1.47,1.47,0,0,1-.33-1,1.65,1.65,0,0,1,.29-1,1,1,0,0,1,.84-.37,2.52,2.52,0,0,1,.81.11s.06,0,.08-.05l.19-.52c0-.06,0-.08,0-.09a3,3,0,0,0-.5-.13,4.91,4.91,0,0,0-.57,0,2.08,2.08,0,0,0-.85.16,1.84,1.84,0,0,0-.61.44,1.94,1.94,0,0,0-.37.66,2.71,2.71,0,0,0-.12.82,2.2,2.2,0,0,0,.5,1.51,1.94,1.94,0,0,0,1.5.56,3.2,3.2,0,0,0,1.08-.19.08.08,0,0,0,0-.09Z" style="fill:#fff;fill-rule:evenodd"/><path d="M42.15,21.64a1.75,1.75,0,0,0-.33-.6,1.54,1.54,0,0,0-.49-.37,1.88,1.88,0,0,0-.74-.15,2,2,0,0,0-.85.16,1.92,1.92,0,0,0-.59.46,2,2,0,0,0-.35.66,3.12,3.12,0,0,0-.11.82,2.62,2.62,0,0,0,.12.82,1.79,1.79,0,0,0,.37.66,1.89,1.89,0,0,0,.65.43,2.83,2.83,0,0,0,.93.15,2.74,2.74,0,0,0,1.29-.26s.06,0,0-.12l-.17-.47a.08.08,0,0,0-.1,0,2.42,2.42,0,0,1-1.05.19,1.22,1.22,0,0,1-.88-.3,1.2,1.2,0,0,1-.3-.86h2.57a.07.07,0,0,0,.07-.07,2.86,2.86,0,0,0-.07-1.11m-2.56.54a1.52,1.52,0,0,1,.21-.61.9.9,0,0,1,1.45,0,1.25,1.25,0,0,1,.17.61Z" style="fill:#fff;fill-rule:evenodd"/><path d="M21.56,21.64a1.6,1.6,0,0,0-.32-.6,1.54,1.54,0,0,0-.49-.37,1.88,1.88,0,0,0-.74-.15,2,2,0,0,0-.85.16,1.92,1.92,0,0,0-.59.46,2,2,0,0,0-.35.66,3.12,3.12,0,0,0-.11.82,2.62,2.62,0,0,0,.12.82,1.79,1.79,0,0,0,.37.66,1.89,1.89,0,0,0,.65.43,2.79,2.79,0,0,0,.93.15,2.74,2.74,0,0,0,1.29-.26s.06,0,0-.12l-.16-.47a.08.08,0,0,0-.1,0,2.48,2.48,0,0,1-1.06.19A1,1,0,0,1,19,22.81h2.57a.07.07,0,0,0,.07-.07,2.75,2.75,0,0,0-.08-1.11M19,22.18a1.38,1.38,0,0,1,.21-.61.9.9,0,0,1,1.45,0,1.25,1.25,0,0,1,.17.61Z" style="fill:#fff;fill-rule:evenodd"/><path d="M14.48,22.06l-.4,0a2.2,2.2,0,0,0-.64.09,1.51,1.51,0,0,0-.53.24,1.3,1.3,0,0,0-.38.43,1.25,1.25,0,0,0-.13.59,1.32,1.32,0,0,0,.11.59,1,1,0,0,0,.34.4,1.55,1.55,0,0,0,.52.23,3.47,3.47,0,0,0,.68.07,4.92,4.92,0,0,0,.78-.07l.65-.12.18,0a.09.09,0,0,0,.06-.08V22a1.45,1.45,0,0,0-.41-1.14,1.73,1.73,0,0,0-1.18-.35,4,4,0,0,0-.69.06,2.49,2.49,0,0,0-.79.29.09.09,0,0,0,0,.1l.19.49a.06.06,0,0,0,.08,0l0,0a2.6,2.6,0,0,1,1.12-.26,1.06,1.06,0,0,1,.64.17c.14.1.21.27.21.61v.11a3.67,3.67,0,0,0-.42-.05m-1,1.8a.43.43,0,0,1-.14-.15.54.54,0,0,1-.08-.33.55.55,0,0,1,.23-.5,1.18,1.18,0,0,1,.74-.19,6.43,6.43,0,0,1,.7.06v1.17a5.14,5.14,0,0,1-.69.09,1.18,1.18,0,0,1-.76-.15" style="fill:#fff"/><path d="M35.2,20.73a.07.07,0,0,0,0-.09,2.22,2.22,0,0,0-.44-.07,1.3,1.3,0,0,0-.66.1,1.16,1.16,0,0,0-.43.32v-.31a.08.08,0,0,0-.08-.08H32.9a.08.08,0,0,0-.07.08v3.83a.08.08,0,0,0,.08.08h.67a.07.07,0,0,0,.08-.08V22.6a2.2,2.2,0,0,1,.09-.68.89.89,0,0,1,.22-.37.67.67,0,0,1,.32-.19,1.12,1.12,0,0,1,.34-.05,1.72,1.72,0,0,1,.29,0s.07,0,.09-.07.17-.47.19-.54" style="fill:#fff;fill-rule:evenodd"/><path d="M28.87,19a1.1,1.1,0,0,0-.26-.06,1.75,1.75,0,0,0-.35,0,1.48,1.48,0,0,0-1.09.39,2.19,2.19,0,0,0-.51,1.16l0,.18H26a.08.08,0,0,0-.08.07l-.1.54c0,.05,0,.08.08.08h.57l-.57,3.22a4.06,4.06,0,0,1-.16.63,1.16,1.16,0,0,1-.18.37.47.47,0,0,1-.23.18,1,1,0,0,1-.3,0l-.21,0a.58.58,0,0,1-.14-.05s-.07,0-.09,0l-.19.53a.07.07,0,0,0,0,.1l.23.07a1.8,1.8,0,0,0,.38,0,2,2,0,0,0,.63-.09,1.18,1.18,0,0,0,.47-.33,1.74,1.74,0,0,0,.34-.58,4.64,4.64,0,0,0,.22-.86l.58-3.28h.85a.1.1,0,0,0,.09-.07l.09-.54c0-.05,0-.08-.08-.08h-.82a3.17,3.17,0,0,1,.13-.58.85.85,0,0,1,.18-.28.61.61,0,0,1,.22-.13.77.77,0,0,1,.27,0l.21,0,.14,0c.08,0,.09,0,.11,0l.19-.54a.07.07,0,0,0,0-.09" style="fill:#fff;fill-rule:evenodd"/><path d="M17.39,24.51a.08.08,0,0,1-.08.08h-.68a.07.07,0,0,1-.07-.08V19a.08.08,0,0,1,.07-.08h.68a.09.09,0,0,1,.08.08Z" style="fill:#fff;fill-rule:evenodd"/></svg>