<svg xmlns="http://www.w3.org/2000/svg" viewBox="0 0 48 48">
  <title>icon-</title>
  <g id="sansan">
    <g id="rBMAzj">
      <g>
        <path d="M4,31.54V29.26H43.93v2.28Z" style="fill: #d70c18"/>
        <path d="M42.36,23.56h-.63c-.32,0-.4-.09-.34-.41.19-1.08.38-2.16.56-3.24a6.22,6.22,0,0,0,.1-1.05.63.63,0,0,0-.62-.63h-.2c-.77,0-.86.05-1,.81-.24,1.38-.49,2.76-.72,4.15a.4.4,0,0,1-.47.39c-.41,0-.82,0-1.23,0s-.39-.08-.33-.4c.34-1.92.69-3.83,1-5.75,0-.14.12-.35.24-.4a6.45,6.45,0,0,1,3.47-.45,2.21,2.21,0,0,1,1.84,2.7c-.18,1.32-.46,2.62-.68,3.92,0,.3-.18.4-.46.38Z" style="fill: #004e98"/>
        <path d="M18.21,23.56h-.53c-.43,0-.48-.07-.4-.5l.45-2.48c.19-1.07.39-2.15.59-3.23,0-.12.12-.3.22-.33A6.26,6.26,0,0,1,22,16.55,2.15,2.15,0,0,1,23.86,19c-.07.8-.23,1.6-.37,2.39-.09.58-.21,1.15-.3,1.73-.05.29-.17.43-.48.42s-.82,0-1.23,0c-.25,0-.36-.09-.31-.37.22-1.23.42-2.46.63-3.69.17-1-.12-1.36-1.16-1.26-.45,0-.51.1-.59.54-.26,1.48-.53,3-.78,4.44-.05.28-.18.35-.43.34Z" style="fill: #004e98"/>
        <path d="M35,19.42a4.75,4.75,0,0,0,0-.51.55.55,0,0,0-.49-.61,3.27,3.27,0,0,0-1.7.14c-.28.09-.39,0-.46-.24s-.21-.61-.27-.92c0-.1,0-.31.13-.34a4.8,4.8,0,0,1,3.27-.32A2,2,0,0,1,37,18.73a23.62,23.62,0,0,1-.34,2.49c-.09.57-.2,1.13-.32,1.69,0,.13-.11.3-.21.33a6.6,6.6,0,0,1-3.85.33,1.9,1.9,0,0,1-1.51-1.84,2.1,2.1,0,0,1,1.39-2.1,5.37,5.37,0,0,1,2.42-.22,2.48,2.48,0,0,1,.27,0ZM33.8,20.57a.91.91,0,1,0,.91.9A.91.91,0,0,0,33.8,20.57Z" style="fill: #004e98"/>
        <path d="M14.7,19.44c0-.15.07-.29.09-.43a.57.57,0,0,0-.54-.7,8.89,8.89,0,0,0-1.63.13c-.29,0-.43,0-.5-.27a6.92,6.92,0,0,0-.28-.88.25.25,0,0,1,.16-.37,5,5,0,0,1,3.25-.31A2.11,2.11,0,0,1,16.74,19c-.08.81-.24,1.62-.37,2.43-.08.46-.18.93-.25,1.4a.54.54,0,0,1-.43.51,7.3,7.3,0,0,1-3.34.31,2,2,0,0,1-1.82-1.88,2.12,2.12,0,0,1,1.75-2.25,5.76,5.76,0,0,1,2.15-.08Zm-1.12,2.94a.9.9,0,0,0,.9-.9.88.88,0,0,0-.89-.91.91.91,0,1,0,0,1.81Z" style="fill: #004e98"/>
        <path d="M26.85,23.71A4,4,0,0,1,24.4,23c-.37-.26-.38-.31-.13-.66s.39-.51.57-.77.27-.22.47-.08a2.71,2.71,0,0,0,2,.48.67.67,0,0,0,.38-.1.93.93,0,0,0,.32-.48c0-.11-.19-.31-.34-.37-.36-.13-.74-.19-1.11-.32a2,2,0,0,1-1.45-1.33,2.17,2.17,0,0,1,1.36-2.63,4.26,4.26,0,0,1,3.39.18c.23.11.28.24.17.47s-.23.57-.33.86-.21.22-.41.18c-.54-.11-1.08-.19-1.63-.25a.72.72,0,0,0-.46.15.39.39,0,0,0,.13.71c.29.12.62.15.91.28a4.86,4.86,0,0,1,1.21.59,2.08,2.08,0,0,1-.46,3.33A3.75,3.75,0,0,1,26.85,23.71Z" style="fill: #004e98"/>
        <path d="M6.56,23.71A4.06,4.06,0,0,1,4.12,23c-.26-.18-.3-.34-.09-.59a7.51,7.51,0,0,0,.58-.78c.15-.21.29-.25.52-.08A2.71,2.71,0,0,0,7.05,22a1.5,1.5,0,0,0,.29-.06.52.52,0,0,0,.43-.49c0-.27-.21-.36-.42-.43-.46-.15-.93-.24-1.36-.42a1.81,1.81,0,0,1-1.23-1.73,2.16,2.16,0,0,1,1.49-2.11,4.22,4.22,0,0,1,3.32.18c.24.11.3.25.19.49s-.23.56-.32.84-.22.24-.44.19c-.52-.11-1.06-.19-1.59-.25A.79.79,0,0,0,7,18.3.4.4,0,0,0,7,19a3.91,3.91,0,0,0,.68.24c.28.09.56.15.83.25a1.88,1.88,0,0,1,1.33,1.59,2.22,2.22,0,0,1-.92,2.06A3.67,3.67,0,0,1,6.56,23.71Z" style="fill: #004e98"/>
      </g>
    </g>
  </g>
</svg>
