<svg xmlns="http://www.w3.org/2000/svg" viewBox="0 0 48 48"><title>sapbydesign</title><g id="c1305537-bf3e-497b-b300-da7d18f5ffbd" data-name="ALT"><path d="M36,30.34c-.38-.08-.76-.16-1.13-.26a5.73,5.73,0,0,1-.67-.26l.5-1.1a3.32,3.32,0,0,0,1.6.46,2.7,2.7,0,0,0,.75-.09,1.13,1.13,0,0,0,.8-1.15c0-.09,0-.19,0-.32-.05.05-.08.06-.1.09A2.19,2.19,0,0,1,34,26.61a2.46,2.46,0,0,1,.68-2.41,2.23,2.23,0,0,1,3,.05l.13.11v-.61h1.45v4a3,3,0,0,1-.3,1.41,2.21,2.21,0,0,1-1.83,1.12l-.18,0ZM35.41,26a1.14,1.14,0,0,0,1.2,1.19A1.16,1.16,0,0,0,37.85,26a1.17,1.17,0,0,0-1.23-1.2A1.15,1.15,0,0,0,35.41,26Z" style="fill:#f0ab00"/><path d="M11.07,30.34,10.16,30,10.65,29c.18.06.35.12.51.16a.61.61,0,0,0,.27,0,.35.35,0,0,0,.27-.51q-.93-2.34-1.84-4.7l-.07-.18c.5,0,1,0,1.45,0,0,0,.12.1.14.17.34,1,.67,2,1,3,0,.06,0,.13.09.25l1.1-3.4h1.49A1.29,1.29,0,0,1,15,24c-.62,1.64-1.23,3.29-1.85,4.94-.06.15-.13.3-.19.44a1.59,1.59,0,0,1-1.12,1Z" style="fill:#f0ab00"/><path d="M8.72,25.35,9,25.5a1.56,1.56,0,0,1,.89,1.55,1.61,1.61,0,0,1-1,1.47,3.2,3.2,0,0,1-1.36.29c-1.06,0-2.13,0-3.19,0h-.1V22.21l0,0q1.71,0,3.42,0a2.16,2.16,0,0,1,.66.14,1.63,1.63,0,0,1,.38,2.91Zm-3,2.14c.71,0,1.4,0,2.1,0a.62.62,0,0,0,.62-.54.69.69,0,0,0-.69-.83,11.16,11.16,0,0,0-1.16,0H5.73Zm0-2.65H7.38a.89.89,0,0,0,.32-.08A.62.62,0,0,0,8.07,24a.73.73,0,0,0-.74-.48c-.43,0-.86,0-1.29,0H5.73Z" style="fill:#f0ab00"/><path d="M15.4,28.77V22.21l.07,0c1,0,2,0,3,.05a3.05,3.05,0,0,1,2.75,1.94,3.22,3.22,0,0,1-.45,3.41,3,3,0,0,1-2.2,1.17C17.53,28.82,16.48,28.77,15.4,28.77Zm1.47-1.32a9.62,9.62,0,0,0,1.52,0,1.94,1.94,0,0,0,1.45-2.69,1.78,1.78,0,0,0-1.63-1.22c-.44,0-.89,0-1.34,0Z" style="fill:#f0ab00"/><path d="M25.71,27.24l.82.73a2.39,2.39,0,0,1-1.62.92,3.06,3.06,0,0,1-1.44-.13,2.52,2.52,0,0,1-1.66-2.44,2.56,2.56,0,0,1,1.8-2.58,2.36,2.36,0,0,1,3.11,2,9.11,9.11,0,0,1,.08,1.07H23.27C23.42,27.83,24.81,28.12,25.71,27.24Zm-.34-1.39a1.05,1.05,0,1,0-2.1,0Z" style="fill:#f0ab00"/><path d="M41.69,28.8H40.27V23.75h1.42v.6l.06,0c.06-.07.11-.15.18-.22a1.69,1.69,0,0,1,1.94-.41,1.52,1.52,0,0,1,1,1.52c0,1.15,0,2.29,0,3.43,0,0,0,0,0,.08H43.45V26a1.39,1.39,0,0,0,0-.35.78.78,0,0,0-.87-.71.82.82,0,0,0-.83.77c0,.13,0,.25,0,.38V28.8Z" style="fill:#f0ab00"/><path d="M27.05,28.16l.63-1,.35.21a2.38,2.38,0,0,0,1.4.37.59.59,0,0,0,.26-.07.3.3,0,0,0,0-.54,2.74,2.74,0,0,0-.58-.25c-.26-.09-.54-.16-.8-.26a1.4,1.4,0,0,1-1-1.52,1.51,1.51,0,0,1,1.24-1.39,3.23,3.23,0,0,1,2.5.52l-.54,1a4.39,4.39,0,0,0-.44-.21,8.24,8.24,0,0,0-.85-.24.6.6,0,0,0-.37,0,.4.4,0,0,0-.22.24.39.39,0,0,0,.15.31c.3.15.62.26.93.39a5.78,5.78,0,0,1,.72.31,1.29,1.29,0,0,1,.73,1.34,1.41,1.41,0,0,1-.87,1.27,3,3,0,0,1-2.4-.06C27.62,28.51,27.35,28.32,27.05,28.16Z" style="fill:#f0ab00"/><path d="M4.3,21.36v-4l0,0c.68,0,1.35,0,2,0a1,1,0,0,1,1,.8,1,1,0,0,1-.53,1.1l.24.12a1,1,0,0,1,0,1.76,1.81,1.81,0,0,1-.67.21C5.76,21.37,5,21.36,4.3,21.36ZM5,20.74h.89a3.13,3.13,0,0,0,.61,0,.49.49,0,0,0,.42-.5.47.47,0,0,0-.43-.5c-.49-.05-1-.05-1.49-.07Zm0-1.69c.43,0,.85,0,1.26-.06a.46.46,0,0,0,.43-.49.42.42,0,0,0-.4-.48c-.43,0-.86,0-1.29,0Z" style="fill:#8b8c8e"/><path d="M33.32,24.16V28.8H31.9a1.7,1.7,0,0,1,0-.22c0-1,0-2.07,0-3.1a.32.32,0,0,1,.15-.3Z" style="fill:#f0ab00"/><path d="M21.31,20.1H19.07a.79.79,0,0,0,.44.66,1.06,1.06,0,0,0,1.25-.25l.4.35a1.59,1.59,0,0,1-2.73-.49,1.67,1.67,0,0,1,.67-1.91,1.43,1.43,0,0,1,2.16,1C21.29,19.68,21.29,19.88,21.31,20.1Zm-2.24-.47h1.51a.77.77,0,0,0-.74-.8A.82.82,0,0,0,19.07,19.63Z" style="fill:#8b8c8e"/><path d="M10,18.33h.68v3H10L10,21a.36.36,0,0,0-.09.08,1.11,1.11,0,0,1-1.21.34.91.91,0,0,1-.7-.9c0-.71,0-1.42,0-2.14h.69v.22c0,.52,0,1,0,1.56a.6.6,0,0,0,.63.67.64.64,0,0,0,.68-.67c0-.51,0-1,0-1.54Z" style="fill:#8b8c8e"/><path d="M18,21.36h-.68a2,2,0,0,1,0-.23c0-.51,0-1,0-1.53s-.27-.73-.71-.69a.59.59,0,0,0-.58.52,4.65,4.65,0,0,0,0,.75v1.17h-.67v-3h.67v.41a.94.94,0,0,0,.14-.13,1.13,1.13,0,0,1,1.26-.28,1,1,0,0,1,.63,1C18,20,18,20.67,18,21.36Z" style="fill:#8b8c8e"/><path d="M24.06,21l.3-.46.18.11a1.42,1.42,0,0,0,.89.25c.18,0,.35-.06.39-.26s-.12-.29-.27-.35-.36-.12-.54-.18l-.32-.13a.75.75,0,0,1-.49-.74.84.84,0,0,1,.5-.79,1.49,1.49,0,0,1,1.19,0,3.78,3.78,0,0,1,.52.23l-.27.48a7.13,7.13,0,0,0-.7-.23.71.71,0,0,0-.41,0,.24.24,0,0,0-.05.45,2.26,2.26,0,0,0,.42.19c.19.07.39.13.57.21a.77.77,0,0,1,.5.77.87.87,0,0,1-.56.82A2,2,0,0,1,24.06,21Z" style="fill:#8b8c8e"/><path d="M21.46,21l.29-.44a6,6,0,0,0,.76.3,1,1,0,0,0,.51,0,.32.32,0,0,0,.2-.25.35.35,0,0,0-.16-.26,4.15,4.15,0,0,0-.53-.2c-.15-.06-.31-.1-.45-.17a.76.76,0,0,1-.47-.7.85.85,0,0,1,.44-.79,1.45,1.45,0,0,1,1.22-.07c.19.06.36.15.56.23l-.28.49a7,7,0,0,0-.69-.23.79.79,0,0,0-.43,0,.25.25,0,0,0,0,.46,2.86,2.86,0,0,0,.48.2c.18.07.36.13.53.21a.74.74,0,0,1,.47.73.83.83,0,0,1-.49.8,1.83,1.83,0,0,1-1.61-.11,2.12,2.12,0,0,1-.2-.12Z" style="fill:#8b8c8e"/><path d="M13.41,18.62l-.27.47a7,7,0,0,0-.69-.23.65.65,0,0,0-.39,0,.35.35,0,0,0-.2.23.32.32,0,0,0,.15.25,2.43,2.43,0,0,0,.47.19,5.09,5.09,0,0,1,.54.22.75.75,0,0,1,.46.73.86.86,0,0,1-.5.79,1.5,1.5,0,0,1-1.1.07c-.28-.08-.55-.22-.85-.34l.31-.49a5.2,5.2,0,0,0,.76.3,1.19,1.19,0,0,0,.53,0,.34.34,0,0,0,.18-.25.3.3,0,0,0-.14-.25,4.5,4.5,0,0,0-.51-.2,3.43,3.43,0,0,1-.45-.16.77.77,0,0,1-.51-.74.85.85,0,0,1,.49-.8,1.66,1.66,0,0,1,1.41.05A2.31,2.31,0,0,1,13.41,18.62Z" style="fill:#8b8c8e"/><path d="M31.84,21.92h1.52v1.76l-.18-.08L32,22.92a.24.24,0,0,1-.15-.26C31.85,22.42,31.84,22.18,31.84,21.92Z" style="fill:#f0ab00"/><path d="M14,18.33h.66v3H14Z" style="fill:#8b8c8e"/><path d="M13.91,17.22h.73v.63h-.73Z" style="fill:#8b8c8e"/><path d="M45.52,24.74a.49.49,0,0,1-.43-.31.46.46,0,0,1,.13-.52.49.49,0,0,1,.55-.06.48.48,0,0,1,.22.5A.47.47,0,0,1,45.52,24.74Zm.27-.23a.35.35,0,0,0,.05-.43.36.36,0,1,0-.49.5.35.35,0,0,0,.44-.07Z" style="fill:#f0ab00"/><path d="M45.66,24l.05,0a.08.08,0,0,1,0,0,.09.09,0,0,1,0,.05.19.19,0,0,1,0,.07.12.12,0,0,1,0,.05s0,0,0,0a.19.19,0,0,1,0,.08v.08a0,0,0,0,0,0,0h-.11v-.11a.08.08,0,0,0,0-.06h-.15v.18h-.1V24h.3Zm-.2.07v.13h.15a.05.05,0,0,0,0-.05.06.06,0,0,0,0-.06h-.15Z" style="fill:#f0ab00"/></g></svg>