<svg xmlns="http://www.w3.org/2000/svg" viewBox="0 0 48 48"><title>sapbusinessone</title><path d="M9.71,18.44l.39.18a1.63,1.63,0,0,1,1,1.54,1.64,1.64,0,0,1-.94,1.65,3.88,3.88,0,0,1-1.37.37c-1.22.05-2.43,0-3.68,0V15a2.4,2.4,0,0,1,.28,0c1,0,2.07,0,3.11,0a3.7,3.7,0,0,1,.93.16,1.64,1.64,0,0,1,1.25,1.38A1.71,1.71,0,0,1,9.9,18.3ZM6.35,21.06c.32,0,.59,0,.87,0A13,13,0,0,0,9,21a.91.91,0,0,0,0-1.81c-.87-.05-1.74,0-2.62,0Zm0-3c.78,0,1.52,0,2.26-.11A.86.86,0,0,0,9.4,17a.8.8,0,0,0-.76-.84c-.76-.07-1.52,0-2.31,0v1.56A2.79,2.79,0,0,0,6.36,18Z" style="fill:#8c8b8f"/><path d="M15.33,16.74h1.23v5.43H15.35v-.73a1.43,1.43,0,0,0-.19.16,2,2,0,0,1-2.2.61,1.67,1.67,0,0,1-1.25-1.68c-.05-1.25,0-2.5,0-3.77h1.24v2.78A4,4,0,0,0,13,20a1.08,1.08,0,0,0,1.12,1.13A1.13,1.13,0,0,0,15.31,20c0-.94,0-1.88,0-2.81Z" style="fill:#8c8b8f"/><path d="M29.61,22.18H28.36V19.1c0-.82-.38-1.28-1.06-1.32A1.15,1.15,0,0,0,26,19c-.06.9,0,1.8,0,2.7v.48h-1.2V16.75H26l0,.68.11.09a1.59,1.59,0,0,1,.14-.26,2,2,0,0,1,2.23-.5,1.81,1.81,0,0,1,1.15,1.8C29.62,19.75,29.61,20.94,29.61,22.18Z" style="fill:#8c8b8f"/><path d="M40.52,21.49,41,20.7a12.26,12.26,0,0,0,1.36.53,1.68,1.68,0,0,0,.89,0,.7.7,0,0,0,.4-.47.62.62,0,0,0-.32-.48,8.39,8.39,0,0,0-1-.38c-.22-.08-.45-.16-.67-.26a1.35,1.35,0,0,1-.87-1.26,1.5,1.5,0,0,1,.84-1.46,2.76,2.76,0,0,1,2.35,0,7.53,7.53,0,0,1,.77.36l-.48.86c-.45-.15-.85-.33-1.28-.43a1.29,1.29,0,0,0-.7.06.59.59,0,0,0-.32.41.55.55,0,0,0,.23.42,3.67,3.67,0,0,0,.73.32c.34.13.7.23,1,.38a1.41,1.41,0,0,1,.91,1.44,1.52,1.52,0,0,1-1.11,1.44A3.57,3.57,0,0,1,40.52,21.49Z" style="fill:#8c8b8f"/><path d="M40.13,17.23l-.5.88a12.78,12.78,0,0,0-1.23-.42,1.55,1.55,0,0,0-.74,0,.62.62,0,0,0-.33.41.62.62,0,0,0,.26.45,6.58,6.58,0,0,0,.87.35c.32.13.65.23.95.38a1.34,1.34,0,0,1,.82,1.3A1.5,1.5,0,0,1,39.38,22a3.2,3.2,0,0,1-2.89-.16,6.46,6.46,0,0,1-.61-.38l.52-.8a12.12,12.12,0,0,0,1.35.53,2,2,0,0,0,.93,0,.65.65,0,0,0,.36-.46.61.61,0,0,0-.28-.46,7.79,7.79,0,0,0-.95-.37c-.25-.09-.51-.15-.75-.26a1.4,1.4,0,0,1-.91-1.33,1.53,1.53,0,0,1,.91-1.46,2.64,2.64,0,0,1,2-.07A11.53,11.53,0,0,1,40.13,17.23Z" style="fill:#8c8b8f"/><path d="M21.42,17.26l-.48.85c-.44-.15-.84-.33-1.27-.43a1.3,1.3,0,0,0-.73.07.44.44,0,0,0-.07.82,5,5,0,0,0,.86.36c.34.14.7.25,1,.41a1.33,1.33,0,0,1,.79,1.28A1.53,1.53,0,0,1,20.69,22a2.73,2.73,0,0,1-2,.15c-.5-.15-1-.4-1.51-.62l.56-.87a12.12,12.12,0,0,0,1.35.53,1.68,1.68,0,0,0,.89,0,.7.7,0,0,0,.41-.46.67.67,0,0,0-.31-.49,5.61,5.61,0,0,0-.92-.34c-.26-.1-.53-.17-.78-.29a1.36,1.36,0,0,1-.88-1.3,1.47,1.47,0,0,1,.87-1.44A3.19,3.19,0,0,1,21.42,17.26Z" style="fill:#8c8b8f"/><path d="M22.39,16.74h1.19v5.43H22.39Z" style="fill:#8c8b8f"/><path d="M22.32,15.87V14.74h1.31v1.13Z" style="fill:#8c8b8f"/><path d="M35.57,19.92h-4c.07,1.2,1.63,2,3,.74l.72.63a2.85,2.85,0,0,1-4.91-.91A3,3,0,0,1,31.66,17a2.57,2.57,0,0,1,3.87,1.88c0,.22,0,.45.06.67A3,3,0,0,1,35.57,19.92Zm-1.26-.85A1.38,1.38,0,0,0,33,17.65a1.44,1.44,0,0,0-1.37,1.42Z" style="fill:#8c8b8f"/><path d="M16.09,30a5.36,5.36,0,0,1-1.56,4.07,5.93,5.93,0,0,1-4.26,1.49A5.87,5.87,0,0,1,6,34.07,5.43,5.43,0,0,1,4.45,30,5.43,5.43,0,0,1,6,25.93a5.9,5.9,0,0,1,4.27-1.49,5.88,5.88,0,0,1,4.26,1.49A5.36,5.36,0,0,1,16.09,30ZM13,30a5.16,5.16,0,0,0-.23-1.63,3.12,3.12,0,0,0-.59-1.1,2.36,2.36,0,0,0-.87-.63,3,3,0,0,0-1-.19,2.66,2.66,0,0,0-1,.18,2.41,2.41,0,0,0-.88.63,3.36,3.36,0,0,0-.6,1.1,6.09,6.09,0,0,0,0,3.28,3.35,3.35,0,0,0,.6,1.09,2.21,2.21,0,0,0,.88.63,2.7,2.7,0,0,0,1,.19,2.87,2.87,0,0,0,1-.2,2.23,2.23,0,0,0,.86-.64,3.34,3.34,0,0,0,.6-1.08A5.25,5.25,0,0,0,13,30Z" style="fill:#f8b600"/><path d="M36.07,31.53H29.74c.16,1.69,2.57,2.55,4.39.84l1.46,1.3a4.16,4.16,0,0,1-2.06,1.45,5.21,5.21,0,0,1-3.42,0,4.47,4.47,0,0,1-3-4.39,4.6,4.6,0,0,1,3.21-4.61,4.26,4.26,0,0,1,5.61,3.52A16.84,16.84,0,0,1,36.07,31.53Zm-6.35-1.67h3.77a1.89,1.89,0,0,0-2-1.87A1.94,1.94,0,0,0,29.72,29.86Z" style="fill:#f8b600"/><path d="M25.78,35.16H23.22v-.4c0-1.52,0-3,0-4.56a3.49,3.49,0,0,0-.05-.65,1.54,1.54,0,0,0-3.05.16c-.06,1.59,0,3.19-.05,4.78v.67H17.5V26.1h2.57v1.09l.09,0,.26-.31A3.1,3.1,0,0,1,23.68,26a2.85,2.85,0,0,1,2.11,2.83c0,2,0,4.1,0,6.15A1.1,1.1,0,0,1,25.78,35.16Z" style="fill:#f8b600"/></svg>