<svg xmlns="http://www.w3.org/2000/svg" viewBox="0 0 48 48"><title>sap erp</title><path d="M29.92,38H26.64v-5.7h3.28v1H27.85v1.25h1.93v1H27.85V37h2.07Z" style="fill:#009ee2"/><path d="M33.31,35.82V38H32.1v-5.7h1.66a2.82,2.82,0,0,1,1.72.42A1.48,1.48,0,0,1,36,34a1.55,1.55,0,0,1-.28.9,1.87,1.87,0,0,1-.78.61c.85,1.26,1.43,2.09,1.67,2.49H35.31L34,35.84Zm0-1h.39a1.53,1.53,0,0,0,.84-.19.71.71,0,0,0,.28-.6.64.64,0,0,0-.28-.58,1.55,1.55,0,0,0-.87-.17h-.36Z" style="fill:#009ee2"/><path d="M42.41,34.08a1.76,1.76,0,0,1-.58,1.41,2.47,2.47,0,0,1-1.64.49h-.51v2H38.41v-5.7h1.82a2.47,2.47,0,0,1,1.58.44A1.65,1.65,0,0,1,42.41,34.08Zm-2.77,1H40a1.38,1.38,0,0,0,.84-.22.92.92,0,0,0,0-1.27,1,1,0,0,0-.72-.2H39.6Z" style="fill:#009ee2"/><path d="M6.17,27.79H23.5l17-17H6.17v17" style="fill:#009ee2"/><path d="M26.72,19H26V16.24h.75c1,0,1.78.32,1.78,1.34S27.71,19,26.72,19m-8,1.94a3.32,3.32,0,0,1-1.08-.19l1.07-3.37h0l1.05,3.38A3,3,0,0,1,18.72,20.89ZM26.52,14H23.14v8L20.2,14H17.28l-2.52,6.7c-.27-1.7-2-2.27-3.35-2.7-.91-.29-1.87-.72-1.87-1.19s.52-.75,1.53-.7a5.45,5.45,0,0,1,2.47.66l1.17-2a9,9,0,0,0-3.82-.9h0a4.61,4.61,0,0,0-3.37,1.23,2.85,2.85,0,0,0-.81,2,2.62,2.62,0,0,0,1.16,2.35,7.49,7.49,0,0,0,2.3,1.05c.93.29,1.69.54,1.68,1.08a.75.75,0,0,1-.22.53,1.51,1.51,0,0,1-1.08.34,4.67,4.67,0,0,1-2.8-.8l-1,2.07a7.86,7.86,0,0,0,3.82,1h.18a4.62,4.62,0,0,0,2.9-1l.12-.1-.34.9h3L16.92,23a5.9,5.9,0,0,0,3.56,0l.5,1.55h5V21.27h1.09c2.63,0,4.2-1.34,4.2-3.59,0-2.5-1.52-3.65-4.74-3.65" style="fill:#fff"/><path d="M28.33,26.64v-.4h.27c.13,0,.27,0,.27.19s-.14.21-.3.21Zm0,.16h.23l.33.55h.22l-.37-.56a.32.32,0,0,0,.33-.31v0c0-.26-.15-.37-.44-.37h-.49v1.27h.19Zm.24,1a1.1,1.1,0,1,0-1.1-1.1,1.1,1.1,0,0,0,1.1,1.1Zm-.9-1.11a.9.9,0,1,1,1.79-.19.6.6,0,0,1,0,.19.9.9,0,0,1-1.79.19.6.6,0,0,1,0-.19" style="fill:#009ee2"/></svg>