<svg id="CURRENT" xmlns="http://www.w3.org/2000/svg" viewBox="0 0 48 48"><title>sapfieldglass</title><ellipse cx="33.47" cy="23.15" rx="1.12" ry="4.44" transform="translate(-6.71 16.66) rotate(-25.5)" style="fill:#f0ab00"/><path d="M39.7,29.34c.89,3.4.91,5.89-.18,6.41-1.8.86-6-4.09-9.28-11S25.69,11.39,27.5,10.53c1.08-.52,3,1.07,5.11,3.93-4-6.52-8-10.52-10-9.57-2.67,1.28-.75,10.86,4.28,21.4S38.13,44.36,40.8,43.08C42.79,42.13,42.22,36.52,39.7,29.34Z" style="fill:#f0ab00"/><ellipse cx="21.17" cy="28.73" rx="0.81" ry="3.21" transform="translate(-10.3 11.91) rotate(-25.5)" style="fill:#f0ab00"/><path d="M25.68,33.2c.65,2.46.66,4.26-.12,4.64-1.31.62-4.32-3-6.72-8s-3.29-9.63-2-10.25c.79-.37,2.19.78,3.7,2.84-2.9-4.71-5.8-7.61-7.25-6.92-1.93.92-.55,7.86,3.09,15.49s8.15,13.07,10.09,12.15C27.92,42.46,27.51,38.4,25.68,33.2Z" style="fill:#f0ab00"/><ellipse cx="11.87" cy="33.1" rx="0.55" ry="2.16" transform="translate(-13.09 8.33) rotate(-25.5)" style="fill:#f0ab00"/><path d="M14.9,36.1c.43,1.66.44,2.87-.09,3.12-.87.41-2.89-2-4.51-5.37S8.09,27.39,9,27c.53-.25,1.47.52,2.49,1.91-2-3.17-3.9-5.11-4.88-4.65-1.29.62-.36,5.27,2.08,10.39s5.47,8.78,6.77,8.16C16.4,42.32,16.12,39.59,14.9,36.1Z" style="fill:#f0ab00"/></svg>