<svg xmlns="http://www.w3.org/2000/svg" viewBox="0 0 48 48"><defs><style>.cls-1{fill:#f7941e;}.cls-2{fill:#1fa9e0;}.cls-3{fill:#fff;}</style></defs><title>icon-</title><g id="saphanaxs"><path class="cls-1" d="M10.2,24.92V19.58H6v5.34h-1V14.21H6v4.56H10.2V14.21h1V24.92Z"/><path class="cls-1" d="M12.25,24.92l3.17-10.71h1.2l3.16,10.71h-1l-.87-3.12H14.14l-.87,3.12ZM14.35,21h3.33L16,15h0Z"/><path class="cls-1" d="M20.87,24.92V14.21h1.3l4.12,9.33V14.21h1V24.92H26l-4.12-9.33v9.33Z"/><path class="cls-1" d="M28.34,24.92,31.5,14.21h1.2l3.17,10.71h-1L34,21.8H30.23l-.87,3.12ZM30.44,21h3.33l-1.65-6h0Z"/><circle class="cls-2" cx="37.49" cy="28.51" r="6.51"/><path class="cls-3" d="M35.38,30.44l-.72-1.17L34,30.44H33l1.16-1.75-1.06-1.56h1l.61,1,.61-1h.93l-1,1.56,1.2,1.75Z"/><path class="cls-3" d="M38.42,28a.71.71,0,0,0-.27-.21.77.77,0,0,0-.32-.07h-.16l-.15.05a.38.38,0,0,0-.11.11.25.25,0,0,0,0,.16.32.32,0,0,0,0,.14.29.29,0,0,0,.1.09l.16.08.21.07.35.13a1,1,0,0,1,.34.18.85.85,0,0,1,.34.69,1.07,1.07,0,0,1-.1.49,1,1,0,0,1-.29.34,1.08,1.08,0,0,1-.4.2,1.49,1.49,0,0,1-.47.07A2,2,0,0,1,37,30.4,1.5,1.5,0,0,1,36.4,30l.52-.53a1,1,0,0,0,.32.25.85.85,0,0,0,.4.1.5.5,0,0,0,.17,0,.39.39,0,0,0,.15-.06.36.36,0,0,0,.1-.11.43.43,0,0,0,0-.17.29.29,0,0,0,0-.16.58.58,0,0,0-.14-.12l-.21-.09-.29-.1a1.66,1.66,0,0,1-.31-.12,1.27,1.27,0,0,1-.27-.18.66.66,0,0,1-.19-.27.86.86,0,0,1-.08-.38,1,1,0,0,1,.41-.79,1.17,1.17,0,0,1,.41-.18,1.82,1.82,0,0,1,.46-.06,1.63,1.63,0,0,1,.57.1,1.44,1.44,0,0,1,.51.3Z"/><path class="cls-3" d="M41.67,30.44l-.26-.65H40.13l-.24.65H39l1.39-3.31h.77l1.37,3.31ZM40.78,28l-.42,1.14h.83Z"/></g></svg>