<svg id="CURRENT" xmlns="http://www.w3.org/2000/svg" viewBox="0 0 48 48"><title>sapsuccessfactors</title><path id="Fill-1" d="M17.5,8.87C13,8.87,10,12.2,10,17.16c0,5.41,4.9,10.6,10.59,16.61L24,37.38l3.41-3.61C33.1,27.76,38,22.57,38,17.16c0-5-3-8.29-7.5-8.29a6.86,6.86,0,0,0-5.07,2.31L24,12.75l-1.43-1.57A6.86,6.86,0,0,0,17.5,8.87ZM24,43.37l-6.23-6.6C11.45,30.1,6,24.33,6,17.16S10.84,4.63,17.5,4.63A10.53,10.53,0,0,1,24,6.9a10.51,10.51,0,0,1,6.5-2.27C37.16,4.63,42,9.9,42,17.16S36.54,30.1,30.23,36.77Z" style="fill:#f0ab00"/></svg>