<svg xmlns="http://www.w3.org/2000/svg" viewBox="0 0 48 48"><defs><style>.cls-1{fill:#4381cf;}.cls-2{fill:#010102;}</style></defs><title>sasdatsets</title><g id="sasdatasets"><path class="cls-1" d="M18.24,19.5l-.54-.65a2,2,0,0,0-2.87-.15,2,2,0,0,0-.42,2.88l.24.3"/><path class="cls-1" d="M14.64,21.86l4,4.83c2.88,3.49,1.59,7.78-2.3,10.23-3.44,2.15-9.74,1.38-11.91-2.15,1.69,5,7.33,8.21,13.57,6.65,5.41-1.36,11.46-8.31,4.85-16.34l-4.92-5.93"/><path class="cls-1" d="M15.17,29.32l-3.71-4.46c-2.87-3.48-1.58-7.78,2.31-10.23,3.43-2.15,9.73-1.38,11.9,2.15-1.68-5-7.32-8.2-13.56-6.64C6.7,11.49.65,18.44,7.26,26.47L12,32.12"/><path class="cls-1" d="M11.2,31.26l1.12,1.34a2,2,0,0,0,2.86.15,2,2,0,0,0,.43-2.88l-1.08-1.3"/><path class="cls-2" d="M26.47,34.82a1,1,0,1,1,1,1,1,1,0,0,1-1-1m1,1.25a1.25,1.25,0,1,0-1.27-1.25,1.25,1.25,0,0,0,1.27,1.25m-.26-1.16h.25l.38.63h.25l-.41-.63a.38.38,0,0,0,.37-.4c0-.29-.17-.41-.51-.41H27v1.44h.22Zm0-.18v-.45h.3c.15,0,.31,0,.31.22s-.16.23-.35.23Z"/><path d="M35.28,29.42a3.43,3.43,0,0,1-1.39,1.2,3.9,3.9,0,0,1-1.75.41,4.4,4.4,0,0,1-1.77-.34A4.1,4.1,0,0,1,29,29.77a4.26,4.26,0,0,1-.87-1.38,4.93,4.93,0,0,1,0-3.44A4.31,4.31,0,0,1,29,23.56a4.25,4.25,0,0,1,1.35-.92,4.58,4.58,0,0,1,1.77-.33,3.9,3.9,0,0,1,1.75.41A3.5,3.5,0,0,1,35.28,24h0V17.41h1.21V30.82H35.31v-1.4Zm-6.16-2.75a4,4,0,0,0,.21,1.3A3.23,3.23,0,0,0,30,29a2.85,2.85,0,0,0,1,.71,3.29,3.29,0,0,0,1.33.25,3.18,3.18,0,0,0,1.28-.25,3.44,3.44,0,0,0,1-.7A3.28,3.28,0,0,0,35.21,28a3.75,3.75,0,0,0,0-2.64,3.09,3.09,0,0,0-1.67-1.78,3.18,3.18,0,0,0-1.28-.25,3.29,3.29,0,0,0-1.33.26,2.87,2.87,0,0,0-1,.72,3.29,3.29,0,0,0-.62,1.06A4,4,0,0,0,29.12,26.67Z"/><path d="M43.7,24.49a2.1,2.1,0,0,0-.8-.85,2.46,2.46,0,0,0-1.24-.32,2.85,2.85,0,0,0-.64.07,1.47,1.47,0,0,0-.56.23,1.12,1.12,0,0,0-.4.41,1.09,1.09,0,0,0-.15.58,1,1,0,0,0,.48.9,4.74,4.74,0,0,0,1.5.52,5,5,0,0,1,2.18.88,1.92,1.92,0,0,1,.7,1.55,2.47,2.47,0,0,1-.28,1.2,2.4,2.4,0,0,1-.72.8,3,3,0,0,1-1,.44,4.78,4.78,0,0,1-1.13.13,4.48,4.48,0,0,1-1.82-.39,3.44,3.44,0,0,1-1.46-1.22l1-.71A2.71,2.71,0,0,0,41.63,30a3.51,3.51,0,0,0,.74-.07,1.5,1.5,0,0,0,.62-.25,1.24,1.24,0,0,0,.43-.45,1.39,1.39,0,0,0,.16-.68,1.06,1.06,0,0,0-.63-1A8.86,8.86,0,0,0,41.13,27c-.25-.06-.51-.13-.79-.22a2.79,2.79,0,0,1-.77-.39,2.17,2.17,0,0,1-.59-.65,1.91,1.91,0,0,1-.23-1,2.13,2.13,0,0,1,.92-1.84,2.85,2.85,0,0,1,.95-.43,4,4,0,0,1,1.1-.14,3.86,3.86,0,0,1,1.68.39,2.68,2.68,0,0,1,1.22,1.1Z"/></g></svg>