<svg id="Layer_1" data-name="Layer 1" xmlns="http://www.w3.org/2000/svg" viewBox="0 0 48 48"><title>sendinblue</title><path d="M38.11,32.19a7.5,7.5,0,0,1-4.43,3.47,10,10,0,0,0,.4-2.82A10.13,10.13,0,0,0,26.4,23a7.47,7.47,0,0,1,3.28-1.86,7.37,7.37,0,0,1,5.68.75,7.58,7.58,0,0,1,2.75,10.3M24,40.38a7.49,7.49,0,0,1-5.2-2.12,10,10,0,0,0,2.63-1.06,10.16,10.16,0,0,0,4.63-11.6A7.54,7.54,0,0,1,24,40.38M9.9,32.19a7.6,7.6,0,0,1-.77-5.59,10,10,0,0,0,7.25,3.12,10.11,10.11,0,0,0,7.28-3.12A7.56,7.56,0,0,1,20.14,35a7.4,7.4,0,0,1-3.73,1A7.51,7.51,0,0,1,9.9,32.19m0-16.38a7.5,7.5,0,0,1,4.43-3.47,10,10,0,0,0-.41,2.82A10.14,10.14,0,0,0,21.6,25,7.51,7.51,0,0,1,9.9,15.81M24,7.62a7.47,7.47,0,0,1,5.2,2.12A10.09,10.09,0,0,0,21.88,17a10.05,10.05,0,0,0,.06,5.44A7.54,7.54,0,0,1,24,7.62m14.11,8.19a7.6,7.6,0,0,1,.77,5.59,10,10,0,0,0-14.54,0,7.56,7.56,0,0,1,0-3.78,7.48,7.48,0,0,1,3.5-4.58,7.48,7.48,0,0,1,10.24,2.76m2.24-1.3a10,10,0,0,0-6.13-4.72,9.88,9.88,0,0,0-1.87-.32,10,10,0,0,0-16.68,0,10.13,10.13,0,0,0-9,12.73A10.53,10.53,0,0,0,7.32,24a10.24,10.24,0,0,0,.34,9.49,10.07,10.07,0,0,0,8,5,10,10,0,0,0,16.68,0A10.12,10.12,0,0,0,40.68,24a10.22,10.22,0,0,0-.33-9.49" style="fill:#0092ff"/></svg>