<svg xmlns="http://www.w3.org/2000/svg" viewBox="0 0 48 48"><defs><style>.cls-1{fill:#fff;}</style></defs><title>j-senses</title><g id="Layer_3" data-name="Layer 3"><path class="cls-1" d="M45,32.16c0-.37-.06-.74-.11-1.1a4.36,4.36,0,0,0-.34-1.32,2,2,0,0,0-1.94-1.17c-.61,0-1.22.08-1.83.14-1.39.14-2.76.38-4.13.64-1,.19-2.09.41-3.14.59a41.44,41.44,0,0,0-5,1.13q-1.22.38-2.4.81a9.21,9.21,0,0,0-1,.51s-.06,0-.05,0a.16.16,0,0,0,.06.08l.59.29a13.67,13.67,0,0,0,2.81.8c1.09.2,2.18.38,3.28.55.85.13,1.71.24,2.57.34s1.64.17,2.46.24l2.9.21,1.4.07a9.08,9.08,0,0,0,2,0,1.88,1.88,0,0,0,1.61-1.14A4.83,4.83,0,0,0,45,32.16Zm-42,0v1A7.28,7.28,0,0,0,3.28,35a2,2,0,0,0,2.1,1.61,14.71,14.71,0,0,0,1.48-.1c1-.12,2-.24,3-.4,1.34-.2,2.67-.42,4-.68s2.63-.56,3.94-.85c.25,0,.5-.12.75-.18v0L17,34.34l-2.4-.17L12.71,34l-2.26-.23c-.68-.08-1.36-.14-2-.23l-2.8-.44a5.49,5.49,0,0,1-1.77-.49C3.58,32.48,3.32,32.36,3,32.2Zm39.41-9.93,0-.14a5.49,5.49,0,0,0-.9-1.6,4.38,4.38,0,0,0-.87-.85,1.94,1.94,0,0,0-2.29,0,38.06,38.06,0,0,0-3.81,2.88c-2,1.67-3.89,3.36-5.76,5.13-.2.19-.38.41-.57.62a.22.22,0,0,1,.09-.07c.68-.36,1.36-.73,2-1.07,1.56-.76,3.14-1.5,4.7-2.25s3.21-1.51,4.86-2.15a5,5,0,0,1,1.93-.45C42,22.29,42.2,22.27,42.41,22.27ZM4,26.53c-.07.18-.13.33-.18.49a5.76,5.76,0,0,0-.34,2.73A1.85,1.85,0,0,0,5,31.4a37.15,37.15,0,0,0,5,.76c1.34.12,2.68.22,4,.32l2.82.18,1.29.05a.05.05,0,0,0-.05,0,30.08,30.08,0,0,1-3.36-1.12c-2-.75-3.9-1.49-5.84-2.25C7.9,28.92,7,28.5,6,28.1a2.39,2.39,0,0,0-.81-.33.47.47,0,0,1-.09-.06A4.58,4.58,0,0,1,4,26.53ZM6.14,21.8l0,0a4.84,4.84,0,0,0-.8,1.28,4.3,4.3,0,0,0-.43,1.43A2.09,2.09,0,0,0,6,26.73l1,.48c1.55.73,3.14,1.35,4.75,1.94,2.13.79,4.25,1.61,6.43,2.25l.19.06c-.54-.36-1-.69-1.55-1-1.43-1-2.87-2-4.29-3-.77-.54-1.51-1.12-2.26-1.68-.53-.4-1.05-.79-1.59-1.18s-1-.88-1.52-1.27a2.6,2.6,0,0,1-.56-.67A6.78,6.78,0,0,1,6.14,21.8Zm38.3,5.74a.38.38,0,0,0,0-.12c-.08-.35-.16-.7-.26-1.05a4.84,4.84,0,0,0-1-2,1.78,1.78,0,0,0-1.68-.63,7.19,7.19,0,0,0-1.18.34,44.81,44.81,0,0,0-4.82,2.11c-.72.35-1.43.73-2.16,1.05a35.53,35.53,0,0,0-4.13,2.09l-.11.07c.23,0,.44-.1.66-.15,1.31-.28,2.62-.59,3.94-.84s2.67-.47,4-.68c.87-.14,1.75-.25,2.62-.37a15.57,15.57,0,0,1,2.64-.2,2.93,2.93,0,0,1,1.45.32ZM14.09,14,13.9,14a7.8,7.8,0,0,0-1.69,1.07,5.11,5.11,0,0,0-.48.45A2.17,2.17,0,0,0,11.1,17a2,2,0,0,0,.34,1.07,28.57,28.57,0,0,0,2.07,3c1.82,2.31,3.8,4.48,5.77,6.67.21.24.43.47.65.7a.21.21,0,0,0,0-.12c-.5-.94-1-1.89-1.5-2.84-1.15-2.21-2.11-4.51-3.1-6.79a22.74,22.74,0,0,1-1.19-3.16A3,3,0,0,1,14.09,14Zm5.15-1.81h-.12a6.26,6.26,0,0,0-2.66,1,2.06,2.06,0,0,0-.87,2.53c.32.93.64,1.85,1,2.75,1.23,2.91,2.63,5.75,4.06,8.57l.39.74a24,24,0,0,1-.58-2.51c-.2-1.16-.44-2.32-.64-3.48s-.33-2-.47-3.05c-.12-.8-.22-1.59-.32-2.39a20.88,20.88,0,0,1-.21-2.63,3,3,0,0,1,.25-1.21Q19.17,12.32,19.24,12.14ZM9.71,17.46l-.42.33A5,5,0,0,0,8,19.37a2.16,2.16,0,0,0,.45,2.85c.67.6,1.34,1.22,2.05,1.78a100.18,100.18,0,0,0,8.44,5.88l.11.05a1,1,0,0,0-.12-.14c-.61-.67-1.25-1.33-1.83-2-1.43-1.71-2.83-3.43-4.23-5.16-.6-.74-1.19-1.51-1.76-2.28a4.57,4.57,0,0,1-.74-1.19c-.07-.19-.21-.35-.28-.54C9.92,18.23,9.82,17.84,9.71,17.46ZM30,12.28a6.08,6.08,0,0,0-2.72-.55,2.05,2.05,0,0,0-2.07,1.71c-.2,1-.38,2-.51,3s-.23,2.14-.32,3.22c-.07.7-.1,1.41-.15,2.12-.09,1.32-.18,2.64-.25,4,0,.32,0,.63,0,.9,0-.19.11-.42.18-.65.39-1.18.75-2.36,1.17-3.52.57-1.63,1.16-3.26,1.79-4.86a27.89,27.89,0,0,1,1.79-4.08,4.25,4.25,0,0,1,.53-.73A5.6,5.6,0,0,1,30,12.28ZM22.08,26.79h0s0-.06,0-.1c.05-.84.09-1.68.14-2.52s.11-1.54.17-2.31.15-1.62.23-2.44.15-1.59.26-2.39.25-1.76.39-2.64a14.55,14.55,0,0,1,.25-1.47,3.94,3.94,0,0,1,.73-1.46l.07-.1c-.54,0-1.06,0-1.57,0a4.36,4.36,0,0,0-1.46.33A2.2,2.2,0,0,0,20,13.79c0,.31,0,.63.07.94.12,1.07.24,2.15.39,3.22S20.8,20,21,21.06c.29,1.59.59,3.18.89,4.77C21.93,26.16,22,26.47,22.08,26.79Zm4.82.53h0s0,0,0,0l1.78-1.69a99.47,99.47,0,0,1,8.51-7.08A2.8,2.8,0,0,1,38.38,18c.28-.05.56-.08.86-.12l-.18-.25-.33-.35a6.7,6.7,0,0,0-1.09-1,3.29,3.29,0,0,0-1.23-.53,1.92,1.92,0,0,0-1.83.7c-.53.59-1,1.2-1.54,1.82-1,1.31-2,2.72-2.92,4.1C29,24,28,25.56,27,27.21Zm8-12.79-.15-.13a8.49,8.49,0,0,0-1.88-1,2.68,2.68,0,0,0-1.37-.13,2,2,0,0,0-1.45,1.1,21.81,21.81,0,0,0-1.35,2.85c-1.08,2.83-2.09,5.68-3,8.56-.12.37-.23.74-.35,1.1a.55.55,0,0,0,.13-.18c.81-1.43,1.69-2.82,2.6-4.19q1.57-2.39,3.31-4.65a23.94,23.94,0,0,1,2.05-2.56A2.38,2.38,0,0,1,34.92,14.53Z"/><path d="M45,32.16a4.83,4.83,0,0,1-.32,1.73A1.88,1.88,0,0,1,43.07,35a9.08,9.08,0,0,1-2,0L39.72,35l-2.9-.21q-1.23-.1-2.46-.24c-.86-.1-1.72-.21-2.57-.34-1.1-.17-2.19-.35-3.28-.55a13.67,13.67,0,0,1-2.81-.8l-.59-.29a.16.16,0,0,1-.06-.08s0,0,.05,0a9.21,9.21,0,0,1,1-.51q1.19-.43,2.4-.81a41.44,41.44,0,0,1,5-1.13c1.05-.18,2.09-.4,3.14-.59,1.37-.26,2.74-.5,4.13-.64.61-.06,1.22-.13,1.83-.14a2,2,0,0,1,1.94,1.17,4.36,4.36,0,0,1,.34,1.32C44.94,31.42,45,31.79,45,32.16Z"/><path d="M3,32.2c.32.16.58.28.84.42a5.49,5.49,0,0,0,1.77.49l2.8.44c.68.09,1.36.15,2,.23l2.26.23,1.84.16,2.4.17,1.6.07v0c-.25.06-.5.13-.75.18-1.31.29-2.62.6-3.94.85s-2.65.48-4,.68c-1,.16-2,.28-3,.4a14.71,14.71,0,0,1-1.48.1A2,2,0,0,1,3.28,35,7.28,7.28,0,0,1,3,33.18Z"/><path d="M42.41,22.27c-.21,0-.41,0-.61,0a5,5,0,0,0-1.93.45c-1.65.64-3.26,1.38-4.86,2.15s-3.14,1.49-4.7,2.25c-.69.34-1.37.71-2,1.07a.22.22,0,0,0-.09.07c.19-.21.37-.43.57-.62,1.87-1.77,3.8-3.46,5.76-5.13a38.06,38.06,0,0,1,3.81-2.88,1.94,1.94,0,0,1,2.29,0,4.38,4.38,0,0,1,.87.85,5.49,5.49,0,0,1,.9,1.6Z"/><path d="M4,26.53a4.58,4.58,0,0,0,1.14,1.18.47.47,0,0,0,.09.06A2.39,2.39,0,0,1,6,28.1c1,.4,1.91.82,2.88,1.2,1.94.76,3.89,1.5,5.84,2.25a30.08,30.08,0,0,0,3.36,1.12.05.05,0,0,1,.05,0l-1.29-.05L14,32.48c-1.34-.1-2.68-.2-4-.32a37.15,37.15,0,0,1-5-.76,1.85,1.85,0,0,1-1.52-1.65A5.76,5.76,0,0,1,3.77,27C3.82,26.86,3.88,26.71,4,26.53Z"/><path d="M6.14,21.8a6.78,6.78,0,0,0,.4.81,2.6,2.6,0,0,0,.56.67c.54.39,1,.88,1.52,1.27s1.06.78,1.59,1.18c.75.56,1.49,1.14,2.26,1.68,1.42,1,2.86,2,4.29,3,.5.35,1,.68,1.55,1l-.19-.06c-2.18-.64-4.3-1.46-6.43-2.25-1.61-.59-3.2-1.21-4.75-1.94l-1-.48a2.09,2.09,0,0,1-1.11-2.18,4.3,4.3,0,0,1,.43-1.43,4.84,4.84,0,0,1,.8-1.28Z"/><path d="M44.44,27.54l-.07,0a2.93,2.93,0,0,0-1.45-.32,15.57,15.57,0,0,0-2.64.2c-.87.12-1.75.23-2.62.37-1.34.21-2.68.42-4,.68s-2.63.56-3.94.84c-.22.05-.43.11-.66.15l.11-.07a35.53,35.53,0,0,1,4.13-2.09c.73-.32,1.44-.7,2.16-1.05a44.81,44.81,0,0,1,4.82-2.11,7.19,7.19,0,0,1,1.18-.34,1.78,1.78,0,0,1,1.68.63,4.84,4.84,0,0,1,1,2c.1.35.18.7.26,1.05A.38.38,0,0,1,44.44,27.54Z"/><path d="M14.09,14a3,3,0,0,0,0,1.58,22.74,22.74,0,0,0,1.19,3.16c1,2.28,1.95,4.58,3.1,6.79.49.95,1,1.9,1.5,2.84a.21.21,0,0,1,0,.12c-.22-.23-.44-.46-.65-.7-2-2.19-4-4.36-5.77-6.67a28.57,28.57,0,0,1-2.07-3A2,2,0,0,1,11.1,17a2.17,2.17,0,0,1,.63-1.49,5.11,5.11,0,0,1,.48-.45A7.8,7.8,0,0,1,13.9,14Z"/><path d="M19.24,12.14q-.07.18-.15.33a3,3,0,0,0-.25,1.21,20.88,20.88,0,0,0,.21,2.63c.1.8.2,1.59.32,2.39.14,1,.29,2,.47,3.05s.44,2.32.64,3.48a24,24,0,0,0,.58,2.51L20.67,27c-1.43-2.82-2.83-5.66-4.06-8.57-.38-.9-.7-1.82-1-2.75a2.06,2.06,0,0,1,.87-2.53,6.26,6.26,0,0,1,2.66-1Z"/><path d="M9.71,17.46c.11.38.21.77.34,1.14.07.19.21.35.28.54a4.57,4.57,0,0,0,.74,1.19c.57.77,1.16,1.54,1.76,2.28,1.4,1.73,2.8,3.45,4.23,5.16.58.69,1.22,1.35,1.83,2a1,1,0,0,1,.12.14l-.11-.05A100.18,100.18,0,0,1,10.46,24c-.71-.56-1.38-1.18-2.05-1.78A2.16,2.16,0,0,1,8,19.37a5,5,0,0,1,1.33-1.58Z"/><path d="M30,12.28a5.6,5.6,0,0,0-.57.49,4.25,4.25,0,0,0-.53.73,27.89,27.89,0,0,0-1.79,4.08c-.63,1.6-1.22,3.23-1.79,4.86-.42,1.16-.78,2.34-1.17,3.52-.07.23-.13.46-.18.65,0-.27,0-.58,0-.9.07-1.32.16-2.64.25-4,.05-.71.08-1.42.15-2.12.09-1.08.18-2.15.32-3.22s.31-2,.51-3a2.05,2.05,0,0,1,2.07-1.71A6.08,6.08,0,0,1,30,12.28Z"/><path d="M22.08,26.79c-.07-.32-.15-.63-.21-1-.3-1.59-.6-3.18-.89-4.77-.18-1-.37-2.07-.52-3.11s-.27-2.15-.39-3.22c0-.31-.06-.63-.07-.94a2.2,2.2,0,0,1,1.33-2.09,4.36,4.36,0,0,1,1.46-.33c.51,0,1,0,1.57,0l-.07.1a3.94,3.94,0,0,0-.73,1.46,14.55,14.55,0,0,0-.25,1.47c-.14.88-.28,1.76-.39,2.64s-.18,1.6-.26,2.39-.16,1.63-.23,2.44-.12,1.54-.17,2.31-.09,1.68-.14,2.52c0,0,0,.07,0,.1Z"/><path d="M26.9,27.32l.07-.11C28,25.56,29,24,30.12,22.42c1-1.38,1.88-2.79,2.92-4.1.5-.62,1-1.23,1.54-1.82a1.92,1.92,0,0,1,1.83-.7,3.29,3.29,0,0,1,1.23.53,6.7,6.7,0,0,1,1.09,1l.33.35.18.25c-.3,0-.58.07-.86.12a2.8,2.8,0,0,0-1.12.49,99.47,99.47,0,0,0-8.51,7.08L27,27.28s0,0,0,0Z"/><path d="M34.92,14.53a2.38,2.38,0,0,0-1.46.77,23.94,23.94,0,0,0-2.05,2.56q-1.74,2.27-3.31,4.65c-.91,1.37-1.79,2.76-2.6,4.19a.55.55,0,0,1-.13.18c.12-.36.23-.73.35-1.1.91-2.88,1.92-5.73,3-8.56a21.81,21.81,0,0,1,1.35-2.85,2,2,0,0,1,1.45-1.1,2.68,2.68,0,0,1,1.37.13,8.49,8.49,0,0,1,1.88,1Z"/></g></svg>