<svg version="1.1" id="Layer_1" xmlns="http://www.w3.org/2000/svg" x="0" y="0" viewBox="0 0 48 48" xml:space="preserve"><style>.st0{fill:#0f9bd7}.st1{fill:#6b6b6b}</style><path class="st0" d="M18.5 18.5c-.3 0-.6.1-.7.4-.1.2-.2.4-.2.6h1.9c0-.2-.1-.5-.2-.6-.2-.3-.4-.4-.8-.4zM12 20.2c-.2.1-.2.3-.2.5 0 .1 0 .3.1.3 0 .1 0 .1.1.2 0 0 .2.2.8.2.4 0 .7-.1.7-.1v-1.2s-.3-.1-.7-.1c-.6 0-.8.2-.8.2zM29 18.5c-.3 0-.6.1-.7.4-.2.2-.2.6-.2 1s.1.8.2 1c.2.2.4.4.7.4.3 0 .6-.1.7-.4.2-.2.2-.6.2-1s-.1-.8-.2-1c-.1-.3-.4-.4-.7-.4zM39.3 18.5c-.3 0-.6.1-.7.4-.1.2-.2.4-.2.6h1.9c0-.2-.1-.5-.2-.6-.2-.3-.4-.4-.8-.4z"/><path class="st0" d="M36 9.4c-1.4 0-2.7.3-3.9.8-1.4-2.4-4-4.1-6.9-4.1-2.2 0-4.2.9-5.7 2.4-1.6-2.1-4.1-3.4-6.9-3.4-4.8 0-8.7 3.9-8.7 8.7 0 1.2.3 2.4.7 3.5a7.52 7.52 0 0 0-3.7 6.5c0 4.2 3.3 7.6 7.5 7.6.5 0 1-.1 1.5-.2 1.1 3.1 4.1 5.3 7.6 5.3 3.3 0 6.2-2 7.4-4.9.9.5 2 .7 3.1.7 2.6 0 5-1.5 6.2-3.6.6.1 1.3.2 1.9.2 5.3 0 9.7-4.4 9.7-9.7-.2-5.4-4.5-9.8-9.8-9.8zM10.4 20.7c0 .8-.6 1.3-1.5 1.3-.5 0-.9-.1-1.3-.3-.1 0-.2-.1-.3-.2v-.1l.2-.5c0-.1.1-.1.1 0 0 0 .1.1.2.1.5.3 1 .3 1.2.3.4 0 .6-.2.6-.5s-.4-.4-.8-.6h-.1c-.6-.2-1.3-.4-1.3-1.2 0-.7.6-1.2 1.4-1.2h.1c.5 0 1 .1 1.3.4 0 0 .1.1 0 .1l-.2.5c0 .1-.1 0-.1 0-.3-.2-.8-.3-1.2-.3-.4 0-.6.2-.6.4 0 .3.4.4.8.6H9c.8.2 1.4.5 1.4 1.2zm3.8 1.1H14c-.1 0-.4.1-.7.1-.3 0-.5.1-.8.1-.3 0-.5 0-.7-.1-.2 0-.4-.1-.5-.2-.1-.1-.3-.2-.3-.4-.1-.2-.1-.4-.1-.6 0-.2 0-.4.1-.6.1-.2.2-.3.4-.4.2-.1.3-.2.5-.3.2-.1.4-.1.6-.1h.4s.2 0 .4.1v-.1c0-.3-.1-.5-.2-.6-.1-.1-.4-.2-.6-.2 0 0-.6 0-1.1.3s-.1 0-.1 0l-.2-.5v-.1c.2-.2.8-.3.8-.3.2 0 .5-.1.7-.1.5 0 .9.1 1.2.4.3.2.4.6.4 1.1v2.5c.1-.1.1-.1 0 0zm1.8 0c0 .1-.1.1 0 0l-.8.1s-.1 0-.1-.1v-5.5s0-.1.1-.1h.7s.1 0 .1.1v5.5zm4.3-1.7c-.1 0-.1 0 0 0l-2.7.1c0 .4.1.7.3.9.2.2.5.3.9.3.6 0 .9-.1 1.1-.2h.1l.2.5v.1c-.2.1-.6.3-1.3.3-.4 0-.7-.1-.9-.2-.3-.1-.5-.2-.7-.4-.2-.2-.3-.4-.4-.7-.1-.3-.1-.5-.1-.8 0-.3 0-.6.1-.8.1-.3.2-.5.4-.7.2-.2.4-.3.6-.5.2-.1.5-.2.9-.2.3 0 .5.1.7.2.2.1.3.2.5.4.1.1.3.4.3.6v1.1zm2.1 1.9c-.5 0-.9-.1-1.3-.3-.1 0-.2-.1-.3-.2v-.1l.2-.5c0-.1.1-.1.1 0 0 0 .1.1.2.1.5.3 1 .3 1.2.3.4 0 .6-.2.6-.5s-.4-.4-.8-.6h-.1c-.6-.2-1.3-.4-1.3-1.2 0-.7.6-1.2 1.4-1.2h.1c.5 0 1 .1 1.3.4 0 0 .1.1 0 .1l-.2.5c0 .1-.1 0-.1 0-.3-.2-.8-.3-1.2-.3-.4 0-.6.2-.6.4 0 .3.4.4.8.6h.1c.6.2 1.2.5 1.2 1.2.2.8-.4 1.3-1.3 1.3zm4.5-3.5c0 .1 0 .1 0 0l-.9.1-.6 3.3c-.1.3-.1.6-.2.9l-.3.6c-.1.2-.3.3-.5.3-.2.1-.4.1-.6.1h-.4c-.1 0-.2 0-.2-.1 0 0-.1-.1 0-.1 0-.1.2-.5.2-.5 0-.1.1 0 .1 0H24.1c.1 0 .2-.1.2-.2.1-.1.1-.2.2-.4s.1-.4.2-.6l.6-3.2h-.6c-.1 0-.1 0-.1-.1l.1-.5c0-.1.1-.1.1-.1h.6v-.2c.1-.5.3-.9.5-1.2.3-.3.6-.4 1.1-.4h.4c.1 0 .2 0 .3.1 0 0 .1 0 0 .1l-.2.5s0 .1-.1 0H26.8c-.1 0-.2.1-.2.1-.1.1-.1.2-.2.3-.1.3-.1.6-.1.6h.7c.1 0 .1 0 .1.1l-.2.5zm3.8 2.2c-.1.3-.2.5-.3.7-.2.2-.4.3-.6.4-.2.1-.5.2-.8.2-.3 0-.6-.1-.8-.2-.2-.1-.4-.3-.6-.4-.2-.2-.3-.4-.3-.7-.1-.3-.1-.5-.1-.8s0-.6.1-.8c.1-.3.2-.5.3-.7.2-.2.4-.3.6-.4.2-.1.5-.2.8-.2.3 0 .6.1.8.2.2.1.4.3.6.4.2.2.3.4.3.7.1.3.1.5.1.8s0 .6-.1.8zm3.1-2.1c-.1 0-.1 0 0 0-.1.1-.2 0-.4 0h-.3c-.1 0-.2.1-.3.2-.1.1-.2.2-.2.4-.1.2-.1.4-.1.7v1.9s0 .1-.1.1h-.7s-.1 0-.1-.1V18s0-.1.1-.1h.7s.1 0 .1.1v.3c.1-.1.3-.3.4-.3.2-.1.3-.1.7-.1.2 0 .4.1.4.1s.1 0 0 .1c-.1 0-.2.3-.2.5zm3.4 3.2c-.3.1-.7.2-1.1.2-.7 0-1.2-.2-1.5-.6-.3-.4-.5-.9-.5-1.5 0-.3 0-.6.1-.8.1-.3.2-.5.4-.7.2-.2.4-.3.6-.4.2-.1.5-.2.9-.2h.6c.2 0 .4.1.5.1 0 0 .1 0 0 .1-.1.2-.1.3-.2.5 0 .1-.1.1-.1.1-.3-.1-.5-.1-.8-.1-.4 0-.7.1-.9.4-.2.2-.3.6-.3 1 0 .5.1.8.3 1 .2.2.5.3.9.3h.4c.1 0 .2-.1.4-.1h.1l.2.7c.1 0 0 0 0 0zm3.8-1.7l-2.7.1c0 .4.1.7.3.9.2.2.5.3.9.3.6 0 .9-.1 1.1-.2h.1l.2.5v.1c-.2.1-.6.3-1.3.3-.4 0-.7-.1-.9-.2-.3-.1-.5-.2-.7-.4-.2-.2-.3-.4-.4-.7-.1-.3-.1-.5-.1-.8 0-.3 0-.6.1-.8.1-.3.2-.5.4-.7.2-.2.4-.3.6-.5.2-.1.5-.2.9-.2.3 0 .5.1.7.2.2.1.3.2.5.4.1.1.3.4.3.6.1.5 0 1 0 1.1z"/><g><path class="st1" d="M37.8 37.7c0 .6-.2 1-.6 1.3-.4.3-.9.5-1.5.5-.5 0-1-.2-1.4-.5-.4-.3-.7-.7-.8-1.3l.8-.3c.1.2.1.4.2.5.1.2.2.3.3.4s.3.2.4.3c.2.1.3.1.5.1.4 0 .7-.1.9-.3.2-.2.4-.4.4-.8 0-.3-.1-.5-.3-.7-.2-.2-.5-.4-1-.5-.5-.2-.8-.3-.9-.4-.7-.3-1-.8-1-1.5 0-.5.2-.9.6-1.2.4-.3.8-.5 1.4-.5.5 0 .9.1 1.3.4.4.2.6.5.7.9l-.8.3c-.1-.2-.2-.4-.4-.6-.2-.2-.5-.2-.8-.2-.3 0-.6.1-.8.3-.2.2-.3.4-.3.6 0 .2.1.4.3.6.2.2.6.3 1.2.6.6.2 1.1.5 1.4.8s.2.8.2 1.2zM41.8 39.6c-.9 0-1.7-.3-2.4-.9-.6-.6-.9-1.4-.9-2.4s.3-1.7.9-2.4c.6-.6 1.4-1 2.4-1s1.7.3 2.3 1l-.6.6c-.5-.5-1-.8-1.7-.8s-1.3.2-1.8.7c-.5.5-.7 1.1-.7 1.8 0 .8.2 1.4.7 1.8.5.5 1.1.7 1.8.7s1.4-.3 1.9-.9l.6.6c-.3.4-.7.6-1.1.8-.5.3-.9.4-1.4.4z"/></g></svg>
