<svg id="20977c00-749d-430c-a31d-c7330a123766" data-name="Icons" xmlns="http://www.w3.org/2000/svg" viewBox="0 0 108 72">
  <defs>
    <style>
      .\30 b758103-1a18-4e97-96d4-732db20635f9 {
        fill: #3b474f;
      }
    </style>
  </defs>
  <title>shippo</title>
  <g>
    <path class="0b758103-1a18-4e97-96d4-732db20635f9" d="M65.28,41.12H63.83a.7.7,0,0,1-.75-.75V31.64a.7.7,0,0,1,.75-.75h1.45a.7.7,0,0,1,.75.75v8.73A.7.7,0,0,1,65.28,41.12Z"/>
    <path class="0b758103-1a18-4e97-96d4-732db20635f9" d="M65.28,30.19H63.83a.7.7,0,0,1-.75-.75V28a.7.7,0,0,1,.75-.75h1.45A.7.7,0,0,1,66,28v1.44A.73.73,0,0,1,65.28,30.19Z"/>
    <path class="0b758103-1a18-4e97-96d4-732db20635f9" d="M58,30.89a2.52,2.52,0,0,0-2.19,1.18V28a.7.7,0,0,0-.75-.75H53.6a.7.7,0,0,0-.75.75V40.42a.7.7,0,0,0,.75.75h1.45a.7.7,0,0,0,.75-.75V34.58a1.45,1.45,0,0,1,2.89,0v5.84a.7.7,0,0,0,.75.75h1.45a.71.71,0,0,0,.75-.75V35.33C61.64,32.87,61.1,30.89,58,30.89Z"/>
    <path class="0b758103-1a18-4e97-96d4-732db20635f9" d="M47.07,41.06c-3,0-4.23-1.66-4.29-2.78a.66.66,0,0,1,.16-.54.77.77,0,0,1,.54-.21h1.61a.66.66,0,0,1,.59.43,1.45,1.45,0,0,0,1.44,1c.38,0,1.55,0,1.55-.81s-1.23-1.07-2.19-1.34a5.94,5.94,0,0,0-.8-.16l-.27-.05c-1.34-.43-2.57-.8-2.57-2.79C42.84,32,44.39,31,47.12,31c3.38,0,4.07,1.66,4.23,2.67a.76.76,0,0,1-.16.59.62.62,0,0,1-.53.22H49.1a.67.67,0,0,1-.59-.43,1.45,1.45,0,0,0-1.44-1c-1.23,0-1.56.43-1.56.8,0,.65.86.81,1.88,1,1.77.38,4,.81,4,3.38C51.35,39.3,50.5,41.06,47.07,41.06Z"/>
    <path class="0b758103-1a18-4e97-96d4-732db20635f9" d="M94.47,31c-3.16,0-5,1.87-5,5s1.88,5,5,5,5-1.87,5-5S97.63,31,94.47,31Zm0,7.92c-1.45,0-2.2-1.34-2.2-2.89s.75-2.89,2.2-2.89,2.19,1.34,2.19,2.89S95.91,38.92,94.47,38.92Z"/>
    <path class="0b758103-1a18-4e97-96d4-732db20635f9" d="M84.24,30.89a3.3,3.3,0,0,0-2.9,1.44h0v-.74a.7.7,0,0,0-.75-.75H79.15a.7.7,0,0,0-.75.75V44a.7.7,0,0,0,.75.75h1.44a.7.7,0,0,0,.75-.75V39.62h0a3.4,3.4,0,0,0,2.9,1.44c2.62,0,4.39-2,4.39-5.08C88.63,33,86.81,30.89,84.24,30.89Zm-.7,8c-1.45,0-2.2-1.34-2.2-2.89s.75-2.89,2.2-2.89,2.2,1.34,2.2,2.89S85,38.92,83.54,38.92Z"/>
    <path class="0b758103-1a18-4e97-96d4-732db20635f9" d="M73.31,30.89a3.28,3.28,0,0,0-2.89,1.44h0v-.74a.7.7,0,0,0-.75-.75H68.22a.7.7,0,0,0-.75.75V44a.7.7,0,0,0,.75.75h1.45a.7.7,0,0,0,.75-.75V39.62h0a3.39,3.39,0,0,0,2.89,1.44c2.63,0,4.39-2,4.39-5.08C77.7,33,75.88,30.89,73.31,30.89Zm-.75,8c-1.45,0-2.19-1.34-2.19-2.89s.74-2.89,2.19-2.89,2.2,1.34,2.2,2.89S74.06,38.92,72.56,38.92Z"/>
    <path class="0b758103-1a18-4e97-96d4-732db20635f9" d="M38.28,33.08a5.84,5.84,0,0,0-5.83-5.83c-2.79,0-3.64,1.07-6.59,1.44-1.77.22-1.66-.75-3.64-.75a7.23,7.23,0,0,0-2.89.75s-1.4-1.66-2.2-1.44c-1.07.37,0,3.64,0,3.64a13.23,13.23,0,0,1-2.2,2.89c-1.07,1.07-3.64,1.66-5,2A12.39,12.39,0,0,1,22.22,23.66a12,12,0,0,1,7.71,2.78,9.17,9.17,0,0,1,1.82-.26,13.7,13.7,0,1,0,3.86,12.58c-.59.27-1.18.59-1.77.86a12.32,12.32,0,0,1-11.25,8.62,29.86,29.86,0,0,1,4.61-5.68C32.18,37.9,38.28,38.65,38.28,33.08Zm-14.94-.69a1.11,1.11,0,0,1-1.07-1.07,1.15,1.15,0,0,1,1.07-1.07,1.07,1.07,0,0,1,0,2.14Z"/>
  </g>
</svg>
