<svg id="Layer_1" data-name="Layer 1" xmlns="http://www.w3.org/2000/svg" viewBox="0 0 48 48"><defs><style>.cls-1{fill:#45aaf2;}.cls-2{fill:#162948;}</style></defs><title>shipengine0</title><path class="cls-1" d="M27.58,24a3.54,3.54,0,0,0-6.08-2.5,3.54,3.54,0,1,0,5,5A3.41,3.41,0,0,0,27.58,24Zm7.15-1.55v3.1a.44.44,0,0,1-.12.36l-.24.24-2.62.35a2.81,2.81,0,0,1-.6,1.2c.36.47.84,1.07,1.55,1.9a.6.6,0,0,1,0,.72c-.23.36-.71.83-1.31,1.55s-1.07.95-1.31.95a.44.44,0,0,1-.36-.12l-2-1.55a4.3,4.3,0,0,1-1.32.48A19.79,19.79,0,0,1,26,34.25a.44.44,0,0,1-.48.48h-3.1a.42.42,0,0,1-.48-.48l-.35-2.62c-.48-.12-.84-.36-1.32-.48l-2,1.55a.6.6,0,0,1-.72,0,12.37,12.37,0,0,1-2.26-2.38.6.6,0,0,1,0-.72,9.23,9.23,0,0,1,.71-1,11.22,11.22,0,0,0,.72-.95,7.52,7.52,0,0,1-.6-1.43l-2.5-.36a.42.42,0,0,1-.36-.36v-3.1a.44.44,0,0,1,.12-.36l.24-.24,2.62-.35a6.43,6.43,0,0,1,.6-1.32,16.54,16.54,0,0,0-1.55-1.9.6.6,0,0,1,0-.72A12.22,12.22,0,0,1,16.73,16c.71-.71,1.07-1,1.31-1a.44.44,0,0,1,.36.12l1.9,1.55a4.3,4.3,0,0,1,1.32-.48A19.79,19.79,0,0,1,22,13.63c.12-.24.24-.36.48-.36h3.1a.42.42,0,0,1,.48.48l.35,2.62c.48.12.84.36,1.32.48l2-1.55a.6.6,0,0,1,.72,0,11.68,11.68,0,0,1,2.26,2.38c.12.12.12.12.12.36a.44.44,0,0,1-.12.36,10.5,10.5,0,0,1-.71,1,9.78,9.78,0,0,0-.72.95,12.5,12.5,0,0,1,.6,1.31l2.5.36a.42.42,0,0,1,.24.12,1.21,1.21,0,0,1,.12.36Z"/><path class="cls-2" d="M2.54,24.83V23.05A1.73,1.73,0,0,0,4,22.33a2.86,2.86,0,0,0,.48-1.79V13.27A4.76,4.76,0,0,1,5.76,9.81,4.08,4.08,0,0,1,8.86,8.5H11v2H8.86a2.07,2.07,0,0,0-1.67.83,3,3,0,0,0-.72,2V20.9c0,1.67-.59,2.62-1.67,3.1a3.09,3.09,0,0,1,1.67,3.1v7.63a2.81,2.81,0,0,0,.72,2,2.09,2.09,0,0,0,1.67.83H11V39.5H8.86a4.34,4.34,0,0,1-3.1-1.31,4.32,4.32,0,0,1-1.31-3.46V27.34A2.86,2.86,0,0,0,4,25.55,1.72,1.72,0,0,0,2.54,24.83Z"/><path class="cls-2" d="M37.12,37.47h2.14a2.09,2.09,0,0,0,1.67-.83,3,3,0,0,0,.72-2V27.1c0-1.67.59-2.74,1.67-3.1a3.09,3.09,0,0,1-1.67-3.1V13.39a2.8,2.8,0,0,0-.72-2,2.07,2.07,0,0,0-1.67-.83H37.12v-2h2.14a4.34,4.34,0,0,1,3.1,1.31,4.76,4.76,0,0,1,1.31,3.46v7.27a2.86,2.86,0,0,0,.48,1.79,1.64,1.64,0,0,0,1.31.72v1.78a1.45,1.45,0,0,0-1.19.72,2.86,2.86,0,0,0-.48,1.79v7.39a5,5,0,0,1-1.31,3.46,4.85,4.85,0,0,1-3.22,1.31H37.12Z"/></svg>