<svg xmlns="http://www.w3.org/2000/svg" xmlns:xlink="http://www.w3.org/1999/xlink" viewBox="0 0 48 48">
  <defs>
    <linearGradient id="linear-gradient" x1="43.25" y1="1759.82" x2="8.06" y2="1740.85" gradientTransform="matrix(1, 0, 0, -1, 0, 1774.98)" gradientUnits="userSpaceOnUse">
      <stop offset="0" stop-color="#ff7bff"/>
      <stop offset="0.35" stop-color="#a0f"/>
      <stop offset="1" stop-color="#80c"/>
    </linearGradient>
    <linearGradient id="linear-gradient-2" x1="5.89" y1="1763.94" x2="27.54" y2="1745.44" gradientTransform="matrix(1, 0, 0, -1, 0, 1774.98)" gradientUnits="userSpaceOnUse">
      <stop offset="0.04" stop-color="#ff7bff"/>
      <stop offset="0.58" stop-color="#80c"/>
      <stop offset="1" stop-color="#311b92"/>
    </linearGradient>
  </defs>
  <title>icon-</title>
  <g id="singlestore">
    <g>
      <path d="M24.88,4.66c4.14,1.16,7.91,4.06,9.48,7.61,2.39,5.76,1.84,13-.78,17.38A10.8,10.8,0,0,1,24.05,35a11,11,0,1,1,0-22.08,10.69,10.69,0,0,1,4.13.83,13.34,13.34,0,0,0-4.25-1.18c-8.8-1.15-19.17,5.51-16.78,20.86A19.34,19.34,0,1,0,24.88,4.66Z" style="fill: url(#linear-gradient)"/>
      <path d="M32.1,12.82a12.55,12.55,0,0,0-8.24-6.5A12.29,12.29,0,0,0,21.19,6,16.61,16.61,0,0,0,17,6.51a16.8,16.8,0,0,0-7.51,4.74,19.25,19.25,0,0,0-3.86,6.69s0,.09,0,.18a7.7,7.7,0,0,0-.23.88c0,.09,0,.23-.09.32l-.14.55A.16.16,0,0,1,5,20,20.13,20.13,0,0,0,7,33.28c.3.49.55.91.79,1.29-2.71-14.75,5.1-21.79,14-22,4.65-.09,9.3,1.8,11.56,5.58A12.73,12.73,0,0,0,32.1,12.82Z" style="fill: url(#linear-gradient-2)"/>
    </g>
  </g>
</svg>
