<svg width="48" height="48" viewBox="0 0 48 48" fill="none" xmlns="http://www.w3.org/2000/svg">
<path d="M13.5895 27.758C13.5895 29.8503 11.8998 31.5414 9.80912 31.5414C7.71842 31.5414 6.02869 29.8503 6.02869 27.758C6.02869 25.6656 7.71842 23.9745 9.80912 23.9745H13.5895V27.758ZM15.4798 27.758C15.4798 25.6656 17.1695 23.9745 19.2602 23.9745C21.3509 23.9745 23.0406 25.6656 23.0406 27.758V37.2166C23.0406 39.3089 21.3509 41 19.2602 41C17.1695 41 15.4798 39.3089 15.4798 37.2166V27.758Z" fill="#E01E5A"/>
<path d="M19.2601 12.5669C17.1695 12.5669 15.4797 10.8758 15.4797 8.78344C15.4797 6.69108 17.1695 5 19.2601 5C21.3508 5 23.0406 6.69108 23.0406 8.78344V12.5669H19.2601ZM19.2601 14.4873C21.3508 14.4873 23.0406 16.1784 23.0406 18.2707C23.0406 20.3631 21.3508 22.0541 19.2601 22.0541H9.78043C7.68974 22.0541 6 20.3631 6 18.2707C6 16.1784 7.68974 14.4873 9.78043 14.4873H19.2601Z" fill="#36C5F0"/>
<path d="M34.4105 18.2707C34.4105 16.1784 36.1002 14.4873 38.1909 14.4873C40.2816 14.4873 41.9713 16.1784 41.9713 18.2707C41.9713 20.3631 40.2816 22.0541 38.1909 22.0541H34.4105V18.2707ZM32.5203 18.2707C32.5203 20.3631 30.8305 22.0541 28.7398 22.0541C26.6491 22.0541 24.9594 20.3631 24.9594 18.2707V8.78344C24.9594 6.69108 26.6491 5 28.7398 5C30.8305 5 32.5203 6.69108 32.5203 8.78344V18.2707Z" fill="#2EB67D"/>
<path d="M28.7398 33.4331C30.8305 33.4331 32.5203 35.1242 32.5203 37.2165C32.5203 39.3089 30.8305 41 28.7398 41C26.6491 41 24.9594 39.3089 24.9594 37.2165V33.4331H28.7398ZM28.7398 31.5414C26.6491 31.5414 24.9594 29.8503 24.9594 27.7579C24.9594 25.6656 26.6491 23.9745 28.7398 23.9745H38.2195C40.3102 23.9745 42 25.6656 42 27.7579C42 29.8503 40.3102 31.5414 38.2195 31.5414H28.7398Z" fill="#ECB22E"/>
</svg>
