<svg id="625472e0-4c96-4190-94dd-abbf38eccf1b"   xmlns="http://www.w3.org/2000/svg" viewBox="0 0 48 48">
  <defs>
    <style>
      .\38 a27634d-c1f6-4046-a502-8c259860631f {
        fill: #4d4d4d;
      }

      .\31 d64db19-2d37-4e67-9898-e45022420248 {
        fill: #ff8500;
      }
    </style>
  </defs>
  <title>slam data</title>
  <g>
    <path class="8a27634d-c1f6-4046-a502-8c259860631f" d="M39,18.35v3.9c-.72,0-1.45,0-2.18,0a45.42,45.42,0,0,0-5.48.17,3.74,3.74,0,0,0-3.3,4.16A4.14,4.14,0,0,0,32,30.09a14.94,14.94,0,0,1,3.07.42,7.79,7.79,0,0,1,6,8A8,8,0,0,1,34,45.68c-2.79.28-5.63,0-8.51,0V41.85H29.9c.92,0,1.84,0,2.75,0a4.14,4.14,0,0,0,4-3.48,3.85,3.85,0,0,0-3.2-4.13c-1-.23-2.16-.19-3.21-.42-4.3-1-6.82-4.15-6.59-8.28a8,8,0,0,1,7.48-7.15C33.71,18.17,36.34,18.35,39,18.35Z"/>
    <path class="1d64db19-2d37-4e67-9898-e45022420248" d="M12,16.84l4.1.18A114.54,114.54,0,0,0,5.61,3.43l14.22,9.25.4-.31L19.15,8.56l.24-.2,5,4.75.44-4.31L25,8.71c.65,1.9,1.34,3.79,1.92,5.72.07.24-.35.82-.66,1a10.34,10.34,0,0,0-6.75,8.3c-.14.8-.57.86-1.13.71a3.84,3.84,0,0,1-3-2.61A9.41,9.41,0,0,0,12,16.84Z"/>
  </g>
</svg>
