<svg xmlns="http://www.w3.org/2000/svg" xmlns:xlink="http://www.w3.org/1999/xlink" viewBox="0 0 48 48"><defs><linearGradient id="a" x1="23.31" y1="-816.14" x2="23.31" y2="-856.42" gradientTransform="matrix(1, 0, 0, -1, -2.67, -810.39)" gradientUnits="userSpaceOnUse"><stop offset="0" stop-color="#dadada"/><stop offset="1" stop-color="#efefef"/></linearGradient><linearGradient id="b" x1="21.96" y1="-845.8" x2="21.96" y2="-856.72" gradientTransform="matrix(1, 0, 0, -1, -2.67, -810.39)" gradientUnits="userSpaceOnUse"><stop offset="0" stop-color="#c2c2c2"/><stop offset="1" stop-color="#e0e0e0"/></linearGradient></defs><title>smartsheet</title><path d="M4.13,46a15.79,15.79,0,0,0,.55-4.27v-36H37.1s.23,27.86-.27,33c-.34,3.38-1.75,3.66-4,1a22.13,22.13,0,0,1-2.45-4.21s-3.76,3.75-13.62,7.29A69.93,69.93,0,0,1,4.13,46Z" style="fill:url(#a)"/><path d="M3.17,46.27A.18.18,0,0,1,3,46.05a.21.21,0,0,1,.13-.13,76.31,76.31,0,0,0,13.58-3.26c9.69-3.5,13.52-7.21,13.56-7.25a.15.15,0,0,1,.13,0h0a.17.17,0,0,1,.12.1A22.19,22.19,0,0,0,33,39.63c1,1.13,1.72,1.71,2.24,1.71h.18a.18.18,0,0,1,.13.22.21.21,0,0,1-.13.13c-5.27,1.15-31.95,4.58-32.23,4.58Z" style="fill:url(#b)"/><path d="M30.41,35.59a22.13,22.13,0,0,0,2.45,4.21c.91,1.08,1.74,1.76,2.38,1.76h.19C30.06,42.74,3.18,46.2,3.18,46.2a76.84,76.84,0,0,0,13.63-3.26c9.81-3.55,13.61-7.29,13.61-7.29m0-.35a.34.34,0,0,0-.25.09s-3.84,3.75-13.49,7.21A76.73,76.73,0,0,1,3.14,45.85a.35.35,0,0,0-.35.35.35.35,0,0,0,.35.35h0c.27,0,27-3.47,32.25-4.65a.36.36,0,0,0,.24-.43.35.35,0,0,0-.31-.26h-.08c-.32,0-1-.28-2.11-1.64a21.41,21.41,0,0,1-2.4-4.08.35.35,0,0,0-.25-.19Z" style="fill:#fff"/><path d="M44.48.55s-16,10.08-22.89,27.75l-1-2.05c-2.07-4.09-2.88-5.44-4.39-5.61a7,7,0,0,0-5.32,2.81,6.14,6.14,0,0,1,3.64,2.47c.44.65,5.84,13,5.84,13S31.64,8.14,46.15,1.25Z" style="fill:#295177"/></svg>