<svg xmlns="http://www.w3.org/2000/svg" viewBox="0 0 48 48"><title>sparksql</title><path d="M37.21,33.52c-.11-.23-.16-.35-.21-.46q-2.34-4.44-4.69-8.88a.54.54,0,0,1,.08-.73c2.48-2.89,4.94-5.8,7.41-8.7a.76.76,0,0,0,.2-.4l-2.17.57-9,2.39a.41.41,0,0,1-.54-.24q-2.55-4.26-5.12-8.51a1.18,1.18,0,0,0-.37-.41l-.42,2.27c-.47,2.67-.95,5.34-1.42,8-.05.28-.12.57-.15.86s-.16.38-.41.46L9.84,23.1a1.24,1.24,0,0,0-.48.27l8.7,3.45a1.81,1.81,0,0,1-.25.2c-1.8,1.17-3.61,2.33-5.41,3.51a.58.58,0,0,1-.63,0L5.3,27.69a6.64,6.64,0,0,1-2.52-1.83,3.35,3.35,0,0,1,.81-5.32,9.2,9.2,0,0,1,2.19-1c3.45-1.13,6.92-2.22,10.39-3.31a.58.58,0,0,0,.48-.53q.69-4,1.43-8a13.49,13.49,0,0,1,1.09-4.2,6.56,6.56,0,0,1,1-1.42,3.09,3.09,0,0,1,4.76-.13A9.41,9.41,0,0,1,26.17,3.6q2.4,3.93,4.75,7.88a.51.51,0,0,0,.69.29q5.8-1.56,11.61-3.08a5.4,5.4,0,0,1,2.43-.14,2.4,2.4,0,0,1,2,3.42A6.71,6.71,0,0,1,46.33,14q-4,4.77-8.11,9.53a.54.54,0,0,0-.07.73L43,33.46a5,5,0,0,1,.69,2.33,3.75,3.75,0,0,1-3.27,3.74,6.67,6.67,0,0,1-3-.38c-2.43-.74-5.22-1.48-7.65-2.21a.43.43,0,0,1-.35-.4c-.28-1.71-2-4.14-2.32-5.85a.76.76,0,0,1,0-.2C29.81,31.25,34.35,32.73,37.21,33.52Z" style="fill:#e26a1a;fill-rule:evenodd"/><path d="M10,23.55c2.23,1.54,6,2.22,8.6,3.36.27.12.48.35.73.49a.48.48,0,0,1,.24.57c-.45,3.67-.92,7.64-1.36,11.32-.78.66,6.57-6.62,8.84-8.8,0,.13,3.81,6.72,3.83,6.81-1.29-.42-1.74-.82-2.74.3-.2.23-4,3.8-4.19,4l-5.3,4.7A6.8,6.8,0,0,1,16,47.81c-2.34.62-3.49-.54-3.83-2.94a9.64,9.64,0,0,1,0-2.4c.4-3.61.73-7,1.17-10.6a.58.58,0,0,0-.29-.66c-2.51-1.27-4.75-2.14-7.38-3.37" style="fill:#e26a1a;fill-rule:evenodd"/></svg>