<svg xmlns="http://www.w3.org/2000/svg" viewBox="0 0 48 48"><defs><style>.cls-1{fill:#0272c5;}.cls-2{fill:#fff;}</style></defs><title>Excel Services (SharePoint)</title><g id="NEED_VECTOR" data-name="NEED VECTOR"><path class="cls-1" d="M43,9.16H27.33V5.64L5.1,9.4V38.58l22.23,3.84v-3.6H43a1.12,1.12,0,0,0,1.12-1.12V10.28A1.12,1.12,0,0,0,43,9.16Z"/><path class="cls-2" d="M27.38,10.44v2.63h5.35v3.36H27.38V17.7h5.35v3.36H27.38v1.3h5.35v3.33H27.38V27h5.35v3.36H27.38v1.29h5.35v3.17H27.38v2.73H43V10.44ZM40.3,34.81H34.06V31.64H40.3Zm0-4.46H34.06V27H40.3Zm0-4.66H34.05V22.36H40.3Zm0-4.63H34.06V17.7H40.3Zm0-4.63H34.06V13.07H40.3Z"/><polygon class="cls-2" points="20.34 30.74 17.36 30.56 15.39 25.76 13.59 30.34 10.86 30.18 13.9 24.11 11.13 17.93 13.79 17.82 15.55 22.4 17.47 17.55 20.35 17.39 17.04 24.05 20.34 30.74"/></g></svg>