<?xml version="1.0" encoding="utf-8"?>
<!-- Generator: Adobe Illustrator 22.1.0, SVG Export Plug-In . SVG Version: 6.00 Build 0)  -->
<svg version="1.1" baseProfile="tiny" id="Layer_1" xmlns="http://www.w3.org/2000/svg" xmlns:xlink="http://www.w3.org/1999/xlink"
	 x="0px" y="0px" viewBox="0 0 48 48" xml:space="preserve">
<title>sqlite</title>
<path fill="#008ADF" d="M8.7,31.8c0.7,0.4,1.5,0.6,2.3,0.6c1.3,0,2.1-0.7,2.1-1.7s-0.5-1.4-1.9-1.9c-1.6-0.6-2.6-1.4-2.6-2.8
	c0-1.5,1.3-2.7,3.2-2.7c0.8,0,1.5,0.1,2.2,0.5l-0.4,1c-0.6-0.3-1.2-0.5-1.9-0.5c-1.3,0-1.9,0.8-1.9,1.5c0,0.9,0.6,1.4,2,1.9
	c1.7,0.6,2.5,1.4,2.5,2.9c0,1.5-1.1,2.8-3.4,2.8c-0.9,0-1.7-0.2-2.5-0.7L8.7,31.8z"/>
<path fill="#008ADF" d="M24.1,34.8c-1.3-0.3-2.6-0.7-3.8-1.1c-0.2-0.1-0.4-0.1-0.6-0.1c-2.4-0.1-4.3-1.8-4.3-5s1.9-5.2,4.6-5.2
	s4.4,2.1,4.4,5c0,2.5-1.2,4.1-2.8,4.7v0.1c1,0.2,2,0.5,2.9,0.6L24.1,34.8z M23.1,28.4c0-2-1-4-3.1-4s-3.2,2-3.2,4.1s1.1,4,3.1,4
	S23.1,30.6,23.1,28.4z"/>
<path fill="#008ADF" d="M26.1,23.5h1.3v8.8h4.2v1.1h-5.5C26.1,33.4,26.1,23.5,26.1,23.5z"/>
<path fill="#008ADF" d="M34.4,24.3c0,0.4-0.3,0.8-0.7,0.8c0,0,0,0-0.1,0c-0.4,0-0.8-0.3-0.8-0.7c0,0,0,0,0-0.1
	c0-0.4,0.3-0.8,0.8-0.8l0,0C34,23.5,34.3,23.8,34.4,24.3L34.4,24.3z M32.9,33.4v-7.1h1.3v7.1H32.9z"/>
<path fill="#008ADF" d="M37.9,24.6v1.7h1.8v1h-1.8v3.8c0,0.9,0.2,1.4,1,1.4c0.3,0,0.5,0,0.8-0.1l0.1,1c-0.4,0.1-0.8,0.2-1.1,0.2
	c-0.5,0-1.1-0.2-1.4-0.6c-0.4-0.5-0.6-1.2-0.5-1.9v-3.8h-1.1v-1h1.1V25L37.9,24.6z"/>
<path fill="#008ADF" d="M41.8,30.1c-0.1,1.2,0.8,2.3,2.1,2.4c0.1,0,0.3,0,0.4,0c0.7,0,1.4-0.1,2-0.4l0.2,0.9
	c-0.7,0.3-1.6,0.5-2.4,0.5c-1.8,0.1-3.4-1.2-3.5-3.1c0-0.2,0-0.3,0-0.5c0-2.1,1.2-3.8,3.3-3.8c2.3,0,2.9,2,2.9,3.3
	c0,0.2,0,0.4,0,0.6L41.8,30.1z M45.6,29.2c0.1-1-0.5-1.9-1.5-2.1c-0.1,0-0.2,0-0.2,0c-1.1,0.1-2,1-2,2.1H45.6z"/>
<path fill="#008ADF" d="M12.4,11.8c0,0.1-0.1,0.2-0.1,0.3c-0.1,0.2-0.2,0.4-0.4,0.5l0.4-0.2c-0.2,0.1-0.1,0.6-0.1,0.8
	c0,0.4,0,0.6-0.3,0.8c-0.4,0.3-0.7,0.6-1.1,0.9c0.4-0.1,0.9-0.3,1.2-0.6c-0.2,0.6-0.7,1.2-1.3,1.5c0.2-0.1,0.5-0.2,0.7-0.3L11,16.7
	c-0.1,0.3-0.2,0.7-0.5,0.9c-0.3,0.2-0.6,0.3-0.9,0.4c-0.4,0.2-0.7,0.4-1,0.6c0.6-0.3,1.3-0.5,2-0.5c-0.3,0.9-1.3,1.6-2,2.2
	c0.3-0.3,0.6-0.5,1-0.6c-0.2,0.5-0.3,1-0.6,1.4c-0.3,0.4-0.7,0.8-1.1,1.1c0.3-0.1,0.6-0.3,0.8-0.6l-0.2,0.4c0,0.1-0.1,0.2-0.1,0.2
	c-0.1,0.1-0.2,0.2-0.3,0.3l-0.5,0.4c0.2-0.1,0.5-0.3,0.7-0.4c-0.4,0.8-0.7,1.7-1.7,1.9l1-0.2c-0.3,0.6-0.4,1.1-0.8,1.5
	c-0.3,0.5-0.8,0.8-1.2,1.2L6,26.9c-0.3,0.6-0.6,1-1.3,1.3c0.3-4.6,1.7-8.8,3.9-12.8c-0.1,0.1-0.1,0.1-0.2,0.2
	c-1.1,1.9-2.2,3.8-2.8,5.9c-1.2,3.8-1.7,7.7-1.3,11.8c0.1,0.6,0.1,1.2,0.1,1.7l-0.1,0c-0.1-0.2-0.1-0.3-0.2-0.5
	c-0.3-1.8-0.4-3.7-0.3-5.6c0-0.4,0-0.7-0.3-0.9c-0.3-0.3-0.6-0.6-0.8-0.9L3,27.4c-0.3-0.6-0.5-1.2-0.6-1.9c0.1,0,0.2,0.1,0.2,0.1
	c0,0-0.1-0.6,0-0.6l0.5,0c-0.3-0.6-0.2-1.1,0-1.7l0.7,0.7c-1-1.4-0.4-2.8,0-4.2l0.1,0l0.9,1.3c-0.1-0.3-0.2-0.5-0.3-0.7
	C4.3,20.1,4,19.8,4,19.4c-0.1-0.6,0.1-1.1,0.3-1.6c0.1-0.2,0.2-0.5,0.4-0.7c0.1-0.2,0.2-0.5,0.4-0.7c0.1,0.2,0.2,0.5,0.2,0.8
	l0.1,0.4c0,0.1,0.1,0.3,0.1,0.4c0-0.2,0-0.5,0-0.7c0-0.2,0-0.4,0-0.7c0-0.2,0-0.5,0-0.7c0-0.1,0-0.2,0.1-0.2C5.7,15.4,5.8,15.2,6,15
	c0,0,0.4-0.5,0.4-0.6c0,0.1,0.1,0.1,0.1,0.2c0.1,0.1,0.1,0.2,0.1,0.3c0-0.1,0-0.3,0.1-0.4c0.1,0.1,0.2,0.2,0.2,0.3L6.8,14
	c0,0,0-0.1,0-0.1c0,0,0-0.1,0.1-0.1c0.1-0.1,0.2-0.2,0.2-0.3c0.1,0.2,0.2,0.3,0.3,0.5c0.1-0.4-0.1-0.8,0.2-1.1
	c0.3-0.3,0.7-0.5,1-0.8c0.1,0,0.1-0.1,0.2-0.1l-0.1,1.4C9,13,9,12.5,9.2,12c0.2-0.5,0.7-0.7,1.3-0.9L10,11.8
	c0.2-0.2,0.4-0.3,0.6-0.5c0.5-0.5,1.3-0.7,1.9-1.1C12.4,10.7,12.5,11.3,12.4,11.8z"/>
</svg>
