<svg id="CURRENT" xmlns="http://www.w3.org/2000/svg" xmlns:xlink="http://www.w3.org/1999/xlink" viewBox="0 0 48 48">
  <defs>
    <linearGradient id="linear-gradient" x1="5" y1="33.87" x2="28.3" y2="33.87" gradientUnits="userSpaceOnUse">
      <stop offset="0" stop-color="#717070"/>
      <stop offset="1" stop-color="#dadada"/>
    </linearGradient>
    <linearGradient id="linear-gradient-2" x1="11.73" y1="7" x2="24.13" y2="7" xlink:href="#linear-gradient"/>
    <linearGradient id="linear-gradient-3" x1="7.71" y1="19.95" x2="43" y2="19.95" gradientUnits="userSpaceOnUse">
      <stop offset="0" stop-color="#be0e1c"/>
      <stop offset="0.38" stop-color="#e3010b"/>
      <stop offset="0.99" stop-color="#be0e1c"/>
    </linearGradient>
  </defs>
  <title>sql server</title>
  <g>
    <path d="M7.19,33.6a15.22,15.22,0,0,0-1.06,2.12l6.26-1.85a8.84,8.84,0,0,1-.7-2.17,5.67,5.67,0,0,1,0-2L13,29.15a15.53,15.53,0,0,0-.16,2.09,4.49,4.49,0,0,0,.62,2.06s1.14-1.84,1.87-3.14,1.36-2.74,1.36-2.74l.92-.38s-.68,1.92-1.22,3.09-1.73,3.09-1.73,3.09,2-.57,3.14-.9a17,17,0,0,0,2.77-1.19,17.4,17.4,0,0,1-1.76-2,13.72,13.72,0,0,1-1-2.17l.57-.24a10.89,10.89,0,0,0,1.19,2.22,16.69,16.69,0,0,0,1.55,1.68,15.94,15.94,0,0,0,.65-2.79,13.69,13.69,0,0,0,.05-2.55l.73-.33a29,29,0,0,1-.05,2.93A19.19,19.19,0,0,1,22,30.67L26.87,28l-4.06-3,.54-.21,3.9,2.76-.16-4.07L28,23s.65,2.77,0,9.3a32.79,32.79,0,0,1-4.34,12.4s-16.59,0-18.6-7.32C4.42,35,8.35,31.79,8.35,31.79S7.62,33,7.19,33.6Zm0,4.85A11.67,11.67,0,0,0,8.76,40l3.71-5.26L6.21,36.23A6.93,6.93,0,0,0,7.21,38.45Zm6.08-3.36L9.17,40.33l7.48-2.44a10.91,10.91,0,0,1-1.9-1.25C14.07,36,13.29,35.09,13.29,35.09Zm-1.36,6.84c1.09.46,2.44.89,2.44.89l2.71-4.12L9.65,40.62A15.72,15.72,0,0,0,11.93,41.93Zm6.4-3.37-3.28,4.37s2.87-.6,4.56-1.09,5.09-1.65,5.09-1.65a31.44,31.44,0,0,1-3.95-.65A19.42,19.42,0,0,1,18.33,38.56ZM20,43.88c1.62.19,3.47.35,3.47.35l.62-1.63c.22-.57.76-2.06.76-2.06s-3.31,1.28-4.61,1.66-4.2,1-4.2,1S18.36,43.69,20,43.88Zm-4.13-7.76c.74.54,1.85,1.25,1.85,1.25a28,28,0,0,0,1.73-2.85c.38-.87,1.12-2.33,1.12-2.33s-2,.76-3.1,1.06-3.41,1.06-3.41,1.06A15.16,15.16,0,0,0,15.86,36.12Zm5.81-4.23s-.68,1.76-1.11,2.58-1.33,2.66-1.33,2.66,2.33-.93,3.36-1.41,4-1.77,4-1.77A15.62,15.62,0,0,1,23.86,33C22.67,32.46,21.67,31.89,21.67,31.89Zm.51-.59s1.17.75,2,1.16a24.29,24.29,0,0,0,2.74,1s.24-1.76.3-2.52,0-2.55,0-2.55-1.52,1-2.17,1.33S22.18,31.3,22.18,31.3Zm4.59,3.06s-2.72,1.38-3.87,1.9S19,37.94,19,37.94A8.82,8.82,0,0,0,21.42,39a34.11,34.11,0,0,0,3.75.57s.66-1.76.9-2.68S26.77,34.36,26.77,34.36Z" style="fill: url(#linear-gradient)"/>
    <path d="M11.73,7.67A12.9,12.9,0,0,1,15.26,5.3c2.3-1,5.34-2,5.34-2s1,2.28,1.51,3.63a38.06,38.06,0,0,0,2,3.8L23,10.53,21.72,8.08,19,10.2l-1-.23,3.49-2.24s-2.51-.3-3.66-.47-3.18-.74-3.18-.74l3.18,3.27-1.54-.15-2-3a5.42,5.42,0,0,0-1,.86,3.17,3.17,0,0,0-.57,1.23Zm3.32-1.52,6.41,1S21,6,20.78,5.43a12.7,12.7,0,0,1-.35-1.68s-1.29.39-2.61.93A21.05,21.05,0,0,0,15.05,6.15Z" style="fill: url(#linear-gradient-2)"/>
    <path d="M15.38,24.46a12.94,12.94,0,0,0,2.17-6.18c.58-4.74-5.15-9.07-5.64-9.66a.83.83,0,0,1-.18-1s.36.85,3.08,1.31c3.42.57,13.46,2.09,18,3.47A17.48,17.48,0,0,1,43,20.09s-3.75.62-8.33,1.7a97.74,97.74,0,0,0-13.2,4c-2.09.87-4.49,1.8-6.42,2.71-4.28,2-7.34,3.84-7.34,3.84A47.1,47.1,0,0,0,15.38,24.46ZM13.62,9.3s.91.86,1.43,1.44S16.74,13,16.74,13a18.55,18.55,0,0,0-.55-2.17,5,5,0,0,0-.36-.86Zm3.12.86.94,3.38L21,10.88Zm5,1-3.31,2.9,3.86,1.14A11.77,11.77,0,0,0,22.18,13,13.39,13.39,0,0,0,21.7,11.18Zm.81.14A11.13,11.13,0,0,1,22.9,13c.08.7.08,2.26.08,2.26l4.78-2.91s-1.73-.47-2.91-.69S22.51,11.32,22.51,11.32Zm6.2,1.28-5.05,3,1.56.87c.68.38,1.47.89,1.47.89a10.49,10.49,0,0,0,1.19-2A22.86,22.86,0,0,0,28.71,12.6Zm.64,0a15,15,0,0,1-.5,2.32c-.32,1-.77,2.24-.77,2.24a29.49,29.49,0,0,1,3.3-1.33c1-.25,4.18-1.11,4.18-1.11s-2-.81-3.1-1.18S29.35,12.6,29.35,12.6Zm6.71,2.62s-3.12.94-4.35,1.36a38,38,0,0,0-3.5,1.54,14.52,14.52,0,0,1,1.48,1.32c.61.67,1.54,1.94,1.54,1.94s2-2.3,2.88-3.51S36.06,15.22,36.06,15.22Zm.59.07A18.54,18.54,0,0,1,35.23,18a34.87,34.87,0,0,1-3.09,3.47s3.32-.78,5.61-1.17a38.76,38.76,0,0,1,4.43-.49,25.27,25.27,0,0,0-2.48-2.44A30.74,30.74,0,0,0,36.65,15.29Zm-18.58-.07a11,11,0,0,1,.24,1.94,15.32,15.32,0,0,1-.15,2.13l3.38-3.14s-.94-.35-1.73-.59A12.72,12.72,0,0,0,18.07,15.22ZM21.9,17l-3.51,3a4.74,4.74,0,0,1,.91.63c.34.34.76.8.76.8a9.84,9.84,0,0,0,1.2-2.22C21.53,18.24,21.9,17,21.9,17Zm.87-.29a11.26,11.26,0,0,1-.39,1.7c-.25.79-.84,2.17-.84,2.17l4-2.35Zm2.58,2.7L20.58,22s.32.74.49,1.22.4,1.21.4,1.21,1.44-1.5,2.26-2.6A27.73,27.73,0,0,0,25.35,19.36ZM27,19s-1.28,1.77-2.07,2.64l-2.46,2.75,8-2.61a16.2,16.2,0,0,0-1.55-1.48A16.48,16.48,0,0,0,27,19ZM17.2,22.44c-.36.66-1,1.7-1,1.7l2.93-2.09a3.07,3.07,0,0,0-.64-.67A3.71,3.71,0,0,0,17.8,21,10.86,10.86,0,0,1,17.2,22.44Zm1.39.87-3,1.81-2,2.46a30.8,30.8,0,0,0,2.76-2C17.33,24.71,18.59,23.31,18.59,23.31Zm1.22-.45A24.19,24.19,0,0,1,18,25c-.79.76-3.12,2.63-3.12,2.63s3.1-1.38,3.72-1.7,2.13-1,2.13-1a7.11,7.11,0,0,0-.39-1.23C20.14,23.37,19.81,22.86,19.81,22.86Z" style="fill: url(#linear-gradient-3)"/>
    <g>
      <path d="M25.28,43.61h.9v.13H25.8v1h-.14v-1h-.38Z"/>
      <path d="M26.35,43.61h.22l.27.75.27-.75h.21v1.1h-.14v-1l-.27.75h-.14l-.28-.75v1h-.14Z"/>
    </g>
  </g>
</svg>
