<svg xmlns="http://www.w3.org/2000/svg" viewBox="0 0 48 48"><title>Artboard 1</title><path d="M2.7,34a21.16,21.16,0,0,0-1.1,2.1l6.3-1.8a8.083,8.083,0,0,1-.7-2.2,6.7,6.7,0,0,1,0-2l1.2-.5a14.919,14.919,0,0,0-.2,2.1,4.2,4.2,0,0,0,.6,2.1s1.1-1.8,1.9-3.1A23.722,23.722,0,0,0,12.1,28l.9-.4s-.7,1.9-1.2,3.1a27.834,27.834,0,0,1-1.7,3.1l3.1-.9A13.9,13.9,0,0,0,16,31.7c-.6-.6-1.2-1.3-1.8-2a14.722,14.722,0,0,1-1-2.2l.6-.2A9.409,9.409,0,0,0,15,29.5c.5.6,1,1.1,1.6,1.7a12.662,12.662,0,0,0,.6-2.8,10.454,10.454,0,0,0,0-2.5l.7-.3s0,1.6-.1,2.9a23.254,23.254,0,0,1-.5,2.8l4.9-2.7-4.1-3,.5-.2,3.9,2.8-.2-4.1.9-.4s.6,2.8,0,9.3a33.931,33.931,0,0,1-4.3,12.4S2.3,45.4.3,38.1c-.6-2.4,3.3-5.6,3.3-5.6S3.1,33.4,2.7,34Zm0,4.8a10.607,10.607,0,0,0,1.5,1.5L7.9,35,1.7,36.5a4.88,4.88,0,0,0,1,2.3Zm6-3.3L4.6,40.8l7.5-2.4a12.227,12.227,0,0,1-1.9-1.2,19.252,19.252,0,0,0-1.5-1.7ZM7.4,42.3a23.424,23.424,0,0,0,2.4.9l2.7-4.1L5.1,41A10.46,10.46,0,0,0,7.4,42.3ZM13.8,39l-3.3,4.4s2.9-.6,4.6-1.1,5.1-1.7,5.1-1.7a18.654,18.654,0,0,1-4-.7A11.725,11.725,0,0,1,13.8,39Zm1.7,5.3c1.6.2,3.5.3,3.5.3l.6-1.7c.2-.6.8-2.1.8-2.1s-3.3,1.3-4.6,1.7-4.2,1-4.2,1a32.556,32.556,0,0,0,3.9.8Zm-4.2-7.7c.7.5,1.9,1.2,1.9,1.2A26.06,26.06,0,0,0,14.9,35c.4-.9,1.1-2.3,1.1-2.3s-2,.8-3.1,1.1-3.4,1-3.4,1l1.8,1.8Zm5.8-4.3s-.7,1.8-1.1,2.6-1.3,2.7-1.3,2.7,2.3-.9,3.4-1.4,4-1.8,4-1.8a14.262,14.262,0,0,1-2.7-.9c-1.3-.6-2.3-1.2-2.3-1.2Zm.5-.6s1.2.8,2,1.2c.9.4,1.8.7,2.7,1,0,0,.2-1.8.3-2.5a19.935,19.935,0,0,0,0-2.5,21.176,21.176,0,0,1-2.2,1.3Zm4.6,3.1s-2.7,1.4-3.9,1.9-3.9,1.7-3.9,1.7a12.806,12.806,0,0,0,2.4,1.1c1.2.3,2.5.4,3.8.6a26.818,26.818,0,0,0,.9-2.7c.2-.9.7-2.6.7-2.6Z" style="fill:#ccc"/><path d="M7.2,8.1a12.111,12.111,0,0,1,3.5-2.4c2.3-1,5.3-2,5.3-2S17,6,17.6,7.3s1.3,2.6,2,3.8L18.5,11,17.2,8.5l-2.8,2.1-1-.2,3.5-2.2s-2.5-.3-3.7-.5S10,6.9,10,6.9l3.2,3.3L11.7,10l-2-3a9.016,9.016,0,0,0-1,.9,3.379,3.379,0,0,0-.6,1.2Zm3.3-1.5,6.4,1s-.5-1.2-.7-1.8c-.1-.5-.3-1.1-.4-1.7,0,0-1.3.4-2.6.9C12.3,5.5,11.4,6,10.5,6.6Z" style="fill:#ccc"/><path d="M10.9,24.9A12.425,12.425,0,0,0,13,18.7C13.6,14,7.9,9.6,7.4,9a.775.775,0,0,1-.2-1s.4.9,3.1,1.3c3.4.6,13.4,2.1,18,3.5a17.213,17.213,0,0,1,10.2,7.7s-3.8.6-8.3,1.7a100.422,100.422,0,0,0-13.2,4c-2.1.9-4.5,1.8-6.4,2.7-4.3,2-7.3,3.8-7.3,3.8A56.185,56.185,0,0,0,10.9,24.9ZM9.1,9.7l1.4,1.4a27.648,27.648,0,0,1,1.7,2.2,9.017,9.017,0,0,0-.6-2.2,3.552,3.552,0,0,0-.4-.9Zm3.1.9.9,3.4,3.3-2.7Zm5,1-3.3,2.9,3.9,1.1a17.7,17.7,0,0,0-.1-2.3,15.426,15.426,0,0,0-.5-1.7Zm.8.1a9.363,9.363,0,0,1,.4,1.6c.1.7.1,2.3.1,2.3l4.8-2.9s-1.7-.5-2.9-.7-2.4-.2-2.4-.3ZM24.2,13l-5,3,1.6.9c.7.4,1.5.9,1.5.9a8.175,8.175,0,0,0,1.2-2C23.7,14.9,24,13.9,24.2,13Zm.6,0a15.536,15.536,0,0,1-.5,2.3c-.3,1-.8,2.2-.8,2.2,1.1-.5,2.2-.9,3.3-1.3,1-.2,4.2-1.1,4.2-1.1s-2-.8-3.1-1.2S24.8,13,24.8,13Zm6.7,2.6s-3.1.9-4.4,1.3a31.12,31.12,0,0,0-3.5,1.5,17.383,17.383,0,0,1,1.5,1.3c.6.7,1.5,1.9,1.5,1.9s2-2.3,2.9-3.5,2-2.5,2-2.5Zm.6.1c-.4.9-.9,1.8-1.4,2.7-1,1.2-2,2.4-3.1,3.5,0,0,3.3-.8,5.6-1.2,1.5-.2,2.9-.4,4.4-.5a18.784,18.784,0,0,0-2.5-2.4,16.1,16.1,0,0,0-3-2.1Zm-18.6-.1a12.252,12.252,0,0,1,.2,1.9c0,.7-.1,1.4-.1,2.1L17,16.5a12.341,12.341,0,0,0-1.7-.6l-1.8-.3Zm3.9,1.8-3.5,3,.9.6.8.8a9.409,9.409,0,0,0,1.2-2.2c.2-.9.6-2.2.6-2.2Zm.8-.3a10.462,10.462,0,0,1-.4,1.7A19.923,19.923,0,0,1,17,21l4-2.4Zm2.6,2.7L16,22.4s.3.7.5,1.2.4,1.2.4,1.2,1.4-1.5,2.3-2.6c.6-.8,1.1-1.6,1.6-2.4Zm1.7-.4A29.153,29.153,0,0,1,20.4,22l-2.5,2.8,8-2.6-1.5-1.5c-.6-.4-1.3-.9-1.9-1.3Zm-9.8,3.5c-.4.6-1,1.7-1,1.7l2.9-2.1a4.349,4.349,0,0,0-.6-.7,1.493,1.493,0,0,0-.7-.3c-.2.4-.4.9-.6,1.4Zm1.4.8-3,1.8L9.1,28a28.318,28.318,0,0,0,2.8-2c.9-.9,2.2-2.3,2.2-2.3Zm1.2-.4-1.8,2.1c-.8.8-3.1,2.6-3.1,2.6s3.1-1.4,3.7-1.7,2.1-1,2.1-1a5.638,5.638,0,0,0-.4-1.2c-.2-.3-.5-.8-.5-.8Z" style="fill:#d60500"/><path d="M20.8,44h.9v.1h-.4v1h-.1v-1h-.4Z"/><path d="M21.8,44H22l.3.8.3-.8h.2v1.1h-.1v-1l-.3.8h-.1l-.3-.7v1h-.1Z"/><path d="M35.2,35.5H34.1l-.9-2.1H29.6l-.8,2.1H27.7L31,28h1Zm-2.3-2.9-1.3-3.2a.9.9,0,0,1-.1-.5h0c0,.2-.1.3-.1.5L30,32.6Z"/><path d="M35.9,35.2v-1a2.186,2.186,0,0,0,.5.3,1.421,1.421,0,0,0,.6.2c.2,0,.4.1.6.1h.6a3.529,3.529,0,0,0,1.4-.3,1.05,1.05,0,0,0,.5-.9c0-.2,0-.4-.2-.5a.781.781,0,0,0-.4-.4c-.2-.1-.4-.3-.6-.4L38,32a5.938,5.938,0,0,1-.8-.4c-.2-.1-.5-.3-.7-.4a1.275,1.275,0,0,1-.4-.6,1.854,1.854,0,0,1-.2-.7,2.92,2.92,0,0,1,.2-.9,1.344,1.344,0,0,1,.7-.6,3.552,3.552,0,0,1,.9-.4,4.1,4.1,0,0,1,1.1-.1,5.663,5.663,0,0,1,1.8.3v1a3.906,3.906,0,0,0-2.6-.4,1.421,1.421,0,0,0-.6.2.781.781,0,0,0-.4.4c-.1.2-.2.3-.2.5a.9.9,0,0,0,.1.5.781.781,0,0,0,.4.4l.6.3.8.4c.3.1.6.3.9.4a1.794,1.794,0,0,1,.7.5,2.651,2.651,0,0,1,.5.6,1.854,1.854,0,0,1,.2.7,2.388,2.388,0,0,1-.2.9,1.344,1.344,0,0,1-.7.6,1.689,1.689,0,0,1-1,.3,4.484,4.484,0,0,1-1.1.1h-.5a1.268,1.268,0,0,1-.6-.1c-.2,0-.4-.1-.6-.1C36.2,35.3,36,35.3,35.9,35.2Z"/></svg>