<svg id="Layer_1" data-name="Layer 1" xmlns="http://www.w3.org/2000/svg" xmlns:xlink="http://www.w3.org/1999/xlink" viewBox="0 0 48 48"><defs><style>.cls-1{fill:url(#linear-gradient);}.cls-2{fill:url(#linear-gradient-2);}.cls-3{fill:url(#linear-gradient-3);}</style><linearGradient id="linear-gradient" x1="5" y1="33.87" x2="28.3" y2="33.87" gradientUnits="userSpaceOnUse"><stop offset="0" stop-color="#717070"/><stop offset="1" stop-color="#dadada"/></linearGradient><linearGradient id="linear-gradient-2" x1="11.73" y1="7" x2="24.13" y2="7" xlink:href="#linear-gradient"/><linearGradient id="linear-gradient-3" x1="7.71" y1="19.95" x2="43" y2="19.95" gradientUnits="userSpaceOnUse"><stop offset="0" stop-color="#be0e1c"/><stop offset="0.38" stop-color="#e3010b"/><stop offset="0.99" stop-color="#be0e1c"/></linearGradient></defs><title>SSIS</title><path class="cls-1" d="M7.19,33.6a16.14,16.14,0,0,0-1.06,2.12l6.26-1.84a8.72,8.72,0,0,1-.7-2.17,5.6,5.6,0,0,1,0-2L13,29.15a15.59,15.59,0,0,0-.16,2.09,4.5,4.5,0,0,0,.62,2.06s1.14-1.84,1.87-3.15,1.36-2.74,1.36-2.74l.92-.38s-.68,1.93-1.22,3.09-1.74,3.09-1.74,3.09l3.15-.91a17.13,17.13,0,0,0,2.77-1.18,17.35,17.35,0,0,1-1.76-2,14.59,14.59,0,0,1-1-2.17l.57-.24a10.92,10.92,0,0,0,1.19,2.22,17,17,0,0,0,1.55,1.68,16.09,16.09,0,0,0,.65-2.79,13.64,13.64,0,0,0,.05-2.55l.73-.33s.05,1.57-.05,2.93A19.23,19.23,0,0,1,22,30.67L26.87,28l-4.07-3,.54-.22,3.91,2.77-.16-4.07L28,23s.65,2.77,0,9.29a32.78,32.78,0,0,1-4.34,12.4s-16.6,0-18.6-7.32C4.42,35,8.35,31.79,8.35,31.79S7.62,33,7.19,33.6Zm0,4.85A12.15,12.15,0,0,0,8.76,40l3.72-5.26L6.21,36.23A7,7,0,0,0,7.21,38.45Zm6.07-3.36L9.17,40.33l7.49-2.44a10.53,10.53,0,0,1-1.9-1.25C14.07,36,13.29,35.09,13.29,35.09Zm-1.36,6.83c1.08.46,2.44.89,2.44.89l2.71-4.12L9.65,40.62A14.8,14.8,0,0,0,11.93,41.93Zm6.4-3.36L15,42.93s2.88-.6,4.56-1.08,5.1-1.65,5.1-1.65a31.3,31.3,0,0,1-4-.65A20,20,0,0,1,18.33,38.56ZM20,43.88c1.63.19,3.47.35,3.47.35l.62-1.63c.22-.57.76-2.06.76-2.06s-3.31,1.27-4.61,1.65-4.2,1-4.2,1S18.36,43.69,20,43.88Zm-4.12-7.76c.73.54,1.84,1.25,1.84,1.25a27.81,27.81,0,0,0,1.74-2.85c.38-.87,1.11-2.33,1.11-2.33s-2,.75-3.09,1.06S14,34.31,14,34.31A15.27,15.27,0,0,0,15.86,36.12Zm5.8-4.23s-.68,1.76-1.11,2.58-1.33,2.66-1.33,2.66,2.33-.92,3.36-1.41,4-1.77,4-1.77A15.44,15.44,0,0,1,23.86,33C22.67,32.46,21.67,31.89,21.67,31.89Zm.52-.6s1.17.76,2,1.17a24.63,24.63,0,0,0,2.74,1s.24-1.77.3-2.53,0-2.55,0-2.55-1.52,1-2.17,1.33S22.18,31.3,22.18,31.3Zm4.58,3.06s-2.71,1.38-3.86,1.9S19,37.94,19,37.94A8.92,8.92,0,0,0,21.42,39a35.32,35.32,0,0,0,3.74.57s.66-1.76.9-2.68S26.77,34.36,26.77,34.36Z"/><path class="cls-2" d="M11.73,7.67A13.11,13.11,0,0,1,15.26,5.3c2.3-1,5.35-2,5.35-2s1,2.28,1.5,3.62a38.34,38.34,0,0,0,2,3.8L23,10.53,21.72,8.08,18.95,10.2l-1-.23,3.49-2.24s-2.51-.29-3.66-.47-3.18-.74-3.18-.74l3.18,3.27-1.54-.16-2-3a5.4,5.4,0,0,0-1,.86,3.12,3.12,0,0,0-.56,1.23ZM15,6.15l6.42,1S21,6,20.78,5.43a13.51,13.51,0,0,1-.35-1.68s-1.29.39-2.61.94A21.24,21.24,0,0,0,15,6.15Z"/><path class="cls-3" d="M15.38,24.46a12.94,12.94,0,0,0,2.17-6.18c.59-4.74-5.14-9.07-5.64-9.66a.85.85,0,0,1-.18-1s.36.86,3.09,1.32c3.41.57,13.45,2.09,18,3.47A17.45,17.45,0,0,1,43,20.09s-3.75.62-8.33,1.71a97.52,97.52,0,0,0-13.19,4c-2.09.87-4.5,1.8-6.43,2.71-4.28,2-7.34,3.84-7.34,3.84A47.41,47.41,0,0,0,15.38,24.46ZM13.62,9.3s.91.86,1.43,1.44S16.74,13,16.74,13a19.54,19.54,0,0,0-.54-2.17,5.1,5.1,0,0,0-.36-.86Zm3.11.86.95,3.38L21,10.88Zm5,1-3.31,2.9,3.85,1.14A11.58,11.58,0,0,0,22.18,13,12.55,12.55,0,0,0,21.7,11.18Zm.81.14A10.3,10.3,0,0,1,22.9,13c.08.71.08,2.26.08,2.26l4.78-2.91s-1.73-.46-2.91-.68S22.51,11.32,22.51,11.32Zm6.2,1.28-5,3,1.56.87c.68.38,1.47.89,1.47.89a10.29,10.29,0,0,0,1.18-1.95A21.64,21.64,0,0,0,28.71,12.6Zm.64,0a15.55,15.55,0,0,1-.5,2.32c-.33,1-.77,2.24-.77,2.24a28.84,28.84,0,0,1,3.3-1.32c1-.26,4.18-1.11,4.18-1.11s-1.95-.81-3.1-1.18S29.35,12.6,29.35,12.6Zm6.71,2.62s-3.12.94-4.35,1.36-3.49,1.54-3.49,1.54a14.23,14.23,0,0,1,1.47,1.32c.62.66,1.54,1.94,1.54,1.94s2-2.3,2.88-3.52S36.06,15.22,36.06,15.22Zm.59.07A18.6,18.6,0,0,1,35.23,18a35.5,35.5,0,0,1-3.1,3.47s3.32-.78,5.62-1.17a39.75,39.75,0,0,1,4.42-.49,24.83,24.83,0,0,0-2.47-2.44A31.13,31.13,0,0,0,36.65,15.29Zm-18.58-.07a10.53,10.53,0,0,1,.24,1.94,15.07,15.07,0,0,1-.15,2.13l3.38-3.13s-.94-.35-1.74-.59A12,12,0,0,0,18.07,15.22Zm3.82,1.73-3.5,3a4.43,4.43,0,0,1,.91.63c.34.34.76.8.76.8a9.81,9.81,0,0,0,1.2-2.22C21.53,18.24,21.9,16.95,21.9,16.95Zm.88-.29a12.45,12.45,0,0,1-.39,1.7c-.25.79-.84,2.17-.84,2.17l4-2.36Zm2.58,2.7L20.58,22s.32.74.49,1.21.4,1.21.4,1.21,1.43-1.5,2.26-2.59S25.35,19.36,25.35,19.36ZM27,19s-1.28,1.77-2.07,2.65l-2.46,2.75,8-2.61a15.81,15.81,0,0,0-1.55-1.48A16.93,16.93,0,0,0,27,19ZM17.2,22.44c-.35.66-1,1.7-1,1.7l2.93-2.09a3.2,3.2,0,0,0-.64-.67A4.11,4.11,0,0,0,17.8,21,10.64,10.64,0,0,1,17.2,22.44Zm1.4.88-3,1.8-2,2.46a29.38,29.38,0,0,0,2.76-2C17.33,24.71,18.59,23.31,18.59,23.31Zm1.21-.45A23.59,23.59,0,0,1,18,24.95c-.79.76-3.12,2.63-3.12,2.63s3.1-1.38,3.72-1.7,2.12-1,2.12-1a6.6,6.6,0,0,0-.39-1.23C20.14,23.37,19.81,22.86,19.81,22.86Z"/><path d="M25.28,43.61h.9v.13H25.8v1h-.14v-1h-.38Z"/><path d="M26.35,43.61h.21l.27.75.27-.75h.21v1.1h-.14v-1l-.27.75h-.14l-.27-.75v1h-.14Z"/></svg>