<svg id="Layer_1" data-name="Layer 1" xmlns="http://www.w3.org/2000/svg" viewBox="0 0 48 48"><title>stackexchange</title><path d="M7.5,28.2h33V21.41H7.5Z" style="fill:#4068bb"/><path d="M7.5,19.46h33V12.67H7.5v6.79Z" style="fill:#5ca3de"/><path d="M35.27,3.53H12.74A5.34,5.34,0,0,0,7.5,9v1.76h33V9a5.33,5.33,0,0,0-5.23-5.43" style="fill:#9adff7"/><path d="M7.5,30.11v1.77a5.34,5.34,0,0,0,5.24,5.42H26.83v7.17l6.92-7.17h1.52a5.33,5.33,0,0,0,5.23-5.42V30.11H7.5" style="fill:#2d4e9b"/><path d="M13.69,37.3h-.95A5.34,5.34,0,0,1,7.5,31.88V30.11H20.63L13.69,37.3" style="fill:#455ca6"/><path d="M30.91,19.46H7.5V12.67h30l-6.55,6.79" style="fill:#73aee2"/><path d="M22.47,28.2H7.5V21.41H29L22.47,28.2" style="fill:#5877c4"/></svg>