<svg id="cddef94d-725d-43d1-9199-17b2d553e94b" data-name="Icons" xmlns="http://www.w3.org/2000/svg" xmlns:xlink="http://www.w3.org/1999/xlink" viewBox="0 0 108 72">
  <defs>
    <style>
      .\34 3fd1c60-abd4-40a5-9c89-a082abb1586a {
        fill: none;
      }

      .\38 ef45318-f17f-4f92-b836-817225d9ac4d {
        clip-path: url(#9c4fe374-f396-4fc3-8019-faf874fcb9b2);
      }

      .f2e376ef-5429-4c8c-9caf-466dca956258 {
        fill: #100f0d;
      }

      .e10f1f86-faf2-42fc-a7d2-da80a68713ed {
        fill: #bc8f41;
      }

      .e34fe309-174f-45ab-8137-90d628df9a00 {
        fill: #d0831a;
      }

      .\34 4d97305-a5d3-453d-bdc2-1deaf6b9bdf1 {
        fill: #f57b14;
      }

      .bdd204c0-2af7-4711-a1f2-caa843118a40 {
        fill: #f36717;
      }

      .\32 408cd0f-2243-48e4-8a8f-9c0568768450 {
        fill: #a18463;
      }

      .\31 f110836-2bd0-4db2-b5f6-e3586d1302f8 {
        fill: #7b7c82;
      }
    </style>
    <clipPath id="9c4fe374-f396-4fc3-8019-faf874fcb9b2">
      <rect class="43fd1c60-abd4-40a5-9c89-a082abb1586a" x="4.47" y="25.2" width="98.19" height="21.75"/>
    </clipPath>
  </defs>
  <title>stackoverflow</title>
  <g class="8ef45318-f17f-4f92-b836-817225d9ac4d">
    <g>
      <path class="f2e376ef-5429-4c8c-9caf-466dca956258" d="M26.14,45.34a3.91,3.91,0,0,1-2.91-1l.69-.69a2.91,2.91,0,0,0,2.21.82C27.3,44.45,28,44,28,43.19c0-.62-.36-1-1.18-1l-1.17-.1c-1.39-.11-2.13-.73-2.13-1.9s1.1-2.08,2.62-2.08a4,4,0,0,1,2.55.76l-.68.68A3,3,0,0,0,26.14,39c-1,0-1.58.45-1.58,1.17s.34,1,1.24,1l1.14.1c1.24.11,2.09.59,2.09,1.92s-1.17,2.16-2.89,2.16m6-.08a1.74,1.74,0,0,1-1.82-1.91V39h-.89V38.2h.89V36h1V38.2h1.52V39H31.41v4.33c0,.65.31,1,1,1h.55v.9h-.74M38.3,42h-2c-1.07,0-1.59.43-1.59,1.26s.51,1.21,1.64,1.21A2,2,0,0,0,37.94,44a1.6,1.6,0,0,0,.36-1.22V42Zm0,3.28v-.68a2.47,2.47,0,0,1-2,.76,2.49,2.49,0,0,1-2-.65,2,2,0,0,1-.54-1.44c0-1.24.87-2,2.46-2H38.3v-.68c0-1-.51-1.56-1.81-1.56a1.86,1.86,0,0,0-1.79.81L34,39.12a2.75,2.75,0,0,1,2.51-1c1.91,0,2.84.82,2.84,2.37v4.82h-1m5.12.08c-1.79,0-3.15-1.21-3.15-3.63s1.36-3.64,3.15-3.64a2.8,2.8,0,0,1,2.33,1l-.7.67a2.07,2.07,0,0,0-3.28,0,3.06,3.06,0,0,0-.46,1.91,3,3,0,0,0,.46,1.9,1.92,1.92,0,0,0,1.65.81,2,2,0,0,0,1.63-.81l.7.68a2.8,2.8,0,0,1-2.33,1.05m8-.08-2.26-3.64-1.38,1.59v2h-1V35h1v6.87l3.2-3.7h1.3L49.9,40.87l2.83,4.39H51.45M56.92,40a1.1,1.1,0,0,0-.83-.32,1.06,1.06,0,0,0-.82.32,2.39,2.39,0,0,0-.41,1.72,2.45,2.45,0,0,0,.41,1.74,1.09,1.09,0,0,0,.82.31,1.13,1.13,0,0,0,.83-.31,2.45,2.45,0,0,0,.41-1.74A2.39,2.39,0,0,0,56.92,40Zm1.39,4.5a3,3,0,0,1-2.22.87,2.92,2.92,0,0,1-2.2-.87,3.6,3.6,0,0,1-.81-2.78,3.57,3.57,0,0,1,.81-2.76,2.89,2.89,0,0,1,2.2-.88,3,3,0,0,1,2.22.88,3.61,3.61,0,0,1,.8,2.76,3.64,3.64,0,0,1-.8,2.78m4.8.79H61.72l-2.63-7.13H61l1.45,4.41,1.44-4.41h1.87l-2.61,7.13m6.83-5a1.33,1.33,0,0,0-2.38,0,1.88,1.88,0,0,0-.16.76h2.71a2.06,2.06,0,0,0-.17-.76Zm-2.54,2A1.47,1.47,0,0,0,69,43.84a2,2,0,0,0,1.61-.67l1.08,1a3.37,3.37,0,0,1-2.71,1.12c-1.68,0-3.3-.76-3.3-3.65,0-2.33,1.26-3.64,3.11-3.64s3.11,1.45,3.11,3.41v.79H67.4m9.22-2.17a1.19,1.19,0,0,0-2.1.89v4.29H72.74V38.13h1.74v.69a2.42,2.42,0,0,1,1.79-.77,2.18,2.18,0,0,1,1.69.67l-1.34,1.36m8.59,5.18a1.93,1.93,0,0,1-2.08-2v-8H84.9v7.89c0,.43.18.65.63.65h.69v1.5ZM81,39.49v5.77H79.19V39.49h-.74V38.14h.74v-.89a1.94,1.94,0,0,1,2.08-2h1v1.5H81.6a.57.57,0,0,0-.63.65v.78h1.31v1.35H81m9.35.48a1.12,1.12,0,0,0-.84-.32,1.09,1.09,0,0,0-.82.32,2.39,2.39,0,0,0-.41,1.72,2.45,2.45,0,0,0,.41,1.74,1.12,1.12,0,0,0,.82.31,1.16,1.16,0,0,0,.84-.31,2.45,2.45,0,0,0,.41-1.74A2.39,2.39,0,0,0,90.32,40Zm1.38,4.5a3,3,0,0,1-2.22.87,2.94,2.94,0,0,1-2.2-.87,3.64,3.64,0,0,1-.81-2.78,3.61,3.61,0,0,1,.81-2.76,2.91,2.91,0,0,1,2.2-.88,2.94,2.94,0,0,1,2.22.88,3.61,3.61,0,0,1,.81,2.76,3.64,3.64,0,0,1-.81,2.78m8.79.79H99l-1.49-4.47L96,45.26H94.58l-2.19-7.13h1.89l1.15,4.41,1.45-4.41h1.3l1.46,4.41,1.15-4.41h1.88l-2.18,7.13"/>
      <path class="e10f1f86-faf2-42fc-a7d2-da80a68713ed" d="M16.61,39.12l-8.33-2,.41-1.67,8.33,2-.41,1.67"/>
      <path class="e34fe309-174f-45ab-8137-90d628df9a00" d="M17.17,37.13l-7.63-3.9.78-1.53L18,35.6l-.78,1.53"/>
      <path class="44d97305-a5d3-453d-bdc2-1deaf6b9bdf1" d="M18.35,35.06l-6.46-5.64L13,28.13l6.45,5.64-1.12,1.29"/>
      <path class="bdd204c0-2af7-4711-a1f2-caa843118a40" d="M20.12,33.25l-4.81-7.1,1.42-1,4.81,7.09-1.42,1"/>
      <path class="2408cd0f-2243-48e4-8a8f-9c0568768450" d="M16.48,41.2l-8.56-.46L8,39l8.56.47-.09,1.71"/>
      <path class="1f110836-2bd0-4db2-b5f6-e3586d1302f8" d="M18.25,45.24V38.13H20V47H4.47V38.13H6.19v7.11H18.25"/>
      <path class="1f110836-2bd0-4db2-b5f6-e3586d1302f8" d="M7.9,43.53h8.63V41.81H7.9v1.72Z"/>
    </g>
  </g>
</svg>
