<svg xmlns="http://www.w3.org/2000/svg" viewBox="0 0 48 48"><title>stripe</title><path d="M41,23.78c.1-1.5.51-2.21,1.28-2.21s1.15.72,1.21,2.21Zm5.65.9a6.42,6.42,0,0,0-1.08-3.95,3.89,3.89,0,0,0-3.24-1.44c-2.86,0-4.64,2.12-4.64,5.51A5.69,5.69,0,0,0,39.06,29a5,5,0,0,0,3.61,1.22,6.84,6.84,0,0,0,3.62-.9l-.37-2.3a6.07,6.07,0,0,1-2.88.69,2.11,2.11,0,0,1-1.43-.42A2.15,2.15,0,0,1,41,25.85h5.58C46.58,25.68,46.61,24.92,46.61,24.68ZM33.14,27a1.31,1.31,0,0,1-1.18.79,1.94,1.94,0,0,1-.91-.21v-5a1.84,1.84,0,0,1,1.28-.67c.85,0,1.27.93,1.27,2.73A4.9,4.9,0,0,1,33.14,27Zm2.8-6.52a3,3,0,0,0-2.49-1.15,3.52,3.52,0,0,0-2.63,1.26l-.18-1.06h-3V34l3.37-.56V30a5.28,5.28,0,0,0,1.52.24,4.05,4.05,0,0,0,3-1.25A6.58,6.58,0,0,0,37,24.46,6.54,6.54,0,0,0,35.94,20.44Zm-13-1h3.38V30.06H23Zm1.69-1a1.78,1.78,0,1,0-1.78-1.78A1.78,1.78,0,0,0,24.67,18.45Zm-3.15.9a2,2,0,0,0-2,1.39l-.2-1.25H16.36V30.06h3.37V23.2a2.16,2.16,0,0,1,1.83-.7,3.29,3.29,0,0,1,.6,0V19.43A2.44,2.44,0,0,0,21.52,19.35ZM15.06,22l.41-2.5H13.32v-3l-2.89.47L10,19.49l-1,.17L8.61,22H10v4.9a3.24,3.24,0,0,0,1,2.7,3.84,3.84,0,0,0,2.48.67A6.55,6.55,0,0,0,15.25,30V27.37a4.94,4.94,0,0,1-1,.15c-.66,0-.95-.34-.95-1.12V22ZM5.42,23.47c-1-.37-1.54-.65-1.54-1.1s.32-.6.87-.6a6.75,6.75,0,0,1,2.79.75L7.94,20a7.81,7.81,0,0,0-3.35-.72,4.34,4.34,0,0,0-2.77.85A3,3,0,0,0,.75,22.59c0,1.84,1.12,2.63,3,3.3,1.18.42,1.57.72,1.57,1.18s-.38.7-1.07.7a7.48,7.48,0,0,1-3.19-1L.61,29.35a8.29,8.29,0,0,0,3.78.91,4.64,4.64,0,0,0,2.89-.83,3.15,3.15,0,0,0,1.15-2.62c0-1.89-1.15-2.67-3-3.34Z"/></svg>