<svg xmlns="http://www.w3.org/2000/svg" viewBox="0 0 48 48"><title>surveymonkey</title><path d="M40.05,25.78a5.17,5.17,0,0,0-1.19.14A15.31,15.31,0,0,0,26.75,14.64L26,14.52h0a5,5,0,0,1,2.24-4.61l-.34-.85s-4.14,1.29-4.62,4.83c-.21-1-2.14-2.17-3.1-2.4l-.47.77a3.29,3.29,0,0,1,1.57,2.38h0A15.29,15.29,0,0,0,9.16,25.92,5.17,5.17,0,0,0,8,25.78,5,5,0,0,0,8,35.7a5.15,5.15,0,0,0,1.81-.34,15.35,15.35,0,0,0,1.61,3l4.12-2.77,0,0A10.13,10.13,0,0,1,13.61,30c-.12-2.26.43-4.51,1.87-5.83,3-2.54,6.22-1.38,8.25,1h.55c2-2.43,5.28-3.59,8.25-1,1.45,1.32,2,3.57,1.88,5.83a10.13,10.13,0,0,1-1.87,5.51l0,0,4.11,2.77a14.35,14.35,0,0,0,1.61-3,5.25,5.25,0,0,0,1.82.34,5,5,0,0,0,0-9.92ZM7.87,32.2a1.47,1.47,0,0,1,0-2.93,1.43,1.43,0,0,1,.82.26,22,22,0,0,0,.16,2.3A1.47,1.47,0,0,1,7.87,32.2Zm32.27,0a1.44,1.44,0,0,1-1-.37c.08-.76.14-1.53.15-2.3a1.46,1.46,0,1,1,.82,2.67Z" style="fill:#25b57b"/><path d="M40.05,25.78a5.17,5.17,0,0,0-1.19.14A15.31,15.31,0,0,0,26.75,14.64L26,14.52h0a5,5,0,0,1,2.24-4.61l-.34-.85s-4.14,1.29-4.62,4.83c-.21-1-2.14-2.17-3.1-2.4l-.47.77a3.29,3.29,0,0,1,1.57,2.38h0A15.29,15.29,0,0,0,9.16,25.92,5.17,5.17,0,0,0,8,25.78,5,5,0,0,0,8,35.7a5.15,5.15,0,0,0,1.81-.34,15.35,15.35,0,0,0,1.61,3l4.12-2.77,0,0A10.13,10.13,0,0,1,13.61,30c-.12-2.26.43-4.51,1.87-5.83,3-2.54,6.22-1.38,8.25,1h.55c2-2.43,5.28-3.59,8.25-1,1.45,1.32,2,3.57,1.88,5.83a10.13,10.13,0,0,1-1.87,5.51l0,0,4.11,2.77a14.35,14.35,0,0,0,1.61-3,5.25,5.25,0,0,0,1.82.34,5,5,0,0,0,0-9.92ZM7.87,32.2a1.47,1.47,0,0,1,0-2.93,1.43,1.43,0,0,1,.82.26,22,22,0,0,0,.16,2.3A1.47,1.47,0,0,1,7.87,32.2Zm32.27,0a1.44,1.44,0,0,1-1-.37c.08-.76.14-1.53.15-2.3a1.46,1.46,0,1,1,.82,2.67Z" style="fill:#25b57b"/></svg>