<svg id="CURRENT" xmlns="http://www.w3.org/2000/svg" viewBox="0 0 48 48"><title>sybaseiq</title><path d="M32.88,27.91V19.07h1.79v8.84Z" style="fill:#ffbf0e"/><path d="M43.24,26.79a5.57,5.57,0,0,0,1.43.75L44,28.8a4.14,4.14,0,0,1-.79-.33L42,27.68a4.65,4.65,0,0,1-1.93.38,4.21,4.21,0,0,1-3.19-1.2,4.66,4.66,0,0,1-1.16-3.37,4.67,4.67,0,0,1,1.16-3.37,4.17,4.17,0,0,1,3.15-1.2,4.13,4.13,0,0,1,3.12,1.2,4.71,4.71,0,0,1,1.15,3.37,6,6,0,0,1-.32,2A4.2,4.2,0,0,1,43.24,26.79Zm-1.44-1a2.74,2.74,0,0,0,.52-1,4.86,4.86,0,0,0,.17-1.32,3.35,3.35,0,0,0-.68-2.29A2.24,2.24,0,0,0,40,20.44a2.29,2.29,0,0,0-1.77.76,3.37,3.37,0,0,0-.68,2.29,3.44,3.44,0,0,0,.68,2.32,2.21,2.21,0,0,0,1.72.77,2,2,0,0,0,.73-.13,5.38,5.38,0,0,0-1.1-.55l.5-1A6.24,6.24,0,0,1,41.8,25.78Z" style="fill:#ffbf0e"/><g id="g2412"><g id="g2699"><g id="g2476"><path id="path2478" d="M4,30.65H18.58L32.89,16.34H4V30.65" style="fill:#009ee2"/></g><path id="path2482" d="M21.29,23.21h-.63V20.93h.63c.84,0,1.5.27,1.5,1.13s-.67,1.15-1.5,1.15m-6.73,1.63a2.57,2.57,0,0,1-.91-.16l.9-2.84h0l.88,2.85A2.61,2.61,0,0,1,14.56,24.84Zm6.56-5.77H18.28V25.8L15.8,19.07H13.34l-2.12,5.64C11,23.28,9.53,22.8,8.4,22.43c-.77-.24-1.57-.6-1.57-1s.43-.63,1.28-.59a4.59,4.59,0,0,1,2.08.56l1-1.69A7.64,7.64,0,0,0,8,19H8a3.88,3.88,0,0,0-2.83,1,2.43,2.43,0,0,0-.69,1.69,2.19,2.19,0,0,0,1,2,6.1,6.1,0,0,0,1.94.89c.78.24,1.42.45,1.41.91a.65.65,0,0,1-.18.44,1.22,1.22,0,0,1-.91.29,3.94,3.94,0,0,1-2.36-.67l-.84,1.74a6.57,6.57,0,0,0,3.21.84h.16a3.88,3.88,0,0,0,2.44-.84l.1-.08-.29.75h2.51L13,26.61a4.88,4.88,0,0,0,1.52.24A5,5,0,0,0,16,26.62l.42,1.3h4.21V25.16h.92c2.21,0,3.53-1.13,3.53-3,0-2.11-1.28-3.07-4-3.07" style="fill:#fff"/><g id="g2484"><path id="path2486" d="M22.65,29.68v-.33h.22c.11,0,.23,0,.23.16s-.12.17-.25.17Zm0,.14h.19l.28.46h.18L23,29.81a.28.28,0,0,0,.28-.26v0c0-.22-.13-.31-.37-.31h-.41v1.07h.16Zm.2.84a.93.93,0,1,0-.93-.93.93.93,0,0,0,.93.93Zm-.76-.94a.76.76,0,1,1,1.51-.15v.15a.77.77,0,0,1-.68.84.76.76,0,0,1-.83-.68.43.43,0,0,1,0-.16" style="fill:#009ee2"/></g></g></g></svg>