<svg xmlns="http://www.w3.org/2000/svg" viewBox="0 0 48 48"><title>sybase</title><path d="M11.38,4.66H22.81A15.13,15.13,0,0,0,11.38,16.24Z" style="fill:#161e69"/><path d="M35.1,4.66v6.22a9.35,9.35,0,0,0-6.3-6.22Z" style="fill:#161e69"/><path d="M26.54,13.18V5.74a7.81,7.81,0,0,1,7.39,7.44Zm0,.65h.94a2.7,2.7,0,0,0-.94.93Zm0,5.29h.94a2.7,2.7,0,0,1-.94-.93Zm3-5.29h4.35A4.86,4.86,0,0,1,29.58,18Zm-.71,1V18a1.55,1.55,0,0,1-1.39-1.49A1.78,1.78,0,0,1,28.87,14.84Zm-3.05,4.28H12.55c0-7,6.2-13.38,13.27-13.38Zm9.28,0H31.44a6.61,6.61,0,0,0,3.66-3.73Zm0,.62V41.49c-11.86.1-22.55-10-22.55-21.75Z" style="fill:#161e69"/><path d="M11.38,23.13C14.26,38.6,28.85,43.17,35,43H11.38Z" style="fill:#161e69"/></svg>