<svg xmlns="http://www.w3.org/2000/svg" viewBox="0 0 48 48"><defs><style>.cls-1{fill:#ed1c24;}</style></defs><title>icon-</title><g id="tally"><path class="cls-1" d="M17.27,24.7A11.33,11.33,0,0,0,19,22.81c.07-.12.31-.36.07-.61s-.49-.12-.8.07a15.22,15.22,0,0,0-2.07,1.52c-.49.36-1.71,1.46-1.71,1.46s-.68.55-.43.85.49.18.79.06a23.42,23.42,0,0,0,2.38-1.46Zm27.12,6.88c.18.06.61.18.61.6a5.28,5.28,0,0,1-.55.92,1.66,1.66,0,0,1-1.1-.19c-.61-.24-3.6-1-4.4-1.15s-2.56-.49-2.56-.49-.25-.12-.61.43S34.25,34,34.25,34a.32.32,0,0,1-.3.24A5,5,0,0,1,32.42,34c-.37-.18-.49-.18-.24-.55a17.12,17.12,0,0,1,1.4-2.31c.31-.31-.24-.24-.43-.31s-3.72-.24-4.76-.18-4.7,0-6.05.12-6.1.55-7.39.73-6.41.92-7.08,1.1-2.08.36-2.08.36a2.3,2.3,0,0,1-1.4-.12c-.67-.3-1.77-.73-.86-1s5.5-1.22,6.9-1.4,5.87-.85,7.7-.91,6.9-.37,8.79-.37,4.46.12,5.62.24a19.6,19.6,0,0,1,2.08.19c.24.06.24-.12.49-.37S36,28,36,28s.25-.37-.24-.07a1.37,1.37,0,0,1-1.53,0c-.36-.36-.49-.66-.67-.54a8.09,8.09,0,0,1-1.22.54,3.89,3.89,0,0,1-2.87-.12c-.92-.67-1-.91-1.1-1.21s-.18-.43-.49-.25-1.34.73-1.77.92a2,2,0,0,1-1.28.24,2.06,2.06,0,0,1-1.59-.73c-.25-.49-.31-.85-.61-.61a13.2,13.2,0,0,1-2.93,1.46,3.17,3.17,0,0,1-1.65.3,1.82,1.82,0,0,1-1.28-.6c-.19-.31-.25-.37-.49-.25a3,3,0,0,1-1.41.67,3.2,3.2,0,0,1-2.44-1.64,1.81,1.81,0,0,1,.43-2.5C13.49,23,14.59,22,14.59,22a18,18,0,0,1,1.83-1.21,4.87,4.87,0,0,1,1.71-.67,2.37,2.37,0,0,1,1.83.54A3.82,3.82,0,0,1,21.12,22,1.54,1.54,0,0,1,21,23.54c-.49.55-1.89,1.83-1.89,1.83s-.55.3-.31.67,1.16-.24,1.47-.43,1.89-1.58,2.38-2l3.85-3.77c.24-.3,2.8-2.8,3.17-3a1.24,1.24,0,0,1,1.22-.3,3.86,3.86,0,0,1,1.1.36s.73.3.12.73-2.5,2.07-3,2.56S27.23,22,26.8,22.51,25.15,24.64,25,24.88s-.31.61,0,.85.85,0,1.4-.48,2.26-1.89,2.81-2.5,3.79-3.59,4.09-3.89l1.78-1.4a.76.76,0,0,1,.61-.24,2.84,2.84,0,0,1,1.1.18l.73.36s.3.12-.18.49a39.06,39.06,0,0,0-3.85,3.22c-.74.8-2.14,2.38-2.69,3.05s-.92,1-.49,1.52a1,1,0,0,0,1.16.3,6.93,6.93,0,0,0,1.65-1.28c.61-.6,2.44-2.61,2.69-2.79a11.32,11.32,0,0,1,.91-.92.58.58,0,0,1,.55-.3,6.14,6.14,0,0,1,1,.12c.37.06,1.22.24.8.73s-1.65,1.7-1.9,2-1.22,1.4-1.4,1.7-.43.67-.18.85.91-.06,1.52-.42a11.28,11.28,0,0,0,2.32-1.65l2.08-1.88s.24-.49,1.16-.31l1.16.31s.73.18.24.61S42,24.94,41.4,25.49s-2.51,2.5-2.81,2.86-1.22,1.22-.86,1.28,3.18.55,3.79.73c.49.36,2.69,1.09,2.87,1.22ZM12.82,16.42a6.46,6.46,0,0,0-1.65,0,33.13,33.13,0,0,0-4.1.61c-.48.25-.91-.3-1.09-.48a8.49,8.49,0,0,1-.74-.73s-.24-.31.19-.43,3.23-.55,4.09-.67,5-.3,6.17-.3a49.21,49.21,0,0,1,6,.48s.18-.06.43.43a3.16,3.16,0,0,1,.18,1s.18.37-.49.31-1.95-.12-2.75-.19-2.68-.18-3-.18-.36,0-.49.25L14.46,18c-.18.24-1,1.27-1.64,2.19s-1.53,2.06-2.33,3.22-1.4,2.31-1.71,2.8a8,8,0,0,0-.48.91.46.46,0,0,1-.49.31c-.37,0-2-.06-2-.06s-.67.06-.24-.67S7,24.33,7.32,23.79,9.7,20.44,10.13,20s2.69-3.53,2.69-3.53Z"/><path d="M17,24.09A11,11,0,0,0,18.8,22.2c.06-.12.31-.36.06-.6s-.49-.13-.79.06A23,23,0,0,0,16,23.18c-.49.36-1.71,1.46-1.71,1.46s-.67.55-.43.85.49.18.8.06A22.73,22.73,0,0,0,17,24.09ZM15.44,13.81h-.3c-1.47,0-5,.24-5.81.3s-3.6.55-4.09.67-.24.43-.24.43a9.57,9.57,0,0,0,.73.73c.25.18.61.73,1.1.48a35,35,0,0,1,4.09-.6,5.79,5.79,0,0,1,1.65,0s-2.32,3-2.69,3.59S7.5,22.63,7.07,23.24,5.73,25.37,5.3,26.1s.31.67.31.67,1.59.06,1.95.06.37-.24.43-.37a7.15,7.15,0,0,1,.49-.91c.3-.49,1-1.58,1.71-2.8s1.65-2.37,2.32-3.28,1.47-1.95,1.65-2.19l1.1-1.46c.18-.25.24-.25.49-.25s2.2.12,3,.18,2,.13,2.75.19.49-.31.49-.31a1.61,1.61,0,0,0-.19-.91c-.24-.49-.42-.43-.42-.43a38.27,38.27,0,0,0-5.93-.48ZM44.15,31c.18.12.61.24.54.61,0,0-.36.85-.54.91a1.69,1.69,0,0,1-1.1-.18c-.61-.25-3.61-1-4.4-1.16l-2.51-.43s-.24-.12-.61.49S34,33.46,34,33.46a.33.33,0,0,1-.31.25,5,5,0,0,1-1.52-.25c-.37-.18-.49-.18-.25-.55a19,19,0,0,1,1.41-2.31c.36-.3-.19-.24-.37-.3s-3.73-.25-4.76-.18-4.71,0-6.05.12-6.17.54-7.39.73-6.41.91-7.08,1.09l-2.08.37a2.43,2.43,0,0,1-1.41-.12c-.67-.31-1.77-.73-.85-1s5.5-1.22,6.9-1.4S16.11,29,18,29s6.9-.37,8.79-.37,4.46.13,5.62.25a17.49,17.49,0,0,1,2.07.18c.25.06.25-.12.49-.36s.92-1.16.92-1.16.24-.31-.24-.06a1.3,1.3,0,0,1-1.53-.06c-.37-.37-.49-.61-.67-.55s-.86.43-1.22.55a3.58,3.58,0,0,1-2.81-.19c-.92-.6-1-.91-1.1-1.15s-.19-.31-.49-.12a12.75,12.75,0,0,1-1.77.91,2.53,2.53,0,0,1-1.29.3,2,2,0,0,1-1.58-.73c-.31-.48-.31-.85-.61-.6a13.52,13.52,0,0,1-2.94,1.46,4.93,4.93,0,0,1-1.77.12,2.11,2.11,0,0,1-1.28-.61c-.18-.31-.24-.37-.49-.18a2.41,2.41,0,0,1-1.4.6,3.41,3.41,0,0,1-2.51-1.64,1.71,1.71,0,0,1,.43-2.43,18.44,18.44,0,0,1,1.77-1.58s1.41-1,1.83-1.22a5.15,5.15,0,0,1,1.71-.67,2.65,2.65,0,0,1,1.84.55,4.56,4.56,0,0,1,1.16,1.34,1.54,1.54,0,0,1-.13,1.52c-.48.54-1.83,1.82-1.83,1.82s-.55.31-.3.73,1.16-.24,1.4-.48,1.9-1.59,2.38-2,3.55-3.47,3.85-3.71a39.53,39.53,0,0,1,3.24-3.05,1.26,1.26,0,0,1,1.22-.3,3.86,3.86,0,0,1,1.1.36s.73.31.12.73-2.5,2.07-3,2.56-1.89,1.89-2.32,2.37a25.24,25.24,0,0,0-1.9,2.32c-.18.3-.3.6,0,.85s.86,0,1.41-.49,2.26-1.89,2.81-2.49,3.78-3.59,4.09-3.84S34.8,17,34.8,17a.76.76,0,0,1,.61-.24,2.77,2.77,0,0,1,1.1.18l.73.37s.31.12-.18.48S33.89,20.2,33.15,21,31,23.36,30.47,24s-.92,1.1-.49,1.52a1,1,0,0,0,1.16.31,5.73,5.73,0,0,0,1.65-1.28c.61-.61,2.44-2.56,2.68-2.8s.92-.91.92-.91a.56.56,0,0,1,.55-.31,6.14,6.14,0,0,1,1,.12c.36.13,1.22.25.79.73s-1.65,1.65-1.89,1.95-1.22,1.4-1.41,1.7-.42.67-.18.86.92-.06,1.53-.43a11.23,11.23,0,0,0,2.38-1.64L41.27,22s.19-.49,1.17-.3a6,6,0,0,1,1.16.3s.73.18.24.61S41.76,24.4,41.15,25s-2.5,2.5-2.81,2.86-1.22,1.22-.85,1.28,3.17.61,3.78.79l2.88,1Z"/></g></svg>