<svg id="Layer_1" data-name="Layer 1" xmlns="http://www.w3.org/2000/svg" viewBox="0 0 48 48"><defs><style>.cls-1{fill:#1d1c39;}.cls-2{fill:#fff;}.cls-3{fill:#fa22af;}</style></defs><title>teamwork</title><circle class="cls-1" cx="24" cy="24" r="18"/><path class="cls-2" d="M16.84,16.35a1.92,1.92,0,0,1,.87-1.57l.06,0A1.8,1.8,0,0,1,20.57,16c.11.74.11,1.48.16,2.31h2.42c.9,0,1.5.4,1.57,1.38s-.27,1.63-1.34,1.77c-.84.1-1.7.09-2.61.14a4.36,4.36,0,0,0-.11.68c0,2.09,0,4.17,0,6.25,0,1.43.51,1.8,1.86,1.39a1.21,1.21,0,0,1,1.67.71,1.57,1.57,0,0,1-.47,2.1,4.41,4.41,0,0,1-2.44.84,4.32,4.32,0,0,1-4.39-4.35C16.86,25.66,16.79,18.89,16.84,16.35Z"/><circle class="cls-3" cx="28.67" cy="29.14" r="2.51"/></svg>