<svg id="Layer_1" data-name="Layer 1" xmlns="http://www.w3.org/2000/svg" viewBox="0 0 48 48">
  <title>teamgate</title>
  <path d="M36.23,42.87H12.34A6.41,6.41,0,0,1,5.9,36.44V12.55a6.41,6.41,0,0,1,6.44-6.44H36.23a6.41,6.41,0,0,1,6.44,6.44V36.44A6.41,6.41,0,0,1,36.23,42.87Z" style="fill: #44b8c8"/>
  <path d="M17.63,35.72A6.57,6.57,0,0,0,22.5,38a6.41,6.41,0,0,0,6.43-6.44V20.84a1.13,1.13,0,0,0-1.14-1.14,1.24,1.24,0,0,0-1.15,1.14v5.3a.61.61,0,0,1-.57.57.62.62,0,0,1-.57-.57V16.7a1.13,1.13,0,0,0-1.14-1.15,1.23,1.23,0,0,0-1.15,1.15v8.44a.57.57,0,0,1-1.14,0V15.27a1.14,1.14,0,0,0-1.15-1.15,1.23,1.23,0,0,0-1.14,1.15v9.87a.58.58,0,0,1-1.15,0V16.7a1.14,1.14,0,1,0-2.28,0v8.86l4.29,5.15a.5.5,0,0,0,.43.15.49.49,0,0,0,.42-.15L22.93,29a1.32,1.32,0,0,1,2,1.71l-3.29,3.87a1.12,1.12,0,0,1-.57.28,1.12,1.12,0,0,1-.58-.28L13.34,26a1.32,1.32,0,1,0-2,1.72l6.29,8Zm13.31-3.15a8.91,8.91,0,0,1-1.15,1.15,8.09,8.09,0,0,0,.29-2V13.55a1.15,1.15,0,1,1,2.29,0v13l3.14-3.72a1.32,1.32,0,1,1,2,1.71l-6.58,8ZM23.07,14.84V13.55a1.15,1.15,0,1,1,2.29,0v1.29a1.54,1.54,0,0,0-1.15-.29,1.51,1.51,0,0,0-1.14.29ZM26.5,19V12a1.15,1.15,0,0,1,2.29,0v7a1.56,1.56,0,0,0-1.14-.28A2,2,0,0,0,26.5,19Z" style="fill: #fff"/>
</svg>
