<svg id="Layer_1" data-name="Layer 1" xmlns="http://www.w3.org/2000/svg" viewBox="0 0 48 48"><defs><style>.cls-1{fill:#2e9f4b;}</style></defs><title>threedcart</title><path class="cls-1" d="M23.67,8.07A16.48,16.48,0,1,1,7.19,24.54,16.49,16.49,0,0,1,23.67,8.07m0-1.53a18,18,0,1,0,18,18,18,18,0,0,0-18-18Z"/><path class="cls-1" d="M19.38,31.87a.16.16,0,1,1,0,.32.16.16,0,0,1,0-.32m0-1.52A1.68,1.68,0,1,0,21.07,32a1.68,1.68,0,0,0-1.69-1.68Z"/><path class="cls-1" d="M28.89,31.87a.16.16,0,1,1-.16.16.16.16,0,0,1,.16-.16m0-1.52A1.68,1.68,0,1,0,30.57,32a1.68,1.68,0,0,0-1.68-1.68Z"/><path class="cls-1" d="M17.32,29H30.59a.74.74,0,0,0,.73-.62l1.3-8.24a.73.73,0,0,0-.71-.85L17,18.93a.71.71,0,0,1-.5-.21L14.54,16.8a.75.75,0,0,0-1,0h0a.74.74,0,0,0-.11,1l1.83,2.47a.68.68,0,0,1,.13.33l1.21,7.76A.74.74,0,0,0,17.32,29Z"/></svg>