<svg xmlns="http://www.w3.org/2000/svg" viewBox="0 0 48 48">
  <title>timeneye</title>
  <g id="Salesforce_Pardot" data-name="Salesforce Pardot">
    <g id="I1j6rF">
      <g>
        <path d="M24.85,6c.33,0,.66.09,1,.12a16.35,16.35,0,0,1,5.44,1.43A17.82,17.82,0,0,1,41.06,18.2a14.24,14.24,0,0,1,.81,3.7A23.3,23.3,0,0,1,42,25a17.59,17.59,0,0,1-3.43,9.58,17.79,17.79,0,0,1-6.43,5.47,17.39,17.39,0,0,1-5,1.66,18.65,18.65,0,0,1-3.65.28A18.08,18.08,0,0,1,8,32.16,18.48,18.48,0,0,1,6.31,27.3,17.22,17.22,0,0,1,6,23,18.1,18.1,0,0,1,15,8.42a1.36,1.36,0,0,1,1.27-.26A1.08,1.08,0,0,1,17,9a1,1,0,0,1-.4,1.09c-.68.46-1.4.86-2,1.36a15.53,15.53,0,0,0-5.84,9.06,14.33,14.33,0,0,0-.38,2.92,15.39,15.39,0,0,0,3.48,10.44,15.58,15.58,0,0,0,8.8,5.49,14.66,14.66,0,0,0,4.28.36A15.83,15.83,0,0,0,39.26,27.88a14.8,14.8,0,0,0,.47-3.18,15.27,15.27,0,0,0-2-8.49,15.49,15.49,0,0,0-9.74-7.45,25.93,25.93,0,0,0-2.64-.43c-.35-.05-.72,0-1.07-.07A1.14,1.14,0,0,1,24.09,6a.33.33,0,0,0,.1-.06Z" style="fill: #465373"/>
        <path d="M37.55,24a12.93,12.93,0,0,1-.42,3.4,1.13,1.13,0,0,1-1.4.85,1.17,1.17,0,0,1-.8-1.4A16.77,16.77,0,0,0,35.3,24a11.28,11.28,0,0,0-9.47-11.18,9.09,9.09,0,0,0-1.28-.12,1.15,1.15,0,0,1-1.14-1.21,1.13,1.13,0,0,1,1.21-1.06A13.53,13.53,0,0,1,37.24,21.14c.21.93.27,1.89.39,2.84Z" style="fill: #465373;opacity: 0.8"/>
        <path d="M31.88,19.73a1.2,1.2,0,0,1-.8,1.09,1.11,1.11,0,0,1-1.29-.46,6.94,6.94,0,0,0-2.29-2.22,6.46,6.46,0,0,0-2.76-.92,1.12,1.12,0,0,1-1.15-.91A1.09,1.09,0,0,1,24.75,15a9,9,0,0,1,6.91,4.18A2.68,2.68,0,0,1,31.88,19.73Z" style="fill: #465373;opacity: 0.6"/>
      </g>
    </g>
  </g>
</svg>
