<svg id="CURRENT" xmlns="http://www.w3.org/2000/svg" viewBox="0 0 48 48">
  <title>tsheets</title>
  <g>
    <path d="M22.86,6A18,18,0,1,0,42,24,18.06,18.06,0,0,0,22.86,6Z" style="fill: #c23522"/>
    <path d="M35.8,19.91a2.38,2.38,0,0,1-1.81.71H26.53V32.3a2.41,2.41,0,0,1-.72,1.82,2.57,2.57,0,0,1-1.77.67,2.49,2.49,0,0,1-1.73-.63,2.38,2.38,0,0,1-.72-1.81V20.67H14.13A2.38,2.38,0,0,1,12.32,20a2.51,2.51,0,0,1-.68-1.77,2.41,2.41,0,0,1,.68-1.77,2.35,2.35,0,0,1,1.81-.72H34a2.35,2.35,0,0,1,1.81.72,2.68,2.68,0,0,1,0,3.5Z" style="fill: #f3f3f5"/>
  </g>
</svg>
