<svg id="c0d17651-fb33-47f5-938d-758247eb3199" data-name="Icons" xmlns="http://www.w3.org/2000/svg" viewBox="0 0 108 72">
  <defs>
    <style>
      .\36 63ac3b1-8c34-4e50-bfa2-781b5d7e2065 {
        fill: none;
        stroke: #262627;
        stroke-width: 0.34px;
      }

      .\35 5f34ff6-0770-42f1-be4b-de0aa6f2feb5 {
        fill: #262627;
      }
    </style>
  </defs>
  <title>typeform</title>
  <g>
    <path class="663ac3b1-8c34-4e50-bfa2-781b5d7e2065" d="M31.4,61c8.16.35,17.22,1.07,22.34-4.74S57.36,40.05,57,31.86s-.32-11.76-5.14-16.58-11.16-7.49-19-7.52-14.32,2.05-20,7.39A25,25,0,0,0,4.37,34.47a27.48,27.48,0,0,0,8.55,20C18.32,59.74,23.23,60.59,31.4,61Z"/>
    <g>
      <polygon class="55f34ff6-0770-42f1-be4b-de0aa6f2feb5" points="30.64 29.52 30.64 27.86 39.42 27.86 39.42 29.52 35.9 29.52 35.9 39 34.15 39 34.15 29.52 30.64 29.52"/>
      <polygon class="55f34ff6-0770-42f1-be4b-de0aa6f2feb5" points="48.82 30.98 46.9 30.98 44.17 36.86 41.59 30.98 39.68 30.98 43.18 38.97 41.66 42.25 43.59 42.25 48.82 30.98"/>
      <path class="55f34ff6-0770-42f1-be4b-de0aa6f2feb5" d="M56,35a3,3,0,0,0-.57-1.94A1.8,1.8,0,0,0,54,32.32a1.78,1.78,0,0,0-1.48.73A3,3,0,0,0,51.91,35a3.09,3.09,0,0,0,.58,2,1.81,1.81,0,0,0,1.48.71A1.84,1.84,0,0,0,55.45,37,3.15,3.15,0,0,0,56,35m-1.86,4.14a2.66,2.66,0,0,1-2.15-1v4.14H50.35V31H52v.92a2.68,2.68,0,0,1,2.18-1c2.34,0,3.58,1.53,3.58,4.14s-1.26,4.14-3.61,4.14Z"/>
      <path class="55f34ff6-0770-42f1-be4b-de0aa6f2feb5" d="M61,34.07h3.9A1.87,1.87,0,0,0,63,32.32,2,2,0,0,0,61,34.07Zm5.65,1.38H61a2,2,0,0,0,2,2.21,2.32,2.32,0,0,0,2.1-1.35l1.42.56A3.52,3.52,0,0,1,63,39.13c-2.64,0-3.74-2.23-3.74-4.14s1.1-4.14,3.74-4.14a3.66,3.66,0,0,1,3.69,3.88v.71Z"/>
      <path class="55f34ff6-0770-42f1-be4b-de0aa6f2feb5" d="M68,32.44V31h1v-.41c0-1.9,1-2.84,2.69-2.84A2.84,2.84,0,0,1,73,28l-.34,1.4a2.1,2.1,0,0,0-.94-.22c-.71,0-1.08.41-1.08,1.25V31h1.77v1.46H70.68V39H69V32.44H68Z"/>
      <path class="55f34ff6-0770-42f1-be4b-de0aa6f2feb5" d="M75.29,35a3.14,3.14,0,0,0,.57,1.89,1.92,1.92,0,0,0,1.63.78,1.88,1.88,0,0,0,1.61-.78,3.35,3.35,0,0,0,0-3.77,1.91,1.91,0,0,0-1.61-.79,2,2,0,0,0-1.63.79A3.2,3.2,0,0,0,75.29,35m-1.75,0a4.26,4.26,0,0,1,1.07-2.94,4,4,0,0,1,5.75,0,4.54,4.54,0,0,1,0,5.88,4,4,0,0,1-5.75,0A4.25,4.25,0,0,1,73.55,35Z"/>
      <path class="55f34ff6-0770-42f1-be4b-de0aa6f2feb5" d="M84.66,39H83V31h1.65v1.34A2.8,2.8,0,0,1,87,30.85a2.85,2.85,0,0,1,1,.19l-.29,1.52a1.73,1.73,0,0,0-.94-.25,1.83,1.83,0,0,0-1.53,1A4.87,4.87,0,0,0,84.66,36v3Z"/>
      <path class="55f34ff6-0770-42f1-be4b-de0aa6f2feb5" d="M89.75,31h1.66v1.37a2.83,2.83,0,0,1,2.42-1.5A2.19,2.19,0,0,1,96,32.51a2.81,2.81,0,0,1,2.5-1.66,2.18,2.18,0,0,1,2.29,2.41V39H99.18V33.62A1.14,1.14,0,0,0,98,32.32c-1,0-1.87,1.35-1.87,3.47V39H94.47V33.62a1.14,1.14,0,0,0-1.18-1.3c-1.06,0-1.87,1.35-1.87,3.64v3H89.76V31Z"/>
    </g>
  </g>
</svg>
