<svg id="Layer_1" data-name="Layer 1" xmlns="http://www.w3.org/2000/svg" viewBox="0 0 48 48"><title>unbounce</title><g id="Symbol"><path d="M23.8,4.67a18.5,18.5,0,1,0,18.5,18.5A18.49,18.49,0,0,0,23.8,4.67Zm-.66,25.76-1.36,4a1,1,0,0,1-.17.35,1.64,1.64,0,0,1-2,.73,1.74,1.74,0,0,1-1.15-1.81A11.86,11.86,0,0,1,26.1,11.52a1.75,1.75,0,0,1,2-.73,1.7,1.7,0,0,1,.94.76,1.78,1.78,0,0,1,.24,1,1.17,1.17,0,0,1-.07.38l-1.35,4ZM24.63,35l1.64-4.94a7.27,7.27,0,0,0,4.83-6.88,7.13,7.13,0,0,0-1.25-4.07l1.64-4.94A11.84,11.84,0,0,1,24.63,35Z" style="fill:#303030"/><path d="M16.5,23.17a7.35,7.35,0,0,0,3.37,6.15L24.46,15.9a3.66,3.66,0,0,0-.66,0A7.3,7.3,0,0,0,16.5,23.17Z" style="fill:#303030"/></g></svg>