<svg xmlns="http://www.w3.org/2000/svg" viewBox="0 0 48 48"><title>ups</title><path d="M34,41.64v1.65h.3V42.6h0l.45.69h.36l-.5-.73a.44.44,0,0,0,.37-.44c0-.23-.14-.48-.55-.48Zm.43.24c.26,0,.29.12.29.23s-.06.26-.38.26h0v-.49Zm1.18.59a1.13,1.13,0,1,1-1.13-1.13,1.13,1.13,0,0,1,1.13,1.13M34.5,41.1a1.37,1.37,0,1,0,1.37,1.37A1.37,1.37,0,0,0,34.5,41.1M23.65,43.83c-1-.44-9.21-4-11.87-6.2A12.11,12.11,0,0,1,7.41,27.9V8.78a34.45,34.45,0,0,1,16.24-3.6,34.39,34.39,0,0,1,16.24,3.6V27.9a12.11,12.11,0,0,1-4.37,9.73c-2.61,2.14-10.91,5.78-11.87,6.2" style="fill:#febe10"/><path d="M8.91,27.9a10.64,10.64,0,0,0,3.82,8.58c2.21,1.8,9,4.87,10.92,5.72,1.89-.83,8.68-3.87,10.93-5.72A10.61,10.61,0,0,0,38.4,27.9V9.19C29,8.31,17.76,8.85,8.91,17Zm1.44-1.14V17.88h2.82v9c0,.8.2,2,1.49,2A2.4,2.4,0,0,0,16,28.53V17.88h2.82V30.14a7.55,7.55,0,0,1-4.26,1.13c-2.79,0-4.21-1.51-4.21-4.51M23.09,37H20.27V18.6a6.81,6.81,0,0,1,3.81-1c3.37,0,5.22,2.56,5.22,6.67s-1.8,7-4.93,7a4.28,4.28,0,0,1-1.28-.17Zm0-16.93a2.36,2.36,0,0,1,1-.21c1.64,0,2.32,1.31,2.32,4.48s-.77,4.58-2.4,4.58a2.9,2.9,0,0,1-.92-.17Zm6.85,1.2a3.75,3.75,0,0,1,3.79-3.68,4.83,4.83,0,0,1,3.1.91V21a3.8,3.8,0,0,0-2.53-1.16c-.8,0-1.63.35-1.66,1.35s.8,1.43,1.86,2.05c2.36,1.39,2.81,2.64,2.76,4.28a3.82,3.82,0,0,1-4.09,3.78,6.28,6.28,0,0,1-3.11-.87V27.8A4.56,4.56,0,0,0,32.76,29a1.51,1.51,0,0,0,1.7-1.58c0-.89-.52-1.37-1.77-2.1-2.33-1.37-2.74-2.49-2.75-4" style="fill:#371400"/><rect x="3.57" y="3.72" width="38.86" height="45.34" style="fill:none"/></svg>