<svg data-name="Icons" xmlns="http://www.w3.org/2000/svg" viewBox="0 0 108 72"><path d="M6.2 26s3.15.75 4.71 1.07 3.16.63 4.74 1 3.44.69 5.16 1a8.75 8.75 0 0 1 2.09.58 3.71 3.71 0 0 0 1.68.63c1.25.05 2.58 0 2.46 1.64A3.38 3.38 0 0 1 25 35c-3.17 1.19-6.31 2.48-9.47 3.71C11.89 40.13 8.15 41.42 4.6 43c6.87 0 13.74-.05 20.61 0 .52 0 1.27.15 1.55-.39a8.23 8.23 0 0 0 .36-1.93l1-4.7L30.21 26H6.2z" fill="#004c82"/><path fill="#004c82" d="M22.65 31.57l-.13.04-.85.17h-.21l-.17.04h-.17l-.26.04-.12.05-.09.04-.04.09v.08l.09.08h.16l.18.05h.42l.25-.05h.26l.6-.08h.29l.34-.04.3-.04.26-.05.29-.04h1.15l.13.04.08.05.09.12v.17l-.05.17-.04.22-.08.25-.13.3-.09.3-.04.16.09.09.08-.04.17-.17.09-.13.13-.21.12-.26.13-.29.13-.26.08-.26.05-.21v-.25l-.09-.22-.13-.12-.17-.13-.21-.09-.25-.04-.3-.04H23.2l-.04.04h-.04l-.09.04-.08.18-.09.04-.08.08-.13.09z"/><path d="M5.39 29.91l-2.8 13c2.16-.89 4.24-2.11 6.35-3.13s4.2-2.11 6.31-3.12a36.29 36.29 0 0 1 6.67-2.52c.36-.09 2.66-.46 2.62-.75-.08-.63-2.64 0-3 0a28.66 28.66 0 0 0-3.83 1.17A18.55 18.55 0 0 0 14.23 36l-1.61-5H22c.44 0 1.46 0 .56-.52-1.12-.67-2.95-.58-4.21-.59h-6.77z" fill="#004c82"/><path fill="#ea4156" d="M104.31 34.85H32.3l.1-1.08h72.01l-.1 1.08z"/><path d="M35.57 32.46h-.55l-.55-.13-.47-.17-.38-.25-.26-.3-.17-.38v-.94l.22-.93.16-.85.18-.73.12-.59.09-.51.08-.38.05-.21V26h1.4v.17l-.09.43-.17.63-.13.72-.17.73-.21 1.06v1.06l.08.21.17.18.21.12.3.09h1.02l.3-.13.2-.27.17-.21.17-.25.26-.68v-.34l.13-.51.13-.64.14-.67.17-.64.09-.55.08-.38.05-.13h1.4l-.26 1.23-.12.64-.09.21v.34l-.13.64-.3 1.23v.26l-.13.25-.08.22-.13.21-.17.21-.34.34-.21.13-.26.13-.21.12-.25.09h-.26l-.26.08-.59.09zM100.94 27h-2l-.34.08-.26.18v.55l.13.17.13.21.38.38.25.17.22.17.25.22.43.42.17.21.25.51v.56l-.08.29-.13.3-.21.26-.3.21-.34.17-.43.13-.55.08h-2.8l.25-1h2.68l.13-.09.13-.18.1-.2v-.34l-.26-.34-.42-.34-.43-.38-.52-.4-.37-.49-.27-.51v-.55l.08-.3.17-.34.17-.25.3-.22.38-.17.38-.12.51-.09h2.47l-.21 1zM96 27h-3.18l-.38 1.66h2.8l-.21.89h-2.81l-.34 1.74h3.19l-.21 1h-4.59L91.63 26h4.59L96 27zm-5.53 0h-2l-1.15 5.31H86L87.12 27h-2l.25-1h5.31l-.21 1zm-9.77 5.31l.55-1h2l-.56-4-2.8 5H78.5L82.15 26h1.66l1 6.33zM80.45 27h-2l-1.15 5.31h-1.36L77.09 27h-2l.25-1h5.31l-.21 1zm-6.08 0h-2.38l-.13.09-.17.17v.47l.09.17.17.21.38.38.21.17.26.17.63.64.17.21.17.26.09.25v.55l-.08.3-.13.3-.26.25-.25.22-.38.17-.43.13-.51.08h-2.63l.21-1h2.72l.13-.09.13-.17v-.51l-.26-.34-.38-.34-.43-.38-.46-.36-.39-.47-.25-.53v-.55l.09-.3.13-.34.21-.25.3-.22.34-.17.42-.12.51-.09h2.47l-.26 1zm-12.83 2.15l-.64 3.18h3.53l.59-.17.34-.13.3-.17.51-.34.51-.51.43-.59.17-.34.12-.34.09-.39v-.42l.09-.59v-.56l-.13-.46-.22-.43-.33-.38-.43-.26L66 26h-3.74l-.68 3.15zm4.63 0v.21l-.13.25-.08.22-.09.25-.13.17-.17.21-.34.34-.42.26-.21.08-.26.09-.51.08h-1.31l.42-2.17.47-2.14h1.83l.33.13.26.17.21.25.13.26.08.34v.68l-.08.25zM61 27h-3.16l-.38 1.66h2.76l-.17.89h-2.8l-.34 1.74h3.14l-.17 1h-4.59L56.65 26h4.55l-.2 1zm-5.5 0h-2l-1.15 5.31H51L52.15 27h-2l.21-1h5.31l-.17 1zm-7.43 5.31h-1.36L48 26h1.4l-1.35 6.33zm-2.72 0H43.6L42 27.62l-1 4.71h-1.22L41.14 26h1.78l1.53 4.76 1-4.76h1.28l-1.36 6.33zM33.7 40.49H33l-.08-.89h.93l.51-.17.17-.17.26-.35.08-.17v-.84l-.08-.13-.26-.17H33.1L32 42.87h-1.45l1.37-6.33h3.47l.34.17.27.29.17.29.08.3.05.34v.34l-.05.3-.13.42-.21.39-.25.33-.34.3-.32.19-.85.25h-.47zm70-2.93h-3.23l-.34 1.66h2.8l-.21.93h-2.85l-.34 1.75h3.19l-.21 1h-4.59l1.36-6.33h4.59l-.21 1zm-5.7.09h-.29l-.34-.08h-1.32l-.43.12-.42.17-.38.3-.3.3-.3.38-.17.47-.17.51-.08.51v.46l.12.39.18.29.25.26.34.21.38.13h1.15l.43-.08h.55l-.34 1.06h-.38l-.17.05h-.22L96 43h-1l-.68-.09-.3-.08-.3-.13-.25-.12-.26-.17-.21-.18-.22-.23-.13-.25-.13-.3-.13-.25v-1.49l.13-.39.13-.42.34-.68.21-.3.51-.51.3-.21.6-.34.68-.26.34-.08h2.54L98 37.65zm-7 5.22h-1.4l1.4-6.33h1.4L91 42.87zm-4.5 0h-1.67l-.94-6.33h1.41l.63 5.1 2.81-5.1h1.36l-3.61 6.33zm-5.15-2.72l1 2.72h-1.52l-1.14-3.44h1.06l.25-.13.21-.12.18-.13.17-.17.08-.22.09-.25v-.34l-.09-.25-.08-.09-.17-.08-.39-.09h-1.27l-1.15 5.31h-1.4l1.36-6.33h3.35l.39.09.3.13.21.17.17.21.13.3v1.1L83 39l-.17.34-.21.26-.26.25L82 40l-.3.13h-.34zm-4-2.59h-3.23l-.34 1.66h2.76l-.17.93h-2.8l-.34 1.75h3.18l-.21 1h-4.63l1.36-6.33h4.59l-.21 1zm-5.79 0h-1.82l-.42.09h-.17l-.09.08-.13.09-.08.17v.38l.09.17.17.17.17.21.21.17.21.22.25.17.22.21.25.17.17.25.17.21.17.26.09.21v.56l-.08.34-.13.25-.51.51-.34.17-.47.13-.51.08H66.3l.21-1h2.55l.17-.08.13-.09.13-.12.08-.17-.08-.37-.26-.33-.38-.39-.43-.38-.42-.34-.39-.47-.25-.51v-.51l.08-.34.13-.3.21-.25L68 37l.34-.17.42-.13.51-.09h2.47l-.22 1zM64 42.87h-4.33L61 36.54h1.44l-1.16 5.36h2.89l-.21 1zm-9.09 0l.55-1h2l-.6-4.08-2.76 5h-1.4l3.61-6.33H58l1 6.33zm-.26-5.31h-2l-1.15 5.31h-1.4l1.15-5.31h-2l.22-1h5.31l-.17 1zm-6.08 0h-1.82l-.43.09h-.13l-.12.08-.17.17v.47l.25.34.17.21.22.17.21.22.25.17.26.21.21.17.17.25.21.21.13.26.09.21.08.3v.26l-.09.34-.13.25-.21.25-.25.26-.39.17-.46.13-.51.08h-2.76l.17-1h2.55l.34-.17.08-.12.09-.17v-.35l-.26-.33-.38-.39-.47-.38-.47-.36-.39-.47-.25-.51-.09-.51.09-.34.17-.3.21-.25L45 37l.34-.17.46-.13.51-.09h2.43l-.22 1zm-11.85 2.17l-.09.68.13.89.26.51.16.26.39.38.25.17.26.13.3.12.33.09h1.07l.68-.09.34-.08.34-.13.3-.12.25-.17.3-.18.25-.21.21-.25.26-.26.17-.29.34-.68.13-.39.08-.42.09-.34v-.64l-.05-.34v-.3l-.25-.51-.34-.42-.26-.14-.25-.17-.26-.13-.34-.13-.29-.08h-1.07l-.68.08-.33.08-.35.13-.29.13-.26.17-.3.21-.25.17-.25.26-.22.3-.21.25-.17.34-.13.34-.13.42-.12.39zm5.31 0l-.13.51-.21.47-.21.38-.3.3-.34.25-.38.21-.38.13h-.94l-.34-.17-.3-.21-.21-.3-.13-.3-.08-.42v-.43l.08-.42.13-.51.21-.47.21-.38.3-.3.34-.3.38-.17.39-.12h.47l.42.09.38.08.3.26.21.25.13.34.09.38v.43l-.09.47z"/></svg>
