<svg width="48" height="48" viewBox="0 0 48 48" fill="none" xmlns="http://www.w3.org/2000/svg">
<g clip-path="url(#clip0_1798_278)">
<path d="M6 19.5614C6.37838 19.5614 6.75676 19.5614 7.14661 19.5614C7.35713 19.9614 7.35713 19.9614 7.45183 20.1512C7.4588 20.1652 7.46577 20.1791 7.47295 20.1935C7.48016 20.2079 7.48737 20.2224 7.49479 20.2372C7.51045 20.2685 7.52611 20.2998 7.54178 20.3311C7.58374 20.415 7.62566 20.4988 7.66756 20.5827C7.71183 20.6713 7.75612 20.7598 7.80042 20.8484C7.87477 20.997 7.9491 21.1457 8.02341 21.2945C8.10876 21.4653 8.19416 21.636 8.27959 21.8068C8.35349 21.9545 8.42737 22.1022 8.50121 22.25C8.54508 22.3377 8.58895 22.4255 8.63284 22.5132C8.96483 23.1768 8.96483 23.1768 9.11032 23.4848C9.16361 23.5976 9.21956 23.7091 9.27604 23.8203C9.32267 23.7623 9.35553 23.7021 9.38865 23.6356C9.39416 23.6246 9.39967 23.6136 9.40534 23.6022C9.41706 23.5787 9.42875 23.5552 9.4404 23.5317C9.45741 23.4974 9.47453 23.4631 9.49167 23.4288C9.55277 23.3062 9.61255 23.1831 9.67132 23.0593C9.75756 22.8779 9.84577 22.6975 9.93579 22.5178C9.94152 22.5064 9.94724 22.495 9.95314 22.4832C10.0002 22.3892 10.0475 22.2953 10.0947 22.2014C10.1358 22.1196 10.1769 22.0378 10.2179 21.9559C10.2265 21.9387 10.2265 21.9387 10.2353 21.9212C10.3081 21.7757 10.3797 21.6297 10.4494 21.4827C10.5263 21.3205 10.6056 21.1597 10.686 20.9992C10.6919 20.9874 10.6979 20.9756 10.704 20.9634C10.7528 20.866 10.8017 20.7686 10.8506 20.6713C10.8932 20.5865 10.9358 20.5017 10.9783 20.4168C10.9871 20.3993 10.9871 20.3993 10.9961 20.3813C11.0828 20.2084 11.1675 20.0348 11.2496 19.8597C11.2569 19.8443 11.2642 19.8289 11.2717 19.813C11.2778 19.7999 11.2839 19.7868 11.2902 19.7733C11.3264 19.7015 11.3664 19.6317 11.4055 19.5614C11.7778 19.5614 12.1502 19.5614 12.5339 19.5614C12.5105 19.6315 12.4905 19.689 12.4581 19.7532C12.4504 19.7686 12.4426 19.784 12.4347 19.7999C12.4263 19.8163 12.418 19.8328 12.4094 19.8497C12.4006 19.8672 12.3919 19.8846 12.3828 19.9026C12.3548 19.9584 12.3266 20.0141 12.2984 20.0699C12.2618 20.1425 12.2252 20.215 12.1887 20.2877C12.1796 20.3059 12.1704 20.3241 12.161 20.3428C12.0898 20.485 12.021 20.6281 11.9528 20.7717C11.8721 20.941 11.7883 21.1087 11.7039 21.2763C11.5857 21.5112 11.4678 21.7461 11.3558 21.984C11.2609 22.1841 11.1605 22.3815 11.0612 22.5794C10.9268 22.8473 10.9268 22.8473 10.7969 23.1173C10.7 23.3231 10.5974 23.526 10.4954 23.7293C10.3427 24.0329 10.3427 24.0329 10.1951 24.339C10.0901 24.5621 9.97853 24.7819 9.86797 25.0023C9.76336 25.2108 9.65947 25.4195 9.55979 25.6305C9.47431 25.8112 9.38432 25.9897 9.29424 26.1681C9.23964 26.1499 9.23964 26.1499 9.21983 26.1189C9.21054 26.0985 9.21054 26.0985 9.20107 26.0777C9.19377 26.062 9.18647 26.0462 9.17895 26.03C9.17101 26.0125 9.16307 25.995 9.15489 25.977C9.13693 25.9384 9.11892 25.8999 9.10086 25.8614C9.09104 25.8404 9.08122 25.8195 9.07111 25.7979C9.01461 25.6784 8.95487 25.5605 8.89554 25.4424C8.88273 25.4168 8.86992 25.3913 8.85711 25.3657C8.81782 25.2873 8.77848 25.209 8.73913 25.1307C8.68695 25.0268 8.63479 24.9229 8.58272 24.819C8.57637 24.8063 8.57002 24.7937 8.56348 24.7806C8.48727 24.6284 8.41216 24.4758 8.33929 24.3219C8.25866 24.1517 8.17513 23.983 8.09075 23.8146C8.08421 23.8015 8.07767 23.7885 8.07094 23.775C8.02375 23.6809 7.97649 23.5868 7.92922 23.4927C7.87533 23.3854 7.82147 23.2781 7.76769 23.1708C7.76115 23.1577 7.75461 23.1446 7.74786 23.1312C7.66204 22.9598 7.57799 22.7877 7.49594 22.6144C7.42446 22.4641 7.35029 22.3152 7.27572 22.1663C7.26938 22.1537 7.26304 22.141 7.25651 22.128C7.21083 22.0369 7.16508 21.9458 7.11931 21.8547C7.06713 21.7508 7.01498 21.6469 6.9629 21.543C6.95655 21.5303 6.9502 21.5176 6.94366 21.5046C6.86748 21.3524 6.79243 21.1999 6.71962 21.0461C6.63828 20.8743 6.55379 20.7042 6.46851 20.5344C6.46195 20.5213 6.45538 20.5082 6.44862 20.4947C6.38756 20.3731 6.32641 20.2515 6.26518 20.1299C6.23126 20.0626 6.1974 19.9952 6.16359 19.9278C6.15084 19.9024 6.13805 19.877 6.12524 19.8516C6.1075 19.8165 6.08985 19.7813 6.07222 19.7461C6.0622 19.7262 6.05217 19.7063 6.04184 19.6858C6.0182 19.6342 6.0182 19.6342 6 19.5614Z" fill="#F8991C"/>
<path d="M37.2316 20.4715C37.7958 20.4715 37.7958 20.4715 37.8868 20.5261C37.9787 20.6343 38.0413 20.7698 38.1074 20.8947C38.183 21.0357 38.2596 21.1758 38.3395 21.3144C38.4231 21.4596 38.5051 21.6057 38.5863 21.7524C38.6714 21.9059 38.7569 22.0592 38.8434 22.2119C38.9356 22.3747 39.0273 22.5377 39.1186 22.701C39.1734 22.7991 39.2284 22.8971 39.2836 22.9949C39.3931 23.189 39.5012 23.3827 39.5976 23.5837C39.6097 23.608 39.6218 23.6323 39.634 23.6565C39.6431 23.6364 39.6521 23.6163 39.6615 23.5956C39.7458 23.4118 39.8385 23.2349 39.9392 23.0595C40.0202 22.9182 40.0978 22.7754 40.1743 22.6316C40.2615 22.4679 40.3497 22.3049 40.4403 22.1429C40.4971 22.0413 40.5533 21.9394 40.6095 21.8375C40.6282 21.8034 40.647 21.7694 40.6658 21.7354C40.7227 21.6321 40.7797 21.5287 40.8366 21.4254C40.903 21.3048 40.9695 21.1844 41.0361 21.0639C41.0602 21.0203 41.0843 20.9766 41.1084 20.9329C41.1435 20.8693 41.1787 20.8057 41.214 20.7422C41.2246 20.723 41.2351 20.7038 41.246 20.684C41.2607 20.6576 41.2607 20.6576 41.2758 20.6306C41.2843 20.6152 41.2928 20.5998 41.3016 20.5839C41.3405 20.5223 41.366 20.4948 41.4358 20.4715C41.622 20.4715 41.8082 20.4715 42 20.4715C42 21.985 42 23.4986 42 25.058C41.8138 25.058 41.6276 25.058 41.4358 25.058C41.4358 23.8808 41.4358 22.7036 41.4358 21.4907C41.278 21.7768 41.1206 22.0627 40.9654 22.3502C40.8974 22.4754 40.8268 22.5992 40.7563 22.723C40.6877 22.8438 40.6224 22.9659 40.5585 23.0891C40.4916 23.2173 40.4201 23.3427 40.3484 23.4682C40.2897 23.5715 40.2325 23.6756 40.1768 23.7806C40.1671 23.7989 40.1671 23.7989 40.1572 23.8175C40.1256 23.8773 40.0941 23.9371 40.0627 23.9971C39.8964 24.3136 39.8964 24.3136 39.8046 24.3857C39.691 24.4172 39.5769 24.4172 39.4634 24.3857C39.3318 24.2823 39.2579 24.1009 39.179 23.9569C39.167 23.9351 39.155 23.9134 39.143 23.8917C39.1246 23.8583 39.1062 23.8249 39.0877 23.7915C39.0273 23.6817 38.9661 23.5724 38.9048 23.4632C38.8944 23.4445 38.8839 23.4259 38.8732 23.4067C38.8417 23.3505 38.8101 23.2942 38.7786 23.2379C38.6362 22.984 38.4942 22.7299 38.3529 22.4754C38.2658 22.3184 38.1782 22.1618 38.0903 22.0053C37.9909 21.8283 37.8936 21.6504 37.7958 21.4725C37.7958 22.6557 37.7958 23.8389 37.7958 25.058C37.6096 25.058 37.4234 25.058 37.2316 25.058C37.2316 23.5444 37.2316 22.0309 37.2316 20.4715Z" fill="#F89C24"/>
<path d="M12.9707 20.4169C13.0743 20.4156 13.1779 20.4146 13.2815 20.4139C13.3167 20.4136 13.3519 20.4133 13.3871 20.4128C13.4379 20.4121 13.4886 20.4118 13.5394 20.4116C13.555 20.4113 13.5706 20.411 13.5866 20.4107C13.7153 20.4107 13.815 20.428 13.9119 20.5168C13.9711 20.5973 14.0025 20.6921 14.0372 20.785C14.0449 20.8053 14.0527 20.8256 14.0607 20.8465C14.0818 20.9018 14.1027 20.9571 14.1235 21.0124C14.1456 21.071 14.168 21.1295 14.1903 21.1879C14.2271 21.2844 14.2638 21.3809 14.3004 21.4774C14.3716 21.665 14.4438 21.8521 14.5159 22.0393C14.5382 22.0972 14.5605 22.1551 14.5827 22.213C14.6519 22.3934 14.7213 22.5737 14.7916 22.7537C14.8244 22.8379 14.8572 22.9222 14.8899 23.0066C14.9053 23.0461 14.9207 23.0855 14.9362 23.125C15.0472 23.4076 15.1419 23.6928 15.2275 23.9841C15.2304 23.9728 15.2334 23.9614 15.2364 23.9497C15.316 23.6468 15.4149 23.3565 15.5289 23.065C15.5457 23.0217 15.5625 22.9783 15.5792 22.9349C15.6141 22.8447 15.6491 22.7544 15.6842 22.6643C15.7361 22.5309 15.7876 22.3974 15.839 22.2638C15.8891 22.1336 15.9392 22.0035 15.9896 21.8735C16.0641 21.6813 16.1384 21.4891 16.211 21.2962C16.2423 21.2134 16.2737 21.1306 16.3052 21.0479C16.3199 21.0092 16.3344 20.9704 16.3488 20.9316C16.3687 20.8782 16.389 20.825 16.4093 20.7717C16.4149 20.7563 16.4206 20.7408 16.4264 20.7249C16.4746 20.6006 16.5413 20.4899 16.6622 20.4262C16.7412 20.4135 16.8178 20.4124 16.8978 20.4134C16.9146 20.4134 16.9314 20.4135 16.9487 20.4135C17.0021 20.4137 17.0555 20.4142 17.1089 20.4146C17.1453 20.4148 17.1816 20.415 17.2179 20.4151C17.3067 20.4155 17.3955 20.4162 17.4843 20.4169C17.4529 20.5134 17.4199 20.6086 17.3821 20.7028C17.3753 20.7197 17.3753 20.7197 17.3684 20.737C17.3532 20.7748 17.338 20.8126 17.3228 20.8503C17.3117 20.878 17.3005 20.9057 17.2894 20.9334C17.2513 21.0282 17.2131 21.123 17.1749 21.2177C17.1679 21.2351 17.1609 21.2526 17.1536 21.2705C17.0584 21.5067 16.9631 21.7427 16.8676 21.9787C16.7868 22.1786 16.7061 22.3786 16.6254 22.5785C16.5856 22.677 16.5458 22.7755 16.5061 22.8739C16.4901 22.9134 16.4742 22.9528 16.4583 22.9922C16.3627 23.2288 16.3627 23.2288 16.3389 23.288C16.3229 23.3275 16.307 23.3669 16.291 23.4064C16.2515 23.5043 16.212 23.6022 16.1724 23.7001C16.0974 23.8858 16.0224 24.0715 15.9478 24.2573C15.9123 24.3456 15.8768 24.4338 15.8413 24.5221C15.8243 24.5644 15.8073 24.6067 15.7903 24.649C15.7669 24.7074 15.7434 24.7658 15.7198 24.8243C15.7129 24.8417 15.7059 24.8591 15.6987 24.877C15.6923 24.893 15.6859 24.9089 15.6793 24.9253C15.6737 24.9391 15.6681 24.953 15.6624 24.9672C15.6461 25.0034 15.6461 25.0034 15.6097 25.058C15.5756 25.0645 15.5756 25.0645 15.5337 25.0642C15.5181 25.0642 15.5024 25.0641 15.4863 25.0641C15.4693 25.0639 15.4524 25.0636 15.435 25.0633C15.4176 25.0632 15.4003 25.0631 15.3825 25.0631C15.327 25.0628 15.2716 25.0621 15.2161 25.0614C15.1786 25.0611 15.141 25.0608 15.1035 25.0606C15.0114 25.06 14.9192 25.0591 14.8271 25.058C14.7601 24.9304 14.7066 24.7984 14.6531 24.6647C14.6433 24.6401 14.6334 24.6156 14.6235 24.5911C14.6025 24.5389 14.5816 24.4866 14.5607 24.4344C14.5275 24.3517 14.4943 24.2691 14.4611 24.1864C14.4273 24.1023 14.3935 24.0182 14.3597 23.9341C14.2695 23.7092 14.1788 23.4844 14.088 23.2597C14.0648 23.2024 14.0417 23.1451 14.0185 23.0878C13.9879 23.012 13.9573 22.9362 13.9267 22.8604C13.8796 22.744 13.8326 22.6275 13.7856 22.511C13.7776 22.4914 13.7697 22.4718 13.7616 22.4516C13.7297 22.3726 13.6978 22.2936 13.6659 22.2147C13.5842 22.0124 13.5025 21.8101 13.4208 21.6078C13.3863 21.5225 13.3519 21.4373 13.3174 21.352C13.3012 21.3118 13.285 21.2716 13.2687 21.2315C13.2572 21.203 13.2572 21.203 13.2455 21.1741C13.238 21.1555 13.2305 21.137 13.2228 21.1179C13.2012 21.0643 13.1796 21.0106 13.158 20.9569C13.1299 20.8873 13.1015 20.8177 13.073 20.7482C13.0661 20.7315 13.0593 20.7147 13.0523 20.6975C13.0394 20.666 13.0265 20.6346 13.0135 20.6033C13.0078 20.5894 13.0022 20.5754 12.9963 20.5611C12.9913 20.549 12.9864 20.5369 12.9812 20.5245C12.9707 20.4897 12.9707 20.4897 12.9707 20.4169Z" fill="#898B8E"/>
<path d="M33.3185 20.4715C35.0777 20.4715 35.0777 20.4715 35.3501 20.5466C35.3642 20.5504 35.3784 20.5542 35.3929 20.5582C35.6056 20.6195 35.8128 20.7202 35.9757 20.8719C35.9866 20.8818 35.9975 20.8918 36.0087 20.902C36.2389 21.1368 36.3127 21.4703 36.3098 21.7886C36.2994 22.1309 36.1688 22.4224 35.9393 22.6737C35.7302 22.8622 35.4941 22.9659 35.2295 23.0559C35.2386 23.0646 35.2477 23.0732 35.2571 23.0821C35.3473 23.1697 35.4238 23.2609 35.4968 23.3631C35.5077 23.3781 35.5186 23.3931 35.5298 23.4085C35.5633 23.4547 35.5966 23.501 35.6299 23.5473C35.6499 23.5751 35.67 23.6028 35.69 23.6305C35.7192 23.6709 35.7483 23.7113 35.7775 23.7517C35.8803 23.8944 35.9847 24.0358 36.0892 24.1772C36.153 24.2636 36.2166 24.35 36.2802 24.4364C36.3352 24.5111 36.3903 24.5856 36.4456 24.66C36.457 24.6754 36.4684 24.6908 36.4802 24.7067C36.5018 24.7359 36.5236 24.7651 36.5453 24.7942C36.6086 24.8797 36.6671 24.9669 36.7219 25.058C36.6306 25.0593 36.5393 25.0603 36.448 25.061C36.417 25.0612 36.3859 25.0616 36.3549 25.0621C36.3102 25.0627 36.2655 25.0631 36.2207 25.0633C36.207 25.0636 36.1932 25.0639 36.179 25.0641C36.0764 25.0642 35.9991 25.0442 35.9233 24.9697C35.9132 24.9564 35.9031 24.9431 35.8927 24.9294C35.8804 24.9133 35.868 24.8971 35.8553 24.8804C35.8408 24.8608 35.8263 24.8411 35.8119 24.8214C35.8034 24.8097 35.7949 24.7981 35.7861 24.7861C35.7257 24.7034 35.6659 24.6202 35.6063 24.537C35.5571 24.4682 35.5076 24.3997 35.4582 24.3311C35.4485 24.3176 35.4388 24.3042 35.4288 24.2903C35.3569 24.1909 35.2842 24.092 35.2113 23.9933C35.1273 23.8795 35.0438 23.7655 34.9611 23.6509C34.9465 23.6307 34.9465 23.6307 34.9316 23.6102C34.8855 23.5464 34.8399 23.4823 34.7953 23.4175C34.7871 23.4058 34.779 23.3941 34.7706 23.382C34.7556 23.3603 34.7407 23.3386 34.726 23.3167C34.6574 23.218 34.6005 23.1886 34.4833 23.1651C34.3091 23.1591 34.135 23.1531 33.9555 23.1469C33.9555 23.7776 33.9555 24.4082 33.9555 25.058C33.7453 25.058 33.5351 25.058 33.3185 25.058C33.3185 23.5444 33.3185 22.0309 33.3185 20.4715ZM33.9555 20.9811C33.9555 21.5457 33.9555 22.1103 33.9555 22.6919C34.7479 22.7312 34.7479 22.7312 35.4525 22.4098C35.6261 22.2237 35.6939 21.9824 35.689 21.7334C35.6738 21.5277 35.6048 21.3467 35.4536 21.2029C35.2191 21.0134 34.9145 20.9778 34.6238 20.9793C34.5983 20.9794 34.5983 20.9794 34.5722 20.9794C34.5092 20.9795 34.4462 20.9797 34.3832 20.98C34.2421 20.9804 34.1009 20.9807 33.9555 20.9811Z" fill="#F89D24"/>
<path d="M20.5784 21.7637C20.8426 21.7637 21.1069 21.7637 21.3792 21.7637C21.3794 21.8287 21.3797 21.8938 21.38 21.9608C21.3809 22.1761 21.3821 22.3914 21.3835 22.6067C21.3843 22.7372 21.385 22.8677 21.3855 22.9982C21.3859 23.112 21.3865 23.2258 21.3873 23.3396C21.3878 23.3998 21.3881 23.46 21.3882 23.5202C21.3884 23.5876 21.3889 23.655 21.3895 23.7225C21.3895 23.7421 21.3895 23.7618 21.3894 23.782C21.392 23.996 21.4295 24.1983 21.5851 24.3538C21.7574 24.462 21.9535 24.4643 22.1499 24.4279C22.2905 24.3862 22.4106 24.3105 22.5258 24.2208C22.5416 24.2097 22.5573 24.1985 22.5736 24.1871C22.6408 24.0979 22.6296 24.011 22.6288 23.9022C22.629 23.8791 22.6292 23.8561 22.6294 23.8323C22.6299 23.7691 22.6298 23.7059 22.6297 23.6428C22.6296 23.5767 22.6301 23.5106 22.6305 23.4446C22.6312 23.3195 22.6314 23.1945 22.6314 23.0694C22.6315 22.927 22.6321 22.7846 22.6328 22.6423C22.6341 22.3494 22.6347 22.0566 22.635 21.7637C22.8993 21.7637 23.1635 21.7637 23.4358 21.7637C23.4358 22.8508 23.4358 23.9379 23.4358 25.058C22.8716 25.058 22.8716 25.058 22.7806 25.0034C22.7267 24.9056 22.7083 24.8033 22.6896 24.694C22.6723 24.7094 22.6551 24.7247 22.6373 24.7406C22.4067 24.9373 22.1261 25.0993 21.816 25.1126C21.7975 25.1135 21.7791 25.1144 21.7601 25.1154C21.4534 25.1236 21.1726 25.054 20.9344 24.8532C20.6672 24.5943 20.5785 24.2399 20.5726 23.8794C20.5719 23.7744 20.5722 23.6694 20.5728 23.5644C20.5732 23.5009 20.5732 23.4374 20.5733 23.3739C20.5734 23.2541 20.5739 23.1344 20.5744 23.0146C20.575 22.8781 20.5753 22.7415 20.5756 22.605C20.5762 22.3246 20.5772 22.0442 20.5784 21.7637Z" fill="#898B8E"/>
<path d="M18.648 21.7034C18.683 21.703 18.683 21.703 18.7186 21.7025C19.0339 21.7024 19.31 21.7948 19.5398 22.0138C19.8373 22.3113 19.8923 22.6718 19.8931 23.0746C19.893 23.1349 19.8927 23.1952 19.8923 23.2555C19.8919 23.319 19.8919 23.3826 19.8919 23.4461C19.8917 23.566 19.8912 23.6859 19.8907 23.8058C19.8901 23.9424 19.8898 24.0791 19.8895 24.2158C19.8889 24.4965 19.888 24.7772 19.8868 25.058C19.8102 25.0596 19.7336 25.0605 19.657 25.0614C19.6353 25.0618 19.6137 25.0623 19.5914 25.0628C19.3894 25.0645 19.3894 25.0645 19.3044 25.0034C19.2565 24.9402 19.2339 24.8725 19.2099 24.7975C19.2037 24.778 19.1974 24.7586 19.191 24.7385C19.1863 24.7238 19.1817 24.7091 19.177 24.694C19.1488 24.7159 19.1488 24.7159 19.1201 24.7383C18.7475 25.0161 18.3769 25.1602 17.9051 25.1042C17.6592 25.0613 17.4542 24.9639 17.2928 24.7698C17.1426 24.5536 17.1329 24.2922 17.1567 24.0387C17.1952 23.8289 17.3379 23.6514 17.5061 23.5262C17.98 23.2159 18.5519 23.1553 19.1042 23.1651C19.0997 22.805 19.0997 22.805 18.9403 22.4917C18.7962 22.3705 18.6316 22.3505 18.4489 22.3643C18.2596 22.3816 18.1098 22.4676 17.9482 22.5624C17.829 22.6295 17.7307 22.6624 17.5935 22.6373C17.4996 22.5936 17.4585 22.5346 17.407 22.4462C17.3949 22.4258 17.3828 22.4053 17.3703 22.3842C17.3599 22.3657 17.3495 22.3471 17.3387 22.3279C17.3309 22.315 17.3232 22.302 17.3151 22.2887C17.2985 22.2452 17.3052 22.2258 17.3205 22.1823C17.3597 22.1474 17.3974 22.1171 17.44 22.0868C17.4522 22.078 17.4644 22.0692 17.4769 22.0602C17.8293 21.8137 18.2196 21.7024 18.648 21.7034ZM17.9848 23.958C17.9202 24.063 17.9066 24.153 17.9211 24.2754C17.9465 24.3679 17.9874 24.4225 18.0679 24.4744C18.2238 24.5627 18.4327 24.5507 18.6049 24.5177C18.7275 24.4792 18.8347 24.4204 18.9403 24.3482C18.9549 24.3389 18.9694 24.3297 18.9844 24.3201C19.0558 24.2676 19.0983 24.2299 19.1173 24.1413C19.1203 24.07 19.1185 24.0007 19.1144 23.9295C19.1136 23.9048 19.1128 23.88 19.1121 23.8553C19.1102 23.795 19.1075 23.7349 19.1042 23.6747C18.7358 23.6619 18.2594 23.6766 17.9848 23.958Z" fill="#898B8E"/>
<path d="M32.6087 20.9083C32.62 20.9176 32.6313 20.9269 32.643 20.9365C32.6681 20.9573 32.693 20.9783 32.7179 20.9993C32.6477 21.1336 32.5539 21.2967 32.4267 21.3815C32.3397 21.3911 32.2952 21.3752 32.2242 21.3258C32.2068 21.3142 32.1894 21.3025 32.1715 21.2906C32.1536 21.2785 32.1357 21.2665 32.1173 21.2541C31.7327 21.0049 31.2672 20.9356 30.8172 21.0189C30.5626 21.0751 30.3355 21.1796 30.1335 21.3451C30.1207 21.355 30.1079 21.3648 30.0947 21.375C29.7747 21.6334 29.604 22.0724 29.5562 22.4715C29.5095 23.0546 29.6023 23.6144 29.9879 24.0751C30.2414 24.369 30.612 24.5071 30.9898 24.5402C31.4524 24.5738 31.8629 24.4641 32.2231 24.1673C32.2906 24.1145 32.3378 24.0851 32.4267 24.0933C32.5186 24.1469 32.5866 24.2364 32.6546 24.3166C32.6822 24.3498 32.6822 24.3498 32.7179 24.3845C32.7096 24.4896 32.6093 24.5561 32.5359 24.6211C32.0755 25.0106 31.4917 25.1488 30.8979 25.1126C30.3252 25.0637 29.7926 24.847 29.4117 24.4022C28.9707 23.8637 28.8261 23.1578 28.887 22.4759C28.9392 21.9751 29.1204 21.503 29.4601 21.1267C29.4748 21.1103 29.4895 21.0939 29.5046 21.0769C30.2911 20.2446 31.7392 20.189 32.6087 20.9083Z" fill="#F89C24"/>
<path d="M26.9848 20.7627C26.9848 21.0991 26.9848 21.4354 26.9848 21.7819C27.2671 21.7819 27.5494 21.7819 27.8402 21.7819C27.8402 21.9801 27.8402 22.1783 27.8402 22.3825C27.558 22.3825 27.2757 22.3825 26.9848 22.3825C26.9865 22.7029 26.9865 22.7029 26.9886 23.0233C26.9896 23.154 26.9906 23.2847 26.9911 23.4153C26.9916 23.5207 26.9923 23.6261 26.9933 23.7315C26.9936 23.7717 26.9938 23.8118 26.9939 23.852C26.9941 23.9084 26.9946 23.9647 26.9952 24.021C26.9951 24.0376 26.9951 24.0541 26.9951 24.0712C26.9968 24.1906 27.0145 24.2803 27.0952 24.3732C27.164 24.4309 27.2234 24.4278 27.3108 24.4277C27.3904 24.4181 27.4519 24.3865 27.5216 24.3481C27.5769 24.3261 27.6027 24.3282 27.6582 24.3482C27.7039 24.3886 27.7342 24.4429 27.7674 24.4938C27.775 24.5051 27.7826 24.5165 27.7904 24.5283C27.816 24.567 27.8413 24.606 27.8664 24.645C27.8748 24.6579 27.8832 24.6707 27.8919 24.684C27.9125 24.7168 27.9312 24.7508 27.9494 24.785C27.9171 24.882 27.8173 24.9194 27.731 24.967C27.3904 25.1297 27.0022 25.1658 26.6436 25.0405C26.4486 24.9546 26.3262 24.8027 26.2415 24.6115C26.1919 24.4627 26.1787 24.3197 26.1799 24.1636C26.1799 24.1442 26.1799 24.1248 26.1799 24.1049C26.1799 24.0415 26.1802 23.978 26.1805 23.9146C26.1805 23.8704 26.1806 23.8262 26.1806 23.782C26.1808 23.6661 26.1811 23.5501 26.1815 23.4342C26.1819 23.3158 26.1821 23.1973 26.1822 23.0788C26.1826 22.8467 26.1832 22.6146 26.184 22.3825C26.1674 22.3831 26.1674 22.3831 26.1504 22.3837C26.0998 22.3852 26.0492 22.3862 25.9986 22.3871C25.9811 22.3877 25.9637 22.3883 25.9457 22.3889C25.8158 22.3907 25.8158 22.3907 25.7452 22.3493C25.6935 22.2898 25.6904 22.2421 25.6908 22.1662C25.6909 22.1491 25.691 22.1321 25.691 22.1145C25.6912 22.0878 25.6912 22.0878 25.6915 22.0606C25.6916 22.0426 25.6916 22.0247 25.6917 22.0061C25.6919 21.9617 25.6922 21.9173 25.6926 21.8729C25.7533 21.8611 25.8139 21.8494 25.8746 21.8377C25.9001 21.8327 25.9001 21.8327 25.9262 21.8276C26.0241 21.8088 26.1213 21.793 26.2204 21.7819C26.2228 21.7679 26.2252 21.754 26.2276 21.7395C26.2492 21.613 26.2709 21.4864 26.293 21.3599C26.306 21.2857 26.3186 21.2115 26.3311 21.1372C26.337 21.1034 26.343 21.0695 26.349 21.0357C26.3515 21.0203 26.354 21.0049 26.3566 20.9891C26.3724 20.9016 26.392 20.8458 26.457 20.7809C26.6145 20.7022 26.8088 20.7627 26.9848 20.7627Z" fill="#898B8E"/>
<path d="M7.80182 19.5797C8.7748 19.5797 9.74778 19.5797 10.7503 19.5797C10.6515 19.7881 10.5526 19.9959 10.4492 20.202C10.4365 20.2275 10.4237 20.253 10.411 20.2785C10.377 20.3465 10.3429 20.4145 10.3089 20.4824C10.2731 20.5539 10.2373 20.6254 10.2016 20.697C10.1341 20.8318 10.0666 20.9666 9.99912 21.1015C9.92215 21.2552 9.84523 21.409 9.7683 21.5627C9.61033 21.8785 9.4523 22.1942 9.29424 22.5099C9.23963 22.4917 9.23963 22.4917 9.21046 22.4447C9.19991 22.4235 9.18936 22.4024 9.17848 22.3806C9.17257 22.3689 9.16665 22.3571 9.16055 22.3451C9.14068 22.3055 9.12106 22.2659 9.10145 22.2263C9.08729 22.198 9.07312 22.1697 9.05893 22.1414C9.02037 22.0645 8.98205 21.9875 8.94376 21.9104C8.90373 21.8299 8.86351 21.7495 8.82331 21.6691C8.75582 21.5341 8.68847 21.3989 8.62121 21.2638C8.54336 21.1073 8.46533 20.9509 8.3872 20.7946C8.30415 20.6284 8.22122 20.4622 8.13832 20.296C8.11437 20.248 8.0904 20.2 8.06643 20.1519C8.02882 20.0766 7.99128 20.0012 7.95381 19.9259C7.94001 19.8981 7.92618 19.8704 7.91234 19.8427C7.8935 19.805 7.87476 19.7673 7.85604 19.7295C7.8455 19.7084 7.83497 19.6872 7.82412 19.6654C7.80182 19.6161 7.80182 19.6161 7.80182 19.5797Z" fill="#F89C24"/>
<path d="M24.3094 20.2895C24.5797 20.2895 24.8499 20.2895 25.1284 20.2895C25.1284 21.8631 25.1284 23.4367 25.1284 25.058C24.8581 25.058 24.5879 25.058 24.3094 25.058C24.3094 23.4844 24.3094 21.9108 24.3094 20.2895Z" fill="#898B8E"/>
</g>
<defs>
<clipPath id="clip0_1798_278">
<rect width="36" height="6.60667" fill="white" transform="translate(6 19.5614)"/>
</clipPath>
</defs>
</svg>
