<svg id="375c7168-e98b-4119-b8fd-75d1e4a9f1ef" data-name="Icons" xmlns="http://www.w3.org/2000/svg" viewBox="0 0 108 72">
  <title>VWO</title>
  <g>
    <path d="M82.39,20a9.14,9.14,0,0,0-1.73.11l-3.12,5.48a9.34,9.34,0,0,1,4.85-1.29A10.2,10.2,0,1,1,72.14,34.61L68.9,40.09A14.53,14.53,0,1,0,82.39,20Z"/>
    <path d="M38.36,35.14l2.49-4.29,5.61,9.56,6.47-11.07,6.48,11.07,11.11-18.8A3.22,3.22,0,0,1,73.33,20h3.13l-17,29L52.93,37.94,46.46,49Z"/>
    <path d="M43,20,26,49,9,20h3.13A3.22,3.22,0,0,1,15,21.61l11,18.9,11.12-18.9A3.22,3.22,0,0,1,39.88,20Z"/>
  </g>
</svg>
