<svg id="CURRENT" xmlns="http://www.w3.org/2000/svg" viewBox="0 0 48 48">
  <title>wavefinancial</title>
  <g>
    <path d="M44.25,9.8a4.53,4.53,0,0,0-9-.58c-.62,2.19-5.47,19.32-7.33,24.38-2,5.41-3.78,5-3.78,5C35.21,43.07,38,31.62,38,31.62l5.5-19.33A4.51,4.51,0,0,0,44.25,9.8Z" style="fill: #61b6ff"/>
    <path d="M8.14,35.76a6.53,6.53,0,0,0,8-4.69c1.52-5.18,3.13-10.32,4.68-15.48a5.07,5.07,0,0,1,3.47-3.82,4.32,4.32,0,0,1,5.48,4.63,14.66,14.66,0,0,1-.74,3C27.62,24,26.22,28.6,24.7,33.15c-2,6-7.65,8.17-13.24,5.29A8.73,8.73,0,0,1,8.14,35.76Z" style="fill: #1579fb"/>
    <path d="M8.89,33a4.49,4.49,0,0,1-4.38-5.9c1-2.71,1.68-5.51,2.6-8.24a4.31,4.31,0,0,1,5.15-2.74,4.44,4.44,0,0,1,3.63,4.69,4.79,4.79,0,0,1-.22,1.05q-1.23,4-2.48,8A4.22,4.22,0,0,1,8.89,33Z" style="fill: #074f99"/>
  </g>
</svg>
