<svg id="57257764-3271-4d63-ae88-6b68ab0b6577" data-name="Icons" xmlns="http://www.w3.org/2000/svg" viewBox="0 0 108 72">
  <defs>
    <style>
      .\32 19c5128-2539-4b5b-a9b1-3f305c4075fc {
        fill: #ababbf;
      }
    </style>
  </defs>
  <title>workstack</title>
  <g>
    <rect class="219c5128-2539-4b5b-a9b1-3f305c4075fc" x="5.7" y="32.63" width="17.23" height="2.91"/>
    <rect class="219c5128-2539-4b5b-a9b1-3f305c4075fc" x="4.72" y="36.65" width="16.82" height="1.52"/>
    <rect class="219c5128-2539-4b5b-a9b1-3f305c4075fc" x="7.27" y="39.14" width="16.57" height="1.13"/>
    <polygon class="219c5128-2539-4b5b-a9b1-3f305c4075fc" points="36.03 38.53 36.03 38.53 34 32.63 32.63 32.63 30.72 38.53 30.67 38.53 28.93 32.63 27.51 32.63 30.01 40.27 31.28 40.27 33.22 34.37 33.24 34.37 35.42 40.27 36.69 40.27 39.14 32.63 37.77 32.63 36.03 38.53"/>
    <path class="219c5128-2539-4b5b-a9b1-3f305c4075fc" d="M44.55,32.44a4,4,0,1,0,4.09,4A3.9,3.9,0,0,0,44.55,32.44Zm0,6.83a2.82,2.82,0,1,1,2.74-2.82A2.68,2.68,0,0,1,44.55,39.27Z"/>
    <path class="219c5128-2539-4b5b-a9b1-3f305c4075fc" d="M52.18,33.91h0c0-.42,0-.86,0-1.28H50.91c0,.52.05,1.13.05,1.79v5.83h1.27V36.53c0-1.74.71-2.82,2.21-2.82a3.57,3.57,0,0,1,.71.1l.09-1.27a2.17,2.17,0,0,0-.51-.1A2.7,2.7,0,0,0,52.18,33.91Z"/>
    <path class="219c5128-2539-4b5b-a9b1-3f305c4075fc" d="M68.22,35.79c-1-.19-1.94-.46-1.94-1.12s.81-1.08,1.52-1.08a1.76,1.76,0,0,1,1.59.9l1.08-.71a2.78,2.78,0,0,0-2.6-1.37c-1.42,0-2.86.76-2.86,2.26s1.22,1.88,2.69,2.2c.81.19,1.64.37,1.64,1.22s-.9,1.18-1.69,1.18a2.45,2.45,0,0,1-2-1l-1,.81a3.25,3.25,0,0,0,3,1.42c1.52,0,3.06-.66,3.06-2.4C70.71,36.55,69.59,36,68.22,35.79Z"/>
    <path class="219c5128-2539-4b5b-a9b1-3f305c4075fc" d="M75.9,39.27c-1.12,0-1.12-.81-1.12-1.74V33.71H77V32.63H74.78V30.48H73.5v2.15H71.86v1.08H73.5V37.9c0,1.59.3,2.54,2.13,2.54a4.4,4.4,0,0,0,1.52-.29L77.1,39A2.23,2.23,0,0,1,75.9,39.27Z"/>
    <path class="219c5128-2539-4b5b-a9b1-3f305c4075fc" d="M85.08,35.64c0-2.15-.93-3.25-3.21-3.25a4.13,4.13,0,0,0-3,1.17l.81.86a3.42,3.42,0,0,1,2.25-.86c1.18,0,1.89.57,1.89,1.69v.25h-.47c-1.88,0-4.79.14-4.79,2.69,0,1.52,1.27,2.25,2.81,2.25a2.83,2.83,0,0,0,2.5-1.32h0A4.79,4.79,0,0,0,84,40.25h1.23a11.06,11.06,0,0,1-.1-1.33l0-3.28Zm-1.27,1.42a2.22,2.22,0,0,1-2.25,2.31c-.93,0-1.69-.37-1.69-1.33s1-1.47,2.64-1.47h1.27l0,.49Z"/>
    <path class="219c5128-2539-4b5b-a9b1-3f305c4075fc" d="M91.25,33.64a2.43,2.43,0,0,1,1.93.93l1-.91a3.75,3.75,0,0,0-2.91-1.22,3.83,3.83,0,0,0-4,4,3.78,3.78,0,0,0,4,4,3.56,3.56,0,0,0,2.86-1.23l-.93-.9a2.19,2.19,0,0,1-1.93.93,2.66,2.66,0,0,1-2.6-2.82A2.53,2.53,0,0,1,91.25,33.64Z"/>
    <polygon class="219c5128-2539-4b5b-a9b1-3f305c4075fc" points="63.62 32.63 61.78 32.63 58.3 35.99 58.3 30.33 57.03 30.33 57.03 40.27 58.3 40.27 58.3 36.26 62.1 40.27 63.98 40.27 59.9 36.11 63.62 32.63"/>
    <polygon class="219c5128-2539-4b5b-a9b1-3f305c4075fc" points="102.48 32.63 100.7 32.63 97.22 35.99 97.22 30.33 95.95 30.33 95.95 40.27 97.22 40.27 97.22 36.26 100.99 40.27 102.88 40.27 98.81 36.11 102.48 32.63"/>
  </g>
</svg>
