<svg id="482a219e-6211-4e4e-ab2c-8a3ca2130fe0" data-name="Icons" xmlns="http://www.w3.org/2000/svg" viewBox="0 0 108 72">
  <defs>
    <style>
      .\33 951ede6-2eca-4679-9c89-4b6233e30464 {
        fill: #647883;
      }

      .cd2e67d9-b7e6-41c3-8555-9c9964ca4e45 {
        fill: #00a651;
      }

      .\38 74dad67-2ecc-4be2-8a9b-379753daefca {
        fill: #a6ce39;
      }
    </style>
  </defs>
  <title>wrike</title>
  <path class="3951ede6-2eca-4679-9c89-4b6233e30464" d="M19.67,47.92,12,25h5.22l4.7,15.42,5.15-15.46h3.66l5.18,15.46L40.61,25h5.12L38,47.94H33.89l-5-15.24L23.81,47.92Z"/>
  <path class="3951ede6-2eca-4679-9c89-4b6233e30464" d="M46,47.92V31.62h4.6v3.59c1.42-4.2,6.2-3.58,6.2-3.58v4.5s-6.2-.43-6.2,4.58V47.9Z"/>
  <polygon class="3951ede6-2eca-4679-9c89-4b6233e30464" points="58.98 47.92 58.98 37.9 63.58 33.5 63.58 47.92 58.98 47.92"/>
  <path class="3951ede6-2eca-4679-9c89-4b6233e30464" d="M67.44,47.92v-18L72,25.35V37.6l5.61-6h5.64L76.21,39,84.4,47.9H78.48l-6.43-7v7Z"/>
  <path class="3951ede6-2eca-4679-9c89-4b6233e30464" d="M86,45.8a7.91,7.91,0,0,1-2.58-6.15,8.35,8.35,0,0,1,2.32-6,8,8,0,0,1,6.06-2.44,6.84,6.84,0,0,1,5.56,2.48,9,9,0,0,1,2.1,6v1.19H87.94c.48,2.18,2.55,3.35,5.38,3.35a10.26,10.26,0,0,0,5.15-1.42v3.65a10,10,0,0,1-6.12,1.64A9.08,9.08,0,0,1,86,45.8ZM95,38a3.26,3.26,0,0,0-3.31-3.22h-.07A3.5,3.5,0,0,0,87.94,38Z"/>
  <polygon class="cd2e67d9-b7e6-41c3-8555-9c9964ca4e45" points="68.33 19.5 58.05 29.79 61.1 32.84 74.45 19.5 68.33 19.5"/>
  <polygon class="874dad67-2ecc-4be2-8a9b-379753daefca" points="59.27 24.89 53.15 24.89 61.1 32.84 64.16 29.79 59.27 24.89"/>
</svg>
