<svg id="532d3aa5-2a6e-469a-931a-b460c513ae80" data-name="Icons" xmlns="http://www.w3.org/2000/svg" viewBox="0 0 108 72">
  <defs>
    <style>
      .\39 c88fcfa-c0d9-4812-b5fd-1c4fef9d681b {
        fill: #5c5c5c;
      }
    </style>
  </defs>
  <title>wunderlist</title>
  <path class="9c88fcfa-c0d9-4812-b5fd-1c4fef9d681b" d="M11,29h2.09a.88.88,0,0,1,.54.15.73.73,0,0,1,.28.41l2.26,8a4.82,4.82,0,0,1,.15.65c0,.23.09.47.13.73,0-.26.11-.5.15-.73s.13-.46.19-.65l2.61-8a.81.81,0,0,1,.28-.39.87.87,0,0,1,.54-.17H21a.86.86,0,0,1,.54.15.82.82,0,0,1,.3.41l2.61,8a8.3,8.3,0,0,1,.34,1.31c0-.23.09-.47.13-.69s.09-.43.15-.62l2.26-8a.75.75,0,0,1,.28-.39.91.91,0,0,1,.54-.17h1.94L25.93,42.31H23.69l-2.91-9.09c0-.11-.07-.24-.11-.39a2.7,2.7,0,0,1-.11-.43c0,.15-.06.3-.1.43a1.9,1.9,0,0,0-.11.39l-3,9.09H15.14L11,29Zm21.28,3.86v6a1.94,1.94,0,0,0,.41,1.34,1.47,1.47,0,0,0,1.21.47A2.42,2.42,0,0,0,35,40.42a3.34,3.34,0,0,0,1-.74V32.86h2.26v9.43H36.85a.55.55,0,0,1-.59-.41l-.15-.75a6.14,6.14,0,0,1-.6.53,2.47,2.47,0,0,1-.67.41,3.69,3.69,0,0,1-.75.26,3.55,3.55,0,0,1-.88.09,3.37,3.37,0,0,1-1.36-.24,2.81,2.81,0,0,1-1-.73,2.77,2.77,0,0,1-.6-1.14A5.07,5.07,0,0,1,30,38.86v-6Zm7.37,9.43V32.86H41a.54.54,0,0,1,.59.4l.15.76a5.13,5.13,0,0,1,.6-.54,4.62,4.62,0,0,1,.67-.41,3.17,3.17,0,0,1,.75-.26,4.12,4.12,0,0,1,.88-.08A3.54,3.54,0,0,1,46,33a2.53,2.53,0,0,1,1,.74,3.2,3.2,0,0,1,.61,1.14,5,5,0,0,1,.21,1.44v6H45.59v-6A1.93,1.93,0,0,0,45.18,35a1.44,1.44,0,0,0-1.2-.48,2.44,2.44,0,0,0-1.1.26,3.3,3.3,0,0,0-1,.73v6.81ZM55.43,29.6v4a3.13,3.13,0,0,0-1-.67,3.23,3.23,0,0,0-1.36-.23,3.83,3.83,0,0,0-1.68.34,4.09,4.09,0,0,0-1.27,1,4.63,4.63,0,0,0-.81,1.58,6.15,6.15,0,0,0-.28,2,7.6,7.6,0,0,0,.25,2.06A4.81,4.81,0,0,0,50,41.21a3.34,3.34,0,0,0,1.1.93,3.22,3.22,0,0,0,1.42.32,3.89,3.89,0,0,0,.93-.11,3.07,3.07,0,0,0,.8-.3,4.1,4.1,0,0,0,.69-.45c.21-.17.41-.39.62-.6l.2.9a.54.54,0,0,0,.58.41H57.7V29.6Zm0,9.91a3.31,3.31,0,0,1-.94.84,2.41,2.41,0,0,1-1.21.3,1.87,1.87,0,0,1-.8-.15,1.55,1.55,0,0,1-.6-.52,2.64,2.64,0,0,1-.39-.94,6.88,6.88,0,0,1-.13-1.4,6,6,0,0,1,.15-1.42,2.81,2.81,0,0,1,.46-1,1.9,1.9,0,0,1,.71-.58,2.13,2.13,0,0,1,.92-.19,2.4,2.4,0,0,1,1,.19,2.24,2.24,0,0,1,.84.67v4.2Zm13.16,2.78V32.86h1.34a.76.76,0,0,1,.49.12.86.86,0,0,1,.2.44l.13,1.14a4.62,4.62,0,0,1,1.18-1.38,2.4,2.4,0,0,1,1.53-.48,1.89,1.89,0,0,1,1.16.31l-.3,1.7a.31.31,0,0,1-.13.23.39.39,0,0,1-.25.07,1.46,1.46,0,0,1-.39-.07,2.62,2.62,0,0,0-.63-.06,1.86,1.86,0,0,0-1.2.39,2.86,2.86,0,0,0-.86,1.14v5.88Zm20.7-7.56a.57.57,0,0,1-.19.21.42.42,0,0,1-.26.07.6.6,0,0,1-.34-.09l-.44-.21a3.27,3.27,0,0,0-.56-.22,2.73,2.73,0,0,0-.75-.08,1.64,1.64,0,0,0-1,.28.87.87,0,0,0-.39.75.78.78,0,0,0,.19.52,1.76,1.76,0,0,0,.52.36,4.44,4.44,0,0,0,.73.28l.84.28c.28.11.56.22.84.35a2.86,2.86,0,0,1,.73.47,2.32,2.32,0,0,1,.52.69,2.27,2.27,0,0,1,.19,1,3.07,3.07,0,0,1-.25,1.25,2.77,2.77,0,0,1-.74,1,3.68,3.68,0,0,1-1.18.69,5.36,5.36,0,0,1-1.62.24,4.83,4.83,0,0,1-.94-.09,5.06,5.06,0,0,1-.89-.24,8.26,8.26,0,0,1-.79-.38c-.24-.16-.46-.31-.65-.46l.52-.86a.67.67,0,0,1,.23-.24.65.65,0,0,1,.35-.08.73.73,0,0,1,.41.13l.43.26a4.78,4.78,0,0,0,.58.25,2.28,2.28,0,0,0,.84.13,2.34,2.34,0,0,0,.69-.08,1.51,1.51,0,0,0,.47-.26.91.91,0,0,0,.28-.37.9.9,0,0,0,.09-.43.77.77,0,0,0-.2-.54,1.55,1.55,0,0,0-.51-.36,4.47,4.47,0,0,0-.76-.28c-.28-.09-.56-.17-.86-.28s-.58-.22-.86-.35a3.46,3.46,0,0,1-.75-.49,2.1,2.1,0,0,1-.52-.76,2.63,2.63,0,0,1-.19-1.07,2.65,2.65,0,0,1,.9-2,3.43,3.43,0,0,1,1.12-.62,4.81,4.81,0,0,1,1.55-.24,4.54,4.54,0,0,1,1.77.33,3.88,3.88,0,0,1,1.33.84l-.43.75ZM67.17,38.05a.25.25,0,0,0,.15-.13.61.61,0,0,0,.09-.26,2.69,2.69,0,0,0,0-.43,6.62,6.62,0,0,0-.3-2,3.37,3.37,0,0,0-.84-1.33A3.69,3.69,0,0,0,65,33a4.42,4.42,0,0,0-1.64-.28,5,5,0,0,0-1.9.36,4.41,4.41,0,0,0-1.42,1,4.37,4.37,0,0,0-.9,1.49,5,5,0,0,0-.32,1.81,6.11,6.11,0,0,0,.36,2.18,4.26,4.26,0,0,0,1,1.57,4.06,4.06,0,0,0,1.47,1,5.21,5.21,0,0,0,1.83.32,9.43,9.43,0,0,0,1-.06,5,5,0,0,0,1-.26,4.79,4.79,0,0,0,1-.48,3.12,3.12,0,0,0,.84-.73l-.66-.82a.43.43,0,0,0-.18-.15.44.44,0,0,0-.23-.06.8.8,0,0,0-.43.13l-.52.28a5.18,5.18,0,0,1-.69.28,3.25,3.25,0,0,1-.95.13A2.48,2.48,0,0,1,61.87,40a2.65,2.65,0,0,1-.77-1.92h5.84a.79.79,0,0,0,.23,0Zm-6-1.55a3,3,0,0,1,.71-1.6,2.14,2.14,0,0,1,1.55-.56,2.39,2.39,0,0,1,.89.17,1.53,1.53,0,0,1,.62.48,2,2,0,0,1,.37.69,2.84,2.84,0,0,1,.13.84H61.14v0Zm33.15,5.94a2.59,2.59,0,0,1-1.9-.69,2.69,2.69,0,0,1-.66-1.92V34.49h-1a.41.41,0,0,1-.32-.13.44.44,0,0,1-.13-.36v-.91l1.5-.26L92.31,31c0-.13.08-.43.17-.49a.52.52,0,0,1,.35-.11H94v2.45h2.48v1.62H94v5.19a.94.94,0,0,0,.22.69.74.74,0,0,0,.58.26,1,1,0,0,0,.34-.05l.26-.1a1.86,1.86,0,0,1,.19-.11.3.3,0,0,1,.18,0,.43.43,0,0,1,.17,0l.13.15.69,1.1a3.5,3.5,0,0,1-1.14.62,3.42,3.42,0,0,1-1.34.24ZM76.18,29.6a.47.47,0,0,0-.46.46V42.29H78V29.6Zm5.88.86a1.32,1.32,0,0,1-.13.56,1.74,1.74,0,0,1-.33.46,1.27,1.27,0,0,1-.47.3,1.33,1.33,0,0,1-.56.11,1.74,1.74,0,0,1-.56-.11,1.77,1.77,0,0,1-.45-.3,1.19,1.19,0,0,1-.3-.46,1.17,1.17,0,0,1-.11-.56,1.42,1.42,0,0,1,.41-1,1.37,1.37,0,0,1,.45-.3,1.2,1.2,0,0,1,.56-.11,1.74,1.74,0,0,1,.56.11,2.34,2.34,0,0,1,.47.3,1.87,1.87,0,0,1,.33.45,1.39,1.39,0,0,1,.13.56Zm-.8,2.35a.3.3,0,0,0-.13,0l-1.68.28v9.18h2.26v-9a.45.45,0,0,0-.45-.43Z"/>
</svg>
