<svg id="CURRENT" xmlns="http://www.w3.org/2000/svg" viewBox="0 0 48 48"><title>xeroworkflowmax</title><path d="M24,4.41A19.59,19.59,0,1,0,43.76,24,19.68,19.68,0,0,0,24,4.41Zm-3.1,25,3.49-10.53c.11-.36.21-.42.63-.42h1.52c.39,0,.5.06.63.42l3.49,10.53h-1.9l-1-3.07H23.61l-1,3.07Zm20-10.9-3.66,5.35L41,29.44h-2l-2.86-4.13h-.14l-2.81,4.13H31.36l3.79-5.58-3.66-5.32h2l2.64,3.9h.14l2.62-3.9ZM13.36,27.17h.24l2.21-8.09c.11-.4.24-.54.68-.54h2.67v10.9H17.37V20.17h-.24L14.57,29c-.13.4-.19.48-.61.48H12.83c-.43,0-.51-.08-.62-.48L9.65,20H9.42v9.43H7.7V18.54h2.74c.44,0,.58.14.69.54ZM25.82,20h-.23l-1.53,4.89h3.27Z" style="fill:#46b248"/></svg>