<svg xmlns="http://www.w3.org/2000/svg" viewBox="0 0 48 48"><title>xero</title><path d="M23.94,46.43A22.4,22.4,0,1,0,1.54,24a22.4,22.4,0,0,0,22.4,22.4Z" style="fill:#00b1d4"/><path d="M12.27,24l3.82-3.83a.67.67,0,0,0,.2-.48A.69.69,0,0,0,15.6,19a.71.71,0,0,0-.49.21L11.29,23,7.46,19.16A.68.68,0,0,0,7,19a.69.69,0,0,0-.68.69.67.67,0,0,0,.21.49L10.32,24,6.5,27.79a.65.65,0,0,0-.21.49A.69.69,0,0,0,7,29a.68.68,0,0,0,.49-.2l3.83-3.83,3.81,3.82a.69.69,0,0,0,1.19-.47.68.68,0,0,0-.2-.49L12.27,24Z" style="fill:#fff"/><path d="M35,24a1.25,1.25,0,1,0,1.25-1.24A1.25,1.25,0,0,0,35,24Z" style="fill:#fff"/><path d="M31.21,24a5,5,0,1,0,5-5,5,5,0,0,0-5,5Zm1.42,0a3.61,3.61,0,1,1,3.61,3.61A3.61,3.61,0,0,1,32.63,24Z" style="fill:#fff"/><path d="M30.86,19h-.21a2.82,2.82,0,0,0-1.76.6.68.68,0,0,0-1.34.14v8.46a.69.69,0,0,0,1.37,0V23c0-1.73.16-2.43,1.64-2.61a2.37,2.37,0,0,1,.29,0,.66.66,0,0,0,.69-.67.67.67,0,0,0-.68-.68Z" style="fill:#fff"/><path d="M26.16,23A5,5,0,1,0,20.63,29a4.82,4.82,0,0,0,1.81-.12,5.07,5.07,0,0,0,1.5-.64A5.26,5.26,0,0,0,25.22,27l0,0a.75.75,0,0,0-.08-1.05.68.68,0,0,0-1,.15,3.24,3.24,0,0,1-.24.31,4,4,0,0,1-1,.8,3.62,3.62,0,0,1-5.12-2,2.82,2.82,0,0,1-.15-.57.45.45,0,0,1,0-.11H24.8A1.26,1.26,0,0,0,26.16,23Zm-8.45.13v-.06a3.62,3.62,0,0,1,7,.06Z" style="fill:#fff"/></svg>