<svg xmlns="http://www.w3.org/2000/svg" viewBox="0 0 48 48"><title>xml</title><rect x="4.57" y="1.83" width="39.68" height="17.29"/><path d="M16.63,41.32,5.44,34.94V32.51l11.19-6.69v3.56l-8,4.27v.09l8,4Z"/><path d="M30.13,20.79l-8.38,25H18.37l8.34-25Z"/><path d="M43.38,34.74,32.19,41.13V37.57l8-4v-.06l-8-4.29V25.67l11.19,6.65Z"/><path d="M14.42,5.94l1.17,2.94,1.15-2.94h2l-2.11,4.49L18.89,15H16.83l-1.31-3.07L14.23,15h-2l2.26-4.58L12.4,5.94Z" style="fill:#fff"/><path d="M23.63,5.94l1.29,6.4h0l1.31-6.4H29V15H27.28V7.77h0L25.64,15H24.22L22.61,7.77h0V15H20.91V5.94Z" style="fill:#fff"/><path d="M31.53,5.94h1.83v7.57H36.6V15H31.53Z" style="fill:#fff"/></svg>