<svg id="Layer_1" data-name="Layer 1" xmlns="http://www.w3.org/2000/svg" viewBox="0 0 48 48"><defs><style>.cls-1{fill:#c41200;}</style></defs><title>yelp0</title><path class="cls-1" d="M12.51,22.79l7.69,3.75a1.77,1.77,0,0,1-.35,3.3l-8.3,2.07a1.77,1.77,0,0,1-2.13-1.28,2,2,0,0,1,0-.24,15.15,15.15,0,0,1,.69-6.58A1.76,1.76,0,0,1,12.3,22.7l.21.09Zm3.4,18.46A15.22,15.22,0,0,0,22,43.73a1.76,1.76,0,0,0,2-1.43,1.94,1.94,0,0,0,0-.24l.3-8.55a1.76,1.76,0,0,0-3.07-1.25l-5.73,6.36a1.77,1.77,0,0,0,.13,2.49,1.33,1.33,0,0,0,.19.14Zm11.21-8.48L31.66,40a1.78,1.78,0,0,0,2.44.55l.19-.13a15.26,15.26,0,0,0,4.07-5.22,1.78,1.78,0,0,0-.86-2.36l-.19-.07-8.14-2.65a1.77,1.77,0,0,0-2.05,2.62Zm11.45-10.2a15.07,15.07,0,0,0-3.89-5.35,1.76,1.76,0,0,0-2.49.16,1.18,1.18,0,0,0-.13.18l-4.79,7.09a1.76,1.76,0,0,0,1.95,2.68L37.45,25a1.76,1.76,0,0,0,1.2-2.2c0-.07,0-.14-.07-.2ZM14,6.57a1.77,1.77,0,0,0-.82,2.35l.06.12,8,13.93a1.76,1.76,0,0,0,3.28-.88V6a1.75,1.75,0,0,0-1.73-1.77h-.16A24.75,24.75,0,0,0,14,6.57Z"/></svg>