<svg xmlns="http://www.w3.org/2000/svg" xmlns:xlink="http://www.w3.org/1999/xlink" viewBox="0 0 48 48"><defs><linearGradient id="a" x1="24.66" y1="10.19" x2="24.66" y2="37.02" gradientUnits="userSpaceOnUse"><stop offset="0" stop-color="#e52d27"/><stop offset="1" stop-color="#bf171d"/></linearGradient></defs><title>youtube</title><path d="M20.72,28.55,31,23.21,20.72,17.83Z" style="fill:#fff"/><path d="M20.72,17.83l9,6L31,23.21Z" style="fill:#420000;fill-rule:evenodd;opacity:0.12"/><path d="M43.35,16s-.37-2.63-1.52-3.79A5.39,5.39,0,0,0,38,10.58c-5.34-.39-13.34-.39-13.34-.39h0s-8,0-13.34.39a5.39,5.39,0,0,0-3.82,1.61C6.34,13.35,6,16,6,16a57.72,57.72,0,0,0-.38,6.17V25A58,58,0,0,0,6,31.22S6.34,33.84,7.49,35c1.45,1.52,3.35,1.47,4.2,1.63,3.05.3,13,.39,13,.39s8,0,13.35-.4A5.46,5.46,0,0,0,41.83,35c1.15-1.16,1.52-3.78,1.52-3.78A58,58,0,0,0,43.73,25V22.15A57.72,57.72,0,0,0,43.35,16ZM20.72,28.55V17.83L31,23.21Z" style="fill:url(#a)"/></svg>