<svg xmlns="http://www.w3.org/2000/svg" viewBox="0 0 48 48"><defs><style>.cls-1{fill:#ad6431;}.cls-2{fill:#e1b56e;}.cls-3{fill:#fff;}.cls-4{fill:#c6c6c6;}.cls-5{fill:#231f20;}</style></defs><title>J-zaico</title><g id="Layer_3" data-name="Layer 3"><rect class="cls-1" x="6" y="17.34" width="36" height="23.47"/><polygon class="cls-2" points="42 17.52 6 17.52 12.23 8.04 36 8.04 42 17.52"/><polygon class="cls-3" points="25.95 8.04 21.85 8.04 20.62 17.59 27.19 17.59 25.95 8.04"/><rect class="cls-4" x="20.62" y="17.59" width="6.57" height="5.89"/><rect class="cls-5" x="31.71" y="33.9" width="0.51" height="6.47"/><rect class="cls-5" x="32.55" y="33.9" width="0.51" height="6.47"/><rect class="cls-5" x="33.41" y="33.9" width="1.19" height="5.28"/><rect class="cls-5" x="36.14" y="33.9" width="0.68" height="5.28"/><rect class="cls-5" x="38.87" y="33.9" width="0.49" height="5.28"/><rect class="cls-5" x="40.54" y="33.9" width="0.54" height="6.47"/><rect class="cls-5" x="39.72" y="33.9" width="0.32" height="5.28"/><rect class="cls-5" x="35.28" y="33.9" width="0.34" height="5.28"/><rect class="cls-5" x="33.58" y="40.02" width="0.34" height="0.34"/><rect class="cls-5" x="34.43" y="40.02" width="0.34" height="0.34"/><rect class="cls-5" x="35.12" y="40.02" width="0.34" height="0.34"/><rect class="cls-5" x="35.97" y="40.02" width="0.34" height="0.34"/><rect class="cls-5" x="36.81" y="40.02" width="0.34" height="0.34"/><rect class="cls-5" x="37.51" y="40.02" width="0.34" height="0.34"/><rect class="cls-5" x="38.37" y="40.02" width="0.34" height="0.34"/><rect class="cls-5" x="39.21" y="40.02" width="0.34" height="0.34"/><rect class="cls-5" x="37.34" y="33.9" width="0.34" height="5.28"/></g></svg>