<svg id="Layer_1" data-name="Layer 1" xmlns="http://www.w3.org/2000/svg" viewBox="0 0 48 48"><defs><style>.cls-1{fill:#ffac77;}.cls-2{fill:#ff6fca;}.cls-3{fill:#ff236a;}.cls-4{fill:#6d55af;}.cls-5{fill:#a462d9;}.cls-6{fill:#37b6fd;}</style></defs><title>zenkit</title><polygon class="cls-1" points="23.97 6.21 10.17 24.2 17.18 24.2 23.97 6.21"/><polygon class="cls-2" points="23.97 6.21 17.18 24.2 30.68 24.2 23.97 6.21"/><polygon class="cls-3" points="23.97 6.21 30.68 24.2 37.65 24.2 23.97 6.21"/><polygon class="cls-1" points="23.97 6.21 10.17 24.2 17.18 24.2 23.97 6.21"/><polygon class="cls-2" points="23.97 6.21 17.18 24.2 30.68 24.2 23.97 6.21"/><polygon class="cls-3" points="23.97 6.21 30.68 24.2 37.65 24.2 23.97 6.21"/><polygon class="cls-4" points="23.85 42.21 37.65 24.2 30.68 24.2 23.85 42.21"/><polygon class="cls-5" points="23.85 42.21 30.68 24.2 17.18 24.2 23.85 42.21"/><polygon class="cls-6" points="23.85 42.21 17.18 24.2 10.17 24.2 23.85 42.21"/></svg>