<svg xmlns="http://www.w3.org/2000/svg" viewBox="0 0 48 48"><defs><style>.cls-1{fill:none;stroke:#397cbc;stroke-linejoin:round;stroke-width:1.97px;}.cls-2{fill:#e73b3d;}</style></defs><title>icon-</title><g id="Zoho_Creator" data-name="Zoho Creator"><path class="cls-1" d="M27.65,8.38a4.52,4.52,0,0,0-6.38.23L7.16,22.72a1.38,1.38,0,0,0,0,2l15.79,15.8a3,3,0,0,0,4.17-.15l6.18-6.18L22.93,23.85,33,13.73Z"/><path class="cls-2" d="M36.67,18.86l3.39,3.39a2.19,2.19,0,0,1,.65,1.56,2.21,2.21,0,0,1-.65,1.57l-3.38,3.38-4.95-5,4.94-4.95m0-2.2a1.33,1.33,0,0,0-.92.38l-6.58,6.59a.24.24,0,0,0,0,.35l6.59,6.6a1.3,1.3,0,0,0,1.84,0l3.83-3.83a4.15,4.15,0,0,0,0-5.87L37.59,17a1.29,1.29,0,0,0-.92-.38Z"/></g></svg>