<svg id="Layer_1" data-name="Layer 1" xmlns="http://www.w3.org/2000/svg" xmlns:xlink="http://www.w3.org/1999/xlink" viewBox="0 0 48 48">
  <defs>
    <linearGradient id="linear-gradient" x1="24.1" y1="37.6" x2="24.1" y2="14.49" gradientUnits="userSpaceOnUse">
      <stop offset="0.01" stop-color="#506bf8"/>
      <stop offset="1" stop-color="#5b8ff8"/>
    </linearGradient>
    <linearGradient id="linear-gradient-2" x1="9.13" y1="37.49" x2="23.1" y2="22.72" gradientUnits="userSpaceOnUse">
      <stop offset="0" stop-color="#fe7b05"/>
      <stop offset="1" stop-color="#fe912d"/>
    </linearGradient>
    <linearGradient id="linear-gradient-3" x1="32.73" y1="41.14" x2="33.83" y2="23.66" gradientUnits="userSpaceOnUse">
      <stop offset="0" stop-color="#ea2637"/>
      <stop offset="1" stop-color="#fe0036"/>
    </linearGradient>
  </defs>
  <title>zohopeople</title>
  <g>
    <g>
      <path d="M24,23.09l7.62-4.33a.41.41,0,0,1,.4,0l2.35,1.38.05-8.25a.38.38,0,0,0-.2-.35L24.36,5.79a.38.38,0,0,0-.4,0l-9.89,5.63a.43.43,0,0,0-.21.35l0,8.33,2.35-1.33a.43.43,0,0,1,.41,0Z" style="fill: url(#linear-gradient)"/>
      <path d="M21.47,27.86l-7.68-4.49,0-3.28-7.54,4.3a.4.4,0,0,0-.2.34L6,36.11a.4.4,0,0,0,.2.35L16,42.21a.38.38,0,0,0,.4,0L24,37.88l-2.43-1.42a.4.4,0,0,1-.2-.35Z" style="fill: url(#linear-gradient-2)"/>
      <path d="M34.33,20.14l0,3.36-7.74,4.41-.05,8.33a.43.43,0,0,1-.21.35L24,37.88l7.39,4.33a.4.4,0,0,0,.41,0l9.89-5.63a.42.42,0,0,0,.2-.35L42,24.86a.42.42,0,0,0-.2-.35Z" style="fill: url(#linear-gradient-3)"/>
      <polygon points="31.78 18.64 23.96 23.09 16.36 18.64 13.81 20.09 13.79 23.37 21.46 27.86 21.41 36.35 24.04 37.88 26.51 36.47 26.57 27.91 34.31 23.5 34.33 20.14 31.78 18.64" style="fill: #f5f5f5"/>
    </g>
    <polygon points="27.12 15.01 24.09 13.2 21 14.92 20.95 18.46 23.99 20.27 27.07 18.54 27.12 15.01" style="fill: #fefefc"/>
  </g>
</svg>
