<svg id="CURRENT" xmlns="http://www.w3.org/2000/svg" xmlns:xlink="http://www.w3.org/1999/xlink" viewBox="0 0 48 48"><defs><linearGradient id="linear-gradient" x1="-594.3" y1="-403.5" x2="-594.3" y2="-403.52" gradientTransform="matrix(541.83, 0, 0, -580.39, 322048.9, -234173.31)" gradientUnits="userSpaceOnUse"><stop offset="0.01" stop-color="#ffe513"/><stop offset="1" stop-color="#fdb924"/></linearGradient><linearGradient id="linear-gradient-2" x1="-593.07" y1="-403.49" x2="-593.06" y2="-403.5" gradientTransform="matrix(596.5, 0, 0, -593.57, 353793.33, -239484.71)" gradientUnits="userSpaceOnUse"><stop offset="0.01" stop-color="#008cd2"/><stop offset="1" stop-color="#00649d"/></linearGradient><linearGradient id="linear-gradient-3" x1="-592.02" y1="-403.41" x2="-592.02" y2="-403.42" gradientTransform="matrix(685.34, 0, 0, -696.57, 405757.79, -280987.47)" gradientUnits="userSpaceOnUse"><stop offset="0" stop-color="#26a146"/><stop offset="1" stop-color="#008a52"/></linearGradient><linearGradient id="linear-gradient-4" x1="-591.01" y1="-403.49" x2="-591.01" y2="-403.51" gradientTransform="matrix(605.29, 0, 0, -593.57, 357738.94, -239485.66)" gradientUnits="userSpaceOnUse"><stop offset="0" stop-color="#d92231"/><stop offset="1" stop-color="#ba2234"/></linearGradient></defs><title>zohobooks</title><g id="_7jyB5v.tif" data-name="7jyB5v.tif"><path d="M11.35,36.3V29.55l.19,0c1.09,0,2.18,0,3.27,0a1.72,1.72,0,0,1,1.73,2.21,1.55,1.55,0,0,1-.75.95l-.25.13A1.79,1.79,0,0,1,16.66,35,1.65,1.65,0,0,1,15,36.33c-1.19,0-2.39,0-3.58,0C11.43,36.34,11.41,36.32,11.35,36.3Zm1.2-2.9v1.87c.72,0,1.43,0,2.13,0a.85.85,0,0,0,.81-.92.87.87,0,0,0-.79-.92C14,33.37,13.28,33.4,12.55,33.4Zm0-2.8v1.71c.69,0,1.35,0,2,0a.85.85,0,0,0,0-1.7C13.92,30.57,13.25,30.6,12.55,30.6Z"/><path d="M30.67,33.69l.22-.22c.57-.63,1.13-1.27,1.71-1.88a.7.7,0,0,1,.41-.18c.34,0,.68,0,1.09,0l-.51.57-1.34,1.48a.25.25,0,0,0,0,.4c.57.72,1.13,1.46,1.68,2.18l.22.3c-.47,0-.89,0-1.3,0-.08,0-.16-.14-.23-.22l-1.26-1.73c-.89.41-.75,1.2-.72,2h-1V29.55h1v4.12Z"/><path d="M20.11,36.46a2.59,2.59,0,0,1,0-5.18,2.59,2.59,0,0,1,0,5.18Zm1.42-2.68a4.73,4.73,0,0,0-.09-.48,1.37,1.37,0,0,0-2.65,0,1.91,1.91,0,0,0,.11,1.5,1.35,1.35,0,0,0,2.21.32A1.84,1.84,0,0,0,21.53,33.78Z"/><path d="M26,31.28a2.59,2.59,0,1,1-2.52,2.58A2.42,2.42,0,0,1,26,31.28Zm1.42,2.58a1.48,1.48,0,0,0-1.3-1.62A1.5,1.5,0,0,0,24.56,34a1.44,1.44,0,0,0,1.7,1.51A1.51,1.51,0,0,0,27.39,33.86Z"/><path d="M34.41,35.75l.54-.83a2.54,2.54,0,0,0,1.61.67,1.47,1.47,0,0,0,.72-.17.64.64,0,0,0,.27-.48.56.56,0,0,0-.3-.39c-.39-.15-.8-.23-1.19-.35a3.91,3.91,0,0,1-.68-.24,1.32,1.32,0,0,1-.16-2.32,2.86,2.86,0,0,1,3.1.21.27.27,0,0,1,.07.22c-.11.21-.24.41-.38.64a2,2,0,0,0-1.57-.56,1.3,1.3,0,0,0-.58.2.4.4,0,0,0,.09.74c.28.11.58.16.87.25a6.88,6.88,0,0,1,1,.33,1.39,1.39,0,0,1,.1,2.45,2.88,2.88,0,0,1-2.43.18A7.6,7.6,0,0,1,34.41,35.75Z"/></g><path d="M44.32,14.51v9.63L43,25.45V16Z" style="fill:#e79225"/><path d="M35.58,14.52,34.2,16l.07.09,8.66,0L43,16l1.31-1.51Z" style="fill:#fff16d"/><path d="M34.2,16H43v9.43H34.2Z" style="fill:url(#linear-gradient)"/><path d="M41.67,19.41a3.48,3.48,0,0,0-.78-1.17,3.29,3.29,0,0,0-1.1-.76,3.56,3.56,0,0,0-1.32-.25,3.53,3.53,0,0,0-1.32.25,3.33,3.33,0,0,0-1.11.76,3.61,3.61,0,0,0-.77,1.17,4.16,4.16,0,0,0,0,2.87,3.53,3.53,0,0,0,.77,1.19,3.2,3.2,0,0,0,1.09.74,3.4,3.4,0,0,0,1.34.25,3.32,3.32,0,0,0,2.41-1,3.62,3.62,0,0,0,.78-1.18,4.12,4.12,0,0,0,0-2.88Zm-1.82,3.12a1.71,1.71,0,0,1-1.38.61,1.73,1.73,0,0,1-1.39-.61,2.56,2.56,0,0,1-.51-1.69,2.63,2.63,0,0,1,.51-1.7,1.86,1.86,0,0,1,2.77,0,2.57,2.57,0,0,1,.51,1.7A2.56,2.56,0,0,1,39.85,22.53Z" style="fill:#fff"/><path d="M33.34,13.72v0l1.12,8.66-.66,1.83-.08-.07-1.16-8.3,0-.11.72-2Z" style="fill:#009ada"/><path d="M24.66,14.93l8.68-1.21L32.6,15.8l-.1.11L24.39,17.1l0-1.48.23-.69Z" style="fill:#91c9ed"/><path d="M32.6,15.8l1.2,8.46-8.55,1.19L24.1,17.29l.5-.39Z" style="fill:url(#linear-gradient-2)"/><path d="M31.15,17.42a.93.93,0,0,0-.27-.59.6.6,0,0,0-.43-.16h-.13a.64.64,0,0,0-.49.3.78.78,0,0,0-.11.44,1.55,1.55,0,0,0,0,.21l.31,2.2-2.46.36L27.27,18a1,1,0,0,0-.27-.58.57.57,0,0,0-.42-.17h-.12a.71.71,0,0,0-.52.3.87.87,0,0,0-.11.44,1.8,1.8,0,0,0,0,.22l.84,5.72a1,1,0,0,0,.29.6.64.64,0,0,0,.43.15h.15a.65.65,0,0,0,.47-.3.83.83,0,0,0,.11-.43,1.65,1.65,0,0,0,0-.21l-.34-2.26,2.46-.37.34,2.27a.89.89,0,0,0,.28.58.6.6,0,0,0,.43.16h.13a.68.68,0,0,0,.49-.31.75.75,0,0,0,.12-.43,1.49,1.49,0,0,0,0-.21l-.86-5.74Z" style="fill:#fff"/><path d="M16.54,11.52l-3.09,7.33.42,3.22h0l3.47-7.81V14.1l-.75-2.48Z" style="fill:#66bf6b"/><path d="M16.54,11.52l.8,2.69,0,0L25,17.68h0l-.65-2.57Z" style="fill:#98d0a0"/><path d="M17.34,14.21,25,17.67l-3.47,7.86-7.68-3.46,3.47-7.86Z" style="fill:url(#linear-gradient-3)"/><path d="M22.69,18.3a3.47,3.47,0,0,0-.7-1.14,3.22,3.22,0,0,0-1.09-.75,3.16,3.16,0,0,0-1.3-.27h0a3.2,3.2,0,0,0-1.31.29,3.74,3.74,0,0,0-1.18.82,4.32,4.32,0,0,0-.81,1.27A4.61,4.61,0,0,0,15.94,20v.16a3.43,3.43,0,0,0,.23,1.26,3,3,0,0,0,.69,1.13,3.45,3.45,0,0,0,2.4,1h0a3.34,3.34,0,0,0,1.3-.28,3.54,3.54,0,0,0,1.18-.84,4.33,4.33,0,0,0,1.16-2.72v-.14a3.37,3.37,0,0,0-.22-1.29Zm-1.53,2.29A2.75,2.75,0,0,1,20,22a1.63,1.63,0,0,1-.78.21,2,2,0,0,1-.73-.16,1.64,1.64,0,0,1-1-1.12,2,2,0,0,1-.07-.55,3.23,3.23,0,0,1,.28-1.25,2.93,2.93,0,0,1,1.15-1.44,1.62,1.62,0,0,1,.78-.2,1.79,1.79,0,0,1,.73.16,1.64,1.64,0,0,1,1,1.12,1.79,1.79,0,0,1,.07.53A3.31,3.31,0,0,1,21.16,20.59Z" style="fill:#fff"/><path d="M12.84,12.76l1.25,8.4-.57,2.95-.08-.1L12.22,15.9v-.16l.54-2.84.08-.14Z" style="fill:#760d16"/><path d="M3.68,17.1l.59-3,8.57-1.38-.58,3V16l-8.48,1.2Z" style="fill:#ef463e"/><path d="M12.26,15.79l1.26,8.32L5,25.44,3.68,17.1l8.58-1.31Z" style="fill:url(#linear-gradient-4)"/><path d="M11.35,22.79a.64.64,0,0,0-.27-.18,1.27,1.27,0,0,0-.42-.05,3.25,3.25,0,0,0-.51,0L7.91,23a2,2,0,0,1,.26-.68,9.06,9.06,0,0,1,.75-1.11l.26-.34.18-.23a5.34,5.34,0,0,0,1-1.65,2.74,2.74,0,0,0,.13-.74,1.41,1.41,0,0,0,0-.2,3.05,3.05,0,0,0,0-.52,1,1,0,0,0-.12-.39.51.51,0,0,0-.2-.23.67.67,0,0,0-.38-.08,2.41,2.41,0,0,0-.5.05l-2.59.44a1.26,1.26,0,0,0-.69.29.54.54,0,0,0-.18.41.66.66,0,0,0,.34.59,1,1,0,0,0,.4.08,1.56,1.56,0,0,0,.35,0L9,18.26s0,.08,0,.11a1.34,1.34,0,0,1-.07.4,3.16,3.16,0,0,1-.49.76L8.11,20a10.24,10.24,0,0,0-1.26,1.81,3.81,3.81,0,0,0-.37,1,2.81,2.81,0,0,0-.06.56,2.34,2.34,0,0,0,0,.38,1.39,1.39,0,0,0,.13.42.5.5,0,0,0,.22.25.77.77,0,0,0,.38.06,5.9,5.9,0,0,0,.88-.09L10.41,24a1.87,1.87,0,0,0,.87-.31.53.53,0,0,0,.21-.43.59.59,0,0,0,0-.14A.47.47,0,0,0,11.35,22.79Z" style="fill:#fff"/></svg>