<svg width="48" height="48" viewBox="0 0 48 48" fill="none" xmlns="http://www.w3.org/2000/svg">
<path d="M30.6585 34.2366C27.6556 34.2366 24.8264 33.0702 22.6921 30.9607L16.4629 24.7316C15.7432 23.9995 15.3337 23.044 15.3461 22.0141C15.3461 20.9842 15.7556 20.0287 16.4877 19.309C17.9768 17.8324 20.3965 17.8448 21.8855 19.3214L27.5935 25.0294C28.2636 25.6995 29.3555 25.6995 30.0256 25.0418C30.3482 24.7192 30.5344 24.2849 30.5344 23.8257C30.5344 23.3666 30.3607 22.9323 30.0256 22.5973L23.7965 16.3681C22.0592 14.6433 19.7512 13.7003 17.2943 13.7127C14.8002 13.7251 12.4673 14.7054 10.7301 16.4798C8.9929 18.2542 8.06224 20.6119 8.11188 23.1185C8.21115 28.0943 12.3432 32.152 17.3191 32.152C18.2125 32.152 19.0936 32.0279 19.9374 31.7797C20.4957 31.6184 21.079 31.9286 21.2403 32.487C21.4016 33.0454 21.0914 33.6286 20.533 33.8023C19.4906 34.1125 18.4111 34.2615 17.3191 34.2615C11.2016 34.2615 6.12649 29.2856 6.0024 23.1681C5.94036 20.0907 7.08196 17.1995 9.22866 15.0156C11.363 12.8317 14.2294 11.628 17.3067 11.6156C20.3096 11.6032 23.1512 12.7696 25.2979 14.8915L31.5271 21.1207C32.2592 21.8528 32.6563 22.8082 32.6563 23.8382C32.6563 24.8681 32.2468 25.836 31.5147 26.5557C30.0256 28.0323 27.5935 28.0323 26.1045 26.5433L20.3965 20.8353C19.7264 20.1652 18.6469 20.1652 17.9768 20.8228C17.6542 21.1455 17.468 21.5798 17.468 22.0389C17.468 22.498 17.6417 22.9323 17.9768 23.2549L24.2059 29.4841C25.9432 31.1965 28.2388 32.1396 30.6833 32.1396C35.7584 32.1396 39.8905 28.0075 39.8905 22.9323C39.8905 20.4754 38.9351 18.155 37.1978 16.4178C35.4606 14.6681 33.1402 13.7127 30.6833 13.7127C29.9015 13.7127 29.1198 13.8119 28.3753 14.0105C28.2636 14.0353 28.1519 14.0725 28.0526 14.0973C27.4942 14.2587 26.911 13.9484 26.7373 13.39C26.576 12.8317 26.8862 12.2484 27.4446 12.0747C27.5811 12.0375 27.7052 12.0003 27.8417 11.963C28.7599 11.7273 29.7154 11.6032 30.6833 11.6032C33.711 11.6032 36.5526 12.782 38.6869 14.9287C40.8212 17.0754 42 19.917 42 22.9447C41.9628 29.1739 36.8876 34.2366 30.6585 34.2366Z" fill="#226DB4"/>
</svg>
