<svg xmlns="http://www.w3.org/2000/svg" viewBox="0 0 48 48">
  <title>ZohoProjects</title>
  <g id="Layer_3" data-name="Layer 3">
    <g>
      <polyline points="27.82 17.82 19.18 26.53 18.86 26.23 18.86 29.16 19.2 29.49 27.82 20.81" style="fill: #2a7b48"/>
      <polyline points="27.82 23.78 19.18 32.57 18.86 32.25 18.86 35.23 19.2 35.57 27.82 26.79" style="fill: #2a7b48"/>
      <polyline points="27.82 29.65 19.18 38.26 18.86 37.95 18.86 40.88 19.2 41.21 27.82 32.63" style="fill: #2a7b48"/>
      <polygon points="9.91 29.32 5.51 25.07 9.86 20.43 9.91 20.47 9.91 17.53 9.79 17.42 2.55 25.15 9.91 32.24 9.91 29.32" style="fill: #e32d2b"/>
      <polygon points="9.91 26.2 9.91 23.22 8.42 24.71 9.91 26.2" style="fill: #e32d2b"/>
      <g>
        <polygon points="19.2 29.49 19.18 26.53 18.86 26.23 9.91 17.53 9.91 20.47 18.86 29.16 19.2 29.49" style="fill: #f58220"/>
        <polygon points="19.2 35.57 19.18 32.57 18.86 32.25 9.91 23.22 8.91 24.22 8.91 25.2 18.86 35.23 19.2 35.57" style="fill: #f58220"/>
        <polygon points="18.86 37.95 9.91 29.32 9.91 32.24 18.86 40.88 19.2 41.21 19.18 38.26 18.86 37.95" style="fill: #f58220"/>
      </g>
      <g>
        <polygon points="27.82 20.81 38.84 9.71 40.27 11.1 27.82 23.78 27.82 26.79 43.22 11.11 38.77 6.79 27.82 17.82 27.82 20.81" style="fill: #3859a3"/>
        <polygon points="46.4 14.14 44.91 12.64 27.82 29.65 27.82 32.63 46.4 14.14" style="fill: #3859a3"/>
      </g>
      <polyline points="9.91 20.47 18.86 29.16 18.86 26.23 9.91 17.53" style="fill: #f58220"/>
      <polyline points="8.91 25.2 18.86 35.23 18.86 32.25 9.91 23.22" style="fill: #f58220"/>
      <polyline points="9.91 32.24 18.86 40.88 18.86 37.95 9.91 29.32" style="fill: #f58220"/>
    </g>
  </g>
</svg>
