<svg id="20cfdff3-fb65-424b-b832-05e2517155bf" data-name="Icons" xmlns="http://www.w3.org/2000/svg" viewBox="0 0 108 72">
  <defs>
    <style>
      .\35 85d175a-c880-4f45-bf67-7732a46ffccd {
        fill: #3c79f6;
      }
    </style>
  </defs>
  <title>ZOOM</title>
  <g>
    <path class="585d175a-c880-4f45-bf67-7732a46ffccd" d="M28.28,41.45l-.9-.05H19.29L30.08,30.6l0-.9A2.72,2.72,0,0,0,27.38,27l-.9,0H13l.05.9a2.78,2.78,0,0,0,2.65,2.65l.89.05h8.09L13.9,41.4l0,.9A2.76,2.76,0,0,0,16.6,45l.89,0H31l-.05-.9A2.77,2.77,0,0,0,28.28,41.45Z"/>
    <path class="585d175a-c880-4f45-bf67-7732a46ffccd" d="M39.06,27a9,9,0,0,0-6.35,15.36v0A9,9,0,1,0,39.06,27Zm3.82,12.82a5.4,5.4,0,0,1-7.62,0h0a5.4,5.4,0,0,1,7.62-7.65h0A5.4,5.4,0,0,1,42.88,39.82Z"/>
    <path class="585d175a-c880-4f45-bf67-7732a46ffccd" d="M85.81,27a7.16,7.16,0,0,0-5.39,2.44A7.2,7.2,0,0,0,71,28.23,5,5,0,0,0,67.83,27V45l.9,0a2.72,2.72,0,0,0,2.65-2.66l.05-.9V35.1l0-.9a3.94,3.94,0,0,1,.44-1.81,3.6,3.6,0,0,1,6.22,0h0a3.81,3.81,0,0,1,.44,1.81l.05.9v6.3l0,.9A2.78,2.78,0,0,0,81.32,45l.89,0V35.1l.05-.9a3.84,3.84,0,0,1,.44-1.81A3.53,3.53,0,0,1,84,31.08a3.58,3.58,0,0,1,4.9,1.32,4,4,0,0,1,.44,1.8l0,.9v6.3l0,.9A2.76,2.76,0,0,0,92.1,45l.9,0V34.2A7.19,7.19,0,0,0,85.81,27Z"/>
    <path class="585d175a-c880-4f45-bf67-7732a46ffccd" d="M57.94,27a9,9,0,0,0-6.35,15.36v0A9,9,0,1,0,57.94,27Zm3.82,12.82a5.4,5.4,0,0,1-7.62,0h0a5.4,5.4,0,0,1,7.62-7.65h0A5.42,5.42,0,0,1,61.76,39.82Z"/>
  </g>
</svg>
