<svg xmlns="http://www.w3.org/2000/svg" viewBox="0 0 48 48"><title>REST</title><g id="Warstwa_1" data-name="Warstwa 1"><circle cx="24" cy="24" r="19.82" style="fill:#009ada"/><path d="M13.61,22.93a3.57,3.57,0,0,0,.64-.08A2.55,2.55,0,0,0,15,22.6a1.8,1.8,0,0,0,.64-.53,1.31,1.31,0,0,0,.27-.85V16.39A2.79,2.79,0,0,1,16.25,15a3.55,3.55,0,0,1,.83-1,3.34,3.34,0,0,1,1-.6,2.79,2.79,0,0,1,.93-.19h2.22v2H19.9a1.68,1.68,0,0,0-.81.17,1.31,1.31,0,0,0-.47.43,1.39,1.39,0,0,0-.19.55,3.6,3.6,0,0,0,0,.56v4.58a2.25,2.25,0,0,1-.27,1.17,2.36,2.36,0,0,1-.64.75,2.63,2.63,0,0,1-.78.4A3.86,3.86,0,0,1,16,24V24a3.54,3.54,0,0,1,.7.12,2.12,2.12,0,0,1,.78.36,2.15,2.15,0,0,1,.64.77,2.84,2.84,0,0,1,.27,1.35v4.44a3.6,3.6,0,0,0,0,.56,1.34,1.34,0,0,0,.19.55,1.31,1.31,0,0,0,.47.43,1.68,1.68,0,0,0,.81.17h1.35v2H19a2.79,2.79,0,0,1-.93-.19,3.34,3.34,0,0,1-1-.6,3.55,3.55,0,0,1-.83-1,2.79,2.79,0,0,1-.34-1.42V27a1.55,1.55,0,0,0-.27-.95,2,2,0,0,0-.64-.57,2.36,2.36,0,0,0-.75-.28,3.57,3.57,0,0,0-.64-.08Z" style="fill:#fff"/><path d="M34.39,25.07a3.66,3.66,0,0,0-.66.08,3.08,3.08,0,0,0-.76.25,1.74,1.74,0,0,0-.62.53,1.37,1.37,0,0,0-.26.85v4.83A2.79,2.79,0,0,1,31.75,33a3.55,3.55,0,0,1-.83,1,3.34,3.34,0,0,1-1,.6,2.79,2.79,0,0,1-.93.19H26.75v-2H28.1a1.68,1.68,0,0,0,.81-.17,1.4,1.4,0,0,0,.47-.43,1.34,1.34,0,0,0,.19-.55,3.6,3.6,0,0,0,0-.56V26.49a2.3,2.3,0,0,1,.27-1.17,2.09,2.09,0,0,1,.64-.73,2.59,2.59,0,0,1,.78-.39A4.12,4.12,0,0,1,32,24V24a4.62,4.62,0,0,1-.7-.13,2.12,2.12,0,0,1-.78-.36,2.15,2.15,0,0,1-.64-.77,2.84,2.84,0,0,1-.27-1.35V16.93a3.6,3.6,0,0,0,0-.56,1.24,1.24,0,0,0-.66-1,1.68,1.68,0,0,0-.81-.17H26.75v-2H29a2.79,2.79,0,0,1,.93.19,3.34,3.34,0,0,1,1,.6,3.55,3.55,0,0,1,.83,1,2.79,2.79,0,0,1,.34,1.42v4.66a1.62,1.62,0,0,0,.26.95,1.77,1.77,0,0,0,.62.57,2.26,2.26,0,0,0,.76.28,3.66,3.66,0,0,0,.66.08Z" style="fill:#fff"/></g></svg>