<svg xmlns="http://www.w3.org/2000/svg" viewBox="0 0 48 48"><title>merge</title><g id="Layer_5" data-name="Layer 5"><g id="Warstwa_1-2" data-name="Warstwa 1"><path d="M21.85,4.68V30.07a1.69,1.69,0,0,0,3.38,0V4.68Z" style="fill:#b2bfcf"/><path d="M23.54,31.2a1.14,1.14,0,0,1-1.13-1.13V5.23h2.25V30.07a1.13,1.13,0,0,1-1.12,1.13m2.25-1.13v-26H21.28v26a2.26,2.26,0,0,0,4.51,0Z" style="fill:#fff"/><path d="M10.87,11.65V15h5.92a5,5,0,0,1,5.1,4.89,3.79,3.79,0,0,1,0,.58v.56h.56l2.81.16v-.56a9.44,9.44,0,0,0-2.18-6.34,8.43,8.43,0,0,0-6.14-2.69H10.87Z" style="fill:#b2bfcf"/><path d="M24.71,20.65l-1.12-.06h0l-1.13-.07a5.58,5.58,0,0,0-5.64-6.06H11.33l0-2.23h5.6a7.91,7.91,0,0,1,5.75,2.49,9,9,0,0,1,2,5.95m-1.07-.07-1.13-.07h0l1.13.07m-1.13-.07h0m3.3,1.35.07-1.13A10.07,10.07,0,0,0,23.52,14,9,9,0,0,0,17,11.1H10.12l.07,4.5h6.6c4.41.26,4.6,3.78,4.55,4.87v.05l-.06,1.08h0l1.12.06,1.12.05,1.12.07,1.13.07Z" style="fill:#fff"/><path d="M30.47,11.54a8.69,8.69,0,0,0-6.41,2.64,9.46,9.46,0,0,0-2.23,6.36v10h3.38V20.44a6.07,6.07,0,0,1,1.36-4,5.44,5.44,0,0,1,4-1.52H38l.1-3.38Z" style="fill:#b2bfcf"/><path d="M24.62,30H22.37V20.46a8.81,8.81,0,0,1,2.08-5.94,8.06,8.06,0,0,1,6-2.45h7.08l0,2.25h-7a6,6,0,0,0-4.39,1.75,6.61,6.61,0,0,0-1.5,4.36V30M38.56,15.49V14.41l.1-2.25L38.71,11H30.44a9.22,9.22,0,0,0-6.79,2.82,10,10,0,0,0-2.38,6.72V31.09h4.52V20.38A5.55,5.55,0,0,1,27,16.84a4.82,4.82,0,0,1,3.58-1.35Z" style="fill:#fff"/><rect x="11.99" y="33.26" width="23.63" height="12.55" rx="1.31" ry="1.31" style="fill:#0093dd"/><path d="M16.92,39.54l-2-3h1.37l1.33,2.19,1.3-2.18h1.3l-1.94,3,2.28,3.37H19.13l-1.56-2.5-1.49,2.5H14.71Z" style="fill:#fff"/><path d="M21,36.57h1.77l1.65,4.53h0l1.64-4.53h1.78v6.37H26.79V37.82h0l-1.94,5.12H24l-1.87-5.12h0v5.12H21Z" style="fill:#fff"/><path d="M29.07,36.57H30.2v5.37h2.71v1H29.07Z" style="fill:#fff"/><polygon points="26.87 25.23 23.49 32.2 20.12 25.23 26.87 25.23" style="fill:#b2bfcf"/></g><circle cx="23.53" cy="5.31" r="2.82" style="fill:#fff;stroke:#b2bfcf;stroke-miterlimit:10"/><circle cx="35.21" cy="13.31" r="2.82" style="fill:#fff;stroke:#b2bfcf;stroke-miterlimit:10"/><circle cx="12.84" cy="13.31" r="2.82" style="fill:#fff;stroke:#b2bfcf;stroke-miterlimit:10"/></g></svg>