<svg xmlns="http://www.w3.org/2000/svg" viewBox="0 0 48 48"><defs><style>.cls-1{fill:#f0f0f0;}.cls-1,.cls-3{stroke:#b2bfcf;}.cls-1,.cls-2,.cls-3,.cls-4,.cls-5{stroke-linecap:round;}.cls-1,.cls-4,.cls-5{stroke-linejoin:round;}.cls-1,.cls-4{stroke-width:0.73px;}.cls-2,.cls-3,.cls-5{fill:none;stroke-width:1.45px;}.cls-2,.cls-4,.cls-5{stroke:#0093dd;}.cls-2,.cls-3{stroke-miterlimit:10;}.cls-4,.cls-6{fill:#fff;}.cls-7{fill:#0093dd;}</style></defs><title>tcpserver</title><g id="Warstwa_1" data-name="Warstwa 1"><rect class="cls-1" x="4.21" y="23.22" width="29.26" height="9.42" rx="1.45" ry="1.45"/><line class="cls-2" x1="25.43" y1="29.03" x2="26.25" y2="29.03"/><line class="cls-2" x1="28.94" y1="29.03" x2="30.58" y2="29.03"/><rect class="cls-1" x="4.21" y="13.8" width="29.26" height="9.42" rx="1.45" ry="1.45"/><rect class="cls-1" x="4.21" y="4.38" width="29.26" height="9.42" rx="1.45" ry="1.45"/><line class="cls-3" x1="27.49" y1="9.1" x2="29.13" y2="9.1"/><line class="cls-3" x1="27.49" y1="18.22" x2="29.13" y2="18.22"/><line class="cls-3" x1="23.16" y1="9.09" x2="24.8" y2="9.09"/><circle class="cls-4" cx="18.84" cy="18.51" r="6.6"/><rect class="cls-1" x="7.07" y="7.94" width="2.18" height="2.18"/><rect class="cls-1" x="7.07" y="17.42" width="2.18" height="2.18"/><rect class="cls-1" x="7.07" y="26.84" width="2.18" height="2.18"/><polyline class="cls-5" points="17.39 15.92 14.81 18.49 17.42 21.1"/><polyline class="cls-5" points="20.29 15.92 22.86 18.49 20.26 21.1"/><rect class="cls-6" x="21.48" y="31.25" width="24.67" height="13.06" rx="2.79" ry="2.79"/><path class="cls-7" d="M26,35H23.4V33.66H30V35H27.43v7H26Z"/><path class="cls-7" d="M36.8,35.59a2.31,2.31,0,0,0-1.87-.85,2.84,2.84,0,0,0-2.86,3,2.77,2.77,0,0,0,2.8,3,2.41,2.41,0,0,0,2-1l1.18.83a3.88,3.88,0,0,1-3.19,1.44,4.34,4.34,0,1,1,.07-8.67,3.85,3.85,0,0,1,3,1.26Z"/><path class="cls-7" d="M39,33.65h2.69c1.89,0,3.12.67,3.12,2.39s-1.46,2.45-3.21,2.45H40.43V41.9H39Zm2.5,3.6c.95,0,1.83-.23,1.83-1.21s-.88-1.15-1.79-1.15H40.43v2.36Z"/></g></svg>