<svg xmlns="http://www.w3.org/2000/svg" viewBox="0 0 48 48"><title>as3</title><g id="Warstwa_1" data-name="Warstwa 1"><path d="M14.12,7.19l8,0a1.79,1.79,0,0,1,1.23.52l7.92,8A1.83,1.83,0,0,1,31.81,17l0,2.16s5.09.47,6.52,5.19l0-13.84L31,3.48S15.41,3,14.61,3.73,14.12,7.19,14.12,7.19Z" style="fill:#f0f0f0"/><path d="M14.12,6.83v-2a1.45,1.45,0,0,1,1.46-1.45l15.72.12,7.24,7.28-.07,16" style="fill:none;stroke:#b2bfcf;stroke-linecap:round;stroke-linejoin:round;stroke-width:0.7260000000000001px"/><polyline points="31.08 3.36 31.15 10.62 38.41 10.55" style="fill:none;stroke:#b2bfcf;stroke-linecap:round;stroke-linejoin:round;stroke-width:0.7260000000000001px"/><path d="M18.06,39.4l-12,0a1.45,1.45,0,0,1-1.45-1.45l0-27A1.45,1.45,0,0,1,6.12,9.44l15.72.09,7.26,7.26v2.34" style="fill:#fff;stroke:#009ada;stroke-linecap:round;stroke-linejoin:round;stroke-width:0.7260000000000001px"/><polyline points="11.44 13.25 16.29 18.25 11.22 23.18" style="fill:none;stroke:#009ada;stroke-linecap:round;stroke-linejoin:round;stroke-width:1.4520000000000002px"/><path d="M15,12.87l3.89,4a1.84,1.84,0,0,1,0,2.61l-4.07,4" style="fill:none;stroke:#009ada;stroke-linecap:round;stroke-linejoin:round;stroke-width:1.4520000000000002px"/><polyline points="21.92 9.74 21.81 17 29.07 17.11" style="fill:none;stroke:#009ada;stroke-linecap:round;stroke-linejoin:round;stroke-width:0.7260000000000001px"/><path d="M30.94,22.2h0a4.66,4.66,0,0,0-4.66,4.66v2.51H35.6V26.86A4.66,4.66,0,0,0,30.94,22.2Z" style="fill:none;stroke:#009ada;stroke-linecap:round;stroke-linejoin:round;stroke-width:2.178px"/><rect x="20.12" y="28.1" width="21.63" height="14.46" rx="1.45" ry="1.45" style="fill:#009ada"/><path d="M30.8,21.24A5.76,5.76,0,0,1,36.55,27v1.25h3.61a1.45,1.45,0,0,1,1.45,1.45V41.23a1.45,1.45,0,0,1-1.45,1.45H21.45A1.45,1.45,0,0,1,20,41.24V29.69a1.44,1.44,0,0,1,1.45-1.45h3.61V27a5.76,5.76,0,0,1,5.74-5.75h0m-3.57,7h7.14V27a3.57,3.57,0,0,0-3.57-3.56h0A3.57,3.57,0,0,0,27.23,27v1.24m3.57-9.17h0a7.94,7.94,0,0,0-7.86,7H21.44a3.62,3.62,0,0,0-3.63,3.63V41.24a3.64,3.64,0,0,0,3.63,3.63H40.17a3.64,3.64,0,0,0,3.63-3.63V29.67A3.64,3.64,0,0,0,40.16,26H38.67a7.94,7.94,0,0,0-7.87-7Zm-1,7a1.37,1.37,0,0,1,1-.45,1.41,1.41,0,0,1,1,.45Z" style="fill:#fff"/><path d="M24.53,31.56h1.11l3.1,7.2H27.27l-.67-1.65H23.48l-.65,1.65H21.4ZM26.15,36l-1.1-2.93L23.92,36Z" style="fill:#fff"/><path d="M33.12,33.06a1.8,1.8,0,0,0-1.32-.62c-.59,0-1.27.29-1.27,1s.55.85,1.37,1.11,2.1.69,2.1,2.1a2.33,2.33,0,0,1-2.62,2.3,3.28,3.28,0,0,1-2.47-1l.91-.85a2.05,2.05,0,0,0,1.58.79c.6,0,1.3-.29,1.3-1.07s-.75-1-1.66-1.25-1.82-.7-1.82-2,1.34-2.11,2.64-2.11a3.13,3.13,0,0,1,2.09.77Z" style="fill:#fff"/><path d="M36.64,34.52H37c.72,0,1.53-.21,1.53-1.09a1,1,0,0,0-1.13-1,1.16,1.16,0,0,0-1.15.93L35.07,33a2.34,2.34,0,0,1,2.35-1.64,2,2,0,0,1,2.31,2A1.64,1.64,0,0,1,38.44,35v0a1.74,1.74,0,0,1,1.49,1.72,2.3,2.3,0,0,1-2.51,2.22,2.51,2.51,0,0,1-2.62-1.7l1.14-.35a1.44,1.44,0,0,0,1.44,1,1.18,1.18,0,0,0,1.32-1.19c0-.93-1-1.22-1.75-1.22h-.31Z" style="fill:#fff"/><path d="M28.76,27.22s.77-2.36.91-2.56a14.52,14.52,0,0,1,2.95,0v2.12Z" style="fill:#fff"/><polyline points="17.69 33.4 15.29 31 20.29 26" style="fill:none;stroke:#009ada;stroke-linecap:round;stroke-linejoin:round;stroke-width:1.4520000000000002px"/><path d="M16.63,36.35l-3.94-3.94a1.86,1.86,0,0,1,0-2.62l4-4" style="fill:none;stroke:#009ada;stroke-linecap:round;stroke-linejoin:round;stroke-width:1.4520000000000002px"/></g></svg>