<svg xmlns="http://www.w3.org/2000/svg" viewBox="0 0 48 48"><title>zip</title><g id="Warstwa_1" data-name="Warstwa 1"><path d="M43.66,35.05H11.23A1.45,1.45,0,0,1,9.78,33.6V6.8a.72.72,0,0,1,.72-.73H21l3.21,3.55H39.63a5.48,5.48,0,0,1,5.48,5.48V33.6A1.45,1.45,0,0,1,43.66,35.05Z" style="fill:#e9edf2;stroke:#b2bfcf;stroke-miterlimit:10;stroke-width:0.7260000000000001px"/><path d="M39,39.75H6.52A1.45,1.45,0,0,1,5.07,38.3V12.16a.73.73,0,0,1,.73-.72H18.5l2.73,2.9H39a1.45,1.45,0,0,1,1.45,1.45V38.3A1.45,1.45,0,0,1,39,39.75Z" style="fill:#fff;stroke:#009ada;stroke-linecap:round;stroke-linejoin:round;stroke-width:0.7260000000000001px"/><path d="M18.5,11.08a.39.39,0,0,1,.27.11L21.38,14H39a1.82,1.82,0,0,1,1.82,1.81V38.3A1.83,1.83,0,0,1,39,40.12H6.52A1.82,1.82,0,0,1,4.71,38.3V12.12a1.1,1.1,0,0,1,1.08-1H18.5m0-2.18H5.79a3.28,3.28,0,0,0-3.26,3.22V38.3a4,4,0,0,0,4,4H39a4,4,0,0,0,4-4V15.79a4,4,0,0,0-4-4H22.33l-2-2.1a2.58,2.58,0,0,0-1.86-.8Z" style="fill:#fff"/><path d="M24.25,40.11H6.6a2.14,2.14,0,0,1-1.86-2.33v-7a1.18,1.18,0,0,1,1.09-1.26H23.16a1.18,1.18,0,0,1,1.09,1.26Z" style="fill:#009ada"/><path d="M7.24,37.27l3.91-4.92H7.3V31.23h5.38v1.16l-3.93,4.9h4v1.14H7.24Z" style="fill:#fff"/><path d="M14.14,31.23h1.28v7.2H14.14Z" style="fill:#fff"/><path d="M17.26,31.23h2.35c1.65,0,2.71.58,2.71,2.09s-1.27,2.13-2.79,2.13h-1v3H17.26Zm2.18,3.14c.83,0,1.59-.2,1.59-1s-.76-1-1.55-1h-.94v2.06Z" style="fill:#fff"/><rect x="30.13" y="14.69" width="2.9" height="2.18" style="fill:#009ada"/><rect x="33.03" y="16.87" width="2.9" height="2.18" style="fill:#009ada"/><rect x="30.13" y="19.05" width="2.9" height="2.18" style="fill:#009ada"/><rect x="33.03" y="21.22" width="2.9" height="2.18" style="fill:#009ada"/><rect x="30.13" y="23.42" width="2.9" height="2.18" style="fill:#009ada"/><path d="M30.13,25.6h5.81a0,0,0,0,1,0,0v3.19a2.9,2.9,0,0,1-2.9,2.9h0a2.9,2.9,0,0,1-2.9-2.9V25.6a0,0,0,0,1,0,0Z" style="fill:#009ada"/><path d="M31.94,27.18h2.18a0,0,0,0,1,0,0v1.58A1.09,1.09,0,0,1,33,29.85h0a1.09,1.09,0,0,1-1.09-1.09V27.18A0,0,0,0,1,31.94,27.18Z" style="fill:#fff"/></g></svg>