<svg xmlns="http://www.w3.org/2000/svg" viewBox="0 0 48 48"><title>eancom</title><g id="Warstwa_1" data-name="Warstwa 1"><path d="M18.18,9.91l8.27,0h2.14c2.28,0,3.34.65,3.36,2.93l-.85,4.6L32,37h8.83a1.49,1.49,0,0,0,1.49-1.49V12.19a2.27,2.27,0,0,0-.72-1.66l-6-5.76a2.29,2.29,0,0,0-1.53-.63c-3.31-.09-14.78-.32-15.46.32S18.18,9.91,18.18,9.91Z" style="fill:#f0f0f0"/><polyline points="35.3 4.16 35.3 11.42 42.56 11.42" style="fill:none;stroke:#b2bfcf;stroke-linecap:round;stroke-linejoin:round;stroke-width:0.7260000000000001px"/><path d="M18.13,9.18V5.54a1.45,1.45,0,0,1,1.45-1.45l15.72.07,7.26,7.25,0,13.5V35.58A1.45,1.45,0,0,1,41.09,37H32.91" style="fill:none;stroke:#b2bfcf;stroke-linecap:round;stroke-linejoin:round;stroke-width:0.7260000000000001px"/><path d="M19.33,44.12h-12a1.51,1.51,0,0,1-1.45-1.57V13.27a1.52,1.52,0,0,1,1.45-1.58l21.54.07a1.53,1.53,0,0,1,1.45,1.58V42.55a1.51,1.51,0,0,1-1.45,1.57Z" style="fill:#fff;stroke:#009ada;stroke-linecap:round;stroke-linejoin:round;stroke-width:0.7260000000000001px"/><path d="M5.91,35.45H30.35V43c0,.56-.61,1-1.36,1H7.27c-.75,0-1.36-.45-1.36-1Z" style="fill:#009ada"/><path d="M7.39,11.33l21.54.07a1.89,1.89,0,0,1,1.81,2V42.51a1.9,1.9,0,0,1-1.81,2H7.39a1.91,1.91,0,0,1-1.82-2V13.29a1.9,1.9,0,0,1,1.82-2m0-2.18h0a4.08,4.08,0,0,0-4,4.14V42.51a4.08,4.08,0,0,0,4,4.14H28.92a4.07,4.07,0,0,0,4-4.14V13.36a4.08,4.08,0,0,0-4-4.14L7.39,9.15Z" style="fill:#fff"/><path d="M7.11,38.08H9.45v.55H7.74v.9H9.36v.53H7.74v1h1.8v.56H7.11Z" style="fill:#fff"/><path d="M11.27,38.08h.54l1.52,3.53h-.72l-.33-.8H10.75l-.32.8h-.7Zm.79,2.19-.54-1.44L11,40.27Z" style="fill:#fff"/><path d="M13.68,38.08h.83l1.65,2.65h0V38.08h.63v3.53H16l-1.68-2.73h0v2.73h-.63Z" style="fill:#fff"/><path d="M20.13,38.91a1,1,0,0,0-.81-.37,1.22,1.22,0,0,0-1.22,1.3,1.18,1.18,0,0,0,1.2,1.3,1,1,0,0,0,.85-.41l.51.36a1.69,1.69,0,0,1-1.37.61,1.86,1.86,0,1,1,0-3.71,1.64,1.64,0,0,1,1.28.54Z" style="fill:#fff"/><path d="M22.71,38a1.78,1.78,0,0,1,1.91,1.85,1.9,1.9,0,0,1-3.8,0A1.77,1.77,0,0,1,22.71,38Zm0,3.15a1.3,1.3,0,0,0,0-2.6,1.3,1.3,0,0,0,0,2.6Z" style="fill:#fff"/><path d="M25.23,38.08h1l.92,2.51h0l.91-2.51h1v3.53h-.62V38.77h0l-1.08,2.84h-.44l-1.05-2.84h0v2.84h-.6Z" style="fill:#fff"/><rect x="10.34" y="25.33" width="5.5" height="5.5" style="fill:#fff;stroke:#009ada;stroke-linecap:round;stroke-linejoin:round;stroke-width:1.4520000000000002px"/><rect x="20.4" y="16.36" width="5.5" height="5.5" style="fill:#fff;stroke:#009ada;stroke-linecap:round;stroke-linejoin:round;stroke-width:1.4520000000000002px"/><polyline points="10.34 22.22 10.34 18.82 13.31 18.82" style="fill:none;stroke:#009ada;stroke-linecap:round;stroke-linejoin:round;stroke-width:1.4520000000000002px"/><polyline points="15.14 16.68 17.17 18.71 15.12 20.76" style="fill:none;stroke:#009ada;stroke-linecap:round;stroke-linejoin:round;stroke-width:1.4520000000000002px"/><polyline points="25.95 25.09 25.95 28.86 22.98 28.86" style="fill:none;stroke:#009ada;stroke-linecap:round;stroke-linejoin:round;stroke-width:1.4520000000000002px"/><polyline points="21.15 31 19.12 28.97 21.17 26.92" style="fill:none;stroke:#009ada;stroke-linecap:round;stroke-linejoin:round;stroke-width:1.4520000000000002px"/></g></svg>