<svg id="Layer_1" data-name="Layer 1" xmlns="http://www.w3.org/2000/svg" viewBox="0 0 48 48"><defs><style>.cls-1{fill:#004990;}.cls-2{fill:#fff;}</style></defs><title>SAP</title><g id="g2412"><g id="g2699"><g id="g2476"><path id="path2478" class="cls-1" d="M1,35.58h23.1L46.75,13H1v22.6"/></g><path id="path2482" class="cls-2" d="M28.44,23.8h-1V20.17h1c1.32,0,2.37.44,2.37,1.79s-1.05,1.83-2.37,1.83M17.78,26.38a4.05,4.05,0,0,1-1.44-.26l1.43-4.5h0l1.4,4.51A4.13,4.13,0,0,1,17.78,26.38Zm10.4-9.15h-4.5V27.92L19.75,17.23h-3.9L12.5,26.17c-.35-2.25-2.69-3-4.53-3.61-1.21-.39-2.49-1-2.48-1.6s.69-1,2-.93a7.3,7.3,0,0,1,3.29.89l1.57-2.72A12.2,12.2,0,0,0,7.29,17h0a6.17,6.17,0,0,0-4.5,1.64A3.79,3.79,0,0,0,1.7,21.26,3.53,3.53,0,0,0,3.25,24.4a10.53,10.53,0,0,0,3.06,1.4c1.24.39,2.27.72,2.25,1.44a1,1,0,0,1-.3.7,2,2,0,0,1-1.45.46,6.26,6.26,0,0,1-3.72-1.06L1.7,30.09A10.38,10.38,0,0,0,6.8,31.45H7a6.15,6.15,0,0,0,3.87-1.3l.16-.14-.45,1.2H14.7l.68-2.08a7.8,7.8,0,0,0,4.75,0l.66,2.06h6.66V26.89H28.9c3.51,0,5.59-1.79,5.59-4.79,0-3.34-2-4.87-6.32-4.87"/><g id="g2484"><path id="path2486" class="cls-1" d="M30.6,34v-.53H31c.17,0,.36,0,.36.25s-.19.27-.4.27Zm0,.22h.29l.45.73h.29l-.48-.74a.44.44,0,0,0,.44-.46c0-.34-.2-.49-.6-.49h-.64V35h.25Zm.31,1.35a1.47,1.47,0,1,0-1.49-1.48A1.47,1.47,0,0,0,30.91,35.62Zm-1.2-1.48a1.19,1.19,0,1,1,1.2,1.23,1.19,1.19,0,0,1-1.2-1.23"/></g></g></g></svg>