<svg xmlns="http://www.w3.org/2000/svg" viewBox="0 0 48 48"><title>xmlmap</title><g id="Warstwa_1" data-name="Warstwa 1"><rect x="6.01" y="7.89" width="35.73" height="3.26" rx="1.63" ry="1.63" style="fill:#e9edf2;stroke:#b2bfcf;stroke-linejoin:round;stroke-width:0.7260000000000001px"/><rect x="6.01" y="15.23" width="35.73" height="3.26" rx="1.63" ry="1.63" style="fill:#e9edf2;stroke:#b2bfcf;stroke-linejoin:round;stroke-width:0.7260000000000001px"/><rect x="6.01" y="22.57" width="35.73" height="3.26" rx="1.63" ry="1.63" style="fill:#e9edf2;stroke:#b2bfcf;stroke-linejoin:round;stroke-width:0.7260000000000001px"/><path d="M8,25.74A1.74,1.74,0,0,1,6.1,24.2,1.73,1.73,0,0,1,8,22.66H23.56a3.48,3.48,0,0,0,2.18-.74l6.4-5.06-6.4-5.07a3.53,3.53,0,0,0-2.18-.73H8A1.73,1.73,0,0,1,6.1,9.52,1.73,1.73,0,0,1,8,8H23.56a7.71,7.71,0,0,1,4.78,1.6l6.33,5a3.56,3.56,0,0,0,2.19.73h2.78a1.73,1.73,0,0,1,1.88,1.54,1.73,1.73,0,0,1-1.88,1.54H36.86a3.56,3.56,0,0,0-2.19.73l-6.33,5a7.71,7.71,0,0,1-4.78,1.6Z" style="fill:#fff"/><path d="M23.56,8.35a7.42,7.42,0,0,1,4.56,1.51l6.33,5a3.91,3.91,0,0,0,2.41.81h2.78a1.38,1.38,0,0,1,1.52,1.18A1.38,1.38,0,0,1,39.64,18H36.86a3.85,3.85,0,0,0-2.41.81l-6.33,5a7.36,7.36,0,0,1-4.56,1.52H8A1.39,1.39,0,0,1,6.47,24.2,1.39,1.39,0,0,1,8,23H23.56A3.91,3.91,0,0,0,26,22.21l6-4.78.72-.57L32,16.29l-6-4.78a3.91,3.91,0,0,0-2.41-.81H8A1.39,1.39,0,0,1,6.47,9.52,1.39,1.39,0,0,1,8,8.35H23.56m0-.73H8a2.09,2.09,0,0,0-2.24,1.9A2.09,2.09,0,0,0,8,11.42H23.56a3.19,3.19,0,0,1,2,.66l6,4.78-6,4.78a3.19,3.19,0,0,1-2,.65H8A2.1,2.1,0,0,0,5.74,24.2,2.09,2.09,0,0,0,8,26.1H23.56a8.11,8.11,0,0,0,5-1.68l6.33-5a3.11,3.11,0,0,1,2-.66h2.78a2.09,2.09,0,0,0,2.24-1.9A2.09,2.09,0,0,0,39.64,15H36.86a3.17,3.17,0,0,1-2-.66l-6.33-5a8,8,0,0,0-5-1.68Z" style="fill:#b2bfcf"/><path d="M40.16,22.29H23.44a2.42,2.42,0,0,1-1.66-.65l-5.38-5A6.22,6.22,0,0,0,12.14,15H7.33a1.9,1.9,0,0,0,0,3.8h4.81a2.43,2.43,0,0,1,1.67.66l5.37,5A6.22,6.22,0,0,0,22.65,26a1.61,1.61,0,0,0,.44.06H40.16a1.91,1.91,0,1,0,0-3.81Z" style="fill:#fff;stroke:#009ada;stroke-linecap:round;stroke-linejoin:round;stroke-width:0.7260000000000001px"/><rect x="21.96" y="29.34" width="20.97" height="11.13" rx="1.17" ry="1.17" style="fill:#009ada"/><path d="M26.75,34.55,25,31.91h1.22l1.16,1.94,1.15-1.94h1.16L28,34.57l2,3H28.72l-1.39-2.22L26,37.57H24.79Z" style="fill:#fff"/><path d="M30.41,31.91H32l1.47,4h0l1.45-4h1.59v5.66h-1V33h0l-1.71,4.55h-.71L31.38,33h0v4.55h-.95Z" style="fill:#fff"/><path d="M37.53,31.91h1v4.76h2.4v.9H37.53Z" style="fill:#fff"/></g></svg>