<svg xmlns="http://www.w3.org/2000/svg" viewBox="0 0 48 48"><title>rnif</title><g id="Warstwa_1" data-name="Warstwa 1"><path d="M17.69,9.57l8.42,0h2.14c2.28,0,3.34.66,3.36,2.93l-.85,4.6.94,19.68,8.83-.06A1.49,1.49,0,0,0,42,35.2V11.85a2.31,2.31,0,0,0-.72-1.67l-6-5.75a2.3,2.3,0,0,0-1.53-.64c-3.31-.08-14.78-.31-15.46.33S17.69,9.57,17.69,9.57Z" style="fill:#f0f0f0"/><polyline points="34.96 3.81 34.96 11.07 42.22 11.07" style="fill:none;stroke:#b2bfcf;stroke-linecap:round;stroke-linejoin:round;stroke-width:0.7260000000000001px"/><path d="M17.79,8.06V5.2a1.45,1.45,0,0,1,1.45-1.46L35,3.81l7.26,7.26,0,13.5V35.24a1.45,1.45,0,0,1-1.45,1.45H32.93" style="fill:none;stroke:#b2bfcf;stroke-linecap:round;stroke-linejoin:round;stroke-width:0.7260000000000001px"/><path d="M19,43.78H7A1.52,1.52,0,0,1,5.57,42.2V12.92A1.51,1.51,0,0,1,7,11.35l21.54.07A1.5,1.5,0,0,1,30,13V42.2a1.52,1.52,0,0,1-1.45,1.58Z" style="fill:#fff;stroke:#009ada;stroke-linecap:round;stroke-linejoin:round;stroke-width:0.7260000000000001px"/><path d="M5.57,33H30v9.36a1.32,1.32,0,0,1-1.36,1.27H6.93a1.31,1.31,0,0,1-1.36-1.27Z" style="fill:#009ada"/><path d="M7,11,28.56,11a1.91,1.91,0,0,1,1.81,2V42.21a1.9,1.9,0,0,1-1.81,2H7a1.91,1.91,0,0,1-1.82-2V12.93A1.9,1.9,0,0,1,7,11M7,8.78H7a4.08,4.08,0,0,0-4,4.15V42.21a4.08,4.08,0,0,0,4,4.14H28.55a4.07,4.07,0,0,0,4-4.14V13a4.09,4.09,0,0,0-4-4.15L7,8.78Z" style="fill:#fff"/><path d="M7.18,34.85h2.5c1.35,0,2.65.54,2.65,2.06a1.92,1.92,0,0,1-1.65,2l1.92,3.19H11.06L9.39,39H8.46v3H7.18ZM9.5,38c.72,0,1.55-.17,1.55-1.05s-.77-1-1.44-1H8.46v2Z" style="fill:#fff"/><path d="M13.57,34.85h1.7l3.34,5.39h0V34.85h1.28v7.2H18.28l-3.41-5.56h0v5.56H13.57Z" style="fill:#fff"/><path d="M21.5,34.85h1.28v7.2H21.5Z" style="fill:#fff"/><path d="M24.36,34.85H29V36H25.64v2h3.17V39H25.64v3H24.36Z" style="fill:#fff"/><path d="M23,20.76c-.59-3.92-3.36-5.34-5.78-5.34a5.25,5.25,0,0,0-4.42,2.41,25.15,25.15,0,0,1,6.53,1.44A33.65,33.65,0,0,1,23,20.76Z" style="fill:none"/><path d="M12,23c.59,3.86,3.4,5.66,5.91,5.66a4.78,4.78,0,0,0,4.2-2.34,25.14,25.14,0,0,1-5.82-1.45A30.51,30.51,0,0,1,12,23Z" style="fill:none"/><path d="M23.12,21.52a21.54,21.54,0,0,0-4.93-2.14,25,25,0,0,0-5.58-1.14,7.09,7.09,0,0,0-.69,3.27c0,.23,0,.44,0,.66a25.55,25.55,0,0,0,3,1.47,22.83,22.83,0,0,0,7.59,1.89,8.13,8.13,0,0,0,.59-3.16C23.15,22.07,23.14,21.79,23.12,21.52Z" style="fill:none"/><path d="M9.2,19.22c-.09.26,0,.9,1.09,1.81a7.3,7.3,0,0,1,.94-2.79C10,18.34,9.36,18.69,9.2,19.22Z" style="fill:none"/><path d="M25.71,24.88c.41-.44.08-1.22-.89-2.11a7.66,7.66,0,0,1-.76,2.72A2.73,2.73,0,0,0,25.71,24.88Z" style="fill:none"/><path d="M23.12,21.52c0-.26-.05-.51-.09-.76a33.65,33.65,0,0,0-3.67-1.49,25.15,25.15,0,0,0-6.53-1.44c-.08.13-.15.27-.22.41a25,25,0,0,1,5.58,1.14A21.54,21.54,0,0,1,23.12,21.52Z" style="fill:#009ada"/><path d="M17.94,28.7c-2.68,0-5.32-1.8-5.91-5.66a13.17,13.17,0,0,1-1.82-1.17c0,.15,0,.29,0,.44,0,5.24,4.06,7.14,7.33,7.14a7.38,7.38,0,0,0,5.93-3q-.62,0-1.32-.09A4.78,4.78,0,0,1,17.94,28.7Z" style="fill:#b2bfcf"/><path d="M24.86,21.79c0-5.48-4.77-7-7.33-7a6.94,6.94,0,0,0-6,3.05,4.94,4.94,0,0,0-.27.42A7.3,7.3,0,0,0,10.29,21a12,12,0,0,0,1.65,1.14c0-.22,0-.43,0-.66a7.09,7.09,0,0,1,.69-3.27c.07-.14.14-.28.22-.41a5,5,0,0,1,4.42-2.41c2.42,0,5.19,1.42,5.78,5.34,0,.25.07.5.09.76s0,.55,0,.85a8.13,8.13,0,0,1-.59,3.16,10.23,10.23,0,0,0,1.5,0,7.66,7.66,0,0,0,.76-2.72,8.69,8.69,0,0,0,.05-.89S24.86,21.82,24.86,21.79Z" style="fill:#b2bfcf"/><path d="M24.86,21.79s0,.06,0,.09a8.69,8.69,0,0,1-.05.89c1,.89,1.3,1.67.89,2.11a2.73,2.73,0,0,1-1.65.61,10.23,10.23,0,0,1-1.5,0A22.83,22.83,0,0,1,15,23.64a25.55,25.55,0,0,1-3-1.47A12,12,0,0,1,10.29,21c-1.07-.91-1.18-1.55-1.09-1.81.16-.53.84-.88,2-1a4.94,4.94,0,0,1,.27-.42c-1.85.09-2.83.64-3,1.21s0,1.54,1.67,2.84A13.17,13.17,0,0,0,12,23a30.51,30.51,0,0,0,4.29,1.87,25.14,25.14,0,0,0,5.82,1.45q.7.08,1.32.09c2.34.06,3.65-.52,3.87-1.1S27.25,23.34,24.86,21.79Z" style="fill:#009ada"/></g></svg>