<svg xmlns="http://www.w3.org/2000/svg" viewBox="0 0 48 48"><title>tsv</title><g id="Warstwa_1" data-name="Warstwa 1"><rect x="38.89" y="7.38" width="4.6" height="2.36" style="fill:#e9edf2;stroke:#b2bfcf;stroke-linejoin:round;stroke-width:0.36300000000000004px"/><rect x="38.89" y="12.23" width="4.6" height="2.36" style="fill:#e9edf2;stroke:#b2bfcf;stroke-linejoin:round;stroke-width:0.36300000000000004px"/><rect x="38.89" y="17.07" width="4.6" height="2.36" style="fill:#e9edf2;stroke:#b2bfcf;stroke-linejoin:round;stroke-width:0.36300000000000004px"/><rect x="38.89" y="21.92" width="4.6" height="2.36" style="fill:#e9edf2;stroke:#b2bfcf;stroke-linejoin:round;stroke-width:0.36300000000000004px"/><rect x="33.16" y="7.38" width="4.6" height="2.36" style="fill:#e9edf2;stroke:#b2bfcf;stroke-linejoin:round;stroke-width:0.36300000000000004px"/><rect x="33.16" y="12.23" width="4.6" height="2.36" style="fill:#e9edf2;stroke:#b2bfcf;stroke-linejoin:round;stroke-width:0.36300000000000004px"/><rect x="33.16" y="17.07" width="4.6" height="2.36" style="fill:#e9edf2;stroke:#b2bfcf;stroke-linejoin:round;stroke-width:0.36300000000000004px"/><rect x="33.16" y="21.92" width="4.6" height="2.36" style="fill:#e9edf2;stroke:#b2bfcf;stroke-linejoin:round;stroke-width:0.36300000000000004px"/><rect x="27.43" y="7.38" width="4.6" height="2.36" style="fill:#e9edf2;stroke:#b2bfcf;stroke-linejoin:round;stroke-width:0.36300000000000004px"/><rect x="27.43" y="12.23" width="4.6" height="2.36" style="fill:#e9edf2;stroke:#b2bfcf;stroke-linejoin:round;stroke-width:0.36300000000000004px"/><rect x="27.43" y="17.07" width="4.6" height="2.36" style="fill:#e9edf2;stroke:#b2bfcf;stroke-linejoin:round;stroke-width:0.36300000000000004px"/><rect x="27.43" y="21.92" width="4.6" height="2.36" style="fill:#e9edf2;stroke:#b2bfcf;stroke-linejoin:round;stroke-width:0.36300000000000004px"/><rect x="21.7" y="7.38" width="4.6" height="2.36" style="fill:#e9edf2;stroke:#b2bfcf;stroke-linejoin:round;stroke-width:0.36300000000000004px"/><rect x="21.7" y="12.23" width="4.6" height="2.36" style="fill:#e9edf2;stroke:#b2bfcf;stroke-linejoin:round;stroke-width:0.36300000000000004px"/><rect x="21.7" y="17.07" width="4.6" height="2.36" style="fill:#e9edf2;stroke:#b2bfcf;stroke-linejoin:round;stroke-width:0.36300000000000004px"/><rect x="21.7" y="21.92" width="4.6" height="2.36" style="fill:#e9edf2;stroke:#b2bfcf;stroke-linejoin:round;stroke-width:0.36300000000000004px"/><rect x="15.97" y="7.38" width="4.6" height="2.36" style="fill:#e9edf2;stroke:#b2bfcf;stroke-linejoin:round;stroke-width:0.36300000000000004px"/><rect x="15.97" y="12.23" width="4.6" height="2.36" style="fill:#e9edf2;stroke:#b2bfcf;stroke-linejoin:round;stroke-width:0.36300000000000004px"/><rect x="15.97" y="17.07" width="4.6" height="2.36" style="fill:#e9edf2;stroke:#b2bfcf;stroke-linejoin:round;stroke-width:0.36300000000000004px"/><rect x="15.97" y="21.92" width="4.6" height="2.36" style="fill:#e9edf2;stroke:#b2bfcf;stroke-linejoin:round;stroke-width:0.36300000000000004px"/><rect x="10.24" y="7.38" width="4.6" height="2.36" style="fill:#e9edf2;stroke:#b2bfcf;stroke-linejoin:round;stroke-width:0.36300000000000004px"/><rect x="10.24" y="12.23" width="4.6" height="2.36" style="fill:#e9edf2;stroke:#b2bfcf;stroke-linejoin:round;stroke-width:0.36300000000000004px"/><rect x="10.24" y="17.07" width="4.6" height="2.36" style="fill:#e9edf2;stroke:#b2bfcf;stroke-linejoin:round;stroke-width:0.36300000000000004px"/><rect x="10.24" y="21.92" width="4.6" height="2.36" style="fill:#e9edf2;stroke:#b2bfcf;stroke-linejoin:round;stroke-width:0.36300000000000004px"/><rect x="4.51" y="7.38" width="4.6" height="2.36" style="fill:#e9edf2;stroke:#b2bfcf;stroke-linejoin:round;stroke-width:0.36300000000000004px"/><rect x="4.51" y="12.23" width="4.6" height="2.36" style="fill:#e9edf2;stroke:#b2bfcf;stroke-linejoin:round;stroke-width:0.36300000000000004px"/><rect x="4.51" y="17.07" width="4.6" height="2.36" style="fill:#e9edf2;stroke:#b2bfcf;stroke-linejoin:round;stroke-width:0.36300000000000004px"/><rect x="4.51" y="21.92" width="4.6" height="2.36" style="fill:#e9edf2;stroke:#b2bfcf;stroke-linejoin:round;stroke-width:0.36300000000000004px"/><rect x="4.51" y="26.77" width="4.6" height="2.36" style="fill:#e9edf2;stroke:#b2bfcf;stroke-linejoin:round;stroke-width:0.36300000000000004px"/><rect x="4.51" y="31.61" width="4.6" height="2.36" style="fill:#e9edf2;stroke:#b2bfcf;stroke-linejoin:round;stroke-width:0.36300000000000004px"/><path d="M12.53,39.39a1.19,1.19,0,0,1,.37-.88,1.23,1.23,0,0,1,.91-.37,1.28,1.28,0,0,1,.89.35,1.14,1.14,0,0,1,.39.87,1.2,1.2,0,0,1-.38.88,1.26,1.26,0,0,1-.9.37,1.16,1.16,0,0,1-.49-.1,1.41,1.41,0,0,1-.41-.25,1.21,1.21,0,0,1-.28-.39A1.12,1.12,0,0,1,12.53,39.39Z" style="fill:#009ada"/><path d="M17.89,30.93H14.42V29.17h9v1.76H19.91v9.58h-2Z" style="fill:#009ada"/><path d="M30.48,31.54a2.43,2.43,0,0,0-.91-.69,2.64,2.64,0,0,0-1.17-.28,3.43,3.43,0,0,0-.71.08,2,2,0,0,0-.64.28,1.44,1.44,0,0,0-.47.48,1.31,1.31,0,0,0-.18.71,1.27,1.27,0,0,0,.16.66,1.37,1.37,0,0,0,.44.46,2.87,2.87,0,0,0,.68.34c.26.09.56.19.88.28s.74.26,1.13.41a4,4,0,0,1,1.07.59,2.73,2.73,0,0,1,1.11,2.32,3.58,3.58,0,0,1-.33,1.59,3.36,3.36,0,0,1-.9,1.13,3.8,3.8,0,0,1-1.31.68,5.55,5.55,0,0,1-1.59.22,6,6,0,0,1-2.16-.41,4.08,4.08,0,0,1-1.73-1.21l1.44-1.34a3,3,0,0,0,1.11.91,3.22,3.22,0,0,0,1.37.34,3,3,0,0,0,.72-.09,1.94,1.94,0,0,0,.67-.3,1.59,1.59,0,0,0,.48-.52,1.55,1.55,0,0,0,.18-.78,1.27,1.27,0,0,0-.21-.74,1.63,1.63,0,0,0-.56-.51,3.77,3.77,0,0,0-.83-.38l-1-.34a8.44,8.44,0,0,1-1-.38,3.37,3.37,0,0,1-.92-.59,2.8,2.8,0,0,1-.67-.91,3.09,3.09,0,0,1-.26-1.33,2.82,2.82,0,0,1,.37-1.49,3.23,3.23,0,0,1,.94-1A4.38,4.38,0,0,1,27,29.08a6,6,0,0,1,1.51-.2,5.54,5.54,0,0,1,1.76.31,4.34,4.34,0,0,1,1.54.91Z" style="fill:#009ada"/><path d="M32.32,29.17h2.26L37.7,37.9h.07l3.15-8.73H43.1L38.55,40.51H36.8Z" style="fill:#009ada"/></g></svg>