<?xml version="1.0" encoding="utf-8"?>
<!-- Generator: Adobe Illustrator 22.0.1, SVG Export Plug-In . SVG Version: 6.00 Build 0)  -->
<svg version="1.1" id="Layer_1" xmlns="http://www.w3.org/2000/svg" xmlns:xlink="http://www.w3.org/1999/xlink" x="0px" y="0px"
	 viewBox="0 0 48 48" style="enable-background:new 0 0 48 48;" xml:space="preserve">
<style type="text/css">
	.st0{fill:#7A7A7A;}
</style>
<title>Generic</title>
<path class="st0" d="M16,35.2h16c1.8,0,3.2-1.4,3.2-3.2V16c0-1.8-1.4-3.2-3.2-3.2H16c-1.8,0-3.2,1.4-3.2,3.2v16
	C12.8,33.8,14.2,35.2,16,35.2z M15.7,18.1c0-1.3,1.1-2.4,2.4-2.4h11.9c1.3,0,2.4,1.1,2.4,2.4v11.9c0,1.3-1.1,2.4-2.4,2.4H18.1
	c-1.3,0-2.4-1.1-2.4-2.4V18.1z"/>
<path class="st0" d="M13.5,30.9H9.9c-0.5,0-1-0.4-1-1v-1.2c0-0.5,0.4-1,1-1h3.6c0.5,0,1,0.4,1,1v1.2C14.5,30.4,14,30.9,13.5,30.9z"
	/>
<path class="st0" d="M33.5,16.9h4.6c0.5,0,1,0.4,1,1v1.2c0,0.5-0.4,1-1,1h-4.6c-0.5,0-1-0.4-1-1v-1.2C32.6,17.3,33,16.9,33.5,16.9z"
	/>
<path class="st0" d="M33.6,27.5h7.7c0.5,0,1,0.4,1,1v1.2c0,0.5-0.4,1-1,1h-7.7c-0.5,0-1-0.4-1-1v-1.2C32.6,28,33,27.5,33.6,27.5z"/>
<path class="st0" d="M6.9,16.9h7.7c0.5,0,1,0.4,1,1v1.2c0,0.5-0.4,1-1,1H6.9c-0.5,0-1-0.4-1-1v-1.2C5.9,17.3,6.3,16.9,6.9,16.9z"/>
<path class="st0" d="M42.2,15.7c1.6,0,2.8,1.3,2.8,2.8s-1.3,2.8-2.8,2.8c-1.6,0-2.8-1.3-2.8-2.8S40.6,15.7,42.2,15.7L42.2,15.7
	 M42.2,13.2c-2.9,0-5.3,2.4-5.3,5.3s2.4,5.3,5.3,5.3c2.9,0,5.3-2.4,5.3-5.3c0,0,0,0,0,0C47.5,15.6,45.1,13.2,42.2,13.2
	C42.2,13.2,42.2,13.2,42.2,13.2z"/>
<path class="st0" d="M5.9,26.5c1.6,0,2.8,1.3,2.8,2.8s-1.3,2.8-2.8,2.8s-2.8-1.3-2.8-2.8l0,0C3.1,27.8,4.3,26.5,5.9,26.5 M5.9,24.1
	c-2.9,0-5.3,2.4-5.3,5.3c0,2.9,2.4,5.3,5.3,5.3c2.9,0,5.3-2.4,5.3-5.3c0,0,0,0,0,0C11.2,26.4,8.8,24.1,5.9,24.1
	C5.9,24.1,5.9,24.1,5.9,24.1z"/>
</svg>
