<svg xmlns="http://www.w3.org/2000/svg" viewBox="0 0 48 48"><title>ibm db2</title><rect x="2.18" y="2.33" width="44.06" height="22.03"/><rect x="2.18" y="24.36" width="44.06" height="22.03" style="fill:#009a2c"/><path d="M26.45,33.29c1.47.56,1.56,1.86,1.31,3.08a2.46,2.46,0,0,1-2.57,1.86H22.05c-.31,0-.42-.07-.42-.4q0-4.32,0-8.64c0-.3.09-.4.39-.4,1.08,0,2.15,0,3.23,0a2.34,2.34,0,0,1,2,3.65A5.17,5.17,0,0,1,26.45,33.29ZM23.63,34v2.78c.75,0,1.51.12,2-.56a1.48,1.48,0,0,0,0-1.66C25.15,33.86,24.38,34.06,23.63,34Zm0-1.38c.9.1,1.55-.08,1.79-.5a1.61,1.61,0,0,0-.07-1.51c-.48-.51-1.11-.39-1.72-.39Z" style="fill:#fff"/><path d="M14.27,38.24v-9.4l.47,0h2.62c1.81,0,2.69.67,3,2.45a11.35,11.35,0,0,1-.1,4.82,2.58,2.58,0,0,1-2.79,2.16Zm2-1.43h.45c1.2,0,1.62-.26,1.74-1.45a17.71,17.71,0,0,0,0-3.64c-.13-1.29-.93-1.73-2.2-1.41Z" style="fill:#fff"/><path d="M30.68,36.73h3.58V38.2H28.41a14.06,14.06,0,0,1,.32-1.62,5,5,0,0,1,1.33-2c.46-.47.94-.93,1.43-1.36a2.46,2.46,0,0,0,.69-2.4.71.71,0,0,0-.76-.63.78.78,0,0,0-.88.53A10.52,10.52,0,0,0,30.28,32c-.51,0-1.05,0-1.59,0a.37.37,0,0,1-.23-.27,2.4,2.4,0,0,1,2.28-2.77A6.15,6.15,0,0,1,32.4,29a2.13,2.13,0,0,1,1.81,2.05,3.59,3.59,0,0,1-1.11,3.08c-.53.5-1.09,1-1.59,1.51A10.23,10.23,0,0,0,30.68,36.73Z" style="fill:#fff"/><path d="M25,11.57H16.39V10.7h7.82C24.93,10.7,25,10.77,25,11.57Z" style="fill:#fff"/><path d="M16.39,19.86V19h8.66c-.05.79-.14.88-.88.88H16.39Z" style="fill:#fff"/><path d="M32,14.82c0-1,.6-.82,1.14-.81h3.49v.86H34.42l-.06-.3c-.42.62-1,.27-1.57.31-1,.06-1.94,0-2.92,0l-.2-.5-.05.48H27.35V14c.14,0,.29,0,.44,0,1.13,0,2.26,0,3.39,0,.4,0,.67.06.72.5C31.9,14.57,32,14.63,32,14.82Z" style="fill:#fff"/><path d="M24.22,20.66a2.54,2.54,0,0,1-1.81.84c-2,0-3.95,0-5.93,0l-.1,0v-.81Z" style="fill:#fff"/><path d="M16.38,9.9V9h5.81a2.87,2.87,0,0,1,2,.86Z" style="fill:#fff"/><path d="M18,15.67h4.32a6.35,6.35,0,0,0,1.07,0c.71-.12,1,.33,1.32.86H18Z" style="fill:#fff"/><path d="M18,14.89V14h6.64c-.29.72-.48.85-1.15.85H18Z" style="fill:#fff"/><path d="M15.63,10.74v.84H10.22v-.84Z" style="fill:#fff"/><path d="M15.62,19v.84h-5.4V19Z" style="fill:#fff"/><path d="M38.23,10.7v.87H33.12c0-.7.14-.87.78-.87h4.33Z" style="fill:#fff"/><path d="M25.81,11.57v-.84l.45,0h3.66c.82,0,.82,0,1,.87Z" style="fill:#fff"/><path d="M10.22,9.06h5.4V9.9h-5.4Z" style="fill:#fff"/><path d="M15.62,20.67v.83h-5.4v-.83Z" style="fill:#fff"/><path d="M33.58,9.89l.28-.84h4.35v.84Z" style="fill:#fff"/><path d="M30.14,9.07l.26.83H25.81V9.07Z" style="fill:#fff"/><path d="M38.23,19v.84H34.41V19Z" style="fill:#fff"/><path d="M29.63,19v.83H25.81V19Z" style="fill:#fff"/><path d="M32.56,13.23a.32.32,0,0,1,0-.07c.18-.78.18-.78,1-.78h3.16v.85Z" style="fill:#fff"/><path d="M27.36,12.38c1.22,0,2.42,0,3.62,0,.11,0,.24.16.3.27a3.69,3.69,0,0,1,.2.59H27.36Z" style="fill:#fff"/><path d="M29.63,20.66v.83H25.81v-.83Z" style="fill:#fff"/><path d="M38.23,20.66c0,.1,0,.17,0,.24v.59H34.42v-.83Z" style="fill:#fff"/><path d="M30.15,15.68h3.72a.41.41,0,0,1,0,.08c-.19.79-.19.79-1,.79H31.06C30.28,16.55,30.28,16.55,30.15,15.68Z" style="fill:#fff"/><path d="M33.37,17.37c0,.09,0,.15,0,.2-.19.67-.19.67-.89.66h-.81c-.79,0-.79,0-1-.86Z" style="fill:#fff"/><path d="M22.69,18.21v-.88c.73,0,1.45,0,2.16,0,.09,0,.23.18.27.29a3.34,3.34,0,0,1,.06.58Z" style="fill:#fff"/><path d="M20.29,18.2H18v-.84h2.33Z" style="fill:#fff"/><path d="M27.35,18.2v-.84h2.27v.84Z" style="fill:#fff"/><path d="M14,18.21H11.75v-.86H14Z" style="fill:#fff"/><path d="M34.42,18.2v-.85h2.25v.85Z" style="fill:#fff"/><path d="M22.64,13.26v-.85h2.47v.26c-.05.59-.05.59-.66.59Z" style="fill:#fff"/><path d="M18,13.24v-.83h2.3v.83Z" style="fill:#fff"/><path d="M11.74,13.23v-.81H14v.81Z" style="fill:#fff"/><path d="M11.74,14.87V14H14v.83Z" style="fill:#fff"/><path d="M14,16.54H11.75V15.7H14Z" style="fill:#fff"/><path d="M29.61,16.53H27.35v-.82h2.26Z" style="fill:#fff"/><path d="M34.41,16.52V15.7h2.25v.82Z" style="fill:#fff"/><path d="M31.21,19h1.71c-.29.31,0,.87-.63.88C31.35,19.88,31.32,19.86,31.21,19Z" style="fill:#fff"/><path d="M32,21.5l-.26-.84h.64l-.27.85Z" style="fill:#fff"/></svg>