<svg xmlns="http://www.w3.org/2000/svg" viewBox="0 0 48 48"><title>mysql</title><path d="M13.2,36H11.59q-.08-4.08-.47-7.67h0L8.66,36H7.43L5,28.29H5c-.18,2.3-.3,4.85-.34,7.67H3.17q.13-5.13.71-9.63h2L8.2,33.4h0l2.33-7.07h1.91q.63,5.27.74,9.63" style="fill:#687e91"/><path d="M20.19,28.86a21.89,21.89,0,0,1-2.59,7.76,3.47,3.47,0,0,1-2.76,1.86,2.71,2.71,0,0,1-1-.24v-.86a4.27,4.27,0,0,0,.67,0A1.62,1.62,0,0,0,15.66,37a1.39,1.39,0,0,0,.51-1,6.72,6.72,0,0,0-.4-1.64L14,28.86h1.59L16.85,33a5.42,5.42,0,0,1,.36,2,26.87,26.87,0,0,0,1.45-6.06Z" style="fill:#687e91"/><polygon points="41.63 35.96 37.05 35.96 37.05 26.33 38.59 26.33 38.59 34.77 41.63 34.77 41.63 35.96" style="fill:#f98a3c"/><path d="M35.86,36.19l-1.77-.87a3,3,0,0,0,.44-.43A5.93,5.93,0,0,0,35.66,31q0-4.78-3.75-4.78A3.56,3.56,0,0,0,29,27.4a5.92,5.92,0,0,0-1.12,3.91,5.75,5.75,0,0,0,1,3.72,3.44,3.44,0,0,0,2.76,1.07,4.62,4.62,0,0,0,1.26-.17l2.3,1.34ZM30.13,34a5.92,5.92,0,0,1-.59-3c0-2.42.74-3.64,2.21-3.64a1.86,1.86,0,0,1,1.7.87,5.9,5.9,0,0,1,.58,3c0,2.44-.73,3.66-2.21,3.66A1.84,1.84,0,0,1,30.13,34" style="fill:#f98a3c;fill-rule:evenodd"/><path d="M27.25,33.29a2.54,2.54,0,0,1-.9,2,3.55,3.55,0,0,1-2.41.78,4.9,4.9,0,0,1-2.74-.89l.42-.83a4.66,4.66,0,0,0,2.06.57A2.12,2.12,0,0,0,25,34.54a1.29,1.29,0,0,0,.53-1.06c0-.58-.4-1.06-1.13-1.47s-2-1.15-2-1.15a2.29,2.29,0,0,1-1.09-2.05,2.38,2.38,0,0,1,.82-1.88,3.07,3.07,0,0,1,2.11-.72,4.33,4.33,0,0,1,2.44.71l-.37.82a4.84,4.84,0,0,0-1.85-.39,1.62,1.62,0,0,0-1.14.35,1.19,1.19,0,0,0-.44.91c0,.57.41,1.07,1.16,1.49s2.07,1.16,2.07,1.16a2.28,2.28,0,0,1,1.13,2" style="fill:#f98a3c"/><path d="M43.56,23.11a5.32,5.32,0,0,0-2.25.33c-.18.07-.46.07-.48.29s.1.24.19.37a2.73,2.73,0,0,0,.6.71c.25.18.49.37.75.53.45.28,1,.44,1.4.72.26.17.51.38.77.55s.21.24.37.3v0c-.08-.11-.1-.26-.18-.38l-.35-.33A5.64,5.64,0,0,0,43.17,25c-.37-.25-1.19-.6-1.34-1l0,0a5.47,5.47,0,0,0,.8-.19c.39-.11.75-.08,1.16-.19.19,0,.37-.1.56-.16v-.1c-.21-.21-.36-.49-.58-.69a16,16,0,0,0-1.92-1.43c-.36-.23-.83-.38-1.21-.58-.14-.07-.37-.11-.45-.22a4.55,4.55,0,0,1-.48-.9c-.34-.64-.66-1.35-.95-2a12.26,12.26,0,0,0-.6-1.33,11.66,11.66,0,0,0-4.5-4.34,5.47,5.47,0,0,0-1.48-.48l-.88-.05a4.17,4.17,0,0,1-.53-.41c-.66-.41-2.37-1.32-2.86-.12-.31.75.46,1.5.73,1.88a4.94,4.94,0,0,1,.59.87c.09.2.11.41.19.62A14,14,0,0,0,30,15.66a4.42,4.42,0,0,0,.43.72c.09.13.25.18.29.39a3,3,0,0,0-.27.88,5.07,5.07,0,0,0,.34,3.9c.18.29.62.93,1.22.69s.4-.87.56-1.45c0-.15,0-.24.08-.33v0c.16.33.32.64.47,1A6.62,6.62,0,0,0,34.65,23c.27.21.49.57.84.69v0h0a1,1,0,0,0-.27-.23,5.57,5.57,0,0,1-.6-.7,14.14,14.14,0,0,1-1.3-2.12c-.19-.36-.35-.75-.5-1.11-.07-.14-.07-.35-.19-.42a3.86,3.86,0,0,0-.56.79,6.49,6.49,0,0,0-.32,1.75c-.05,0,0,0-.05,0-.37-.1-.5-.48-.64-.8a5,5,0,0,1-.1-3.11c.08-.24.43-1,.29-1.24s-.31-.35-.43-.53a4.53,4.53,0,0,1-.42-.74c-.28-.65-.42-1.37-.72-2a6.57,6.57,0,0,0-.58-.9,4.63,4.63,0,0,1-.64-.91.52.52,0,0,1-.05-.47c0-.1.07-.13.16-.15s.58,0,.73.1a6,6,0,0,1,1.16.58c.16.12.33.34.54.4h.25c.37.08.79,0,1.14.12A7.39,7.39,0,0,1,34,12.8a10.3,10.3,0,0,1,3.63,4c.14.27.2.52.32.79.25.57.55,1.16.79,1.71a7.72,7.72,0,0,0,.83,1.56c.17.25.87.37,1.19.5s.59.2.8.33c.39.24.79.52,1.16.79.19.14.77.43.8.66" style="fill:#687e91;fill-rule:evenodd"/><path d="M31.7,13a2.12,2.12,0,0,0-.47.05v0h0a4.25,4.25,0,0,0,.37.47l.27.56,0,0a.64.64,0,0,0,.25-.58,2,2,0,0,1-.14-.25c-.07-.11-.22-.17-.32-.26" style="fill:#687e91;fill-rule:evenodd"/><path d="M44.67,36h.24V34.78h-.36l-.29.8-.33-.8h-.34V36h.22v-.9h0l.33.9h.18l.33-.9Zm-1.94,0H43V35h.34v-.2h-.94V35h.35Z" style="fill:#f98a3c"/></svg>