<svg xmlns="http://www.w3.org/2000/svg" xmlns:xlink="http://www.w3.org/1999/xlink" viewBox="0 0 48 48"><defs><filter id="luminosity-invert-noclip" x="2.29" y="9.01" width="34.18" height="33.99" filterUnits="userSpaceOnUse" color-interpolation-filters="sRGB"><feColorMatrix values="-1 0 0 0 1 0 -1 0 0 1 0 0 -1 0 1 0 0 0 1 0" result="invert"/><feFlood flood-color="#fff" result="bg"/><feBlend in="invert" in2="bg"/></filter><mask id="mask" x="2.29" y="9.01" width="34.18" height="33.99" maskUnits="userSpaceOnUse"><g style="filter:url(#luminosity-invert-noclip)"><path d="M13.59,38.87a1.07,1.07,0,0,1-.75-.37l-1.88-2a1.56,1.56,0,0,1-.29-.46L2.94,17.08a1.8,1.8,0,0,1,.74-2.28,2.31,2.31,0,0,1,1.24-.39,2.3,2.3,0,0,1,.45.05,1.76,1.76,0,0,1,1.3,1.1l7.71,18.89a1.8,1.8,0,0,1,.12.62c0,.3,0,.6,0,.9l0,.47v1.38a1,1,0,0,1-.59,1A.94.94,0,0,1,13.59,38.87Z" style="fill:#fff"/><path d="M4.92,14.91a1.37,1.37,0,0,1,.34,0,1.27,1.27,0,0,1,1,.8q3.85,9.45,7.7,18.89a1.17,1.17,0,0,1,.09.45c0,.45,0,.9,0,1.35h0v1.39a.47.47,0,0,1-.28.5.38.38,0,0,1-.17,0,.53.53,0,0,1-.38-.21c-.63-.68-1.26-1.35-1.88-2a1.07,1.07,0,0,1-.2-.32Q7.26,26.35,3.41,16.89a1.29,1.29,0,0,1,.53-1.67,1.86,1.86,0,0,1,1-.31m0-1a2.81,2.81,0,0,0-1.51.47,2.28,2.28,0,0,0-.93,2.89q3.85,9.47,7.72,18.92a2.12,2.12,0,0,0,.39.61l1.17,1.26.71.78a1.52,1.52,0,0,0,1.12.53,1.5,1.5,0,0,0,.55-.11,1.47,1.47,0,0,0,.9-1.45V35.44h0c0-.13,0-.25,0-.38a2.33,2.33,0,0,0-.16-.8L11,24.77l-3.83-9.4A2.3,2.3,0,0,0,5.49,14a2.76,2.76,0,0,0-.57-.06Z" style="fill:#fff"/></g></mask></defs><title>form</title><g id="Warstwa_1" data-name="Warstwa 1"><path d="M17.35,10.52H27.78c2.27,0,3.34.65,3.36,2.93L30.29,18l.93,19.61h8.83a1.48,1.48,0,0,0,1.49-1.49V12.81a2.26,2.26,0,0,0-.71-1.66l-6-5.76a2.29,2.29,0,0,0-1.53-.63c-3.31-.08-14.79-.32-15.47.33S17.35,10.52,17.35,10.52Z" style="fill:#f0f0f0"/><polyline points="34.48 4.78 34.48 12.04 41.74 12.04" style="fill:none;stroke:#b2bfcf;stroke-linecap:round;stroke-linejoin:round;stroke-width:0.726px"/><path d="M17.31,10V6.16a1.45,1.45,0,0,1,1.45-1.45l15.73.07L41.75,12l0,13.5V36.2a1.45,1.45,0,0,1-1.45,1.45h-8" style="fill:none;stroke:#b2bfcf;stroke-linecap:round;stroke-linejoin:round;stroke-width:0.726px"/><g style="mask:url(#mask)"><path d="M36.11,19.5V18.33a2.23,2.23,0,0,0-.64-1.59L28.64,10a2.27,2.27,0,0,0-1.59-.65l-16.59.07a1.63,1.63,0,0,0-1.61,1.63L9.09,39A3.86,3.86,0,0,0,13,42.79l11.09-.09,7.77,0a4.26,4.26,0,0,0,4.26-4.29c0-6-.09-16.56,0-18.18Z" style="fill:#fff"/><path d="M36.11,20.05V17.46l-7.63-8L11,9.37A1.61,1.61,0,0,0,9.42,11l.05,30a1.61,1.61,0,0,0,1.61,1.61l13.3,0,10,0a1.8,1.8,0,0,0,1.75-2Z" style="fill:#fff;stroke:#009ada;stroke-linecap:round;stroke-linejoin:round;stroke-width:0.72319027254737px"/><polyline points="28.06 9.95 28.03 18.01 35.76 18.05" style="fill:#fff;stroke:#009ada;stroke-linecap:round;stroke-linejoin:round;stroke-width:0.72319027254737px"/><line x1="16.26" y1="24.24" x2="32.77" y2="24.24" style="fill:none;stroke:#b2bfcf;stroke-linecap:round;stroke-linejoin:round;stroke-width:0.6788519588897233px"/><line x1="16.26" y1="28.21" x2="29.04" y2="28.21" style="fill:none;stroke:#b2bfcf;stroke-linecap:round;stroke-linejoin:round;stroke-width:0.6788519588897233px"/><rect x="13.03" y="23.48" width="1.4" height="1.4" style="fill:none;stroke:#b2bfcf;stroke-linecap:round;stroke-linejoin:round;stroke-width:0.6788519588897233px"/><rect x="13.03" y="27.51" width="1.4" height="1.4" style="fill:none;stroke:#b2bfcf;stroke-linecap:round;stroke-linejoin:round;stroke-width:0.6788519588897233px"/><rect x="12.92" y="32.02" width="20.13" height="4.48" style="fill:#f0f0f0"/><rect x="12.92" y="32.02" width="20.13" height="4.48" style="fill:none;stroke:#b2bfcf;stroke-linecap:round;stroke-linejoin:round;stroke-width:0.6788519588897233px"/><rect x="12.92" y="16.02" width="5.07" height="4.48" style="fill:#f0f0f0"/><rect x="12.92" y="16.02" width="5.07" height="4.48" style="fill:none;stroke:#b2bfcf;stroke-linecap:round;stroke-linejoin:round;stroke-width:0.6788519588897233px"/></g><path d="M13.17,37.83a.93.93,0,0,1-.68-.34l-1.73-1.86a1.34,1.34,0,0,1-.26-.43L3.43,17.9a1.65,1.65,0,0,1,.67-2.09,2.12,2.12,0,0,1,1.14-.36,1.84,1.84,0,0,1,.41.05,1.6,1.6,0,0,1,1.19,1l7.05,17.29a1.7,1.7,0,0,1,.12.57v.81l0,.44v1.26a.88.88,0,0,1-.54.89A1,1,0,0,1,13.17,37.83Z" style="fill:#b2bfcf"/></g></svg>