<svg xmlns="http://www.w3.org/2000/svg" viewBox="0 0 48 48"><title>script</title><g id="Warstwa_1" data-name="Warstwa 1"><path d="M22.83,19.4l.81.12a10.41,10.41,0,0,0,.62-1.86,13.16,13.16,0,0,0,.24-1.51l-.71-.23a1.7,1.7,0,0,1-1.17-1.46,10,10,0,0,0-.15-1.1,1.65,1.65,0,0,1,.65-1.68l.66-.49A10.77,10.77,0,0,0,22,8.2l-.67.34a1.67,1.67,0,0,1-1.85-.21,9.41,9.41,0,0,0-.89-.67A1.68,1.68,0,0,1,17.86,6L18,5.2a12.3,12.3,0,0,0-1.86-.62,13.16,13.16,0,0,0-1.51-.24l-.23.71a1.7,1.7,0,0,1-1.47,1.17,8.19,8.19,0,0,0-1.09.16,1.68,1.68,0,0,1-1.68-.65l-.49-.67a11,11,0,0,0-3,1.78L7,7.51a1.67,1.67,0,0,1-.21,1.85,8,8,0,0,0-.67.89A1.66,1.66,0,0,1,4.47,11l-.81-.12A10.41,10.41,0,0,0,3,12.72a11.43,11.43,0,0,0-.24,1.52l.71.22a1.68,1.68,0,0,1,1.16,1.47A10.23,10.23,0,0,0,4.83,17a1.65,1.65,0,0,1-.65,1.68l-.66.5a11.07,11.07,0,0,0,1.78,3L6,21.85a1.67,1.67,0,0,1,1.85.21,9.3,9.3,0,0,0,.89.66,1.69,1.69,0,0,1,.73,1.65l-.12.81a10.41,10.41,0,0,0,1.86.62,9.88,9.88,0,0,0,1.51.24l.23-.71a1.68,1.68,0,0,1,1.47-1.16A10.23,10.23,0,0,0,15.48,24a1.68,1.68,0,0,1,1.68.65l.49.66a10.77,10.77,0,0,0,3-1.78l-.34-.66A1.69,1.69,0,0,1,20.51,21a7.14,7.14,0,0,0,.67-.89A1.69,1.69,0,0,1,22.83,19.4Z" style="fill:#009ada"/><circle cx="13.65" cy="15.19" r="4.58" style="fill:#fff"/><path d="M35.08,11.55l.43,0a5.41,5.41,0,0,0,.3-1,7,7,0,0,0,.1-.8l-.38-.1A.89.89,0,0,1,34.9,9a5.4,5.4,0,0,0-.1-.58.89.89,0,0,1,.31-.89l.34-.27a5.67,5.67,0,0,0-1-1.54l-.34.19a.9.9,0,0,1-1-.08,5,5,0,0,0-.47-.33.88.88,0,0,1-.41-.86l0-.43a6.63,6.63,0,0,0-1-.29,5.47,5.47,0,0,0-.8-.1l-.11.37a.88.88,0,0,1-.75.64,3.78,3.78,0,0,0-.57.1.88.88,0,0,1-.89-.32l-.27-.34a6.2,6.2,0,0,0-1.54,1l.19.35a.9.9,0,0,1-.08,1,5.09,5.09,0,0,0-.34.47.88.88,0,0,1-.85.41l-.43,0a6,6,0,0,0-.29,1,5.36,5.36,0,0,0-.11.79l.38.11a.89.89,0,0,1,.63.75c0,.19.06.39.11.58a.88.88,0,0,1-.32.89l-.34.27a5.92,5.92,0,0,0,1,1.54l.35-.19a.88.88,0,0,1,1,.08,5.11,5.11,0,0,0,.48.33.89.89,0,0,1,.41.86l-.05.43a6.18,6.18,0,0,0,1,.29,5.64,5.64,0,0,0,.8.1l.11-.37a.89.89,0,0,1,.75-.64,3.78,3.78,0,0,0,.57-.1.89.89,0,0,1,.9.32l.26.34a5.85,5.85,0,0,0,1.55-1l-.19-.34a.86.86,0,0,1,.08-1,5,5,0,0,0,.33-.47A.88.88,0,0,1,35.08,11.55Z" style="fill:#009ada"/><circle cx="30.2" cy="9.48" r="2.44" style="fill:#fff"/><path d="M44.66,34.63V19.31a1.49,1.49,0,0,0-1.27-1.63h-29a1.49,1.49,0,0,0-1.27,1.63V42.12a1.49,1.49,0,0,0,1.27,1.63H42.73a1.93,1.93,0,0,0,1.93-1.93Z" style="fill:#fff"/><path d="M44.66,19.7V18.61c0-.12-.57-1.18-1.27-1.18h-29c-.7,0-1.27,1.34-1.27,1.46V20.7c0,.12.57.22,1.27.22H42.73c1.06,0,1.93-.12,1.93-.26Z" style="fill:#f0f0f0"/><path d="M44.66,34.55V19.24a1.49,1.49,0,0,0-1.27-1.63h-29a1.49,1.49,0,0,0-1.27,1.63V42.05a1.49,1.49,0,0,0,1.27,1.63H42.73a1.94,1.94,0,0,0,1.93-1.93Z" style="fill:none;stroke:#b2bfcf;stroke-linecap:round;stroke-linejoin:round;stroke-width:0.7260000000000001px"/><path d="M43.39,17.25a1.84,1.84,0,0,1,1.63,2V41.75A2.29,2.29,0,0,1,42.73,44H14.39a1.84,1.84,0,0,1-1.63-2V19.24a1.84,1.84,0,0,1,1.63-2h29m0-2.18h-29a4,4,0,0,0-3.81,4.17V42.05a4,4,0,0,0,3.81,4.17H42.73a4.47,4.47,0,0,0,4.47-4.47V19.24a4,4,0,0,0-3.81-4.17Z" style="fill:#fff"/><path d="M15.5,27.3v-.5L19,25.23V26l-2.36,1.05L19,28.11v.76Z" style="fill:#009ada"/><path d="M22.66,25.26a1.2,1.2,0,0,0-.91-.43c-.4,0-.87.2-.87.68s.38.59.94.76,1.45.47,1.45,1.45a1.59,1.59,0,0,1-1.8,1.57,2.26,2.26,0,0,1-1.7-.7L20.4,28a1.39,1.39,0,0,0,1.08.55.8.8,0,0,0,.9-.74c0-.51-.52-.66-1.14-.86S20,26.47,20,25.55s.91-1.45,1.81-1.45a2.12,2.12,0,0,1,1.43.53Z" style="fill:#009ada"/><path d="M26.4,26.74a.91.91,0,0,0-.69-.32,1,1,0,0,0-.92,1.07,1,1,0,0,0,.95,1.08,1,1,0,0,0,.7-.3l.52.53a1.67,1.67,0,0,1-1.23.47,1.78,1.78,0,1,1,0-3.55,1.65,1.65,0,0,1,1.26.52Z" style="fill:#009ada"/><path d="M27.52,25.82h.8v.55h0a1.1,1.1,0,0,1,1-.65.71.71,0,0,1,.21,0v.77a1,1,0,0,0-.26,0,.87.87,0,0,0-.9.9v1.8h-.84Z" style="fill:#009ada"/><path d="M30.49,24.17a.51.51,0,1,1-.53.51A.52.52,0,0,1,30.49,24.17Zm-.42,1.65h.84v3.35h-.84Z" style="fill:#009ada"/><path d="M32.74,25.82v.46h0a1.32,1.32,0,0,1,1.16-.56,1.78,1.78,0,0,1,0,3.55,1.33,1.33,0,0,1-1.12-.55h0v2.12h-.84v-5Zm1,.58a1,1,0,0,0-1,1.09,1,1,0,0,0,1,1.08,1,1,0,0,0,1-1.09A1,1,0,0,0,33.73,26.4Z" style="fill:#009ada"/><path d="M35.87,26.49v-.67h.59v-1h.82v1h.84v.67h-.84V28c0,.3.07.52.44.52a.86.86,0,0,0,.36-.07l0,.66a1.93,1.93,0,0,1-.56.09c-.89,0-1.09-.55-1.09-1.19V26.49Z" style="fill:#009ada"/><path d="M42.32,26.8v.5l-3.53,1.57v-.76l2.36-1.06L38.79,26v-.77Z" style="fill:#009ada"/><line x1="13.12" y1="20.89" x2="44.66" y2="20.89" style="fill:none;stroke:#b2bfcf;stroke-linecap:round;stroke-linejoin:round;stroke-width:0.7260000000000001px"/><line x1="19.12" y1="33.74" x2="35.64" y2="33.74" style="fill:none;stroke:#b2bfcf;stroke-linecap:round;stroke-linejoin:round;stroke-width:0.7260000000000001px"/><line x1="19.12" y1="37" x2="31.9" y2="37" style="fill:none;stroke:#b2bfcf;stroke-linecap:round;stroke-linejoin:round;stroke-width:0.7260000000000001px"/><line x1="19.12" y1="40.26" x2="30.95" y2="40.26" style="fill:none;stroke:#b2bfcf;stroke-linecap:round;stroke-linejoin:round;stroke-width:0.7260000000000001px"/><circle cx="42.48" cy="19.24" r="0.64" style="fill:#b2bfcf"/><circle cx="40.21" cy="19.24" r="0.64" style="fill:#b2bfcf"/><circle cx="37.96" cy="19.24" r="0.64" style="fill:#b2bfcf"/><rect x="15.9" y="32.98" width="1.4" height="1.4" style="fill:none;stroke:#b2bfcf;stroke-linecap:round;stroke-linejoin:round;stroke-width:0.7260000000000001px"/><rect x="15.9" y="36.3" width="1.4" height="1.4" style="fill:none;stroke:#b2bfcf;stroke-linecap:round;stroke-linejoin:round;stroke-width:0.7260000000000001px"/><rect x="15.9" y="39.5" width="1.4" height="1.4" style="fill:none;stroke:#b2bfcf;stroke-linecap:round;stroke-linejoin:round;stroke-width:0.7260000000000001px"/></g></svg>