<svg xmlns="http://www.w3.org/2000/svg" viewBox="0 0 48 48"><title>json</title><g id="Warstwa_1" data-name="Warstwa 1"><path d="M3.85,18.57H3.2a.57.57,0,0,0-.36.11.85.85,0,0,0-.23.29,1.31,1.31,0,0,0-.12.41,2.32,2.32,0,0,0,0,.46V22a2.29,2.29,0,0,1-.12.87,2.16,2.16,0,0,1-.34.58,1.86,1.86,0,0,1-.42.35,1.47,1.47,0,0,1-.34.15v0a1.16,1.16,0,0,1,.34.12,1.3,1.3,0,0,1,.42.32,1.73,1.73,0,0,1,.34.59,2.56,2.56,0,0,1,.12.93v2.19a2.25,2.25,0,0,0,0,.44,1.31,1.31,0,0,0,.12.41.85.85,0,0,0,.23.29.57.57,0,0,0,.36.11h.65v1.05H2.76a1.2,1.2,0,0,1-.55-.13,1.52,1.52,0,0,1-.49-.4,2.47,2.47,0,0,1-.36-.69,3.39,3.39,0,0,1-.13-1v-2A2.16,2.16,0,0,0,.85,25,1,1,0,0,0,0,24.58V23.45A1.07,1.07,0,0,0,.85,23a2.16,2.16,0,0,0,.38-1.25V19.43a2.28,2.28,0,0,1,.13-.82,2.17,2.17,0,0,1,.36-.6,1.55,1.55,0,0,1,.49-.37,1.33,1.33,0,0,1,.55-.12H3.85Z" style="fill:#b2bfcf"/><path d="M10.5,25.89a3.67,3.67,0,0,1-.2,1.19,2.88,2.88,0,0,1-.59,1,2.77,2.77,0,0,1-1,.68A3.35,3.35,0,0,1,7.39,29a3.32,3.32,0,0,1-2-.57,2.83,2.83,0,0,1-1-1.81l1.72-.41a1.44,1.44,0,0,0,.42.82,1.16,1.16,0,0,0,.81.3,1.09,1.09,0,0,0,1.07-.53,3.11,3.11,0,0,0,.29-1.47V18.42H10.5Z" style="fill:#009ada"/><path d="M17.79,20.64A1.66,1.66,0,0,0,17,20a2.74,2.74,0,0,0-1-.2,2.57,2.57,0,0,0-.62.08,1.63,1.63,0,0,0-.54.23,1.31,1.31,0,0,0-.39.42,1.27,1.27,0,0,0-.14.6.94.94,0,0,0,.36.8,3.71,3.71,0,0,0,.91.49c.36.13.75.26,1.18.39a5,5,0,0,1,1.18.52,3.21,3.21,0,0,1,.91.89,2.7,2.7,0,0,1,.36,1.48,3.29,3.29,0,0,1-.3,1.45,3,3,0,0,1-.83,1,3.49,3.49,0,0,1-1.2.61,4.94,4.94,0,0,1-1.45.21,5.49,5.49,0,0,1-1.85-.32A3.64,3.64,0,0,1,12,27.62l1.38-1.35a2.37,2.37,0,0,0,.89.8,2.45,2.45,0,0,0,1.16.28,2.87,2.87,0,0,0,.64-.08,1.93,1.93,0,0,0,.58-.27,1.29,1.29,0,0,0,.43-.44,1.27,1.27,0,0,0,.16-.62,1.11,1.11,0,0,0-.37-.88,3.49,3.49,0,0,0-.9-.52c-.36-.14-.76-.27-1.19-.4a4.81,4.81,0,0,1-1.18-.52,2.77,2.77,0,0,1-.9-.87,2.56,2.56,0,0,1-.37-1.47,2.76,2.76,0,0,1,.33-1.38,3,3,0,0,1,.86-1,3.82,3.82,0,0,1,1.22-.58,5.21,5.21,0,0,1,3,.06,3.61,3.61,0,0,1,1.37.81Z" style="fill:#009ada"/><path d="M20.55,23.63A6,6,0,0,1,21,21.38a5,5,0,0,1,1.13-1.73,4.75,4.75,0,0,1,1.72-1.1,6,6,0,0,1,2.2-.39,6.16,6.16,0,0,1,2.22.36,4.82,4.82,0,0,1,2.87,2.81,6,6,0,0,1,.41,2.24,5.8,5.8,0,0,1-.41,2.21A4.89,4.89,0,0,1,30,27.48a5.12,5.12,0,0,1-1.73,1.12A6.17,6.17,0,0,1,26,29a6,6,0,0,1-2.2-.39,5,5,0,0,1-1.72-1.09A5.11,5.11,0,0,1,21,25.84,5.84,5.84,0,0,1,20.55,23.63Zm1.93-.11a4.47,4.47,0,0,0,.25,1.53,3.67,3.67,0,0,0,.72,1.21,3.33,3.33,0,0,0,1.12.8,3.42,3.42,0,0,0,1.45.29,3.46,3.46,0,0,0,1.46-.29,3.37,3.37,0,0,0,1.13-.8,3.67,3.67,0,0,0,.72-1.21,4.47,4.47,0,0,0,.25-1.53,4.05,4.05,0,0,0-.25-1.45,3.49,3.49,0,0,0-.72-1.17,3.34,3.34,0,0,0-1.13-.79A3.62,3.62,0,0,0,26,19.82a3.57,3.57,0,0,0-1.45.29,3.3,3.3,0,0,0-1.12.79,3.49,3.49,0,0,0-.72,1.17A4.05,4.05,0,0,0,22.48,23.52Z" style="fill:#009ada"/><path d="M33.26,18.42H35.7l5,7.68,0,0h0l0,0V18.42h1.84V28.75H40.24l-5.11-7.92h0v7.92H33.26Z" style="fill:#009ada"/><path d="M44.15,29.43h.65a.57.57,0,0,0,.36-.11.85.85,0,0,0,.23-.29,1.31,1.31,0,0,0,.12-.41,2.32,2.32,0,0,0,0-.46V26a2.21,2.21,0,0,1,.12-.86,1.88,1.88,0,0,1,.35-.59,1.63,1.63,0,0,1,.41-.35,1.35,1.35,0,0,1,.34-.14V24a1.43,1.43,0,0,1-.34-.11,1.35,1.35,0,0,1-.41-.33,1.59,1.59,0,0,1-.35-.59,2.47,2.47,0,0,1-.12-.92V19.83a2.28,2.28,0,0,0,0-.45,1.39,1.39,0,0,0-.12-.41,1,1,0,0,0-.23-.29.57.57,0,0,0-.36-.11h-.65V17.52h1.09a1.34,1.34,0,0,1,.55.13,1.52,1.52,0,0,1,.49.4,2.54,2.54,0,0,1,.36.7,3.35,3.35,0,0,1,.13,1v1.95A2,2,0,0,0,47.14,23a1.08,1.08,0,0,0,.86.45v1.14a1.08,1.08,0,0,0-.86.45,2,2,0,0,0-.37,1.25v2.31a2.28,2.28,0,0,1-.13.82,2.17,2.17,0,0,1-.36.6,1.71,1.71,0,0,1-.49.37,1.33,1.33,0,0,1-.55.12H44.15Z" style="fill:#b2bfcf"/></g></svg>