<svg id="CURRENT" xmlns="http://www.w3.org/2000/svg" viewBox="0 0 48 48"><title>azureblob</title><polygon points="13.27 4.79 34.66 4.79 45.5 23.57 34.76 42.25 13.37 42.25 2.62 23.47 13.27 4.79" style="fill:#0078d7"/><path d="M29.81,14l3.84,4V32.22a2.1,2.1,0,0,1-2.09,2.09H16.14A2.1,2.1,0,0,1,14,32.22V16.08A2.1,2.1,0,0,1,16.14,14H29.81m.49-1.16H16.14a3.25,3.25,0,0,0-3.26,3.25V32.22a3.25,3.25,0,0,0,3.26,3.25H31.56a3.25,3.25,0,0,0,3.26-3.25V17.47L30.3,12.83Z" style="fill:#fff"/><polygon points="34.8 18.49 30.02 18.49 30.02 13.05 34.8 18.49" style="fill:#fff"/><path d="M23.43,22.76H19.36V22h1.52V17.34l-1.39.7-.31-.69,2-1.17h.91V22h1.35Z" style="fill:#fff"/><path d="M28.66,31.7H24.59v-.79h1.52V26.28l-1.4.7-.3-.69,2-1.17h.91v5.8h1.35Z" style="fill:#fff"/><path d="M26.48,16.37a1.8,1.8,0,0,1,1.59.85,4.24,4.24,0,0,1,.56,2.36,4.34,4.34,0,0,1-.54,2.33,1.78,1.78,0,0,1-1.61.87,1.8,1.8,0,0,1-1.59-.84,4.27,4.27,0,0,1-.55-2.36,4.36,4.36,0,0,1,.54-2.34A1.76,1.76,0,0,1,26.48,16.37Zm0,5.78a1.07,1.07,0,0,0,1-.62,4.3,4.3,0,0,0,.33-2,4.35,4.35,0,0,0-.33-2,1.13,1.13,0,0,0-2,0,4.31,4.31,0,0,0-.33,1.94,4.33,4.33,0,0,0,.33,2A1.08,1.08,0,0,0,26.48,22.15Z" style="fill:#fff"/><path d="M20.93,25.67a1.79,1.79,0,0,1,1.59.84,4.27,4.27,0,0,1,.56,2.36,4.41,4.41,0,0,1-.54,2.34,1.79,1.79,0,0,1-1.61.86,1.82,1.82,0,0,1-1.59-.84,4.27,4.27,0,0,1-.55-2.36,4.41,4.41,0,0,1,.54-2.34A1.75,1.75,0,0,1,20.93,25.67Zm0,5.77a1.07,1.07,0,0,0,1-.61,4.35,4.35,0,0,0,.33-2,4.35,4.35,0,0,0-.33-2,1.08,1.08,0,0,0-1-.61,1.06,1.06,0,0,0-1,.63,4.18,4.18,0,0,0-.34,1.94,4.33,4.33,0,0,0,.33,1.95A1.08,1.08,0,0,0,20.93,31.44Z" style="fill:#fff"/></svg>