<svg xmlns="http://www.w3.org/2000/svg" viewBox="0 0 48 48"><title>as2</title><g id="Warstwa_1" data-name="Warstwa 1"><path d="M20.19,12.83h3.27l7.26,7.34V32.44H41.61V12.11L35.43,5.57l-14.52.37s-.72,0-.72,2.54Z" style="fill:#f0f0f0"/><polyline points="35.51 5.75 35.51 12.03 41.97 12.03" style="fill:none;stroke:#b2bfcf;stroke-linecap:round;stroke-miterlimit:10;stroke-width:0.7260000000000001px"/><path d="M20.15,9.67V7.13A1.45,1.45,0,0,1,21.6,5.67H35.51L42,12V31a1.45,1.45,0,0,1-1.45,1.46H36.33" style="fill:none;stroke:#b2bfcf;stroke-linecap:round;stroke-miterlimit:10;stroke-width:0.7260000000000001px"/><path d="M27.14,34.82v6a1.45,1.45,0,0,1-1.45,1.45H7.48A1.45,1.45,0,0,1,6,40.78V17.06a1.45,1.45,0,0,1,1.45-1.45H16" style="fill:#fff;stroke:#009ada;stroke-linecap:round;stroke-linejoin:round;stroke-width:0.7260000000000001px"/><polyline points="8.48 7.1 11.05 9.67 8.45 12.28" style="fill:none;stroke:#009ada;stroke-linecap:round;stroke-linejoin:round;stroke-width:1.4520000000000002px"/><polyline points="12.9 7.1 15.47 9.67 12.87 12.28" style="fill:none;stroke:#009ada;stroke-linecap:round;stroke-linejoin:round;stroke-width:1.4520000000000002px"/><polyline points="39.28 41.96 36.71 39.39 39.32 36.79" style="fill:none;stroke:#009ada;stroke-linecap:round;stroke-linejoin:round;stroke-width:1.4520000000000002px"/><polyline points="34.87 41.96 32.3 39.39 34.9 36.79" style="fill:none;stroke:#009ada;stroke-linecap:round;stroke-linejoin:round;stroke-width:1.4520000000000002px"/><path d="M23.89,11.82h0a4.66,4.66,0,0,0-4.66,4.66V19h9.31V16.48A4.66,4.66,0,0,0,23.89,11.82Z" style="fill:none;stroke:#009ada;stroke-linecap:round;stroke-linejoin:round;stroke-width:2.178px"/><rect x="13.07" y="18.17" width="21.63" height="14.46" rx="1.45" ry="1.45" style="fill:#009ada"/><path d="M23.89,10.73a5.76,5.76,0,0,1,5.74,5.75v1.69h3.62a1.45,1.45,0,0,1,1.45,1.46V31.18a1.45,1.45,0,0,1-1.45,1.45H14.52a1.45,1.45,0,0,1-1.45-1.45V19.63a1.45,1.45,0,0,1,1.45-1.46h3.62V16.48a5.76,5.76,0,0,1,5.75-5.75M20.32,17.9h7.13V16.48a3.57,3.57,0,1,0-7.13,0V17.9m3.57-9.34A7.94,7.94,0,0,0,16,16H14.52a3.63,3.63,0,0,0-3.63,3.63V31.18a3.64,3.64,0,0,0,3.63,3.63H33.25a3.64,3.64,0,0,0,3.63-3.63V19.63A3.63,3.63,0,0,0,33.25,16H31.8a7.94,7.94,0,0,0-7.91-7.44Zm-1.17,7.16a1.39,1.39,0,0,1,2.33,0Z" style="fill:#fff"/><path d="M17.48,21.63h1.1l3.1,7.19H20.22l-.67-1.64H16.43l-.65,1.64H14.35Zm1.62,4.45L18,23.15l-1.12,2.93Z" style="fill:#fff"/><path d="M26.06,23.13a1.77,1.77,0,0,0-1.32-.62c-.59,0-1.27.29-1.27,1s.56.85,1.37,1.11S27,25.3,27,26.71A2.33,2.33,0,0,1,24.33,29a3.28,3.28,0,0,1-2.47-1l.91-.85a2.05,2.05,0,0,0,1.58.79c.6,0,1.3-.29,1.3-1.07s-.75-1-1.66-1.25-1.82-.7-1.82-2,1.33-2.11,2.63-2.11a3.13,3.13,0,0,1,2.1.77Z" style="fill:#fff"/><path d="M28.14,27.71,30.91,25a1.91,1.91,0,0,0,.73-1.41,1.08,1.08,0,0,0-1.14-1.11,1.25,1.25,0,0,0-1.22,1.23l-1.19-.18a2.33,2.33,0,0,1,2.43-2.06,2.16,2.16,0,0,1,2.39,2.1,2.93,2.93,0,0,1-1.15,2.17l-2.08,2h3.25v1.11H28.14Z" style="fill:#fff"/><path d="M22.38,16.17l.39-1.75s1.74.18,1.81.2,1.23,1.55,1.23,1.55l-1.72.52Z" style="fill:#fff"/></g></svg>