<svg xmlns="http://www.w3.org/2000/svg" viewBox="0 0 48 48"><title>sftp</title><g id="Warstwa_1" data-name="Warstwa 1"><path d="M36.49,10.13l-4.85,1.3L26.8,12.72a1.12,1.12,0,0,0-.5,1.86L27.72,16,10.52,32.94a1.1,1.1,0,0,0,0,1.57l2.34,2.34a1.1,1.1,0,0,0,1.57,0l17.2-17,1.76,1.76a1.11,1.11,0,0,0,1.86-.49l1.29-4.84,1.3-4.85A1.1,1.1,0,0,0,36.49,10.13Z" style="fill:#f0f0f0;stroke:#b2bfcf;stroke-miterlimit:10;stroke-width:0.7260000000000001px"/><path d="M3.65,28.76l4.84-1.3,4.84-1.3a1.11,1.11,0,0,0,.5-1.85L12.41,22.9,29.08,6.16a1.12,1.12,0,0,0,0-1.57L26.73,2.24a1.1,1.1,0,0,0-1.56,0L8.5,19,6.74,17.22a1.11,1.11,0,0,0-1.85.5l-1.3,4.84L2.29,27.4A1.11,1.11,0,0,0,3.65,28.76Z" style="fill:#fff;stroke:#009ada;stroke-linecap:round;stroke-miterlimit:10;stroke-width:0.7260000000000001px"/><rect x="20.61" y="28.67" width="23.32" height="15.59" rx="1.45" ry="1.45" style="fill:#009ada"/><path d="M32.27,21a6.12,6.12,0,0,1,6.11,6.11v1.52h4.1a1.45,1.45,0,0,1,1.45,1.46V42.81a1.46,1.46,0,0,1-1.45,1.46H22.06a1.46,1.46,0,0,1-1.45-1.46V30.13a1.45,1.45,0,0,1,1.45-1.46h4.1V27.15A6.12,6.12,0,0,1,32.27,21m-3.93,7.63h7.87V27.15a3.94,3.94,0,1,0-7.87,0v1.52m3.93-9.81A8.3,8.3,0,0,0,24,26.5h-2a3.63,3.63,0,0,0-3.63,3.63V42.81a3.64,3.64,0,0,0,3.63,3.63H42.48a3.64,3.64,0,0,0,3.63-3.63V30.13a3.63,3.63,0,0,0-3.63-3.63H40.54a8.31,8.31,0,0,0-8.27-7.64ZM30.64,26.5a1.75,1.75,0,0,1,3.26,0Z" style="fill:#fff"/><path d="M32.27,22.12h0a5,5,0,0,0-5,5v2.7h10v-2.7A5,5,0,0,0,32.27,22.12Z" style="fill:none;stroke:#009ada;stroke-linecap:round;stroke-linejoin:round;stroke-width:2.178px"/><path d="M25.89,34.8a1.51,1.51,0,0,0-1.13-.53c-.51,0-1.09.24-1.09.84s.48.74,1.18,1,1.8.6,1.8,1.81a2,2,0,0,1-2.25,2A2.8,2.8,0,0,1,22.29,39l.78-.73a1.76,1.76,0,0,0,1.35.67c.51,0,1.12-.25,1.12-.91s-.65-.83-1.43-1.07-1.55-.6-1.55-1.75,1.14-1.82,2.25-1.82a2.68,2.68,0,0,1,1.8.67Z" style="fill:#fff"/><path d="M27.75,33.51h4v1H28.85v1.69h2.71v.92H28.85v2.6h-1.1Z" style="fill:#fff"/><path d="M34,34.47h-1.9v-1H37v1H35.08v5.21H34Z" style="fill:#fff"/><path d="M37.69,33.51h2c1.41,0,2.33.5,2.33,1.79s-1.09,1.83-2.4,1.83h-.84v2.55h-1.1Zm1.86,2.69c.72,0,1.37-.17,1.37-.9s-.65-.86-1.33-.86h-.8V36.2Z" style="fill:#fff"/><path d="M35.75,19.29l.79-3,1.3-4.85a1.1,1.1,0,0,0-1.35-1.35l-4.85,1.3L26.8,12.72a1.12,1.12,0,0,0-.5,1.86L27.72,16,10.52,32.94a1.1,1.1,0,0,0,0,1.57l2.34,2.34a1.1,1.1,0,0,0,1.57,0l3.77-3.71" style="fill:none;stroke:#b2bfcf;stroke-linecap:round;stroke-linejoin:round;stroke-width:0.7260000000000001px"/><polygon points="29.75 26.88 31.38 24.37 33.74 25.03 34.65 27.3 29.75 26.88" style="fill:#fff"/></g></svg>