<svg xmlns="http://www.w3.org/2000/svg" viewBox="0 0 48 48"><title>webdav</title><g id="Warstwa_1" data-name="Warstwa 1"><path d="M44.87,22.55a8.17,8.17,0,0,0-6.63-8,13.38,13.38,0,0,0-26.12-2.43,9.3,9.3,0,0,0-.56,18.55h0a8.31,8.31,0,0,0,.87,0,8.51,8.51,0,0,0,.88,0H35.88a14.62,14.62,0,0,0,2.44-.12A8.15,8.15,0,0,0,44.87,22.55Z" style="fill:#f0f0f0;stroke:#b2bfcf;stroke-linecap:round;stroke-linejoin:round;stroke-width:0.7260000000000001px"/><path d="M35.31,18.41a2.51,2.51,0,0,1,2.57,2.67V41.29a2.43,2.43,0,0,1-2.51,2.33H11.59c-2.42-.11-2.65-1.92-2.53-3.21V21a2.46,2.46,0,0,1,2.39-2.56H35.31m0-2.18H11.44A4.62,4.62,0,0,0,6.87,21V40.32A5.14,5.14,0,0,0,8,44.25a4.74,4.74,0,0,0,3.51,1.54H35.37a4.61,4.61,0,0,0,4.69-4.51V21a4.69,4.69,0,0,0-4.75-4.75Z" style="fill:#fff"/><rect x="9.41" y="18.79" width="28.1" height="24.49" rx="2.06" ry="2.06" style="fill:#fff;stroke:#009ada;stroke-linecap:round;stroke-linejoin:round;stroke-width:0.7260000000000001px"/><path d="M9.6,34.51H37.18v7.63c0,.57-.69,1-1.54,1H11.13c-.84,0-1.53-.46-1.53-1Z" style="fill:#009ada"/><path d="M10.43,37.13h.85l.85,3.21h0l1-3.21h.8l.95,3.21h0l.86-3.21h.83l-1.28,4.36h-.75l-1-3.27h0l-1,3.27h-.75Z" style="fill:#fff"/><path d="M19.63,40.25H17.38a.82.82,0,0,0,.84.73.91.91,0,0,0,.79-.39l.49.4a1.48,1.48,0,0,1-1.27.59A1.49,1.49,0,0,1,16.64,40a1.51,1.51,0,0,1,1.57-1.58,1.4,1.4,0,0,1,1.43,1.6A1.34,1.34,0,0,1,19.63,40.25Zm-.73-.53a.67.67,0,0,0-.7-.72.79.79,0,0,0-.82.72Z" style="fill:#fff"/><path d="M21.11,36.83v2.08h0a1.23,1.23,0,0,1,1-.46,1.57,1.57,0,0,1,0,3.13,1.18,1.18,0,0,1-1-.53h0v.44h-.7V36.83ZM22,39.05a.92.92,0,0,0-.87,1A.91.91,0,0,0,22,41a1,1,0,0,0,0-1.91Z" style="fill:#fff"/><path d="M24.31,37.13h1.55a2.14,2.14,0,0,1,2.41,2.18,2.21,2.21,0,0,1-2.41,2.18H24.31Zm1.42,3.69c.81,0,1.71-.33,1.71-1.51s-.9-1.52-1.71-1.52h-.64v3Z" style="fill:#fff"/><path d="M30.25,37.13h.67l1.88,4.36h-.89l-.41-1H29.61l-.4,1h-.87Zm1,2.7-.67-1.78-.69,1.78Z" style="fill:#fff"/><path d="M32.5,37.13h.87l1.21,3.36h0l1.22-3.36h.84L34.9,41.49h-.67Z" style="fill:#fff"/><path d="M23.43,28.87a4.27,4.27,0,0,0-1.77-1.81,4.49,4.49,0,0,0-2.39-.77l8-13a2.27,2.27,0,0,1,3.12-.73l.31.19a2.27,2.27,0,0,1,.73,3.12Z" style="fill:#fff;stroke:#009ada;stroke-linecap:round;stroke-linejoin:round;stroke-width:1.4520000000000002px"/><line x1="26.35" y1="14.86" x2="30.51" y2="17.44" style="fill:#f0f0f0;stroke:#009ada;stroke-linecap:round;stroke-linejoin:round;stroke-width:1.4520000000000002px"/><path d="M23.43,28.87,19,31.23l.28-4.94a4.34,4.34,0,0,1,2.39.77A4.46,4.46,0,0,1,23.43,28.87Z" style="fill:#f0f0f0;stroke:#009ada;stroke-linecap:round;stroke-linejoin:round;stroke-width:1.4520000000000002px"/></g></svg>