<svg xmlns="http://www.w3.org/2000/svg" viewBox="0 0 48 48"><title>split</title><g id="Warstwa_1" data-name="Warstwa 1"><path d="M21.85,38.64V15.25a1.69,1.69,0,0,1,3.38,0V38.64Z" style="fill:#b2bfcf"/><path d="M23.54,14.12a1.13,1.13,0,0,1,1.12,1.13V38.08H22.41V15.25a1.13,1.13,0,0,1,1.13-1.13m0-1.12a2.26,2.26,0,0,0-2.26,2.25v24h4.51v-24A2.25,2.25,0,0,0,23.54,13Z" style="fill:#fff"/><path d="M11.54,33.67l1-3.38h4.25a5,5,0,0,0,5.08-5.47l0-.56.56,0,2.81-.16,0,.56A9.43,9.43,0,0,1,23.06,31a8.45,8.45,0,0,1-6.14,2.69H11.54Z" style="fill:#b2bfcf"/><path d="M24.66,24.66a8.91,8.91,0,0,1-2,5.94,7.91,7.91,0,0,1-5.75,2.5h-4.6L13,30.85h3.82a5.57,5.57,0,0,0,5.64-6.06l1.13-.07h0l1.12-.06m-1.12.06-1.13.07h0l1.13-.07m-1.13.07h0m3.31-1.33-1.13.07-1.12.07-1.12.06-1.12.06h0l.06,1.08v.05c.05,1.09-.14,4.61-4.55,4.87H12.1l-.24.81-.65,2.25-.42,1.44H17a9,9,0,0,0,6.52-2.88,10.1,10.1,0,0,0,2.31-6.76l-.07-1.13Z" style="fill:#fff"/><polygon points="20.16 37.09 23.54 44.06 26.91 37.09 20.16 37.09" style="fill:#b2bfcf"/><polygon points="13.76 35.28 7.88 32 13.66 28.54 13.76 35.28" style="fill:#b2bfcf"/><path d="M30.47,33.77a8.67,8.67,0,0,1-6.41-2.63,9.52,9.52,0,0,1-2.23-6.37v-10h3.38v10.1a6.1,6.1,0,0,0,1.36,4,5.39,5.39,0,0,0,4,1.52H35.9L36,33.77Z" style="fill:#b2bfcf"/><path d="M24.65,15.34v9.54a6.66,6.66,0,0,0,1.5,4.37A6,6,0,0,0,30.54,31h4.82l.09,2.25h-5a8.09,8.09,0,0,1-6-2.45,8.85,8.85,0,0,1-2.08-5.94V15.34h2.25m1.13-1.12H21.27V24.81a10,10,0,0,0,2.38,6.71,9.19,9.19,0,0,0,6.79,2.82h6.19l-.05-1.18-.1-2.25,0-1.08h-5.9A4.86,4.86,0,0,1,27,28.48a5.61,5.61,0,0,1-1.21-3.55V14.22Z" style="fill:#fff"/><polygon points="34.33 28.65 40.13 32.09 34.25 35.39 34.33 28.65" style="fill:#b2bfcf"/><rect x="11.99" y="3.94" width="23.63" height="12.55" rx="1.31" ry="1.31" style="fill:#009ada"/><path d="M16.92,9.81l-2-3h1.37L17.62,9l1.3-2.18h1.3l-1.94,3,2.28,3.37H19.13l-1.56-2.5-1.49,2.5H14.71Z" style="fill:#fff"/><path d="M21,6.84h1.77l1.65,4.53h0l1.64-4.53h1.78v6.37H26.79V8.09h0l-1.94,5.12H24L22.13,8.09h0v5.12H21Z" style="fill:#fff"/><path d="M29.07,6.84H30.2v5.37h2.71v1H29.07Z" style="fill:#fff"/></g></svg>