<svg xmlns="http://www.w3.org/2000/svg" viewBox="0 0 48 48"><title>db</title><g id="Warstwa_1" data-name="Warstwa 1"><path d="M6.41,9.81V16s0,2,8.16,3.22a68.88,68.88,0,0,0,19.58-.25c3.11-.47,5.94-1.17,6.91-2s.71-2.2.71-3.13.15-4.22-.31-4a28.81,28.81,0,0,1-10.12,2.75,137.67,137.67,0,0,1-14.23,0C13.73,12.49,7.53,11.24,6.41,9.81Z" style="fill:#fff"/><path d="M6.41,21.36v6.16s0,2,8.16,3.23a69.16,69.16,0,0,0,19.58-.26c3.11-.47,5.94-1.17,6.91-2s.71-2.19.71-3.13.15-4.22-.31-4a28.71,28.71,0,0,1-10.12,2.76,137.48,137.48,0,0,1-14.23,0C13.73,24,7.53,22.79,6.41,21.36Z" style="fill:#fff"/><path d="M6.41,33.15v6.16s0,2,8.16,3.22a68.88,68.88,0,0,0,19.58-.25c3.11-.47,5.94-1.17,6.91-2s.71-2.2.71-3.13.15-4.22-.31-4A28.81,28.81,0,0,1,31.34,35.9a137.67,137.67,0,0,1-14.23,0C13.73,35.83,7.53,34.58,6.41,33.15Z" style="fill:#fff"/><path d="M41.77,39.13c0,2.21-8,4-17.77,4s-17.77-1.79-17.77-4" style="fill:#fff;stroke:#b2bfcf;stroke-miterlimit:10;stroke-width:0.7260000000000001px"/><line x1="41.77" y1="32.2" x2="41.77" y2="39.13" style="fill:#fff;stroke:#b2bfcf;stroke-miterlimit:10;stroke-width:0.7260000000000001px"/><line x1="6.23" y1="32.2" x2="6.23" y2="39.13" style="fill:#fff;stroke:#b2bfcf;stroke-miterlimit:10;stroke-width:0.7260000000000001px"/><ellipse cx="24" cy="32.2" rx="17.77" ry="4" style="fill:#e9edf2;stroke:#b2bfcf;stroke-miterlimit:10;stroke-width:0.7260000000000001px"/><path d="M41.77,27.31c0,2.21-8,4-17.77,4s-17.77-1.79-17.77-4" style="fill:#fff;stroke:#b2bfcf;stroke-miterlimit:10;stroke-width:0.7260000000000001px"/><line x1="41.77" y1="20.38" x2="41.77" y2="27.31" style="fill:#fff;stroke:#b2bfcf;stroke-miterlimit:10;stroke-width:0.7260000000000001px"/><line x1="6.23" y1="20.38" x2="6.23" y2="27.31" style="fill:#fff;stroke:#b2bfcf;stroke-miterlimit:10;stroke-width:0.7260000000000001px"/><ellipse cx="24" cy="20.38" rx="17.77" ry="4" style="fill:#e9edf2;stroke:#b2bfcf;stroke-miterlimit:10;stroke-width:0.7260000000000001px"/><path d="M41.77,15.8c0,2.21-8,4-17.77,4S6.23,18,6.23,15.8" style="fill:#fff;stroke:#b2bfcf;stroke-miterlimit:10;stroke-width:0.7260000000000001px"/><line x1="41.77" y1="8.87" x2="41.77" y2="15.8" style="fill:#fff;stroke:#b2bfcf;stroke-miterlimit:10;stroke-width:0.7260000000000001px"/><line x1="6.23" y1="8.87" x2="6.23" y2="15.8" style="fill:#fff;stroke:#b2bfcf;stroke-miterlimit:10;stroke-width:0.7260000000000001px"/><ellipse cx="24" cy="8.87" rx="17.77" ry="4" style="fill:#e9edf2;stroke:#b2bfcf;stroke-miterlimit:10;stroke-width:0.7260000000000001px"/><line x1="8.91" y1="13.36" x2="8.91" y2="15.34" style="fill:none;stroke:#009ada;stroke-linecap:round;stroke-miterlimit:10;stroke-width:1.4520000000000002px"/><line x1="11.84" y1="14.27" x2="11.84" y2="16.25" style="fill:none;stroke:#009ada;stroke-linecap:round;stroke-miterlimit:10;stroke-width:1.4520000000000002px"/><line x1="11.84" y1="25.9" x2="11.84" y2="27.89" style="fill:none;stroke:#009ada;stroke-linecap:round;stroke-miterlimit:10;stroke-width:1.4520000000000002px"/><line x1="14.77" y1="14.81" x2="14.77" y2="16.79" style="fill:none;stroke:#009ada;stroke-linecap:round;stroke-miterlimit:10;stroke-width:1.4520000000000002px"/><line x1="8.91" y1="24.95" x2="8.91" y2="26.93" style="fill:none;stroke:#009ada;stroke-linecap:round;stroke-miterlimit:10;stroke-width:1.4520000000000002px"/><line x1="8.91" y1="36.68" x2="8.91" y2="38.67" style="fill:none;stroke:#009ada;stroke-linecap:round;stroke-miterlimit:10;stroke-width:1.4520000000000002px"/><line x1="11.84" y1="37.6" x2="11.84" y2="39.58" style="fill:none;stroke:#009ada;stroke-linecap:round;stroke-miterlimit:10;stroke-width:1.4520000000000002px"/><line x1="14.77" y1="38.13" x2="14.77" y2="40.12" style="fill:none;stroke:#009ada;stroke-linecap:round;stroke-miterlimit:10;stroke-width:1.4520000000000002px"/><path d="M23.8,38.09A10.2,10.2,0,1,1,34,27.89,10.22,10.22,0,0,1,23.8,38.09Z" style="fill:#009ada"/><path d="M23.8,18.42a9.47,9.47,0,1,1-9.47,9.47,9.47,9.47,0,0,1,9.47-9.47m0-1.46A10.93,10.93,0,1,0,34.72,27.89,10.94,10.94,0,0,0,23.8,17Z" style="fill:#fff"/><path d="M17.42,24.64H20c1.89,0,4,.9,4,3.6,0,2.52-2.09,3.6-4,3.6H17.42Zm2.35,6.08c1.32,0,2.81-.54,2.81-2.48s-1.49-2.5-2.81-2.5H18.7v5Z" style="fill:#fff"/><path d="M25.19,24.64H28c1.09,0,2.21.5,2.21,1.81A1.62,1.62,0,0,1,29,28v0a1.65,1.65,0,0,1,1.55,1.69c0,1.57-1.36,2.1-2.72,2.1H25.19Zm1.28,2.93h1.14c.85,0,1.31-.36,1.31-1s-.46-.89-1.42-.89h-1Zm0,3.19h1.15c.66,0,1.6-.13,1.6-1.08,0-.75-.51-1-1.55-1h-1.2Z" style="fill:#fff"/></g></svg>