<svg xmlns="http://www.w3.org/2000/svg" viewBox="0 0 48 48"><title>ftpserver</title><g id="Warstwa_1" data-name="Warstwa 1"><rect x="4.21" y="23.22" width="29.26" height="9.42" rx="1.45" ry="1.45" style="fill:#f0f0f0;stroke:#b2bfcf;stroke-linecap:round;stroke-linejoin:round;stroke-width:0.7260000000000001px"/><line x1="25.43" y1="29.03" x2="26.25" y2="29.03" style="fill:none;stroke:#009ada;stroke-linecap:round;stroke-miterlimit:10;stroke-width:1.4520000000000002px"/><line x1="28.94" y1="29.03" x2="30.58" y2="29.03" style="fill:none;stroke:#009ada;stroke-linecap:round;stroke-miterlimit:10;stroke-width:1.4520000000000002px"/><rect x="4.21" y="13.8" width="29.26" height="9.42" rx="1.45" ry="1.45" style="fill:#f0f0f0;stroke:#b2bfcf;stroke-linecap:round;stroke-linejoin:round;stroke-width:0.7260000000000001px"/><rect x="4.21" y="4.38" width="29.26" height="9.42" rx="1.45" ry="1.45" style="fill:#f0f0f0;stroke:#b2bfcf;stroke-linecap:round;stroke-linejoin:round;stroke-width:0.7260000000000001px"/><line x1="27.49" y1="9.1" x2="29.13" y2="9.1" style="fill:none;stroke:#b2bfcf;stroke-linecap:round;stroke-miterlimit:10;stroke-width:1.4520000000000002px"/><line x1="27.49" y1="18.22" x2="29.13" y2="18.22" style="fill:none;stroke:#b2bfcf;stroke-linecap:round;stroke-miterlimit:10;stroke-width:1.4520000000000002px"/><path d="M26.46,35.21a1.51,1.51,0,0,0-1.14-.53c-.5,0-1.08.24-1.08.84s.47.74,1.17.95,1.81.6,1.81,1.81a2,2,0,0,1-2.25,2,2.84,2.84,0,0,1-2.12-.88l.78-.74a1.77,1.77,0,0,0,1.35.68c.52,0,1.12-.25,1.12-.91s-.64-.83-1.42-1.07-1.56-.6-1.56-1.75,1.14-1.82,2.26-1.82a2.66,2.66,0,0,1,1.79.67Z" style="fill:#fff"/><path d="M28.31,33.92h4v1H29.41v1.69h2.72v.92H29.41v2.6h-1.1Z" style="fill:#fff"/><path d="M34.55,34.88H32.66v-1h4.88v1H35.65v5.21h-1.1Z" style="fill:#fff"/><path d="M38.25,33.92h2c1.41,0,2.32.5,2.32,1.79s-1.09,1.83-2.39,1.83h-.85v2.55h-1.1Zm1.87,2.69c.71,0,1.37-.17,1.37-.9s-.66-.87-1.34-.87h-.8v1.77Z" style="fill:#fff"/><line x1="23.16" y1="9.09" x2="24.8" y2="9.09" style="fill:none;stroke:#b2bfcf;stroke-linecap:round;stroke-miterlimit:10;stroke-width:1.4520000000000002px"/><circle cx="18.84" cy="18.51" r="6.6" style="fill:#fff;stroke:#009ada;stroke-linecap:round;stroke-linejoin:round;stroke-width:0.7260000000000001px"/><rect x="7.07" y="7.94" width="2.18" height="2.18" style="fill:#f0f0f0;stroke:#b2bfcf;stroke-linecap:round;stroke-linejoin:round;stroke-width:0.7260000000000001px"/><rect x="7.07" y="17.42" width="2.18" height="2.18" style="fill:#f0f0f0;stroke:#b2bfcf;stroke-linecap:round;stroke-linejoin:round;stroke-width:0.7260000000000001px"/><rect x="7.07" y="26.84" width="2.18" height="2.18" style="fill:#f0f0f0;stroke:#b2bfcf;stroke-linecap:round;stroke-linejoin:round;stroke-width:0.7260000000000001px"/><polyline points="17.39 15.92 14.81 18.49 17.42 21.1" style="fill:none;stroke:#009ada;stroke-linecap:round;stroke-linejoin:round;stroke-width:1.4520000000000002px"/><polyline points="20.29 15.92 22.86 18.49 20.26 21.1" style="fill:none;stroke:#009ada;stroke-linecap:round;stroke-linejoin:round;stroke-width:1.4520000000000002px"/><rect x="21.48" y="30.92" width="24.67" height="13.06" rx="2.79" ry="2.79" style="fill:#fff"/><path d="M25.05,33.33h5.36v1.3H26.53V36.9h3.66v1.25H26.53v3.5H25.05Z" style="fill:#009ada"/><path d="M33.46,34.63H30.91v-1.3h6.57v1.3H34.94v7H33.46Z" style="fill:#009ada"/><path d="M38.45,33.33h2.71c1.9,0,3.13.67,3.13,2.41s-1.46,2.47-3.23,2.47H39.93v3.44H38.45ZM41,37c1,0,1.84-.23,1.84-1.22s-.88-1.16-1.79-1.16H39.93V37Z" style="fill:#009ada"/></g></svg>