<svg xmlns="http://www.w3.org/2000/svg" viewBox="0 0 48 48"><title>emailreceive</title><g id="Warstwa_1" data-name="Warstwa 1"><path d="M16.6,36.29H5.5a1.58,1.58,0,0,1-1.62-1.54V13.19A1.58,1.58,0,0,1,5.5,11.65h37a1.58,1.58,0,0,1,1.62,1.54V34.8a1.49,1.49,0,0,1-1.49,1.49H5.5a1.58,1.58,0,0,1-1.62-1.54V13.19A1.58,1.58,0,0,1,5.5,11.65h37a1.58,1.58,0,0,1,1.62,1.54V34.85a1.5,1.5,0,0,1-1.49,1.5Z" style="fill:#fff"/><path d="M16.6,36.29H5.5a1.58,1.58,0,0,1-1.62-1.54V13.19A1.58,1.58,0,0,1,5.5,11.65h37a1.58,1.58,0,0,1,1.62,1.54V34.8a1.49,1.49,0,0,1-1.49,1.49H5.5a1.58,1.58,0,0,1-1.62-1.54V13.19A1.58,1.58,0,0,1,5.5,11.65h37a1.58,1.58,0,0,1,1.62,1.54V34.85a1.5,1.5,0,0,1-1.49,1.5Z" style="fill:none;stroke:#b2bfcf;stroke-linecap:round;stroke-linejoin:round;stroke-width:0.7703093166478251px"/><polyline points="4.3 12.15 24 25.52 43.7 12.15" style="fill:none;stroke:#b2bfcf;stroke-linecap:round;stroke-linejoin:round;stroke-width:0.7904975245896423px"/><line x1="4.26" y1="35.79" x2="19.25" y2="24.81" style="fill:none;stroke:#b2bfcf;stroke-linecap:round;stroke-linejoin:round;stroke-width:0.7703093166478251px"/><line x1="27.18" y1="24.81" x2="43.6" y2="35.39" style="fill:none;stroke:#b2bfcf;stroke-linecap:round;stroke-linejoin:round;stroke-width:0.7703093166478251px"/><ellipse cx="24.13" cy="23.76" rx="7.29" ry="6.94" style="fill:#fff;stroke:#009ada;stroke-linecap:round;stroke-linejoin:round;stroke-width:0.7904975245896423px"/><path d="M28.84,23.11a4.46,4.46,0,0,1-.28,1.63,2.6,2.6,0,0,1-.79,1.15,1.79,1.79,0,0,1-1.17.42,1.4,1.4,0,0,1-.86-.27,1.23,1.23,0,0,1-.48-.71h-.08a1.94,1.94,0,0,1-.75.73,2.23,2.23,0,0,1-2.61-.41,2.57,2.57,0,0,1-.58-1.77A2.85,2.85,0,0,1,22,21.79a2.72,2.72,0,0,1,2.07-.8,8.43,8.43,0,0,1,1.06.08,6.39,6.39,0,0,1,1,.24L26,24.21v.15c0,.66.22,1,.65,1s.59-.21.78-.64a3.82,3.82,0,0,0,.29-1.62,3.92,3.92,0,0,0-.43-1.88A3,3,0,0,0,26.07,20a3.72,3.72,0,0,0-1.85-.44,4.64,4.64,0,0,0-2.31.55,3.67,3.67,0,0,0-1.5,1.57A5.23,5.23,0,0,0,19.9,24a3.8,3.8,0,0,0,1,2.78,3.75,3.75,0,0,0,2.78,1,8.09,8.09,0,0,0,2.87-.57v1a7.38,7.38,0,0,1-2.85.54,4.93,4.93,0,0,1-3.59-1.25,4.62,4.62,0,0,1-1.3-3.48,5.94,5.94,0,0,1,.7-2.89,4.79,4.79,0,0,1,1.94-2,5.74,5.74,0,0,1,2.8-.67,5,5,0,0,1,2.41.56,4,4,0,0,1,1.64,1.6A4.79,4.79,0,0,1,28.84,23.11Zm-6.41.79c0,1,.38,1.46,1.14,1.46s1.24-.61,1.32-1.83L25,22a3.22,3.22,0,0,0-.84-.11,1.55,1.55,0,0,0-1.24.53A2.14,2.14,0,0,0,22.43,23.9Z" style="fill:#009ada"/></g></svg>