<svg xmlns="http://www.w3.org/2000/svg" viewBox="0 0 48 48"><title>sftpsrv</title><g id="Warstwa_1" data-name="Warstwa 1"><rect x="2.95" y="21.79" width="29.26" height="9.42" rx="1.45" ry="1.45" style="fill:#f0f0f0;stroke:#b2bfcf;stroke-linecap:round;stroke-linejoin:round;stroke-width:0.7260000000000001px"/><line x1="24.17" y1="27.6" x2="24.99" y2="27.6" style="fill:none;stroke:#009ada;stroke-linecap:round;stroke-miterlimit:10;stroke-width:1.4520000000000002px"/><line x1="27.68" y1="27.6" x2="29.32" y2="27.6" style="fill:none;stroke:#009ada;stroke-linecap:round;stroke-miterlimit:10;stroke-width:1.4520000000000002px"/><rect x="2.95" y="12.37" width="29.26" height="9.42" rx="1.45" ry="1.45" style="fill:#f0f0f0;stroke:#b2bfcf;stroke-linecap:round;stroke-linejoin:round;stroke-width:0.7260000000000001px"/><rect x="2.95" y="2.94" width="29.26" height="9.42" rx="1.45" ry="1.45" style="fill:#f0f0f0;stroke:#b2bfcf;stroke-linecap:round;stroke-linejoin:round;stroke-width:0.7260000000000001px"/><line x1="26.23" y1="7.66" x2="27.87" y2="7.66" style="fill:none;stroke:#b2bfcf;stroke-linecap:round;stroke-miterlimit:10;stroke-width:1.4520000000000002px"/><line x1="26.23" y1="16.79" x2="27.87" y2="16.79" style="fill:none;stroke:#b2bfcf;stroke-linecap:round;stroke-miterlimit:10;stroke-width:1.4520000000000002px"/><rect x="19.91" y="27.65" width="23.32" height="15.59" rx="1.45" ry="1.45" style="fill:#009ada"/><path d="M31.58,20a6.12,6.12,0,0,1,6.11,6.11v1.53h4.09a1.45,1.45,0,0,1,1.46,1.45V41.79a1.45,1.45,0,0,1-1.46,1.45H21.37a1.45,1.45,0,0,1-1.46-1.45V29.1a1.45,1.45,0,0,1,1.46-1.45h4.09V26.12A6.12,6.12,0,0,1,31.58,20m-3.94,7.64h7.87V26.12a3.94,3.94,0,0,0-7.87,0v1.53m3.94-9.82a8.31,8.31,0,0,0-8.27,7.64H21.37a3.63,3.63,0,0,0-3.63,3.63V41.79a3.63,3.63,0,0,0,3.63,3.63H41.78a3.63,3.63,0,0,0,3.63-3.63V29.1a3.63,3.63,0,0,0-3.63-3.63H39.84a8.3,8.3,0,0,0-8.26-7.64Zm-1.64,7.64a1.77,1.77,0,0,1,3.27,0Z" style="fill:#fff"/><path d="M31.58,21.1h0a5,5,0,0,0-5,5v2.71H36.6V26.12A5,5,0,0,0,31.58,21.1Z" style="fill:none;stroke:#009ada;stroke-linecap:round;stroke-linejoin:round;stroke-width:2.178px"/><path d="M25.2,33.78a1.51,1.51,0,0,0-1.14-.53c-.5,0-1.09.24-1.09.84s.48.73,1.18.95,1.8.59,1.8,1.8a2,2,0,0,1-2.24,2,2.79,2.79,0,0,1-2.12-.88l.78-.73a1.77,1.77,0,0,0,1.35.68c.52,0,1.12-.25,1.12-.91s-.65-.83-1.42-1.08-1.56-.6-1.56-1.75,1.14-1.81,2.26-1.81a2.72,2.72,0,0,1,1.79.66Z" style="fill:#fff"/><path d="M27.05,32.49h4v1H28.15v1.69h2.72v.92H28.15v2.6h-1.1Z" style="fill:#fff"/><path d="M33.29,33.45H31.4v-1h4.88v1H34.39v5.21h-1.1Z" style="fill:#fff"/><path d="M37,32.49h2c1.42,0,2.33.49,2.33,1.78s-1.09,1.83-2.4,1.83h-.84v2.56H37Zm1.87,2.69c.71,0,1.36-.17,1.36-.91s-.65-.86-1.33-.86h-.8v1.77Z" style="fill:#fff"/><line x1="21.9" y1="7.65" x2="23.53" y2="7.65" style="fill:none;stroke:#b2bfcf;stroke-linecap:round;stroke-miterlimit:10;stroke-width:1.4520000000000002px"/><circle cx="17.58" cy="17.08" r="6.6" style="fill:#fff;stroke:#009ada;stroke-linecap:round;stroke-linejoin:round;stroke-width:0.7260000000000001px"/><polygon points="29.18 26.11 34.08 26.11 33.11 23.93 30.54 23.5 29.18 26.11" style="fill:#fff"/><rect x="5.81" y="6.51" width="2.18" height="2.18" style="fill:#f0f0f0;stroke:#b2bfcf;stroke-linecap:round;stroke-linejoin:round;stroke-width:0.7260000000000001px"/><rect x="5.81" y="15.99" width="2.18" height="2.18" style="fill:#f0f0f0;stroke:#b2bfcf;stroke-linecap:round;stroke-linejoin:round;stroke-width:0.7260000000000001px"/><rect x="5.81" y="25.41" width="2.18" height="2.18" style="fill:#f0f0f0;stroke:#b2bfcf;stroke-linecap:round;stroke-linejoin:round;stroke-width:0.7260000000000001px"/><polyline points="16.13 14.49 13.55 17.06 16.16 19.66" style="fill:none;stroke:#009ada;stroke-linecap:round;stroke-linejoin:round;stroke-width:1.4520000000000002px"/><polyline points="19.03 14.49 21.6 17.06 19 19.66" style="fill:none;stroke:#009ada;stroke-linecap:round;stroke-linejoin:round;stroke-width:1.4520000000000002px"/></g></svg>