<svg xmlns="http://www.w3.org/2000/svg" viewBox="0 0 48 48"><title>workspacereceive</title><g id="warstwa_1" data-name="warstwa 1"><path d="M19.625,15.555H6a1.484,1.484,0,0,0-1.27,1.631V39.994A1.484,1.484,0,0,0,6,41.625H41.34A1.928,1.928,0,0,0,43.269,39.7V17.186A1.484,1.484,0,0,0,42,15.555H28.157" style="fill:#fff;stroke:#b2bfcf;stroke-linejoin:round;stroke-width:0.726px"/><path d="M19.734,18.838H4.622V16.632a1.182,1.182,0,0,1,1.183-1.183H19.734" style="fill:#e9edf2;stroke:#b2bfcf;stroke-miterlimit:10;stroke-width:0.726px"/><path d="M28.157,18.838H43.269V16.632a1.182,1.182,0,0,0-1.183-1.183H28.157" style="fill:#e9edf2;stroke:#b2bfcf;stroke-miterlimit:10;stroke-width:0.726px"/><line x1="4.731" y1="18.838" x2="19.625" y2="18.838" style="fill:none;stroke:#b2bfcf;stroke-linejoin:round;stroke-width:0.726px"/><line x1="28.157" y1="18.838" x2="43.052" y2="18.838" style="fill:#e9edf2;stroke:#b2bfcf;stroke-miterlimit:10;stroke-width:0.726px"/><line x1="34.787" y1="18.838" x2="34.787" y2="41.267" style="fill:none;stroke:#b2bfcf;stroke-linecap:round;stroke-linejoin:round;stroke-width:0.6320786969661712px"/><line x1="41.67" y1="31.511" x2="36.586" y2="31.511" style="fill:none;stroke:#b2bfcf;stroke-linecap:round;stroke-linejoin:round;stroke-width:0.5998759061921941px"/><line x1="40.677" y1="34.18" x2="36.586" y2="34.18" style="fill:none;stroke:#b2bfcf;stroke-linecap:round;stroke-linejoin:round;stroke-width:0.5998759061921941px"/><line x1="41.36" y1="37" x2="36.586" y2="37" style="fill:none;stroke:#b2bfcf;stroke-linecap:round;stroke-linejoin:round;stroke-width:0.5998759061921941px"/><circle cx="41.095" cy="17.192" r="0.635" style="fill:#b2bfcf"/><circle cx="38.826" cy="17.192" r="0.635" style="fill:#b2bfcf"/><circle cx="36.576" cy="17.192" r="0.635" style="fill:#b2bfcf"/><line x1="24" y1="6.07" x2="24" y2="29.172" style="fill:none;stroke:#0093dd;stroke-linecap:round;stroke-linejoin:round;stroke-width:2px"/><polygon points="15.82 22.545 17.285 21.181 23.998 28.405 30.713 21.181 32.178 22.545 23.998 31.341 15.82 22.545" style="fill:#0093dd"/></g></svg>